<?xml version="1.0" encoding="UTF-8" standalone="no"?>
<svg
   version="1"
   width="450"
   height="300"
   id="svg55"
   sodipodi:docname="Flag_of_Andorra_(end_of_the_19th_century-c._1930s).svg"
   inkscape:version="1.3.1 (9b9bdc1480, 2023-11-25, custom)"
   xmlns:inkscape="http://www.inkscape.org/namespaces/inkscape"
   xmlns:sodipodi="http://sodipodi.sourceforge.net/DTD/sodipodi-0.dtd"
   xmlns="http://www.w3.org/2000/svg"
   xmlns:svg="http://www.w3.org/2000/svg">
  <defs
     id="defs55" />
  <sodipodi:namedview
     id="namedview55"
     pagecolor="#ffffff"
     bordercolor="#000000"
     borderopacity="0.25"
     inkscape:showpageshadow="2"
     inkscape:pageopacity="0.0"
     inkscape:pagecheckerboard="0"
     inkscape:deskcolor="#d1d1d1"
     inkscape:zoom="1.9445436"
     inkscape:cx="188.99036"
     inkscape:cy="111.59431"
     inkscape:window-width="1872"
     inkscape:window-height="1016"
     inkscape:window-x="0"
     inkscape:window-y="0"
     inkscape:window-maximized="1"
     inkscape:current-layer="g1" />
  <g
     id="g1">
    <path
       fill="#fedf00"
       d="M 0,300 H 450 V 0 H 0 Z"
       id="path1" />
    <path
       fill="#0018a8"
       d="M 0,100 H 450 V 0 H 0 Z"
       id="path2" />
    <path
       fill="#d0103a"
       d="M 0,300 H 450 V 200 H 0 Z"
       id="path3" />
    <g
       id="g9"
       transform="matrix(3.7795276,0,0,3.7795276,469.79338,157.32641)">
      <g
         id="g8"
         transform="matrix(1.2616948,0,0,1,19.255807,11.293577)"
         style="stroke-width:0.890272">
        <path
           id="path1-7"
           style="fill:none;stroke:#000000;stroke-width:0.1647;stroke-linecap:round;paint-order:stroke fill markers"
           d="m -65.919031,-20.461389 c -2.238394,2.269918 -7.590976,0.677498 -7.590976,0.677498 -2.981222,3.172619 -8.796226,1.246705 -8.796226,1.246705 1.62864,1.375199 3.759054,7.404869 4.020145,8.103587 0.261091,0.6987191 1.417389,4.3317515 2.028753,5.8404955 0,0 5.051131,-2.5408472 9.699641,-2.761884 4.648511,-0.2210363 10.309784,2.761884 10.309784,2.761884 1.515798,-3.5283182 0.57237,-5.8081305 5.326552,-13.7256215 -5.270568,1.560357 -8.240461,-1.280574 -8.240461,-1.280574 -2.47281,1.027469 -4.696408,0.56826 -6.757212,-0.86209 z"
           sodipodi:nodetypes="cccscscccc" />
        <path
           style="fill:none;stroke:#000000;stroke-width:0.1647;stroke-linecap:round;paint-order:stroke fill markers"
           d="m -76.8626,-6.4327768 c 0,0 5.585753,-3.0901746 10.609976,-3.0600734 5.024224,0.030102 10.540684,3.2033753 10.540684,3.2033753"
           id="path2-0"
           sodipodi:nodetypes="csc" />
        <path
           style="fill:none;stroke:#000000;stroke-width:0.1647;stroke-linecap:round;paint-order:stroke fill markers"
           d="m -76.257335,-4.5931035 c 0,0 4.179022,2.626322 9.94018,2.4900938 5.761159,-0.1362283 10.069244,-2.4900938 10.069244,-2.4900938 v 0 0"
           id="path3-9"
           sodipodi:nodetypes="csccc" />
      </g>
      <path
         id="path4"
         style="fill:none;stroke:#000000;stroke-width:0.185;stroke-linecap:round;paint-order:stroke fill markers"
         d="m -82.729158,-9.173857 a 1.8603822,1.9302477 0 0 1 -1.860381,1.930248 1.8603822,1.9302477 0 0 1 -1.860383,-1.930248 1.8603822,1.9302477 0 0 1 1.860383,-1.930247 1.8603822,1.9302477 0 0 1 1.860381,1.930247 z" />
      <path
         id="ellipse4"
         style="fill:none;stroke:#000000;stroke-width:0.185;stroke-linecap:round;paint-order:stroke fill markers"
         d="m -71.77318,-10.448997 a 1.8603822,1.9302477 0 0 1 -1.860382,1.930248 1.8603822,1.9302477 0 0 1 -1.860382,-1.930248 1.8603822,1.9302477 0 0 1 1.860382,-1.930248 1.8603822,1.9302477 0 0 1 1.860382,1.930248 z" />
      <path
         id="ellipse5"
         style="fill:none;stroke:#000000;stroke-width:0.185;stroke-linecap:round;paint-order:stroke fill markers"
         d="m -62.05351,-11.132182 a 1.8603822,1.9302477 0 0 1 -1.860382,1.930248 1.8603822,1.9302477 0 0 1 -1.860382,-1.930248 1.8603822,1.9302477 0 0 1 1.860382,-1.930248 1.8603822,1.9302477 0 0 1 1.860382,1.930248 z" />
      <path
         id="ellipse6"
         style="fill:none;stroke:#000000;stroke-width:0.185;stroke-linecap:round;paint-order:stroke fill markers"
         d="m -53.488161,-10.258718 a 1.8603822,1.9302477 0 0 1 -1.860382,1.930248 1.8603822,1.9302477 0 0 1 -1.860382,-1.930248 1.8603822,1.9302477 0 0 1 1.860382,-1.930248 1.8603822,1.9302477 0 0 1 1.860382,1.930248 z" />
      <path
         id="ellipse7"
         style="fill:none;stroke:#000000;stroke-width:0.185;stroke-linecap:round;paint-order:stroke fill markers"
         d="m -43.086572,-9.047896 a 1.8603822,1.9302477 0 0 1 -1.860382,1.930248 1.8603822,1.9302477 0 0 1 -1.860383,-1.930248 1.8603822,1.9302477 0 0 1 1.860383,-1.930248 1.8603822,1.9302477 0 0 1 1.860382,1.930248 z" />
    </g>
  </g>
</svg>
