<svg xmlns="http://www.w3.org/2000/svg" version="1" width="1200" height="600"><path d="M 0,0 H 1200 V 600 H 0 Z" fill="#da121a"/><g transform="scale(2)" fill-rule="evenodd"><path d="m 99.88,62.931 -14.15,4.47 -0.424,12.005 -8.51,4.701 -8.89,-6.42 -11.336,10.238 6.158,8.55 -7.016,8.538 -9.83,-2.559 -7.462,16.443 9.298,5.73 -1.878,12.673 -10.97,0.454 0.217,16.47 11.005,0.46 2.478,11.016 -8.957,7.506 7.683,15.06 10.082,-4.602 6.85,8.362 -6.905,9.43 14.073,11.928 8.984,-8.38 8.677,4.134 -1.936,12.327 10.06,3.403 13.59,-12.794 -10.696,-14.611 C 57.37,185.73 44.997,115.846 100.233,91.656 Z" fill="#fcdd09"/><path d="m 103.133,64.264 -0.029,49.282 13.456,11.053 c 12.853,-9.625 1.018,-0.867 14.405,-10.613 V 64.295 h -2.271 l -0.425,25.623 c -2.571,7.57 -5.14,12.71 -11.71,14.728 -5.275,-1.88 -8.057,-5.936 -11.01,-13.302 v -27.08 z" fill="#fcdd09"/><path d="m 107.012,64.295 0.471,25.623 1.934,-9.976 0.07,-15.647 z m 8.206,0 -0.107,9.458 -2.935,5.311 0.141,14.989 c 0,0 2.272,4.214 4.243,4.233 2.034,0.018 4.458,-4.284 4.458,-4.284 v -15.01 l -2.9,-5.226 v -9.471 z m -12.114,54.077 v 24.262 l 13.456,13.32 14.405,-12.953 v -24.245 l -14.405,10.642 z" fill="#fcdd09"/><path d="m 265.234,751.8 0.422,2.674 3.161,3.703 1.054,-0.411 -0.421,-1.852 z" transform="matrix(2.29327,0,0,2.30916,-502.22,-1601.447)" fill="#da121a" stroke="#da121a" stroke-width=".724"/><path d="m 103.104,148.853 v 21.754 l 13.456,12.259 14.405,-12.465 v -21.548 l -14.405,12.11 z" fill="#fcdd09"/><path d="m 264.31,770.497 -0.008,4.52 0.034,3.88 5.488,6.673 5.921,-6.676 0.02,-8.467 -5.941,4.843 z" transform="matrix(2.29327,0,0,2.30916,-502.22,-1601.447)" fill="#fcdd09" stroke="#ebe820" stroke-width=".724"/><path d="m 116.586,210.504 -1.863,2.02 c 0,0 -4.826,1.905 -4.802,6.64 0.016,3.176 3.353,5.896 6.665,5.844 3.116,-0.048 6.751,-2.13 6.737,-5.845 -0.019,-4.299 -5.089,-6.638 -5.089,-6.638 z m 0,4.258 c 2.199,0 4.157,1.952 4.157,4.113 0,2.16 -1.958,4.185 -4.157,4.185 -2.199,0 -4.229,-2.024 -4.228,-4.185 0,-2.161 2.03,-4.113 4.228,-4.113 z" fill="#fcdd09"/><path d="m 265.187,763.89 0.422,2.674 3.161,3.703 1.054,-0.411 -0.421,-1.852 z m 0.072,12.452 0.422,2.674 3.161,3.704 1.054,-0.412 -0.421,-1.852 z m -0.039,-37.562 0.421,2.675 3.162,3.703 1.054,-0.411 -0.422,-1.852 z" transform="matrix(2.29327,0,0,2.30916,-502.22,-1601.447)" fill="#da121a" stroke="#da121a" stroke-width=".724"/><path d="m 134.413,62.93 14.15,4.47 0.424,12.006 8.51,4.701 8.89,-6.42 11.335,10.239 -6.157,8.55 7.016,8.537 9.83,-2.558 7.46,16.443 -9.297,5.73 1.879,12.673 10.97,0.454 -0.218,16.47 -11.005,0.46 -2.475,11.014 8.956,7.506 -7.681,15.059 -10.082,-4.601 -6.85,8.362 6.905,9.43 -14.074,11.928 -8.984,-8.38 -8.677,4.134 1.937,12.326 -10.061,3.404 -14.843,-12.853 11.95,-14.553 c 42.705,-11.732 55.078,-81.616 -0.159,-105.807 z m -7.196,1.314 -0.471,25.624 -1.934,-9.977 -0.07,-15.647 z" fill="#fcdd09"/></g></svg>