<?xml version="1.0" encoding="UTF-8" standalone="no"?>
<!-- Creator: CorelDRAW -->

<svg
   xml:space="preserve"
   width="600px"
   height="300px"
   style="shape-rendering:geometricPrecision; text-rendering:geometricPrecision; image-rendering:optimizeQuality; fill-rule:evenodd; clip-rule:evenodd"
   viewBox="0 0 600 300"
   version="1.1"
   enable-background="new 0 0 591 295"
   id="svg25038"
   sodipodi:docname="Flag of Armenian SSR (1936-1940).svg"
   inkscape:version="1.2.2 (732a01da63, 2022-12-09)"
   xmlns:inkscape="http://www.inkscape.org/namespaces/inkscape"
   xmlns:sodipodi="http://sodipodi.sourceforge.net/DTD/sodipodi-0.dtd"
   xmlns="http://www.w3.org/2000/svg"
   xmlns:svg="http://www.w3.org/2000/svg"><sodipodi:namedview
   id="namedview25040"
   pagecolor="#ffffff"
   bordercolor="#666666"
   borderopacity="1.0"
   inkscape:showpageshadow="2"
   inkscape:pageopacity="0.0"
   inkscape:pagecheckerboard="0"
   inkscape:deskcolor="#d1d1d1"
   showgrid="false"
   inkscape:zoom="2.1283333"
   inkscape:cx="282.85043"
   inkscape:cy="149.88254"
   inkscape:window-width="1920"
   inkscape:window-height="1007"
   inkscape:window-x="-9"
   inkscape:window-y="-9"
   inkscape:window-maximized="1"
   inkscape:current-layer="Слой_x0020_1" />
 <defs
   id="defs25026">
  <style
   type="text/css"
   id="style25024">
   <![CDATA[
    .str0 {stroke:black;stroke-width:0.0762}
    .fil2 {fill:none}
    .fil0 {fill:#CC0000}
    .fil1 {fill:gold}
    .fil3 {fill:gold;fill-rule:nonzero}
   ]]>
  </style>
 </defs>
 <g
   id="Слой_x0020_1"
   inkscape:label="Слой 1">
  <metadata
   id="CorelCorpID_0Corel-Layer" />
  <rect
   class="fil0"
   x="-0.0593"
   y="0.037"
   width="600"
   height="300"
   id="rect25029" />
  
  <path
   class="fil3"
   d="M50.2168 109.315l-11.4699 13.2048c0.3212,0 2.6988,0.8354 7.1325,2.5061 4.4338,1.6707 6.7471,2.506 6.9397,2.506 0,0.1285 -2.4095,3.1486 -7.2288,9.0603 -6.49,7.9035 -10.988,13.4297 -13.494,16.5782 -4.8836,6.0402 -7.3253,9.1888 -7.3253,9.4459 0.257,0 3.9036,0.9638 10.9397,2.8915 7.0362,1.9277 13.9599,3.7912 20.7712,5.5904 3.5983,1.0281 7.2288,2.0562 10.8916,3.0843l0 -9.3495c-0.7712,-0.0642 -3.47,-0.8513 -8.0965,-2.3613 -4.6265,-1.5101 -9.3012,-3.0523 -14.0241,-4.6265 -4.7229,-1.5744 -7.3735,-2.3936 -7.9518,-2.4579 0.0642,0 1.7349,-1.992 5.012,-5.9759 5.0121,-6.1044 8.6426,-10.6024 10.8916,-13.494 4.3053,-5.5903 7.6466,-10.2811 10.0242,-14.0722 -0.4499,-0.0643 -2.6668,-0.8032 -6.6506,-2.2169 -3.984,-1.4136 -6.1045,-2.1205 -6.3615,-2.1205 0,-0.1927 1.0602,-1.6064 3.1807,-4.2409 0.7068,-0.8354 1.7671,-2.1527 3.1808,-3.9519l-6.3615 0zm42.6988 60.8193l16.8674 0 0 -39.5181 -7.3252 0 0 33.8314c0,1.1565 -0.466,2.0723 -1.3976,2.7469 -0.9318,0.6746 -1.8796,1.0121 -2.8434,1.0121 -1.1567,0 -2.2008,-0.3374 -3.1326,-1.0121 -0.9317,-0.6746 -1.3975,-1.5903 -1.3975,-2.7469l0 -26.4097c0,-2.9558 -1.0924,-5.0121 -3.2771,-6.1686 -1.6064,-0.8354 -3.8876,-1.2531 -6.8434,-1.2531l-4.5301 0 0 -21.3012 -7.3021 0 -0.0233 61.0803 7.3719 0 -0.0465 -38.0441 4.5301 0c0.514,0 1.1727,0.4337 1.9759,1.3012 0.8032,0.8675 1.2048,1.6867 1.2048,2.4578l0 26.0241c0,1.9919 0.6747,3.8233 2.0241,5.4939 1.3494,1.6708 2.7309,2.5061 4.1446,2.5061zm34.6988 -7.518l0 -53.3013 -9.4458 0 0 49.7349c0,2.8272 0.9639,5.3817 2.8916,7.6627 1.9276,2.2811 4.1125,3.4217 6.5542,3.4217l14.5542 0c2.4418,0 4.6908,-1.2048 6.747,-3.6144 2.0562,-2.4097 3.0844,-5.0603 3.0844,-7.9519l0 -49.253 -9.8314 0 0 53.3013c0,1.7348 -0.7389,3.1004 -2.2168,4.0963 -1.4778,0.9959 -3.1486,1.494 -5.012,1.494 -1.992,0 -3.711,-0.482 -5.1567,-1.4458 -1.4458,-0.9639 -2.1687,-2.3454 -2.1687,-4.1445zm54.4579 -53.3013l-11.4699 13.2048c0.3213,0 2.6988,0.8354 7.1326,2.5061 4.4337,1.6707 6.747,2.506 6.9397,2.506 0,0.1285 -2.4096,3.1486 -7.2289,9.0603 -6.4899,7.9035 -10.988,13.4297 -13.494,16.5782 -4.8835,6.0402 -7.3253,9.1888 -7.3253,9.4459 0.257,0 3.9036,0.9638 10.9397,2.8915 7.0362,1.9277 13.9599,3.7912 20.7712,5.5904 3.5983,1.0281 7.2289,2.0562 10.8916,3.0843l0 -9.3495c-0.7711,-0.0642 -3.4699,-0.8513 -8.0965,-2.3613 -4.6264,-1.5101 -9.3011,-3.0523 -14.024,-4.6265 -4.723,-1.5744 -7.3736,-2.3936 -7.9518,-2.4579 0.0642,0 1.7349,-1.992 5.012,-5.9759 5.012,-6.1044 8.6426,-10.6024 10.8915,-13.494 4.3053,-5.5903 7.6467,-10.2811 10.0242,-14.0722 -0.4498,-0.0643 -2.6667,-0.8032 -6.6506,-2.2169 -3.984,-1.4136 -6.1045,-2.1205 -6.3615,-2.1205 0,-0.1927 1.0602,-1.6064 3.1807,-4.2409 0.7069,-0.8354 1.7671,-2.1527 3.1808,-3.9519l-6.3615 0z"
   id="path25035" />
 <g
   id="g25084"
   transform="translate(-58.619184,-171.35241)"><path
     d="m 151.67475,205.05647 -16.10811,16.05475 11.47239,11.00476 8.17412,-7.58625 42.1165,39.54625 c 0.68534,0.54316 1.64572,1.39158 2.57792,1.29335 2.81411,-0.29652 5.86671,-3.70587 5.77923,-6.00782 -0.0174,-0.45878 -0.3563,-1.04365 -1.12721,-1.76793 l -42.61487,-39.31156 9.29681,-8.62842 -3.92895,-4.06954 z"
     style="fill:#ffd700;fill-opacity:1;fill-rule:evenodd;stroke:none;stroke-width:0.45438px;stroke-linecap:butt;stroke-linejoin:miter;stroke-opacity:1"
     id="path25003" /><path
     d="m 175.32722,195.10516 c 11.15731,7.72521 22.22893,18.89248 21.06006,35.72791 -1.24102,17.99229 -15.40384,19.56239 -21.1697,18.67013 -3.58099,-0.55415 -6.60042,-3.34476 -7.77474,-4.67224 1.38643,-1.42916 0.47916,-2.77727 0.47916,-2.77727 -3.37502,-0.65308 -4.35114,1.21961 -5.69667,3.48061 -4.51389,-0.48547 -7.99263,1.56104 -7.51054,5.75073 -3.4061,2.58919 -6.10366,3.27831 -8.32,5.51152 -3.72577,3.75413 -2.67485,6.08614 -2.90141,8.58061 1.58737,-0.38835 4.71807,1.09357 8.6879,-2.50761 2.30129,-2.08758 3.85071,-5.29692 6.29557,-8.43632 4.80858,1.22825 6.00042,-4.58677 5.64798,-6.86878 0.30551,-0.21557 0.61752,-0.3283 0.94146,-0.53132 5.4453,7.7925 18.54468,12.63312 27.79807,6.9564 23.51666,-17.22447 12.05883,-50.56627 -17.53714,-58.88437 z"
     style="fill:#ffd700;fill-opacity:1;fill-rule:evenodd;stroke:none;stroke-width:0.45438px;stroke-linecap:butt;stroke-linejoin:miter;stroke-opacity:1"
     id="path25005" /></g></g>
</svg>
