<?xml version="1.0" encoding="UTF-8" standalone="no"?>
<svg
   version="1.0"
   width="1200"
   height="800"
   id="svg2"
   sodipodi:docname="Flag of Konbaung Dynasty (Nonrectangular).svg"
   inkscape:version="1.1.1 (3bf5ae0d25, 2021-09-20)"
   inkscape:export-filename="C:\Users\User\Downloads\Flag\Flag of Konbaung Dynasty (Nonrectangular).png"
   inkscape:export-xdpi="160"
   inkscape:export-ydpi="160"
   xmlns:inkscape="http://www.inkscape.org/namespaces/inkscape"
   xmlns:sodipodi="http://sodipodi.sourceforge.net/DTD/sodipodi-0.dtd"
   xmlns:xlink="http://www.w3.org/1999/xlink"
   xmlns="http://www.w3.org/2000/svg"
   xmlns:svg="http://www.w3.org/2000/svg"
   xmlns:rdf="http://www.w3.org/1999/02/22-rdf-syntax-ns#"
   xmlns:cc="http://creativecommons.org/ns#"
   xmlns:dc="http://purl.org/dc/elements/1.1/">
  <metadata
     id="metadata12">
    <rdf:RDF>
      <cc:Work
         rdf:about="">
        <dc:format>image/svg+xml</dc:format>
        <dc:type
           rdf:resource="http://purl.org/dc/dcmitype/StillImage" />
        <dc:title />
      </cc:Work>
    </rdf:RDF>
  </metadata>
  <sodipodi:namedview
     pagecolor="#ffffff"
     bordercolor="#666666"
     borderopacity="1"
     objecttolerance="10"
     gridtolerance="10"
     guidetolerance="10"
     inkscape:pageopacity="0"
     inkscape:pageshadow="2"
     inkscape:window-width="1920"
     inkscape:window-height="1017"
     id="namedview10"
     showgrid="false"
     inkscape:zoom="0.52628947"
     inkscape:cx="686.88435"
     inkscape:cy="555.7778"
     inkscape:window-x="-8"
     inkscape:window-y="-8"
     inkscape:window-maximized="1"
     inkscape:current-layer="svg2"
     inkscape:document-rotation="0"
     inkscape:pagecheckerboard="true" />
  <defs
     id="defs5">
    <linearGradient
       id="linearGradient3998">
      <stop
         offset="0"
         style="stop-color:#1d7f6f;stop-opacity:1"
         id="stop4000" />
      <stop
         offset="1"
         style="stop-color:#54d8c3;stop-opacity:1"
         id="stop4002" />
    </linearGradient>
    <radialGradient
       inkscape:collect="always"
       xlink:href="#linearGradient3998"
       id="radialGradient3615"
       gradientUnits="userSpaceOnUse"
       gradientTransform="matrix(1.3426999,-5.6699986e-8,5.666564e-8,1.3298558,215.46736,215.25852)"
       cx="137.787"
       cy="131.799"
       fx="137.787"
       fy="131.799"
       r="95.617996" />
    <linearGradient
       inkscape:collect="always"
       xlink:href="#linearGradient11284"
       id="linearGradient11286"
       x1="174.00101"
       y1="182.05701"
       x2="204.92627"
       y2="211.61282"
       gradientUnits="userSpaceOnUse"
       gradientTransform="matrix(1.6988063,0,0,1.6911738,167.7769,166.37102)" />
    <linearGradient
       inkscape:collect="always"
       id="linearGradient11284">
      <stop
         style="stop-color:#00355b;stop-opacity:1;"
         offset="0"
         id="stop11280" />
      <stop
         style="stop-color:#54d8c3;stop-opacity:1"
         offset="1"
         id="stop11282" />
    </linearGradient>
    <linearGradient
       inkscape:collect="always"
       xlink:href="#linearGradient11284"
       id="linearGradient10218"
       x1="91.317879"
       y1="179.29683"
       x2="66.552444"
       y2="203.30313"
       gradientUnits="userSpaceOnUse"
       gradientTransform="matrix(1.6988063,0,0,1.6911738,167.7769,166.37102)" />
  </defs>
  <g
     transform="matrix(3.1893688,0,0,3.7209302,50.779139,-104.43289)"
     id="g4683"
     style="fill:#ffffff">
    <g
       transform="translate(-15.921376,27.066339)"
       id="g7606"
       style="fill:#ffffff">
      <path
         d="M 0,1 V 216 H 376.25 L 250.83333,162.25 376.25,108.5 250.83333,54.75 376.25,1 Z"
         style="fill:#ffffff;fill-opacity:1;fill-rule:nonzero;stroke-width:1;stroke-linecap:square;stroke-linejoin:round;stroke-miterlimit:4;stroke-dashoffset:0;stroke-opacity:1"
         id="rect3648"
         sodipodi:nodetypes="cccccccc" />
      <g
         transform="translate(-6.826779,2.610559)"
         style="fill:#ffffff;fill-opacity:1"
         id="g4666" />
    </g>
  </g>
  <path
     id="path1392"
     style="fill:#da2d1c;stroke-width:1.58387"
     d="m 650,399.99999 a 250,250 0 0 1 -250,250 250,250 0 0 1 -250,-250 250,250 0 0 1 250,-250 250,250 0 0 1 250,250 z" />
  <g
     id="g2597">
    <path
       d="m 530.49323,534.44288 c -1.61621,-8.99784 -14.05055,-9.07754 -18.29206,-2.38105 -4.59846,7.26104 -9.48879,15.42203 -19.41291,13.84463 -4.97874,-0.79368 -9.17856,-2.48732 -12.40932,-5.23864 -0.0684,-0.1428 -0.14344,-0.27563 -0.20849,-0.42341 -0.93236,-2.10376 -2.25502,-3.49354 -3.76282,-4.30714 -1.07915,-1.83311 -1.91477,-3.92691 -2.47853,-6.30796 -2.96056,-12.50466 -22.26005,-7.20126 -19.30116,5.2951 1.66292,7.0236 4.95205,12.9181 9.40373,17.647 15.6284,28.07779 72.78798,17.00275 66.48325,-18.13185 z"
       id="path4"
       style="fill:#000063;stroke-width:1.66417"
       inkscape:connector-curvature="0" />
    <path
       d="m 301.85658,526.73851 c -1.88141,6.59355 -5.0538,14.79107 -10.84481,18.9687 -7.75916,5.59729 -15.24144,-7.68113 -17.23461,-13.19208 -4.33659,-11.99657 -23.68111,-6.82269 -19.29949,5.2951 5.74432,15.89193 18.10526,30.62488 36.72424,28.49123 16.48405,-1.88956 25.89444,-20.03469 29.95416,-34.26785 3.53432,-12.37017 -15.78018,-17.61711 -19.29949,-5.28016 z"
       id="path6"
       style="fill:#000063;fill-opacity:1;stroke-width:1.66417"
       inkscape:connector-curvature="0" />
    <path
       d="m 317.13638,544.38883 76.37401,-131.68998 79.96504,137.88337 c 51.36022,-28.14255 86.48159,-85.04864 86.48159,-150.67031 0,-93.57326 -71.40361,-169.42978 -159.48307,-169.42978 -88.07946,0 -159.48307,75.85652 -159.48307,169.42978 0.0117,61.10365 30.48122,114.66897 76.15718,144.4736 z"
       id="path8"
       style="fill:url(#radialGradient3615);fill-opacity:1;stroke-width:1.66417"
       inkscape:connector-curvature="0" />
    <path
       d="m 417.22486,481.55834 c -4.94871,0 -2.667,-0.60605 -12.27421,-2.85427 -11.99234,-2.8028 -26.3698,-0.48318 -52.14248,-4.34035 -4.59012,-0.68576 -5.54917,-3.12326 -8.2929,-7.35569 -17.03779,-26.28121 -6.08957,-71.92629 -4.19481,-82.53475 5.00209,-28.01469 31.67878,-37.61029 60.14849,-35.21762 15.29982,1.29513 32.11578,6.03233 45.16724,22.73122 17.21459,22.02554 20.39865,49.36444 16.24553,74.4186 l -7.85256,-1.30343 c 3.55767,-21.46432 3.59603,-45.06394 -11.37354,-64.21861 -10.6163,-13.58228 -25.43243,-23.67434 -42.7621,-23.97488 -25.97951,-0.44997 -44.89037,11.1647 -48.59482,31.91005 -5.14053,28.78015 -5.95114,60.71677 0.98073,70.56475 1.15587,1.6405 2.10659,1.7833 2.51189,1.84473 26.30975,3.93687 44.75193,8.249 56.95443,11.10327 7.76416,1.8165 7.81753,-9.25355 10.75641,-9.33989 0.43366,-2.43917 7.44058,4.45658 7.14536,-1.28185 -0.33859,-6.5537 -4.2165,-25.07574 -4.2165,-25.07574 0,-10.05886 7.03695,-26.67473 -0.53874,-38.81908 -4.54507,-7.28429 -7.66909,-17.83795 -24.42667,-22.21981 -11.62873,-3.0419 -19.33451,-3.73264 -33.45011,10.31788 l -6.23301,9.26185 1.39271,-9.26185 c 4.56843,-10.77948 15.21809,-19.01685 31.59705,-18.51706 17.81338,2.06723 28.33294,10.64332 37.5115,23.78227 9.5505,13.67028 5.46243,38.79749 5.46243,48.45286 0.0183,9.72844 5.89943,15.1298 6.22301,21.3979 0.68718,13.34484 -7.53733,8.52131 -12.9614,13.02936 -2.3968,1.99085 -2.30006,2.9539 -5.92945,2.9539 l -6.82179,4.53296 z"
       id="path12"
       style="fill:#6b2900;stroke-width:1.66417"
       inkscape:connector-curvature="0" />
    <path
       d="m 254.23416,536.8671 c -16.19383,23.66106 -57.80674,-25.58715 -29.60223,-36.56256"
       id="path14"
       style="fill:none;stroke:#00086b;stroke-width:8.32084"
       inkscape:connector-curvature="0" />
    <path
       d="m 220.54553,498.04636 c 25.20392,-16.49632 47.09703,-29.1471 47.09703,-29.1471 l 20.67219,10.35441 5.56084,22.04713 -38.46722,40.15904 c -20.4687,6.44245 -47.01529,-18.7628 -34.86284,-43.43672 z"
       id="path16"
       style="fill:#54d8c3;stroke:#000000;stroke-width:1.66417"
       inkscape:connector-curvature="0" />
    <path
       d="m 263.69126,499.00941 c 3.53432,-2.88084 7.48228,-5.56741 11.12335,-8.48809"
       id="path18"
       style="fill:none;stroke:#754c24;stroke-width:6.65667;stroke-linecap:round"
       inkscape:connector-curvature="0" />
    <rect
       width="16.745375"
       height="16.671852"
       x="-309.54922"
       y="-491.17331"
       transform="matrix(-0.99433159,-0.10632354,0.10727439,-0.99422945,0,0)"
       id="rect20"
       style="fill:#754c24;stroke-width:1.6642" />
    <path
       d="m 249.8075,490.60766 c 4.02969,-3.23119 9.92078,0.88999 15.27814,7.50678 5.35735,6.61846 8.15279,13.22529 4.12309,16.45814 -4.02802,3.23118 -9.70061,-11.98163 -9.70061,-11.98163 0,0 -13.72864,-8.75044 -9.70062,-11.97167 z"
       id="path22"
       style="fill:#754c24;stroke-width:1.66417"
       inkscape:connector-curvature="0" />
    <path
       d="m 238.90765,495.58893 c 7.91094,-6.34614 16.12044,-2.40595 22.49522,5.46944 6.37479,7.87374 8.50139,16.6989 0.59045,23.04505 -7.90927,6.3478 -11.54367,-14.25808 -11.54367,-14.25808 0,0 -19.45127,-7.88702 -11.542,-14.24644 z"
       id="path24"
       style="fill:#f7931e;stroke-width:1.66417"
       inkscape:connector-curvature="0" />
    <path
       d="m 221.79147,491.18881 c -22.13996,18.26467 -48.42803,-40.52932 -18.27372,-43.29393"
       id="path26"
       style="fill:none;stroke:#00086b;stroke-width:8.32084"
       inkscape:connector-curvature="0" />
    <path
       d="m 200.22027,444.59728 c 28.80663,-8.89988 53.3634,-15.02187 53.3634,-15.02187 l 16.98275,15.64785 -0.78893,22.71959 -48.1328,27.98481 c -21.46945,0.59775 -39.96667,-30.95033 -21.42442,-51.30714 z"
       id="path28"
       style="fill:#54d8c3;stroke:#000000;stroke-width:1.66417"
       inkscape:connector-curvature="0" />
    <path
       d="m 241.40953,457.41576 c 4.19815,-1.79492 8.73823,-3.28598 13.0498,-5.0892"
       id="path30"
       style="fill:none;stroke:#754c24;stroke-width:6.65667;stroke-linecap:round"
       inkscape:connector-curvature="0" />
    <rect
       width="16.73509"
       height="16.679691"
       x="-390.78793"
       y="-355.89645"
       transform="matrix(-0.92639836,-0.37654492,0.37946274,-0.92520702,0,0)"
       id="rect32"
       style="fill:#754c24;stroke-width:1.66416" />
    <path
       d="m 230.4096,445.51051 c 4.77025,-1.99417 9.28364,3.58984 12.59279,11.42539 3.30749,7.8372 4.15479,14.95545 -0.61546,16.95128 -4.76858,1.99417 -5.98783,-14.18668 -5.98783,-14.18668 0,0 -10.75974,-12.20412 -5.9895,-14.19663 z"
       id="path34"
       style="fill:#754c24;stroke-width:1.66417"
       inkscape:connector-curvature="0" />
    <path
       d="m 218.54737,447.30377 c 9.36703,-3.91694 16.15879,2.13032 20.09341,11.45527 3.93629,9.32329 3.52432,18.38921 -5.84105,22.30781 -9.36703,3.91861 -7.12535,-16.8832 -7.12535,-16.8832 0,0 -16.49238,-12.95132 -7.12701,-16.86992 z"
       id="path36"
       style="fill:#f7931e;stroke-width:1.66417"
       inkscape:connector-curvature="0" />
    <path
       d="m 203.32427,438.35408 c -26.35645,11.44697 -35.25981,-52.29675 -5.51581,-46.63969"
       id="path38"
       style="fill:none;stroke:#00086b;stroke-width:8.32084"
       inkscape:connector-curvature="0" />
    <path
       d="m 195.56011,387.62809 c 30.15764,-0.61104 55.45496,0.27729 55.45496,0.27729 l 11.96399,19.71755 -7.07865,21.61375 -54.03557,13.61881 c -20.7856,-5.37978 -29.78736,-40.78004 -6.30473,-55.24235 z"
       id="path40"
       style="fill:#54d8c3;stroke:#000000;stroke-width:1.66417"
       inkscape:connector-curvature="0" />
    <path
       d="m 231.57048,411.30575 c 4.5334,-0.56786 9.31032,-0.75051 13.95547,-1.29347"
       id="path42"
       style="fill:none;stroke:#754c24;stroke-width:6.65667;stroke-linecap:round"
       inkscape:connector-curvature="0" />
    <rect
       width="16.716829"
       height="16.697697"
       x="-430.87292"
       y="-203.38712"
       transform="matrix(-0.78626522,-0.61788915,0.62132698,-0.78355139,0,0)"
       id="rect44"
       style="fill:#754c24;stroke-width:1.66415" />
    <path
       d="m 224.31336,396.82684 c 5.13886,-0.60107 7.92262,6.01074 8.9217,14.45068 0.99908,8.44161 -0.16679,15.51668 -5.30732,16.11775 -5.13719,0.60274 -1.80802,-15.28089 -1.80802,-15.28089 0,0 -6.94522,-14.67816 -1.80636,-15.29252 z"
       id="path46"
       style="fill:#754c24;stroke-width:1.66417"
       inkscape:connector-curvature="0" />
    <path
       d="m 212.4161,395.28265 c 10.08924,-1.18223 14.93454,6.50388 16.12043,16.54779 1.18756,10.04392 -1.72963,18.6416 -11.81887,19.82216 -10.09091,1.18388 -2.15162,-18.18664 -2.15162,-18.18664 0,0 -12.23919,-17.00275 -2.14994,-18.19826 z"
       id="path48"
       style="fill:#f7931e;stroke-width:1.66417"
       inkscape:connector-curvature="0" />
    <path
       d="m 200.27698,382.49737 c -28.50807,3.71936 -19.33285,-59.97788 7.67576,-46.34246"
       id="path50"
       style="fill:none;stroke:#00086b;stroke-width:8.32084"
       inkscape:connector-curvature="0" />
    <path
       d="m 206.92697,331.61032 c 29.14689,7.72762 53.20829,15.55487 53.20829,15.55487 l 6.01117,22.24471 -12.81462,18.81594 -55.71016,-1.80986 c -18.48054,-10.89239 -17.27797,-47.38854 9.30532,-54.80566 z"
       id="path52"
       style="fill:#54d8c3;stroke:#000000;stroke-width:1.66417"
       inkscape:connector-curvature="0" />
    <path
       d="m 234.94134,364.29911 c 4.51339,0.70402 9.15521,1.84474 13.77034,2.60355"
       id="path54"
       style="fill:none;stroke:#754c24;stroke-width:6.65667;stroke-linecap:round"
       inkscape:connector-curvature="0" />
    <rect
       width="16.695446"
       height="16.719603"
       x="-426.87997"
       y="-45.330341"
       transform="matrix(-0.58436084,-0.81149394,0.81397856,-0.58089491,0,0)"
       id="rect56"
       style="fill:#754c24;stroke-width:1.6641" />
    <path
       d="m 231.9958,348.37564 c 5.1055,0.83851 5.94112,7.95841 4.55175,16.34356 -1.38938,8.38681 -4.4767,14.86413 -9.58387,14.02395 -5.10383,-0.83685 2.51356,-15.18293 2.51356,-15.18293 0,0 -2.58694,-16.0231 2.51856,-15.19289 z"
       id="path58"
       style="fill:#754c24;stroke-width:1.66417"
       inkscape:connector-curvature="0" />
    <path
       d="m 220.99587,343.61022 c 10.02419,1.64548 12.54108,10.36603 10.88651,20.34519 -1.65291,9.97915 -6.84681,17.43446 -16.871,15.78898 -10.02586,-1.64382 2.99224,-18.06875 2.99224,-18.06875 0,0 -7.03361,-19.70925 2.99225,-18.06542 z"
       id="path60"
       style="fill:#f7931e;stroke-width:1.66417"
       inkscape:connector-curvature="0" />
    <path
       d="M 212.88978,327.97233 C 184.45677,323.70006 210.9967,265.01731 233.155,285.56341"
       id="path62"
       style="fill:none;stroke:#00086b;stroke-width:8.32084"
       inkscape:connector-curvature="0" />
    <path
       d="m 233.43354,280.91422 c 25.85775,15.46022 46.80181,29.61534 46.80181,29.61534 l -0.41198,23.03176 -17.54817,14.54699 -53.02648,-17.09906 c -14.73106,-15.55653 -3.42257,-50.30092 24.18482,-50.09669 z"
       id="path64"
       style="fill:#54d8c3;stroke:#000000;stroke-width:1.66417"
       inkscape:connector-curvature="0" />
    <path
       d="m 251.26193,320.04048 c 4.13977,1.92111 8.28455,4.29718 12.50772,6.29799"
       id="path66"
       style="fill:none;stroke:#754c24;stroke-width:6.65667;stroke-linecap:round"
       inkscape:connector-curvature="0" />
    <rect
       width="16.679289"
       height="16.737659"
       x="-379.38419"
       y="105.94608"
       transform="matrix(-0.33613719,-0.94181303,0.94276425,-0.33346,0,0)"
       id="rect68"
       style="fill:#754c24;stroke-width:1.66419" />
    <path
       d="m 252.85813,303.93934 c 4.67184,2.21334 3.49429,9.28509 -0.1718,16.95958 -3.66775,7.67615 -8.43633,13.04762 -13.10984,10.83427 -4.67184,-2.21168 6.63831,-13.89609 6.63831,-13.89609 0,0 1.96982,-16.11111 6.64333,-13.89776 z"
       id="path70"
       style="fill:#754c24;stroke-width:1.66417"
       inkscape:connector-curvature="0" />
    <path
       d="m 243.61285,296.32629 c 9.17355,4.34533 9.16688,13.41789 4.80027,22.55023 -4.36327,9.13234 -11.43025,14.86579 -20.6038,10.52046 -9.17522,-4.34368 7.90093,-16.53618 7.90093,-16.53618 0,0 -1.27262,-20.87819 7.9026,-16.53451 z"
       id="path72"
       style="fill:#f7931e;stroke-width:1.66417"
       inkscape:connector-curvature="0" />
    <path
       d="m 240.17527,279.06285 c -26.13129,-11.94344 15.69345,-61.01565 31.27014,-35.16283"
       id="path74"
       style="fill:none;stroke:#00086b;stroke-width:8.32084"
       inkscape:connector-curvature="0" />
    <path
       d="m 273.00659,239.5082 c 20.54542,21.98403 36.73257,41.35953 36.73257,41.35953 l -6.80177,22.01724 -20.90903,9.14064 -46.19802,-31.04663 c -9.82571,-19.00855 10.70637,-49.27644 37.17625,-41.47078 z"
       id="path76"
       style="fill:#54d8c3;stroke:#000000;stroke-width:1.66417"
       inkscape:connector-curvature="0" />
    <path
       d="m 279.25294,282.02006 c 3.44425,2.98711 6.76508,6.41423 10.26604,9.50096"
       id="path78"
       style="fill:none;stroke:#754c24;stroke-width:6.65667;stroke-linecap:round"
       inkscape:connector-curvature="0" />
    <rect
       width="16.67178"
       height="16.746464"
       x="-292.27838"
       y="238.38083"
       transform="matrix(-0.06107033,-0.99813347,0.99816669,-0.06052482,0,0)"
       id="rect80"
       style="fill:#754c24;stroke-width:1.66425" />
    <path
       d="m 285.26579,266.98823 c 3.87291,3.4155 0.77391,9.88452 -4.88367,16.24892 -5.66091,6.36441 -11.73714,10.21162 -15.61005,6.79613 -3.87458,-3.41218 10.24436,-11.5217 10.24436,-11.5217 0,0 6.37478,-14.93884 10.24936,-11.52335 z"
       id="path82"
       style="fill:#754c24;stroke-width:1.66417"
       inkscape:connector-curvature="0" />
    <path
       d="m 278.49904,257.12531 c 7.60738,6.7048 5.07548,15.42037 -1.65958,22.99191 -6.73339,7.5732 -15.11801,11.13315 -22.72372,4.43001 -7.60905,-6.7048 12.19248,-13.71179 12.19248,-13.71179 0,0 4.58511,-20.41493 12.19082,-13.71013 z"
       id="path84"
       style="fill:#f7931e;stroke-width:1.66417"
       inkscape:connector-curvature="0" />
    <path
       d="m 280.00017,239.5879 c -21.78803,-18.68145 32.0524,-54.30255 39.82823,-25.16707"
       id="path86"
       style="fill:none;stroke:#00086b;stroke-width:8.32084"
       inkscape:connector-curvature="0" />
    <path
       d="m 322.54878,210.63174 c 13.6269,26.78764 23.7912,49.86921 23.7912,49.86921 l -12.65951,19.28086 -22.63366,3.02031 -35.75351,-42.56998 c -4.15478,-20.97449 23.99468,-44.39811 47.25715,-29.6004 z"
       id="path88"
       style="fill:#54d8c3;stroke:#000000;stroke-width:1.66417"
       inkscape:connector-curvature="0" />
    <path
       d="m 316.72608,253.20172 c 2.47852,3.82064 4.71687,8.02816 7.22208,11.96005"
       id="path90"
       style="fill:none;stroke:#754c24;stroke-width:6.65667;stroke-linecap:round"
       inkscape:connector-curvature="0" />
    <rect
       width="16.67346"
       height="16.741541"
       x="-172.29404"
       y="341.34921"
       transform="matrix(0.21894721,-0.97573671,0.97615445,0.21707714,0,0)"
       id="rect92"
       style="fill:#754c24;stroke-width:1.66409" />
    <path
       d="m 326.68522,240.41645 c 2.77208,4.34865 -2.00651,9.71183 -9.21192,14.26803 -7.20874,4.55455 -14.11726,6.57695 -16.89101,2.22663 -2.77375,-4.34699 13.0498,-8.24733 13.0498,-8.24733 0,0 10.27938,-12.59764 13.05313,-8.24733 z"
       id="path94"
       style="fill:#754c24;stroke-width:1.66417"
       inkscape:connector-curvature="0" />
    <path
       d="m 322.9274,229.07408 c 5.44409,8.53957 0.58877,16.21572 -7.991,21.63535 -8.57644,5.42128 -17.62323,6.52879 -23.06732,-2.00746 -5.44575,-8.53957 15.53166,-9.81477 15.53166,-9.81477 0,0 10.08257,-18.35268 15.52666,-9.81312 z"
       id="path96"
       style="fill:#f7931e;stroke-width:1.66417"
       inkscape:connector-curvature="0" />
    <path
       d="m 329.24714,212.63588 c -15.73848,-23.95662 45.90447,-43.34208 45.27233,-13.20205"
       id="path98"
       style="fill:none;stroke:#00086b;stroke-width:8.32084"
       inkscape:connector-curvature="0" />
    <path
       d="m 378.17888,196.54303 c 5.64257,29.49746 8.98841,54.47856 8.98841,54.47856 l -17.52982,15.03681 -22.58863,-3.33746 -22.5119,-50.76418 c 1.84305,-21.29993 35.40491,-36.04617 53.63527,-15.41373 z"
       id="path100"
       style="fill:#54d8c3;stroke:#000000;stroke-width:1.66417"
       inkscape:connector-curvature="0" />
    <path
       d="m 360.74913,235.84364 c 1.31932,4.35363 2.29839,9.01445 3.61271,13.48265"
       id="path102"
       style="fill:none;stroke:#754c24;stroke-width:6.65667;stroke-linecap:round"
       inkscape:connector-curvature="0" />
    <rect
       width="16.687536"
       height="16.728144"
       x="-28.566824"
       y="406.6192"
       transform="matrix(0.48137789,-0.87651316,0.87833162,0.47805185,0,0)"
       id="rect104"
       style="fill:#754c24;stroke-width:1.66413" />
    <path
       d="m 373.87565,226.30284 c 1.45276,4.94308 -4.62848,8.77866 -12.82129,11.16968 -8.19449,2.38935 -15.3949,2.42754 -16.85099,-2.51721 -1.45609,-4.94142 14.83447,-4.32707 14.83447,-4.32707 0,0 13.39339,-9.26849 14.84448,-4.3254 z"
       id="path106"
       style="fill:#754c24;stroke-width:1.66417"
       inkscape:connector-curvature="0" />
    <path
       d="m 373.42531,214.3677 c 2.85548,9.70684 -3.9463,15.74415 -13.69695,18.5868 -9.74899,2.84431 -18.75074,1.41634 -21.60789,-8.28884 -2.85714,-9.70685 17.65325,-5.15064 17.65325,-5.15064 0,0 14.81112,-14.85417 17.66327,-5.14732 z"
       id="path108"
       style="fill:#f7931e;stroke-width:1.66417"
       inkscape:connector-curvature="0" />
    <path
       d="m 384.06663,200.31386 c -8.45801,-27.35883 56.1655,-28.99102 47.17375,-0.20423"
       id="path110"
       style="fill:none;stroke:#00086b;stroke-width:8.32084"
       inkscape:connector-curvature="0" />
    <path
       d="m 435.57197,198.34294 c -2.78376,29.89927 -6.51656,54.82557 -6.51656,54.82557 l -21.02745,9.61553 -20.77727,-9.43454 -7.51064,-54.98332 c 7.70579,-19.95831 44.04974,-24.87649 55.84193,-0.0232 z"
       id="path112"
       style="fill:#54d8c3;stroke:#000000;stroke-width:1.66417"
       inkscape:connector-curvature="0" />
    <path
       d="m 407.88452,231.29905 c 0.055,4.54625 -0.30023,9.29506 -0.28022,13.9509"
       id="path114"
       style="fill:none;stroke:#754c24;stroke-width:6.65667;stroke-linecap:round"
       inkscape:connector-curvature="0" />
    <rect
       width="16.709665"
       height="16.70866"
       x="127.99388"
       y="429.16971"
       transform="matrix(0.70559716,-0.70861319,0.71178314,0.70239929,0,0)"
       id="rect116"
       style="fill:#754c24;stroke-width:1.66418" />
    <path
       d="m 423.14597,225.75157 c 0.0217,5.15064 -6.89017,7.15976 -15.42658,7.19795 -8.53974,0.0365 -15.46828,-1.91115 -15.49163,-7.06345 -0.0233,-5.15064 15.4566,-0.0697 15.4566,-0.0697 0,0 15.44493,-5.21706 15.46161,-0.0648 z"
       id="path118"
       style="fill:#754c24;stroke-width:1.66417"
       inkscape:connector-curvature="0" />
    <path
       d="m 426.03147,214.15682 c 0.0434,10.11365 -8.16946,14.04056 -18.33043,14.08373 -10.15929,0.0465 -18.41215,-3.80901 -18.45719,-13.921 -0.045,-10.11531 18.39715,-0.0814 18.39715,-0.0814 0,0 18.34711,-10.19501 18.39714,-0.0814 z"
       id="path120"
       style="fill:#f7931e;stroke-width:1.66417"
       inkscape:connector-curvature="0" />
    <path
       d="m 440.17543,203.58822 c -0.51706,-28.61909 62.03323,-12.37349 45.38574,12.80852"
       id="path122"
       style="fill:none;stroke:#00086b;stroke-width:8.32084"
       inkscape:connector-curvature="0" />
    <path
       d="m 490.21299,215.89363 c -10.99325,27.96322 -21.51282,50.88373 -21.51282,50.88373 l -22.88218,3.44206 -17.33968,-14.79439 8.07773,-54.90196 c 12.95973,-17.05754 49.25365,-11.76079 53.67363,15.37056 z"
       id="path124"
       style="fill:#54d8c3;stroke:#000000;stroke-width:1.66417"
       inkscape:connector-curvature="0" />
    <path
       d="m 454.43613,239.92662 c -1.21258,4.38519 -2.87382,8.84841 -4.14978,13.32824"
       id="path126"
       style="fill:none;stroke:#754c24;stroke-width:6.65667;stroke-linecap:round"
       inkscape:connector-curvature="0" />
    <rect
       width="16.729385"
       height="16.688246"
       x="285.11716"
       y="407.44119"
       transform="matrix(0.87404923,-0.48583736,0.48918438,0.8721804,0,0)"
       id="rect128"
       style="fill:#754c24;stroke-width:1.66414" />
    <path
       d="m 470.6483,238.80418 c -1.41272,4.95471 -8.61146,4.98127 -16.82596,2.66332 -8.21617,-2.31795 -14.33243,-6.10206 -12.9197,-11.05843 1.40939,-4.95471 14.87116,4.19589 14.87116,4.19589 0,0 16.27889,-0.75715 14.87784,4.19922 z"
       id="path130"
       style="fill:#754c24;stroke-width:1.66417"
       inkscape:connector-curvature="0" />
    <path
       d="m 476.63613,228.45807 c -2.77041,9.73009 -11.75716,11.23942 -21.53116,8.47813 -9.77568,-2.75631 -16.63249,-8.7355 -13.86374,-18.46393 2.77041,-9.73175 17.69995,4.9929 17.69995,4.9929 0,0 20.46537,-4.73719 17.69662,4.9929 z"
       id="path132"
       style="fill:#f7931e;stroke-width:1.66417"
       inkscape:connector-curvature="0" />
    <path
       d="m 493.16521,222.19992 c 7.46727,-27.64275 63.05067,5.21374 40.0484,24.82004"
       id="path134"
       style="fill:none;stroke:#00086b;stroke-width:8.32084"
       inkscape:connector-curvature="0" />
    <path
       d="m 537.83208,247.81862 c -18.34044,23.83873 -34.82615,42.96351 -34.82615,42.96351 l -22.94556,-3.00039 -12.54442,-18.99527 23.03563,-50.52839 c 17.17956,-12.82015 50.58798,2.27644 47.2855,29.56054 z"
       id="path136"
       style="fill:#54d8c3;stroke:#000000;stroke-width:1.66417"
       inkscape:connector-curvature="0" />
    <path
       d="m 496.76791,261.05055 c -2.38512,3.87876 -5.22225,7.71102 -7.69577,11.66283"
       id="path138"
       style="fill:none;stroke:#754c24;stroke-width:6.65667;stroke-linecap:round"
       inkscape:connector-curvature="0" />
    <rect
       width="16.744293"
       height="16.675117"
       x="430.44974"
       y="343.40683"
       transform="matrix(0.9741909,-0.2257257,0.22766237,0.97374013,0,0)"
       id="rect140"
       style="fill:#754c24;stroke-width:1.66423" />
    <path
       d="m 512.6465,264.44114 c -2.73539,4.3719 -9.66059,2.4126 -16.90936,-2.07719 -7.24878,-4.49311 -12.07407,-9.81477 -9.33868,-14.18667 2.73205,-4.3719 13.12152,8.1311 13.12152,8.1311 0,0 15.87859,3.76086 13.12652,8.13276 z"
       id="path142"
       style="fill:#754c24;stroke-width:1.66417"
       inkscape:connector-curvature="0" />
    <path
       d="m 521.28632,256.1523 c -5.36903,8.58606 -14.42249,7.55825 -23.0473,2.21169 -8.62648,-5.34325 -13.55184,-12.97955 -8.18448,-21.56395 5.3707,-8.58772 15.62006,9.67696 15.62006,9.67696 0,0 20.98242,1.0909 15.61172,9.6753 z"
       id="path144"
       style="fill:#f7931e;stroke-width:1.66417"
       inkscape:connector-curvature="0" />
    <path
       d="m 538.91622,254.69611 c 14.8645,-24.5029 59.1344,22.39083 31.57871,34.88885"
       id="path146"
       style="fill:none;stroke:#00086b;stroke-width:8.32084"
       inkscape:connector-curvature="0" />
    <path
       d="m 574.69308,291.6223 c -24.25487,17.84957 -45.41576,31.68258 -45.41576,31.68258 l -21.21259,-9.20872 -6.77175,-21.71006 36.1905,-42.20303 c 20.08175,-7.57984 47.98603,16.13601 37.21127,41.43923 z"
       id="path148"
       style="fill:#54d8c3;stroke:#000000;stroke-width:1.66417"
       inkscape:connector-curvature="0" />
    <path
       d="m 531.5607,293.01706 c -3.37086,3.07013 -7.16371,5.96923 -10.63965,9.08585"
       id="path150"
       style="fill:none;stroke:#754c24;stroke-width:6.65667;stroke-linecap:round"
       inkscape:connector-curvature="0" />
    <rect
       width="16.748171"
       height="16.671665"
       x="552.28705"
       y="242.12602"
       transform="matrix(0.99866447,0.05166498,-0.05213111,0.99864025,0,0)"
       id="rect152"
       style="fill:#754c24;stroke-width:1.66425" />
    <path
       d="m 545.88812,300.65668 c -3.84455,3.44704 -9.95414,-0.34537 -15.67009,-6.65831 -5.71596,-6.31626 -8.87166,-12.76037 -5.02711,-16.20741 3.84122,-3.4487 10.34777,11.43037 10.34777,11.43037 0,0 14.19399,7.9883 10.3411,11.43535 z"
       id="path154"
       style="fill:#754c24;stroke-width:1.66417"
       inkscape:connector-curvature="0" />
    <path
       d="m 556.49609,295.07433 c -7.54567,6.77121 -15.96032,3.28598 -22.76042,-4.22911 -6.80178,-7.51176 -9.41207,-16.20741 -1.8664,-22.97696 7.549,-6.77288 12.31758,13.60552 12.31758,13.60552 0,0 19.88159,6.83099 12.32592,13.60055 z"
       id="path156"
       style="fill:#f7931e;stroke-width:1.66417"
       inkscape:connector-curvature="0" />
    <path
       d="m 573.82577,298.53133 c 21.09917,-19.4469 50.59298,37.81785 20.63716,42.23126"
       id="path158"
       style="fill:none;stroke:#00086b;stroke-width:8.32084"
       inkscape:connector-curvature="0" />
    <path
       d="m 597.94387,343.87588 c -28.27122,10.46566 -52.45271,17.92263 -52.45271,17.92263 l -17.82171,-14.69808 -0.46702,-22.7279 46.51659,-30.57507 c 21.41608,-1.74013 41.63126,28.7403 24.23486,50.08174 z"
       id="path160"
       style="fill:#54d8c3;stroke:#000000;stroke-width:1.66417"
       inkscape:connector-curvature="0" />
    <path
       d="m 556.11247,333.32886 c -4.09474,2.02074 -8.54475,3.76087 -12.75124,5.79655"
       id="path162"
       style="fill:none;stroke:#754c24;stroke-width:6.65667;stroke-linecap:round"
       inkscape:connector-curvature="0" />
    <rect
       width="16.739071"
       height="16.6782"
       x="640.77991"
       y="111.37769"
       transform="matrix(0.94568013,0.3250986,-0.32772502,0.94477315,0,0)"
       id="rect164"
       style="fill:#754c24;stroke-width:1.66412" />
    <path
       d="m 567.75454,344.62307 c -4.65182,2.2532 -9.46877,-3.07676 -13.20491,-10.71804 -3.73447,-7.6446 -4.97374,-14.70639 -0.32024,-16.95792 4.65016,-2.25486 6.76341,13.83632 6.76341,13.83632 0,0 11.42524,11.58147 6.77175,13.83964 z"
       id="path166"
       style="fill:#754c24;stroke-width:1.66417"
       inkscape:connector-curvature="0" />
    <path
       d="m 579.49669,342.18225 c -9.13519,4.42669 -16.25053,-1.24366 -20.69554,-10.33781 -4.445,-9.09415 -4.5334,-18.16837 4.59846,-22.5934 9.13852,-4.4267 8.05104,16.46809 8.05104,16.46809 0,0 17.17956,12.02978 8.03937,16.46312 z"
       id="path168"
       style="fill:#f7931e;stroke-width:1.66417"
       inkscape:connector-curvature="0" />
    <path
       d="m 595.19181,350.28512 c 25.68428,-12.86829 38.0936,50.28764 8.08273,46.26775"
       id="path170"
       style="fill:none;stroke:#00086b;stroke-width:8.32084"
       inkscape:connector-curvature="0" />
    <path
       d="m 605.74973,400.49638 c -30.07591,2.26316 -55.38658,2.76129 -55.38658,2.76129 l -13.03478,-19.03511 5.87274,-21.96743 53.19994,-16.55444 c 21.03246,4.21748 31.99068,39.08641 9.34034,54.79403 z"
       id="path172"
       style="fill:#54d8c3;stroke:#000000;stroke-width:1.66417"
       inkscape:connector-curvature="0" />
    <path
       d="m 568.48843,378.82783 c -4.49671,0.81195 -9.25695,1.25861 -13.86541,2.05395"
       id="path174"
       style="fill:none;stroke:#754c24;stroke-width:6.65667;stroke-linecap:round"
       inkscape:connector-curvature="0" />
    <rect
       width="16.72171"
       height="16.696297"
       x="689.00793"
       y="-38.924046"
       transform="matrix(0.81906494,0.57370081,-0.57716714,0.81662604,0,0)"
       id="rect176"
       style="fill:#754c24;stroke-width:1.66408" />
    <path
       d="m 576.5278,392.89164 c -5.09717,0.88168 -8.24119,-5.56575 -9.70562,-13.93927 -1.46277,-8.37519 -0.68886,-15.50173 4.40997,-16.38342 5.09549,-0.88501 2.64866,15.15968 2.64866,15.15968 0,0 7.75582,14.29626 2.65199,15.17629 z"
       id="path178"
       style="fill:#754c24;stroke-width:1.66417"
       inkscape:connector-curvature="0" />
    <path
       d="m 588.48677,393.78826 c -10.00918,1.73349 -15.26979,-5.67367 -17.0111,-15.63954 -1.74131,-9.96421 0.69886,-18.70801 10.7047,-20.44316 10.01252,-1.73348 3.1557,18.04551 3.1557,18.04551 0,0 13.15988,16.28877 3.15237,18.03221 z"
       id="path180"
       style="fill:#f7931e;stroke-width:1.66417"
       inkscape:connector-curvature="0" />
    <path
       d="m 601.31307,405.89276 c 28.26122,-5.28513 22.61698,58.82389 -5.1055,46.68784"
       id="path182"
       style="fill:none;stroke:#00086b;stroke-width:8.32084"
       inkscape:connector-curvature="0" />
    <path
       d="M 597.49354,457.06707 C 567.96303,450.9484 543.50467,444.4495 543.50467,444.4495 l -7.23043,-21.88441 11.75549,-19.49007 55.72517,-1.24033 c 19.06432,9.86292 19.8816,46.37567 -6.25469,55.24234 z"
       id="path184"
       style="fill:#54d8c3;stroke:#000000;stroke-width:1.66417"
       inkscape:connector-curvature="0" />
    <path
       d="m 567.72118,425.96731 c -4.54841,-0.45828 -9.24527,-1.34329 -13.89376,-1.84806"
       id="path186"
       style="fill:none;stroke:#754c24;stroke-width:6.65667;stroke-linecap:round"
       inkscape:connector-curvature="0" />
    <rect
       width="16.701626"
       height="16.717802"
       x="693.42096"
       y="-197.19107"
       transform="matrix(0.62822358,0.77803286,-0.78078806,0.62479598,0,0)"
       id="rect188"
       style="fill:#754c24;stroke-width:1.66415" />
    <path
       d="m 571.52404,441.69153 c -5.1422,-0.5579 -6.37145,-7.62135 -5.45076,-16.06959 0.92569,-8.45157 3.65107,-15.08663 8.79494,-14.52706 5.14052,0.55458 -1.67293,15.29583 -1.67293,15.29583 0,0 3.48595,15.85706 -1.66792,15.30912 z"
       id="path190"
       style="fill:#754c24;stroke-width:1.66417"
       inkscape:connector-curvature="0" />
    <path
       d="m 582.78249,445.84259 c -10.10092,-1.09256 -13.09483,-9.66201 -11.99567,-19.71754 1.09916,-10.05554 5.87608,-17.78316 15.97366,-16.69226 10.10258,1.09422 -1.98816,18.20988 -1.98816,18.20988 0,0 8.0894,19.27754 -2.0015,18.18166 z"
       id="path192"
       style="fill:#f7931e;stroke-width:1.66417"
       inkscape:connector-curvature="0" />
    <path
       d="m 591.73922,461.01888 c 28.62649,2.7148 5.36736,62.75909 -17.89344,43.45499"
       id="path194"
       style="fill:none;stroke:#00086b;stroke-width:8.32084"
       inkscape:connector-curvature="0" />
    <path
       d="m 573.82577,509.138 c -26.67336,-14.01897 -48.36632,-27.00681 -48.36632,-27.00681 l -0.86064,-23.0218 16.71588,-15.48678 53.89213,14.17006 c 15.57836,14.72798 6.20466,50.04522 -21.36604,51.35696 z"
       id="path196"
       style="fill:#54d8c3;stroke:#000000;stroke-width:1.66417"
       inkscape:connector-curvature="0" />
    <path
       d="m 553.86078,471.04785 c -4.24152,-1.69529 -8.50972,-3.84056 -12.83464,-5.60726"
       id="path198"
       style="fill:none;stroke:#754c24;stroke-width:6.65667;stroke-linecap:round"
       inkscape:connector-curvature="0" />
    <rect
       width="16.683342"
       height="16.736139"
       x="653.99036"
       y="-351.04562"
       transform="matrix(0.38768689,0.92179112,-0.92303019,0.38472753,0,0)"
       id="rect200"
       style="fill:#754c24;stroke-width:1.66415" />
    <path
       d="m 553.16025,487.20379 c -4.78526,-1.95432 -4.00134,-9.08087 -0.76557,-16.94298 3.2391,-7.86544 7.70411,-13.49096 12.49104,-11.53332 4.78526,1.94934 -5.86273,14.23483 -5.86273,14.23483 0,0 -1.06747,16.20575 -5.8544,14.24645 z"
       id="path202"
       style="fill:#754c24;stroke-width:1.66417"
       inkscape:connector-curvature="0" />
    <path
       d="m 562.8175,494.2938 c -9.40206,-3.83558 -9.89409,-12.89486 -6.0412,-22.25302 3.85456,-9.35981 10.59462,-15.46686 19.99168,-11.63626 9.40205,3.83725 -6.97691,16.94962 -6.97691,16.94962 0,0 2.4018,20.77192 -6.98858,16.93634 z"
       id="path204"
       style="fill:#f7931e;stroke-width:1.66417"
       inkscape:connector-curvature="0" />
    <path
       d="m 567.18745,511.34637 c 26.75175,10.49887 -12.3009,61.78442 -29.28198,36.82325"
       id="path206"
       style="fill:none;stroke:#00086b;stroke-width:8.32084"
       inkscape:connector-curvature="0" />
    <path
       d="m 536.59782,552.64114 c -21.72965,-20.82505 -38.96092,-39.284 -38.96092,-39.284 l 5.57752,-22.35928 20.37196,-10.27305 47.84259,28.47131 c 10.87483,18.44732 -7.95598,49.79615 -34.80947,43.45333 z"
       id="path208"
       style="fill:#54d8c3;stroke:#000000;stroke-width:1.66417"
       inkscape:connector-curvature="0" />
    <path
       d="m 528.00803,510.53276 c -3.6027,-2.79948 -7.10867,-6.03565 -10.77308,-8.92645"
       id="path210"
       style="fill:none;stroke:#754c24;stroke-width:6.65667;stroke-linecap:round"
       inkscape:connector-curvature="0" />
    <rect
       width="16.67194"
       height="16.746832"
       x="574.0697"
       y="-488.21146"
       transform="matrix(0.11621331,0.99322428,-0.99334402,0.11518529,0,0)"
       id="rect212"
       style="fill:#754c24;stroke-width:1.66419" />
    <path
       d="m 522.83749,525.87509 c -4.05472,-3.19798 -1.31933,-9.82972 3.97798,-16.493 5.30232,-6.66495 11.15504,-10.8376 15.21142,-7.63962 4.05638,3.193 -9.5922,12.06299 -9.5922,12.06299 0,0 -5.55417,15.27591 -9.60721,12.07129 z"
       id="path214"
       style="fill:#754c24;stroke-width:1.66417"
       inkscape:connector-curvature="0" />
    <path
       d="m 530.14297,535.35612 c -7.96765,-6.27641 -5.92111,-15.11651 0.38362,-23.05003 6.3064,-7.93019 14.48254,-11.94011 22.44685,-5.66869 7.96599,6.27807 -11.41857,14.36268 -11.41857,14.36268 0,0 -3.45259,20.62248 -11.40856,14.34607 z"
       id="path216"
       style="fill:#f7931e;stroke-width:1.66417"
       inkscape:connector-curvature="0" />
    <path
       d="m 304.21835,439.78204 c 3.40589,-1.66208 16.72256,-7.71931 20.22185,-9.39634"
       id="path218"
       style="fill:none;stroke:#754c24;stroke-width:6.65667;stroke-linecap:round"
       inkscape:connector-curvature="0" />
    <polygon
       points="65.517,168.552 68.592,161.369 76.135,163.438 73.058,170.623 "
       id="polygon220"
       style="fill:#754c24"
       transform="matrix(1.6679189,0,0,1.6604252,170.65641,171.68979)" />
    <path
       d="m 295.28998,431.82861 c 3.86791,-1.8547 7.53232,1.92111 10.21934,7.46195 2.68535,5.54084 3.3742,10.74461 -0.49537,12.60096 -3.8679,1.85304 -4.86365,-10.03062 -4.86365,-10.03062 0,0 -8.72822,-8.1693 -4.86032,-10.02897 z"
       id="path222"
       style="fill:#754c24;stroke-width:1.66417"
       inkscape:connector-curvature="0" />
    <path
       d="m 285.66943,434.10339 c 7.5957,-3.64131 13.10817,0.29888 16.3039,6.89076 3.19407,6.59189 2.86382,13.33654 -4.73188,16.97951 -7.59737,3.64297 -5.78601,-11.93514 -5.78601,-11.93514 0,0 -13.38505,-8.30212 -5.78601,-11.93845 z"
       id="path224"
       style="fill:#f7931e;stroke-width:1.66417"
       inkscape:connector-curvature="0" />
    <path
       d="m 296.95957,412.75032 c 3.7278,-0.69572 18.18699,-2.99541 22.00652,-3.68116"
       id="path226"
       style="fill:none;stroke:#754c24;stroke-width:6.65667;stroke-linecap:round"
       inkscape:connector-curvature="0" />
    <polygon
       points="59.8,148.126 64.681,142.024 71.398,146.032 66.515,152.134 "
       id="polygon228"
       style="fill:#754c24"
       transform="matrix(1.6679189,0,0,1.6604252,170.65641,171.68979)" />
    <path
       d="m 290.48638,402.72135 c 4.22483,-0.75881 6.74339,3.85385 7.84922,9.90776 1.1025,6.05391 0.37195,11.25104 -3.85623,12.01152 -4.22484,0.75715 -1.9965,-10.96047 -1.9965,-10.96047 0,0 -6.22133,-10.21162 -1.99649,-10.95881 z"
       id="path230"
       style="fill:#754c24;stroke-width:1.66417"
       inkscape:connector-curvature="0" />
    <path
       d="m 280.60562,402.33945 c 8.2979,-1.4894 12.55276,3.77083 13.86541,10.97375 1.31099,7.20127 -0.81728,13.61383 -9.11351,15.10655 -8.29956,1.49106 -2.37511,-13.04098 -2.37511,-13.04098 0,0 -10.67468,-11.55656 -2.37679,-13.05094 z"
       id="path232"
       style="fill:#f7931e;stroke-width:1.66417"
       inkscape:connector-curvature="0" />
    <path
       d="m 297.21309,384.75555 c 3.77951,0.32046 18.33043,1.94768 22.195,2.30135"
       id="path234"
       style="fill:none;stroke:#754c24;stroke-width:6.65667;stroke-linecap:round"
       inkscape:connector-curvature="0" />
    <polygon
       points="59.743,126.916 66.076,122.337 71.479,127.993 65.144,132.57 "
       id="polygon236"
       style="fill:#754c24"
       transform="matrix(1.6679189,0,0,1.6604252,170.65641,171.68979)" />
    <path
       d="m 293.66543,373.38164 c 4.27488,0.39186 5.46577,5.50597 4.90702,11.63294 -0.56042,6.12697 -2.65867,10.9422 -6.93688,10.55034 -4.27487,-0.39186 1.0141,-11.0933 1.0141,-11.0933 0,0 -3.25912,-11.49014 1.01576,-11.09164 z"
       id="path238"
       style="fill:#754c24;stroke-width:1.66417"
       inkscape:connector-curvature="0" />
    <path
       d="m 284.24502,370.39287 c 8.39631,0.76878 11.08499,6.97047 10.41949,14.2614 -0.66717,7.2876 -4.43833,12.90316 -12.83297,12.13604 -8.39797,-0.76711 1.20758,-13.19872 1.20758,-13.19872 0,0 -7.19207,-13.96417 1.2059,-13.20038 z"
       id="path240"
       style="fill:#f7931e;stroke-width:1.66417"
       inkscape:connector-curvature="0" />
    <path
       d="m 304.96058,357.85666 c 3.556,1.3134 17.14287,6.74797 20.77393,8.11616"
       id="path242"
       style="fill:none;stroke:#754c24;stroke-width:6.65667;stroke-linecap:round"
       inkscape:connector-curvature="0" />
    <polygon
       points="65.35,106.459 72.676,103.738 76.373,110.63 69.046,113.351 "
       id="polygon244"
       style="fill:#754c24"
       transform="matrix(1.6679189,0,0,1.6604252,170.65641,171.68979)" />
    <path
       d="m 304.59697,345.95141 c 4.01468,1.51431 3.78951,6.7596 1.60954,12.51629 -2.1833,5.75503 -5.49579,9.83802 -9.51548,8.32537 -4.01468,-1.51431 3.9513,-10.42083 3.9513,-10.42083 0,0 -0.0617,-11.92185 3.95464,-10.41086 z"
       id="path246"
       style="fill:#754c24;stroke-width:1.66417"
       inkscape:connector-curvature="0" />
    <path
       d="m 296.31742,340.57164 c 7.88592,2.97216 8.81495,9.66367 6.21633,16.51127 -2.59861,6.84593 -7.73747,11.25436 -15.62172,8.28552 -7.88759,-2.97216 4.70186,-12.3984 4.70186,-12.3984 0,0 -3.18239,-15.36557 4.70353,-12.38677 z"
       id="path248"
       style="fill:#f7931e;stroke-width:1.66417"
       inkscape:connector-curvature="0" />
    <path
       d="m 319.6416,333.99801 c 3.07564,2.21003 14.71104,11.05844 17.84339,13.34318"
       id="path250"
       style="fill:none;stroke:#754c24;stroke-width:6.65667;stroke-linecap:round"
       inkscape:connector-curvature="0" />
    <polygon
       points="76.215,88.242 84.001,87.575 85.724,95.204 77.937,95.87 "
       id="polygon252"
       style="fill:#754c24"
       transform="matrix(1.6679189,0,0,1.6604252,170.65641,171.68979)" />
    <path
       d="m 322.48707,322.41655 c 3.46427,2.5255 1.84138,7.52172 -1.80469,12.48806 -3.64774,4.96633 -7.93596,8.02151 -11.40189,5.49434 -3.4626,-2.5255 6.60162,-8.99286 6.60162,-8.99286 0,0 3.14069,-11.52335 6.60496,-8.99618 z"
       id="path254"
       style="fill:#754c24;stroke-width:1.66417"
       inkscape:connector-curvature="0" />
    <path
       d="m 315.95049,315.03098 c 6.80178,4.95969 5.90277,11.65618 1.56284,17.56563 -4.33992,5.9078 -10.47453,8.7903 -17.2763,3.83227 -6.80511,-4.95969 7.8559,-10.69978 7.8559,-10.69978 0,0 1.05412,-15.65781 7.85756,-10.69812 z"
       id="path256"
       style="fill:#f7931e;stroke-width:1.66417"
       inkscape:connector-curvature="0" />
    <path
       d="m 340.18369,314.90146 c 2.37178,2.94726 11.21175,14.56691 13.61689,17.60051"
       id="path258"
       style="fill:none;stroke:#754c24;stroke-width:6.65667;stroke-linecap:round"
       inkscape:connector-curvature="0" />
    <polygon
       points="91.548,73.586 99.23,75.021 98.854,82.833 91.171,81.396 "
       id="polygon260"
       style="fill:#754c24"
       transform="matrix(1.6679189,0,0,1.6604252,170.65641,171.68979)" />
    <path
       d="m 346.03808,304.49558 c 2.66033,3.35406 -0.24351,7.73758 -5.08715,11.5549 -4.84697,3.81732 -9.79902,5.62054 -12.46102,2.26482 -2.66033,-3.35572 8.77325,-6.91069 8.77325,-6.91069 0,0 6.10625,-10.26475 8.77492,-6.90903 z"
       id="path262"
       style="fill:#754c24;stroke-width:1.66417"
       inkscape:connector-curvature="0" />
    <path
       d="m 341.71817,295.64053 c 5.22559,6.58691 2.56359,12.80022 -3.20407,17.34314 -5.766,4.5396 -12.45101,5.68862 -17.67827,-0.89829 -5.22726,-6.58856 10.44117,-8.22408 10.44117,-8.22408 0,0 5.21225,-14.80768 10.4395,-8.22077 z"
       id="path264"
       style="fill:#f7931e;stroke-width:1.66417"
       inkscape:connector-curvature="0" />
    <path
       d="m 365.11907,301.95679 c 1.49446,3.47029 6.89852,17.0177 8.40298,20.58097"
       id="path266"
       style="fill:none;stroke:#754c24;stroke-width:6.65667;stroke-linecap:round"
       inkscape:connector-curvature="0" />
    <polygon
       points="110.238,63.555 117.257,66.989 114.81,74.417 107.79,70.981 "
       id="polygon268"
       style="fill:#754c24"
       transform="matrix(1.6679189,0,0,1.6604252,170.65641,171.68979)" />
    <path
       d="m 373.54206,293.48364 c 1.66459,3.94019 -2.30839,7.39221 -8.00267,9.78488 -5.69428,2.39102 -10.94989,2.81276 -12.61614,-1.12908 -1.66458,-3.94019 10.30774,-4.32873 10.30774,-4.32873 0,0 8.63982,-8.26726 10.30774,-4.32707 z"
       id="path270"
       style="fill:#754c24;stroke-width:1.66417"
       inkscape:connector-curvature="0" />
    <path
       d="m 371.74071,283.80336 c 3.26912,7.73758 -0.96239,13.01773 -7.73747,15.86204 -6.77509,2.84265 -13.52349,2.1735 -16.79595,-5.56408 -3.27079,-7.73924 12.26588,-5.15064 12.26588,-5.15064 0,0 9.00676,-12.88656 12.27588,-5.14732 z"
       id="path272"
       style="fill:#f7931e;stroke-width:1.66417"
       inkscape:connector-curvature="0" />
    <path
       d="m 392.60638,296.10545 c 0.51038,3.74094 2.0849,18.23313 2.58027,22.06705"
       id="path274"
       style="fill:none;stroke:#754c24;stroke-width:6.65667;stroke-linecap:round"
       inkscape:connector-curvature="0" />
    <polygon
       points="130.927,58.877 136.774,64.061 132.433,70.566 126.585,65.381 "
       id="polygon276"
       style="fill:#754c24"
       transform="matrix(1.6679189,0,0,1.6604252,170.65641,171.68979)" />
    <path
       d="m 402.99751,290.17773 c 0.54708,4.23907 -4.20816,6.51053 -10.33609,7.30255 -6.1296,0.79203 -11.30682,-0.19925 -11.85557,-4.43997 -0.54708,-4.23907 11.095,-1.43295 11.095,-1.43295 0,0 10.55792,-5.66869 11.10834,-1.42963 z"
       id="path278"
       style="fill:#754c24;stroke-width:1.66417"
       inkscape:connector-curvature="0" />
    <path
       d="m 403.86483,280.37458 c 1.07581,8.32537 -4.41832,12.28881 -11.71046,13.23027 -7.29047,0.9398 -13.61689,-1.49936 -14.69436,-9.82474 -1.07748,-8.32703 13.20324,-1.70359 13.20324,-1.70359 0,0 12.12577,-10.02897 13.19324,-1.70194 z"
       id="path280"
       style="fill:#f7931e;stroke-width:1.66417"
       inkscape:connector-curvature="0" />
    <path
       d="m 420.66077,297.77252 c -0.51205,3.74094 -2.88049,18.12686 -3.43091,21.95248"
       id="path282"
       style="fill:none;stroke:#754c24;stroke-width:6.65667;stroke-linecap:round"
       inkscape:connector-curvature="0" />
    <polygon
       points="152.113,59.893 156.365,66.449 150.444,71.559 146.193,65.001 "
       id="polygon284"
       style="fill:#754c24"
       transform="matrix(1.6679189,0,0,1.6604252,170.65641,171.68979)" />
    <path
       d="m 432.26949,294.82194 c -0.60879,4.23076 -5.80269,5.15728 -11.91895,4.29054 -6.11959,-0.86508 -10.84314,-3.19632 -10.23602,-7.42874 0.60879,-4.22911 11.07832,1.56744 11.07832,1.56744 0,0 11.69211,-2.66 11.09166,1.57076 z"
       id="path286"
       style="fill:#754c24;stroke-width:1.66417"
       inkscape:connector-curvature="0" />
    <path
       d="m 435.73876,285.60492 c -1.1959,8.30877 -7.55234,10.66823 -14.83447,9.63877 -7.27713,-1.03278 -12.71955,-5.0643 -11.52532,-13.37307 1.19423,-8.31208 13.17823,1.86632 13.17823,1.86632 0,0 14.37746,-6.44079 13.17656,1.86798 z"
       id="path288"
       style="fill:#f7931e;stroke-width:1.66417"
       inkscape:connector-curvature="0" />
    <path
       d="m 447.26408,306.83678 c -1.49612,3.47029 -7.63573,16.70222 -9.19357,20.2439"
       id="path290"
       style="fill:none;stroke:#754c24;stroke-width:6.65667;stroke-linecap:round"
       inkscape:connector-curvature="0" />
    <polygon
       points="172.26,66.526 174.607,73.979 167.537,77.324 165.191,69.869 "
       id="polygon292"
       style="fill:#754c24"
       transform="matrix(1.6679189,0,0,1.6604252,170.65641,171.68979)" />
    <path
       d="m 459.23974,307.07588 c -1.72129,3.91528 -6.97524,3.42712 -12.63782,0.96803 -5.66426,-2.45909 -9.59221,-5.96093 -7.87091,-9.87953 1.71962,-3.91362 10.25436,4.45492 10.25436,4.45492 0,0 11.97566,0.5413 10.2577,4.45658 z"
       id="path294"
       style="fill:#754c24;stroke-width:1.66417"
       inkscape:connector-curvature="0" />
    <path
       d="m 465.0441,299.1158 c -3.37921,7.68943 -10.13928,8.2739 -16.87934,5.34657 -6.73673,-2.92899 -10.89985,-8.26062 -7.52232,-15.95004 3.37921,-7.69275 12.19916,5.30007 12.19916,5.30007 0,0 15.59504,-2.38769 12.20917,5.3034 z"
       id="path296"
       style="fill:#f7931e;stroke-width:1.66417"
       inkscape:connector-curvature="0" />
    <path
       d="m 470.44815,322.63738 c -2.37345,2.9456 -11.83722,14.06713 -14.28739,17.06585"
       id="path298"
       style="fill:none;stroke:#754c24;stroke-width:6.65667;stroke-linecap:round"
       inkscape:connector-curvature="0" />
    <polygon
       points="189.904,78.297 190.178,86.107 182.471,87.442 182.2,79.632 "
       id="polygon300"
       style="fill:#754c24"
       transform="matrix(1.6679189,0,0,1.6604252,170.65641,171.68979)" />
    <path
       d="m 481.94011,326.05122 c -2.7087,3.31587 -7.64073,1.44955 -12.43933,-2.42588 -4.79861,-3.87543 -7.64575,-8.29383 -4.93538,-11.61302 2.70704,-3.31587 8.68819,7.01862 8.68819,7.01862 0,0 11.39189,3.70441 8.68986,7.02028 z"
       id="path302"
       style="fill:#754c24;stroke-width:1.66417"
       inkscape:connector-curvature="0" />
    <path
       d="m 489.67926,319.92591 c -5.319,6.51219 -11.989,5.28015 -17.69996,0.66749 -5.70762,-4.61266 -8.28955,-10.85752 -2.97223,-17.36971 5.31899,-6.51551 10.33609,8.35028 10.33609,8.35028 0,0 15.64508,1.83975 10.32442,8.35194 z"
       id="path304"
       style="fill:#f7931e;stroke-width:1.66417"
       inkscape:connector-curvature="0" />
    <path
       d="m 488.57843,344.02532 c -3.07731,2.21003 -15.17973,10.41253 -18.34544,12.65078"
       id="path306"
       style="fill:none;stroke:#754c24;stroke-width:6.65667;stroke-linecap:round"
       inkscape:connector-curvature="0" />
    <polygon
       points="203.767,94.352 201.945,101.951 194.161,101.18 195.986,93.581 "
       id="polygon308"
       style="fill:#754c24"
       transform="matrix(1.6679189,0,0,1.6604252,170.65641,171.68979)" />
    <path
       d="m 498.71938,350.36815 c -3.4993,2.47569 -7.75082,-0.63263 -11.33685,-5.64379 -3.58435,-5.01116 -5.14386,-10.02565 -1.64123,-12.503 3.49763,-2.4757 6.49154,9.07256 6.49154,9.07256 0,0 9.99084,6.60849 6.48821,9.08253 z"
       id="path310"
       style="fill:#754c24;stroke-width:1.66417"
       inkscape:connector-curvature="0" />
    <path
       d="m 507.82622,346.53256 c -6.87183,4.86339 -12.96974,1.90285 -17.23628,-4.0614 -4.26487,-5.96092 -5.07714,-12.66572 1.79301,-17.52911 6.8735,-4.8667 7.72247,10.79277 7.72247,10.79277 0,0 14.57761,5.93934 7.70578,10.80439 z"
       id="path312"
       style="fill:#f7931e;stroke-width:1.66417"
       inkscape:connector-curvature="0" />
    <path
       d="m 500.3039,369.46304 c -3.55767,1.31173 -17.41974,6.00077 -21.07249,7.31583"
       id="path314"
       style="fill:none;stroke:#754c24;stroke-width:6.65667;stroke-linecap:round"
       inkscape:connector-curvature="0" />
    <polygon
       points="212.84,113.523 209.057,120.361 201.761,117.54 205.548,110.704 "
       id="polygon316"
       style="fill:#754c24"
       transform="matrix(1.6679189,0,0,1.6604252,170.65641,171.68979)" />
    <path
       d="m 508.37663,378.26329 c -4.03636,1.45619 -7.30048,-2.66996 -9.41374,-8.45157 -2.11158,-5.7816 -2.26837,-11.02854 1.77133,-12.48473 4.0347,-1.4562 3.82287,10.46732 3.82287,10.46732 0,0 7.8559,9.03271 3.81954,10.47728 z"
       id="path318"
       style="fill:#754c24;stroke-width:1.66417"
       inkscape:connector-curvature="0" />
    <path
       d="m 518.18399,376.98476 c -7.92595,2.86091 -13.00977,-1.61393 -15.52165,-8.49473 -2.51189,-6.87915 -1.49612,-13.55571 6.42816,-16.41663 7.92928,-2.86257 4.54841,12.45319 4.54841,12.45319 0,0 12.47604,9.61386 4.55342,12.46979 z"
       id="path320"
       style="fill:#f7931e;stroke-width:1.66417"
       inkscape:connector-curvature="0" />
    <path
       d="m 504.7906,397.09251 c -3.78117,0.3188 -18.39714,1.15234 -22.27005,1.45121"
       id="path322"
       style="fill:none;stroke:#754c24;stroke-width:6.65667;stroke-linecap:round"
       inkscape:connector-curvature="0" />
    <polygon
       points="216.467,134.422 210.995,140.001 204.717,135.335 210.191,129.758 "
       id="polygon324"
       style="fill:#754c24"
       transform="matrix(1.6679189,0,0,1.6604252,170.65641,171.68979)" />
    <path
       d="m 510.21134,407.71923 c -4.27821,0.32877 -6.31808,-4.51469 -6.80344,-10.6483 -0.48537,-6.13195 0.77058,-11.23112 5.05379,-11.56155 4.27655,-0.33208 0.87566,11.10493 0.87566,11.10493 0,0 5.13719,10.75955 0.86732,11.09164 z"
       id="path326"
       style="fill:#754c24;stroke-width:1.66417"
       inkscape:connector-curvature="0" />
    <path
       d="m 520.00202,409.08078 c -8.40464,0.65089 -12.10408,-5.01448 -12.67952,-12.31205 -0.5771,-7.29591 2.19165,-13.46107 10.59796,-14.11362 8.40965,-0.65254 1.04245,13.21035 1.04245,13.21035 0,0 9.4571,12.55281 1.05079,13.20038 z"
       id="path328"
       style="fill:#f7931e;stroke-width:1.66417"
       inkscape:connector-curvature="0" />
    <path
       d="m 501.68827,424.90463 c -3.72779,-0.69738 -18.03854,-3.77746 -21.84973,-4.51967"
       id="path330"
       style="fill:none;stroke:#754c24;stroke-width:6.65667;stroke-linecap:round"
       inkscape:connector-curvature="0" />
    <polygon
       points="214.383,155.53 207.62,159.447 202.815,153.273 209.58,149.361 "
       id="polygon332"
       style="fill:#754c24"
       transform="matrix(1.6679189,0,0,1.6604252,170.65641,171.68979)" />
    <path
       d="m 504.0734,436.59403 c -4.2115,-0.82025 -4.87866,-6.02901 -3.70278,-12.06963 1.17755,-6.03897 3.75448,-10.62008 7.97098,-9.79817 4.20983,0.81693 -2.13327,10.9339 -2.13327,10.9339 0,0 2.06822,11.7392 -2.13493,10.92559 z"
       id="path334"
       style="fill:#754c24;stroke-width:1.66417"
       inkscape:connector-curvature="0" />
    <path
       d="m 513.14688,440.51263 c -8.27288,-1.60729 -10.32109,-8.04808 -8.9167,-15.2344 1.40105,-7.183 5.72263,-12.39009 13.99718,-10.78446 8.27955,1.60729 -2.53691,13.00943 -2.53691,13.00943 0,0 5.73764,14.62834 -2.53523,13.01773 z"
       id="path336"
       style="fill:#f7931e;stroke-width:1.66417"
       inkscape:connector-curvature="0" />
    <path
       d="m 491.26378,450.89029 c -3.40589,-1.66375 -16.37062,-8.43496 -19.84323,-10.1618"
       id="path338"
       style="fill:none;stroke:#754c24;stroke-width:6.65667;stroke-linecap:round"
       inkscape:connector-curvature="0" />
    <polygon
       points="206.74,175.316 199.177,177.286 196.194,170.053 203.758,168.088 "
       id="polygon340"
       style="fill:#754c24"
       transform="matrix(1.6679189,0,0,1.6604252,170.65641,171.68979)" />
    <path
       d="m 490.41314,462.77893 c -3.83955,-1.90949 -3.08565,-7.10496 -0.33191,-12.61591 2.75373,-5.50431 6.46652,-9.23694 10.31107,-7.32413 3.83788,1.90616 -4.98874,9.97085 -4.98874,9.97085 0,0 -1.15087,11.88864 -4.98708,9.97915 z"
       id="path342"
       style="fill:#754c24;stroke-width:1.66417"
       inkscape:connector-curvature="0" />
    <path
       d="m 498.10225,468.97232 c -7.54066,-3.74758 -7.78751,-10.49721 -4.50672,-17.05091 3.27579,-6.55038 8.83664,-10.41917 16.38063,-6.67491 7.54734,3.74924 -5.93612,11.86374 -5.93612,11.86374 0,0 1.6012,15.608 -5.93779,11.85544 z"
       id="path344"
       style="fill:#f7931e;stroke-width:1.66417"
       inkscape:connector-curvature="0" />
    <path
       d="m 484.05837,439.41675 c -4.20983,-1.10252 -10.17097,-0.63096 -14.83113,-0.63096 -7.73581,0 -15.42325,0.26401 -22.88719,-2.72974 -1.10416,-0.44333 -2.14327,-1.40306 -2.95221,-0.95973 -0.19515,-0.42008 -1.55117,-0.82191 -1.87641,-1.18056 -1.27429,-1.40638 -1.94813,-2.04232 -3.5977,-3.01699 -1.61455,-0.95475 -10.50456,-3.56327 -11.01494,-3.33746 -1.26762,-0.41842 -10.92487,-4.09959 -11.71379,-4.63092 -6.00118,-4.03151 -13.4868,-12.10284 -13.87542,-19.84042 -0.1301,-2.60687 0.71887,-6.18509 -1.31933,-6.23988 -2.03819,-0.0548 -6.96189,3.41217 -7.00525,5.91941 -0.61213,0.65753 -0.9724,1.58571 -0.84898,2.80944 0.6555,6.52215 3.99967,13.50092 8.95006,18.67979 -1.5545,1.45453 -2.25169,4.02155 -0.50038,6.117 4.04804,4.84512 6.78009,10.54869 11.39856,14.94383 4.62847,4.40677 11.53032,6.64668 17.4064,8.81852 0.46535,0.17268 0.89734,0.23578 1.31099,0.24906 -9.81237,9.47771 -27.88928,-14.57853 -35.34821,-20.29039 -2.1316,-1.6322 -5.55083,0.10128 -6.1246,2.47901 -2.01151,8.34032 2.46352,14.2863 8.40965,19.72419 7.47394,6.83597 14.45919,8.97128 24.52341,9.0543 0.68051,0.005 1.27429,-0.12453 1.78134,-0.35201 5.28563,0.89497 10.40114,-0.91987 14.90452,-7.42708 2.1683,-0.008 4.33492,0.003 6.50489,0.10627 3.10232,0.14777 5.90109,1.54585 8.88834,1.99583 -0.89568,2.85261 -0.80227,5.72514 -0.55042,8.63421 -1.65291,1.80654 -6.09291,2.86257 -7.6891,3.56161 -3.99133,1.75175 -7.28881,4.74882 -10.6997,7.50512 -0.64048,-1.07263 -1.773,-1.84639 -3.4109,-1.84805 -17.79836,-0.0149 -34.11228,-2.52883 -48.05274,-14.49717 -6.41982,-5.51095 -11.4586,-13.80146 -14.09558,-22.59341 0.13843,-0.58281 0.16178,-1.22373 0.008,-1.92443 -0.87566,-4.01325 0.78559,-8.12944 -0.0584,-12.21409 1.70962,-0.13283 2.42182,-1.28019 2.8388,-3.01035 0.61045,-2.53381 0.95738,-5.14068 0.9824,-7.74588 0.0217,-2.26316 -1.9131,-4.15107 -4.1698,-4.15107 -2.29005,0 -4.14811,1.88957 -4.16979,4.15107 -0.007,0.63096 -0.035,1.20214 -0.0751,1.75839 -1.32099,1.76005 -1.39104,-0.66085 -1.80802,2.18346 -0.11342,0.77043 -1.20591,2.37772 -1.28097,3.1548 -0.69218,-0.21917 -3.72112,-0.58115 -4.6168,-0.30884 -4.25819,1.30012 -8.3079,1.28019 -12.29256,3.50682 -3.48762,1.94768 -6.6133,4.35696 -9.24027,7.35569 -5.10717,5.82477 -7.83755,13.94259 -9.4571,21.36967 -0.15178,0.69406 -0.13176,1.32834 0.003,1.90451 -0.33859,1.22871 -0.10008,2.61018 1.06913,3.79407 11.07165,11.20953 20.1518,25.13053 32.07075,35.38366 0.16012,0.13781 0.33358,0.24242 0.49704,0.36695 0.0917,2.00081 1.48945,3.07677 4.08306,3.07677 1.00242,0 5.17722,0.18763 5.80603,-0.28061 1.64957,0.66417 -0.19348,1.78662 1.13418,3.00371 -0.38862,0.78538 0.36528,1.48276 0.69553,2.58196 1.78967,5.98417 3.98465,12.23401 4.87532,18.48717 0.30857,1.7202 0.20516,2.38105 0.69552,3.63135 0.75057,1.90949 -0.11508,3.90864 0.91736,5.69692 0.41698,0.72229 1.03911,1.26525 1.75131,1.61061 0.86732,2.08384 4.30324,4.57448 4.38163,6.92564 1.21925,-6.19173 0.54708,-2.53381 1.58619,-7.89034 0.59711,-2.66332 1.00242,-4.84844 1.88475,-7.81728 0.41197,-1.38812 1.03244,-4.09461 1.77133,-6.62012 1.03911,-1.88624 2.58194,-3.75256 2.62197,-3.78245 3.41589,-4.23408 6.71837,8.88826 7.48228,10.65329 2.66533,6.15852 7.03862,11.58811 11.41857,16.61754 0.74223,0.85345 1.58953,1.24531 2.43183,1.32667 0.87065,1.31838 2.41848,2.17516 4.40497,1.68036 0.37028,-0.093 0.74056,-0.18431 1.1125,-0.2773 1.71462,-0.42839 3.16405,-2.2067 3.06064,-4.00328 -0.40197,-6.94556 -1.43608,-13.79149 -0.83396,-20.75532 0.13343,-1.13905 0.23851,-2.27976 0.31356,-3.42545 0.11843,-0.67414 1.34601,-4.70731 1.46611,-5.38144 2.56359,0.0946 4.32491,2.13365 6.89017,2.30799 1.14085,0.0764 2.99224,0.21087 3.96297,0.54462 3.1924,0.43669 4.77526,0.91157 7.94263,1.37815 2.24836,0.33043 4.98541,0.27563 5.64424,-2.1021 0.0767,-0.27729 -0.40197,-1.36985 -0.39196,-1.67204 0.12009,-0.80863 -0.0817,-1.66043 -0.54207,-2.60023 -3.42424,-6.99039 -6.2964,-11.85212 -9.96916,-18.79435 2.85381,-2.7065 7.03195,-5.95097 9.86741,-8.06635 2.68869,-2.00745 5.39405,-3.09337 8.21784,-4.84014 2.08657,-1.29015 4.49004,-2.08217 6.14962,-3.24613 1.33767,-0.71398 2.10825,-2.36777 1.9598,-3.91362 -0.003,-0.0315 0.44033,-5.89783 0.50705,-6.07218 1.28096,-0.24242 2.01651,-0.46492 3.29581,-0.7173 0.22517,-0.0432 2.93387,-0.12453 3.13568,-0.21087 2.46018,1.30675 2.67201,3.95015 3.1924,5.03441 1.80469,3.75422 3.97799,7.42376 7.3672,9.28177 8.22451,4.5064 11.26345,-8.9115 11.14003,-14.87907 -0.26687,-8.88327 -1.61788,-19.41037 -7.48896,-23.01349 z m -98.7408,58.54659 c -2.41348,-0.82357 -4.66683,-1.70027 -7.01026,-2.14361 -0.0117,-0.90327 -0.30523,-1.83145 -1.0241,-2.68158 -5.35903,-6.34947 -7.43559,-14.03392 -9.2286,-21.95249 -0.44366,-1.95764 -0.89567,-3.89701 -1.35602,-5.82975 1.0191,1.47778 2.15662,2.8825 3.37921,4.2208 -0.52873,0.68244 -0.83396,1.51265 -0.74723,2.41924 1.47778,15.27591 14.94956,24.23723 29.29533,25.77146 0.14177,0.55624 0.28021,1.10584 0.42532,1.66375 -4.6535,0.0498 -9.34035,0.0166 -13.74366,-1.47778 z"
       id="path346"
       style="fill:#000063;stroke-width:1.66417"
       inkscape:connector-curvature="0" />
    <path
       d="m 437.33996,606.93705 c -0.4003,-2.60687 -0.60879,-5.43291 -1.80135,-7.72596 -0.37695,-0.72229 -0.91735,-1.33664 -1.54282,-1.86964 -0.48203,0.0166 -0.97073,-0.0481 -1.42608,-0.28559 -0.0434,-0.0233 -0.06,-0.0349 -0.0901,-0.0482 -0.0367,-0.008 -0.0784,-0.0183 -0.14845,-0.0365 -0.15511,-0.0448 -0.3119,-0.088 -0.46868,-0.12454 -0.31691,-0.0764 -0.63882,-0.14113 -0.95238,-0.22747 -0.72722,-0.1976 -1.47611,-0.45662 -2.08157,-0.90992 -0.29188,-0.21751 -0.54541,-0.47156 -0.75056,-0.74885 -0.34359,-0.0149 -0.68051,-0.008 -1.00576,0.0349 -1.80969,-1.3383 -4.63181,-1.45121 -6.1713,1.00954 -2.03652,3.25941 -4.69185,6.22161 -7.35885,9.06592 -0.6555,2.87254 -3.11234,5.1689 -4.57677,7.65622 -0.50872,0.86508 -1.04245,1.89289 -1.52448,2.99541 0.0367,0.44333 -0.0284,0.91323 -0.25853,1.39642 -0.81895,1.71355 -1.16587,3.29428 -1.21258,5.02278 2.20166,-0.45329 4.4817,-1.35823 5.84606,-3.2179 0.42699,-0.58281 1.00242,-1.00954 1.6379,-1.19219 0.61379,-0.76213 1.21091,-1.55084 1.59453,-2.37773 0.45367,-0.97633 0.76057,-1.97258 1.40272,-2.85261 0.72554,-0.99459 1.80302,-1.26358 2.77375,-1.07263 0.17346,-0.21254 0.34025,-0.43005 0.51705,-0.64093 0.63047,0.41013 1.36603,0.64591 2.14328,0.68908 0.1401,0.39186 0.24518,0.79534 0.33024,1.20547 0.78559,0.37525 1.39272,1.11248 1.42774,2.22663 0.0801,2.50558 -0.0717,5.00784 -0.41031,7.48852 -0.01,0.39352 -0.01,0.7887 -0.0217,1.18222 0.0584,0.0266 0.11676,0.0515 0.18014,0.0697 0.28521,0.078 0.58377,0.11457 0.88233,0.12453 0.008,-0.0299 0.008,-0.0581 0.02,-0.088 0.29356,-0.79369 0.6655,-1.52759 1.06747,-2.24822 0.003,-0.0282 0.02,-0.0631 0.0217,-0.0897 0.0817,-0.97965 0.58711,-1.83975 1.38604,-2.28475 0.34026,-0.58281 0.63048,-1.1955 0.66217,-1.84639 0.0567,-1.17724 0.75223,-1.92609 1.61121,-2.27644 0.015,-0.0631 0.0283,-0.12786 0.0467,-0.19095 -0.002,-0.005 -0.003,-0.0116 -0.007,-0.0166 0.0117,-0.0116 0.0183,-0.0266 0.03,-0.0349 0.16012,-0.45994 0.44033,-0.87671 0.81061,-1.18887 0.10674,-0.22582 0.2235,-0.44831 0.29022,-0.69074 0.0567,0.0465 0.10507,0.10461 0.16345,0.14778 -0.003,0.083 -0.005,0.1677 -0.008,0.24907 1.25761,-0.65587 2.70203,-0.15941 3.46427,0.98795 0.0801,0.12121 0.11342,0.25404 0.17847,0.38024 0.30523,0.39352 0.49704,0.90659 0.50538,1.53755 0.0117,0.81859 -0.10175,1.62556 -0.2235,2.43086 0.0684,0.0133 0.1351,0.0282 0.20682,0.0282 0.51372,0 0.98741,-0.12785 1.43941,-0.30552 0.14344,-0.65753 0.2702,-1.32004 0.44033,-1.97258 0.12176,-0.47323 0.34193,-0.83686 0.61046,-1.12245 0.19181,-2.16852 0.1718,-4.35198 -0.10841,-6.51883 -0.15012,-0.69738 0.05,-1.26192 0.41697,-1.67703 z"
       id="path348"
       style="fill:#f7931e;stroke-width:1.66417"
       inkscape:connector-curvature="0" />
    <path
       d="m 377.14477,623.80697 c -0.0667,-0.86342 0.18847,-1.67537 0.75557,-2.24822 0.0183,-0.16936 0.045,-0.33872 0.06,-0.50809 0.02,-0.52137 0.0134,-1.04773 0.0117,-1.58072 0,-0.24242 0.0317,-0.4616 0.0817,-0.66915 0.0183,-2.0855 -0.12677,-4.17929 -0.16179,-6.30464 -0.0634,-3.69112 0.70052,-7.48852 0.1301,-11.15474 -0.0567,-0.36031 -0.0701,-0.70402 -0.0517,-1.0361 -0.27854,-0.20423 -0.57043,-0.38688 -0.88567,-0.52636 -0.05,-0.12121 -0.0884,-0.2474 -0.15011,-0.36861 -0.20849,-0.40846 -0.19014,-1.7285 -0.28188,-2.53547 -0.17846,-1.59069 -0.51705,-3.12492 -1.48611,-4.4433 -1.20257,-1.63386 -2.72705,-2.46241 -4.76024,-2.62513 -0.38196,-0.0315 -0.45868,-0.0232 -0.46035,-0.0116 -0.0367,-0.0133 -0.14344,-0.0432 -0.37695,-0.0996 -0.58377,-0.94976 -1.36769,-1.47778 -2.20499,-1.73016 -0.47035,0.6924 -1.28763,1.10916 -2.20165,1.21211 0.43032,-0.0481 -0.48703,0.16106 -0.45701,0.1511 -0.19181,0.0631 -0.38195,0.12951 -0.57043,0.20257 -0.37695,0.14778 -0.75056,0.30884 -1.13085,0.44665 -0.66216,0.23911 -1.35268,0.37194 -2.0532,0.42507 -3.13736,1.3931 -5.70929,3.83725 -7.58904,6.71144 0.0901,0.5247 -0.003,1.10585 -0.38862,1.69862 -0.29355,0.45163 -0.7539,1.29347 -1.30265,2.39433 0.14011,0.44167 0.13677,0.95641 -0.0784,1.53423 -1.49112,3.98336 -2.8855,7.25274 -3.40255,11.55324 -0.43866,3.64464 -3.03561,6.83597 -0.0434,10.07712 0.60712,-0.19925 1.07748,-0.5496 1.46443,-0.99127 0.24352,-0.32711 0.47369,-0.67579 0.67885,-1.03445 1.32266,-2.81774 0.71387,-7.58316 1.45943,-9.91107 0.91568,-2.86258 1.30431,-5.55247 3.98632,-7.29591 0.879,-0.57285 1.73797,-0.52968 2.42015,-0.14944 0.25353,-0.20589 0.48704,-0.43503 0.67217,-0.71398 0.28021,0.35367 0.62714,0.64424 0.99909,0.90161 1.07914,0.20921 1.99149,1.02116 1.91977,2.45411 -0.1301,2.62181 -0.1401,5.22867 -0.10007,7.85215 0.0217,1.36154 0.0167,3.62138 0.89734,4.77704 0.30356,0.3985 1.2009,0.67745 1.71462,0.89663 0.11175,-0.12951 0.24185,-0.25737 0.39696,-0.37858 0.92403,-0.71564 1.36603,-2.08549 1.59453,-3.54501 0.005,-0.0365 0.008,-0.078 0.0167,-0.11456 0.21516,-1.44956 0.23018,-2.97051 0.29856,-4.01159 0.16179,-2.45577 -0.28521,-4.87833 -0.11509,-7.29923 0.0917,-1.30344 0.95072,-2.0938 1.94813,-2.38105 -0.008,-0.0465 -0.008,-0.10129 -0.0183,-0.14612 0.34526,-0.15774 0.67217,-0.34039 0.95738,-0.57118 0.0834,0.20589 0.18014,0.41178 0.27688,0.61767 1.16254,0.1428 2.17663,0.96139 2.06822,2.47902 -0.008,0.11125 -0.003,0.2225 -0.01,0.33374 0.28855,1.18057 0.67551,2.34951 0.79893,3.69777 0.44867,0.3271 0.78726,0.78206 0.88733,1.34661 0.20849,1.18554 0.63715,2.27312 0.76391,3.48523 0.11342,1.09256 0.1718,2.18014 0.12176,3.27768 -0.0117,0.26733 -0.0667,0.50809 -0.13844,0.73224 0.87066,1.12743 1.13919,2.68657 0.78392,4.08299 0.54041,0.30884 0.98241,0.72229 1.31599,1.21045 h 0.48203 c 0.16012,0 0.31524,0.0266 0.47035,0.0481 -0.0167,-0.0332 -0.0334,-0.11623 -0.0334,-0.18264 z"
       id="path350"
       style="fill:#f7931e;stroke-width:1.66417"
       inkscape:connector-curvature="0" />
    <path
       d="m 409.25221,616.28524 c -0.76558,0 -1.40272,0.18929 -1.9498,0.4782 -0.0384,0.11789 -0.0717,0.23744 -0.12843,0.357 -0.81895,1.71355 -1.16587,3.29594 -1.21424,5.02776 2.20332,-0.45329 4.48336,-1.36487 5.84772,-3.22122 0.24018,-0.32545 0.52706,-0.59609 0.84397,-0.81029 -0.65049,-1.06267 -1.768,-1.82647 -3.40256,-1.82647 z"
       id="path352"
       style="fill:#42210b;stroke-width:1.66417"
       inkscape:connector-curvature="0" />
    <path
       d="m 423.29609,618.65965 c -0.01,1.74843 -0.0434,3.49686 -0.0901,5.24528 -0.002,0.0382 -0.002,0.0565 -0.002,0.0913 0.003,0.002 0.008,0.002 0.0117,0.003 0.33024,0.0731 0.64214,0.17268 0.94737,0.29389 0.55876,-1.00622 1.15254,-2.15689 1.21758,-2.94061 0.0617,-0.73889 0.36528,-1.41468 0.85398,-1.89455 -0.6705,-0.73722 -1.65124,-1.23037 -2.95389,-1.23037 -0.01,0 -0.0167,0.003 -0.0267,0.003 0,0.13283 0.0334,0.28227 0.0334,0.43171 z"
       id="path354"
       style="fill:#42210b;stroke-width:1.66417"
       inkscape:connector-curvature="0" />
    <path
       d="m 435.15499,614.70784 c -0.36528,0 -0.69886,0.0448 -1.01243,0.11623 0.2135,0.35699 0.3536,0.78372 0.36027,1.29845 0.0267,1.89953 -0.5821,3.72931 -0.55708,5.62552 0.005,0.3819 -0.065,0.71564 -0.18181,1.00954 0.36861,0.12287 0.76058,0.21585 1.20758,0.23412 0.43199,-2.23825 0.82228,-4.48149 1.39605,-6.68819 0.13009,-0.50311 0.37027,-0.88169 0.66383,-1.17392 -0.53374,-0.24907 -1.15087,-0.41511 -1.88475,-0.41511 z"
       id="path356"
       style="fill:#42210b;stroke-width:1.66417"
       inkscape:connector-curvature="0" />
    <path
       d="m 377.14477,623.80697 c -0.0667,-0.87671 0.19515,-1.70526 0.78225,-2.27811 0.0517,-0.67911 0.0467,-1.3632 0.0434,-2.05726 0,-0.24408 0.0334,-0.46658 0.0851,-0.67746 -0.65882,-0.59941 -1.55783,-0.98629 -2.71203,-0.98629 -0.52706,0 -0.98574,0.0996 -1.40939,0.24242 -0.0667,2.18014 -0.24686,5.18883 2.22667,6.07052 0.33692,0.11955 0.61379,0.28891 0.8473,0.4865 0.055,-0.10959 0.10508,-0.22249 0.16012,-0.33374 -0.0334,-0.18265 -0.05,-0.33209 -0.05,-0.48153 z"
       id="path358"
       style="fill:#42210b;stroke-width:1.66417"
       inkscape:connector-curvature="0" />
    <path
       d="m 364.46859,621.88087 c 0.39029,-0.65586 0.66716,-1.33498 0.98407,-2.05228 0.20515,-0.4616 0.42532,-0.89497 0.69385,-1.32502 0.0517,-0.0797 0.0967,-0.16272 0.14511,-0.24242 -0.17346,-0.74719 -0.0267,-1.38812 0.30023,-1.89787 -0.63381,-1.09422 -1.77133,-1.89454 -3.43425,-1.89454 -0.85397,0 -1.55783,0.22581 -2.13994,0.57948 0.31023,0.39685 0.49871,0.91822 0.4887,1.56745 -0.015,0.96968 -0.21182,2.13862 -0.0567,3.15979 0.47536,0.0963 0.91736,0.31714 1.2426,0.70402 0.47703,0.5662 1.06247,0.8684 1.66625,1.29181 0.0334,0.0498 0.0667,0.0996 0.10008,0.13283 z"
       id="path360"
       style="fill:#42210b;stroke-width:1.66417"
       inkscape:connector-curvature="0" />
    <path
       d="m 346.35499,619.19099 c -0.19515,1.40139 -0.78059,5.01116 1.28596,5.43125 1.58119,0.32212 3.03395,-2.98877 3.56268,-4.04148 0.03,-0.0598 0.0684,-0.10461 0.10174,-0.1594 -0.54708,-1.36487 -1.77133,-2.43418 -3.69444,-2.43418 -0.46035,0 -0.86565,0.0797 -1.2476,0.18929 0.0333,0.34869 0.0333,0.68077 -0.0167,1.02946 z"
       id="path362"
       style="fill:#42210b;stroke-width:1.66417"
       inkscape:connector-curvature="0" />
    <path
       d="m 452.73485,456.17044 c -4.20315,2.53215 -17.12452,-4.39681 -17.12452,3.84554 0,0.87837 -1.11083,1.2968 -1.7313,1.83477 -1.0241,-0.42506 -2.23334,-0.45993 -3.48762,0.17435 -3.68443,1.86466 -8.71321,0.1428 -12.60279,-0.24574 -4.06639,-0.40847 -8.01602,-0.30884 -12.00401,-0.82025 -4.99709,-2.3246 -9.2236,-6.02569 -12.15246,-10.75458 -2.34009,-3.77414 -2.9222,-8.26726 -3.00559,-12.60263 -0.10008,-5.25026 1.18088,-4.06306 4.52673,-1.40472 4.32158,3.43044 7.3722,8.09126 11.89226,11.33075 5.92945,4.25235 11.78051,8.20582 18.70404,10.50551 5.11718,1.69861 23.64776,-13.82304 3.0573,-8.84177 -4.31824,1.04441 -8.3496,-3.14318 -12.20249,-5.35819 -0.28855,-0.69074 -0.76558,-1.33664 -1.50614,-1.85802 -18.03854,-12.71885 -13.5852,-37.82946 -13.69528,-57.56694 0.37528,-0.0946 0.29022,-0.65753 0.59211,-0.83851 -0.0267,-2.02572 0.14344,-4.08465 0.1718,-6.12199 0.003,-0.31382 0.045,-5.64378 0.10007,-5.92274 -0.62046,-0.44333 -1.40939,2.82107 -2.38178,2.82107 -0.17347,0 -0.71054,-0.88999 -0.87399,-0.72727 -0.71387,-0.69904 -1.25595,1.13075 -2.32341,1.27023 -4.84698,0.6376 -8.2045,2.08051 -10.63632,6.4823 -1.54783,2.80113 -1.83805,6.16183 -3.16238,9.06426 -1.80135,3.94683 -5.77433,6.24486 -9.40539,8.25231 -0.0984,0.0548 -0.1718,0.12287 -0.26187,0.18099 -1.03577,-0.49979 -2.45184,-0.66251 -3.57601,0.45661 -3.03061,3.017 -5.49413,5.94765 -5.30232,10.74295 0.0901,2.22497 1.26428,4.06639 2.20833,6.07716 2.3968,5.10083 2.39846,9.62881 2.4018,15.17463 0.0133,14.36267 2.59028,26.54355 14.67602,35.63438 10.5746,7.95178 21.81471,9.93266 34.59097,11.47686 11.04829,1.33664 24.89702,4.07302 33.07149,-4.75712 18.98092,-20.42323 14.84448,-25.52073 1.48445,-17.48428 z"
       id="path364"
       style="fill:#3ca39c;stroke:#000000;stroke-width:0.416042"
       inkscape:connector-curvature="0" />
    <path
       d="m 349.52403,431.96144 c -9.84405,5.74673 -15.03295,16.12439 -10.52457,28.18572 1.11417,2.98378 9.46711,12.47975 4.15479,0.60439 -3.82621,-10.23984 -0.16179,-19.45188 8.37796,-25.26835 7.10533,2.57366 2.4852,-6.12697 -2.00151,-3.5035 z"
       id="path366"
       style="fill:#3ca39c;stroke:#000000;stroke-width:0.416042"
       inkscape:connector-curvature="0" />
    <path
       d="m 359.78173,470.30066 c -2.35343,-7.53833 -10.93487,-26.2314 -1.28263,-28.13093 2.24002,-0.44167 1.40773,-5.57902 -3.53765,-3.52176 -11.34685,4.72059 -6.14295,15.21946 0.76224,32.21391 3.50263,2.45743 5.00375,2.50724 4.05304,-0.56454 z"
       id="path368"
       style="fill:#3ca39c;stroke:#000000;stroke-width:0.416042"
       inkscape:connector-curvature="0" />
    <path
       d="m 395.72539,493.54661 c -7.15371,0.54794 -13.16989,-3.10499 -18.15363,-8.33201 -4.72522,-4.95637 -5.25395,-12.2556 -6.9202,-18.53865 -0.72054,-2.72144 -1.62622,-6.89741 -3.69777,-6.17844 -1.86641,0.64922 -5.65425,6.5869 -4.34327,8.38681 5.37571,7.37892 3.70612,16.57768 10.25437,23.44686 5.97615,6.2681 14.48588,8.73218 22.8605,9.5159 5.33734,0.49812 14.51089,-9.41461 -0.0167,-8.30213 z"
       id="path370"
       style="fill:#3ca39c;stroke:#000000;stroke-width:0.416042"
       inkscape:connector-curvature="0" />
    <path
       d="m 407.43418,344.93856 c -3.27746,-3.26274 -12.37429,4.26563 -15.46161,1.19384 -8.81829,-8.77867 -4.14978,-1.73846 -5.89609,0 -0.0917,0.0913 -0.16346,0.20423 -0.24519,0.30552 0.56209,0.74055 0.91235,1.64714 0.91235,2.63011 v 1.90949 c 0,0.46658 -0.0967,0.90991 -0.23684,1.33664 0.34359,0.25073 0.25019,0.93316 0.59545,1.17725 -0.3019,0.5662 -3.11568,20.13929 -3.55768,20.51123 -1.35601,4.31046 -2.31507,8.94471 -5.07881,12.62089 -0.46702,0.621 -1.03744,1.12909 -1.66125,1.50767 -0.40864,0.85512 -0.92736,1.54751 -1.64957,2.07553 -1.62622,3.3773 -3.82787,6.23323 -6.33309,9.08584 -0.0617,0.0697 -0.13843,0.11789 -0.20515,0.18265 0.37528,0.11623 0.77558,0.20091 1.22759,0.21088 4.64182,0.1046 8.03937,0.093 11.74048,-2.91903 3.97131,-3.23285 4.29156,-9.56239 5.56418,-14.05218 1.21091,-4.27227 11.57369,-2.56038 13.99884,-7.4221 2.1366,-4.28224 2.10491,-8.7604 3.09065,-13.3465 0.21517,-1.00124 0.0901,-1.88956 -0.25519,-2.63841 1.63456,-1.76006 5.65425,-12.15432 3.43592,-14.36268 z"
       id="path372"
       style="fill:#afe7e6;stroke-width:1.66417"
       inkscape:connector-curvature="0" />
    <path
       d="m 404.64558,284.32529 -7.00674,5.31874 -7.67855,-5.77166 -8.25726,12.13253 7.37128,8.18857 1.9587,12.88943 8.40892,1.22639 8.75849,-17.59857 8.60291,-5.63099 z m -7.34069,11.97972 c 2.47122,2.79579 1.55478,9.42841 -1.0871,12.28259 -2.86492,-4.74916 -1.28375,-8.34023 1.0871,-12.28259 z"
       id="path4006"
       style="fill:#000063;fill-opacity:1;stroke:#000000;stroke-width:1.66417;stroke-linecap:butt;stroke-linejoin:miter;stroke-miterlimit:4;stroke-dasharray:none;stroke-opacity:1"
       inkscape:connector-curvature="0" />
    <path
       d="m 410.2196,329.91503 c -0.82228,-0.80531 -1.34101,-1.91779 -1.34101,-3.13322 V 326.463 c 0,-0.34536 0.0517,-0.68077 0.13177,-1.00621 -1.13085,-2.8825 -3.27579,-4.87501 -5.43074,-7.02028 -5.36403,-5.33993 -14.35578,-4.56119 -18.82914,-0.0681 -0.22684,0.0183 -0.59044,0.90825 -0.80227,0.96637 -1.04245,0.28559 -1.94646,0.97965 -2.49187,1.90783 -0.62047,1.05437 -0.58878,2.039 -0.42032,3.19798 0,0.003 0.002,0.008 0.002,0.0133 -0.035,0.083 -0.0734,0.16604 -0.10508,0.2474 -0.18514,0.48983 -0.18013,1.03777 -0.23017,1.55582 -0.06,0.60606 0.0717,1.18056 0.32191,1.70526 -0.39196,0.65919 -0.93737,1.16562 -1.60621,1.67371 -0.50871,0.38522 -1.12417,0.60605 -1.76632,0.73889 -0.29689,0.4068 -0.73889,0.73889 -1.34435,0.92817 -0.78392,0.24409 -1.55283,0.53134 -2.32174,0.82357 -0.0467,0.24907 -0.90234,0.11623 -0.90901,0.37526 -2.29506,0.38024 -3.7178,1.45785 -5.69261,2.71314 -1.80636,1.14901 -0.1351,4.02487 1.6846,2.86755 0.0684,-0.0432 0.1401,-0.0731 0.20849,-0.11457 0.23851,0.17435 0.51205,0.31216 0.86898,0.34205 2.06822,0.17102 4.01135,-0.21586 5.89109,-0.88169 0.0901,0.0681 0.19014,0.11955 0.28522,0.17933 0.13343,-0.1345 0.27687,-0.26235 0.43199,-0.37692 0.37361,-0.27563 0.82562,-0.42673 1.26261,-0.57949 0.54208,-0.18929 1.10583,-0.13283 1.61288,0.078 0.16512,-0.0349 0.33358,-0.0548 0.50538,-0.0564 0.5771,-0.008 1.14586,0.0249 1.70962,0.10627 0.36027,-0.0515 0.70052,-0.0399 1.01242,0.17268 0.98908,-0.24906 2.07656,1.80156 1.66792,0.80531 0.91068,2.21998 0.2652,2.50558 1.83638,4.58277 3.4159,4.51968 7.06197,7.88702 13.5485,10.06882 2.58528,0.87006 5.54917,0.42341 6.84681,-1.78662 3.00226,-5.11411 3.7695,-13.2203 3.45259,-20.70218 z"
       id="path374"
       style="fill:#ffffff;stroke-width:1.66417"
       inkscape:connector-curvature="0" />
    <path
       d="m 382.54883,537.09956 c -0.60379,-0.96138 -1.28597,-1.8713 -2.05988,-2.87253 -0.91569,-1.18721 -2.15662,-1.68865 -3.38921,-1.72186 0.0384,0.25072 0.075,0.50477 0.0734,0.78372 -0.0167,2.86589 -0.30522,5.68197 -0.70719,8.51632 -0.0567,0.39518 -0.19682,0.75217 -0.38863,1.07928 -0.01,0.18596 -0.005,0.36695 -0.0384,0.55956 -2.39513,14.25309 -2.85047,28.14753 -7.31716,42.00211 -0.14011,0.4367 -0.34026,0.80531 -0.56042,1.14238 -0.002,0.21917 -0.02,0.44167 -0.0167,0.65753 0.0751,5.34989 8.41465,5.35653 8.33959,0 -0.0517,-3.67951 0.86399,-6.90737 2.04654,-10.3677 1.1542,-3.3773 0.72555,-7.14647 1.34101,-10.62174 1.50946,-8.51466 3.53765,-16.96788 4.35493,-25.68678 0.1668,-1.74344 -0.58377,-2.88914 -1.66792,-3.48689 z"
       id="path376"
       style="fill:#ffffff;stroke-width:1.66417"
       inkscape:connector-curvature="0" />
    <path
       d="m 426.94883,592.75702 c -1.20257,-12.12443 -3.47928,-24.09609 -3.71946,-36.2969 -0.0183,-0.91987 0.21516,-1.67371 0.59044,-2.29637 -0.0817,-0.48982 -0.16179,-0.98463 -0.24185,-1.47279 -0.22683,-0.36198 -0.41364,-0.74886 -0.49704,-1.18721 -0.71387,-3.73429 -0.21182,-7.4221 -0.35193,-11.14975 -0.0917,0.0863 -0.18514,0.14944 -0.27354,0.24574 -1.31432,1.44125 -2.57359,2.85593 -4.29655,3.80736 -0.66217,0.36529 -2.27505,0.45993 -2.72205,0.15774 -0.8473,-0.57783 -1.68293,-0.7804 -2.45351,-0.71565 0.73889,0.7887 1.20758,1.82647 1.18256,2.96054 -0.0284,1.29181 0.06,1.6571 0.3636,2.92235 0.24519,1.0195 0.49871,2.03734 0.69886,3.06846 0.01,0.0531 0.01,0.10461 0.0183,0.15941 0.0167,0.002 0.0334,0.005 0.0484,0.005 -0.002,0.25238 0.007,0.51141 0.05,0.7804 0.16512,0.99791 0.32858,2.01409 0.49537,3.02529 0.3536,0.42341 0.65215,0.9315 0.85064,1.5525 1.87641,5.8447 2.25836,12.10948 3.35585,18.13682 0.45534,2.50891 0.4937,5.13072 0.56376,7.72928 1.08581,2.85427 1.3827,5.96259 0.99574,9.05264 -0.0567,0.4533 -0.1868,0.8684 -0.35193,1.26358 1.72463,1.48276 4.64015,1.38646 6.09625,-0.28393 -0.21683,-0.4151 -0.36695,-0.89663 -0.43366,-1.44457 z"
       id="path378"
       style="fill:#ffffff;stroke-width:1.66417"
       inkscape:connector-curvature="0" />
    <path
       d="m 394.02411,322.83331 c -0.16679,0.0731 -0.25019,0.12122 0,0 z"
       id="path380"
       style="fill:#ffffff;stroke-width:1.66417"
       inkscape:connector-curvature="0" />
    <g
       id="g2629"
       transform="matrix(-0.14062531,-0.01656739,-0.01656739,0.14062531,389.24095,292.66922)">
      <path
         class="cls-1"
         d="m 309.99,181.08 c -27.36,-7.26 -57.64,-9 -82.14,-8.82 20.25087,-12.98335 41.67868,-24.03206 64,-33 l -14.32,-26.42 c -22.14825,9.26686 -43.46839,20.4003 -63.73,33.28 10,-22.07 20.88,-50.63 27.64,-82 L 221.58,56 c -10.76,53 -35,99.1 -44.92,116.5 -24.8514,19.80563 -47.45946,42.27285 -67.42,67 5.01399,-24.99756 7.63914,-50.41534 7.84,-75.91 7.83342,-3.37662 12.52749,-11.48888 11.55125,-19.96251 -0.97623,-8.47358 -7.39191,-15.30467 -15.78777,-16.81192 -8.39585,-1.50726 -16.787006,2.66565 -20.649708,10.27052 -3.862723,7.60492 -2.283516,16.84339 3.886228,22.73391 0.6,61.76 -17.87,118.5 -21.69,129.53 -11.356614,18.92321 -21.248814,38.68755 -29.59,59.12 l -18.6,56.46 c -4.407619,17.36144 -7.697699,34.98759 -9.85,52.77 -2.3,19.15 27.76,19 30,0 1.64938,-13.71464 4.066507,-27.32601 7.24,-40.77 L 62,387.14 c 9.906722,-30.55926 23.486021,-59.80311 40.44,-87.09 22.55,-6.54 66.12,-17.21 104.83,-15.36 4.18665,7.46264 12.78354,11.2824 21.12735,9.38744 8.34376,-1.89495 14.44617,-9.05304 14.99916,-17.59186 0.55299,-8.53881 -4.57517,-16.42422 -12.60482,-19.37954 -8.0297,-2.95534 -17.04746,-0.27633 -22.16169,6.58396 -30.77,-1.52 -63.57,4.07 -88.38,9.91 21.74294,-29.64381 47.38781,-56.21706 76.24,-79 22.75,-1.75 69.21,-3.49 107.84,6.69 z"
         id="path8-9"
         sodipodi:nodetypes="ccccccccccsssccccccccccsssccccc"
         style="fill:#005b2a;fill-opacity:1" />
      <path
         style="fill:#ffcc00;fill-opacity:1;stroke:none;stroke-width:1px;stroke-linecap:butt;stroke-linejoin:miter;stroke-opacity:1"
         d="m 439.29,130.99 c 0,0 -53.39822,13.53345 -101.53,21.1 0,0 -23.02914,6.68759 -45.91,-12.83 0,0 -19.19757,-20.88685 -14.32,-26.42 0,0 3.61783,-31.091156 13.50223,-44.444417 0,0 70.42811,-59.169199 88.96777,-68.395579 L 365.02,62.8 422.48,58.91 381,100.14 Z"
         id="path1053"
         sodipodi:nodetypes="cccccccccc" />
      <path
         style="fill:#ffcc00;fill-opacity:1;stroke:none;stroke-width:0.417082px;stroke-linecap:butt;stroke-linejoin:miter;stroke-opacity:1"
         d="m 276.2474,13.307288 c 0,0 -9.12481,21.085934 -18.87993,38.912868 0,0 -3.65414,9.310434 -15.92747,11.899844 0,0 -19.27399,-5.0999 -19.86,-8.12 0,0 -1.86378,-2.987324 -3.75841,-9.652503 0,0 -1.6151,-38.331021 0.0573,-46.804745 l 16.93208,20.938057 13.34471,-19.972451 3.05927,24.20049 z"
         id="path1053-1"
         sodipodi:nodetypes="cccccccccc" />
      <path
         style="fill:#ffcc00;fill-opacity:1;stroke:none;stroke-width:0.417082px;stroke-linecap:butt;stroke-linejoin:miter;stroke-opacity:1"
         d="m 354.27807,234.46314 c 0,0 -21.34613,-8.49831 -39.4533,-17.72286 0,0 -7.54414,-3.25874 -10.49477,-15.45028 0,0 2.65852,-19.53508 5.66,-20.21 0,0 2.93099,-1.95116 9.53734,-4.04174 0,0 38.26663,-2.74606 46.78604,-1.32456 l -20.42905,17.54285 20.35773,12.74925 -24.09962,3.77241 z"
         id="path1053-1-4"
         sodipodi:nodetypes="cccccccccc" />
    </g>
    <path
       d="m 384.80052,336.927 c -0.0717,-0.12619 -0.14511,-0.25072 -0.2185,-0.37525 -0.52873,-2.19841 -2.05988,-4.02985 -3.84789,-5.42129 -0.20682,-0.16106 -0.42699,-0.28891 -0.65382,-0.40016 -0.41365,-0.30552 -0.93737,-0.42839 -1.46277,-0.40017 -0.2285,-0.003 -0.46201,0.0149 -0.70886,0.0814 -0.39697,0.10792 -0.77225,0.35035 -1.08749,0.66084 -0.12009,0.01 -0.23517,0.0183 -0.3586,0.0282 -1.04578,0.083 -1.74464,0.67746 -2.10825,1.42465 -1.79134,0.70734 -3.62272,1.28351 -5.5525,1.22041 -3.22909,-0.10461 -3.21908,4.87833 0,4.98127 3.33083,0.10627 6.29139,-1.20712 9.30699,-2.40263 0.18013,0.27397 0.36861,0.54296 0.56042,0.80863 0.42031,-0.28726 0.92736,-0.45828 1.46777,-0.46492 0.84396,-0.0116 1.67625,-0.007 2.49354,0.2474 1.25093,0.3902 2.06321,1.58737 1.88474,2.87088 0.65049,-0.7804 0.75057,-1.89289 0.26687,-2.86424 z"
       id="path382"
       style="fill:#f7931e;stroke-width:1.66417"
       inkscape:connector-curvature="0" />
    <path
       d="m 363.41143,500.39476 c -6.22952,9.58388 -47.07052,53.29565 -54.99715,56.96042 -10.75854,6.48396 -51.52989,3.00691 -38.78885,-43.97052 20.10198,-32.69546 52.55937,-50.16867 56.52439,-54.11587 7.22162,7.18749 37.12802,41.04028 37.12802,41.04028 z"
       id="path384"
       style="fill:url(#linearGradient10218);fill-opacity:1;stroke:#000000;stroke-width:1.69499"
       inkscape:connector-curvature="0"
       sodipodi:nodetypes="cccccc" />
    <path
       d="m 297.55668,543.06049 c -3.88792,0 -9.00175,-1.24698 -11.69378,-4.74549 -2.96889,-3.85883 -3.39421,-10.90402 -1.23926,-19.9716 11.6771,-18.13516 38.82081,-41.74475 48.84,-48.5143 5.99784,6.40426 13.79202,14.84254 20.53876,22.17996 -12.06073,13.01607 -46.15299,46.51847 -51.95234,50.1714 l -0.38196,0.17435 -0.42532,0.25571 c -0.46201,0.16604 -1.74297,0.44831 -3.67776,0.44831 z"
       id="path386"
       style="fill:none;stroke:#745c40;stroke-width:1.66417;stroke-opacity:1"
       inkscape:connector-curvature="0" />
    <path
       d="m 297.55668,539.73964 c -2.95054,0 -7.09032,-0.90161 -9.04512,-3.44372 -2.24168,-2.91405 -2.51689,-8.95966 -0.76891,-16.63912 10.59295,-16.15262 33.82373,-37.03413 45.27232,-45.43588 5.35736,5.74175 11.51698,12.41334 16.44735,17.76821 -14.18899,15.00526 -43.67946,43.69077 -49.03014,47.27729 l -0.33025,0.15276 -0.18181,0.10793 c -0.37694,0.0664 -1.17588,0.19925 -2.35843,0.19925 z"
       id="path388"
       style="fill:none;stroke:#745c40;stroke-width:1.66417;stroke-opacity:1"
       inkscape:connector-curvature="0" />
    <path
       d="m 297.55668,536.41879 c -2.3601,0 -5.31565,-0.73557 -6.39647,-2.14195 -1.1542,-1.49936 -1.89809,-5.8696 -0.29355,-13.30499 9.39539,-14.05384 29.28199,-32.66554 41.75468,-42.29103 4.06806,4.3719 8.43133,9.09415 12.28089,13.27012 -15.33818,16.0065 -40.97076,40.71695 -46.09628,44.39479 -0.29355,0.0332 -0.71053,0.0664 -1.25093,0.0664 z"
       id="path390"
       style="fill:none;stroke:#745c40;stroke-width:1.66417;stroke-opacity:1"
       inkscape:connector-curvature="0" />
    <path
       d="m 297.55668,533.09794 c -1.85639,0 -3.46093,-0.58613 -3.79952,-0.89829 -0.30522,-0.50643 -1.04078,-3.58154 0.24185,-9.9144 8.88667,-13.02936 26.78011,-29.84448 38.2704,-39.09139 2.69369,2.90076 5.45243,5.88621 8.05605,8.70727 -14.63599,15.10821 -36.74759,36.41977 -42.74376,41.19681 h -0.0167 z"
       id="path392"
       style="fill:none;stroke:#745c40;stroke-width:1.66417;stroke-opacity:1"
       inkscape:connector-curvature="0" />
    <path
       d="m 296.63266,529.57784 c -0.0684,-1.1457 -0.0284,-3.08507 0.50871,-5.97089 7.6741,-11.01028 22.74541,-25.81463 34.81281,-35.84526 1.26761,1.36653 2.5369,2.7397 3.7845,4.09129 -13.5068,13.83134 -32.31092,31.96318 -39.10602,37.74146 z"
       id="path394"
       style="fill:none;stroke:#745c40;stroke-width:1.66417;stroke-opacity:1"
       inkscape:connector-curvature="0" />
    <path
       d="m 366.17186,336.11677 c -0.17813,4.86572 14.64567,-1.77837 17.96316,1.52256 2.67034,2.65834 6.72838,34.27449 -8.52974,53.27474 -15.25812,19.00024 -10.74974,17.94587 -10.74974,23.48837 0,5.5425 -2.78375,5.5425 -2.78375,8.31375 -6.49488,0 -31.41359,-1.1872 -35.92197,36.5526 36.31893,40.11422 35.52333,39.32385 36.58413,40.37822 3.84455,-1.71522 3.97632,-0.65919 6.89184,-0.65919 2.25336,4.22247 7.95431,20.45312 7.95431,32.06614 0,11.61301 -5.03879,39.58287 -8.48304,55.41669 -5.03211,7.3507 -15.64174,-2.90243 -22.93222,35.23256 0.86065,2.96884 1.65958,3.5915 3.84456,0 2.25002,-3.69943 -0.84397,-18.84251 11.60871,-16.317 0.35694,9.32661 -0.61546,10.87911 0.69219,14.39755 2.30673,3.29926 2.61363,0.3354 3.47427,-1.51099 1.72296,-8.5761 -1.36936,-14.86413 3.13736,-14.86413 2.76708,-1.07263 5.74264,8.6641 5.74264,18.1634 0.36528,3.06846 3.44592,4.74881 3.44592,-3.96012 0,-8.70893 0.39697,-22.56352 -3.44592,-26.3908 2.65033,-6.86253 10.55793,-57.26972 12.03904,-61.49218 1.48112,-4.22246 2.27671,-16.09783 7.57903,-16.09783 5.43574,5.41133 6.62997,21.90433 19.08766,29.55889 2.38512,7.6529 8.6148,35.49657 8.6148,51.5944 -10.20599,13.59224 -15.50831,20.45311 -15.50831,27.578 7.95597,-3.43044 7.68577,-7.91857 11.13336,-11.34901 8.7499,0 5.56918,5.26189 5.56918,12.91479 1.85473,1.31838 3.04562,-6.70978 7.42057,-11.06341 5.83272,0.79202 3.71279,-0.79535 3.71279,11.06341 3.44592,-7.10828 3.97632,-21.62372 0,-25.58217 -3.97632,-3.95846 -3.97632,-0.52636 -7.42224,-3.95846 0,-5.5425 -8.22117,-68.61541 -3.84455,-83.26368 9.01343,3.43044 3.08398,1.22041 11.79719,2.77125 7.04529,1.25362 9.6756,3.03526 12.72455,0 0,-7.38889 -9.8107,-19.79227 -11.13502,-23.75238 4.10975,-4.09129 17.49646,-13.98908 23.06398,-15.57147 5.56751,-1.58238 1.98816,-8.31209 4.24152,-10.55532 9.14519,-1.97757 5.30064,-2.11704 11.66542,8.97294 1.67292,2.9157 -0.13343,-0.65919 5.83104,5.27849 6.27972,0 7.15538,-2.1104 9.01344,-7.6529 2.85381,-8.51134 0.37028,-31.66431 -8.21784,-31.66431 -40.82732,0 -38.73575,-3.98336 -44.00804,-8.18092 -5.27229,-4.19755 -30.88485,-2.15855 -35.88361,-25.77145 -0.83395,-3.94019 -1.66791,-41.16859 3.53933,-48.65378 6.09791,-11.08334 5.76433,-28.9545 0.90901,-35.09973 -4.41331,-5.58567 -12.39597,-11.05677 -23.4426,-1.58405 -4.2632,3.65626 -0.31523,7.6529 -2.96722,10.29298 -4.55381,2.73107 -9.34697,1.12994 -14.00519,6.16355 z"
       id="path396"
       style="fill:none;stroke:#000000;stroke-width:1.66417"
       inkscape:connector-curvature="0"
       sodipodi:nodetypes="ccssccccsccccccccscsccccccccscccccsccccssccsccc" />
    <path
       d="m 394.29098,326.89804 c -0.32024,-0.54628 -0.85898,-0.77542 -1.42274,-0.77376 0.0484,-0.24741 0.0584,-0.49979 -0.008,-0.73889 -0.25352,-0.91656 -1.16254,-1.34163 -2.05154,-1.16064 -1.84138,0.37526 -3.37253,1.1706 -3.52431,3.22123 -0.12176,1.66374 1.14586,2.37108 2.61363,2.56369 1.34434,0.17767 2.60028,-0.27065 3.79285,-0.84183 0.81728,-0.3902 1.03411,-1.53756 0.60045,-2.2698 z"
       id="path398"
       inkscape:connector-curvature="0"
       style="stroke-width:1.66417" />
    <path
       d="m 463.31823,464.06834 c 8.97819,5.89374 49.91773,44.53199 53.35271,52.03404 6.07493,10.17917 2.81832,48.74978 -41.18586,36.69678 C 444.859,533.77853 428.491,503.07189 424.7944,499.32424 c 6.71029,-6.83234 38.51194,-35.26097 38.51194,-35.26097 z"
       id="path400"
       style="fill:url(#linearGradient11286);fill-opacity:1;stroke:#000000;stroke-width:1.69499"
       inkscape:connector-curvature="0" />
    <path
       d="m 501.42141,529.16273 c 0.0584,2.3495 -0.60713,5.30838 -1.9915,6.41921 -1.47777,1.18554 -5.84772,2.03568 -13.35336,0.62265 -14.34744,-9.00116 -33.53184,-28.33017 -43.50599,-40.50441 4.28822,-4.15604 8.92336,-8.61428 13.02144,-12.55115 16.45402,14.86745 41.90646,39.76386 45.72766,44.77336 0.0334,0.24907 0.0667,0.66417 0.0834,1.21211 z"
       id="path406"
       style="fill:none;stroke:#745c40;stroke-width:1.66417;stroke-opacity:1"
       inkscape:connector-curvature="0" />
    <path
       d="m 498.08557,529.24575 c 0.0467,1.8464 -0.50204,3.45867 -0.80561,3.80238 -0.50204,0.31548 -3.57268,1.12576 -9.96248,0.007 -13.30498,-8.51964 -30.63466,-25.90928 -40.20685,-37.11549 2.84714,-2.75298 5.776,-5.57238 8.54475,-8.23405 15.53333,14.19166 37.48481,35.66428 42.43019,41.51562 v 0.0332 z"
       id="path408"
       style="fill:none;stroke:#745c40;stroke-width:1.66417;stroke-opacity:1"
       inkscape:connector-curvature="0" />
    <path
       d="m 494.56626,530.24201 c -1.1492,0.098 -3.09733,0.1046 -6.00784,-0.35865 -11.24678,-7.36233 -26.48822,-21.994 -36.86268,-33.75479 1.34268,-1.29513 2.68869,-2.59192 4.01468,-3.86713 12.88484,12.69438 26.63558,24.67566 38.85584,37.98057 z"
       id="path410"
       style="fill:none;stroke:#745c40;stroke-width:1.66417;stroke-opacity:1"
       inkscape:connector-curvature="0"
       sodipodi:nodetypes="ccccc" />
    <path
       d="m 504.75724,529.07971 c 0.0734,2.93729 -0.73054,7.08005 -3.23242,9.08917 -2.87049,2.30301 -8.93338,2.72642 -16.6892,1.1789 -16.48404,-10.14022 -38.03022,-32.74026 -46.75177,-43.92489 5.63257,-5.47442 12.17915,-11.77075 17.43309,-16.81014 15.42158,13.74666 44.95876,42.38235 48.69323,47.61933 l 0.16179,0.32544 0.11341,0.17601 c 0.10008,0.34869 0.25019,1.14569 0.28355,2.32459 z"
       id="path404"
       style="fill:none;stroke:#745c40;stroke-width:1.66417;stroke-opacity:1"
       inkscape:connector-curvature="0" />
    <path
       d="m 508.09308,528.99669 c 0.0984,3.87045 -1.02744,8.9912 -4.47502,11.75581 -3.80119,3.05186 -10.8665,3.64961 -20.02671,1.73016 -18.50055,-11.173 -42.88386,-37.59867 -49.93082,-47.40182 6.28305,-6.12697 14.5626,-14.09369 21.76301,-20.99275 13.37171,11.68109 47.85926,44.77834 51.67213,50.45866 l 0.18514,0.37526 0.26686,0.41842 c 0.18347,0.44832 0.50038,1.72684 0.55042,3.65294 z"
       id="path402"
       style="fill:none;stroke:#745c40;stroke-width:1.66417;stroke-opacity:1"
       inkscape:connector-curvature="0" />
  </g>
</svg>
