<?xml version="1.0" standalone="no"?>
<!DOCTYPE svg PUBLIC "-//W3C//DTD SVG 20010904//EN"
 "http://www.w3.org/TR/2001/REC-SVG-20010904/DTD/svg10.dtd">
<svg version="1.0" xmlns="http://www.w3.org/2000/svg"
 width="1280.000000pt" height="1040.000000pt" viewBox="0 0 1280.000000 1040.000000"
 preserveAspectRatio="xMidYMid meet">
<metadata>
Created by potrace 1.15, written by Peter Selinger 2001-2017
</metadata>
<g transform="translate(0.000000,1040.000000) scale(0.100000,-0.100000)"
fill="#000000" stroke="none">
<path d="M3299 10376 c-19 -13 -47 -42 -62 -65 -15 -23 -31 -41 -36 -41 -5 0
-21 -24 -34 -54 -14 -30 -34 -59 -46 -65 -11 -7 -25 -29 -31 -52 -6 -23 -24
-53 -39 -68 -34 -31 -51 -62 -51 -90 0 -14 -13 -27 -39 -41 -22 -11 -43 -24
-46 -30 -5 -8 -11 -7 -21 1 -11 9 -21 9 -40 0 -38 -17 -48 -14 -67 19 -27 44
-66 42 -92 -7 -11 -20 -20 -46 -20 -57 0 -24 39 -24 -1004 -5 -310 6 -566 7
-569 4 -4 -4 -10 -102 -14 -218 -4 -117 -9 -223 -10 -235 l-3 -24 -207 2
c-195 1 -207 0 -201 -17 10 -26 43 -47 82 -53 28 -4 38 -13 63 -60 45 -81 100
-150 120 -150 9 0 34 -20 55 -45 20 -25 46 -48 58 -51 11 -4 35 -22 53 -40 18
-19 39 -34 46 -34 19 0 46 -33 46 -57 0 -27 41 -65 59 -53 8 4 20 6 27 3 19
-7 54 -67 54 -92 0 -12 16 -43 36 -70 30 -40 43 -50 76 -54 36 -5 108 -56 131
-93 9 -16 -8 -63 -35 -91 -12 -13 -18 -29 -14 -40 3 -10 2 -24 -3 -32 -5 -8
-3 -24 8 -42 12 -21 13 -31 5 -39 -9 -9 -155 -7 -558 6 -300 9 -548 15 -550
13 -14 -18 -396 -745 -396 -754 0 -7 9 -23 19 -37 13 -15 21 -46 24 -88 3 -36
8 -78 12 -93 6 -21 2 -39 -12 -65 -32 -59 -38 -134 -13 -182 17 -34 19 -46 10
-86 -11 -50 -34 -99 -57 -126 -13 -14 -12 -21 5 -55 23 -43 105 -117 174 -156
71 -39 169 -107 208 -142 84 -77 213 -140 370 -180 36 -9 84 -25 106 -36 23
-10 61 -21 85 -24 24 -4 73 -13 109 -21 52 -12 79 -13 135 -4 188 30 212 27
420 -41 108 -36 115 -41 231 -143 50 -45 114 -101 143 -125 l53 -44 74 6 c52
4 83 1 102 -8 50 -24 97 -37 157 -45 95 -12 159 -31 177 -51 9 -11 60 -40 112
-65 52 -25 103 -55 113 -67 21 -25 76 -47 120 -47 17 0 47 -7 66 -15 20 -8 48
-15 62 -15 20 0 25 5 25 25 0 14 2 25 5 25 28 0 134 -46 150 -65 19 -22 29
-24 210 -34 105 -6 209 -14 233 -17 42 -6 42 -6 42 25 0 21 6 34 18 38 27 9
62 45 62 63 0 9 -11 31 -25 50 -14 19 -25 39 -25 46 0 17 48 5 63 -16 21 -30
52 -33 70 -7 8 12 16 32 18 42 6 29 32 29 66 1 16 -14 41 -28 56 -31 23 -6 27
-13 27 -42 0 -25 7 -43 25 -59 21 -19 25 -32 25 -79 0 -44 3 -55 16 -55 9 0
35 -14 58 -32 22 -17 43 -33 45 -35 3 -2 -11 -18 -31 -36 -19 -17 -38 -42 -42
-55 -6 -17 -15 -22 -41 -22 -30 0 -35 4 -43 33 -5 20 -18 37 -35 45 -15 7 -30
24 -33 38 -9 35 -42 51 -63 30 -16 -17 -48 -98 -58 -147 -5 -30 13 -46 152
-135 71 -46 197 -169 266 -261 22 -29 65 -71 97 -94 31 -23 104 -90 162 -148
104 -104 136 -150 232 -331 33 -64 176 -213 231 -241 50 -26 134 -106 141
-134 3 -13 19 -28 37 -35 50 -21 274 -248 288 -292 13 -41 19 -43 69 -29 29 9
33 8 30 -7 -3 -14 -13 -16 -57 -14 -51 4 -53 3 -45 -20 4 -13 15 -29 25 -36
25 -18 26 -57 2 -47 -10 4 -40 10 -68 12 -44 4 -54 1 -84 -24 l-34 -29 43 -22
c24 -11 47 -19 51 -16 5 3 18 -5 29 -16 14 -14 31 -20 53 -18 18 1 38 -2 45
-6 16 -9 11 -94 -5 -100 -23 -9 -15 -46 12 -56 25 -9 35 -30 15 -30 -6 0 -15
-11 -20 -25 -10 -26 -38 -33 -57 -14 -16 16 -47 -33 -38 -61 4 -11 4 -39 0
-60 -6 -37 -9 -40 -41 -40 -40 0 -41 -4 -14 -48 13 -22 20 -50 20 -85 0 -62
40 -152 72 -163 24 -7 57 -77 58 -122 0 -42 41 -86 70 -77 12 4 58 -7 111 -25
66 -23 100 -30 125 -26 21 5 34 3 34 -4 0 -6 11 -15 25 -20 14 -5 25 -16 25
-23 0 -7 14 -26 31 -43 38 -35 79 -98 79 -120 0 -9 8 -27 19 -40 l19 -24 12
33 c20 55 26 62 54 65 25 3 27 7 24 40 -3 34 -1 37 25 40 21 3 27 8 23 19 -4
9 4 25 19 39 45 42 19 75 -31 39 -34 -23 -36 -5 -4 22 25 20 28 28 20 44 -6
10 -17 19 -26 19 -8 0 -41 13 -73 29 -40 21 -62 39 -70 59 -7 16 -30 46 -52
68 -30 29 -39 46 -39 72 0 30 2 33 23 26 12 -4 39 -8 60 -9 24 0 42 -7 48 -17
5 -8 42 -32 82 -52 55 -28 78 -46 92 -72 10 -20 30 -42 44 -49 30 -15 93 -78
155 -151 24 -30 25 -33 11 -60 -8 -16 -15 -38 -15 -48 0 -11 -7 -27 -16 -37
-15 -16 -14 -21 6 -57 15 -26 36 -46 61 -58 22 -9 44 -23 50 -30 8 -10 16 -9
39 4 27 16 30 15 69 -6 23 -13 49 -22 59 -19 9 2 33 -4 52 -14 20 -10 52 -20
72 -24 27 -5 39 -14 51 -41 13 -26 23 -34 43 -34 15 0 78 -31 146 -73 105 -64
125 -80 170 -141 39 -54 54 -85 64 -135 17 -82 18 -138 2 -148 -17 -10 -58
-93 -58 -115 0 -9 -4 -20 -10 -23 -22 -14 -10 -54 25 -81 26 -19 35 -34 35
-55 0 -53 74 -86 146 -65 40 11 70 4 118 -29 20 -14 38 -25 40 -25 2 0 6 17
10 38 4 26 0 56 -12 89 -24 67 -40 86 -68 79 -18 -5 -25 1 -42 34 -11 22 -16
40 -11 40 4 0 9 10 11 22 2 13 10 24 20 26 23 4 57 -35 51 -59 -4 -14 0 -19
14 -19 11 0 28 -6 38 -14 16 -11 24 -11 51 0 35 15 57 3 35 -19 -17 -17 -13
-41 9 -55 15 -9 20 -23 20 -60 0 -26 -4 -53 -9 -61 -12 -18 34 -87 65 -98 11
-5 44 -34 72 -66 50 -55 52 -59 52 -115 0 -68 11 -82 61 -82 55 0 57 17 19
168 -12 48 5 59 105 67 75 7 93 5 142 -14 l56 -22 24 22 c12 13 23 28 23 35 0
19 21 28 30 14 5 -8 2 -24 -8 -38 -15 -23 -15 -25 2 -38 16 -11 111 -10 125 2
2 2 -1 15 -7 29 -8 17 -20 25 -36 25 -18 0 -24 4 -20 15 8 19 28 19 57 1 28
-18 67 -5 67 24 0 34 19 22 26 -17 4 -22 2 -43 -5 -55 -9 -15 -7 -27 10 -61
21 -39 23 -41 32 -20 7 17 20 22 60 25 29 2 57 -2 66 -9 9 -7 46 -13 83 -13
69 0 64 3 150 -69 12 -11 14 -19 7 -32 -6 -12 -5 -20 1 -24 6 -4 8 -15 5 -25
-3 -10 0 -20 9 -23 8 -3 12 -14 10 -25 -3 -10 2 -24 10 -31 9 -8 16 -21 16
-31 0 -10 7 -20 15 -24 9 -3 15 -18 15 -35 0 -17 5 -41 11 -55 10 -21 15 -23
36 -15 35 13 36 12 29 -27 l-7 -35 34 6 c24 5 37 2 46 -9 8 -9 26 -16 42 -16
15 0 31 -4 34 -10 3 -5 19 -10 34 -10 15 0 32 -5 37 -10 15 -15 43 -2 58 29
14 26 14 120 1 154 -6 14 -2 17 23 17 33 0 47 13 57 53 12 48 23 39 23 -17 -1
-44 -5 -59 -24 -77 -18 -17 -21 -26 -14 -40 6 -10 10 -33 10 -52 0 -36 33 -77
62 -77 19 0 27 -19 19 -43 -4 -10 -3 -46 1 -80 4 -34 8 -68 8 -74 -2 -111 3
-134 35 -159 17 -13 44 -24 60 -24 17 0 46 -3 65 -6 29 -5 42 0 78 29 30 23
51 32 67 29 49 -9 99 41 107 108 3 23 7 25 53 24 28 -1 62 -5 77 -9 20 -5 31
-2 47 14 13 13 34 21 54 21 41 0 80 26 74 50 -2 9 0 25 5 34 7 12 5 24 -5 39
-8 12 -17 36 -21 53 -7 32 -71 98 -123 125 -17 9 -49 41 -71 70 -22 30 -51 65
-65 79 -13 14 -27 39 -31 55 -4 19 -20 39 -41 54 -32 22 -42 40 -35 66 2 6 7
48 11 93 4 46 12 89 18 95 6 6 44 14 84 18 84 8 217 50 254 79 14 11 35 20 46
20 11 0 37 15 58 32 50 43 100 82 113 88 31 15 86 53 86 59 0 4 -6 16 -14 26
-12 16 -16 17 -29 6 -21 -17 -71 -10 -75 10 -2 10 9 21 28 29 29 12 30 14 24
60 -9 70 22 119 78 120 39 0 78 20 78 41 0 12 14 20 53 29 28 7 64 21 79 31
23 16 45 20 120 20 154 0 173 -3 176 -28 2 -12 12 -25 22 -28 11 -3 48 -25 82
-49 35 -23 79 -48 98 -56 19 -7 54 -31 77 -52 24 -21 48 -38 55 -38 7 0 19 -9
26 -20 9 -14 19 -18 39 -15 47 9 78 -15 81 -60 9 -151 12 -161 53 -201 21 -21
39 -42 39 -47 0 -10 30 -36 42 -37 16 0 18 60 4 95 -18 43 -22 130 -5 120 6
-4 10 -21 9 -39 -4 -67 -4 -67 43 -60 62 10 77 20 77 55 0 18 4 28 10 24 6 -3
10 -16 10 -29 0 -12 7 -31 15 -42 13 -17 14 -17 15 -1 0 20 11 22 29 5 10 -11
12 -1 9 50 -1 34 -1 62 2 62 3 0 10 -16 17 -36 13 -45 1 -90 -28 -97 -10 -3
-19 -13 -19 -22 0 -10 -10 -33 -21 -52 -20 -31 -26 -35 -55 -30 -24 4 -37 0
-50 -14 -9 -10 -23 -19 -31 -19 -7 0 -13 -2 -13 -5 0 -10 48 -81 64 -94 26
-21 21 -66 -9 -79 -36 -17 -66 -15 -80 4 -8 11 -19 14 -33 10 -26 -9 -29 -41
-7 -82 8 -16 15 -36 15 -45 0 -16 27 -49 97 -120 34 -34 35 -38 24 -69 -15
-45 -14 -52 8 -45 15 5 21 0 26 -24 3 -16 15 -37 26 -47 10 -9 19 -23 19 -29
0 -7 7 -18 15 -25 8 -7 15 -21 15 -31 0 -10 8 -24 18 -31 10 -7 29 -28 42 -45
13 -18 32 -36 43 -39 19 -6 20 -25 3 -65 -6 -14 3 -19 44 -29 28 -7 64 -23 79
-36 l28 -23 27 82 c29 85 57 127 87 127 25 0 28 31 11 104 -15 62 -15 68 1 83
16 16 19 15 47 -12 24 -23 30 -37 30 -71 0 -53 19 -71 53 -52 13 7 46 25 73
39 27 15 73 47 102 70 50 41 53 46 48 78 -3 19 -1 53 5 75 10 38 16 44 80 75
69 33 69 34 54 57 -8 13 -15 43 -15 67 0 35 -8 54 -40 98 -23 30 -48 58 -58
62 -28 13 -60 69 -68 116 -9 54 -34 81 -75 81 l-31 0 23 38 c12 20 31 53 41
72 10 19 25 38 33 43 39 22 6 79 -62 107 -42 17 -65 36 -97 76 -35 46 -46 54
-73 54 -18 0 -42 8 -52 17 -11 10 -27 24 -35 31 -9 7 -16 27 -16 44 0 47 -38
94 -105 129 -33 18 -73 43 -88 56 -16 12 -32 23 -36 23 -4 0 -32 22 -62 50
-34 32 -63 50 -79 50 -14 0 -45 9 -69 20 -24 11 -49 20 -55 20 -7 0 -33 13
-59 30 -26 16 -60 30 -75 30 -15 0 -44 8 -63 18 -29 15 -54 18 -125 15 -122
-5 -162 -6 -214 -3 -25 1 -69 -1 -99 -5 -58 -8 -78 4 -60 37 7 13 22 18 53 18
29 0 52 7 67 20 41 33 11 42 -124 36 -114 -6 -120 -5 -162 19 -57 34 -133 43
-167 21 -24 -15 -26 -15 -52 5 -33 26 -63 20 -111 -22 -24 -22 -34 -37 -30
-50 4 -11 -5 -29 -27 -52 -18 -19 -41 -46 -51 -61 -10 -14 -25 -26 -33 -26
-30 0 -155 -71 -191 -110 -41 -43 -115 -70 -195 -70 -30 0 -50 -8 -78 -30 -21
-16 -46 -30 -56 -30 -11 0 -28 -7 -39 -16 -11 -8 -35 -19 -55 -24 -26 -8 -45
-25 -77 -70 -25 -35 -52 -61 -65 -64 -13 -3 -40 -8 -60 -11 -23 -3 -42 -14
-48 -25 -8 -15 -21 -20 -56 -20 -25 0 -58 -6 -72 -14 -15 -8 -53 -19 -84 -26
-48 -9 -62 -9 -87 5 -18 9 -52 15 -83 14 -63 -2 -141 36 -167 82 -9 16 -23 32
-32 36 -36 17 -89 94 -89 128 0 24 -7 39 -26 54 -34 27 -46 26 -72 -2 -20 -21
-21 -25 -6 -45 8 -12 22 -22 30 -22 8 0 14 -7 14 -15 0 -9 18 -33 40 -54 63
-60 52 -120 -15 -79 -39 23 -41 23 -57 -9 -18 -36 -36 -40 -48 -9 -10 28 -38
34 -58 14 -10 -10 -21 -8 -55 9 -23 12 -54 26 -69 32 -22 8 -28 17 -28 41 0
17 -5 41 -11 52 -8 15 -8 23 1 32 8 8 21 5 50 -12 39 -22 90 -30 90 -13 0 5
-5 33 -12 61 l-12 52 -35 -6 c-20 -3 -46 -6 -58 -6 -13 0 -23 -6 -23 -14 0
-18 -46 -26 -82 -14 -40 14 -54 43 -33 74 8 13 20 24 26 24 7 0 8 7 4 18 -4 9
-7 31 -6 48 2 48 -15 87 -35 76 -12 -7 -29 4 -69 45 -36 35 -62 53 -78 53 -18
0 -27 7 -31 25 -12 48 -41 66 -94 60 -26 -3 -52 -2 -59 2 -6 5 -20 31 -30 58
-16 42 -23 51 -47 53 -19 2 -33 13 -44 34 -10 17 -29 46 -44 63 -16 18 -28 41
-28 50 0 24 -67 85 -93 85 -32 0 -64 25 -72 57 -3 16 -35 57 -69 93 -77 79
-110 144 -146 287 -6 23 -28 64 -49 90 -28 36 -46 75 -66 144 -38 130 -52 155
-94 175 -80 37 -98 66 -135 218 -30 123 -28 170 9 210 13 14 26 43 30 66 7 44
40 70 88 70 35 0 41 34 16 83 -16 31 -20 54 -17 106 3 62 2 66 -19 69 -18 3
-23 -2 -23 -17 0 -24 -22 -28 -40 -6 -9 11 -9 27 0 72 22 109 23 139 5 167
-17 26 -17 27 9 47 14 11 26 26 26 33 0 6 9 29 20 51 22 44 25 67 10 96 -7 12
-7 25 -1 37 6 11 5 30 -4 55 -11 33 -11 45 4 86 9 27 24 56 34 65 24 25 30 58
18 102 -7 26 -7 42 0 49 16 16 26 -10 32 -93 5 -68 3 -80 -14 -98 -29 -30 -40
-81 -33 -146 6 -55 7 -56 30 -46 13 6 26 19 29 29 3 10 14 21 25 24 44 14 56
67 25 105 -9 10 -15 74 -19 190 -3 96 -10 204 -15 240 -6 41 -7 80 -1 105 14
58 12 131 -4 168 -15 36 -10 91 10 123 8 11 17 41 20 67 6 40 3 50 -20 77 -29
35 -30 39 -16 60 9 13 11 13 20 0 5 -8 10 -21 10 -27 0 -7 4 -13 9 -13 9 0 41
116 41 150 0 11 6 31 14 43 7 12 16 39 19 61 6 35 4 38 -16 33 -12 -2 -30 -8
-39 -12 -25 -10 -33 18 -19 66 15 51 41 52 66 2 l18 -38 8 33 c4 19 23 51 44
72 31 32 70 108 60 118 -2 2 -17 -4 -34 -13 -44 -22 -54 -11 -26 30 13 20 26
53 30 75 4 22 16 50 26 62 l20 23 -4 -71 c-4 -61 -1 -73 14 -82 10 -7 21 -12
23 -12 10 0 17 41 26 150 9 105 8 124 -9 171 -31 87 -49 142 -58 174 -10 35
-37 44 -64 19 -23 -21 -23 -16 -3 47 13 39 19 47 30 39 21 -19 47 4 74 64 20
43 33 59 62 72 25 11 34 20 28 28 -5 6 -34 39 -64 74 -30 35 -58 76 -61 92 -4
18 -19 37 -40 50 -19 12 -37 29 -40 39 -6 19 -22 24 -123 41 -29 5 -64 18 -79
30 -29 23 -45 25 -74 9 -20 -10 -19 -11 5 -30 13 -10 31 -19 39 -19 9 0 18 -8
21 -18 3 -9 16 -22 28 -27 13 -6 24 -19 26 -29 4 -17 0 -18 -36 -12 -22 3 -47
8 -55 11 -9 4 -18 -4 -27 -24 -10 -26 -16 -29 -44 -26 -40 4 -106 22 -113 29
-12 11 21 57 44 62 26 7 28 12 9 37 -10 12 -27 17 -65 17 -37 0 -53 4 -57 15
-4 8 -13 15 -21 15 -9 0 -30 9 -48 20 l-33 21 11 -36 c5 -19 8 -37 6 -39 -2
-2 -29 -6 -59 -7 l-55 -4 -5 37 c-3 20 -15 48 -27 62 -24 27 -29 51 -14 61 5
3 12 -4 16 -15 4 -13 15 -20 32 -20 24 0 25 2 21 48 l-3 47 47 0 c38 0 51 -5
64 -23 16 -24 232 -137 242 -127 5 5 -112 118 -168 160 -14 11 -74 67 -133
125 -60 58 -116 109 -125 114 -29 17 -161 7 -203 -15 -46 -23 -63 -24 -79 -4
-7 8 -27 15 -46 15 -23 0 -34 5 -39 19 -5 18 -48 36 -63 27 -14 -8 -97 40
-109 64 -18 37 -33 41 -117 34 -64 -5 -89 -12 -128 -36 -45 -28 -56 -30 -180
-35 l-133 -5 -70 32 c-92 42 -227 89 -293 102 -54 10 -122 4 -122 -11 0 -12
40 -37 73 -45 68 -16 8 -46 -94 -46 -68 0 -69 -1 -91 -35 -15 -22 -31 -35 -45
-35 -12 0 -41 -10 -63 -21 -39 -20 -43 -21 -80 -6 -22 8 -42 12 -45 8 -14 -23
-125 -50 -210 -51 -175 -2 -228 1 -256 16 -17 8 -57 14 -101 14 -48 0 -81 5
-94 14 -13 10 -25 11 -35 5 -8 -5 -32 -9 -54 -9 -22 0 -49 -7 -59 -15 -19 -14
-76 -21 -76 -9 0 3 5 14 11 25 6 12 8 37 4 60 l-7 39 -59 0 c-33 0 -67 -4 -77
-9 -9 -5 -44 -17 -77 -26 -86 -25 -125 -43 -132 -60 -3 -9 -21 -22 -39 -30
-19 -8 -43 -29 -55 -49 -22 -38 -24 -38 -79 5 -19 16 -52 35 -74 44 -21 9 -65
43 -97 76 -33 32 -65 59 -72 59 -7 0 -28 11 -47 25 -39 29 -65 32 -74 9 -9
-25 -8 -30 20 -57 19 -20 23 -30 16 -44 -6 -10 -18 -37 -28 -59 -19 -42 -44
-50 -44 -14 0 10 -12 23 -29 30 -16 6 -39 22 -51 35 -12 13 -45 30 -72 37 -57
14 -78 41 -59 77 7 12 44 59 84 104 40 46 83 100 97 120 14 20 33 37 43 37 10
0 27 5 37 10 14 8 21 6 28 -5 13 -24 38 -9 66 38 13 23 38 55 55 71 17 17 31
39 31 50 0 12 9 36 20 54 11 18 20 41 20 51 0 10 13 38 30 62 16 24 30 54 30
67 0 12 7 39 16 60 57 126 67 206 39 298 -23 75 -19 160 11 245 40 114 40 127
4 181 -30 45 -30 47 -16 89 8 23 12 55 9 70 -4 21 0 31 19 43 34 22 65 82 77
147 6 30 13 67 17 82 5 20 2 31 -10 40 -16 12 -16 16 3 57 11 25 21 64 21 87
0 30 7 50 26 72 21 25 23 34 14 52 -11 19 -17 20 -67 14 -35 -4 -65 -2 -84 6
-27 10 -32 9 -54 -11 -21 -20 -25 -21 -25 -6 0 10 -13 23 -32 30 l-31 14 26
17 c27 18 27 40 -1 63 -21 16 -22 16 -63 -12z m3558 -2668 c-3 -8 -6 -5 -6 6
-1 11 2 17 5 13 3 -3 4 -12 1 -19z m-2237 -2033 c0 -23 -27 -72 -42 -77 -7 -3
-28 1 -46 9 -30 13 -34 12 -58 -12 -22 -22 -25 -32 -23 -90 2 -56 -1 -68 -25
-100 -36 -47 -50 -52 -92 -31 -19 9 -50 16 -70 16 -25 0 -49 11 -88 40 -29 22
-60 40 -69 40 -14 0 -17 10 -17 55 0 47 -4 60 -26 81 -20 21 -24 32 -19 55 l7
29 284 0 c250 0 284 -2 284 -15z m2560 -2410 c0 -9 -60 -35 -82 -35 -13 0 -34
9 -48 20 l-25 20 78 0 c42 0 77 -2 77 -5z m176 -3 c-6 -10 -82 -9 -92 1 -4 4
16 7 45 7 29 0 50 -4 47 -8z m624 -1319 l0 -216 -26 24 c-48 45 -57 74 -50
163 4 45 7 100 6 123 -1 43 39 123 60 123 6 0 10 -81 10 -217z m-1 -505 c0
-45 -2 -49 -10 -29 -9 22 -4 81 7 81 2 0 4 -24 3 -52z m-1 -459 c0 -116 -3
-208 -6 -205 -3 4 -4 31 -3 61 3 72 -21 144 -65 190 -18 20 -34 40 -34 45 0 8
98 120 105 120 2 0 4 -95 3 -211z m992 -112 c0 -5 -4 -5 -10 -2 -5 3 -10 14
-10 23 0 15 2 15 10 2 5 -8 10 -19 10 -23z m-1020 -67 c0 -11 -4 -20 -10 -20
-5 0 -10 9 -10 20 0 11 5 20 10 20 6 0 10 -9 10 -20z"/>
<path d="M8465 2079 c-5 -13 2 -33 19 -59 14 -22 26 -46 26 -55 0 -17 16 -20
25 -5 14 23 46 10 61 -25 15 -37 21 -37 68 -2 18 13 18 15 -10 40 -16 15 -32
27 -36 27 -4 0 -33 23 -63 50 -60 55 -80 61 -90 29z"/>
<path d="M11142 1220 c-7 -12 -8 -20 -2 -20 5 0 10 -11 10 -25 0 -34 35 -53
50 -26 16 30 12 68 -7 75 -10 3 -23 8 -28 11 -6 3 -16 -4 -23 -15z"/>
<path d="M11025 1159 c-9 -26 8 -39 53 -39 39 0 41 12 6 39 -34 27 -51 27 -59
0z"/>
<path d="M11217 1148 c-9 -18 -18 -58 -21 -88 -3 -45 0 -60 16 -80 12 -14 23
-20 25 -14 10 29 33 48 59 49 27 2 28 4 27 51 -1 27 1 39 4 27 5 -26 11 -28
37 -8 21 16 13 35 -15 35 -11 0 -23 10 -28 24 -6 15 -20 25 -41 30 -46 9 -45
9 -63 -26z"/>
<path d="M11052 1048 c-17 -17 -16 -98 1 -98 7 0 26 13 42 30 l29 30 -24 25
c-27 28 -31 30 -48 13z"/>
<path d="M8490 939 c-13 -23 -14 -22 18 -38 24 -13 27 -6 16 37 -8 28 -20 28
-34 1z"/>
<path d="M8426 838 c-21 -29 -20 -33 8 -46 20 -9 27 -7 41 8 21 23 11 60 -15
60 -10 0 -26 -10 -34 -22z"/>
<path d="M8924 395 c-3 -8 -15 -17 -27 -21 -28 -9 -86 -72 -94 -102 -4 -17 -2
-23 5 -18 12 7 80 -62 120 -120 19 -29 29 -34 61 -34 22 0 44 -6 51 -15 28
-33 88 -2 75 39 -4 12 -9 39 -11 60 -2 22 -6 42 -9 44 -2 2 -19 -1 -36 -7 -27
-9 -36 -9 -48 4 -14 14 -14 19 2 47 16 28 16 33 3 40 -9 5 -16 16 -16 24 0 23
-39 74 -56 74 -8 0 -17 -7 -20 -15z"/>
<path d="M8897 109 c-24 -14 -22 -55 2 -62 20 -5 51 20 51 41 0 18 -33 32 -53
21z"/>
</g>
</svg>
