<svg version="1.1" id="Layer_1" xmlns="http://www.w3.org/2000/svg" xmlns:xlink="http://www.w3.org/1999/xlink" x="0px" y="0px"
	 width="100%" viewBox="0 0 1488 992" enable-background="new 0 0 1488 992" xml:space="preserve">
<path fill="#2153CC" opacity="1.000000" stroke="none" 
	d="
M1.000000,250.000000 
	C1.000000,167.017532 1.000000,84.035065 1.000000,1.026299 
	C496.877686,1.026299 992.755371,1.026299 1489.000000,1.026299 
	C1489.000000,83.693169 1489.000000,166.386887 1488.531494,249.557648 
	C1324.015625,250.042679 1159.968140,250.050644 995.625244,249.905045 
	C968.558716,222.866669 938.366699,200.675751 904.409912,183.696503 
	C836.981567,149.980698 765.920837,138.804504 691.431030,150.025467 
	C638.928833,157.934280 590.862244,177.369965 546.888672,207.042984 
	C528.188904,219.661499 511.261688,234.413834 494.601929,250.048233 
	C382.046265,250.043777 269.963806,250.056610 157.881378,250.053253 
	C105.587585,250.051682 53.293793,250.018738 1.000000,250.000000 
z"/>
<path fill="#F48D00" opacity="1.000000" stroke="none" 
	d="
M1.000000,991.000000 
	C1.000000,908.312439 1.000000,825.624878 1.465839,742.412292 
	C4.264019,741.872253 6.596360,741.844116 8.928701,741.844055 
	C167.042236,741.841980 325.155762,741.842651 483.269287,741.838013 
	C485.767365,741.837952 488.265442,741.774780 491.063629,741.935547 
	C510.308777,761.712341 530.983582,779.260864 553.995728,793.856873 
	C629.903625,842.003357 712.412415,859.517212 801.282227,845.917175 
	C852.882446,838.020752 900.114563,818.709534 943.398865,789.594421 
	C964.072021,775.688660 982.654175,759.328735 1000.665161,741.776123 
	C1161.249023,741.823242 1321.379028,741.831970 1481.509155,741.848633 
	C1484.006104,741.848877 1486.503052,741.947327 1489.000000,742.000000 
	C1489.000000,824.687561 1489.000000,907.375122 1488.552368,990.531372 
	C992.403137,991.000000 496.701569,991.000000 1.000000,991.000000 
z"/>
<path fill="#5E72E0" opacity="1.000000" stroke="none" 
	d="
M1.000000,250.468658 
	C53.293793,250.018738 105.587585,250.051682 157.881378,250.053253 
	C269.963806,250.056610 382.046265,250.043777 494.458984,250.350052 
	C482.407074,265.437500 469.071838,279.525177 457.825745,295.119476 
	C427.210724,337.571655 407.460724,384.934875 398.904114,436.566193 
	C395.570984,456.678772 394.830261,477.220978 392.446899,497.585632 
	C389.322052,497.626221 386.659027,497.668243 383.995972,497.668304 
	C258.818268,497.671539 133.640579,497.669189 8.462875,497.684784 
	C5.975237,497.685120 3.487625,497.890381 1.000000,498.000000 
	C1.000000,415.645782 1.000000,333.291534 1.000000,250.468658 
z"/>
<path fill="#5E72E0" opacity="1.000000" stroke="none" 
	d="
M995.920654,250.058624 
	C1159.968140,250.050644 1324.015625,250.042679 1488.531494,250.017349 
	C1489.000000,332.354218 1489.000000,414.708466 1488.540771,497.425781 
	C1485.752563,497.749603 1483.423584,497.676117 1481.094482,497.676025 
	C1356.253296,497.670471 1231.411987,497.671722 1106.570801,497.666962 
	C1103.741577,497.666840 1100.912231,497.605347 1097.997070,497.149536 
	C1096.278320,477.996490 1095.687744,459.104675 1092.812012,440.567322 
	C1085.046387,390.507568 1066.371582,344.528839 1038.403809,302.304657 
	C1025.947021,283.498047 1011.354797,266.438690 995.920654,250.058624 
z"/>
<path fill="#66BB6A" opacity="1.000000" stroke="none" 
	d="
M1.000000,498.468658 
	C3.487625,497.890381 5.975237,497.685120 8.462875,497.684784 
	C133.640579,497.669189 258.818268,497.671539 383.995972,497.668304 
	C386.659027,497.668243 389.322052,497.626221 392.526672,498.086487 
	C393.998596,512.679443 394.348846,526.856445 395.963501,540.888000 
	C401.813477,591.724731 418.666168,638.832764 445.176025,682.533936 
	C458.172668,703.958740 473.619843,723.505066 490.763519,741.741089 
	C488.265442,741.774780 485.767365,741.837952 483.269287,741.838013 
	C325.155762,741.842651 167.042236,741.841980 8.928701,741.844055 
	C6.596360,741.844116 4.264019,741.872253 1.465839,741.943604 
	C1.000000,660.979126 1.000000,579.958191 1.000000,498.468658 
z"/>
<path fill="#66BB6A" opacity="1.000000" stroke="none" 
	d="
M1098.083008,497.572449 
	C1100.912231,497.605347 1103.741577,497.666840 1106.570801,497.666962 
	C1231.411987,497.671722 1356.253296,497.670471 1481.094482,497.676025 
	C1483.423584,497.676117 1485.752563,497.749603 1488.540771,497.894440 
	C1489.000000,579.020874 1489.000000,660.041809 1489.000000,741.531311 
	C1486.503052,741.947327 1484.006104,741.848877 1481.509155,741.848633 
	C1321.379028,741.831970 1161.249023,741.823242 1000.803467,741.500244 
	C1013.203796,725.402466 1027.012695,710.365784 1038.417725,693.685486 
	C1065.983398,653.369385 1084.021851,608.784790 1091.940430,560.564148 
	C1095.351807,539.790833 1096.116211,518.582947 1098.083008,497.572449 
z"/>
<path fill="#2153CC" opacity="1.000000" stroke="none" 
	d="
M0.999998,991.500000 
	C496.701569,991.000000 992.403137,991.000000 1488.552368,991.000000 
	C1488.666626,991.666687 1488.452026,992.783691 1487.976074,992.909058 
	C1486.885132,993.196533 1485.666626,993.000000 1484.500000,993.000000 
	C991.500000,993.000000 498.500000,993.000916 5.500003,992.958862 
	C3.999970,992.958740 2.499995,992.333374 0.999998,991.500000 
z"/>
<path fill="#FEFEFD" opacity="1.000000" stroke="none" 
	d="
M1097.997070,497.149536 
	C1096.116211,518.582947 1095.351807,539.790833 1091.940430,560.564148 
	C1084.021851,608.784790 1065.983398,653.369385 1038.417725,693.685486 
	C1027.012695,710.365784 1013.203796,725.402466 1000.349792,741.462524 
	C982.654175,759.328735 964.072021,775.688660 943.398865,789.594421 
	C900.114563,818.709534 852.882446,838.020752 801.282227,845.917175 
	C712.412415,859.517212 629.903625,842.003357 553.995728,793.856873 
	C530.983582,779.260864 510.308777,761.712341 491.063629,741.935547 
	C473.619843,723.505066 458.172668,703.958740 445.176025,682.533936 
	C418.666168,638.832764 401.813477,591.724731 395.963501,540.888000 
	C394.348846,526.856445 393.998596,512.679443 392.988464,498.068298 
	C394.830261,477.220978 395.570984,456.678772 398.904114,436.566193 
	C407.460724,384.934875 427.210724,337.571655 457.825745,295.119476 
	C469.071838,279.525177 482.407074,265.437500 494.932220,250.360733 
	C511.261688,234.413834 528.188904,219.661499 546.888672,207.042984 
	C590.862244,177.369965 638.928833,157.934280 691.431030,150.025467 
	C765.920837,138.804504 836.981567,149.980698 904.409912,183.696503 
	C938.366699,200.675751 968.558716,222.866669 995.625244,249.905045 
	C1011.354797,266.438690 1025.947021,283.498047 1038.403809,302.304657 
	C1066.371582,344.528839 1085.046387,390.507568 1092.812012,440.567322 
	C1095.687744,459.104675 1096.278320,477.996490 1097.997070,497.149536 
M465.829681,677.649475 
	C486.008301,709.048340 510.539124,736.596802 540.101929,759.358826 
	C617.941528,819.291809 705.914001,842.038330 802.462463,825.301208 
	C899.872681,808.414673 975.811951,756.845520 1027.913330,672.682251 
	C1077.641846,592.351990 1090.280518,505.323547 1066.711304,413.843719 
	C1047.081421,337.654358 1004.706787,275.967529 941.104004,229.806107 
	C871.959412,179.622513 794.343384,159.039291 709.120667,167.861923 
	C661.272644,172.815369 616.799561,188.076279 575.695129,212.636734 
	C517.027832,247.691330 472.951935,296.342621 444.090240,358.404877 
	C416.604523,417.508301 407.594482,479.572937 416.353424,544.061646 
	C422.855438,591.933228 439.531097,636.236755 465.829681,677.649475 
z"/>
<path fill="#FFDE4E" opacity="1.000000" stroke="none" 
	d="
M465.629883,677.346558 
	C439.531097,636.236755 422.855438,591.933228 416.353424,544.061646 
	C407.594482,479.572937 416.604523,417.508301 444.090240,358.404877 
	C472.951935,296.342621 517.027832,247.691330 575.695129,212.636734 
	C616.799561,188.076279 661.272644,172.815369 709.120667,167.861923 
	C794.343384,159.039291 871.959412,179.622513 941.104004,229.806107 
	C1004.706787,275.967529 1047.081421,337.654358 1066.711304,413.843719 
	C1090.280518,505.323547 1077.641846,592.351990 1027.913330,672.682251 
	C975.811951,756.845520 899.872681,808.414673 802.462463,825.301208 
	C705.914001,842.038330 617.941528,819.291809 540.101929,759.358826 
	C510.539124,736.596802 486.008301,709.048340 465.629883,677.346558 
M578.852661,330.302002 
	C577.645142,327.037476 576.864075,323.509399 575.070679,320.606873 
	C573.989258,318.856689 571.022034,316.814301 569.467529,317.197388 
	C567.683105,317.637146 565.578796,320.480560 565.292480,322.515991 
	C564.721863,326.573273 564.724121,330.904144 565.508484,334.923187 
	C567.959961,347.483765 570.230469,360.139008 573.740051,372.423615 
	C589.944336,429.144165 605.646606,486.032074 623.226440,542.329834 
	C646.108398,615.607361 670.578918,688.389099 694.437195,761.360840 
	C695.511963,764.648071 696.898438,767.984253 698.879456,770.771912 
	C700.224426,772.664490 702.864075,773.636963 704.924744,775.020935 
	C705.738281,772.829224 707.375122,770.569092 707.200012,768.459473 
	C706.790710,763.530273 705.942566,758.543335 704.514954,753.808044 
	C694.585693,720.874023 684.364197,688.028198 674.426453,655.096680 
	C660.647827,609.437561 647.035706,563.728149 633.960327,517.628479 
	C640.902344,513.757935 647.519958,509.071686 654.843140,506.159729 
	C684.827026,494.236908 716.541321,491.054688 748.357544,490.171478 
	C787.920227,489.073212 827.090942,486.901184 865.093018,474.161865 
	C891.788330,465.212830 914.995178,451.655579 933.032043,429.744263 
	C937.635620,424.151825 939.073425,418.113770 937.469055,411.144043 
	C933.254456,392.834930 929.611206,374.376770 924.805786,356.225372 
	C918.165527,331.143494 910.790588,306.232117 898.995667,282.951019 
	C896.840820,278.697723 893.998596,274.671234 890.865234,271.069366 
	C887.752686,267.491394 884.029419,267.584351 881.512878,270.996857 
	C874.317322,280.753998 864.479004,287.193909 854.437622,293.514587 
	C811.096191,320.796417 764.237915,330.051819 713.853943,320.948853 
	C698.153931,318.112274 682.678833,313.788391 666.894775,311.710083 
	C635.502747,307.576660 605.912231,313.291016 578.852661,330.302002 
z"/>
<path fill="#BE0100" opacity="1.000000" stroke="none" 
	d="
M579.142761,331.001892 
	C605.912231,313.291016 635.502747,307.576660 666.894775,311.710083 
	C682.678833,313.788391 698.153931,318.112274 713.853943,320.948853 
	C764.237915,330.051819 811.096191,320.796417 854.437622,293.514587 
	C864.479004,287.193909 874.317322,280.753998 881.512878,270.996857 
	C884.029419,267.584351 887.752686,267.491394 890.865234,271.069366 
	C893.998596,274.671234 896.840820,278.697723 898.995667,282.951019 
	C910.790588,306.232117 918.165527,331.143494 924.805786,356.225372 
	C929.611206,374.376770 933.254456,392.834930 937.469055,411.144043 
	C939.073425,418.113770 937.635620,424.151825 933.032043,429.744263 
	C914.995178,451.655579 891.788330,465.212830 865.093018,474.161865 
	C827.090942,486.901184 787.920227,489.073212 748.357544,490.171478 
	C716.541321,491.054688 684.827026,494.236908 654.843140,506.159729 
	C647.519958,509.071686 640.902344,513.757935 633.521362,517.520813 
	C632.036987,514.444824 630.845581,511.518921 629.968445,508.501648 
	C620.496155,475.916138 611.004456,443.335907 601.658569,410.714050 
	C594.054321,384.171661 586.640808,357.574677 579.142761,331.001892 
z"/>
<path fill="#241E19" opacity="1.000000" stroke="none" 
	d="
M578.997681,330.651947 
	C586.640808,357.574677 594.054321,384.171661 601.658569,410.714050 
	C611.004456,443.335907 620.496155,475.916138 629.968445,508.501648 
	C630.845581,511.518921 632.036987,514.444824 633.217407,517.726685 
	C647.035706,563.728149 660.647827,609.437561 674.426453,655.096680 
	C684.364197,688.028198 694.585693,720.874023 704.514954,753.808044 
	C705.942566,758.543335 706.790710,763.530273 707.200012,768.459473 
	C707.375122,770.569092 705.738281,772.829224 704.924744,775.020935 
	C702.864075,773.636963 700.224426,772.664490 698.879456,770.771912 
	C696.898438,767.984253 695.511963,764.648071 694.437195,761.360840 
	C670.578918,688.389099 646.108398,615.607361 623.226440,542.329834 
	C605.646606,486.032074 589.944336,429.144165 573.740051,372.423615 
	C570.230469,360.139008 567.959961,347.483765 565.508484,334.923187 
	C564.724121,330.904144 564.721863,326.573273 565.292480,322.515991 
	C565.578796,320.480560 567.683105,317.637146 569.467529,317.197388 
	C571.022034,316.814301 573.989258,318.856689 575.070679,320.606873 
	C576.864075,323.509399 577.645142,327.037476 578.997681,330.651947 
z"/>
</svg>