<svg version="1.1" id="Layer_1" xmlns="http://www.w3.org/2000/svg" xmlns:xlink="http://www.w3.org/1999/xlink" x="0px" y="0px"
	 width="100%" viewBox="0 0 1488 992" enable-background="new 0 0 1488 992" xml:space="preserve">
<path fill="#3360B1" opacity="1.000000" stroke="none" 
	d="
M814.000000,993.000000 
	C542.666687,993.000000 271.833344,993.000000 1.000000,993.000000 
	C1.000000,662.333313 1.000000,331.666656 1.000000,1.000000 
	C497.000000,1.000000 993.000000,1.000000 1489.000000,1.000000 
	C1489.000000,331.666656 1489.000000,662.333313 1489.000000,993.000000 
	C1264.166626,993.000000 1039.333374,993.000000 814.000000,993.000000 
M627.559753,825.947449 
	C659.406006,838.449524 692.498169,845.460083 726.528442,848.200012 
	C770.178650,851.714355 813.094116,847.160095 854.900146,834.413940 
	C923.123047,813.613708 980.829895,776.136841 1025.562134,720.498474 
	C1093.920654,635.473389 1119.045288,538.439514 1099.302612,431.088013 
	C1084.662598,351.481903 1045.732544,284.838593 984.704102,231.380234 
	C945.518555,197.055267 900.755371,172.932556 850.764771,158.409225 
	C807.523315,145.846664 763.361633,141.978378 718.716675,146.390533 
	C667.725098,151.429916 619.784180,166.806778 575.557556,192.994141 
	C512.868408,230.113541 465.578766,281.478363 434.661591,347.470734 
	C406.149139,408.330383 395.897797,472.293671 403.844818,539.154663 
	C408.445984,577.866089 418.991058,614.857239 436.164398,649.764709 
	C477.043030,732.856812 540.708801,791.501160 627.559753,825.947449 
z"/>
<path fill="#FFFFFF" opacity="1.000000" stroke="none" 
	d="
M627.193420,825.817566 
	C540.708801,791.501160 477.043030,732.856812 436.164398,649.764709 
	C418.991058,614.857239 408.445984,577.866089 403.844818,539.154663 
	C395.897797,472.293671 406.149139,408.330383 434.661591,347.470734 
	C465.578766,281.478363 512.868408,230.113541 575.557556,192.994141 
	C619.784180,166.806778 667.725098,151.429916 718.716675,146.390533 
	C763.361633,141.978378 807.523315,145.846664 850.764771,158.409225 
	C900.755371,172.932556 945.518555,197.055267 984.704102,231.380234 
	C1045.732544,284.838593 1084.662598,351.481903 1099.302612,431.088013 
	C1119.045288,538.439514 1093.920654,635.473389 1025.562134,720.498474 
	C980.829895,776.136841 923.123047,813.613708 854.900146,834.413940 
	C813.094116,847.160095 770.178650,851.714355 726.528442,848.200012 
	C692.498169,845.460083 659.406006,838.449524 627.193420,825.817566 
M919.715210,333.073090 
	C926.349609,307.633118 918.311768,285.440002 904.636536,263.247284 
	C903.807068,266.157745 903.321838,267.875854 902.827820,269.591461 
	C898.985413,282.935577 894.084229,295.828522 885.936768,307.214600 
	C870.175354,329.241425 847.614136,334.580139 822.346924,332.358246 
	C797.512756,330.174500 773.695251,323.045288 749.808350,316.404938 
	C723.213806,309.011932 696.953064,300.352844 669.264221,297.464508 
	C640.833069,294.498657 622.400146,306.065674 613.685486,333.300110 
	C608.354126,349.961456 606.854980,367.201416 606.826416,384.577271 
	C606.821777,387.397125 607.661011,390.544891 609.066406,392.991943 
	C632.780762,434.283752 656.645325,475.489227 680.481262,516.711182 
	C683.029602,521.118103 685.607361,525.508118 688.171448,529.905945 
	C689.006714,528.133484 688.949463,526.555115 689.015503,524.981873 
	C689.756653,507.310852 691.195618,489.732849 697.101746,472.877411 
	C702.740906,456.783905 712.675598,444.738800 730.181091,441.522400 
	C737.921997,440.100098 746.314880,439.384247 753.955505,440.803802 
	C774.850098,444.685699 795.674255,449.227020 816.208130,454.700958 
	C843.741882,462.040894 871.318970,467.986725 899.971985,464.022858 
	C927.513733,460.212708 949.074951,447.069305 962.537354,422.075745 
	C970.063354,408.103394 974.028931,393.025787 975.956055,377.388916 
	C976.870850,369.966583 977.255737,362.478973 977.880676,355.020935 
	C955.255432,386.079742 898.182068,400.041077 878.893921,388.664795 
	C882.935120,384.538544 886.850769,380.506409 890.803528,376.510895 
	C903.070251,364.111542 914.397095,351.086304 919.715210,333.073090 
M688.848938,579.706909 
	C721.175171,635.715881 753.637085,691.647644 785.648315,747.836060 
	C789.455688,754.519165 795.079834,756.218079 801.456299,758.668152 
	C801.507812,752.334412 801.802185,746.925171 798.571411,741.344666 
	C728.190491,619.772400 658.027771,498.073822 587.761108,376.435303 
	C586.336426,373.969025 585.887024,372.040100 586.877563,369.128326 
	C589.805237,360.521729 585.007629,351.911621 576.502075,349.567474 
	C568.260559,347.296112 559.734009,352.414215 557.767212,360.813171 
	C555.725586,369.531677 560.907104,377.193695 569.961609,379.433960 
	C571.900391,379.913666 574.182678,381.374634 575.154541,383.051331 
	C613.002502,448.350220 650.716675,513.726624 688.848938,579.706909 
z"/>
<path fill="#E67365" opacity="1.000000" stroke="none" 
	d="
M919.569641,333.453369 
	C914.397095,351.086304 903.070251,364.111542 890.803528,376.510895 
	C886.850769,380.506409 882.935120,384.538544 878.893921,388.664795 
	C898.182068,400.041077 955.255432,386.079742 977.880676,355.020935 
	C977.255737,362.478973 976.870850,369.966583 975.956055,377.388916 
	C974.028931,393.025787 970.063354,408.103394 962.537354,422.075745 
	C949.074951,447.069305 927.513733,460.212708 899.971985,464.022858 
	C871.318970,467.986725 843.741882,462.040894 816.208130,454.700958 
	C795.674255,449.227020 774.850098,444.685699 753.955505,440.803802 
	C746.314880,439.384247 737.921997,440.100098 730.181091,441.522400 
	C712.675598,444.738800 702.740906,456.783905 697.101746,472.877411 
	C691.195618,489.732849 689.756653,507.310852 689.015503,524.981873 
	C688.949463,526.555115 689.006714,528.133484 688.171448,529.905945 
	C685.607361,525.508118 683.029602,521.118103 680.481262,516.711182 
	C656.645325,475.489227 632.780762,434.283752 609.066406,392.991943 
	C607.661011,390.544891 606.821777,387.397125 606.826416,384.577271 
	C606.854980,367.201416 608.354126,349.961456 613.685486,333.300110 
	C622.400146,306.065674 640.833069,294.498657 669.264221,297.464508 
	C696.953064,300.352844 723.213806,309.011932 749.808350,316.404938 
	C773.695251,323.045288 797.512756,330.174500 822.346924,332.358246 
	C847.614136,334.580139 870.175354,329.241425 885.936768,307.214600 
	C894.084229,295.828522 898.985413,282.935577 902.827820,269.591461 
	C903.321838,267.875854 903.807068,266.157745 904.636536,263.247284 
	C918.311768,285.440002 926.349609,307.633118 919.569641,333.453369 
z"/>
<path fill="#282A2F" opacity="1.000000" stroke="none" 
	d="
M688.648621,579.399902 
	C650.716675,513.726624 613.002502,448.350220 575.154541,383.051331 
	C574.182678,381.374634 571.900391,379.913666 569.961609,379.433960 
	C560.907104,377.193695 555.725586,369.531677 557.767212,360.813171 
	C559.734009,352.414215 568.260559,347.296112 576.502075,349.567474 
	C585.007629,351.911621 589.805237,360.521729 586.877563,369.128326 
	C585.887024,372.040100 586.336426,373.969025 587.761108,376.435303 
	C658.027771,498.073822 728.190491,619.772400 798.571411,741.344666 
	C801.802185,746.925171 801.507812,752.334412 801.456299,758.668152 
	C795.079834,756.218079 789.455688,754.519165 785.648315,747.836060 
	C753.637085,691.647644 721.175171,635.715881 688.648621,579.399902 
z"/>
</svg>