<svg version="1.1" id="Layer_1" xmlns="http://www.w3.org/2000/svg" xmlns:xlink="http://www.w3.org/1999/xlink" x="0px" y="0px"
	 width="100%" viewBox="0 0 1488 992" enable-background="new 0 0 1488 992" xml:space="preserve">
<path fill="#2153CC" opacity="1.000000" stroke="none" 
	d="
M1.000000,250.000000 
	C1.000000,167.017532 1.000000,84.035065 1.000000,1.026299 
	C496.877686,1.026299 992.755371,1.026299 1489.000000,1.026299 
	C1489.000000,83.693169 1489.000000,166.386887 1488.531494,249.557266 
	C1485.730225,250.040771 1483.397217,250.053635 1481.064331,250.053650 
	C1248.933228,250.054550 1016.802063,250.050842 784.670959,250.100876 
	C782.100708,250.101425 779.530579,250.801285 776.505371,251.217087 
	C772.386597,251.084885 768.722778,250.910294 764.936340,250.624695 
	C764.456726,250.415237 764.176453,250.523758 763.529907,250.905670 
	C746.736267,251.039764 730.385620,251.107452 713.717285,250.901367 
	C710.928223,250.436554 708.456787,250.078476 705.985352,250.078201 
	C473.656616,250.052689 241.327850,250.054642 8.999111,250.052200 
	C6.332741,250.052170 3.666370,250.018158 1.000000,250.000000 
z"/>
<path fill="#000000" opacity="1.000000" stroke="none" 
	d="
M1146.000000,993.000000 
	C879.971985,993.000000 613.943909,993.000000 347.317017,992.656860 
	C346.782654,991.828552 346.847168,991.343506 347.261169,990.781982 
	C348.392487,988.460815 349.174255,986.216003 349.976593,983.979248 
	C349.997162,983.987183 349.959290,983.958557 350.312378,983.901855 
	C352.554077,980.725037 354.689911,977.725586 356.283630,974.461487 
	C360.590118,965.641602 364.665894,956.709167 368.880737,947.629333 
	C368.928253,947.437256 369.039551,947.057556 369.337158,946.943909 
	C370.072266,945.209778 370.509766,943.589355 371.066193,941.719238 
	C371.454681,940.987305 371.724213,940.504883 372.298065,939.934937 
	C373.018646,939.175903 373.434906,938.504395 373.897736,937.472351 
	C374.957794,935.079529 375.971283,933.047180 377.309967,930.896973 
	C379.999725,925.770691 382.364258,920.762146 384.781647,915.562805 
	C384.834503,915.371948 384.968445,914.999329 385.315430,914.916321 
	C389.397888,907.796021 393.250366,900.817383 396.815460,893.694824 
	C398.400665,890.527832 399.406189,887.070618 400.716064,883.457153 
	C400.840790,882.790588 400.924347,882.411987 401.330811,881.921387 
	C403.359619,878.464355 405.065552,875.119263 406.813538,871.579529 
	C406.855652,871.384827 406.972290,871.003784 407.299500,870.903931 
	C408.156525,868.851562 408.686371,866.899048 409.307495,864.762878 
	C409.533783,864.338928 409.701080,864.123657 410.257568,863.879639 
	C414.852417,860.587769 416.188354,855.922302 416.981659,850.669128 
	C417.091980,849.971436 417.159363,849.573364 417.534973,849.046997 
	C418.567139,847.617432 419.291077,846.316284 420.007507,845.007568 
	C420.000000,845.000000 420.018921,845.012878 420.354187,844.909790 
	C421.328583,843.108154 421.967743,841.409607 422.681274,839.411621 
	C423.163544,838.409668 423.571411,837.707092 424.305664,836.899597 
	C426.648743,832.445129 428.665497,828.095581 430.738647,823.395874 
	C431.573212,821.398254 432.351471,819.750732 433.439270,817.975830 
	C435.673096,813.796875 437.597351,809.745300 439.575378,805.403198 
	C439.734680,804.733337 439.840210,804.353943 440.292542,803.907349 
	C443.015869,799.229919 445.392365,794.619629 447.909637,789.681519 
	C459.911316,765.886292 471.772186,742.418823 484.034149,718.157776 
	C485.207031,719.992615 485.782623,720.745300 486.204285,721.576050 
	C489.713806,728.490173 493.189850,735.421204 496.685944,742.342163 
	C500.560120,750.011597 504.496826,757.649963 508.308685,765.350220 
	C511.449921,771.695801 514.392212,778.139893 517.524780,784.489929 
	C521.534851,792.618652 525.886169,800.588501 529.628601,808.836426 
	C531.968689,813.993652 534.334351,814.833618 538.326660,810.716858 
	C539.568848,809.435974 540.559448,807.827393 541.363098,806.218018 
	C547.997253,792.931702 554.486755,779.572754 561.166565,766.309631 
	C567.416443,753.900085 573.952820,741.634399 580.160950,729.204346 
	C585.001770,719.512024 589.380066,709.588257 594.238586,699.905212 
	C600.698303,687.031006 607.464600,674.310730 613.953918,661.450989 
	C614.424438,660.518677 613.714478,658.990784 613.614014,657.505310 
	C613.674683,657.270874 613.840393,656.815796 614.180115,656.775024 
	C616.764343,653.385010 619.199463,650.141968 621.154114,646.631470 
	C621.877502,645.332336 621.471497,643.404297 621.644897,641.534546 
	C621.709167,641.305969 621.881348,640.863281 622.216736,640.821777 
	C629.410095,631.336609 634.647339,621.098938 637.740417,609.783813 
	C637.753418,609.763184 637.788574,609.729370 638.109985,609.727295 
	C641.147705,604.146484 643.863953,598.567749 646.859802,592.748474 
	C648.944580,588.232849 650.749695,583.957886 652.642334,579.419312 
	C652.877075,578.816162 653.024170,578.476624 653.525024,578.134888 
	C655.748230,575.342346 657.875122,572.688477 659.440063,569.736633 
	C664.621216,559.963928 669.681885,550.124878 674.635559,540.234680 
	C681.214050,527.100647 687.628540,513.884583 694.153076,500.723389 
	C697.479126,494.014160 700.922119,487.362976 704.257141,480.658142 
	C708.225281,472.680206 712.320007,464.757050 715.999207,456.646545 
	C718.192017,451.812531 719.691956,446.664185 721.577759,441.455872 
	C721.652039,441.254608 721.850342,440.874084 722.185669,440.797119 
	C726.545776,436.584503 730.086853,432.225739 729.457092,425.614563 
	C729.632507,425.147705 729.710632,424.964050 730.126343,424.753845 
	C732.639343,421.906158 734.814758,419.085022 737.258484,415.916046 
	C740.277771,422.066132 742.909485,427.560577 745.658081,432.995880 
	C750.489502,442.549866 755.452942,452.037323 760.246704,461.609955 
	C764.249939,469.603973 768.018616,477.715424 772.018066,485.711365 
	C777.848694,497.368378 783.872498,508.929016 789.670471,520.601990 
	C798.192078,537.758667 806.558533,554.992371 815.062866,572.157715 
	C816.563293,575.186096 818.414429,578.040710 820.119263,581.352417 
	C822.165894,586.421997 823.972107,591.228027 826.270935,595.785583 
	C832.598694,608.330505 839.274780,620.700684 845.529602,633.280884 
	C849.049316,640.359924 851.837158,647.799866 855.258972,654.931213 
	C860.895508,666.678650 866.608643,678.397949 872.712769,689.904663 
	C873.832703,692.015808 876.796692,693.688721 879.235291,694.335632 
	C880.478271,694.665344 882.929932,692.593262 883.976990,691.031433 
	C885.818115,688.285034 886.989319,685.091492 888.460388,682.094666 
	C894.148071,670.508179 899.897949,658.951477 905.453125,647.301880 
	C906.021790,646.109436 905.441895,644.369324 905.472046,642.602539 
	C905.623657,642.142517 905.698242,641.963318 906.115173,641.768555 
	C907.758484,640.370361 909.484863,639.193604 910.274109,637.563293 
	C912.067749,633.858154 913.116394,629.785583 914.978516,626.122009 
	C919.221802,617.773315 923.811035,609.601257 928.185242,601.318176 
	C931.554321,594.938171 934.810059,588.498291 938.685669,580.980469 
	C942.295715,588.052002 945.520996,594.228149 948.618896,600.467590 
	C954.848694,613.014893 961.023682,625.589600 967.187317,638.169556 
	C968.688538,641.233459 969.966003,644.408508 971.506775,647.451172 
	C975.300659,654.943359 979.274658,662.345093 983.011841,669.864929 
	C986.468201,676.819641 989.572205,683.951050 993.087402,690.874573 
	C996.566345,697.726501 1000.583252,704.308655 1003.977783,711.199524 
	C1010.481384,724.402161 1016.655823,737.766602 1023.075073,751.011353 
	C1027.026245,759.163574 1031.054199,767.283875 1035.284302,775.293579 
	C1037.955444,780.351318 1041.063110,785.178467 1043.981812,790.482666 
	C1044.490723,792.209778 1044.895752,793.609131 1045.511841,794.908508 
	C1047.723877,799.573608 1050.007202,804.204834 1052.273926,809.156372 
	C1052.841064,809.991577 1053.397705,810.519287 1053.995361,811.264648 
	C1054.036499,811.482361 1054.116821,811.918152 1054.163818,812.220581 
	C1054.791748,813.031189 1055.372559,813.539368 1056.132812,814.311035 
	C1056.562256,815.383850 1056.812134,816.193115 1056.887085,817.234863 
	C1057.487427,818.629761 1058.262695,819.792175 1059.235352,821.235474 
	C1059.741821,822.617432 1060.051025,823.718567 1060.346436,825.124817 
	C1060.851807,825.987000 1061.370728,826.544067 1061.987793,827.386475 
	C1062.694214,828.466675 1063.302612,829.261658 1063.925781,830.405640 
	C1064.548462,831.887634 1065.156250,833.020630 1065.820679,834.488831 
	C1066.602173,836.206543 1067.327026,837.589111 1068.042969,839.330750 
	C1068.657593,840.819397 1069.281372,841.948853 1069.969482,843.356323 
	C1070.314087,844.124268 1070.594116,844.614136 1070.921021,845.427368 
	C1071.643555,846.502197 1072.319214,847.253601 1072.997437,848.002563 
	C1073.000000,848.000000 1072.994751,848.002686 1072.985718,848.382202 
	C1073.601318,850.216248 1074.225952,851.670715 1075.000122,853.394165 
	C1075.486694,854.407776 1075.823730,855.152466 1076.183105,856.252014 
	C1077.086914,858.114014 1077.968384,859.621216 1079.027100,861.380615 
	C1080.054321,862.144226 1080.904053,862.655579 1081.873657,863.414917 
	C1082.123169,864.006104 1082.252930,864.349304 1082.291504,865.076050 
	C1083.551514,869.258057 1084.902466,873.056519 1086.245605,877.202637 
	C1087.163940,878.693909 1088.090210,879.837708 1089.211182,881.256714 
	C1089.961548,883.022400 1090.516846,884.512878 1090.917236,886.192566 
	C1091.177612,886.917969 1091.593140,887.454041 1092.053955,888.213623 
	C1092.099243,888.437134 1092.172852,888.887207 1092.208984,889.192505 
	C1092.834473,889.993469 1093.423828,890.489136 1094.075195,891.290100 
	C1094.215454,892.003357 1094.293579,892.411377 1094.339111,893.187622 
	C1095.528442,895.379517 1096.750366,897.203125 1098.030273,899.251099 
	C1098.088257,899.475525 1098.195923,899.926453 1098.173096,900.300903 
	C1099.090820,902.459778 1100.031494,904.244202 1101.114746,906.215027 
	C1101.461426,906.640564 1101.689087,906.854553 1101.972900,907.367126 
	C1102.609619,908.502441 1103.213989,909.314087 1103.856934,910.501831 
	C1105.261230,913.918579 1106.626709,916.959290 1107.824585,920.249695 
	C1109.395874,923.369812 1111.134644,926.240295 1112.939697,929.453857 
	C1113.776611,931.477173 1114.547119,933.157288 1115.296997,935.197876 
	C1116.190430,937.031799 1117.104736,938.505188 1118.321777,940.034302 
	C1119.032959,940.099060 1119.441284,940.108215 1119.947021,940.287598 
	C1120.044556,940.457825 1120.186523,940.823669 1120.137695,941.218750 
	C1120.496094,943.686035 1120.903442,945.758240 1121.316406,948.139038 
	C1121.884766,948.961060 1122.447754,949.474365 1123.242798,950.248047 
	C1124.077515,952.285706 1124.680054,954.062927 1125.290527,956.148804 
	C1125.865356,956.972412 1126.432129,957.487427 1127.201904,958.299316 
	C1131.075073,966.735840 1134.532593,974.981750 1138.519043,982.963562 
	C1140.141724,986.212646 1142.913452,988.887939 1145.385254,991.951294 
	C1145.738892,992.385498 1145.869507,992.692749 1146.000000,993.000000 
z"/>
<path fill="#5E72E0" opacity="1.000000" stroke="none" 
	d="
M1.000000,250.468658 
	C3.666370,250.018158 6.332741,250.052170 8.999111,250.052200 
	C241.327850,250.054642 473.656616,250.052689 705.985352,250.078201 
	C708.456787,250.078476 710.928223,250.436554 713.377991,251.118469 
	C710.054016,252.027603 706.755127,252.474991 703.448914,252.859680 
	C659.446655,257.979736 618.011841,271.307465 578.989380,292.131500 
	C536.914551,314.584320 501.020660,344.584412 471.019287,381.622559 
	C456.971558,398.965179 444.717773,417.505890 434.330017,437.285309 
	C424.145172,456.678253 415.662201,476.770844 408.451874,497.613983 
	C405.492554,497.642181 402.995728,497.674957 400.498871,497.674988 
	C269.820587,497.677460 139.142303,497.675354 8.464032,497.690613 
	C5.976009,497.690887 3.488010,497.892395 1.000000,498.000000 
	C1.000000,415.645782 1.000000,333.291534 1.000000,250.468658 
z"/>
<path fill="#5E72E0" opacity="1.000000" stroke="none" 
	d="
M776.960388,251.174698 
	C779.530579,250.801285 782.100708,250.101425 784.670959,250.100876 
	C1016.802063,250.050842 1248.933228,250.054550 1481.064331,250.053650 
	C1483.397217,250.053635 1485.730225,250.040771 1488.531494,250.016968 
	C1489.000000,332.354218 1489.000000,414.708466 1488.540527,497.426971 
	C1445.300781,497.753235 1402.520264,497.696960 1359.739868,497.680969 
	C1267.185181,497.646332 1174.630493,497.632355 1081.896851,497.315308 
	C1081.574707,496.720551 1081.395142,496.432220 1081.293335,496.118622 
	C1041.130249,372.166992 940.458374,282.250488 813.349670,257.002289 
	C801.309143,254.610626 789.094299,253.096329 776.960388,251.174698 
z"/>
<path fill="#F48D00" opacity="1.000000" stroke="none" 
	d="
M1.000000,991.000000 
	C1.000000,908.312439 1.000000,825.624878 1.465842,742.412292 
	C91.066681,741.872314 180.201675,741.861694 269.336670,741.840759 
	C320.151642,741.828857 370.966614,741.799927 421.966461,742.112915 
	C427.150879,752.635742 432.150421,762.824280 437.147583,773.300659 
	C437.459991,773.800171 437.774841,774.011902 438.158936,774.546021 
	C439.855896,777.578857 441.483612,780.289185 443.190430,783.353394 
	C443.782410,784.557495 444.295288,785.407776 444.762146,786.633789 
	C444.225800,788.243774 443.829407,789.525635 443.230408,790.704529 
	C438.060516,800.879089 432.773407,810.994690 427.678894,821.206543 
	C421.163025,834.267395 414.844849,847.426697 408.346771,860.496460 
	C401.934204,873.394165 395.413391,886.238159 388.921814,899.096497 
	C382.195801,912.419189 375.399445,925.706543 368.725708,939.055359 
	C363.843781,948.820190 359.185944,958.697327 354.286804,968.453369 
	C350.492035,976.010193 346.478302,983.457031 342.136597,990.969482 
	C228.140823,990.990845 114.570412,990.995422 1.000000,991.000000 
z"/>
<path fill="#F48D00" opacity="1.000000" stroke="none" 
	d="
M1489.000000,742.000000 
	C1489.000000,824.687561 1489.000000,907.375122 1488.532227,990.531311 
	C1377.247559,990.999878 1266.430664,991.000427 1155.613892,990.994446 
	C1153.449707,990.994324 1151.285522,990.915527 1148.981323,990.547913 
	C1114.813232,921.995239 1080.785034,853.768188 1046.821289,785.220398 
	C1048.168091,782.787903 1049.594116,780.748962 1050.709229,778.552124 
	C1056.919922,766.315552 1063.055420,754.040771 1069.670898,741.802063 
	C1207.419922,741.830994 1344.714600,741.836182 1482.009277,741.849426 
	C1484.339478,741.849609 1486.669800,741.947571 1489.000000,742.000000 
z"/>
<path fill="#66BB6A" opacity="1.000000" stroke="none" 
	d="
M421.781586,741.778687 
	C370.966614,741.799927 320.151642,741.828857 269.336670,741.840759 
	C180.201675,741.861694 91.066681,741.872314 1.465842,741.943604 
	C1.000000,660.979126 1.000000,579.958191 1.000000,498.468658 
	C3.488010,497.892395 5.976009,497.690887 8.464032,497.690613 
	C139.142303,497.675354 269.820587,497.677460 400.498871,497.674988 
	C402.995728,497.674957 405.492554,497.642181 408.425171,498.024780 
	C399.560547,527.121704 394.682434,556.655273 393.154114,586.687195 
	C392.523102,599.086609 393.107300,611.613220 394.062225,624.010864 
	C395.171936,638.417786 396.740936,652.838257 399.098969,667.089294 
	C403.375549,692.934753 411.329071,717.759705 421.781586,741.778687 
z"/>
<path fill="#66BB6A" opacity="1.000000" stroke="none" 
	d="
M1489.000000,741.531311 
	C1486.669800,741.947571 1484.339478,741.849609 1482.009277,741.849426 
	C1344.714600,741.836182 1207.419922,741.830994 1069.724121,741.469849 
	C1070.896851,737.271362 1072.530029,733.451172 1074.034424,729.580994 
	C1082.715454,707.249512 1089.271851,684.302795 1092.822754,660.607117 
	C1094.775391,647.576660 1096.218750,634.427185 1097.009644,621.278381 
	C1097.672485,610.255859 1097.483765,599.133728 1096.897339,588.096863 
	C1096.177734,574.557861 1095.534546,560.910522 1093.252563,547.585022 
	C1090.375122,530.781433 1085.875610,514.255615 1082.075806,497.609924 
	C1174.630493,497.632355 1267.185181,497.646332 1359.739868,497.680969 
	C1402.520264,497.696960 1445.300781,497.753235 1488.540527,497.895630 
	C1489.000000,579.020874 1489.000000,660.041809 1489.000000,741.531311 
z"/>
<path fill="#5C4612" opacity="1.000000" stroke="none" 
	d="
M342.561890,990.952759 
	C346.478302,983.457031 350.492035,976.010193 354.286804,968.453369 
	C359.185944,958.697327 363.843781,948.820190 368.725708,939.055359 
	C375.399445,925.706543 382.195801,912.419189 388.921814,899.096497 
	C395.413391,886.238159 401.934204,873.394165 408.346771,860.496460 
	C414.844849,847.426697 421.163025,834.267395 427.678894,821.206543 
	C432.773407,810.994690 438.060516,800.879089 443.230408,790.704529 
	C443.829407,789.525635 444.225800,788.243774 444.959778,786.755127 
	C447.498718,782.447876 449.794037,778.395142 452.431030,774.230164 
	C453.004486,773.881409 453.316254,773.684814 453.456573,773.402832 
	C462.481049,755.266663 471.444519,737.099731 480.587097,719.023438 
	C481.375214,717.465088 483.212189,715.821411 484.808350,715.519348 
	C485.759430,715.339355 487.550873,717.506775 488.336548,718.958740 
	C490.296722,722.581299 491.815948,726.439087 493.657623,730.129822 
	C501.290924,745.427246 509.019440,760.677307 516.631042,775.985474 
	C521.641174,786.061646 526.463318,796.231506 531.511475,806.288208 
	C532.078613,807.417969 533.702637,808.913879 534.602966,808.770752 
	C535.976318,808.552429 537.663086,807.319885 538.319641,806.053040 
	C543.368530,796.310791 548.218689,786.465088 553.096130,776.634460 
	C561.957214,758.774475 570.773743,740.892456 579.648010,723.039001 
	C587.933716,706.369751 596.187744,689.683655 604.632690,673.095032 
	C607.314087,667.827820 610.563721,662.849976 613.553406,657.739746 
	C613.714478,658.990784 614.424438,660.518677 613.953918,661.450989 
	C607.464600,674.310730 600.698303,687.031006 594.238586,699.905212 
	C589.380066,709.588257 585.001770,719.512024 580.160950,729.204346 
	C573.952820,741.634399 567.416443,753.900085 561.166565,766.309631 
	C554.486755,779.572754 547.997253,792.931702 541.363098,806.218018 
	C540.559448,807.827393 539.568848,809.435974 538.326660,810.716858 
	C534.334351,814.833618 531.968689,813.993652 529.628601,808.836426 
	C525.886169,800.588501 521.534851,792.618652 517.524780,784.489929 
	C514.392212,778.139893 511.449921,771.695801 508.308685,765.350220 
	C504.496826,757.649963 500.560120,750.011597 496.685944,742.342163 
	C493.189850,735.421204 489.713806,728.490173 486.204285,721.576050 
	C485.782623,720.745300 485.207031,719.992615 484.034149,718.157776 
	C471.772186,742.418823 459.911316,765.886292 447.646423,789.860840 
	C444.810181,794.903442 442.377991,799.439026 439.945740,803.974548 
	C439.840210,804.353943 439.734680,804.733337 439.319275,805.596802 
	C437.049530,810.088379 435.089630,814.095764 433.129700,818.103210 
	C432.351471,819.750732 431.573212,821.398254 430.459229,823.570679 
	C428.075439,828.398560 426.027374,832.701538 423.979309,837.004517 
	C423.571411,837.707092 423.163544,838.409668 422.407227,839.588562 
	C421.378845,841.714233 420.698883,843.363525 420.018921,845.012878 
	C420.018921,845.012878 420.000000,845.000000 419.706665,845.151367 
	C418.684479,846.593567 417.955627,847.884460 417.226746,849.175354 
	C417.159363,849.573364 417.091980,849.971436 416.736206,850.900391 
	C414.265381,855.598694 412.082977,859.766052 409.900574,863.933411 
	C409.701080,864.123657 409.533783,864.338928 409.102203,865.064087 
	C408.194550,867.367249 407.583435,869.185547 406.972290,871.003784 
	C406.972290,871.003784 406.855652,871.384827 406.508942,871.722900 
	C404.444122,875.385010 402.725983,878.709167 401.007874,882.033325 
	C400.924347,882.411987 400.840790,882.790588 400.437958,883.632812 
	C395.068573,894.397339 390.018524,904.698364 384.968445,914.999329 
	C384.968445,914.999329 384.834503,915.371948 384.480042,915.714722 
	C381.745331,921.043274 379.365051,926.029053 376.984772,931.014832 
	C375.971283,933.047180 374.957794,935.079529 373.615662,937.588013 
	C372.855927,938.716858 372.424805,939.369629 371.993744,940.022461 
	C371.724213,940.504883 371.454681,940.987305 370.819519,941.962280 
	C369.982452,943.989136 369.510986,945.523376 369.039551,947.057556 
	C369.039551,947.057556 368.928253,947.437256 368.567200,947.765564 
	C367.648041,948.695435 366.905640,949.206482 366.559326,949.911987 
	C360.996185,961.246216 355.483459,972.605225 349.959290,983.958557 
	C349.959290,983.958557 349.997162,983.987183 349.684906,984.165344 
	C348.552307,986.515137 347.731964,988.686768 346.911621,990.858398 
	C346.847168,991.343506 346.782654,991.828552 346.859070,992.656860 
	C345.933319,993.000000 344.866669,993.000000 343.488647,992.631287 
	C342.972168,991.825989 342.767029,991.389343 342.561890,990.952759 
z"/>
<path fill="#2153CC" opacity="1.000000" stroke="none" 
	d="
M1149.121338,990.873413 
	C1151.285522,990.915527 1153.449707,990.994324 1155.613892,990.994446 
	C1266.430664,991.000427 1377.247559,990.999878 1488.532227,991.000000 
	C1488.667969,991.666687 1488.454712,992.783936 1487.979858,992.909058 
	C1486.890381,993.196411 1485.673462,993.000000 1484.508301,993.000000 
	C1372.317383,993.000000 1260.126587,993.000000 1147.499023,992.650757 
	C1147.748657,991.825500 1148.435059,991.349426 1149.121338,990.873413 
z"/>
<path fill="#2153CB" opacity="1.000000" stroke="none" 
	d="
M342.136566,990.969482 
	C342.767029,991.389343 342.972168,991.825989 343.088654,992.631287 
	C230.497314,993.000000 117.994621,993.003906 5.491951,992.958496 
	C3.994504,992.957886 2.497310,992.333313 0.999999,991.500000 
	C114.570412,990.995422 228.140823,990.990845 342.136566,990.969482 
z"/>
<path fill="#B26700" opacity="1.000000" stroke="none" 
	d="
M1148.981323,990.547852 
	C1148.435059,991.349426 1147.748657,991.825500 1147.031250,992.650757 
	C1147.000000,993.000000 1146.500000,993.000000 1146.250000,993.000000 
	C1145.869507,992.692749 1145.738892,992.385498 1145.356934,991.573730 
	C1139.770020,979.752625 1134.539795,968.384583 1129.053467,957.141479 
	C1126.341309,951.583435 1123.157104,946.255615 1120.186523,940.823669 
	C1120.186523,940.823669 1120.044556,940.457825 1119.970459,939.910278 
	C1117.396851,934.423889 1114.897095,929.485046 1112.318359,924.267639 
	C1111.811523,923.331299 1111.383789,922.673462 1110.934326,921.647095 
	C1108.756714,917.048157 1106.600952,912.817871 1104.415283,908.417847 
	C1104.385254,908.248047 1104.237305,907.933472 1104.216797,907.561157 
	C1102.207031,903.698608 1100.217773,900.208374 1098.183350,896.533936 
	C1098.138184,896.349731 1097.967651,896.010803 1097.977783,895.635742 
	C1092.786133,885.071289 1087.584351,874.881897 1082.382690,864.692444 
	C1082.252930,864.349304 1082.123169,864.006104 1081.912354,863.041504 
	C1079.038452,856.826111 1076.245483,851.231995 1073.352783,845.319641 
	C1072.309570,843.523376 1071.366211,842.045349 1070.406616,840.400574 
	C1070.390381,840.233765 1070.259766,839.925110 1070.258179,839.556946 
	C1068.968262,837.000305 1067.680054,834.811890 1066.368774,832.455261 
	C1066.345825,832.287109 1066.215332,831.973694 1066.230469,831.588379 
	C1059.204346,817.134033 1052.163208,803.065063 1045.196533,788.770752 
	C1045.444458,787.947571 1045.617798,787.349548 1045.931274,786.368225 
	C1046.299927,785.836975 1046.528442,785.689026 1046.756958,785.541077 
	C1080.785034,853.768188 1114.813232,921.995239 1148.981323,990.547852 
z"/>
<path fill="#FDFDFE" opacity="1.000000" stroke="none" 
	d="
M1046.821289,785.220398 
	C1046.528442,785.689026 1046.299927,785.836975 1045.640381,786.124390 
	C1043.170776,782.344604 1041.132324,778.425232 1039.406250,773.932861 
	C1039.887451,772.962341 1040.056152,772.564758 1040.479248,771.938843 
	C1047.652344,757.145813 1055.175415,742.832947 1061.370972,727.966919 
	C1077.049683,690.346619 1084.285645,650.827759 1085.676270,610.235474 
	C1086.495483,586.321777 1084.078003,562.534912 1079.697021,539.074890 
	C1074.232422,509.813263 1064.689697,481.739197 1051.837891,454.877319 
	C1037.834961,425.609375 1019.959412,398.791504 998.090637,374.870148 
	C979.937988,355.013733 960.083252,336.959656 937.637878,321.819275 
	C909.643921,302.936157 879.679871,288.376007 847.506042,278.180145 
	C821.451294,269.923431 794.776611,264.712433 767.571594,263.240753 
	C750.717468,262.329041 733.668213,262.792694 716.841797,264.226746 
	C699.786560,265.680328 682.700989,268.185760 665.979126,271.835999 
	C635.576477,278.472626 606.928406,290.030396 579.582153,305.013184 
	C556.937927,317.419739 536.093262,332.308655 517.115845,349.622192 
	C496.649231,368.294312 478.470215,389.107086 462.983185,412.218231 
	C450.987335,430.119446 440.572510,448.898132 432.349701,468.736511 
	C426.202881,483.566467 420.921967,498.857697 416.635101,514.325867 
	C412.767548,528.281067 410.773102,542.755310 407.662598,557.112915 
	C407.463226,558.482361 407.553894,559.739563 407.669250,561.357666 
	C407.432800,563.146118 407.171661,564.573547 406.640259,566.095947 
	C406.477081,567.126526 406.584167,568.062256 406.723877,569.409546 
	C406.456390,572.881042 406.156311,575.940918 405.589539,579.100220 
	C405.455536,580.132629 405.588196,581.065491 405.766113,582.437073 
	C406.101929,600.584534 406.392487,618.293396 406.427307,636.119568 
	C406.416138,637.157593 406.660675,638.078308 407.009827,639.406982 
	C407.590729,643.793701 408.067017,647.772400 408.290710,651.962952 
	C408.343414,653.116333 408.648743,654.057922 409.080200,655.330566 
	C409.318695,656.358093 409.431000,657.054626 409.290710,657.962952 
	C409.343445,659.116333 409.648743,660.057922 410.080200,661.330444 
	C410.318573,662.357849 410.430847,663.054199 410.290070,663.963989 
	C410.354309,665.118347 410.671600,666.059204 411.167877,667.346436 
	C412.023376,671.066467 412.699890,674.440308 413.145599,678.034180 
	C413.273560,679.169556 413.632294,680.084839 414.158966,681.321289 
	C414.638489,683.051392 414.950104,684.460266 415.026062,686.132507 
	C415.327637,687.556274 415.864807,688.716614 416.582245,690.188477 
	C417.239105,692.640198 417.715668,694.780457 417.919922,697.089966 
	C414.853119,700.507751 417.783112,701.058044 420.044495,702.339478 
	C421.834045,707.772461 423.461304,712.866089 424.895721,718.196411 
	C425.205750,719.264404 425.708588,720.095703 426.440063,721.194458 
	C428.804871,726.962830 430.941071,732.463928 432.885345,738.211304 
	C433.274811,739.260864 433.856171,740.064026 434.637115,741.134521 
	C435.911804,743.925110 436.986938,746.448242 437.844299,749.265991 
	C436.769531,755.257874 440.365112,761.735718 445.327209,763.197021 
	C447.065857,766.252319 448.549438,769.085266 449.856323,772.224854 
	C448.881958,774.148865 448.219116,775.852478 447.253021,777.362000 
	C445.998718,779.322021 444.503113,781.127563 443.111328,782.999573 
	C441.483612,780.289185 439.855896,777.578857 438.022888,774.325806 
	C437.595062,773.526367 437.372528,773.269592 437.149994,773.012817 
	C432.150421,762.824280 427.150879,752.635742 421.966461,742.112915 
	C411.329071,717.759705 403.375549,692.934753 399.098969,667.089294 
	C396.740936,652.838257 395.171936,638.417786 394.062225,624.010864 
	C393.107300,611.613220 392.523102,599.086609 393.154114,586.687195 
	C394.682434,556.655273 399.560547,527.121704 408.887634,498.014038 
	C415.662201,476.770844 424.145172,456.678253 434.330017,437.285309 
	C444.717773,417.505890 456.971558,398.965179 471.019287,381.622559 
	C501.020660,344.584412 536.914551,314.584320 578.989380,292.131500 
	C618.011841,271.307465 659.446655,257.979736 703.448914,252.859680 
	C706.755127,252.474991 710.054016,252.027603 713.695618,251.392242 
	C730.385620,251.107452 746.736267,251.039764 763.807373,250.942902 
	C764.704895,250.854385 764.881958,250.795044 765.058960,250.735718 
	C768.722778,250.910294 772.386597,251.084885 776.505371,251.217087 
	C789.094299,253.096329 801.309143,254.610626 813.349670,257.002289 
	C940.458374,282.250488 1041.130249,372.166992 1081.293335,496.118622 
	C1081.395142,496.432220 1081.574707,496.720551 1081.896851,497.315308 
	C1085.875610,514.255615 1090.375122,530.781433 1093.252563,547.585022 
	C1095.534546,560.910522 1096.177734,574.557861 1096.897339,588.096863 
	C1097.483765,599.133728 1097.672485,610.255859 1097.009644,621.278381 
	C1096.218750,634.427185 1094.775391,647.576660 1092.822754,660.607117 
	C1089.271851,684.302795 1082.715454,707.249512 1074.034424,729.580994 
	C1072.530029,733.451172 1070.896851,737.271362 1069.269775,741.446777 
	C1063.055420,754.040771 1056.919922,766.315552 1050.709229,778.552124 
	C1049.594116,780.748962 1048.168091,782.787903 1046.821289,785.220398 
z"/>
<path fill="#5E72E0" opacity="1.000000" stroke="none" 
	d="
M764.936340,250.624695 
	C764.881958,250.795044 764.704895,250.854385 764.250305,250.876495 
	C764.176453,250.523758 764.456726,250.415237 764.936340,250.624695 
z"/>
<path fill="#B19A36" opacity="1.000000" stroke="none" 
	d="
M613.614014,657.505310 
	C610.563721,662.849976 607.314087,667.827820 604.632690,673.095032 
	C596.187744,689.683655 587.933716,706.369751 579.648010,723.039001 
	C570.773743,740.892456 561.957214,758.774475 553.096130,776.634460 
	C548.218689,786.465088 543.368530,796.310791 538.319641,806.053040 
	C537.663086,807.319885 535.976318,808.552429 534.602966,808.770752 
	C533.702637,808.913879 532.078613,807.417969 531.511475,806.288208 
	C526.463318,796.231506 521.641174,786.061646 516.631042,775.985474 
	C509.019440,760.677307 501.290924,745.427246 493.657623,730.129822 
	C491.815948,726.439087 490.296722,722.581299 488.336548,718.958740 
	C487.550873,717.506775 485.759430,715.339355 484.808350,715.519348 
	C483.212189,715.821411 481.375214,717.465088 480.587097,719.023438 
	C471.444519,737.099731 462.481049,755.266663 453.456573,773.402832 
	C453.316254,773.684814 453.004486,773.881409 452.181396,774.075623 
	C451.407257,773.495300 451.224426,772.957214 451.227295,772.079895 
	C454.561920,765.745972 457.888824,759.836975 460.822601,753.738831 
	C466.855316,741.199158 472.490021,728.463379 478.763092,716.048157 
	C479.868500,713.860413 483.186646,711.882324 485.664398,711.636597 
	C487.153625,711.488831 489.237335,714.716431 490.602966,716.732605 
	C491.786682,718.480103 492.210327,720.721558 493.185120,722.635010 
	C499.257782,734.555054 505.489288,746.395020 511.478363,758.356567 
	C518.352295,772.085327 525.016907,785.918762 531.806213,799.690063 
	C532.699158,801.501221 533.792358,803.213684 535.106995,805.523987 
	C539.048523,798.370667 542.738708,792.146790 545.967102,785.692017 
	C549.810364,778.008057 553.064087,770.029053 556.914490,762.348999 
	C565.893982,744.438416 575.188477,726.685486 584.148132,708.765076 
	C593.263794,690.532776 602.033203,672.127380 611.136047,653.888550 
	C619.588257,636.953735 628.311951,620.154541 636.856812,603.265747 
	C643.750977,589.639771 650.525452,575.953247 657.413757,562.324341 
	C661.515808,554.208069 665.849548,546.207581 669.874573,538.054077 
	C675.450684,526.758423 680.718079,515.309814 686.338135,504.036621 
	C690.684143,495.318878 695.525391,486.847809 699.863953,478.126556 
	C705.554016,466.688446 710.971375,455.114624 716.496277,443.594482 
	C721.408508,433.351562 726.177368,423.035858 731.341858,412.921967 
	C732.193848,411.253479 734.824036,409.412842 736.507263,409.525330 
	C738.561035,409.662598 740.966431,411.398895 742.334412,413.139435 
	C743.915649,415.151276 744.417297,417.977753 745.587769,420.351868 
	C752.091980,433.544464 758.681335,446.695068 765.193054,459.884003 
	C770.012573,469.645355 774.668152,479.488495 779.559265,489.213470 
	C785.814453,501.650696 792.442871,513.903809 798.528015,526.422119 
	C806.166382,542.135620 813.304382,558.091797 820.880554,573.836304 
	C825.023804,582.446655 829.656006,590.820740 834.006104,599.332825 
	C835.962158,603.160156 837.656982,607.122986 839.666077,610.920715 
	C842.984192,617.193054 846.671143,623.277100 849.820984,629.629761 
	C854.363647,638.791870 858.457703,648.175476 862.940613,657.368286 
	C867.772461,667.276611 872.831848,677.073975 878.019836,687.372009 
	C878.668884,686.529541 879.679932,685.551025 880.293823,684.366638 
	C884.250061,676.732361 888.090332,669.038025 892.024963,661.392395 
	C896.641907,652.421082 901.401062,643.522034 905.939331,634.511475 
	C909.735107,626.974976 913.268066,619.306519 916.978088,611.726196 
	C922.122009,601.216309 927.322693,590.734131 932.732300,580.094971 
	C933.331116,579.324524 933.696716,578.699219 934.291138,577.902283 
	C935.035706,577.172791 935.551453,576.614868 936.347778,575.998291 
	C937.085205,575.608582 937.542114,575.277588 938.374451,574.943237 
	C939.500671,574.948242 940.251404,574.956543 941.145142,575.249756 
	C942.203247,576.689758 943.118408,577.844849 944.024658,579.410645 
	C943.881287,580.627014 943.746826,581.432556 943.310425,582.084595 
	C941.637024,580.661682 939.876648,578.122070 938.978149,578.397217 
	C937.301208,578.910706 935.703369,580.840881 934.809509,582.563782 
	C929.398376,592.994751 924.114807,603.494263 918.947266,614.048645 
	C914.446899,623.240417 910.156250,632.534973 905.772827,641.784058 
	C905.698242,641.963318 905.623657,642.142517 905.179932,642.715515 
	C903.419373,645.364258 901.839355,647.525818 900.668091,649.889893 
	C894.409485,662.521484 888.293213,675.223755 881.994324,687.835022 
	C881.411072,689.002747 879.931763,690.363953 878.796326,690.432068 
	C877.692627,690.498230 875.995911,689.277405 875.419250,688.172913 
	C870.586731,678.917480 865.902832,669.583069 861.270264,660.224976 
	C854.735229,647.023804 848.316223,633.765198 841.784668,620.562317 
	C835.250122,607.353210 828.638245,594.182434 822.017761,580.639282 
	C815.166382,566.828613 808.256348,553.423462 801.578003,539.903931 
	C795.343689,527.283264 789.478760,514.479858 783.231873,501.865540 
	C772.189087,479.566895 760.986450,457.347382 749.836060,435.102081 
	C746.711853,428.869446 743.599731,422.629272 740.361206,416.455933 
	C738.287964,412.503845 735.487915,411.948212 733.720276,415.197052 
	C732.079895,418.212006 731.074036,421.572205 729.788818,424.780396 
	C729.710632,424.964050 729.632507,425.147705 729.166992,425.731354 
	C726.469849,431.045593 724.160095,435.959839 721.850342,440.874084 
	C721.850342,440.874084 721.652039,441.254608 721.272705,441.591553 
	C713.097534,457.482849 705.330750,473.051849 697.499084,488.588104 
	C685.699890,511.995392 673.803894,535.354004 662.063904,558.790894 
	C658.886963,565.132996 656.124207,571.682617 653.171265,578.137024 
	C653.024170,578.476624 652.877075,578.816162 652.339844,579.565308 
	C649.802246,584.265991 647.654785,588.557068 645.255920,593.062134 
	C642.599182,598.760498 640.193848,604.244934 637.788574,609.729370 
	C637.788574,609.729370 637.753418,609.763184 637.400391,609.848145 
	C633.241943,617.049194 629.332642,624.112549 625.680664,631.306580 
	C624.135315,634.350525 623.131348,637.669373 621.881348,640.863281 
	C621.881348,640.863281 621.709167,641.305969 621.341797,641.665222 
	C618.596375,646.954895 616.218384,651.885376 613.840393,656.815796 
	C613.840393,656.815796 613.674683,657.270874 613.614014,657.505310 
z"/>
<path fill="#4E3F13" opacity="1.000000" stroke="none" 
	d="
M906.115173,641.768555 
	C910.156250,632.534973 914.446899,623.240417 918.947266,614.048645 
	C924.114807,603.494263 929.398376,592.994751 934.809509,582.563782 
	C935.703369,580.840881 937.301208,578.910706 938.978149,578.397217 
	C939.876648,578.122070 941.637024,580.661682 943.355469,582.303833 
	C943.702454,582.676636 943.869263,583.092163 943.822388,583.467041 
	C943.977112,584.468079 944.105774,585.129761 944.391296,585.715027 
	C949.886047,596.977539 955.248169,608.308594 960.960449,619.460083 
	C964.926453,627.202515 969.379456,634.695496 973.657349,642.505615 
	C973.699829,642.711304 973.858765,643.100098 973.808350,643.475586 
	C979.727905,656.202576 985.605164,668.599976 991.693420,680.892944 
	C998.013611,693.654053 1004.617004,706.274780 1010.952759,719.028381 
	C1018.617188,734.456421 1026.089600,749.979858 1033.743896,765.413086 
	C1035.302368,768.555481 1037.299072,771.480591 1039.093750,774.505859 
	C1041.132324,778.425232 1043.170776,782.344604 1045.500244,786.507812 
	C1045.617798,787.349548 1045.444458,787.947571 1044.978760,788.927734 
	C1044.449097,789.576294 1044.212036,789.842712 1043.974854,790.109070 
	C1041.063110,785.178467 1037.955444,780.351318 1035.284302,775.293579 
	C1031.054199,767.283875 1027.026245,759.163574 1023.075073,751.011353 
	C1016.655823,737.766602 1010.481384,724.402161 1003.977783,711.199524 
	C1000.583252,704.308655 996.566345,697.726501 993.087402,690.874573 
	C989.572205,683.951050 986.468201,676.819641 983.011841,669.864929 
	C979.274658,662.345093 975.300659,654.943359 971.506775,647.451172 
	C969.966003,644.408508 968.688538,641.233459 967.187317,638.169556 
	C961.023682,625.589600 954.848694,613.014893 948.618896,600.467590 
	C945.520996,594.228149 942.295715,588.052002 938.685669,580.980469 
	C934.810059,588.498291 931.554321,594.938171 928.185242,601.318176 
	C923.811035,609.601257 919.221802,617.773315 914.978516,626.122009 
	C913.116394,629.785583 912.067749,633.858154 910.274109,637.563293 
	C909.484863,639.193604 907.758484,640.370361 906.115173,641.768555 
z"/>
<path fill="#4E3F13" opacity="1.000000" stroke="none" 
	d="
M822.060181,580.994873 
	C828.638245,594.182434 835.250122,607.353210 841.784668,620.562317 
	C848.316223,633.765198 854.735229,647.023804 861.270264,660.224976 
	C865.902832,669.583069 870.586731,678.917480 875.419250,688.172913 
	C875.995911,689.277405 877.692627,690.498230 878.796326,690.432068 
	C879.931763,690.363953 881.411072,689.002747 881.994324,687.835022 
	C888.293213,675.223755 894.409485,662.521484 900.668091,649.889893 
	C901.839355,647.525818 903.419373,645.364258 905.102844,642.996338 
	C905.441895,644.369324 906.021790,646.109436 905.453125,647.301880 
	C899.897949,658.951477 894.148071,670.508179 888.460388,682.094666 
	C886.989319,685.091492 885.818115,688.285034 883.976990,691.031433 
	C882.929932,692.593262 880.478271,694.665344 879.235291,694.335632 
	C876.796692,693.688721 873.832703,692.015808 872.712769,689.904663 
	C866.608643,678.397949 860.895508,666.678650 855.258972,654.931213 
	C851.837158,647.799866 849.049316,640.359924 845.529602,633.280884 
	C839.274780,620.700684 832.598694,608.330505 826.270935,595.785583 
	C823.972107,591.228027 822.165894,586.421997 820.444824,581.356567 
	C821.189880,580.987549 821.625061,580.991211 822.060181,580.994873 
z"/>
<path fill="#534819" opacity="1.000000" stroke="none" 
	d="
M822.017761,580.639282 
	C821.625061,580.991211 821.189880,580.987549 820.429138,580.979736 
	C818.414429,578.040710 816.563293,575.186096 815.062866,572.157715 
	C806.558533,554.992371 798.192078,537.758667 789.670471,520.601990 
	C783.872498,508.929016 777.848694,497.368378 772.018066,485.711365 
	C768.018616,477.715424 764.249939,469.603973 760.246704,461.609955 
	C755.452942,452.037323 750.489502,442.549866 745.658081,432.995880 
	C742.909485,427.560577 740.277771,422.066132 737.258484,415.916046 
	C734.814758,419.085022 732.639343,421.906158 730.126343,424.753845 
	C731.074036,421.572205 732.079895,418.212006 733.720276,415.197052 
	C735.487915,411.948212 738.287964,412.503845 740.361206,416.455933 
	C743.599731,422.629272 746.711853,428.869446 749.836060,435.102081 
	C760.986450,457.347382 772.189087,479.566895 783.231873,501.865540 
	C789.478760,514.479858 795.343689,527.283264 801.578003,539.903931 
	C808.256348,553.423462 815.166382,566.828613 822.017761,580.639282 
z"/>
<path fill="#534819" opacity="1.000000" stroke="none" 
	d="
M653.524963,578.134888 
	C656.124207,571.682617 658.886963,565.132996 662.063904,558.790894 
	C673.803894,535.354004 685.699890,511.995392 697.499084,488.588104 
	C705.330750,473.051849 713.097534,457.482849 721.198364,441.792847 
	C719.691956,446.664185 718.192017,451.812531 715.999207,456.646545 
	C712.320007,464.757050 708.225281,472.680206 704.257141,480.658142 
	C700.922119,487.362976 697.479126,494.014160 694.153076,500.723389 
	C687.628540,513.884583 681.214050,527.100647 674.635559,540.234680 
	C669.681885,550.124878 664.621216,559.963928 659.440063,569.736633 
	C657.875122,572.688477 655.748230,575.342346 653.524963,578.134888 
z"/>
<path fill="#4E2D00" opacity="1.000000" stroke="none" 
	d="
M1120.137695,941.218750 
	C1123.157104,946.255615 1126.341309,951.583435 1129.053467,957.141479 
	C1134.539795,968.384583 1139.770020,979.752625 1145.134033,991.446777 
	C1142.913452,988.887939 1140.141724,986.212646 1138.519043,982.963562 
	C1134.532593,974.981750 1131.075073,966.735840 1127.137451,958.011841 
	C1126.340942,956.898438 1125.811768,956.369263 1125.282471,955.840149 
	C1124.680054,954.062927 1124.077515,952.285706 1123.174194,949.964600 
	C1122.352539,948.890564 1121.831665,948.360535 1121.310791,947.830444 
	C1120.903442,945.758240 1120.496094,943.686035 1120.137695,941.218750 
z"/>
<path fill="#4E2D00" opacity="1.000000" stroke="none" 
	d="
M1043.981812,790.482666 
	C1044.212036,789.842712 1044.449097,789.576294 1044.904053,789.152954 
	C1052.163208,803.065063 1059.204346,817.134033 1065.971436,831.430298 
	C1065.101807,831.123840 1064.506470,830.590271 1063.911133,830.056641 
	C1063.302612,829.261658 1062.694214,828.466675 1061.955322,827.091797 
	C1061.336670,825.947876 1060.848389,825.383789 1060.360229,824.819702 
	C1060.051025,823.718567 1059.741821,822.617432 1059.178345,820.917725 
	C1058.303345,819.213501 1057.682739,818.107971 1057.062134,817.002380 
	C1056.812134,816.193115 1056.562256,815.383850 1056.071533,814.013916 
	C1055.259399,812.941528 1054.688110,812.429871 1054.116821,811.918152 
	C1054.116821,811.918152 1054.036499,811.482361 1053.940308,810.972839 
	C1053.317261,809.925232 1052.790283,809.387085 1052.263428,808.848938 
	C1050.007202,804.204834 1047.723877,799.573608 1045.511841,794.908508 
	C1044.895752,793.609131 1044.490723,792.209778 1043.981812,790.482666 
z"/>
<path fill="#5C4612" opacity="1.000000" stroke="none" 
	d="
M622.216736,640.821777 
	C623.131348,637.669373 624.135315,634.350525 625.680664,631.306580 
	C629.332642,624.112549 633.241943,617.049194 637.387329,609.868774 
	C634.647339,621.098938 629.410095,631.336609 622.216736,640.821777 
z"/>
<path fill="#2F1B00" opacity="1.000000" stroke="none" 
	d="
M350.312378,983.901855 
	C355.483459,972.605225 360.996185,961.246216 366.559326,949.911987 
	C366.905640,949.206482 367.648041,948.695435 368.519714,947.957642 
	C364.665894,956.709167 360.590118,965.641602 356.283630,974.461487 
	C354.689911,977.725586 352.554077,980.725037 350.312378,983.901855 
z"/>
<path fill="#4E2D00" opacity="1.000000" stroke="none" 
	d="
M1082.291504,865.076050 
	C1087.584351,874.881897 1092.786133,885.071289 1097.678223,895.543457 
	C1096.369629,894.823914 1095.370605,893.821655 1094.371704,892.819336 
	C1094.293579,892.411377 1094.215454,892.003357 1094.001709,891.001465 
	C1093.301880,889.900818 1092.737305,889.393982 1092.172852,888.887207 
	C1092.172852,888.887207 1092.099243,888.437134 1092.012451,887.934204 
	C1091.641235,886.955261 1091.356812,886.479248 1091.072266,886.003296 
	C1090.516846,884.512878 1089.961548,883.022400 1089.155029,880.928101 
	C1088.020508,879.167786 1087.136963,878.011414 1086.253418,876.855042 
	C1084.902466,873.056519 1083.551514,869.258057 1082.291504,865.076050 
z"/>
<path fill="#2F1B00" opacity="1.000000" stroke="none" 
	d="
M385.315430,914.916321 
	C390.018524,904.698364 395.068573,894.397339 400.396729,883.920776 
	C399.406189,887.070618 398.400665,890.527832 396.815460,893.694824 
	C393.250366,900.817383 389.397888,907.796021 385.315430,914.916321 
z"/>
<path fill="#5C4612" opacity="1.000000" stroke="none" 
	d="
M614.180115,656.775024 
	C616.218384,651.885376 618.596375,646.954895 621.277466,641.893799 
	C621.471497,643.404297 621.877502,645.332336 621.154114,646.631470 
	C619.199463,650.141968 616.764343,653.385010 614.180115,656.775024 
z"/>
<path fill="#5C4612" opacity="1.000000" stroke="none" 
	d="
M638.109985,609.727295 
	C640.193848,604.244934 642.599182,598.760498 645.524719,593.097412 
	C646.223328,592.942139 646.401794,592.965576 646.580200,592.989075 
	C643.863953,598.567749 641.147705,604.146484 638.109985,609.727295 
z"/>
<path fill="#534819" opacity="1.000000" stroke="none" 
	d="
M722.185669,440.797119 
	C724.160095,435.959839 726.469849,431.045593 729.069702,426.014526 
	C730.086853,432.225739 726.545776,436.584503 722.185669,440.797119 
z"/>
<path fill="#4E2D00" opacity="1.000000" stroke="none" 
	d="
M1073.452637,845.637939 
	C1076.245483,851.231995 1079.038452,856.826111 1081.792603,862.793518 
	C1080.904053,862.655579 1080.054321,862.144226 1079.012207,861.021362 
	C1077.933472,858.905640 1077.047119,857.401428 1076.160645,855.897156 
	C1075.823730,855.152466 1075.486694,854.407776 1074.984497,853.040344 
	C1074.211182,850.945923 1073.603027,849.474304 1072.994751,848.002686 
	C1072.994751,848.002686 1073.000000,848.000000 1072.998047,847.680908 
	C1072.959473,846.935669 1072.922729,846.509460 1073.027466,845.971863 
	C1073.169067,845.860474 1073.452637,845.637939 1073.452637,845.637939 
z"/>
<path fill="#4E2D00" opacity="1.000000" stroke="none" 
	d="
M1112.397461,924.546204 
	C1114.897095,929.485046 1117.396851,934.423889 1119.873047,939.739990 
	C1119.441284,940.108215 1119.032959,940.099060 1118.263916,939.693298 
	C1117.041382,937.810242 1116.179565,936.323792 1115.317749,934.837402 
	C1114.547119,933.157288 1113.776611,931.477173 1112.916016,929.071533 
	C1112.683105,927.079346 1112.540283,925.812805 1112.397461,924.546204 
z"/>
<path fill="#4E2D00" opacity="1.000000" stroke="none" 
	d="
M1104.445190,908.587646 
	C1106.600952,912.817871 1108.756714,917.048157 1110.638672,921.580078 
	C1109.573975,921.254517 1108.782959,920.627258 1107.992065,920.000000 
	C1106.626709,916.959290 1105.261230,913.918579 1104.007812,910.114258 
	C1104.228271,909.096375 1104.336670,908.841980 1104.445190,908.587646 
z"/>
<path fill="#2F1B00" opacity="1.000000" stroke="none" 
	d="
M377.309967,930.896973 
	C379.365051,926.029053 381.745331,921.043274 384.427185,915.905579 
	C382.364258,920.762146 379.999725,925.770691 377.309967,930.896973 
z"/>
<path fill="#2E1B01" opacity="1.000000" stroke="none" 
	d="
M440.292572,803.907349 
	C442.377991,799.439026 444.810181,794.903442 447.505615,790.188599 
	C445.392365,794.619629 443.015869,799.229919 440.292572,803.907349 
z"/>
<path fill="#2F1B00" opacity="1.000000" stroke="none" 
	d="
M410.257599,863.879639 
	C412.082977,859.766052 414.265381,855.598694 416.693237,851.200073 
	C416.188354,855.922302 414.852417,860.587769 410.257599,863.879639 
z"/>
<path fill="#534819" opacity="1.000000" stroke="none" 
	d="
M646.859802,592.748474 
	C646.401794,592.965576 646.223328,592.942139 645.776123,592.883423 
	C647.654785,588.557068 649.802246,584.265991 652.252258,579.828857 
	C650.749695,583.957886 648.944580,588.232849 646.859802,592.748474 
z"/>
<path fill="#2F1B00" opacity="1.000000" stroke="none" 
	d="
M424.305664,836.899597 
	C426.027374,832.701538 428.075439,828.398560 430.402893,823.920776 
	C428.665497,828.095581 426.648743,832.445129 424.305664,836.899597 
z"/>
<path fill="#4E2D00" opacity="1.000000" stroke="none" 
	d="
M1098.228516,896.718201 
	C1100.217773,900.208374 1102.207031,903.698608 1103.918823,907.474426 
	C1103.074463,907.521179 1102.507446,907.282288 1101.940430,907.043457 
	C1101.689087,906.854553 1101.461426,906.640564 1101.068115,905.865112 
	C1099.984497,903.527954 1099.090210,901.727173 1098.195923,899.926453 
	C1098.195923,899.926453 1098.088257,899.475525 1098.058350,898.865051 
	C1098.095215,897.742432 1098.161865,897.230347 1098.228516,896.718201 
z"/>
<path fill="#301B00" opacity="1.000000" stroke="none" 
	d="
M433.439270,817.975830 
	C435.089630,814.095764 437.049530,810.088379 439.265533,805.887329 
	C437.597351,809.745300 435.673096,813.796875 433.439270,817.975830 
z"/>
<path fill="#2E1A00" opacity="1.000000" stroke="none" 
	d="
M401.330811,881.921387 
	C402.725983,878.709167 404.444122,875.385010 406.466858,871.917603 
	C405.065552,875.119263 403.359619,878.464355 401.330811,881.921387 
z"/>
<path fill="#2B1900" opacity="1.000000" stroke="none" 
	d="
M1107.824585,920.249695 
	C1108.782959,920.627258 1109.573975,921.254517 1110.660522,921.948730 
	C1111.383789,922.673462 1111.811523,923.331299 1112.318359,924.267639 
	C1112.540283,925.812805 1112.683105,927.079346 1112.849609,928.728333 
	C1111.134644,926.240295 1109.395874,923.369812 1107.824585,920.249695 
z"/>
<path fill="#4E2D00" opacity="1.000000" stroke="none" 
	d="
M1066.391724,832.623413 
	C1067.680054,834.811890 1068.968262,837.000305 1069.965332,839.473389 
	C1069.133423,839.495850 1068.592773,839.233704 1068.052002,838.971619 
	C1067.327026,837.589111 1066.602173,836.206543 1065.973633,834.103943 
	C1066.177246,833.130310 1066.284424,832.876831 1066.391724,832.623413 
z"/>
<path fill="#2F1B00" opacity="1.000000" stroke="none" 
	d="
M347.261169,990.781982 
	C347.731964,988.686768 348.552307,986.515137 349.664337,984.157349 
	C349.174255,986.216003 348.392487,988.460815 347.261169,990.781982 
z"/>
<path fill="#2B1900" opacity="1.000000" stroke="none" 
	d="
M1098.183350,896.533936 
	C1098.161865,897.230347 1098.095215,897.742432 1098.000488,898.640625 
	C1096.750366,897.203125 1095.528442,895.379517 1094.339111,893.187622 
	C1095.370605,893.821655 1096.369629,894.823914 1097.668091,895.918518 
	C1097.967651,896.010803 1098.138184,896.349731 1098.183350,896.533936 
z"/>
<path fill="#4E2D00" opacity="1.000000" stroke="none" 
	d="
M1070.422852,840.567383 
	C1071.366211,842.045349 1072.309570,843.523376 1073.352783,845.319641 
	C1073.452637,845.637939 1073.169067,845.860474 1072.788574,845.827759 
	C1071.896729,845.564697 1071.385376,845.334351 1070.874146,845.104065 
	C1070.594116,844.614136 1070.314087,844.124268 1070.039673,842.935059 
	C1070.171143,841.679626 1070.296997,841.123474 1070.422852,840.567383 
z"/>
<path fill="#2E1A00" opacity="1.000000" stroke="none" 
	d="
M407.299500,870.903931 
	C407.583435,869.185547 408.194550,867.367249 409.010925,865.247803 
	C408.686371,866.899048 408.156525,868.851562 407.299500,870.903931 
z"/>
<path fill="#2F1B00" opacity="1.000000" stroke="none" 
	d="
M369.337158,946.943909 
	C369.510986,945.523376 369.982452,943.989136 370.700592,942.211914 
	C370.509766,943.589355 370.072266,945.209778 369.337158,946.943909 
z"/>
<path fill="#2B1900" opacity="1.000000" stroke="none" 
	d="
M1098.173096,900.300903 
	C1099.090210,901.727173 1099.984497,903.527954 1100.925537,905.678711 
	C1100.031494,904.244202 1099.090820,902.459778 1098.173096,900.300903 
z"/>
<path fill="#2F1B00" opacity="1.000000" stroke="none" 
	d="
M420.354187,844.909790 
	C420.698883,843.363525 421.378845,841.714233 422.332886,839.887939 
	C421.967743,841.409607 421.328583,843.108154 420.354187,844.909790 
z"/>
<path fill="#2B1900" opacity="1.000000" stroke="none" 
	d="
M1076.183105,856.252014 
	C1077.047119,857.401428 1077.933472,858.905640 1078.834839,860.769165 
	C1077.968384,859.621216 1077.086914,858.114014 1076.183105,856.252014 
z"/>
<path fill="#2B1900" opacity="1.000000" stroke="none" 
	d="
M1115.296997,935.197876 
	C1116.179565,936.323792 1117.041382,937.810242 1117.961060,939.637695 
	C1117.104736,938.505188 1116.190430,937.031799 1115.296997,935.197876 
z"/>
<path fill="#2F1B00" opacity="1.000000" stroke="none" 
	d="
M417.534973,849.046997 
	C417.955627,847.884460 418.684479,846.593567 419.714172,845.158936 
	C419.291077,846.316284 418.567139,847.617432 417.534973,849.046997 
z"/>
<path fill="#2B1900" opacity="1.000000" stroke="none" 
	d="
M1086.245605,877.202637 
	C1087.136963,878.011414 1088.020508,879.167786 1088.960205,880.652832 
	C1088.090210,879.837708 1087.163940,878.693909 1086.245605,877.202637 
z"/>
<path fill="#2B1900" opacity="1.000000" stroke="none" 
	d="
M1056.887085,817.234863 
	C1057.682739,818.107971 1058.303345,819.213501 1058.980957,820.636841 
	C1058.262695,819.792175 1057.487427,818.629761 1056.887085,817.234863 
z"/>
<path fill="#2B1900" opacity="1.000000" stroke="none" 
	d="
M1072.985718,848.382202 
	C1073.603027,849.474304 1074.211182,850.945923 1074.834961,852.771362 
	C1074.225952,851.670715 1073.601318,850.216248 1072.985718,848.382202 
z"/>
<path fill="#2B1900" opacity="1.000000" stroke="none" 
	d="
M1070.406616,840.400574 
	C1070.296997,841.123474 1070.171143,841.679626 1069.975098,842.657043 
	C1069.281372,841.948853 1068.657593,840.819397 1068.042969,839.330750 
	C1068.592773,839.233704 1069.133423,839.495850 1069.967041,839.841553 
	C1070.259766,839.925110 1070.390381,840.233765 1070.406616,840.400574 
z"/>
<path fill="#2B1900" opacity="1.000000" stroke="none" 
	d="
M1066.368774,832.455261 
	C1066.284424,832.876831 1066.177246,833.130310 1065.916992,833.768738 
	C1065.156250,833.020630 1064.548462,831.887634 1063.925781,830.405640 
	C1064.506470,830.590271 1065.101807,831.123840 1065.956299,831.815552 
	C1066.215332,831.973694 1066.345825,832.287109 1066.368774,832.455261 
z"/>
<path fill="#2B1900" opacity="1.000000" stroke="none" 
	d="
M1070.921021,845.427368 
	C1071.385376,845.334351 1071.896729,845.564697 1072.646973,845.939087 
	C1072.922729,846.509460 1072.959473,846.935669 1072.995605,847.683472 
	C1072.319214,847.253601 1071.643555,846.502197 1070.921021,845.427368 
z"/>
<path fill="#2B1900" opacity="1.000000" stroke="none" 
	d="
M1101.972900,907.367126 
	C1102.507446,907.282288 1103.074463,907.521179 1103.939453,907.846802 
	C1104.237305,907.933472 1104.385254,908.248047 1104.415283,908.417847 
	C1104.336670,908.841980 1104.228271,909.096375 1103.968994,909.738220 
	C1103.213989,909.314087 1102.609619,908.502441 1101.972900,907.367126 
z"/>
<path fill="#2B1900" opacity="1.000000" stroke="none" 
	d="
M1125.290527,956.148804 
	C1125.811768,956.369263 1126.340942,956.898438 1126.934570,957.714966 
	C1126.432129,957.487427 1125.865356,956.972412 1125.290527,956.148804 
z"/>
<path fill="#2B1900" opacity="1.000000" stroke="none" 
	d="
M1121.316406,948.139099 
	C1121.831665,948.360535 1122.352539,948.890564 1122.942017,949.704163 
	C1122.447754,949.474365 1121.884766,948.961060 1121.316406,948.139099 
z"/>
<path fill="#2F1B00" opacity="1.000000" stroke="none" 
	d="
M372.298035,939.934937 
	C372.424805,939.369629 372.855927,938.716858 373.569092,937.948486 
	C373.434906,938.504395 373.018646,939.175903 372.298035,939.934937 
z"/>
<path fill="#2B1900" opacity="1.000000" stroke="none" 
	d="
M1092.208984,889.192505 
	C1092.737305,889.393982 1093.301880,889.900818 1093.939819,890.696167 
	C1093.423828,890.489136 1092.834473,889.993469 1092.208984,889.192505 
z"/>
<path fill="#2B1900" opacity="1.000000" stroke="none" 
	d="
M1090.917236,886.192566 
	C1091.356812,886.479248 1091.641235,886.955261 1091.967163,887.710693 
	C1091.593140,887.454041 1091.177612,886.917969 1090.917236,886.192566 
z"/>
<path fill="#2B1900" opacity="1.000000" stroke="none" 
	d="
M1060.346436,825.124817 
	C1060.848389,825.383789 1061.336670,825.947876 1061.857300,826.806580 
	C1061.370728,826.544067 1060.851807,825.987000 1060.346436,825.124817 
z"/>
<path fill="#2B1900" opacity="1.000000" stroke="none" 
	d="
M1054.163818,812.220581 
	C1054.688110,812.429871 1055.259399,812.941528 1055.892090,813.750366 
	C1055.372559,813.539368 1054.791748,813.031189 1054.163818,812.220581 
z"/>
<path fill="#2B1900" opacity="1.000000" stroke="none" 
	d="
M1052.273926,809.156372 
	C1052.790283,809.387085 1053.317261,809.925232 1053.899170,810.755127 
	C1053.397705,810.519287 1052.841064,809.991577 1052.273926,809.156372 
z"/>
<path fill="#EEECE9" opacity="1.000000" stroke="none" 
	d="
M451.041626,772.419189 
	C451.224426,772.957214 451.407257,773.495300 451.839722,774.187866 
	C449.794037,778.395142 447.498718,782.447876 445.005768,786.379272 
	C444.295288,785.407776 443.782410,784.557495 443.190430,783.353394 
	C444.503113,781.127563 445.998718,779.322021 447.253021,777.362000 
	C448.219116,775.852478 448.881958,774.148865 450.108917,772.349365 
	C450.706024,772.251160 450.873810,772.335144 451.041626,772.419189 
z"/>
<path fill="#FFFEFC" opacity="1.000000" stroke="none" 
	d="
M437.147583,773.300659 
	C437.372528,773.269592 437.595062,773.526367 437.953613,774.003357 
	C437.774841,774.011902 437.459991,773.800171 437.147583,773.300659 
z"/>
<path fill="#FFDE4E" opacity="1.000000" stroke="none" 
	d="
M451.227295,772.079895 
	C450.873810,772.335144 450.706024,772.251160 450.285614,772.042603 
	C448.549438,769.085266 447.065857,766.252319 445.257019,762.843506 
	C442.641815,757.835571 440.351929,753.403503 438.062073,748.971436 
	C436.986938,746.448242 435.911804,743.925110 434.551605,740.818726 
	C433.870117,739.478699 433.473694,738.721802 433.077271,737.964966 
	C430.941071,732.463928 428.804871,726.962830 426.408936,720.869934 
	C425.795685,719.505310 425.442108,718.732483 425.088562,717.959717 
	C423.461304,712.866089 421.834045,707.772461 420.040894,701.997498 
	C419.314056,699.851013 418.753143,698.385803 418.192261,696.920654 
	C417.715668,694.780457 417.239105,692.640198 416.541626,689.838135 
	C415.967712,688.073914 415.614716,686.971497 415.261688,685.869141 
	C414.950104,684.460266 414.638489,683.051392 414.186768,680.990967 
	C413.823212,679.497620 413.599792,678.655884 413.376373,677.814087 
	C412.699890,674.440308 412.023376,671.066467 411.196716,667.015869 
	C410.878754,665.476196 410.710938,664.613403 410.543121,663.750549 
	C410.430847,663.054199 410.318573,662.357849 410.117554,661.000854 
	C409.866974,659.477173 409.705139,658.614136 409.543304,657.751099 
	C409.431000,657.054626 409.318695,656.358093 409.117584,655.000916 
	C408.866974,653.477173 408.705139,652.614136 408.543304,651.751099 
	C408.067017,647.772400 407.590729,643.793701 407.053406,639.030151 
	C406.889252,637.497620 406.786163,636.749878 406.683044,636.002197 
	C406.392487,618.293396 406.101929,600.584534 405.854797,582.068970 
	C405.884216,580.508423 405.870239,579.754578 405.856232,579.000732 
	C406.156311,575.940918 406.456390,572.881042 406.824097,569.043823 
	C406.897980,567.511353 406.904297,566.756165 406.910583,566.001038 
	C407.171661,564.573547 407.432800,563.146118 407.782349,560.969849 
	C407.898071,559.147583 407.925323,558.074097 407.952576,557.000671 
	C410.773102,542.755310 412.767548,528.281067 416.635101,514.325867 
	C420.921967,498.857697 426.202881,483.566467 432.349701,468.736511 
	C440.572510,448.898132 450.987335,430.119446 462.983185,412.218231 
	C478.470215,389.107086 496.649231,368.294312 517.115845,349.622192 
	C536.093262,332.308655 556.937927,317.419739 579.582153,305.013184 
	C606.928406,290.030396 635.576477,278.472626 665.979126,271.835999 
	C682.700989,268.185760 699.786560,265.680328 716.841797,264.226746 
	C733.668213,262.792694 750.717468,262.329041 767.571594,263.240753 
	C794.776611,264.712433 821.451294,269.923431 847.506042,278.180145 
	C879.679871,288.376007 909.643921,302.936157 937.637878,321.819275 
	C960.083252,336.959656 979.937988,355.013733 998.090637,374.870148 
	C1019.959412,398.791504 1037.834961,425.609375 1051.837891,454.877319 
	C1064.689697,481.739197 1074.232422,509.813263 1079.697021,539.074890 
	C1084.078003,562.534912 1086.495483,586.321777 1085.676270,610.235474 
	C1084.285645,650.827759 1077.049683,690.346619 1061.370972,727.966919 
	C1055.175415,742.832947 1047.652344,757.145813 1040.227051,771.650391 
	C1036.666138,765.723816 1033.617554,759.854614 1030.556641,753.991821 
	C1027.592896,748.315308 1024.466064,742.717651 1021.692810,736.949890 
	C1019.392212,732.165161 1017.703613,727.085449 1015.387512,722.309265 
	C1010.528076,712.288269 1005.447815,702.374146 1000.431824,692.429382 
	C996.998047,685.621460 993.469055,678.860962 990.085266,672.028381 
	C988.673584,669.177979 987.601379,666.161072 986.240845,663.283264 
	C985.022400,660.706055 983.988037,657.914368 982.218384,655.752808 
	C978.981628,651.799377 979.623474,645.316833 973.858765,643.100098 
	C973.858765,643.100098 973.699829,642.711304 973.804932,642.182617 
	C973.620300,640.101624 973.667908,638.380798 972.989563,637.022522 
	C964.753601,620.532532 956.457275,604.071899 948.028625,587.679810 
	C947.116821,585.906494 945.278076,584.609863 943.869263,583.092163 
	C943.869263,583.092163 943.702454,582.676636 943.657410,582.457397 
	C943.746826,581.432556 943.881287,580.627014 944.185181,579.170410 
	C944.344788,576.289917 944.240601,574.149475 941.002197,574.964844 
	C940.251404,574.956543 939.500671,574.948242 938.174561,574.798523 
	C937.088562,575.123779 936.577881,575.590393 936.067200,576.057007 
	C935.551453,576.614868 935.035706,577.172791 933.987305,577.973450 
	C933.136108,578.890808 932.817566,579.565430 932.499023,580.240112 
	C927.322693,590.734131 922.122009,601.216309 916.978088,611.726196 
	C913.268066,619.306519 909.735107,626.974976 905.939331,634.511475 
	C901.401062,643.522034 896.641907,652.421082 892.024963,661.392395 
	C888.090332,669.038025 884.250061,676.732361 880.293823,684.366638 
	C879.679932,685.551025 878.668884,686.529541 878.019836,687.372009 
	C872.831848,677.073975 867.772461,667.276611 862.940613,657.368286 
	C858.457703,648.175476 854.363647,638.791870 849.820984,629.629761 
	C846.671143,623.277100 842.984192,617.193054 839.666077,610.920715 
	C837.656982,607.122986 835.962158,603.160156 834.006104,599.332825 
	C829.656006,590.820740 825.023804,582.446655 820.880554,573.836304 
	C813.304382,558.091797 806.166382,542.135620 798.528015,526.422119 
	C792.442871,513.903809 785.814453,501.650696 779.559265,489.213470 
	C774.668152,479.488495 770.012573,469.645355 765.193054,459.884003 
	C758.681335,446.695068 752.091980,433.544464 745.587769,420.351868 
	C744.417297,417.977753 743.915649,415.151276 742.334412,413.139435 
	C740.966431,411.398895 738.561035,409.662598 736.507263,409.525330 
	C734.824036,409.412842 732.193848,411.253479 731.341858,412.921967 
	C726.177368,423.035858 721.408508,433.351562 716.496277,443.594482 
	C710.971375,455.114624 705.554016,466.688446 699.863953,478.126556 
	C695.525391,486.847809 690.684143,495.318878 686.338135,504.036621 
	C680.718079,515.309814 675.450684,526.758423 669.874573,538.054077 
	C665.849548,546.207581 661.515808,554.208069 657.413757,562.324341 
	C650.525452,575.953247 643.750977,589.639771 636.856812,603.265747 
	C628.311951,620.154541 619.588257,636.953735 611.136047,653.888550 
	C602.033203,672.127380 593.263794,690.532776 584.148132,708.765076 
	C575.188477,726.685486 565.893982,744.438416 556.914490,762.348999 
	C553.064087,770.029053 549.810364,778.008057 545.967102,785.692017 
	C542.738708,792.146790 539.048523,798.370667 535.106995,805.523987 
	C533.792358,803.213684 532.699158,801.501221 531.806213,799.690063 
	C525.016907,785.918762 518.352295,772.085327 511.478363,758.356567 
	C505.489288,746.395020 499.257782,734.555054 493.185120,722.635010 
	C492.210327,720.721558 491.786682,718.480103 490.602966,716.732605 
	C489.237335,714.716431 487.153625,711.488831 485.664398,711.636597 
	C483.186646,711.882324 479.868500,713.860413 478.763092,716.048157 
	C472.490021,728.463379 466.855316,741.199158 460.822601,753.738831 
	C457.888824,759.836975 454.561920,765.745972 451.227295,772.079895 
z"/>
<path fill="#B19A36" opacity="1.000000" stroke="none" 
	d="
M973.808350,643.475586 
	C979.623474,645.316833 978.981628,651.799377 982.218384,655.752808 
	C983.988037,657.914368 985.022400,660.706055 986.240845,663.283264 
	C987.601379,666.161072 988.673584,669.177979 990.085266,672.028381 
	C993.469055,678.860962 996.998047,685.621460 1000.431824,692.429382 
	C1005.447815,702.374146 1010.528076,712.288269 1015.387512,722.309265 
	C1017.703613,727.085449 1019.392212,732.165161 1021.692810,736.949890 
	C1024.466064,742.717651 1027.592896,748.315308 1030.556641,753.991821 
	C1033.617554,759.854614 1036.666138,765.723816 1039.972412,771.878662 
	C1040.056152,772.564758 1039.887451,772.962341 1039.406250,773.932861 
	C1037.299072,771.480591 1035.302368,768.555481 1033.743896,765.413086 
	C1026.089600,749.979858 1018.617188,734.456421 1010.952759,719.028381 
	C1004.617004,706.274780 998.013611,693.654053 991.693420,680.892944 
	C985.605164,668.599976 979.727905,656.202576 973.808350,643.475586 
z"/>
<path fill="#FFFEFC" opacity="1.000000" stroke="none" 
	d="
M437.844299,749.265991 
	C440.351929,753.403503 442.641815,757.835571 445.001892,762.621094 
	C440.365112,761.735718 436.769531,755.257874 437.844299,749.265991 
z"/>
<path fill="#FFFEFC" opacity="1.000000" stroke="none" 
	d="
M417.919952,697.089966 
	C418.753143,698.385803 419.314056,699.851013 419.878571,701.658081 
	C417.783112,701.058044 414.853119,700.507751 417.919952,697.089966 
z"/>
<path fill="#FFFEFC" opacity="1.000000" stroke="none" 
	d="
M415.026062,686.132507 
	C415.614716,686.971497 415.967712,688.073914 416.361359,689.526611 
	C415.864807,688.716614 415.327637,687.556274 415.026062,686.132507 
z"/>
<path fill="#FFFEFC" opacity="1.000000" stroke="none" 
	d="
M407.662598,557.112915 
	C407.925323,558.074097 407.898071,559.147583 407.757690,560.608887 
	C407.553894,559.739563 407.463226,558.482361 407.662598,557.112915 
z"/>
<path fill="#FFFEFC" opacity="1.000000" stroke="none" 
	d="
M405.589539,579.100220 
	C405.870239,579.754578 405.884216,580.508423 405.809570,581.630371 
	C405.588196,581.065491 405.455536,580.132629 405.589539,579.100220 
z"/>
<path fill="#FFFEFC" opacity="1.000000" stroke="none" 
	d="
M406.427307,636.119568 
	C406.786163,636.749878 406.889252,637.497620 406.948792,638.622131 
	C406.660675,638.078308 406.416138,637.157593 406.427307,636.119568 
z"/>
<path fill="#FFFEFC" opacity="1.000000" stroke="none" 
	d="
M432.885345,738.211304 
	C433.473694,738.721802 433.870117,739.478699 434.352051,740.551392 
	C433.856171,740.064026 433.274811,739.260864 432.885345,738.211304 
z"/>
<path fill="#FFFEFC" opacity="1.000000" stroke="none" 
	d="
M424.895691,718.196411 
	C425.442108,718.732483 425.795685,719.505310 426.180359,720.602539 
	C425.708588,720.095703 425.205750,719.264404 424.895691,718.196411 
z"/>
<path fill="#FFFEFC" opacity="1.000000" stroke="none" 
	d="
M413.145599,678.034180 
	C413.599792,678.655884 413.823212,679.497620 414.018829,680.669800 
	C413.632294,680.084839 413.273560,679.169556 413.145599,678.034180 
z"/>
<path fill="#FFFEFC" opacity="1.000000" stroke="none" 
	d="
M410.290070,663.963989 
	C410.710938,664.613403 410.878754,665.476196 411.017700,666.669556 
	C410.671600,666.059204 410.354309,665.118347 410.290070,663.963989 
z"/>
<path fill="#FFFEFC" opacity="1.000000" stroke="none" 
	d="
M406.640289,566.095947 
	C406.904297,566.756165 406.897980,567.511353 406.791473,568.632202 
	C406.584167,568.062256 406.477081,567.126526 406.640289,566.095947 
z"/>
<path fill="#FFFEFC" opacity="1.000000" stroke="none" 
	d="
M408.290710,651.962952 
	C408.705139,652.614136 408.866974,653.477173 408.991394,654.669800 
	C408.648743,654.057922 408.343414,653.116333 408.290710,651.962952 
z"/>
<path fill="#FFFEFC" opacity="1.000000" stroke="none" 
	d="
M409.290710,657.962952 
	C409.705139,658.614136 409.866974,659.477173 409.991394,660.669800 
	C409.648743,660.057922 409.343445,659.116333 409.290710,657.962952 
z"/>
<path fill="#D6BA41" opacity="1.000000" stroke="none" 
	d="
M941.145142,575.249756 
	C944.240601,574.149475 944.344788,576.289917 944.194092,578.759705 
	C943.118408,577.844849 942.203247,576.689758 941.145142,575.249756 
z"/>
<path fill="#D6BA41" opacity="1.000000" stroke="none" 
	d="
M932.732239,580.094971 
	C932.817566,579.565430 933.136108,578.890808 933.758484,578.145020 
	C933.696716,578.699219 933.331116,579.324524 932.732239,580.094971 
z"/>
<path fill="#D6BA41" opacity="1.000000" stroke="none" 
	d="
M936.347778,575.998291 
	C936.577881,575.590393 937.088562,575.123779 937.799072,574.801880 
	C937.542114,575.277588 937.085205,575.608582 936.347778,575.998291 
z"/>
<path fill="#B19A36" opacity="1.000000" stroke="none" 
	d="
M943.822388,583.467041 
	C945.278076,584.609863 947.116821,585.906494 948.028625,587.679810 
	C956.457275,604.071899 964.753601,620.532532 972.989563,637.022522 
	C973.667908,638.380798 973.620300,640.101624 973.762451,641.976929 
	C969.379456,634.695496 964.926453,627.202515 960.960449,619.460083 
	C955.248169,608.308594 949.886047,596.977539 944.391296,585.715027 
	C944.105774,585.129761 943.977112,584.468079 943.822388,583.467041 
z"/>
</svg>