<svg version="1.1" id="Layer_1" xmlns="http://www.w3.org/2000/svg" xmlns:xlink="http://www.w3.org/1999/xlink" x="0px" y="0px"
	 width="100%" viewBox="0 0 1488 992" enable-background="new 0 0 1488 992" xml:space="preserve">
<path fill="#5E72E0" opacity="1.000000" stroke="none" 
	d="
M1489.000000,4.000000 
	C1489.000000,168.358231 1489.000000,332.716461 1488.562988,497.720245 
	C1486.629150,498.405518 1485.132080,498.480011 1483.635132,498.480072 
	C1356.593018,498.485443 1229.551025,498.485443 1102.508911,498.480408 
	C1101.011841,498.480347 1099.514648,498.410126 1097.957520,497.882324 
	C1097.408813,453.870178 1089.866821,411.655304 1073.987305,371.075256 
	C1049.031006,307.298981 1009.200745,254.706497 953.904053,214.268295 
	C898.849609,174.007248 837.102783,151.550644 768.951599,146.734467 
	C725.577393,143.669266 683.126892,148.663620 641.753479,161.600739 
	C575.616516,182.281219 519.830261,218.915588 475.325439,272.241333 
	C439.765381,314.849365 415.520874,363.161896 402.697083,417.228577 
	C396.362732,443.934784 393.623993,471.014862 392.503174,498.416260 
	C263.165344,498.467987 134.291412,498.477844 5.417485,498.464417 
	C3.944974,498.464264 2.472495,498.161499 1.000000,498.000000 
	C1.000000,333.641754 1.000000,169.283524 1.458986,4.357958 
	C3.749856,3.757935 5.581740,3.696584 7.413624,3.696568 
	C499.118439,3.692417 990.823242,3.692128 1482.528076,3.705198 
	C1484.685425,3.705256 1486.842651,3.897507 1489.000000,4.000000 
z"/>
<path fill="#F57900" opacity="1.000000" stroke="none" 
	d="
M1098.017578,498.372650 
	C1099.514648,498.410126 1101.011841,498.480347 1102.508911,498.480408 
	C1229.551025,498.485443 1356.593018,498.485443 1483.635132,498.480072 
	C1485.132080,498.480011 1486.629150,498.405518 1488.562988,498.182892 
	C1489.000000,662.021423 1489.000000,826.042908 1488.552368,990.532227 
	C992.403137,991.000122 496.701569,991.000061 1.000000,991.000000 
	C1.000000,826.978577 1.000000,662.957153 1.000000,498.467834 
	C2.472495,498.161499 3.944974,498.464264 5.417485,498.464417 
	C134.291412,498.477844 263.165344,498.467987 392.540833,498.850098 
	C393.734802,511.367950 393.906403,523.551819 395.211121,535.613098 
	C400.417480,583.743042 414.917664,628.955200 438.640961,671.197754 
	C459.424286,708.205261 486.221100,740.244507 518.581543,767.597656 
	C554.781860,798.196655 595.524353,820.597351 640.907227,834.513062 
	C668.413757,842.947327 696.468201,848.781860 725.198120,849.686646 
	C744.944153,850.308411 764.841309,849.652100 784.526978,847.925537 
	C823.892212,844.473022 861.313721,833.173035 896.961304,816.320007 
	C941.076111,795.463867 978.907166,766.165955 1011.067383,729.504639 
	C1041.216431,695.136047 1063.444946,656.189148 1078.487183,613.066772 
	C1091.442627,575.926575 1097.386353,537.605042 1098.017578,498.372650 
z"/>
<path fill="#E4E7FA" opacity="1.000000" stroke="none" 
	d="
M1489.000000,3.500000 
	C1486.842651,3.897507 1484.685425,3.705256 1482.528076,3.705198 
	C990.823242,3.692128 499.118439,3.692417 7.413624,3.696568 
	C5.581740,3.696584 3.749856,3.757935 1.458986,3.895320 
	C1.048076,2.345619 0.378556,0.128286 3.506575,0.975730 
	C4.127656,1.143994 4.833333,1.000000 5.500000,1.000000 
	C498.500000,1.000000 991.500000,0.997383 1484.500000,1.141144 
	C1485.788696,1.141520 1489.127441,-1.328458 1489.000000,3.500000 
z"/>
<path fill="#FFFFFF" opacity="1.000000" stroke="none" 
	d="
M0.999998,991.500000 
	C496.701569,991.000061 992.403137,991.000122 1488.552368,991.000122 
	C1488.666626,991.666687 1488.452026,992.783691 1487.976074,992.909058 
	C1486.885132,993.196533 1485.666626,993.000000 1484.500000,993.000000 
	C991.500000,993.000000 498.500000,993.000916 5.500003,992.958862 
	C3.999970,992.958740 2.499995,992.333374 0.999998,991.500000 
z"/>
<path fill="#FFD000" opacity="1.000000" stroke="none" 
	d="
M1097.957520,497.882324 
	C1097.386353,537.605042 1091.442627,575.926575 1078.487183,613.066772 
	C1063.444946,656.189148 1041.216431,695.136047 1011.067383,729.504639 
	C978.907166,766.165955 941.076111,795.463867 896.961304,816.320007 
	C861.313721,833.173035 823.892212,844.473022 784.526978,847.925537 
	C764.841309,849.652100 744.944153,850.308411 725.198120,849.686646 
	C696.468201,848.781860 668.413757,842.947327 640.907227,834.513062 
	C595.524353,820.597351 554.781860,798.196655 518.581543,767.597656 
	C486.221100,740.244507 459.424286,708.205261 438.640961,671.197754 
	C414.917664,628.955200 400.417480,583.743042 395.211121,535.613098 
	C393.906403,523.551819 393.734802,511.367950 393.004730,498.806610 
	C393.623993,471.014862 396.362732,443.934784 402.697083,417.228577 
	C415.520874,363.161896 439.765381,314.849365 475.325439,272.241333 
	C519.830261,218.915588 575.616516,182.281219 641.753479,161.600739 
	C683.126892,148.663620 725.577393,143.669266 768.951599,146.734467 
	C837.102783,151.550644 898.849609,174.007248 953.904053,214.268295 
	C1009.200745,254.706497 1049.031006,307.298981 1073.987305,371.075256 
	C1089.866821,411.655304 1097.408813,453.870178 1097.957520,497.882324 
M633.957520,517.624146 
	C640.901489,513.755798 647.521912,509.074066 654.845947,506.161530 
	C684.827026,494.239014 716.538208,491.056000 748.351685,490.169678 
	C787.908813,489.067657 827.075134,486.902832 865.074219,474.167084 
	C891.770264,465.219635 914.976929,451.664734 933.018494,429.760773 
	C937.619934,424.174194 939.066040,418.134796 937.476746,411.161560 
	C933.597229,394.139618 930.268372,376.975922 925.845825,360.097778 
	C918.930237,333.705231 911.337158,307.473541 898.998535,282.959778 
	C896.855774,278.702637 894.000854,274.681885 890.867981,271.079712 
	C887.766113,267.513184 884.018494,267.603088 881.505737,271.007629 
	C874.307312,280.760803 864.472778,287.203735 854.430481,293.520966 
	C811.086670,320.787048 764.233948,330.065338 713.848694,320.949554 
	C698.149902,318.109314 682.674744,313.789795 666.891296,311.711853 
	C635.500427,307.579132 605.910095,313.288422 578.850586,330.306061 
	C577.644348,327.040985 576.865295,323.512054 575.072327,320.609406 
	C573.991150,318.859161 571.022522,316.818359 569.466553,317.201385 
	C567.683289,317.640350 565.580688,320.485626 565.294678,322.521240 
	C564.724731,326.577942 564.727905,330.907776 565.511841,334.926270 
	C567.962280,347.486176 570.241821,360.137054 573.738525,372.425201 
	C589.292175,427.085022 604.322815,481.919647 621.280029,536.147766 
	C644.835571,611.476929 669.930481,686.324951 694.437317,761.355713 
	C695.511047,764.643250 696.896851,767.979919 698.877686,770.767639 
	C700.222168,772.659790 702.862488,773.631042 704.923279,775.014160 
	C705.736450,772.822388 707.372803,770.562195 707.197449,768.452576 
	C706.787720,763.523865 705.938904,758.537537 704.511414,753.802612 
	C694.582520,720.869019 684.361816,688.023376 674.424316,655.092346 
	C660.646179,609.433838 647.034363,563.725220 633.957520,517.624146 
z"/>
<path fill="#BE0000" opacity="1.000000" stroke="none" 
	d="
M579.143555,331.005249 
	C605.910095,313.288422 635.500427,307.579132 666.891296,311.711853 
	C682.674744,313.789795 698.149902,318.109314 713.848694,320.949554 
	C764.233948,330.065338 811.086670,320.787048 854.430481,293.520966 
	C864.472778,287.203735 874.307312,280.760803 881.505737,271.007629 
	C884.018494,267.603088 887.766113,267.513184 890.867981,271.079712 
	C894.000854,274.681885 896.855774,278.702637 898.998535,282.959778 
	C911.337158,307.473541 918.930237,333.705231 925.845825,360.097778 
	C930.268372,376.975922 933.597229,394.139618 937.476746,411.161560 
	C939.066040,418.134796 937.619934,424.174194 933.018494,429.760773 
	C914.976929,451.664734 891.770264,465.219635 865.074219,474.167084 
	C827.075134,486.902832 787.908813,489.067657 748.351685,490.169678 
	C716.538208,491.056000 684.827026,494.239014 654.845947,506.161530 
	C647.521912,509.074066 640.901489,513.755798 633.516602,517.519470 
	C632.032349,514.444580 630.846619,511.515808 629.967590,508.497711 
	C620.431519,475.758575 610.862122,443.028778 601.468262,410.248779 
	C593.908325,383.868195 586.576538,357.422211 579.143555,331.005249 
z"/>
<path fill="#241D18" opacity="1.000000" stroke="none" 
	d="
M578.997070,330.655640 
	C586.576538,357.422211 593.908325,383.868195 601.468262,410.248779 
	C610.862122,443.028778 620.431519,475.758575 629.967590,508.497711 
	C630.846619,511.515808 632.032349,514.444580 633.213501,517.726440 
	C647.034363,563.725220 660.646179,609.433838 674.424316,655.092346 
	C684.361816,688.023376 694.582520,720.869019 704.511414,753.802612 
	C705.938904,758.537537 706.787720,763.523865 707.197449,768.452576 
	C707.372803,770.562195 705.736450,772.822388 704.923340,775.014160 
	C702.862488,773.631042 700.222168,772.659790 698.877686,770.767639 
	C696.896851,767.979919 695.511047,764.643250 694.437317,761.355713 
	C669.930481,686.324951 644.835571,611.476929 621.280029,536.147766 
	C604.322815,481.919647 589.292175,427.085022 573.738525,372.425201 
	C570.241821,360.137054 567.962280,347.486176 565.511841,334.926270 
	C564.727905,330.907776 564.724731,326.577942 565.294678,322.521240 
	C565.580688,320.485626 567.683289,317.640350 569.466553,317.201385 
	C571.022522,316.818359 573.991150,318.859161 575.072327,320.609406 
	C576.865295,323.512054 577.644348,327.040985 578.997070,330.655640 
z"/>
</svg>