<svg xmlns="http://www.w3.org/2000/svg" viewBox="0 0 2220 1600" font-family="Arial, Helvetica, sans-serif">
<rect width="2220" height="1600" fill="#FFF"/>
<rect x="150" y="150" width="1920" height="400" fill="#00A859"/>
<rect x="150" y="550" width="1920" height="40" fill="#FFF"/>
<rect x="150" y="590" width="1920" height="400" fill="#000"/>
<rect x="150" y="990" width="1920" height="40" fill="#FFF"/>
<rect x="150" y="1030" width="1920" height="400" fill="#FFCC00"/>
<polygon points="150,150 150,1430 990,790" fill="#D21034"/>
<polygon points="430.0,614.0 472.3,731.8 597.4,735.6 498.5,812.2 533.5,932.4 430.0,862.0 326.5,932.4 361.5,812.2 262.6,735.6 387.7,731.8" fill="#FFCC00" stroke="#B8860B" stroke-width="2"/>
<g transform="translate(430,790)" stroke="#111" stroke-linejoin="round" stroke-linecap="round">
      <path d="M -58 40 Q 0 24 58 40 L 58 52 Q 0 36 -58 52 Z" fill="#F7F7F7" stroke-width="3"/>
      <line x1="0" y1="34" x2="0" y2="52" stroke-width="2.5"/>
      <line x1="-50" y1="30" x2="46" y2="-40" stroke="#EEE" stroke-width="7"/>
      <line x1="-50" y1="30" x2="46" y2="-40" stroke="#111" stroke-width="2"/>
      <polygon points="44,-44 56,-40 48,-30" fill="#111"/>
      <line x1="50" y1="30" x2="-46" y2="-40" stroke="#EEE" stroke-width="7"/>
      <line x1="50" y1="30" x2="-46" y2="-40" stroke="#111" stroke-width="2"/>
      <path d="M -46 -40 q -12 -4 -14 8 q 10 2 14 -8 Z" fill="#F7F7F7" stroke-width="2"/>
    </g>
<rect x="150" y="150" width="1920" height="1280" fill="none" stroke="#111" stroke-width="3"/>
<line x1="630" y1="150" x2="630" y2="1430" stroke="#444" stroke-width="1.5" stroke-dasharray="9 7" opacity="0.65"/>
<line x1="1590" y1="150" x2="1590" y2="1430" stroke="#444" stroke-width="1.5" stroke-dasharray="9 7" opacity="0.65"/>
<line x1="990" y1="150" x2="990" y2="1430" stroke="#444" stroke-width="1.5" stroke-dasharray="9 7" opacity="0.65"/>
<line x1="150" y1="550" x2="2070" y2="550" stroke="#444" stroke-width="1.5" stroke-dasharray="9 7" opacity="0.65"/>
<line x1="150" y1="590" x2="2070" y2="590" stroke="#444" stroke-width="1.5" stroke-dasharray="9 7" opacity="0.65"/>
<line x1="150" y1="990" x2="2070" y2="990" stroke="#444" stroke-width="1.5" stroke-dasharray="9 7" opacity="0.65"/>
<line x1="150" y1="1030" x2="2070" y2="1030" stroke="#444" stroke-width="1.5" stroke-dasharray="9 7" opacity="0.65"/>
<line x1="150" y1="790" x2="2070" y2="790" stroke="#444" stroke-width="1.5" stroke-dasharray="9 7" opacity="0.65"/>
<g stroke="#2540E8" stroke-width="2.5" fill="#2540E8"><line x1="150" y1="70" x2="630" y2="70"/><polygon points="150,70 164,63 164,77"/><polygon points="630,70 616,63 616,77"/><text x="390.0" y="56" font-size="44" text-anchor="middle" stroke="none">12</text></g>
<g stroke="#2540E8" stroke-width="2.5" fill="#2540E8"><line x1="630" y1="70" x2="1590" y2="70"/><polygon points="630,70 644,63 644,77"/><polygon points="1590,70 1576,63 1576,77"/><text x="1110.0" y="56" font-size="44" text-anchor="middle" stroke="none">24</text></g>
<g stroke="#2540E8" stroke-width="2.5" fill="#2540E8"><line x1="1590" y1="70" x2="2070" y2="70"/><polygon points="1590,70 1604,63 1604,77"/><polygon points="2070,70 2056,63 2056,77"/><text x="1830.0" y="56" font-size="44" text-anchor="middle" stroke="none">12</text></g>
<g stroke="#2540E8" stroke-width="2.5" fill="#2540E8"><line x1="150" y1="1510" x2="2070" y2="1510"/><polygon points="150,1510 164,1503 164,1517"/><polygon points="2070,1510 2056,1503 2056,1517"/><text x="1110.0" y="1496" font-size="44" text-anchor="middle" stroke="none">48</text></g>
<g stroke="#2540E8" stroke-width="2.5" fill="#2540E8"><line x1="70" y1="150" x2="70" y2="550"/><polygon points="70,150 63,164 77,164"/><polygon points="70,550 63,536 77,536"/><text x="54" y="365.0" font-size="44" text-anchor="end" stroke="none">C</text></g>
<g stroke="#2540E8" stroke-width="2.5" fill="#2540E8"><line x1="70" y1="550" x2="70" y2="590"/><polygon points="70,550 63,564 77,564"/><polygon points="70,590 63,576 77,576"/><text x="54" y="585.0" font-size="44" text-anchor="end" stroke="none">D</text></g>
<g stroke="#2540E8" stroke-width="2.5" fill="#2540E8"><line x1="70" y1="590" x2="70" y2="990"/><polygon points="70,590 63,604 77,604"/><polygon points="70,990 63,976 77,976"/><text x="54" y="805.0" font-size="44" text-anchor="end" stroke="none">C</text></g>
<g stroke="#2540E8" stroke-width="2.5" fill="#2540E8"><line x1="70" y1="990" x2="70" y2="1030"/><polygon points="70,990 63,1004 77,1004"/><polygon points="70,1030 63,1016 77,1016"/><text x="54" y="1025.0" font-size="44" text-anchor="end" stroke="none">D</text></g>
<g stroke="#2540E8" stroke-width="2.5" fill="#2540E8"><line x1="70" y1="1030" x2="70" y2="1430"/><polygon points="70,1030 63,1044 77,1044"/><polygon points="70,1430 63,1416 77,1416"/><text x="54" y="1245.0" font-size="44" text-anchor="end" stroke="none">C</text></g>
<g stroke="#2540E8" stroke-width="2.5" fill="#2540E8"><line x1="2150" y1="150" x2="2150" y2="1430"/><polygon points="2150,150 2143,164 2157,164"/><polygon points="2150,1430 2143,1416 2157,1416"/><text x="2134" y="805.0" font-size="44" text-anchor="end" stroke="none">32</text></g>
<g stroke="#0A8A0A" stroke-width="2.5" fill="#0A8A0A"><line x1="150" y1="880" x2="990" y2="880"/><polygon points="150,880 164,873 164,887"/><polygon points="990,880 976,873 976,887"/><text x="570.0" y="866" font-size="44" text-anchor="middle" stroke="none">A=21</text></g>
<text x="70" y="1565" font-size="42" font-weight="700" fill="#0A8A0A">[MZ]</text>
<text x="2190" y="1565" font-size="42" font-weight="700" fill="#0A8A0A" text-anchor="end">[2:3]</text>
</svg>