<svg width="1000" height="600" viewBox="0 0 1000 600" fill="none" xmlns="http://www.w3.org/2000/svg">
<g clip-path="url(#clip0_328_72)">
<path d="M0 0H1000V600H0V0Z" fill="#002395"/>
<path d="M0 116.667V0H194.444L1000 483.333V600H805.556L0 116.667Z" fill="#C4001A"/>
<path fill-rule="evenodd" clip-rule="evenodd" d="M526.167 227.917C528.278 228.083 528.361 228.111 528.278 228.472C528.167 228.889 526.75 231.389 525.944 232.556C525 233.944 523.5 235.333 521.639 236.556C518.972 238.278 518.555 238.583 518.389 238.889C518.278 239.139 518.305 239.222 518.528 239.389C519 239.778 522.555 240.472 525.583 240.722C529.389 241.083 532.639 240.639 541.528 238.639C544.444 237.972 545.222 237.833 545.305 237.944C545.472 238.167 545.305 240.889 545.083 242.028C544.305 245.694 541.972 248.694 537.055 252.278C536.25 252.861 535.639 253.389 535.694 253.444C535.833 253.556 543.222 255.028 545.167 255.333C547.694 255.694 549.194 255.778 553.583 255.778C557.694 255.778 559.917 255.639 566.278 255.056C566.833 255 566.972 255 566.972 255.139C566.972 255.361 565.917 257.028 564.667 258.806C563.389 260.583 560.944 263.083 559.111 264.472C555.167 267.417 551.611 268.806 545.194 269.889C544.583 270 544.083 270.139 544.139 270.167C544.25 270.278 547.333 271.194 549.278 271.667C553.555 272.75 555.778 273 561.833 273.056C566.805 273.111 568.222 273.056 573.083 272.611C574.528 272.5 575.778 272.417 575.805 272.444C575.889 272.528 574.972 273.694 573.75 275.083C570.778 278.417 566.694 280.417 560.333 281.722C551.694 283.5 537.75 284.222 529.333 283.361C526.528 283.056 524.417 282.667 521.417 281.861C520.5 281.611 519.694 281.417 519.639 281.417C519.333 281.417 521.194 283.5 522.222 284.333C523.111 285.056 527.889 288.556 528.111 288.639C528.222 288.667 528.222 288.722 528.167 288.806C527.972 289 526.639 289.139 523.472 289.278C517.167 289.556 512.639 288.833 509 287.028C508.055 286.556 506.639 285.639 505.167 284.528C504.5 284.056 503.944 283.639 503.889 283.639C503.805 283.639 504.667 285.361 505.472 286.75C507.555 290.389 511.5 294.305 514.639 295.889C515.917 296.555 517.833 297.167 519.278 297.417C520.778 297.667 520.639 297.722 521.583 296.444C522.583 295.056 524.305 293.25 525.25 292.583C526.055 292 527.167 291.444 528 291.222C528.833 291 531.583 291.028 532.944 291.25C535.055 291.611 537.444 292.583 538.722 293.639C539.528 294.278 540.167 295.111 540.778 296.222L541.25 297.083L540.361 297.222C538.278 297.528 537.305 298.528 536.944 300.694C536.75 301.806 537.278 303.833 537.917 304.528C538.25 304.917 539 305.25 540.5 305.778C542.222 306.361 542.528 306.528 542.583 307.028C542.611 307.361 542.528 307.472 541.861 308.111C541.472 308.472 540.639 309.139 540 309.528C538.917 310.25 538.444 310.75 538.278 311.361C538.222 311.555 538.25 311.639 538.417 311.722C538.667 311.861 538.639 311.861 545.222 312.389C549.694 312.75 550.889 312.806 554 312.806C558.055 312.806 559.083 312.694 561.305 312.139C564.055 311.417 566.167 310.583 568.111 309.472C573.222 306.472 576.555 305.278 579.333 305.5C584.389 305.917 590.167 310.083 591.389 314.222C591.5 314.556 591.611 315.25 591.639 315.778C591.722 316.75 591.528 319.139 591.361 319.306C591.333 319.361 591.083 319.25 590.833 319.083C586.833 316.306 584.833 315.417 582.028 315.083C579.75 314.833 578.861 315.111 575.444 317.139C571.639 319.417 570.111 320.111 567.472 320.778C564.805 321.5 561.5 321.972 556.361 322.417C554.805 322.556 553.528 322.694 553.5 322.722C553.389 322.833 555.361 324.417 556.639 325.25C559.111 326.861 561.667 327.694 565.861 328.306C567.972 328.611 569.861 328.694 573.861 328.694C579.111 328.694 580.444 328.583 585.222 327.694C586.528 327.444 587.583 327.278 587.639 327.278C587.722 327.417 587.472 327.889 586.611 329.194C584.083 333 582.305 334.694 579.194 336.167C575.611 337.889 571.528 338.583 564 338.778C562.528 338.806 561.194 338.861 561.055 338.889C560.805 338.944 560.833 339 561.5 339.861C562.472 341.139 564.417 343.139 565.222 343.694C567.972 345.639 571.861 346.333 576.889 345.722C577.805 345.639 578.639 345.583 578.75 345.611C579.055 345.722 578.861 347.306 578.444 348.194C577.778 349.583 576.528 350.972 575.333 351.639L574.75 351.972L575.583 352.944C576.528 354.028 577.389 355.639 577.972 357.278C578.333 358.361 578.555 359.889 578.555 361.694V362.722L577.278 362.972C575.472 363.306 574.361 363.361 573.083 363.194C570.972 362.944 569.222 362.194 567 360.639C566.361 360.194 565.778 359.833 565.722 359.861C565.667 359.889 565.333 360.278 564.972 360.722C563.778 362.278 562.417 362.944 560.278 363.056L559.028 363.111L558.944 361.889C558.917 361.222 558.778 359.889 558.667 358.944C558.139 355 557.639 353.528 556.083 351.667C555.389 350.833 552.055 347.694 551.861 347.694C551.778 347.694 551.694 348.417 551.583 349.694C551.222 355.278 550.722 358.194 549.75 360.472C548.555 363.306 546.444 365.417 543.694 366.583C542.222 367.167 538.222 368.194 538.028 368C537.972 367.944 538.222 367.444 538.583 366.833C541 362.528 541.722 360.083 542.028 355.167C542.222 352.139 541.889 347.111 541.278 344.25C540.75 341.556 539.833 339.528 538.583 338.139C537.972 337.5 537.861 337.611 537.861 338.944C537.861 340 537.611 342.639 537.417 343.472C537.111 344.972 535.833 346.972 533.555 349.611C531.055 352.528 529.639 354.889 529.167 357.055C528.805 358.639 529.111 361.139 529.889 362.944C530.611 364.694 531.972 366.555 532.917 367.167L533.194 367.333L532.944 367.472C532.528 367.694 531.583 367.833 530.333 367.833C529.278 367.833 529.055 367.778 527.972 367.417C526.555 366.917 524.139 365.75 523.028 365.056C521.694 364.194 520.5 363.194 519.25 361.944C517.444 360.111 516.75 359.083 516.194 357.417C515.694 355.944 515.583 354.861 515.639 352.389C515.694 350.389 515.722 350.167 516 349.333C516.389 348.194 516.694 347.667 518.333 345.222C520.972 341.278 521.222 340.472 521.333 335.583C521.389 332.333 521.25 329.722 520.972 328.194C520.805 327.278 520.417 326.472 520.194 326.472C519.917 326.472 519.194 327.222 517.889 328.944C516.5 330.75 516.111 331.111 515.778 330.889C515.667 330.833 515.167 330.111 514.694 329.333C512.722 326.028 511.611 325 509.722 324.639C508.278 324.389 506.222 324.833 504.389 325.806C503.555 326.25 501.194 327.889 500 328.861L499.361 329.389L498.667 327.278C497.778 324.472 497.555 323.611 497.389 322.139C497.278 321.083 497.305 320.722 497.444 319.806C497.583 319.167 497.778 318.361 497.944 317.944C498.333 316.972 499.111 315.778 499.694 315.278C500.167 314.889 501.611 314.111 501.889 314.111C501.944 314.111 502.139 314.056 502.305 314C502.583 313.889 502.583 313.861 502.472 313.639C502.222 313.167 501.555 312.417 501.139 312.139C500.917 311.972 499.417 311.472 497.417 310.917C489.917 308.75 484.639 306.639 478.528 303.361C471.528 299.611 466.583 296.056 464 293C461.861 290.417 460.805 288.167 459.555 283.444C459.417 282.944 459.278 282.528 459.222 282.528C459.167 282.528 458.805 283.056 458.444 283.722C455.722 288.417 452.028 291.222 448.083 291.694L447.444 291.778L448.111 290.028C449.722 285.722 450.861 281.722 451.194 279.222C451.444 277.389 451.361 274.056 451.028 272.528C450.694 271 448.917 265.555 448.417 264.639C448.333 264.472 448.222 264.528 447.361 265.028C445.278 266.222 443.417 266.75 441.583 266.639C441 266.611 440.361 266.528 440.167 266.472C439.861 266.389 439.833 266.361 439.833 265.722C439.861 265.361 439.917 264.528 440 263.889C440.194 262.417 440.111 260.944 439.805 260.25C439.555 259.694 438.805 259 438.222 258.75C435.75 257.694 432.055 257.917 430.917 259.222C430.583 259.583 430.111 260.667 430.111 261.056C430.111 261.333 429.667 262.639 429.25 263.556C428.528 265.111 427.305 265.917 425.555 265.944C423.472 265.944 421.611 265.028 420.055 263.222C418.944 261.917 418.361 260.889 417.639 258.944C415.75 253.944 415.5 251.055 416.694 248.167C417.555 246.055 418.75 244.528 420.5 243.167C421.944 242.028 422.833 241.583 425.5 240.583C426.861 240.056 428.194 239.5 428.444 239.333C429.028 238.944 429.5 238.222 429.861 237.083C430.139 236.278 430.167 236 430.167 234.611C430.167 233.278 430.111 232.917 429.917 232.305C429.778 231.889 429.667 231.472 429.667 231.305C429.667 231.083 429.722 231.055 429.917 231.111C430.639 231.333 431.805 231.889 432.889 232.528C435.389 234 437.889 237.083 438.694 239.639C439.028 240.694 439.528 241.389 440.25 241.75C441.75 242.528 446.167 242.472 448.944 241.667C450.861 241.139 452.694 240.111 454.528 238.639C455.028 238.222 455.444 237.917 455.5 237.917C455.639 237.917 455.889 239.028 456.083 240.361C456.25 241.5 456.139 242.278 455.5 244.278C454.972 245.972 454.861 246.972 455.222 247.361C455.972 248.167 461.583 250.75 465.111 251.889C467.472 252.639 470.25 253.25 472.75 253.583C473.417 253.667 474.028 253.806 474.083 253.861C474.25 254.028 473.417 254.5 470.917 255.75C469.694 256.333 468.5 256.917 468.222 257.056C467.472 257.417 466.778 258.167 466.694 258.667C466.5 259.556 467.222 260.917 469.028 263.028C469.528 263.639 470.25 264.528 470.639 265C472.194 266.972 473.278 268 473.972 268.083C474.611 268.167 475.167 267.972 476.361 267.167C477.472 266.417 481.111 264.361 486.222 261.5L489.555 259.667V258C489.555 255.972 489.361 254.944 488.778 253.694C488.194 252.528 487.833 252.111 486.639 251.306C485.333 250.417 484.722 250.222 482.389 249.833C479.111 249.278 477.889 248.889 477.25 248.111C476.972 247.778 476.944 247.694 477 247.056C477.111 245.944 477.861 244.472 478.917 243.389C480.278 241.972 480.278 242.028 480.361 238.306C480.389 236.167 480.444 235.056 480.555 234.833C481.055 233.639 482.222 233.028 484.833 232.583C485.778 232.417 486.667 232.417 492.528 232.472C501.278 232.583 505.861 232.417 509.222 231.833C511.805 231.417 512.528 231.139 516.694 228.944C518.389 228.056 519 227.889 520.861 227.806C522.472 227.75 524.167 227.778 526.167 227.917ZM430.333 247.694C430.305 247.667 429.972 247.861 429.583 248.111C428.667 248.722 427.722 249 426.111 249.167C425.389 249.222 424.222 249.333 423.555 249.389C422.333 249.5 421.555 249.722 421.25 250.083C421.139 250.25 421.111 250.778 421.222 253.222C421.278 254.861 421.389 256.389 421.472 256.639C421.555 256.944 421.861 257.333 422.444 257.917L423.278 258.75L423.639 258.361C423.833 258.139 424.278 257.639 424.611 257.25C425.694 256 426.694 255.528 428.917 255.167C429.694 255.028 430.111 254.917 430.083 254.833C430.055 254.778 429.944 254.305 429.833 253.833C429.555 252.583 429.639 250.528 430.055 248.944C430.222 248.278 430.333 247.75 430.333 247.694Z" fill="white"/>
<path d="M427.083 254.333C426.805 255.305 425.722 256 424.722 255.833C423.694 255.667 422.833 254.583 422.972 253.611C423.055 253 423.555 252.305 424.167 252C425.694 251.194 427.528 252.694 427.083 254.333Z" fill="white"/>
<path d="M458.722 289.333C458.861 289.417 459.278 290.056 459.667 290.75C462.444 295.75 464.889 298.444 469.306 301.417C470.944 302.528 473.361 303.889 475.444 304.889C478.444 306.333 479.75 306.778 482.806 307.417C486.389 308.167 488.361 309.139 490.111 311.028C493 314.139 494.194 317.778 494.222 323.583C494.222 327.667 493.75 329.278 491.972 331.111C491.639 331.472 491.306 331.75 491.222 331.722C491.056 331.667 490.972 331.417 489.75 328.361C488.806 325.944 487.222 322.694 486.167 321.111C484.75 318.944 483.333 317.417 481.667 316.222C480.917 315.694 477.556 313.944 477.444 314.028C477.444 314.056 478.056 315.361 478.833 316.944C479.583 318.528 480.472 320.417 480.778 321.111C483.167 326.583 484.472 332.111 485.083 339.444C485.278 341.722 485.278 351.722 485.083 353.694C484.278 362 482.639 366.75 479.056 371.167C478.083 372.389 476.056 374.667 475.944 374.667C475.833 374.667 475.75 374.056 475.5 370.833C474.639 359.361 473.333 351.333 471.583 346.639C470.944 344.944 470.444 343.75 470.333 343.75C470.306 343.75 470.167 344.083 470.056 344.472C469.972 344.861 469.5 346.333 469.028 347.75C466.556 355.278 463.333 361.444 460.167 364.611C458.889 365.889 458.111 366.444 456.806 366.972C456 367.306 454 367.778 453.889 367.694C453.861 367.667 453.944 366.917 454.056 366C454.778 360.639 455.417 353.889 455.583 350.056C455.806 344.056 454.639 338.889 452 334.306C450.778 332.139 448.028 328.167 447.694 328.056C447.611 328.056 447.417 328.833 447.167 330.139C445.306 339.5 443.861 343.639 441.111 347.528C440.194 348.833 437.639 351.389 436.389 352.278C435.167 353.111 433.333 354.056 431.972 354.556C430.861 354.944 428.167 355.667 428.111 355.611C428.083 355.583 428.444 354.889 428.917 354.056C431.667 349.25 432.806 345.389 433.389 338.889C433.583 336.778 433.583 330.389 433.389 328.75C433.139 326.639 432.5 323.194 432.417 323.472C432.389 323.528 432.278 324.583 432.139 325.778C431.833 328.528 431.556 329.972 431 331.667C429.944 334.917 428.278 337.417 425.278 340.361C422.75 342.806 419.583 345.056 417.056 346.222C414.694 347.306 411.583 348.028 409.194 348.028H408.333L409.333 345.028C410.611 341.333 411.389 339.333 412.833 336.278C416.167 329.278 416.667 328.111 417.25 325.778C417.917 323.139 418.167 320.333 418.056 316C418.028 314.306 417.917 312.167 417.861 311.25C417.667 308.694 417.972 306.694 418.889 304.833C420.25 302.083 423.194 299.472 425.917 298.556C428.278 297.778 431.861 297.417 433.389 297.806C434.944 298.167 436.694 299.389 437.611 300.694C438.139 301.472 438.444 302.306 438.833 304.028C439.278 306.083 440.139 307.417 441.389 308.028C442.556 308.583 443.778 308.722 445.917 308.472C448.611 308.167 450.25 307.278 451.111 305.694C451.611 304.75 451.778 304 452.028 301.472C452.444 297.306 452.944 295.417 454.222 292.833C455.083 291.139 456.333 289.556 457.139 289.194C457.528 289 458.361 289.083 458.722 289.333Z" fill="white"/>
<path fill-rule="evenodd" clip-rule="evenodd" d="M795.611 391.806C797.722 391.972 797.805 392 797.722 392.361C797.611 392.778 796.194 395.278 795.389 396.444C794.444 397.833 792.944 399.222 791.083 400.444C788.417 402.167 788 402.472 787.833 402.778C787.722 403.028 787.75 403.111 787.972 403.278C788.444 403.667 792 404.361 795.028 404.611C798.833 404.972 802.083 404.528 810.972 402.528C813.889 401.861 814.667 401.722 814.75 401.833C814.917 402.056 814.75 404.778 814.528 405.917C813.75 409.583 811.417 412.583 806.5 416.167C805.694 416.75 805.083 417.278 805.139 417.333C805.278 417.444 812.667 418.917 814.611 419.222C817.139 419.583 818.639 419.667 823.028 419.667C827.139 419.667 829.361 419.528 835.722 418.944C836.278 418.889 836.417 418.889 836.417 419.028C836.417 419.25 835.361 420.917 834.111 422.694C832.833 424.472 830.389 426.972 828.555 428.361C824.611 431.306 821.055 432.694 814.639 433.778C814.028 433.889 813.528 434.028 813.583 434.056C813.694 434.167 816.778 435.083 818.722 435.556C823 436.639 825.222 436.889 831.278 436.944C836.25 437 837.667 436.944 842.528 436.5C843.972 436.389 845.222 436.306 845.25 436.333C845.333 436.417 844.417 437.583 843.194 438.972C840.222 442.306 836.139 444.306 829.778 445.611C821.139 447.389 807.194 448.111 798.778 447.25C795.972 446.944 793.861 446.556 790.861 445.75C789.944 445.5 789.139 445.306 789.083 445.306C788.778 445.306 790.639 447.389 791.667 448.222C792.555 448.944 797.333 452.444 797.555 452.528C797.667 452.556 797.667 452.611 797.611 452.694C797.417 452.889 796.083 453.028 792.917 453.167C786.611 453.444 782.083 452.722 778.444 450.917C777.5 450.444 776.083 449.528 774.611 448.417C773.944 447.944 773.389 447.528 773.333 447.528C773.25 447.528 774.111 449.25 774.917 450.639C777 454.278 780.944 458.194 784.083 459.778C785.361 460.444 787.278 461.056 788.722 461.306C790.222 461.556 790.083 461.611 791.028 460.333C792.028 458.944 793.75 457.139 794.694 456.472C795.5 455.889 796.611 455.333 797.444 455.111C798.278 454.889 801.028 454.917 802.389 455.139C804.5 455.5 806.889 456.472 808.167 457.528C808.972 458.167 809.611 459 810.222 460.111L810.694 460.972L809.805 461.111C807.722 461.417 806.75 462.417 806.389 464.583C806.194 465.694 806.722 467.722 807.361 468.417C807.694 468.806 808.444 469.139 809.944 469.667C811.667 470.25 811.972 470.417 812.028 470.917C812.055 471.25 811.972 471.361 811.305 472C810.917 472.361 810.083 473.028 809.444 473.417C808.361 474.139 807.889 474.639 807.722 475.25C807.667 475.444 807.694 475.528 807.861 475.611C808.111 475.75 808.083 475.75 814.667 476.278C819.139 476.639 820.333 476.694 823.444 476.694C827.5 476.694 828.528 476.583 830.75 476.028C833.5 475.306 835.611 474.472 837.555 473.361C842.667 470.361 846 469.167 848.778 469.389C853.833 469.806 859.611 473.972 860.833 478.111C860.944 478.444 861.055 479.139 861.083 479.667C861.167 480.639 860.972 483.028 860.805 483.194C860.778 483.25 860.528 483.139 860.278 482.972C856.278 480.194 854.278 479.306 851.472 478.972C849.194 478.722 848.305 479 844.889 481.028C841.083 483.306 839.555 484 836.917 484.667C834.25 485.389 830.944 485.861 825.805 486.306C824.25 486.444 822.972 486.583 822.944 486.611C822.833 486.722 824.805 488.306 826.083 489.139C828.555 490.75 831.111 491.583 835.305 492.194C837.417 492.5 839.305 492.583 843.305 492.583C848.555 492.583 849.889 492.472 854.667 491.583C855.972 491.333 857.028 491.167 857.083 491.167C857.167 491.306 856.917 491.778 856.055 493.083C853.528 496.889 851.75 498.583 848.639 500.056C845.055 501.778 840.972 502.472 833.444 502.667C831.972 502.694 830.639 502.75 830.5 502.778C830.25 502.833 830.278 502.889 830.944 503.75C831.917 505.028 833.861 507.028 834.667 507.583C837.417 509.528 841.305 510.222 846.333 509.611C847.25 509.528 848.083 509.472 848.194 509.5C848.5 509.611 848.305 511.194 847.889 512.083C847.222 513.472 845.972 514.861 844.778 515.528L844.194 515.861L845.028 516.833C845.972 517.917 846.833 519.528 847.417 521.167C847.778 522.25 848 523.778 848 525.583V526.611L846.722 526.861C844.917 527.194 843.805 527.25 842.528 527.083C840.417 526.833 838.667 526.083 836.444 524.528C835.805 524.083 835.222 523.722 835.167 523.75C835.111 523.778 834.778 524.167 834.417 524.611C833.222 526.167 831.861 526.833 829.722 526.944L828.472 527L828.389 525.778C828.361 525.111 828.222 523.778 828.111 522.833C827.583 518.889 827.083 517.417 825.528 515.556C824.833 514.722 821.5 511.583 821.305 511.583C821.222 511.583 821.139 512.306 821.028 513.583C820.667 519.167 820.167 522.083 819.194 524.361C818 527.194 815.889 529.306 813.139 530.472C811.667 531.056 807.667 532.083 807.472 531.889C807.417 531.833 807.667 531.333 808.028 530.722C810.444 526.417 811.167 523.972 811.472 519.056C811.667 516.028 811.333 511 810.722 508.139C810.194 505.444 809.278 503.417 808.028 502.028C807.417 501.389 807.305 501.5 807.305 502.833C807.305 503.889 807.055 506.528 806.861 507.361C806.555 508.861 805.278 510.861 803 513.5C800.5 516.417 799.083 518.778 798.611 520.944C798.25 522.528 798.555 525.028 799.333 526.833C800.055 528.583 801.417 530.444 802.361 531.056L802.639 531.222L802.389 531.361C801.972 531.583 801.028 531.722 799.778 531.722C798.722 531.722 798.5 531.667 797.417 531.306C796 530.806 793.583 529.639 792.472 528.944C791.139 528.083 789.944 527.083 788.694 525.833C786.889 524 786.194 522.972 785.639 521.306C785.139 519.833 785.028 518.75 785.083 516.278C785.139 514.278 785.167 514.056 785.444 513.222C785.833 512.083 786.139 511.556 787.778 509.111C790.417 505.167 790.667 504.361 790.778 499.472C790.833 496.222 790.694 493.611 790.417 492.083C790.25 491.167 789.861 490.361 789.639 490.361C789.361 490.361 788.639 491.111 787.333 492.833C785.944 494.639 785.555 495 785.222 494.778C785.111 494.722 784.611 494 784.139 493.222C782.167 489.917 781.055 488.889 779.167 488.528C777.722 488.278 775.667 488.722 773.833 489.694C773 490.139 770.639 491.778 769.444 492.75L768.805 493.278L768.111 491.167C767.222 488.361 767 487.5 766.833 486.028C766.722 484.972 766.75 484.611 766.889 483.694C767.028 483.056 767.222 482.25 767.389 481.833C767.778 480.861 768.555 479.667 769.139 479.167C769.611 478.778 771.055 478 771.333 478C771.389 478 771.583 477.944 771.75 477.889C772.028 477.778 772.028 477.75 771.917 477.528C771.667 477.056 771 476.306 770.583 476.028C770.361 475.861 768.861 475.361 766.861 474.806C759.361 472.639 754.083 470.528 747.972 467.25C740.972 463.5 736.028 459.944 733.444 456.889C731.305 454.306 730.25 452.056 729 447.333C728.861 446.833 728.722 446.417 728.667 446.417C728.611 446.417 728.25 446.944 727.889 447.611C725.167 452.306 721.472 455.111 717.528 455.583L716.889 455.667L717.555 453.917C719.167 449.611 720.305 445.611 720.639 443.111C720.889 441.278 720.805 437.944 720.472 436.417C720.139 434.889 718.361 429.444 717.861 428.528C717.778 428.361 717.667 428.417 716.805 428.917C714.722 430.111 712.861 430.639 711.028 430.528C710.444 430.5 709.805 430.417 709.611 430.361C709.305 430.278 709.278 430.25 709.278 429.611C709.305 429.25 709.361 428.417 709.444 427.778C709.639 426.306 709.555 424.833 709.25 424.139C709 423.583 708.25 422.889 707.667 422.639C705.194 421.583 701.5 421.806 700.361 423.111C700.028 423.472 699.555 424.556 699.555 424.944C699.555 425.222 699.111 426.528 698.694 427.444C697.972 429 696.75 429.806 695 429.833C692.917 429.833 691.055 428.917 689.5 427.111C688.389 425.806 687.805 424.778 687.083 422.833C685.194 417.833 684.944 414.944 686.139 412.056C687 409.944 688.194 408.417 689.944 407.056C691.389 405.917 692.278 405.472 694.944 404.472C696.305 403.944 697.639 403.389 697.889 403.222C698.472 402.833 698.944 402.111 699.305 400.972C699.583 400.167 699.611 399.889 699.611 398.5C699.611 397.167 699.555 396.806 699.361 396.194C699.222 395.778 699.111 395.361 699.111 395.194C699.111 394.972 699.167 394.944 699.361 395C700.083 395.222 701.25 395.778 702.333 396.417C704.833 397.889 707.333 400.972 708.139 403.528C708.472 404.583 708.972 405.278 709.694 405.639C711.194 406.417 715.611 406.361 718.389 405.556C720.305 405.028 722.139 404 723.972 402.528C724.472 402.111 724.889 401.806 724.944 401.806C725.083 401.806 725.333 402.917 725.528 404.25C725.694 405.389 725.583 406.167 724.944 408.167C724.417 409.861 724.305 410.861 724.667 411.25C725.417 412.056 731.028 414.639 734.555 415.778C736.917 416.528 739.694 417.139 742.194 417.472C742.861 417.556 743.472 417.694 743.528 417.75C743.694 417.917 742.861 418.389 740.361 419.639C739.139 420.222 737.944 420.806 737.667 420.944C736.917 421.306 736.222 422.056 736.139 422.556C735.944 423.444 736.667 424.806 738.472 426.917C738.972 427.528 739.694 428.417 740.083 428.889C741.639 430.861 742.722 431.889 743.417 431.972C744.055 432.056 744.611 431.861 745.805 431.056C746.917 430.306 750.555 428.25 755.667 425.389L759 423.556V421.889C759 419.861 758.805 418.833 758.222 417.583C757.639 416.417 757.278 416 756.083 415.194C754.778 414.306 754.167 414.111 751.833 413.722C748.555 413.167 747.333 412.778 746.694 412C746.417 411.667 746.389 411.583 746.444 410.944C746.555 409.833 747.305 408.361 748.361 407.278C749.722 405.861 749.722 405.917 749.805 402.194C749.833 400.056 749.889 398.944 750 398.722C750.5 397.528 751.667 396.917 754.278 396.472C755.222 396.306 756.111 396.306 761.972 396.361C770.722 396.472 775.305 396.306 778.667 395.722C781.25 395.306 781.972 395.028 786.139 392.833C787.833 391.944 788.444 391.778 790.305 391.694C791.917 391.639 793.611 391.667 795.611 391.806ZM699.778 411.583C699.75 411.556 699.417 411.75 699.028 412C698.111 412.611 697.167 412.889 695.555 413.056C694.833 413.111 693.667 413.222 693 413.278C691.778 413.389 691 413.611 690.694 413.972C690.583 414.139 690.555 414.667 690.667 417.111C690.722 418.75 690.833 420.278 690.917 420.528C691 420.833 691.305 421.222 691.889 421.806L692.722 422.639L693.083 422.25C693.278 422.028 693.722 421.528 694.055 421.139C695.139 419.889 696.139 419.417 698.361 419.056C699.139 418.917 699.555 418.806 699.528 418.722C699.5 418.667 699.389 418.194 699.278 417.722C699 416.472 699.083 414.417 699.5 412.833C699.667 412.167 699.778 411.639 699.778 411.583Z" fill="white"/>
<path d="M696.528 418.222C696.25 419.194 695.166 419.889 694.166 419.722C693.139 419.556 692.278 418.472 692.416 417.5C692.5 416.889 693 416.194 693.611 415.889C695.139 415.083 696.972 416.583 696.528 418.222Z" fill="white"/>
<path d="M728.167 453.222C728.306 453.306 728.722 453.944 729.111 454.639C731.889 459.639 734.333 462.333 738.75 465.306C740.389 466.417 742.805 467.778 744.889 468.778C747.889 470.222 749.194 470.667 752.25 471.306C755.833 472.056 757.805 473.028 759.555 474.917C762.444 478.028 763.639 481.667 763.667 487.472C763.667 491.556 763.194 493.167 761.417 495C761.083 495.361 760.75 495.639 760.667 495.611C760.5 495.556 760.417 495.306 759.194 492.25C758.25 489.833 756.667 486.583 755.611 485C754.194 482.833 752.778 481.306 751.111 480.111C750.361 479.583 747 477.833 746.889 477.917C746.889 477.944 747.5 479.25 748.278 480.833C749.028 482.417 749.917 484.306 750.222 485C752.611 490.472 753.917 496 754.528 503.333C754.722 505.611 754.722 515.611 754.528 517.583C753.722 525.889 752.083 530.639 748.5 535.056C747.528 536.278 745.5 538.556 745.389 538.556C745.278 538.556 745.194 537.944 744.944 534.722C744.083 523.25 742.778 515.222 741.028 510.528C740.389 508.833 739.889 507.639 739.778 507.639C739.75 507.639 739.611 507.972 739.5 508.361C739.417 508.75 738.944 510.222 738.472 511.639C736 519.167 732.778 525.333 729.611 528.5C728.333 529.778 727.556 530.333 726.25 530.861C725.444 531.194 723.444 531.667 723.333 531.583C723.305 531.556 723.389 530.806 723.5 529.889C724.222 524.528 724.861 517.778 725.028 513.944C725.25 507.944 724.083 502.778 721.444 498.194C720.222 496.028 717.472 492.056 717.139 491.944C717.056 491.944 716.861 492.722 716.611 494.028C714.75 503.389 713.305 507.528 710.555 511.417C709.639 512.722 707.083 515.278 705.833 516.167C704.611 517 702.778 517.944 701.417 518.444C700.305 518.833 697.611 519.556 697.555 519.5C697.528 519.472 697.889 518.778 698.361 517.944C701.111 513.139 702.25 509.278 702.833 502.778C703.028 500.667 703.028 494.278 702.833 492.639C702.583 490.528 701.944 487.083 701.861 487.361C701.833 487.417 701.722 488.472 701.583 489.667C701.278 492.417 701 493.861 700.444 495.556C699.389 498.806 697.722 501.306 694.722 504.25C692.194 506.694 689.028 508.944 686.5 510.111C684.139 511.194 681.028 511.917 678.639 511.917H677.778L678.778 508.917C680.055 505.222 680.833 503.222 682.278 500.167C685.611 493.167 686.111 492 686.694 489.667C687.361 487.028 687.611 484.222 687.5 479.889C687.472 478.194 687.361 476.056 687.305 475.139C687.111 472.583 687.417 470.583 688.333 468.722C689.694 465.972 692.639 463.361 695.361 462.444C697.722 461.667 701.305 461.306 702.833 461.694C704.389 462.056 706.139 463.278 707.055 464.583C707.583 465.361 707.889 466.194 708.278 467.917C708.722 469.972 709.583 471.306 710.833 471.917C712 472.472 713.222 472.611 715.361 472.361C718.055 472.056 719.694 471.167 720.555 469.583C721.055 468.639 721.222 467.889 721.472 465.361C721.889 461.194 722.389 459.306 723.667 456.722C724.528 455.028 725.778 453.444 726.583 453.083C726.972 452.889 727.806 452.972 728.167 453.222Z" fill="white"/>
<path fill-rule="evenodd" clip-rule="evenodd" d="M256.722 66.8055C258.833 66.9722 258.917 67 258.833 67.3611C258.722 67.7778 257.305 70.2778 256.5 71.4444C255.555 72.8333 254.055 74.2222 252.194 75.4444C249.528 77.1666 249.111 77.4722 248.944 77.7778C248.833 78.0278 248.861 78.1111 249.083 78.2778C249.555 78.6667 253.111 79.3611 256.139 79.6111C259.944 79.9722 263.194 79.5278 272.083 77.5278C275 76.8611 275.778 76.7222 275.861 76.8333C276.028 77.0555 275.861 79.7778 275.639 80.9166C274.861 84.5833 272.528 87.5833 267.611 91.1666C266.805 91.75 266.194 92.2778 266.25 92.3333C266.389 92.4444 273.778 93.9166 275.722 94.2222C278.25 94.5833 279.75 94.6667 284.139 94.6667C288.25 94.6667 290.472 94.5278 296.833 93.9444C297.389 93.8889 297.528 93.8889 297.528 94.0278C297.528 94.25 296.472 95.9166 295.222 97.6944C293.944 99.4722 291.5 101.972 289.667 103.361C285.722 106.306 282.167 107.694 275.75 108.778C275.139 108.889 274.639 109.028 274.694 109.056C274.805 109.167 277.889 110.083 279.833 110.556C284.111 111.639 286.333 111.889 292.389 111.944C297.361 112 298.778 111.944 303.639 111.5C305.083 111.389 306.333 111.306 306.361 111.333C306.444 111.417 305.528 112.583 304.305 113.972C301.333 117.306 297.25 119.306 290.889 120.611C282.25 122.389 268.305 123.111 259.889 122.25C257.083 121.944 254.972 121.556 251.972 120.75C251.055 120.5 250.25 120.306 250.194 120.306C249.889 120.306 251.75 122.389 252.778 123.222C253.667 123.944 258.444 127.444 258.667 127.528C258.778 127.556 258.778 127.611 258.722 127.694C258.528 127.889 257.194 128.028 254.028 128.167C247.722 128.444 243.194 127.722 239.555 125.917C238.611 125.444 237.194 124.528 235.722 123.417C235.055 122.944 234.5 122.528 234.444 122.528C234.361 122.528 235.222 124.25 236.028 125.639C238.111 129.278 242.055 133.194 245.194 134.778C246.472 135.444 248.389 136.056 249.833 136.306C251.333 136.556 251.194 136.611 252.139 135.333C253.139 133.944 254.861 132.139 255.805 131.472C256.611 130.889 257.722 130.333 258.555 130.111C259.389 129.889 262.139 129.917 263.5 130.139C265.611 130.5 268 131.472 269.278 132.528C270.083 133.167 270.722 134 271.333 135.111L271.805 135.972L270.917 136.111C268.833 136.417 267.861 137.417 267.5 139.583C267.305 140.694 267.833 142.722 268.472 143.417C268.805 143.806 269.555 144.139 271.055 144.667C272.778 145.25 273.083 145.417 273.139 145.917C273.167 146.25 273.083 146.361 272.417 147C272.028 147.361 271.194 148.028 270.555 148.417C269.472 149.139 269 149.639 268.833 150.25C268.778 150.444 268.805 150.528 268.972 150.611C269.222 150.75 269.194 150.75 275.778 151.278C280.25 151.639 281.444 151.694 284.555 151.694C288.611 151.694 289.639 151.583 291.861 151.028C294.611 150.306 296.722 149.472 298.667 148.361C303.778 145.361 307.111 144.167 309.889 144.389C314.944 144.806 320.722 148.972 321.944 153.111C322.055 153.444 322.167 154.139 322.194 154.667C322.278 155.639 322.083 158.028 321.917 158.194C321.889 158.25 321.639 158.139 321.389 157.972C317.389 155.194 315.389 154.306 312.583 153.972C310.305 153.722 309.417 154 306 156.028C302.194 158.306 300.667 159 298.028 159.667C295.361 160.389 292.055 160.861 286.917 161.306C285.361 161.444 284.083 161.583 284.055 161.611C283.944 161.722 285.917 163.306 287.194 164.139C289.667 165.75 292.222 166.583 296.417 167.194C298.528 167.5 300.417 167.583 304.417 167.583C309.667 167.583 311 167.472 315.778 166.583C317.083 166.333 318.139 166.167 318.194 166.167C318.278 166.306 318.028 166.778 317.167 168.083C314.639 171.889 312.861 173.583 309.75 175.056C306.167 176.778 302.083 177.472 294.555 177.667C293.083 177.694 291.75 177.75 291.611 177.778C291.361 177.833 291.389 177.889 292.055 178.75C293.028 180.028 294.972 182.028 295.778 182.583C298.528 184.528 302.417 185.222 307.444 184.611C308.361 184.528 309.194 184.472 309.305 184.5C309.611 184.611 309.417 186.194 309 187.083C308.333 188.472 307.083 189.861 305.889 190.528L305.305 190.861L306.139 191.833C307.083 192.917 307.944 194.528 308.528 196.167C308.889 197.25 309.111 198.778 309.111 200.583V201.611L307.833 201.861C306.028 202.194 304.917 202.25 303.639 202.083C301.528 201.833 299.778 201.083 297.555 199.528C296.917 199.083 296.333 198.722 296.278 198.75C296.222 198.778 295.889 199.167 295.528 199.611C294.333 201.167 292.972 201.833 290.833 201.944L289.583 202L289.5 200.778C289.472 200.111 289.333 198.778 289.222 197.833C288.694 193.889 288.194 192.417 286.639 190.556C285.944 189.722 282.611 186.583 282.417 186.583C282.333 186.583 282.25 187.306 282.139 188.583C281.778 194.167 281.278 197.083 280.305 199.361C279.111 202.194 277 204.306 274.25 205.472C272.778 206.056 268.778 207.083 268.583 206.889C268.528 206.833 268.778 206.333 269.139 205.722C271.555 201.417 272.278 198.972 272.583 194.056C272.778 191.028 272.444 186 271.833 183.139C271.305 180.444 270.389 178.417 269.139 177.028C268.528 176.389 268.417 176.5 268.417 177.833C268.417 178.889 268.167 181.528 267.972 182.361C267.667 183.861 266.389 185.861 264.111 188.5C261.611 191.417 260.194 193.778 259.722 195.944C259.361 197.528 259.667 200.028 260.444 201.833C261.167 203.583 262.528 205.444 263.472 206.056L263.75 206.222L263.5 206.361C263.083 206.583 262.139 206.722 260.889 206.722C259.833 206.722 259.611 206.667 258.528 206.306C257.111 205.806 254.694 204.639 253.583 203.944C252.25 203.083 251.055 202.083 249.805 200.833C248 199 247.305 197.972 246.75 196.306C246.25 194.833 246.139 193.75 246.194 191.278C246.25 189.278 246.278 189.056 246.555 188.222C246.944 187.083 247.25 186.556 248.889 184.111C251.528 180.167 251.778 179.361 251.889 174.472C251.944 171.222 251.805 168.611 251.528 167.083C251.361 166.167 250.972 165.361 250.75 165.361C250.472 165.361 249.75 166.111 248.444 167.833C247.055 169.639 246.667 170 246.333 169.778C246.222 169.722 245.722 169 245.25 168.222C243.278 164.917 242.167 163.889 240.278 163.528C238.833 163.278 236.778 163.722 234.944 164.694C234.111 165.139 231.75 166.778 230.555 167.75L229.917 168.278L229.222 166.167C228.333 163.361 228.111 162.5 227.944 161.028C227.833 159.972 227.861 159.611 228 158.694C228.139 158.056 228.333 157.25 228.5 156.833C228.889 155.861 229.667 154.667 230.25 154.167C230.722 153.778 232.167 153 232.444 153C232.5 153 232.694 152.944 232.861 152.889C233.139 152.778 233.139 152.75 233.028 152.528C232.778 152.056 232.111 151.306 231.694 151.028C231.472 150.861 229.972 150.361 227.972 149.806C220.472 147.639 215.194 145.528 209.083 142.25C202.083 138.5 197.139 134.944 194.555 131.889C192.417 129.306 191.361 127.056 190.111 122.333C189.972 121.833 189.833 121.417 189.778 121.417C189.722 121.417 189.361 121.944 189 122.611C186.278 127.306 182.583 130.111 178.639 130.583L178 130.667L178.667 128.917C180.278 124.611 181.417 120.611 181.75 118.111C182 116.278 181.917 112.944 181.583 111.417C181.25 109.889 179.472 104.444 178.972 103.528C178.889 103.361 178.778 103.417 177.917 103.917C175.833 105.111 173.972 105.639 172.139 105.528C171.555 105.5 170.917 105.417 170.722 105.361C170.417 105.278 170.389 105.25 170.389 104.611C170.417 104.25 170.472 103.417 170.555 102.778C170.75 101.306 170.667 99.8333 170.361 99.1389C170.111 98.5833 169.361 97.8889 168.778 97.6389C166.305 96.5833 162.611 96.8055 161.472 98.1111C161.139 98.4722 160.667 99.5555 160.667 99.9444C160.667 100.222 160.222 101.528 159.805 102.444C159.083 104 157.861 104.806 156.111 104.833C154.028 104.833 152.167 103.917 150.611 102.111C149.5 100.806 148.917 99.7778 148.194 97.8333C146.305 92.8333 146.055 89.9444 147.25 87.0555C148.111 84.9444 149.305 83.4167 151.055 82.0555C152.5 80.9167 153.389 80.4722 156.055 79.4722C157.417 78.9444 158.75 78.3889 159 78.2222C159.583 77.8333 160.055 77.1111 160.417 75.9722C160.694 75.1667 160.722 74.8889 160.722 73.5C160.722 72.1666 160.667 71.8055 160.472 71.1944C160.333 70.7778 160.222 70.3611 160.222 70.1944C160.222 69.9722 160.278 69.9444 160.472 70C161.194 70.2222 162.361 70.7778 163.444 71.4166C165.944 72.8889 168.444 75.9722 169.25 78.5278C169.583 79.5833 170.083 80.2778 170.805 80.6389C172.305 81.4167 176.722 81.3611 179.5 80.5555C181.417 80.0278 183.25 79 185.083 77.5278C185.583 77.1111 186 76.8055 186.055 76.8055C186.194 76.8055 186.444 77.9167 186.639 79.25C186.805 80.3889 186.694 81.1667 186.055 83.1667C185.528 84.8611 185.417 85.8611 185.778 86.25C186.528 87.0555 192.139 89.6389 195.667 90.7778C198.028 91.5278 200.805 92.1389 203.305 92.4722C203.972 92.5555 204.583 92.6944 204.639 92.75C204.805 92.9166 203.972 93.3889 201.472 94.6389C200.25 95.2222 199.055 95.8055 198.778 95.9444C198.028 96.3055 197.333 97.0555 197.25 97.5555C197.055 98.4444 197.778 99.8055 199.583 101.917C200.083 102.528 200.805 103.417 201.194 103.889C202.75 105.861 203.833 106.889 204.528 106.972C205.167 107.056 205.722 106.861 206.917 106.056C208.028 105.306 211.667 103.25 216.778 100.389L220.111 98.5555V96.8889C220.111 94.8611 219.917 93.8333 219.333 92.5833C218.75 91.4167 218.389 91 217.194 90.1944C215.889 89.3055 215.278 89.1111 212.944 88.7222C209.667 88.1667 208.444 87.7778 207.805 87C207.528 86.6667 207.5 86.5833 207.555 85.9444C207.667 84.8333 208.417 83.3611 209.472 82.2778C210.833 80.8611 210.833 80.9167 210.917 77.1944C210.944 75.0555 211 73.9444 211.111 73.7222C211.611 72.5278 212.778 71.9166 215.389 71.4722C216.333 71.3055 217.222 71.3055 223.083 71.3611C231.833 71.4722 236.417 71.3055 239.778 70.7222C242.361 70.3055 243.083 70.0278 247.25 67.8333C248.944 66.9444 249.555 66.7778 251.417 66.6944C253.028 66.6389 254.722 66.6666 256.722 66.8055ZM160.889 86.5833C160.861 86.5555 160.528 86.75 160.139 87C159.222 87.6111 158.278 87.8889 156.667 88.0555C155.944 88.1111 154.778 88.2222 154.111 88.2778C152.889 88.3889 152.111 88.6111 151.805 88.9722C151.694 89.1389 151.667 89.6667 151.778 92.1111C151.833 93.75 151.944 95.2778 152.028 95.5278C152.111 95.8333 152.417 96.2222 153 96.8055L153.833 97.6389L154.194 97.25C154.389 97.0278 154.833 96.5278 155.167 96.1389C156.25 94.8889 157.25 94.4167 159.472 94.0555C160.25 93.9167 160.667 93.8055 160.639 93.7222C160.611 93.6667 160.5 93.1944 160.389 92.7222C160.111 91.4722 160.194 89.4167 160.611 87.8333C160.778 87.1667 160.889 86.6389 160.889 86.5833Z" fill="white"/>
<path d="M157.639 93.2222C157.361 94.1944 156.278 94.8888 155.278 94.7222C154.25 94.5555 153.389 93.4722 153.528 92.5C153.611 91.8888 154.111 91.1944 154.722 90.8888C156.25 90.0833 158.083 91.5833 157.639 93.2222Z" fill="white"/>
<path d="M189.278 128.222C189.417 128.306 189.833 128.944 190.222 129.639C193 134.639 195.444 137.333 199.861 140.306C201.5 141.417 203.917 142.778 206 143.778C209 145.222 210.306 145.667 213.361 146.306C216.944 147.056 218.917 148.028 220.667 149.917C223.556 153.028 224.75 156.667 224.778 162.472C224.778 166.556 224.306 168.167 222.528 170C222.194 170.361 221.861 170.639 221.778 170.611C221.611 170.556 221.528 170.306 220.306 167.25C219.361 164.833 217.778 161.583 216.722 160C215.306 157.833 213.889 156.306 212.222 155.111C211.472 154.583 208.111 152.833 208 152.917C208 152.944 208.611 154.25 209.389 155.833C210.139 157.417 211.028 159.306 211.333 160C213.722 165.472 215.028 171 215.639 178.333C215.833 180.611 215.833 190.611 215.639 192.583C214.833 200.889 213.194 205.639 209.611 210.056C208.639 211.278 206.611 213.556 206.5 213.556C206.389 213.556 206.306 212.944 206.056 209.722C205.194 198.25 203.889 190.222 202.139 185.528C201.5 183.833 201 182.639 200.889 182.639C200.861 182.639 200.722 182.972 200.611 183.361C200.528 183.75 200.056 185.222 199.583 186.639C197.111 194.167 193.889 200.333 190.722 203.5C189.444 204.778 188.667 205.333 187.361 205.861C186.556 206.194 184.556 206.667 184.444 206.583C184.417 206.556 184.5 205.806 184.611 204.889C185.333 199.528 185.972 192.778 186.139 188.944C186.361 182.944 185.194 177.778 182.556 173.194C181.333 171.028 178.583 167.056 178.25 166.944C178.167 166.944 177.972 167.722 177.722 169.028C175.861 178.389 174.417 182.528 171.667 186.417C170.75 187.722 168.194 190.278 166.944 191.167C165.722 192 163.889 192.944 162.528 193.444C161.417 193.833 158.722 194.556 158.667 194.5C158.639 194.472 159 193.778 159.472 192.944C162.222 188.139 163.361 184.278 163.944 177.778C164.139 175.667 164.139 169.278 163.944 167.639C163.694 165.528 163.056 162.083 162.972 162.361C162.944 162.417 162.833 163.472 162.694 164.667C162.389 167.417 162.111 168.861 161.556 170.556C160.5 173.806 158.833 176.306 155.833 179.25C153.306 181.694 150.139 183.944 147.611 185.111C145.25 186.194 142.139 186.917 139.75 186.917H138.889L139.889 183.917C141.167 180.222 141.944 178.222 143.389 175.167C146.722 168.167 147.222 167 147.806 164.667C148.472 162.028 148.722 159.222 148.611 154.889C148.583 153.194 148.472 151.056 148.417 150.139C148.222 147.583 148.528 145.583 149.444 143.722C150.806 140.972 153.75 138.361 156.472 137.444C158.833 136.667 162.417 136.306 163.944 136.694C165.5 137.056 167.25 138.278 168.167 139.583C168.694 140.361 169 141.194 169.389 142.917C169.833 144.972 170.694 146.306 171.944 146.917C173.111 147.472 174.333 147.611 176.472 147.361C179.167 147.056 180.806 146.167 181.667 144.583C182.167 143.639 182.333 142.889 182.583 140.361C183 136.194 183.5 134.306 184.778 131.722C185.639 130.028 186.889 128.444 187.694 128.083C188.083 127.889 188.917 127.972 189.278 128.222Z" fill="white"/>
<path d="M179.932 -6.18958L659.778 281.176L659.793 281.078L985.774 476.299L985.795 476.27L1013.09 492.614L1013.9 441.666C1013.18 441.79 1012.45 441.866 1011.74 441.897L1011.81 441.812C1009 441.979 1006.34 441.412 1003.88 440.331C1003.52 440.168 1003.16 440.001 1002.81 439.817C1002.71 439.762 1002.6 439.705 1002.49 439.648C991.154 433.428 984.634 416.142 989.608 408.381C988.58 414.172 989.619 418.734 992.734 421.94C993.255 422.445 993.849 422.903 994.477 423.337C994.875 423.632 995.288 423.916 995.732 424.18C997.397 424.981 998.808 425.519 999.837 425.794C1005.9 426.278 1010.32 424.285 1013.11 419.682C1013.59 418.82 1013.98 417.897 1014.3 416.905L1014.42 409.412C1013.48 406.172 1011.25 403.482 1007.72 401.389L1007.08 400.993C1005.16 399.8 1003.24 399.122 1001.18 398.702L1001.04 398.7L1004.28 397.849C1009.09 395.99 1012.23 393.586 1013.82 391.03C1014.17 390.364 1014.47 389.665 1014.75 388.964L1014.9 379.785C1014.07 377.287 1012.52 375.253 1010.22 373.671L1008.56 372.612C1007.66 372.34 1006.63 371.935 1005.35 371.527C1004.56 371.45 1003.8 371.413 1003.07 371.417C1003.04 371.418 1003.03 371.421 1003 371.422C1002.67 371.423 1002.37 371.457 1002.05 371.474C1001.75 371.493 1001.44 371.5 1001.15 371.533C996.963 371.98 993.865 373.937 991.824 377.38L991.556 377.893C990.494 379.683 989.938 382.257 989.757 385.482C989.468 387.414 989.689 389.742 990.677 392.469L990.675 392.592C989.282 390.893 987.625 389.577 985.709 388.385L985.454 388.252C984.305 387.459 982.892 386.92 981.224 386.248C979.961 385.979 978.762 385.833 977.628 385.807C972.807 385.655 969.133 387.679 966.54 391.951C965.745 393.229 965.2 394.9 964.784 396.701C964.304 402.503 966.303 406.795 970.523 409.316C970.82 409.499 971.12 409.666 971.42 409.824C972.062 410.147 972.711 410.41 973.364 410.617C977.96 412.243 982.824 411.024 987.735 407.01L987.733 407.138C984.826 412.903 975.014 415.875 965.614 414.77C965.394 414.743 965.176 414.712 964.957 414.681C964.514 414.62 964.073 414.545 963.634 414.465C963.271 414.399 962.908 414.331 962.548 414.251C962.298 414.197 962.051 414.131 961.802 414.07C960.176 413.666 958.592 413.137 957.097 412.457C957.085 412.451 957.074 412.446 957.063 412.441C950.407 409.398 945.462 403.535 945.854 394.201C945.279 394.545 944.707 394.84 944.137 395.119C943.985 395.193 943.832 395.271 943.68 395.341C943.168 395.577 942.66 395.784 942.154 395.97C941.967 396.038 941.78 396.101 941.594 396.163C941.095 396.328 940.598 396.481 940.106 396.6C939.964 396.635 939.823 396.658 939.681 396.689C939.255 396.781 938.832 396.857 938.412 396.916C938.257 396.938 938.103 396.964 937.949 396.982C937.44 397.039 936.936 397.07 936.435 397.081C936.314 397.084 936.194 397.085 936.074 397.085C935.529 397.084 934.987 397.064 934.454 397.011C934.434 397.01 934.415 397.007 934.396 397.005C933.272 396.889 932.176 396.654 931.111 396.325C931.05 396.306 930.987 396.293 930.928 396.274C930.371 396.095 929.822 395.891 929.283 395.66C916.736 390.283 909.244 371.218 914.847 363.234C913.436 370.7 915.416 376.155 920.787 379.339C922.453 380.141 923.863 380.679 924.892 380.954C930.952 381.438 935.376 379.445 938.161 374.842C938.958 373.435 939.498 371.893 939.914 370.092C940.523 364.291 938.144 359.734 932.773 356.549L932.134 356.153C930.216 354.96 928.291 354.282 926.232 353.862L926.098 353.86L929.339 353.009C934.146 351.149 937.284 348.746 938.875 346.19C939.541 344.909 940.079 343.498 940.487 342.213C941.23 336.157 939.494 331.739 935.28 328.831L933.618 327.772C932.718 327.5 931.692 327.095 930.407 326.687C924.091 326.069 919.67 328.066 917.016 332.542L916.748 333.052C915.687 334.843 915.131 337.416 914.95 340.641C914.661 342.573 914.881 344.901 915.869 347.629L915.867 347.757L915.736 347.755C914.343 346.054 912.685 344.737 910.768 343.545L910.513 343.412C909.363 342.619 907.951 342.08 906.283 341.408C899.721 340.011 894.915 341.87 891.732 347.113C890.937 348.391 890.393 350.06 889.976 351.861C889.496 357.663 891.495 361.957 895.715 364.478C901.085 367.792 906.907 366.981 912.794 362.17L912.925 362.172L912.923 362.3C906.789 374.467 869.867 374.262 870.912 349.361C849.535 362.058 831.981 329.499 839.777 318.392C838.366 325.858 840.343 331.31 845.715 334.495C847.38 335.296 848.793 335.837 849.822 336.111C855.882 336.596 860.303 334.601 863.088 329.997C863.885 328.59 864.427 327.05 864.844 325.249C865.451 319.578 863.07 315.02 857.698 311.835L857.059 311.437C855.141 310.244 853.216 309.569 851.157 309.148L851.026 309.146L854.267 308.295C859.074 306.436 862.212 304.033 863.803 301.476C864.469 300.195 865.007 298.784 865.415 297.5C866.16 291.314 864.296 286.766 859.824 283.854L858.672 283.19C857.775 282.788 856.62 282.381 855.207 281.971C848.89 281.354 844.467 283.347 841.813 287.824L841.548 288.336C840.486 290.127 839.927 292.701 839.747 295.926C839.457 297.858 839.679 300.186 840.668 302.913L840.666 303.041L840.537 303.039C839.144 301.339 837.487 300.019 835.569 298.827L835.311 298.694C834.291 297.903 832.881 297.364 831.213 296.691C824.651 295.295 819.845 297.154 816.662 302.397C815.867 303.675 815.323 305.346 814.906 307.147C814.426 312.949 816.422 317.241 820.643 319.762C826.012 323.076 831.836 322.265 837.724 317.454L837.853 317.456L837.851 317.584C831.716 329.751 794.793 329.546 795.838 304.645C774.46 317.342 756.907 284.783 764.702 273.676C763.292 281.141 765.271 286.596 770.643 289.781C772.308 290.583 773.719 291.121 774.747 291.395C780.807 291.88 785.231 289.887 788.016 285.284C788.813 283.876 789.353 282.334 789.769 280.533C790.376 274.862 787.998 270.307 782.626 267.122L781.987 266.723C780.069 265.53 778.144 264.855 776.085 264.435L775.956 264.433L779.197 263.579C784.004 261.72 787.14 259.317 788.73 256.76C789.396 255.479 789.937 254.068 790.345 252.784C791.223 246.342 789.229 241.792 784.498 238.876L784.117 238.61C784.151 238.611 784.174 238.631 784.205 238.645L783.338 238.119C782.567 237.799 781.639 237.496 780.522 237.133C774.205 236.515 769.783 238.512 767.129 242.988L766.863 243.498C765.802 245.289 765.243 247.862 765.062 251.087C764.773 253.019 764.995 255.347 765.984 258.074L765.982 258.203L765.85 258.201C764.458 256.5 762.802 255.183 760.885 253.991L760.627 253.858C759.607 253.067 758.196 252.528 756.529 251.855C749.967 250.459 745.158 252.318 741.975 257.561C741.18 258.839 740.639 260.508 740.222 262.309C739.742 268.111 741.738 272.405 745.959 274.926C751.328 278.24 757.15 277.429 763.037 272.618L763.168 272.62L763.166 272.748C757.034 284.786 720.11 284.71 721.282 259.939C700.031 272.768 682.478 240.209 690.273 229.101C688.862 236.567 690.842 242.022 696.213 245.207C697.879 246.008 699.289 246.546 700.318 246.821C706.378 247.305 710.799 245.31 713.584 240.707C714.382 239.299 714.924 237.76 715.34 235.959C715.947 230.288 713.569 225.73 708.197 222.545L707.558 222.149C705.64 220.956 703.712 220.278 701.653 219.857L701.524 219.855L704.766 219.005C709.572 217.145 712.708 214.742 714.299 212.185C714.965 210.905 715.505 209.494 715.913 208.209C716.662 201.766 714.8 197.087 710.071 194.17L710.15 194.157C709.677 193.976 710.065 194.128 709.787 194.022C708.888 193.539 707.595 193.051 705.962 192.556C705.173 192.479 704.414 192.443 703.684 192.447C698.572 192.476 694.898 194.493 692.576 198.409L692.308 198.921C691.247 200.712 690.691 203.286 690.51 206.511C690.221 208.443 690.441 210.771 691.429 213.498L691.427 213.626L691.298 213.624C689.905 211.923 688.247 210.604 686.33 209.412L686.073 209.279C685.053 208.488 683.64 207.949 681.972 207.276C675.41 205.88 670.604 207.739 667.421 212.981C666.626 214.26 666.082 215.931 665.665 217.732C665.185 223.534 667.184 227.826 671.404 230.347C676.774 233.661 682.596 232.85 688.483 228.038L688.612 228.041L688.61 228.169C685.551 234.236 674.843 237.204 665.017 235.59L665.017 235.565C662.335 235.114 659.718 234.341 657.346 233.172C657.034 233.024 656.728 232.865 656.424 232.704C656.389 232.685 656.353 232.671 656.318 232.652C655.47 232.196 654.653 231.695 653.881 231.137L653.883 231.049C649.426 227.683 646.493 222.524 646.836 215.236C625.588 227.935 608.034 195.376 615.83 184.269C614.419 191.735 616.398 197.19 621.77 200.374C623.435 201.176 624.846 201.714 625.874 201.989C631.935 202.473 636.358 200.48 639.143 195.877C639.94 194.47 640.48 192.927 640.896 191.127C641.506 185.326 639.127 180.769 633.755 177.584L633.116 177.188C631.198 175.995 629.273 175.317 627.214 174.897L627.083 174.895L630.324 174.044C635.131 172.184 638.27 169.781 639.86 167.225C640.526 165.944 641.064 164.533 641.472 163.248C642.215 157.192 640.479 152.774 636.265 149.866L634.603 148.807C633.703 148.535 632.677 148.13 631.392 147.722C625.076 147.104 620.656 149.101 618.002 153.577L617.734 154.087C616.672 155.878 616.116 158.451 615.935 161.676C615.646 163.608 615.867 165.936 616.854 168.663L616.852 168.792L616.721 168.79C615.328 167.089 613.67 165.772 611.753 164.58L611.498 164.447C610.348 163.654 608.936 163.115 607.268 162.443C600.706 161.046 595.9 162.905 592.717 168.148C591.922 169.426 591.378 171.095 590.962 172.896C590.481 178.698 592.48 182.992 596.7 185.513C602.07 188.827 607.892 188.016 613.779 183.205L613.91 183.207L613.908 183.335C607.774 195.502 570.852 195.297 571.897 170.396C550.52 183.093 532.966 150.534 540.762 139.427C539.351 146.893 541.328 152.345 546.7 155.53C548.365 156.331 549.778 156.872 550.807 157.146C556.867 157.631 561.288 155.636 564.073 151.032C564.87 149.625 565.413 148.085 565.829 146.284C566.436 140.613 564.055 136.055 558.683 132.87L558.044 132.472C556.126 131.279 554.201 130.604 552.142 130.183L552.011 130.181L555.252 129.33C560.059 127.471 563.198 125.068 564.788 122.511C565.454 121.23 565.992 119.819 566.4 118.535C567.145 112.349 565.281 107.801 560.809 104.889L559.657 104.225C558.76 103.823 557.605 103.416 556.192 103.006C549.875 102.389 545.452 104.382 542.798 108.859L542.533 109.371C541.471 111.162 540.913 113.736 540.732 116.961C540.443 118.893 540.664 121.221 541.654 123.948L541.652 124.076L541.522 124.074C540.13 122.374 538.472 121.054 536.554 119.862L536.297 119.729C535.277 118.938 533.866 118.399 532.198 117.726C525.636 116.33 520.83 118.189 517.647 123.432C516.853 124.71 516.308 126.381 515.892 128.182C515.411 133.984 517.408 138.276 521.628 140.797C526.997 144.111 532.821 143.3 538.709 138.489L538.838 138.491L538.836 138.619C532.701 150.786 495.778 150.581 496.823 125.68C475.445 138.377 457.892 105.818 465.688 94.7106C464.277 102.176 466.256 107.631 471.628 110.816C473.293 111.618 474.704 112.156 475.732 112.43C481.793 112.915 486.216 110.922 489.001 106.319C489.798 104.911 490.338 103.369 490.754 101.568C491.362 95.8972 488.983 91.3417 483.611 88.1568L482.972 87.7582C481.054 86.5655 479.129 85.8901 477.07 85.4697L476.941 85.4676L480.182 84.6143C484.99 82.7548 488.125 80.3515 489.716 77.7948C490.382 76.5144 490.922 75.1034 491.33 73.8188C492.208 67.3774 490.214 62.8275 485.484 59.9112L485.102 59.6453C485.135 59.6459 485.161 59.6664 485.192 59.6795L484.325 59.1537C483.554 58.8343 482.626 58.5314 481.509 58.168C475.193 57.5502 470.77 59.5465 468.116 64.0228L467.85 64.533C466.789 66.3235 466.23 68.8973 466.049 72.1221C465.76 74.0541 465.982 76.3822 466.971 79.1094L466.969 79.2379L466.838 79.2358C465.445 77.5351 463.79 76.2184 461.872 75.0256L461.614 74.8929C460.594 74.1019 459.184 73.5628 457.516 72.8905C450.954 71.4941 446.146 73.3531 442.963 78.5956C442.167 79.874 441.626 81.5427 441.21 83.3436C440.729 89.1458 442.725 93.44 446.946 95.9608C452.315 99.2747 458.137 98.4643 464.024 93.6526L464.155 93.6547L464.153 93.7833C458.021 105.821 421.097 105.745 422.269 80.9744C401.019 93.8028 383.465 61.2436 391.261 50.136C389.85 57.6018 391.829 63.0567 397.2 66.2415C398.866 67.0429 400.277 67.581 401.305 67.8557C407.366 68.3402 411.786 66.3449 414.571 61.7416C415.369 60.3342 415.911 58.7946 416.327 56.9937C416.935 51.3226 414.556 46.7645 409.184 43.5797L408.545 43.1836C406.627 41.9909 404.699 41.3129 402.64 40.8925L402.509 40.8904L405.751 40.0396C410.558 38.1801 413.693 35.7768 415.284 33.2201C415.95 31.9397 416.49 30.5286 416.898 29.2441C417.647 22.8014 415.785 18.1218 411.056 15.2054L411.135 15.1916C410.662 15.0108 411.051 15.1628 410.772 15.0571C409.874 14.5741 408.58 14.0861 406.947 13.5912C400.631 12.9734 396.211 14.9673 393.557 19.4435L393.289 19.9562C392.227 21.7467 391.671 24.3205 391.49 27.5454C391.201 29.4774 391.422 31.8054 392.409 34.5326L392.407 34.6612L392.278 34.6591C390.885 32.9583 389.227 31.6391 387.31 30.4463L387.055 30.3136C386.035 29.5226 384.621 28.9835 382.954 28.3112C376.392 26.9148 371.586 28.7739 368.403 34.0163C367.608 35.2947 367.063 36.9659 366.647 38.7668C366.167 44.569 368.166 48.8607 372.386 51.3815C377.755 54.6954 383.577 53.8851 389.465 49.0733L389.594 49.0754L389.592 49.204C383.457 61.3711 346.535 61.1661 347.71 36.2666C326.332 48.9638 308.776 16.5336 316.701 5.42814C315.29 12.8939 317.269 18.3488 322.641 21.5336C324.306 22.335 325.717 22.8756 326.745 23.1503C332.806 23.6349 337.229 21.6396 340.014 17.0363C340.812 15.6289 341.351 14.0867 341.767 12.2858C342.375 6.61468 339.996 2.05916 334.624 -1.12566L333.985 -1.52426C332.068 -2.71701 330.142 -3.39244 328.083 -3.81281L291.952 -4.39245C291.908 0.575245 293.904 4.30912 297.707 6.54567C303.077 9.85957 308.899 9.0492 314.786 4.23744L314.917 4.23955L314.915 4.36812C309.178 15.896 275.86 16.3944 273.099 -4.69489L179.932 -6.18958Z" fill="white"/>
<path d="M827.942 610.817L348.099 323.443L348.085 323.542L22.1067 128.315L22.0855 128.345L-5.20643 112L-6.02457 162.948C-5.29598 162.824 -4.57428 162.748 -3.86227 162.718L-3.92687 162.802C-1.12396 162.635 1.53592 163.202 4.00263 164.284C4.36104 164.446 4.7166 164.614 5.06611 164.798C5.1737 164.853 5.27967 164.91 5.38619 164.967C16.7266 171.186 23.2456 188.473 18.2718 196.233C19.2997 190.442 18.2607 185.88 15.1457 182.674C14.6247 182.169 14.0311 181.712 13.403 181.277C13.0053 180.983 12.5924 180.698 12.1482 180.435C10.4826 179.634 9.07204 179.095 8.04355 178.821C1.98317 178.336 -2.44021 180.329 -5.22548 184.932C-5.71393 185.794 -6.09654 186.717 -6.42245 187.709L-6.54277 195.202C-5.59602 198.443 -3.36695 201.133 0.162222 203.225L0.801452 203.621C2.71895 204.814 4.6441 205.492 6.70311 205.912L6.83676 205.915L3.59532 206.765C-1.21164 208.625 -4.34981 211.028 -5.9402 213.585C-6.2867 214.251 -6.59422 214.949 -6.87113 215.65L-7.01853 224.829C-6.19324 227.327 -4.63914 229.361 -2.3456 230.944L-0.679756 232.002C0.219607 232.274 1.24602 232.679 2.53052 233.087C3.3201 233.164 4.08041 233.201 4.81098 233.197C4.83424 233.197 4.85364 233.194 4.87685 233.193C5.20546 233.192 5.5091 233.157 5.82594 233.14C6.12706 233.122 6.43665 233.115 6.72702 233.081C10.9166 232.634 14.0143 230.677 16.0554 227.235L16.3234 226.722C17.3851 224.932 17.9413 222.358 18.1222 219.133C18.4114 217.201 18.1906 214.873 17.203 212.146L17.205 212.022C18.5974 213.722 20.2542 215.038 22.1707 216.23L22.4258 216.363C23.575 217.156 24.9876 217.695 26.6552 218.367C27.9189 218.636 29.1172 218.782 30.2516 218.808C35.0729 218.96 38.7462 216.936 41.3398 212.664C42.135 211.386 42.6793 209.715 43.0955 207.914C43.5761 202.112 41.5772 197.82 37.357 195.299C37.0594 195.115 36.7602 194.949 36.46 194.79C35.8178 194.468 35.1692 194.205 34.5157 193.998C29.9203 192.371 25.0558 193.591 20.1447 197.605L20.1468 197.476C23.0535 191.711 32.8657 188.74 42.2661 189.845C42.4857 189.872 42.7038 189.903 42.9228 189.934C43.3654 189.995 43.8065 190.07 44.2458 190.15C44.6088 190.216 44.972 190.284 45.3318 190.364C45.5823 190.418 45.8292 190.484 46.0778 190.545C47.7038 190.949 49.2875 191.478 50.7825 192.158C50.7953 192.164 50.8056 192.169 50.8171 192.174C57.4733 195.217 62.4175 201.08 62.0256 210.414C62.6009 210.071 63.1731 209.775 63.7426 209.496C63.895 209.422 64.048 209.344 64.1999 209.274C64.7114 209.038 65.2198 208.831 65.7257 208.646C65.9128 208.577 66.0996 208.515 66.286 208.453C66.7844 208.287 67.2813 208.135 67.7733 208.015C67.9158 207.981 68.0564 207.957 68.1983 207.926C68.6241 207.834 69.0473 207.758 69.4679 207.7C69.6221 207.678 69.7768 207.651 69.9303 207.634C70.4401 207.577 70.944 207.545 71.445 207.535C71.5652 207.531 71.6859 207.531 71.8057 207.53C72.3506 207.531 72.8927 207.551 73.4259 207.604C73.4452 207.606 73.4645 207.609 73.4839 207.61C74.6077 207.726 75.7032 207.962 76.7688 208.291C76.8292 208.309 76.8922 208.323 76.952 208.342C77.509 208.52 78.0574 208.725 78.5964 208.956C91.1437 214.333 98.635 233.398 93.0318 241.382C94.4428 233.916 92.4636 228.461 87.0921 225.276C85.4265 224.475 84.016 223.937 82.9875 223.662C76.9271 223.177 72.5038 225.17 69.7186 229.773C68.9213 231.181 68.3816 232.723 67.9654 234.524C67.3558 240.324 69.7347 244.882 75.1062 248.066L75.7454 248.463C77.6629 249.655 79.5881 250.333 81.6471 250.754L81.781 250.756L78.5396 251.607C73.7326 253.466 70.5944 255.869 69.004 258.426C68.3379 259.706 67.7998 261.117 67.3918 262.402C66.649 268.458 68.3846 272.877 72.5986 275.785L74.261 276.843C75.1604 277.116 76.1868 277.52 77.4713 277.928C83.7878 278.546 88.2082 276.55 90.8622 272.074L91.1301 271.564C92.1918 269.773 92.748 267.199 92.9289 263.975C93.2182 262.043 92.9973 259.714 92.0098 256.987L92.0118 256.859L92.143 256.861C93.5359 258.562 95.1937 259.878 97.1112 261.071L97.3662 261.204C98.5155 261.997 99.9281 262.536 101.596 263.208C108.158 264.605 112.964 262.746 116.147 257.503C116.942 256.225 117.486 254.556 117.902 252.756C118.383 246.953 116.384 242.659 112.164 240.138C106.794 236.824 100.972 237.635 95.0852 242.446L94.9542 242.444L94.9562 242.316C101.091 230.149 138.012 230.354 136.967 255.256C158.345 242.559 175.897 275.118 168.101 286.225C169.512 278.759 167.536 273.307 162.164 270.122C160.499 269.321 159.085 268.78 158.057 268.505C151.997 268.021 147.576 270.016 144.791 274.619C143.993 276.027 143.451 277.566 143.035 279.367C142.427 285.038 144.809 289.596 150.18 292.781L150.819 293.18C152.737 294.373 154.662 295.048 156.721 295.469L156.852 295.471L153.611 296.321C148.804 298.181 145.666 300.584 144.075 303.141C143.409 304.421 142.871 305.832 142.463 307.117C141.718 313.302 143.582 317.851 148.054 320.763L149.206 321.427C150.103 321.829 151.258 322.235 152.671 322.645C158.988 323.263 163.411 321.269 166.065 316.793L166.33 316.281C167.392 314.49 167.951 311.916 168.131 308.691C168.421 306.759 168.199 304.431 167.21 301.704L167.212 301.576L167.341 301.578C168.734 303.278 170.392 304.598 172.309 305.79L172.567 305.923C173.587 306.714 174.997 307.253 176.665 307.926C183.227 309.322 188.033 307.463 191.216 302.221C192.011 300.942 192.555 299.271 192.972 297.47C193.452 291.668 191.456 287.376 187.236 284.856C181.866 281.542 176.042 282.352 170.155 287.163L170.025 287.161L170.027 287.033C176.162 274.866 213.086 275.071 212.04 299.973C233.418 287.276 250.971 319.835 243.175 330.943C244.586 323.477 242.607 318.022 237.235 314.837C235.57 314.036 234.159 313.497 233.131 313.223C227.07 312.738 222.647 314.731 219.862 319.334C219.064 320.741 218.525 322.284 218.109 324.084C217.501 329.756 219.88 334.311 225.252 337.496L225.891 337.895C227.808 339.087 229.733 339.763 231.793 340.183L231.922 340.185L228.68 341.039C223.873 342.898 220.738 345.301 219.147 347.858C218.481 349.138 217.94 350.549 217.533 351.834C216.654 358.275 218.649 362.825 223.379 365.742L223.76 366.008C223.726 366.007 223.703 365.986 223.673 365.973L224.539 366.499C225.31 366.819 226.238 367.122 227.355 367.485C233.672 368.103 238.095 366.107 240.749 361.63L241.014 361.12C242.076 359.33 242.634 356.756 242.815 353.531C243.105 351.599 242.883 349.271 241.894 346.544L241.896 346.415L242.027 346.417C243.42 348.118 245.075 349.435 246.993 350.628L247.25 350.76C248.27 351.551 249.681 352.09 251.349 352.763C257.911 354.159 262.719 352.3 265.902 347.058C266.697 345.78 267.239 344.111 267.655 342.31C268.136 336.508 266.139 332.214 261.919 329.693C256.55 326.379 250.728 327.189 244.841 332.001L244.709 331.999L244.712 331.87C250.844 319.832 287.768 319.909 286.595 344.679C307.846 331.851 325.4 364.411 317.604 375.518C319.015 368.053 317.035 362.598 311.664 359.413C309.998 358.611 308.588 358.073 307.559 357.799C301.499 357.314 297.078 359.309 294.293 363.912C293.496 365.32 292.953 366.859 292.537 368.66C291.93 374.331 294.308 378.889 299.68 382.074L300.319 382.47C302.237 383.663 304.165 384.341 306.224 384.762L306.353 384.764L303.111 385.614C298.304 387.474 295.169 389.877 293.578 392.434C292.912 393.714 292.371 395.125 291.964 396.41C291.215 402.853 293.076 407.532 297.805 410.449L297.726 410.462C298.199 410.643 297.811 410.491 298.09 410.597C298.988 411.08 300.282 411.568 301.914 412.063C302.703 412.14 303.462 412.177 304.192 412.173C309.305 412.143 312.978 410.127 315.3 406.211L315.568 405.698C316.63 403.907 317.186 401.334 317.367 398.109C317.656 396.177 317.435 393.849 316.448 391.122L316.45 390.993L316.579 390.995C317.972 392.696 319.63 394.015 321.547 395.208L321.804 395.341C322.824 396.132 324.237 396.671 325.905 397.343C332.467 398.74 337.273 396.881 340.455 391.638C341.251 390.36 341.795 388.689 342.211 386.888C342.692 381.086 340.693 376.794 336.473 374.273C331.103 370.959 325.281 371.769 319.394 376.581L319.265 376.579L319.267 376.45C322.326 370.384 333.034 367.415 342.861 369.03L342.86 369.055C345.542 369.506 348.159 370.278 350.531 371.447C350.843 371.596 351.149 371.755 351.454 371.916C351.488 371.935 351.524 371.949 351.559 371.968C352.407 372.424 353.225 372.925 353.996 373.483L353.994 373.571C358.451 376.937 361.384 382.096 361.04 389.384C382.289 376.685 399.843 409.244 392.047 420.352C393.458 412.886 391.478 407.431 386.107 404.246C384.441 403.445 383.031 402.907 382.002 402.632C375.942 402.147 371.519 404.14 368.733 408.743C367.936 410.151 367.396 411.693 366.98 413.494C366.371 419.294 368.749 423.851 374.121 427.036L374.76 427.432C376.678 428.625 378.603 429.303 380.662 429.723L380.793 429.726L377.552 430.576C372.745 432.436 369.606 434.839 368.016 437.396C367.35 438.676 366.812 440.087 366.404 441.372C365.661 447.428 367.397 451.847 371.611 454.755L373.273 455.813C374.173 456.085 375.199 456.49 376.483 456.898C382.8 457.516 387.22 455.52 389.874 451.044L390.142 450.533C391.204 448.743 391.76 446.169 391.941 442.944C392.23 441.012 392.009 438.684 391.022 435.957L391.024 435.828L391.155 435.831C392.548 437.531 394.206 438.848 396.123 440.041L396.378 440.174C397.528 440.967 398.94 441.506 400.608 442.178C407.17 443.575 411.976 441.716 415.159 436.473C415.954 435.195 416.498 433.526 416.914 431.725C417.395 425.923 415.396 421.629 411.176 419.108C405.806 415.794 399.985 416.604 394.097 421.416L393.966 421.414L393.968 421.285C400.103 409.118 437.024 409.324 435.979 434.225C457.357 421.528 474.909 454.087 467.113 465.195C468.524 457.729 466.548 452.277 461.176 449.092C459.511 448.29 458.098 447.75 457.069 447.475C451.009 446.99 446.588 448.986 443.803 453.589C443.005 454.996 442.463 456.536 442.047 458.337C441.439 464.008 443.821 468.566 449.192 471.751L449.832 472.15C451.749 473.342 453.674 474.018 455.733 474.438L455.864 474.44L452.623 475.291C447.816 477.151 444.678 479.554 443.087 482.11C442.421 483.391 441.883 484.802 441.475 486.086C440.73 492.272 442.594 496.821 447.066 499.733L448.218 500.397C449.115 500.799 450.27 501.205 451.683 501.615C458 502.233 462.423 500.239 465.077 495.763L465.342 495.25C466.404 493.46 466.963 490.886 467.143 487.661C467.433 485.729 467.211 483.401 466.222 480.674L466.224 480.545L466.353 480.547C467.746 482.248 469.403 483.567 471.321 484.76L471.579 484.893C472.599 485.684 474.009 486.223 475.677 486.895C482.239 488.292 487.045 486.433 490.228 481.191C491.023 479.912 491.567 478.241 491.984 476.44C492.464 470.638 490.468 466.346 486.248 463.825C480.878 460.511 475.054 461.322 469.167 466.133L469.037 466.131L469.04 466.003C475.174 453.836 512.098 454.041 511.052 478.943C532.43 466.246 549.983 498.805 542.187 509.912C543.598 502.447 541.619 496.992 536.247 493.807C534.582 493.005 533.171 492.467 532.143 492.192C526.082 491.708 521.659 493.701 518.874 498.304C518.077 499.711 517.537 501.253 517.121 503.054C516.513 508.725 518.892 513.281 524.264 516.466L524.903 516.864C526.82 518.057 528.745 518.733 530.805 519.153L530.934 519.155L527.692 520.008C522.885 521.868 519.749 524.271 518.159 526.828C517.493 528.108 516.952 529.519 516.544 530.804C515.666 537.245 517.66 541.795 522.391 544.711L522.772 544.977C522.739 544.977 522.713 544.956 522.683 544.943L523.549 545.469C524.32 545.788 525.248 546.091 526.365 546.455C532.682 547.073 537.105 545.076 539.759 540.6L540.024 540.09C541.086 538.299 541.644 535.726 541.825 532.501C542.115 530.569 541.893 528.241 540.904 525.514L540.906 525.385L541.037 525.387C542.43 527.088 544.085 528.405 546.002 529.597L546.26 529.73C547.28 530.521 548.691 531.06 550.358 531.733C556.921 533.129 561.729 531.27 564.912 526.028C565.707 524.749 566.249 523.081 566.665 521.28C567.146 515.477 565.149 511.183 560.929 508.662C555.56 505.348 549.738 506.159 543.851 510.97L543.719 510.968L543.721 510.84C549.854 498.802 586.778 498.879 585.605 523.649C606.856 510.821 624.409 543.381 616.614 554.488C618.025 547.022 616.045 541.567 610.674 538.382C609.008 537.581 607.598 537.043 606.569 536.768C600.509 536.284 596.088 538.279 593.303 542.882C592.506 544.29 591.963 545.829 591.547 547.63C590.94 553.301 593.318 557.859 598.69 561.044L599.329 561.44C601.247 562.633 603.175 563.311 605.234 563.731L605.365 563.734L602.123 564.584C597.316 566.444 594.18 568.847 592.59 571.404C591.924 572.684 591.383 574.095 590.976 575.38C590.227 581.822 592.088 586.502 596.817 589.418L596.738 589.432C597.211 589.613 596.823 589.461 597.102 589.567C598 590.05 599.294 590.538 600.926 591.033C607.243 591.651 611.663 589.657 614.317 585.181L614.585 584.668C615.647 582.877 616.203 580.304 616.384 577.079C616.673 575.147 616.452 572.819 615.465 570.091L615.467 569.963L615.596 569.965C616.989 571.666 618.647 572.985 620.564 574.178L620.819 574.311C621.839 575.102 623.252 575.641 624.92 576.313C631.482 577.71 636.288 575.851 639.471 570.608C640.266 569.33 640.811 567.659 641.227 565.858C641.707 560.055 639.708 555.764 635.488 553.243C630.119 549.929 624.297 550.739 618.41 555.551L618.281 555.549L618.283 555.42C624.417 543.253 661.339 543.459 660.164 568.358C681.542 555.661 699.098 588.092 691.173 599.197C692.584 591.731 690.604 586.276 685.233 583.092C683.567 582.29 682.157 581.75 681.128 581.475C675.068 580.99 670.645 582.985 667.859 587.589C667.062 588.996 666.522 590.538 666.106 592.339C665.499 598.01 667.878 602.566 673.249 605.751L673.888 606.149C675.806 607.342 677.731 608.018 679.79 608.438L715.922 609.018C715.965 604.05 713.97 600.317 710.166 598.08C704.797 594.766 698.975 595.576 693.088 600.388L692.957 600.386L692.959 600.257C698.695 588.729 732.014 588.232 734.774 609.321L827.942 610.817Z" fill="white"/>
<path d="M437 -62L1141 361L437 -62Z" fill="black"/>
<path d="M437 -62L1141 361" stroke="#FFD700" stroke-width="58"/>
<path d="M278.15 -177L356.753 -129.838L348.178 -115.546L316.023 -134.84L307.448 -120.548L386.051 -73.3863L394.626 -87.6778L362.47 -106.971L371.045 -121.263L449.648 -74.1009L441.074 -59.8093L408.918 -79.1029L400.343 -64.8114L478.946 -17.6492L487.521 -31.9408L455.365 -51.2344L463.94 -65.5259L542.544 -18.3638L533.969 -4.07227L501.813 -23.3659L493.238 -9.07432L571.841 38.0878L580.416 23.7962L548.26 4.50265L556.835 -9.78889L635.439 37.3732L626.864 51.6648L594.708 32.3712L586.133 46.6627L664.736 93.8248L673.311 79.5333L641.155 60.2397L649.73 45.9481L728.334 93.1102L719.759 107.402L687.603 88.1082L679.028 102.4L757.631 149.562L766.206 135.27L734.05 115.977L742.625 101.685L821.229 148.847L812.654 163.139L780.498 143.845L771.923 158.137L850.526 205.299L859.101 191.007L826.945 171.714L835.52 157.422L914.124 204.584L905.549 218.876L873.393 199.582L864.818 213.874L943.421 261.036L951.996 246.744L919.84 227.451L928.415 213.159L1007.02 260.321L998.444 274.613L966.288 255.319L957.713 269.611L1036.32 316.773L1044.89 302.481L1012.74 283.188L1021.31 268.896L1099.91 316.058L1091.34 330.35L1059.18 311.056L1050.61 325.348L1129.21 372.51L1137.79 358.218L1105.63 338.925L1114.21 324.633L1192.81 371.795L1184.23 386.087L1152.08 366.793L1143.5 381.085L1222.11 428.247L1230.68 413.955L1198.53 394.662L1207.1 380.37L1285.7 427.532L1277.13 441.824L1244.97 422.53L1236.4 436.822L1315 483.984" stroke="#002395" stroke-width="8.33333"/>
<path d="M-174 213L530 636L-174 213Z" fill="black"/>
<path d="M-174 213L530 636" stroke="#FFD700" stroke-width="58"/>
<path d="M-332.85 99L-254.247 146.162L-262.822 160.454L-294.977 141.16L-303.552 155.452L-224.949 202.614L-216.374 188.322L-248.53 169.029L-239.955 154.737L-161.352 201.899L-169.926 216.191L-202.082 196.897L-210.657 211.189L-132.054 258.351L-123.479 244.059L-155.635 224.766L-147.06 210.474L-68.4565 257.636L-77.0314 271.928L-109.187 252.634L-117.762 266.926L-39.1588 314.088L-30.5839 299.796L-62.7398 280.503L-54.1649 266.211L24.4386 313.373L15.8637 327.665L-16.2923 308.371L-24.8672 322.663L53.7363 369.825L62.3112 355.533L30.1552 336.24L38.7302 321.948L117.334 369.11L108.759 383.402L76.6028 364.108L68.0278 378.4L146.631 425.562L155.206 411.27L123.05 391.977L131.625 377.685L210.229 424.847L201.654 439.139L169.498 419.845L160.923 434.137L239.526 481.299L248.101 467.007L215.945 447.714L224.52 433.422L303.124 480.584L294.549 494.876L262.393 475.582L253.818 489.874L332.421 537.036L340.996 522.744L308.84 503.451L317.415 489.159L396.019 536.321L387.444 550.613L355.288 531.319L346.713 545.611L425.317 592.773L433.891 578.481L401.735 559.188L410.31 544.896L488.914 592.058L480.339 606.35L448.183 587.056L439.608 601.348L518.212 648.51L526.787 634.218L494.631 614.925L503.205 600.633L581.809 647.795L573.234 662.087L541.078 642.793L532.503 657.085L611.107 704.247L619.682 689.955L587.526 670.662L596.101 656.37L674.704 703.532L666.129 717.824L633.973 698.53L625.398 712.822L704.002 759.984" stroke="#002395" stroke-width="8.33333"/>
<path d="M108.054 536.546C108.663 536.912 109.638 537.277 110.978 537.643C115.365 538.008 118.533 536.546 120.361 533.256L120.604 532.891C121.335 531.55 121.701 529.844 121.823 527.529C121.945 526.189 121.701 524.483 121.092 522.655V522.533H121.214C122.188 523.752 123.407 524.727 124.747 525.458L124.991 525.58C125.844 526.067 126.819 526.554 127.915 526.92C132.668 527.895 136.079 526.433 138.151 522.777C138.638 521.802 139.126 520.706 139.248 519.365C139.491 515.222 138.029 512.298 134.983 510.47C131.084 508.155 127.062 508.886 122.92 512.298H122.798C136.445 493.776 154.235 514.004 150.702 520.462C160.206 514.004 169.101 519.853 168.858 528.991C165.811 538.74 157.647 537.277 150.336 534.718C160.328 544.467 171.66 569.568 170.076 579.682L187.866 510.714L91.1163 453.809L41.5227 505.596C49.4431 499.138 75.2756 494.873 88.8011 498.772C82.9522 493.655 77.7126 487.44 84.5363 479.885C92.2129 475.255 101.839 479.885 100.986 491.339C104.642 485.125 131.205 490.365 121.945 511.567L121.823 511.81H121.701C122.554 506.449 121.092 502.793 117.314 500.478C116.096 499.869 115.121 499.503 114.39 499.382C110.125 499.138 106.957 500.6 105.129 503.89C104.52 504.865 104.154 505.962 103.911 507.18C103.545 511.323 105.373 514.491 109.15 516.684L109.638 516.928C110.978 517.659 112.318 518.147 113.781 518.39H113.903L111.587 519C108.175 520.462 105.982 522.046 104.886 523.996C104.398 524.97 104.033 525.823 103.789 526.798C103.18 531.307 104.642 534.597 108.054 536.546Z" fill="#FFD700"/>
<path d="M899.261 67.2491C898.652 66.8836 897.677 66.518 896.337 66.1525C891.95 65.9088 888.782 67.371 886.954 70.5391L886.71 70.9047C885.979 72.245 885.614 73.951 885.492 76.2661C885.37 77.6065 885.614 79.3124 886.345 81.1402V81.262H886.223C885.248 80.0435 884.03 79.1906 882.689 78.3376L882.445 78.2158C881.592 77.7284 880.618 77.3628 879.521 76.8754C874.769 76.0224 871.357 77.3628 869.285 81.1402C868.798 82.115 868.432 83.2117 868.189 84.552C867.945 88.695 869.407 91.6194 872.454 93.3253C876.353 95.5187 880.374 94.9094 884.517 91.3757H884.639C871.235 110.019 853.201 89.7917 856.735 83.4554C847.23 90.0354 838.335 84.1865 838.579 75.0476C841.625 65.2995 849.667 66.7617 856.979 69.1988C846.865 59.4506 835.411 34.5929 836.995 24.3574L819.692 93.4472L916.929 149.743L966.157 97.5901C958.237 104.048 932.405 108.557 918.879 104.779C924.728 109.775 930.089 116.112 923.266 123.666C915.589 128.419 905.963 123.788 906.694 112.334C903.038 118.67 876.475 113.431 885.492 92.3505L885.614 92.1068H885.735C884.882 97.4683 886.345 101.124 890.244 103.439C891.462 104.048 892.437 104.292 893.168 104.536C897.433 104.779 900.601 103.195 902.429 99.9053C902.917 98.9305 903.404 97.8338 903.648 96.6153C903.891 92.4724 902.185 89.3042 898.408 87.2328L897.921 86.9891C896.58 86.258 895.24 85.7705 893.778 85.5268H893.656L895.971 84.9176C899.383 83.4554 901.576 81.7495 902.673 79.9217C903.16 78.9469 903.526 78.0939 903.769 77.1191C904.135 72.4887 902.673 69.1987 899.261 67.2491Z" fill="#FFD700"/>
</g>
<defs>
<clipPath id="clip0_328_72">
<rect width="1000" height="600" fill="white"/>
</clipPath>
</defs>
</svg>
