<svg xmlns="http://www.w3.org/2000/svg" version="1.1" viewBox="18.87 115.76 755.98 277.71">
  <path d="m 641.95071,375.0334 c 17.44854,-7.1601 34.83754,-14.42351 52.29033,-21.56885 -0.92155,2.64228 -2.1299,5.66398 -5.22935,6.99804 -16.08918,6.57798 -32.14645,13.21082 -48.23031,19.78541 -1.06076,0.45331 -2.11281,0.94704 -3.26917,1.18674 1.06075,-1.80933 2.06051,-3.64079 3.082,-5.46138 0.21768,-0.50852 0.83058,-0.71128 1.3566,-0.93965 z m -54.33418,-24.89333 c 3.75776,2.43874 7.17286,5.22609 9.56805,8.22885 4.43393,5.7894 5.57722,13.29587 2.82566,19.80776 -0.23919,0.53437 -0.74342,0.93224 -1.1738,1.35998 0.85209,-3.60402 1.10408,-7.42177 -0.23046,-10.96297 -1.82997,-5.14436 -5.97279,-9.46365 -11.50197,-11.99179 0.0942,-2.24977 0.37639,-4.51941 0.51292,-6.44141 z m -143.95016,-3.13256 c 2.33867,-1.67681 5.58594,-1.83889 8.5116,-1.83516 2.93875,0.1732 6.04689,0.28381 8.63776,1.61421 1.22588,1.20863 0.0608,2.63854 -1.19526,3.39761 -5.09481,3.11746 -10.70698,5.82255 -14.84141,9.91674 -1.1215,1.05764 -0.53909,2.70487 0.87826,3.32396 2.14299,0.91032 4.62523,0.95442 6.98123,0.90293 5.59465,-0.25794 10.96737,-2.05251 15.64915,-4.60998 1.30397,-0.70386 2.47343,-1.58093 3.8211,-2.2333 -2.88645,2.96644 -6.12947,5.68979 -9.70698,8.05563 -3.01696,1.91988 -6.41632,3.58563 -10.1897,4.08675 -2.96891,0.21386 -6.16399,0.0921 -8.72903,-1.33033 -2.85615,-1.43364 -4.19481,-4.64324 -3.13867,-7.29285 0.63907,-1.48879 1.82128,-2.74919 3.06456,-3.90978 3.20817,-2.88174 7.12919,-5.08548 11.04178,-7.21185 -2.65155,-0.10693 -5.33808,-0.22839 -7.97252,0.0441 -1.72136,0.14733 -2.87772,1.2419 -4.09912,2.1301 -0.36939,-1.72803 -0.3781,-3.77703 1.28688,-5.04849 z m -104.9941,-4.33725 c 2.32579,-0.96552 5.53395,-0.82558 7.36831,0.8549 1.5345,1.54023 1.69977,3.65927 1.58679,5.58659 -1.23022,1.38921 -2.64718,2.66809 -3.67781,4.18251 -2.15607,0.33899 -4.42086,0.0406 -6.52931,0.57846 -1.06076,0.52327 -2.44728,0.8401 -2.95617,1.89404 -0.66522,1.35999 -0.35631,2.87067 -0.0739,4.27838 1.09536,4.91597 3.12123,9.74721 3.01697,14.81037 -0.11743,1.7763 -0.25633,3.61889 -1.24767,5.22545 -0.23046,-2.8154 -1.39964,-5.47617 -2.24736,-8.18476 -1.59988,-4.93445 -2.86901,-9.99772 -3.05618,-15.12709 -0.20866,-1.97536 1.13023,-3.67406 2.48215,-5.16286 1.99534,-2.36583 5.57286,-3.05858 8.75051,-3.57085 -0.82595,-0.64499 -1.76059,-1.38921 -2.98198,-1.24562 -1.70851,0.21014 -2.86467,1.42247 -3.80368,2.53907 -0.16944,-2.4649 0.62628,-5.37617 3.3692,-6.65856 z m 152.2615,-0.95442 c 0.15229,-0.13255 0.35224,-0.18429 0.59984,-0.15102 -0.9041,0.87707 -1.39986,1.98249 -2.09537,2.9776 -1.97794,3.16921 -4.26452,6.53387 -3.73853,10.2631 0.0563,1.75046 1.21717,4.01298 3.6298,3.99821 1.17815,-0.49741 1.48243,-1.77257 2.07358,-2.6901 -0.0739,2.7307 -0.54782,6.04722 -3.57314,7.60968 -2.51263,-0.3427 -4.39906,-2.2331 -4.49908,-4.3668 -0.51294,-6.45279 2.67346,-12.81653 7.60287,-17.64066 z M 40.249896,305.36214 c 1.438865,-2.17421 2.790788,-4.54376 5.307896,-5.98101 -3.055858,5.22907 -6.23373,10.52838 -7.56833,16.30257 -0.443477,2.20747 -0.665226,4.7576 1.017163,6.65527 1.308349,1.19013 3.408083,1.4077 5.199169,1.03917 2.717028,-0.5085 3.982013,-2.91872 5.103514,-4.83127 0.860819,1.4262 -0.0305,2.96655 -0.426038,4.38903 -1.125859,3.01086 -2.469067,6.27189 -5.577217,8.22887 -2.386593,1.54767 -5.807748,0.92853 -8.103042,-0.43485 -3.025674,-2.00469 -3.095079,-5.64197 -2.564724,-8.5863 1.195262,-5.95857 4.285982,-11.49012 7.611588,-16.7819 z M 261.76562,282.03541 c 0.88668,-1.42992 2.62574,-3.12491 4.76002,-2.41016 2.56471,0.65607 5.61655,2.38061 5.20787,4.9674 -0.68672,0.88075 -1.56936,1.6361 -2.34737,2.45799 -0.83028,-1.33406 -1.76058,-3.0401 -3.70801,-3.32398 -2.53421,0.70387 -4.05152,2.85952 -4.85131,4.91224 -1.68235,4.48488 -2.05616,9.22016 -2.52572,13.88148 -0.6129,0.27641 -1.22586,0.54913 -1.85176,0.79969 0.0174,-4.28943 -1.08261,-8.84424 -4.4775,-12.16821 -0.76956,-1.10203 -2.47778,-0.54915 -3.63414,-1.07981 -2.15606,-0.65583 -2.93876,-2.64961 -3.46038,-4.35576 -0.26068,-1.15347 -0.72595,-2.53908 0.18252,-3.56714 1.90851,-0.4644 3.40371,0.95441 4.76434,1.84995 3.50374,2.82284 5.92509,6.4562 7.90748,10.15618 0.83437,-4.13105 1.71701,-8.36874 4.03409,-12.12038 z m 364.4881,-11.32114 c 2.65189,-0.77383 5.44267,0.24316 7.61158,1.54023 3.6211,2.26996 6.44683,5.35449 8.62904,8.66738 1.16507,1.91988 2.49521,4.02416 2.02566,6.25746 -0.27811,1.50357 -0.41732,3.11746 -1.47808,4.40007 -1.17379,1.23084 -3.37757,1.10544 -4.85566,0.37225 -1.68672,-0.81079 -3.295,-1.73557 -5.05995,-2.421 -2.38658,5.49818 -7.41601,9.8282 -12.86771,13.26291 -3.69059,2.39537 -7.73776,4.3631 -11.83678,6.20197 -2.53007,1.15719 -5.32968,1.77629 -8.04205,2.52792 -2.70829,0.65236 -5.46422,1.51091 -8.32474,1.27145 1.80416,-0.0885 3.22995,-1.07982 4.7513,-1.78734 7.92895,-3.90978 15.69698,-8.11473 22.75207,-13.10031 3.74724,-2.74919 7.57705,-5.61242 10.10244,-9.27543 -1.63006,-0.29859 -3.26481,-0.55652 -4.9123,-0.74451 -1.3258,-3.2688 -1.33887,-7.26702 1.52133,-9.97189 -1.42579,-0.92855 -1.59117,-2.61272 -1.82999,-4.01299 -0.20371,-1.21968 0.27871,-2.76737 1.8132,-3.1877 m 7.11206,8.09633 c 0.53909,2.42099 0.6998,4.89012 0.74339,7.35173 2.23428,0.27273 4.45584,1.02438 6.7337,0.80709 1.16071,-0.14363 1.11714,-1.43726 0.4737,-2.05272 -2.11716,-2.47254 -5.05558,-4.33354 -7.95074,-6.10611 m -7.56833,3.9505 c 1.1433,1.79477 3.73416,2.25158 5.85132,2.82656 0.43476,-1.1572 0.99536,-2.36956 0.78234,-3.59669 -0.7652,-1.26783 -1.80415,-2.92604 -3.72545,-2.91871 -1.66056,0.72235 -2.31708,2.29952 -2.90822,3.68884 z m -146.66037,-15.4587 c 1.31705,-1.44468 3.54731,-2.14859 5.65108,-2.20376 1.46066,-0.011 2.16914,1.31927 2.50394,2.33257 0.63471,2.39177 0.74776,4.99334 -0.626,7.22292 0.71288,0.43853 1.43015,0.88445 2.16042,1.31927 -0.19122,1.52941 -0.32608,3.06973 -0.36095,4.60998 -1.45193,-0.65952 -2.56907,-1.70975 -3.81238,-2.59423 -3.86903,5.65674 -9.52446,10.56164 -16.57065,13.33304 -3.72542,1.59199 -7.98995,2.28847 -12.13755,1.84995 7.85508,-2.38061 15.48442,-5.8152 21.18333,-11.0852 1.96052,-1.8056 3.64723,-3.80319 5.07301,-5.9403 -1.10406,-0.99876 -2.42581,-1.85365 -3.28628,-3.0219 -0.68644,-1.86823 -1.19069,-4.10122 0.22203,-5.82234 m 2.15605,1.84262 c 0.56962,1.36709 1.66058,2.49496 2.79516,3.55597 0.47806,-1.18302 1.10407,-2.46904 0.40425,-3.68512 -1.07358,-0.17663 -2.15172,-0.077 -3.19946,0.1291 z M 40.705597,283.95265 c 15.762883,-8.39093 31.590597,-16.7043 47.383229,-25.05169 -0.452194,2.915 -1.63007,6.28679 -4.942599,7.74624 -14.619266,7.68333 -29.273612,15.32266 -43.870566,23.03234 -0.378093,0.16951 -0.773913,0.30943 -1.186866,0.41636 0.930564,-2.03031 1.639101,-4.13448 2.617014,-6.1431 z M 370.70473,239.62781 c 1.21282,-1.48879 2.58217,-2.91498 4.11656,-4.1825 -1.13021,2.17421 -0.45654,4.54737 0.0695,6.76962 0.59549,2.43215 1.39964,4.82009 2.29965,7.18593 0.63036,1.78372 3.04311,2.41014 4.97311,2.76024 1.15636,0.31312 2.57344,-0.41635 2.12555,-1.53683 -1.06516,-2.88917 -2.4258,-5.69353 -3.98201,-8.41317 0.55219,-1.82411 1.17817,-3.62994 1.70829,-5.45767 0.73033,0 1.46937,0.007 2.21283,0.0148 0.63907,3.37911 2.53857,6.44514 4.28629,9.48182 0.004,3.28358 -0.22609,6.70701 -1.59986,9.82087 -0.9172,2.20747 -3.98616,2.89277 -6.46395,2.71591 -3.29064,-0.53805 -5.47297,-2.9443 -7.40327,-5.05963 -0.96079,2.77479 -3.67752,4.927 -6.8944,5.7967 -2.72138,0.8475 -5.85972,-0.38335 -7.32036,-2.41738 -1.59989,-2.25518 -1.90418,-4.97856 -1.82999,-7.55823 0.14356,-3.68883 0.98694,-7.98941 4.89052,-10.20422 0.27377,0 0.82158,0.003 1.09567,0.003 -0.17379,0.0662 -0.53039,0.19535 -0.70417,0.26162 -2.37353,3.68139 -2.52146,8.30614 -0.41296,12.09806 0.61291,1.19759 2.16476,2.06007 3.73415,1.78002 1.95615,-0.40157 3.50374,-1.58095 4.83822,-2.79702 0.0476,-3.68906 0.0302,-7.3816 0.26069,-11.06288 z M 59.709058,231.92228 c 3.538598,-0.64869 6.759834,1.22712 9.276517,3.11033 3.368862,2.78959 6.177081,6.11355 7.955095,9.82449 0.539101,1.12021 0.777977,2.34372 0.578037,3.54885 -0.256617,1.59944 -0.404243,3.3535 -1.604234,4.68385 -1.408362,1.10171 -3.629789,0.86226 -5.12509,0.0148 -1.486796,-0.83273 -3.038746,-1.58095 -4.65574,-2.2148 -2.425813,5.4429 -7.381379,9.74721 -12.784823,13.18212 -4.242726,2.71965 -8.867965,5.00439 -13.64997,6.96869 -3.425512,1.10172 -6.92925,2.04901 -10.485278,2.80063 -1.417075,0.32791 -2.8908,0.29491 -4.342737,0.26164 0.852095,-0.1695 1.760583,-0.22469 2.538578,-0.59694 7.781322,-3.72549 15.370696,-7.76813 22.443853,-12.40414 4.777437,-3.26136 9.520117,-6.71416 12.910237,-11.09583 -1.647498,-0.31683 -3.303711,-0.61541 -4.986176,-0.75165 -1.325778,-3.27614 -1.364998,-7.26331 1.430149,-10.01249 -1.347567,-0.99877 -1.543234,-2.64227 -1.78673,-4.04998 -0.256037,-1.36413 0.565545,-2.98174 2.287217,-3.26922 m 6.60753,8.1552 c 0.625987,2.44321 0.686729,4.95295 0.80414,7.44026 2.35609,0.22468 4.729502,1.17198 7.103022,0.678 1.099713,-0.52328 0.326066,-1.72081 -0.247907,-2.33256 -2.168924,-2.25892 -4.916348,-4.06104 -7.659202,-5.78568 m -5.785959,1.05025 c -0.773913,0.9729 -1.673644,2.09312 -1.55195,3.32025 1.369356,1.45925 3.681868,2.06728 5.772886,2.38805 0.204299,-0.70017 0.447847,-1.38559 0.608557,-2.08941 0.573675,-1.42991 -0.730325,-2.71221 -1.773656,-3.70732 -0.777983,-0.7997 -2.382234,-0.82557 -3.055858,0.0885 z M 323.00691,229.10334 c 2.30837,1.63239 3.71237,3.98004 5.27295,6.12099 3.99487,5.9588 7.3988,12.18627 10.69421,18.4399 7.22918,13.42446 11.98453,27.75656 14.60229,42.33099 0.73903,4.51802 1.49551,9.0618 1.3432,13.63808 0.4391,9.0837 1.71264,18.37082 6.1858,26.73201 3.29096,5.68001 8.88836,10.72064 13.27159,14.40543 2.08868,1.22331 2.97297,0.93487 3.5235,0.43516 0.34056,-0.30913 0.20628,-4.29347 0.90175,-6.16541 0.99101,-3.07335 3.26046,-5.6898 5.67288,-8.07413 2.69961,-2.5058 5.75545,-4.80532 9.36346,-6.31993 7.22482,-3.10663 14.71494,-5.74868 22.27912,-8.19582 5.69466,-1.79106 11.48498,-3.37934 17.40603,-4.53261 -25.41236,0.15104 -50.82575,0.32792 -76.23918,0.57477 1.26946,-5.23277 2.56036,-10.46217 3.86905,-15.68719 2.69522,-2.99969 6.08577,-5.4651 9.43316,-7.91565 14.57145,-10.19307 31.39398,-17.73631 48.4312,-24.49158 -1.99536,-2.64961 -4.76872,-5.11875 -5.20787,-8.37269 -1.03025,-4.56957 1.20843,-9.0874 4.02536,-12.89091 1.66929,-2.15944 3.22995,-4.51805 5.79904,-6.00322 2.57778,-1.51462 6.06578,-1.61505 8.88538,-0.53806 9.4469,3.59552 19.1916,9.92598 26.39547,15.61068 0.7216,0.61912 1.64751,1.15347 2.09974,1.96059 -1.69542,4.65428 -3.48633,9.29019 -5.12944,13.96329 -7.51158,1.42249 -15.06248,2.78225 -22.38328,4.82754 0.74341,3.932 2.06924,8.22144 0.0781,12.03216 -0.69544,-0.0811 -1.63879,-0.18428 -1.75623,-0.90662 -0.28247,-3.30547 -2.16042,-6.3126 -4.09041,-9.12802 -9.34189,3.11778 -18.66231,6.34216 -27.46893,10.44369 -7.09888,3.34245 -14.29723,6.96846 -19.55721,12.31593 39.07083,0.0111 78.14696,0.0111 117.21991,0 -2.50393,4.66544 -5.18175,9.26798 -7.73339,13.91441 -25.58241,5.28455 -51.11699,10.93322 -75.93414,18.44416 -10.41545,3.23554 -20.82304,6.79545 -30.06012,12.07254 -0.95643,0.61913 -1.50858,1.76152 -0.81287,2.69012 1.43451,1.86843 4.05153,2.63854 6.24681,3.70359 4.77309,2.24043 10.06354,3.46022 15.26228,4.76865 3.72546,0.93225 7.45089,1.86099 11.17144,2.80435 -0.30862,5.59021 -0.36066,11.19572 -0.76083,16.77872 -3.04746,0 -6.15563,-0.457 -9.22019,-0.68538 -6.00331,-0.60434 -12.09823,-1.00986 -17.88855,-2.57234 -7.8856,-2.11533 -14.98913,-6.13204 -20.55306,-11.29883 -6.10769,-5.57183 -10.52419,-12.334 -13.68931,-19.42087 -4.32093,-9.82086 -6.72933,-21.85048 -7.56397,-32.28311 -0.38246,-0.0441 -0.47468,2.03254 -0.84404,1.99938 -1.08227,4.59913 -2.35534,8.6813 -4.16791,13.11836 -0.34349,1.05395 -1.25637,1.85738 -2.0605,2.67533 -5.81645,5.72679 -12.01958,11.17021 -18.505,16.34719 -6.63803,5.24385 -13.55856,10.26313 -21.03558,14.63396 -7.86382,4.57331 -16.37084,8.68589 -25.77797,10.41413 -5.05559,0.88815 -10.80265,1.05763 -15.23255,-1.53661 -4.94684,-2.86696 -7.35957,-7.84924 -8.66358,-12.62522 -4.50778,2.90022 -9.05075,5.75972 -13.69353,8.5053 -4.19042,2.38433 -8.36366,4.9049 -13.1632,6.34216 -11.99832,3.77725 -24.48236,6.25372 -36.90263,8.80757 -8.90719,1.71007 -17.81841,3.42345 -26.78661,4.88641 8.30734,-3.99821 16.74497,-7.81617 25.01698,-11.86955 22.44385,-10.88538 44.55292,-22.3245 65.65762,-35.0018 2.87772,-11.68568 7.52465,-23.44152 16.52704,-32.81982 0.11305,-0.0258 0.34351,-0.0811 0.45656,-0.10692 -0.71725,1.29345 -1.06076,2.71221 -1.79979,3.99822 -5.42523,8.05562 -9.28088,16.95938 -10.64641,26.18252 9.60696,-5.92212 18.98327,-12.13102 27.80797,-18.88309 5.45117,-4.14212 10.5721,-8.59373 15.24953,-13.36919 1.28657,-1.35256 3.0344,-2.51314 3.52118,-4.28943 0.21301,-1.15593 0.0926,-1.86896 -0.682,-4.2652 -5.45531,-12.7825 -13.19827,-28.73116 -18.34026,-39.97047 1.7606,-5.67874 3.39066,-11.38703 5.16868,-17.06247 2.36916,1.32298 3.91229,3.40132 5.59901,5.28083 3.44294,4.2857 6.68129,8.6932 9.58953,13.25864 1.62571,2.50954 1.93435,5.42442 2.53019,8.19582 -2.33421,-1.78001 -3.96024,-4.19368 -6.55111,-5.71562 0.11306,0.40528 0.26941,0.79971 0.47372,1.18653 4.09914,6.85805 6.9031,14.24709 8.72033,21.77184 1.1215,4.47 1.60829,9.05435 1.2956,13.62425 -0.23481,4.95296 -1.03024,10.02727 -3.71236,14.49684 -2.38224,3.969 -5.58595,7.52498 -8.93334,10.93747 -11.34574,11.28713 -24.64391,21.01617 -38.14934,30.38385 0.0174,0.54546 0.74777,0.69278 1.18251,0.99138 4.83387,2.55757 10.88128,2.29951 16.27941,1.50357 4.06895,-0.79972 8.2594,-1.4077 11.98451,-3.09557 9.7767,-4.33747 18.30093,-10.38479 26.53046,-16.54595 10.78989,-8.32464 20.95269,-17.22405 30.6468,-26.45887 -3.23867,-9.74349 -6.60319,-19.45382 -10.0287,-29.14991 -1.86057,-5.06326 -3.59056,-10.17097 -5.81645,-15.1271 -3.69059,-6.53729 -7.23789,-13.15236 -10.45467,-19.86301 1.2991,-5.12638 2.93353,-10.19709 4.32032,-15.31202 m 98.33441,26.36746 c -1.18251,0.39788 -2.1735,1.50357 -1.67801,2.61273 0.18251,0.84011 1.26509,1.13126 1.83435,1.75407 2.36916,2.33257 4.61206,4.76122 6.67289,7.30029 5.14252,-1.58466 10.36347,-2.95911 15.5535,-4.41484 -3.86435,-3.12862 -8.15502,-6.10611 -13.31093,-7.52125 -2.93437,-0.8438 -6.2166,-0.74057 -9.07255,0.26903 z m 113.76567,-6.73634 c 15.83623,-8.3136 31.58636,-16.74152 47.44383,-25.02195 -0.44784,2.5834 -1.32142,5.41337 -3.82546,7.116 -15.35368,8.11823 -30.79453,16.12614 -46.14396,24.25882 0.65649,-2.16676 1.69107,-4.23405 2.52571,-6.35299 z m -79.8985,-31.33827 c 1.46502,-0.71865 3.61237,-0.66692 4.60335,0.64498 1.36501,1.74674 1.73008,4.03149 0.9913,6.03617 -1.3955,3.97631 -4.47749,7.35545 -7.83764,10.29638 -4.08606,3.38284 -8.97659,6.50062 -14.75851,7.2633 0.96949,-1.01701 2.38659,-1.58095 3.63415,-2.31068 3.58184,-2.04529 7.02915,-4.30059 10.03739,-6.93543 1.57809,-1.54767 3.28629,-3.22075 3.5691,-5.33969 0.10869,-1.7763 -1.79107,-3.29443 -3.72979,-3.58936 -2.82566,0.42375 -4.58623,2.49465 -6.66418,3.95049 -0.49551,-1.286 0.83029,-2.18897 1.61264,-3.13233 2.49063,-2.56489 4.99893,-5.3175 8.54188,-6.88387 z m -206.26409,-8.6082 c 4.8426,-2.53163 9.58953,-5.20717 14.4928,-7.6541 -0.48243,2.61273 -1.48244,5.63825 -4.47749,6.93914 -10.71124,5.55728 -21.30449,11.27969 -32.05506,16.77872 1.19972,-2.08206 2.38222,-4.18622 3.70366,-6.21302 6.05996,-3.34639 12.23322,-6.55972 18.33599,-9.85041 z m 466.47765,-16.27705 c 7.05976,4.02786 12.88047,9.77676 16.03178,16.50981 3.1038,6.52646 3.07797,13.93354 0.57831,20.59955 -0.33914,0.77013 -1.06516,1.34882 -1.67363,1.96791 1.08696,-4.52526 1.46066,-9.27541 -0.0519,-13.7635 -2.13864,-7.11227 -8.25504,-13.01952 -15.69274,-16.59377 0.36908,-2.90023 0.45191,-5.81894 0.80821,-8.71915 z m -170.11712,2.92242 c 1.2127,-1.25666 2.39529,-2.53534 3.72543,-3.7036 -1.26508,2.50581 -0.29991,5.22907 0.29993,7.76814 0.68237,2.32524 1.33885,4.67278 2.37352,6.90587 1.29123,1.43365 3.55602,2.16305 5.64237,2.10789 0.9695,-0.003 1.43014,-0.96549 1.09535,-1.65459 -1.02151,-2.80064 -2.34737,-5.52028 -3.85596,-8.15522 0.29121,-1.93476 1.13894,-3.79575 1.73444,-5.68235 0.72159,0.0552 1.45629,0.10692 2.19528,0.1695 0.48244,3.43088 2.5996,6.47097 4.26016,9.55175 -0.0693,2.4802 -0.27376,4.97485 -0.83901,7.41434 -0.42605,1.6989 -1.16944,3.6666 -3.1951,4.43311 -1.72571,0.56763 -3.74721,0.88446 -5.49038,0.19907 -2.56036,-0.96181 -4.37759,-2.85591 -5.95133,-4.75016 -0.99535,2.67893 -3.52553,4.8016 -6.62932,5.74155 -2.55165,0.99507 -5.65545,-0.0478 -7.27276,-1.86844 -1.85612,-2.14859 -2.18221,-4.91595 -2.21282,-7.49913 0.1044,-2.4802 0.33479,-5.03393 1.59521,-7.31135 0.81721,-1.52939 2.08231,-3.03274 4.02538,-3.60401 -2.59086,3.62995 -2.87773,8.28425 -0.96516,12.18309 0.55219,1.10544 1.68673,2.1742 3.19945,2.21109 2.29966,-0.0995 4.08639,-1.50358 5.60772,-2.8339 -0.0349,-3.1655 0.13049,-6.32366 0.13485,-9.48927 0.10957,-0.71446 -0.14705,-1.5733 0.52255,-2.13329 z m -383.6084,-25.69256 c 5.77726,3.17294 10.37656,8.00047 12.57546,13.55413 1.78673,4.48849 1.66056,9.42666 0.0695,13.94098 -0.21302,0.73342 -0.86519,1.28228 -1.44757,1.82039 1.17378,-4.25988 1.04768,-8.87751 -1.0564,-12.91962 -2.14299,-4.17518 -6.07283,-7.61711 -10.72823,-9.84297 0.25225,-2.18133 0.37838,-4.37031 0.58704,-6.55185 z m 186.45287,-4.73911 c 1.30835,-1.37443 2.47778,-2.95538 4.21658,-3.95782 -1.14766,1.47773 -0.66521,3.30174 -0.39117,4.93073 0.64344,3.04019 1.5999,6.03245 2.73011,8.96965 0.35659,1.22714 1.84741,1.75045 3.07764,2.22225 1.1128,0.35378 2.45164,0.68168 3.58186,0.21014 0.71287,-0.53067 0.37809,-1.43724 0.12612,-2.0931 -1.08695,-2.57234 -2.19963,-5.15169 -3.72981,-7.56195 l 1.75624,-5.60872 c 0.7652,0.0515 1.53006,0.0959 2.30836,0.13624 0.35225,3.45311 2.59087,6.46736 4.20351,9.56664 -0.0563,2.64227 -0.28247,5.30645 -0.95642,7.89355 -0.38246,1.52578 -1.21281,3.13596 -2.91258,3.90267 -1.95179,0.65607 -4.27758,0.96182 -6.18581,0.0515 -2.21281,-1.07609 -3.98201,-2.7159 -5.36858,-4.50698 -1.11278,2.74548 -3.78613,4.91968 -7.03351,5.81521 -2.23429,0.71128 -4.89052,-0.0478 -6.41633,-1.54767 -1.94306,-1.70975 -2.4647,-4.18623 -2.65154,-6.46736 -0.15229,-2.93348 0.12612,-5.95879 1.47807,-8.68949 0.77394,-1.58467 2.15606,-2.98121 3.98647,-3.75142 -1.79544,3.0219 -2.71701,6.53728 -1.71265,9.87602 0.44348,1.75047 1.1825,3.98377 3.48185,4.53259 2.48214,0.26902 4.45582,-1.33032 6.05561,-2.71592 0.29932,-3.72942 0.11245,-7.48106 0.356,-11.20636 z m 192.22406,-4.72434 c 8.3594,-3.06602 16.71836,-6.16157 25.26993,-8.81489 -0.26098,1.64714 -0.96513,3.52674 -2.85615,4.31163 -12.14074,4.39273 -24.33039,8.7117 -36.21499,13.59024 -2.36044,1.10546 -4.78615,2.24043 -6.62496,3.94308 1.31271,1.22713 3.27757,1.68786 5.05123,2.24042 -0.0218,1.19013 -0.0174,2.3806 -0.0174,3.57446 -2.51264,-0.51589 -5.02944,-1.29344 -6.97719,-2.77853 0.11306,-1.69158 0.0782,-3.39389 0.35224,-5.07441 0.28247,-1.52579 2.12121,-2.24414 3.45134,-3.07336 5.89086,-3.11013 12.26828,-5.47967 18.56663,-7.91916 z m -376.17925,-14.83587 0.34351,0.29119 c -0.75648,0.8145 -0.36939,1.89033 -0.2479,2.82657 0.41296,2.01575 1.00409,4.01299 1.82126,5.94031 0.2694,0.86227 1.32578,1.27496 2.22556,1.56244 0.78673,0.13994 2.06052,0.46809 2.38661,-0.42374 -0.5391,-2.08939 -1.83434,-3.9541 -2.63445,-5.95881 0.37808,-1.15719 0.55654,-2.39909 1.20397,-3.47126 0.43477,0.007 0.87826,0.0223 1.32142,0.0478 0.43477,2.24785 1.81288,4.22682 2.80387,6.30155 -0.0563,2.1337 -0.13484,4.34832 -1.0826,6.35331 -0.59111,1.35626 -2.47342,1.7172 -3.98616,1.69891 -2.21282,-0.26534 -3.66465,-1.84993 -4.97309,-3.22809 -0.84339,2.01202 -2.99954,3.58563 -5.51219,3.86208 -2.1128,0.0921 -3.90357,-1.35256 -4.46008,-2.99971 -0.73467,-2.17781 -0.65214,-4.51804 -0.0563,-6.71073 0.46528,-1.53312 1.37371,-3.19144 3.24301,-3.78099 -1.47371,2.1116 -1.83868,4.70955 -1.01279,7.06423 0.32171,0.9729 0.91719,2.1926 2.2735,2.33256 1.50391,0.0223 2.62137,-0.95071 3.69495,-1.70634 0.27811,-2.41016 -0.0566,-4.84231 0.29555,-7.24852 0.54376,-1.03548 1.63071,-1.80191 2.35227,-2.7526 z m 69.27441,-4.15318 c 0.92155,0.21015 1.58679,0.8475 2.34736,1.30078 4.60803,3.21705 8.44624,7.39977 10.27656,12.26068 1.71263,4.40008 1.60828,9.23132 0.0826,13.65722 -0.20864,0.76643 -0.78234,1.38559 -1.28686,2.02679 -0.0392,-0.0811 -0.11743,-0.24686 -0.16073,-0.32791 1.11278,-4.09036 0.94771,-8.49416 -0.99536,-12.38609 -2.09973,-4.2636 -6.03383,-7.79397 -10.78033,-10.01622 0.12177,-2.17388 0.32171,-4.34809 0.51731,-6.51506 z m 41.80549,-3.79553 c 1.16942,-2.41387 4.23401,-4.44046 7.42911,-3.97632 1.59552,0.29119 2.71266,1.48135 3.28192,2.71592 1.11714,2.54268 1.28252,5.31388 0.89104,7.98943 1.96049,1.9899 4.09041,4.00564 4.91198,6.58532 1.52135,3.3939 0.16071,7.01651 -1.13456,10.29265 -1.65622,4.33385 -4.80359,8.26946 -5.39037,12.87604 -0.20431,1.13871 0.31299,2.3806 1.68671,2.77481 2.20835,-0.55285 2.55164,-2.77853 3.00377,-4.40007 0.6911,-0.13995 1.77364,-0.20277 2.01257,0.53806 0.37811,2.049 -0.68237,4.02043 -1.53886,5.88886 -0.77362,1.41887 -1.84743,3.09557 -3.83418,3.41239 -1.58681,0.24687 -2.79951,-0.93224 -3.43423,-2.01202 -1.80852,-3.11034 -1.23895,-6.79916 0.27377,-9.90557 2.3561,-4.94923 5.46859,-9.9315 5.18174,-15.42255 0.008,-2.33257 -1.14765,-4.55854 -2.99508,-6.25746 -2.76028,6.31995 -7.22471,12.0173 -12.3671,17.11775 -2.6603,2.80064 -6.48138,4.51071 -10.12861,6.21674 -3.26449,1.43365 -6.57702,2.84506 -10.05482,3.88046 6.69436,-4.08303 13.11536,-8.54591 18.67078,-13.73054 4.58189,-4.35948 8.79847,-9.27543 10.49835,-15.024 l -0.11305,-0.32421 c -2.47778,-1.35626 -5.45552,-2.55385 -6.74665,-4.94923 -0.54754,-1.3636 -0.47778,-2.8965 -0.10408,-4.2857 m 2.48214,0.69277 c -0.63908,0.35008 -0.19995,1.02068 0.32171,1.24935 1.56067,0.77012 3.16457,1.48506 4.78615,2.16304 -0.0392,-1.3856 0.25661,-3.10662 -1.17379,-4.09408 -1.23895,-0.87731 -2.93438,-0.11801 -3.93408,0.68169 z m 264.64555,-3.08452 c 0.83467,-1.23457 2.12556,-2.75651 4.03846,-2.54268 2.03002,0.38703 4.01665,1.31194 5.26421,2.75653 0.63469,0.90292 1.16072,2.28112 0.0349,3.07707 -0.59112,0.49001 -1.01281,1.31928 -1.74316,1.56616 -1.02152,-1.13126 -1.81287,-3.15072 -3.87773,-3.09183 -2.58653,0.80708 -4.01667,3.02903 -4.79063,5.14063 -1.60391,4.35576 -1.92999,8.94744 -2.4342,13.45848 -0.51295,0.4496 -1.20397,0.70016 -1.82128,1.02067 0,-4.5733 -1.252,-9.47076 -5.11637,-12.84946 -1.86047,-0.19538 -4.0733,-0.38336 -5.11637,-1.91254 -1.26946,-1.94953 -2.1822,-4.35576 -1.30399,-6.55208 1.96922,-0.3279 3.56476,0.92486 4.9036,1.96431 3.53859,2.75292 5.82486,6.39732 7.89005,10.01994 0.87301,-4.11312 1.75102,-8.32144 4.07246,-12.05449 z m -503.368526,1.48508 c 1.078244,-1.61421 2.26915,-3.27614 4.13846,-4.31164 -2.981992,5.45406 -6.451185,10.87157 -7.559508,16.88925 -0.347875,1.96792 -0.36095,4.2232 1.125859,5.87781 1.391249,1.48508 3.921005,1.51089 5.890223,0.99138 2.204105,-0.74797 3.22995,-2.75292 4.260156,-4.42228 0.460928,0.0111 0.556541,0.47177 0.777993,0.74795 -1.160721,3.86568 -2.282221,8.05935 -5.720806,10.98954 -3.19509,2.86324 -9.498331,1.38921 -11.067285,-2.16677 -1.138932,-2.55756 -0.76084,-5.38774 -0.09129,-7.99674 1.643458,-5.87389 4.755967,-11.36897 8.246631,-16.59804 z m 299.814666,-6.12832 c 5.72953,3.32025 10.42853,8.11112 12.61902,13.74225 1.08697,2.95538 1.48679,6.1061 1.06517,9.18701 -0.313,2.24413 -0.73468,4.5733 -2.21717,6.50422 -0.20866,-0.58953 -0.0694,-1.19386 0.0606,-1.78 0.98665,-4.45523 0.14764,-9.23133 -2.5778,-13.15238 -2.24736,-3.2688 -5.57287,-6.01034 -9.48517,-7.8199 0.0741,-2.23308 0.33044,-4.45523 0.53477,-6.68088 z m 79.95589,-2.99968 c 2.26044,0.99506 3.73853,2.81177 5.19482,4.51442 3.55166,4.4075 6.5682,9.35694 9.27652,14.16631 0.26445,0.63496 0.27803,1.4231 0.46532,3.53757 -1.63443,-1.50728 -3.54731,-2.9628 -5.97716,-3.40505 -0.43041,0.80709 -0.42607,1.67671 -0.0606,2.50208 3.15587,8.20666 6.72488,16.29939 9.78105,24.53516 1.94743,5.36926 3.65593,10.88539 3.72109,16.53852 0.13484,5.24756 -0.92156,10.4878 -2.74723,15.49164 -1.83432,4.70213 -4.64702,9.36385 -9.33761,12.46685 -3.86033,2.65705 -9.01156,3.75878 -13.92313,3.3683 -5.99459,-0.37966 -11.67202,-2.83029 -15.83196,-6.47107 -2.22154,-1.7948 -4.02538,-3.91352 -5.71645,-6.07317 l 0.64778,-0.12909 c -0.17816,0.0184 -0.53036,0.0552 -0.70852,0.0737 -3.75594,-5.36552 -6.54237,-11.22122 -8.15065,-17.3133 0.14357,-0.78862 -1.63006,-0.72234 -1.45194,0.0626 -2.29094,8.88497 -5.94699,17.6481 -11.99833,25.2175 -3.53423,4.3483 -8.10708,8.22888 -13.7807,10.52467 -6.18144,2.47275 -13.46291,2.63483 -19.97064,1.05025 -6.53802,-1.59944 -11.71986,-5.97729 -14.52787,-11.13621 -4.06896,-7.39243 -4.69059,-15.7616 -4.24273,-23.79862 0.87391,-6.49319 2.78643,-12.8431 4.65575,-19.17007 0.63036,-1.9458 1.19122,-4.03891 0.37809,-6.01405 -0.26067,-0.11432 -0.77799,-0.3427 -1.0346,-0.45702 -0.87389,0.48264 -1.77365,0.95813 -2.456,1.6361 -4.7905,4.48116 -7.51158,10.20784 -9.68519,15.88701 -1.64313,4.57332 -2.92564,9.24238 -3.78622,13.97075 -1.14329,7.47352 -2.89516,15.03569 -6.95105,21.80796 -2.19963,3.60042 -5.50346,7.34068 -10.48081,8.16628 -4.61206,0.52328 -9.54189,-0.70387 -12.91979,-3.46043 -4.13846,-3.27985 -5.95102,-8.04829 -7.04223,-12.63267 -1.7388,-8.22886 -1.19971,-16.66392 -0.10868,-24.92627 0.73031,-5.09281 1.77365,-10.14874 3.0733,-15.15685 0.42604,-0.0332 0.85645,-0.0589 1.29527,-0.0811 -1.72138,8.44271 -2.90825,17.01466 -2.60829,25.59691 0.26939,4.89013 0.9477,9.8723 3.29062,14.398 1.59117,3.09929 4.29045,5.98473 8.04204,7.31877 3.54296,1.22341 7.91588,1.44449 11.2331,-0.37963 3.42986,-1.90884 5.03814,-5.3175 6.31193,-8.47566 2.50831,-6.99058 3.61674,-14.2609 5.58595,-21.36265 2.06487,-7.20813 5.03377,-14.22051 8.67676,-20.96515 2.08666,-3.93201 4.38631,-7.79769 7.33779,-11.32115 2.62138,-3.13594 5.02944,-6.57799 8.75053,-8.88123 0.27812,0.0111 0.82593,0.037 1.10408,0.0478 0.68236,2.36212 -0.12178,4.80904 -0.24355,7.20081 -0.23046,3.9505 -1.92564,7.66143 -2.89951,11.49013 -1.20844,4.37796 -2.24301,8.7928 -3.27757,13.20339 -1.59989,6.31634 -2.73882,12.97912 -0.72597,19.33267 1.52134,4.98228 5.57722,9.37862 11.05453,11.64849 3.56039,1.58826 7.55526,2.39536 11.56363,2.51686 5.63365,0.48287 11.5243,-0.0921 16.56213,-2.39178 6.07282,-2.68266 10.3722,-7.54717 13.15894,-12.74318 2.72575,-5.19241 4.28195,-10.8163 4.73386,-16.48007 0.0606,-11.25098 -0.86081,-22.7188 -5.39909,-33.38737 -0.57804,-1.47403 -1.33449,-3.00341 -1.00409,-4.58435 0.71725,-4.33748 2.42581,-8.51265 4.42958,-12.53276 0.12614,-0.4607 0.77799,-0.49372 1.16943,-0.72973 2.14299,5.42814 4.22529,10.89283 5.52524,16.52044 1.63878,7.31506 2.58216,14.72536 3.55169,22.11832 0.76954,5.2771 0.99536,10.63563 2.55599,15.80942 1.29528,4.29315 3.31242,8.49415 6.48138,12.05023 3.85159,4.53632 9.63308,7.9046 16.06259,9.19062 5.50346,1.08354 11.38083,-0.30943 16.01053,-2.91499 2.43421,-1.4077 4.96004,-3.78098 4.15142,-6.46736 -7.70723,-17.18789 -14.04534,-34.78711 -20.34369,-52.36931 -0.41732,-1.45181 -1.21269,-2.84133 -1.34321,-4.33374 0.81752,-4.65016 2.73881,-9.1091 4.90359,-13.41701 z m -215.3513,14.44581 c 2.63444,-5.04137 5.26422,-10.08614 7.95509,-15.10583 5.20353,10.14875 9.43754,20.65162 12.61053,31.38609 0.37373,2.17048 -0.38246,4.35202 -0.29121,6.53356 -1.81691,-2.73442 -3.90357,-5.33237 -5.80776,-8.02256 0.49116,4.92339 1.38244,9.82085 1.9213,14.74447 3.64286,29.07871 6.84667,58.19886 9.5808,87.35196 3.13429,-1.9236 5.52525,-4.68383 6.86846,-7.75358 1.75186,-3.45671 3.64286,-6.8947 6.20322,-9.98294 0.96078,-1.10917 2.22993,-2.53163 4.09074,-2.18898 1.05204,0.0514 1.55196,1.00985 1.65622,1.78734 0.46528,2.73815 -1.97794,5.10025 -1.56067,7.81619 0.11304,2.22957 2.16913,4.14212 4.61216,4.81646 4.2253,1.29345 8.81589,0.71495 13.14938,0.19538 1.95616,-0.36486 4.39908,-0.678 5.35116,-2.3991 -1.01717,-2.76397 -2.14735,-5.49817 -3.42988,-8.18104 1.82999,-3.95411 3.92101,-7.82363 5.82954,-11.75584 0.49114,-0.92855 0.82158,-1.95314 1.63006,-2.73442 1.38679,4.49594 1.73445,9.16128 2.29531,13.76774 0.57803,7.4476 -0.83031,15.17918 -5.21224,21.73145 -2.36044,3.35351 -5.88587,6.40104 -10.48528,7.37022 -4.00795,0.8145 -8.41169,0.44223 -12.04615,-1.25306 -4.20787,-2.03051 -7.09431,-5.59765 -8.59419,-9.44123 -2.27786,4.43684 -5.27292,8.63061 -9.08531,12.23836 0.44348,5.75601 0.93898,11.5082 1.27817,17.26867 0.25196,6.42324 -1.69108,12.71767 -3.93844,18.79806 -1.091,2.61273 -2.16479,5.24013 -3.51245,7.76814 -11.98026,16.59803 -27.81648,31.30107 -46.81782,42.2789 -12.43727,7.24121 -26.19564,12.85692 -40.64062,16.54596 -7.5508,1.85739 -15.27079,3.37201 -23.1262,3.85836 -8.10739,0.0959 -16.33574,-0.79232 -23.913741,-3.31291 -7.111738,-2.35107 -13.323671,-6.63315 -17.310359,-12.16822 -14.006018,1.22714 -28.094938,1.9015 -42.179607,1.93105 12.562691,-3.81765 24.999968,-7.94139 37.227867,-12.48175 -3.264494,-13.49885 -0.565259,-27.41751 3.516808,-40.56565 2.499572,-7.97092 5.45393,-15.88593 9.074994,-23.5361 2.743914,-6.1211 3.824707,-8.93554 9.065326,-16.15696 -5.490481,8.21537 -6.290166,11.59641 -8.744567,17.41957 -3.303705,8.96595 -5.679024,18.22204 -6.3789,27.6014 -0.691086,10.31084 0.182509,21.13734 5.850994,30.46888 15.070974,-5.97356 29.742325,-12.68792 43.809995,-20.22012 11.92818,-6.47842 23.45248,-13.54668 33.92458,-21.64961 4.96438,-3.89161 9.78944,-7.95242 13.8668,-12.53699 1.20396,-1.20131 0.61725,-2.915 0.2261,-4.2821 -0.90849,-2.2959 -1.93872,-4.55482 -2.98635,-6.80268 -7.12919,2.44692 -14.72345,4.12363 -22.45662,4.09408 -4.21657,0.10325 -8.55496,-0.57846 -12.18963,-2.46169 -3.11687,-1.62878 -5.42937,-4.3042 -6.36828,-7.30401 -1.29964,-3.93574 -0.73469,-8.0889 0.0436,-12.05767 1.23458,-5.74496 3.72979,-11.49013 8.47238,-15.83812 3.32985,-3.03647 7.73774,-5.37297 12.62432,-5.98473 5.52525,0.0223 10.72823,2.30695 14.67136,5.47969 5.02072,4.03519 8.44622,9.26797 11.08109,14.63712 4.91635,-2.42843 9.64181,-5.30271 13.30244,-9.03587 3.59055,-3.16549 7.28582,-6.39731 11.87184,-8.52369 1.1433,-0.55654 3.11687,-1.17198 3.87743,0.12885 0.83029,1.93104 0.0392,4.0537 -0.51731,5.97357 -1.47807,2.80062 0.30864,5.98473 2.51701,8.12556 3.07329,2.94061 8.12451,3.22438 12.40645,2.56491 -4.48632,-39.0809 -9.04642,-78.15753 -13.53624,-117.23949 -0.0913,-1.3112 -0.76055,-2.50879 -1.3345,-3.70657 m -61.09379,120.0028 c -2.19964,0.80339 -4.95131,1.99364 -5.27739,4.23798 0.51731,1.70637 2.88208,2.23331 4.6601,2.59795 5.71644,0.93965 11.65821,0.92142 17.37094,-0.0296 -0.10439,-0.17319 -0.32172,-0.51587 -0.43041,-0.68907 -2.97764,-2.85951 -6.77281,-5.32121 -11.28516,-6.04361 -1.65622,-0.21015 -3.4168,-0.61174 -5.03816,-0.0737 m 37.433,15.96354 c 0.59112,7.96348 -0.72598,16.0156 -3.68622,23.58074 -1.14329,2.6275 -2.09538,5.40965 -4.25143,7.59862 -10.60263,12.01304 -24.26131,21.8271 -38.6542,30.44231 -12.82415,7.57299 -26.36466,14.29065 -40.518406,19.9034 2.417092,0.99875 4.955578,1.80189 7.594476,2.2774 7.06838,1.33034 14.36738,0.61543 21.44798,-0.25055 22.16965,-2.81541 43.04475,-11.01823 61.02365,-22.22885 11.91967,-7.43282 22.77864,-16.08894 32.25486,-25.72551 3.16895,-3.40506 7.06848,-6.73264 7.84201,-11.21379 -0.75648,-7.60234 -1.75623,-15.18661 -2.59086,-22.7847 -4.92942,1.67681 -11.03222,2.0709 -15.50568,-0.72973 -5.4296,-3.47499 -7.49446,-9.40446 -8.35069,-14.88053 -4.6822,5.33259 -10.18992,10.16746 -16.6057,14.01115 z M 451.19126,131.08277 c 1.23023,-1.73197 2.40403,-3.6445 4.50344,-4.73538 -3.05182,5.18135 -6.16432,10.45101 -7.53783,16.17078 -0.53474,2.47275 -0.71724,5.48329 1.678,7.33694 1.39092,0.57477 2.99506,0.91772 4.51216,0.4644 2.77335,-0.52698 4.06894,-2.97387 5.15123,-4.95634 0.29991,0.79601 0.49986,1.62133 0.17815,2.43948 -0.98695,3.44196 -2.29965,7.04607 -5.26867,9.65135 -3.34305,3.03647 -10.08534,1.28973 -11.35851,-2.60156 -1.11714,-3.53037 -0.0957,-7.23036 1.13022,-10.64306 1.78268,-4.56979 4.25176,-8.92928 7.01204,-13.12688 z m -352.244252,9.7029 c 2.964562,-4.87164 5.812102,-9.79132 8.702902,-14.69241 4.69496,10.39565 8.41169,21.11184 10.9897,32.02697 0.16943,1.9862 -0.46934,3.96527 -0.678,5.94031 -2.12121,-2.43215 -3.39503,-5.36192 -5.55544,-7.79035 1.17815,8.19953 1.59988,16.46518 2.36917,24.69777 0.85643,10.64624 1.66491,21.29676 2.46906,31.94618 6.43812,-0.91401 12.22364,-4.1384 16.11043,-8.53845 5.84663,-6.58905 8.44187,-14.88053 9.1766,-22.99516 -0.0479,-10.42518 -0.70417,-21.03104 -4.5688,-31.00983 -0.68236,-2.04168 -1.93871,-4.01671 -1.91289,-6.18007 0.46093,-4.02044 2.04744,-7.87507 3.72545,-11.63042 0.42605,-0.87707 0.70417,-1.99365 1.95614,-2.25522 1.90853,5.00078 3.88179,9.99773 5.15124,15.14942 1.96921,8.07042 2.9213,16.2877 4.01666,24.46927 0.73031,4.95294 0.9477,9.98667 2.4258,14.84014 1.91693,6.52643 5.8034,12.88667 12.20241,17.03591 4.81208,3.09556 10.95887,5.21461 17.07973,4.39262 4.31659,-0.65952 8.68547,-2.11533 11.70711,-4.90853 1.36499,-1.23817 2.30401,-3.05124 1.72136,-4.74643 -6.18145,-13.49141 -11.22883,-27.32931 -16.3315,-41.13319 -1.74315,-4.8016 -3.45601,-9.61437 -5.16431,-14.42351 -0.48677,-1.21979 0.14793,-2.47647 0.38246,-3.68138 1.07389,-3.67779 2.46472,-7.3225 4.38633,-10.74191 2.091,0.85119 3.4473,2.53536 4.81207,4.05741 4.11657,5.0266 7.39859,10.50256 10.41545,16.04857 -0.14356,0.70755 -0.28248,1.41885 -0.39554,2.13371 -1.53005,-1.61049 -3.49502,-3.05497 -5.95536,-3.46394 -0.39117,0.7886 -0.37374,1.65088 -0.0349,2.45064 2.73881,7.02013 5.6598,13.98882 8.44623,20.99386 2.36916,6.24629 5.21671,15.3269 5.05558,19.20725 -0.49803,5.44959 -1.39986,12.67517 -3.34368,17.75438 -2.13862,4.51443 -5.86342,9.90588 -10.93655,12.38607 -4.35145,2.21852 -9.72439,2.56119 -14.62778,1.74303 -6.45554,-1.09438 -11.993,-4.6322 -15.95843,-8.98815 -5.57287,-6.13937 -8.99402,-13.51693 -11.01946,-21.01935 -0.30428,0.007 -0.91284,0.0296 -1.21716,0.0406 -1.89546,7.54719 -4.77744,14.98044 -9.2289,21.73464 -3.99052,6.03988 -9.50705,11.7484 -17.11481,14.62969 1.33013,18.68753 2.72138,37.37081 3.67315,56.07642 0.1392,9.22388 -0.29992,18.44415 -0.83902,27.65665 -0.008,1.25307 -0.62598,2.41366 -1.08665,3.58564 -1.49114,3.9982 -3.06892,7.97453 -4.74692,11.92482 -0.26504,0.65952 -0.60855,1.3045 -1.09971,1.87215 -0.21739,-17.6109 -1.97793,-35.17821 -3.38194,-52.74129 -1.2738,-15.46614 -2.5473,-30.93332 -3.78624,-46.39947 -6.09024,-0.11431 -12.362872,-1.62504 -16.857589,-5.25127 -5.238071,-4.08673 -7.911854,-9.97923 -9.18969,-15.79454 -1.130221,-5.15169 -1.36936,-10.43263 -0.895395,-15.64681 1.043314,-6.81001 3.099431,-13.46909 5.059933,-20.12446 0.269409,-1.19015 0.465278,-2.43949 0.14793,-3.63739 -0.121773,-0.43484 -0.23918,-0.95073 -0.834655,-1.07239 -0.912844,-0.0995 -1.591166,0.47919 -2.20836,0.94703 -3.416789,2.80074 -5.651071,6.42323 -7.602859,10.04926 -3.699297,7.49191 -5.87715,15.47783 -7.064016,23.5223 -0.982579,5.30304 -2.417096,10.58355 -4.764363,15.5841 -1.864848,3.71466 -4.190434,7.53974 -8.233239,9.86869 -3.451658,2.01575 -8.016101,1.76896 -11.793199,0.61173 -4.781795,-1.50357 -8.185518,-5.13691 -9.993823,-9.07286 -3.143011,-6.7659 -3.347394,-14.17267 -3.155871,-21.34776 0.447847,-8.40945 1.856132,-16.77446 4.025375,-24.98474 0.408606,-0.0737 0.821582,-0.14362 1.23023,-0.21015 -1.756226,9.41924 -3.186375,18.97132 -2.356091,28.51967 0.40426,4.13841 1.273807,8.3173 3.360468,12.1055 1.773656,3.23554 4.886164,6.14308 9.007088,7.20081 3.503737,0.914 7.655165,0.8401 10.636836,-1.1572 3.243024,-2.20004 4.777438,-5.63825 5.96409,-8.90313 2.790788,-8.27319 3.83853,-16.89243 6.729223,-25.14308 2.803861,-8.0889 6.616246,-15.93483 11.332989,-23.3565 2.734449,-3.84719 5.690295,-7.60967 9.124523,-11.03737 1.017167,-0.89922 2.038731,-2.17782 3.655938,-2.19258 0.886676,0.48262 0.569611,1.54023 0.591121,2.29588 -0.452194,3.72211 -0.495495,7.5287 -1.808512,11.12879 -2.399674,7.38871 -4.01666,14.94004 -5.777243,22.44992 -1.221515,5.84824 -1.547486,12.09486 1.09099,17.70335 1.943074,4.27837 5.985893,7.74985 10.86323,9.68089 2.65156,1.06134 5.516521,1.71007 8.416051,2.06357 -1.59989,-20.86525 -3.4168,-41.71881 -5.07302,-62.58405 -0.37838,-3.24638 -0.12613,-6.59618 -1.617314,-9.66953 z m 645.756332,0.0811 c 2.61266,-5.25501 5.02943,-10.57251 7.67258,-15.81687 4.05153,11.31689 8.00719,22.66779 11.31068,34.15685 0.4955,1.97876 1.1433,3.94307 1.38679,5.95879 -0.3435,1.59572 -0.91718,3.1619 -0.96514,4.80161 -1.44322,-2.35851 -2.89515,-4.70956 -4.36017,-7.0534 1.84307,29.3965 4.06864,58.7781 6.55513,88.14485 0.76956,9.44484 1.89546,18.87139 2.30402,28.33473 0.74776,17.53012 0.0261,35.43967 -6.25531,52.29171 -2.36046,6.09133 -5.36422,12.02791 -9.18097,17.57051 -5.12945,7.16382 -12.74549,12.81335 -21.12275,17.15389 -14.91899,7.60968 -31.99446,11.56772 -49.04338,14.01113 -0.96515,0.2986 -1.35628,-0.65237 -1.90418,-1.08354 15.21021,-6.2094 29.83374,-13.5063 43.4837,-21.93762 6.82489,-4.33375 13.50649,-8.89941 19.24898,-14.26515 6.58138,-6.28307 11.54556,-13.84853 13.80195,-22.05879 2.47343,-8.25471 1.62136,-16.84461 1.07814,-25.24726 -1.42578,-19.36879 -3.19074,-38.71953 -4.69495,-58.08515 -2.31677,-29.8418 -4.65139,-59.68787 -6.97284,-89.52968 -0.49114,-2.09682 -2.03437,-3.89523 -2.7472,-5.93668 -0.19152,-0.50086 0.25196,-0.95047 0.40397,-1.41122 z m -38.52772,5.12246 c 8.88976,-7.91205 17.51018,-16.04111 26.05218,-24.23013 0.3784,7.35917 -4.08638,14.12485 -9.07224,19.87364 -2.66899,3.34245 -6.43376,5.84454 -9.81994,8.62328 -1.62136,1.24562 -3.19509,2.5279 -4.75129,3.82508 0.44783,1.96792 1.13021,3.90607 1.38243,5.90363 -0.1305,1.85366 -0.48245,3.69628 -0.74341,5.54249 -1.91693,-2.55012 -3.28627,-5.39517 -5.47731,-7.78291 0.96515,8.34685 1.4345,16.73088 2.09102,25.09952 1.71266,24.57236 3.28192,49.14898 4.76001,73.73195 -0.0868,0.63389 0.56961,1.03548 0.991,1.48507 6.32504,5.96252 12.62435,11.94715 18.54433,18.20396 4.65139,5.24756 9.05481,10.67176 12.78907,16.43225 4.89052,7.53971 8.76361,15.70631 9.90689,24.31407 0.62162,5.41336 0.31299,11.00017 -1.76495,16.1846 -3.66198,-14.20562 -10.40004,-27.12205 -18.25417,-36.08054 -6.60752,-7.6319 -13.83489,-15.10903 -21.13019,-22.27349 0.50859,8.76315 1.01717,17.53012 1.41274,26.29731 0.38681,11.30945 -0.10441,22.62316 -0.6696,33.92197 0.004,2.14116 -1.13457,4.0978 -1.72136,6.1431 -1.69979,4.5918 -3.06893,9.29392 -5.24678,13.74542 -0.34788,-10.43625 -0.7652,-20.88332 -1.50859,-31.3085 -1.33449,-18.67267 -2.7385,-37.33787 -3.99923,-56.01051 -0.18687,-1.47033 -0.0913,-2.97017 -0.4217,-4.41485 -4.79933,-4.7576 -9.98095,-9.23133 -14.99338,-13.82302 -8.82895,-7.81989 -17.74932,-15.56603 -27.00872,-23.01745 1.75623,19.50591 3.57313,39.0065 5.21628,58.51984 0.70418,8.85901 1.63442,17.71823 1.73445,26.6034 0.12612,7.72776 0.0349,15.45869 -0.16944,23.18324 0.0262,4.87537 0.1044,9.91301 -1.93435,14.54893 -3.01695,5.74156 -8.42912,10.53583 -14.95406,13.49462 -5.09481,2.29216 -10.85473,3.51196 -16.61847,3.55256 -3.89051,0.0737 -7.75955,-0.80338 -11.19803,-2.31068 -6.02073,-2.87801 -10.31553,-7.78663 -13.08028,-13.07158 -1.89513,-3.6373 -3.25578,-7.48087 -3.99052,-11.41255 -0.42604,-1.72092 -0.87795,-3.71095 -2.69086,-4.78684 -1.44324,-0.82555 -3.16896,-0.1658 -4.56447,0.38705 -3.395,1.53311 -6.66385,3.38285 -9.12017,5.92926 -7.99867,8.15883 -11.80276,18.57275 -14.18457,28.8215 -1.16507,4.42197 -3.01249,8.81841 -6.25552,12.47004 -2.35172,2.60156 -5.70965,5.09292 -9.68518,5.15913 -3.11346,0.0519 -6.11639,-1.07238 -8.89409,-2.2367 -6.14691,-2.74918 -10.41078,-7.78949 -12.94958,-13.17043 -0.67847,-1.4379 -1.50677,-2.63389 -2.83797,-7.72871 -1.43536,-5.49318 -1.93107,-13.83683 -1.37456,-22.32769 0.2694,-0.82186 -0.7347,-1.12021 -1.28658,-1.57723 -2.19091,-1.59199 -3.08636,-4.1199 -3.05616,-6.50062 -0.0607,-8.73732 1.4345,-17.62577 5.77288,-25.61923 3.5168,-6.59277 8.78539,-12.34889 13.91462,-18.08279 0.48241,-0.61911 1.33449,-1.11287 1.56937,-1.83517 -3.19509,-3.09183 -6.56852,-6.05466 -9.9766,-8.97699 -1.94307,-1.90509 -4.30787,-3.4531 -6.22066,-5.37669 -7.18985,-6.60754 -14.25791,-13.30648 -21.32257,-20.01074 0.67396,9.80609 1.18688,19.61962 1.76495,29.43262 0.43912,9.08743 1.18219,18.17101 1.03026,27.2698 0.0305,8.1108 -0.3999,16.21435 -0.79108,24.31408 -0.0218,2.01946 -0.98229,3.89896 -1.59084,5.82256 -1.71287,4.74271 -3.26046,9.5407 -5.3384,14.18436 -0.38684,-3.83985 -0.152,-7.70553 -0.43912,-11.54857 -0.78672,-19.17325 -2.55602,-38.30292 -3.81238,-57.45491 -1.06944,-14.65201 -2.01281,-29.31571 -3.15152,-43.96029 -4.70771,-4.95293 -9.67667,-9.74721 -14.33231,-14.74766 -5.45117,-5.82998 -10.8983,-11.70056 -15.4621,-18.06472 -6.5511,-9.994 -13.90612,-19.69721 -22.98696,-28.18805 -0.51731,-0.41267 -0.3566,-1.02809 -0.35223,-1.55502 0.31299,-5.49446 0.5609,-10.98954 0.88231,-16.48325 6.46426,3.56714 12.62859,7.52125 18.55389,11.71119 4.59058,3.35724 8.95947,6.95764 12.6764,11.02994 1.91725,1.92359 3.68623,4.37796 3.04312,7.00535 -2.18222,-0.73342 -4.43829,-1.31928 -6.50317,-2.26997 -0.83029,-0.38704 -1.73443,-0.6339 -2.66473,-0.75165 -0.13484,1.53661 1.09972,2.74918 2.02566,3.95782 6.73368,8.36162 13.75836,16.54597 20.96545,24.61699 0.9259,1.03548 1.94742,2.02319 2.66027,3.18771 -0.45656,-9.46332 -1.30835,-18.91603 -1.91288,-28.37512 -1.02153,-14.60736 -2.06923,-29.21154 -3.09072,-43.81999 -0.18688,-2.18153 -0.0607,-4.43313 -1.09536,-6.48586 -0.49987,-0.81816 0.23918,-1.56616 0.64779,-2.27368 2.47343,-4.05369 4.86438,-8.14778 7.21175,-12.26067 0.11304,-0.28751 0.6565,-1.02806 0.82157,-0.31683 4.44699,9.79866 7.90748,19.91828 10.46339,30.18829 0.78669,2.45798 -0.18251,4.9638 -0.47372,7.42177 -1.66057,-2.78224 -3.54295,-5.46139 -5.38603,-8.15884 2.36046,25.6522 3.72983,51.36708 5.49912,77.04796 1.19526,1.70264 3.03003,3.05124 4.49068,4.60657 14.10592,13.79007 28.75176,27.16989 43.38804,40.55077 10.87598,-10.23718 21.86142,-20.39336 32.88513,-30.51671 0.47807,-0.37594 0.80416,-0.83639 0.63471,-1.40769 -3.31678,-31.93131 -6.63802,-63.86689 -9.95916,-95.79818 -0.42169,-3.22811 -0.30865,-6.55207 -1.73881,-9.61809 2.71704,-4.94922 5.69467,-9.79865 8.39428,-14.75936 1.47807,2.60529 2.4952,5.38774 3.66028,8.10739 2.7385,6.77695 5.10787,13.66466 6.98122,20.64738 0.39117,1.5735 1.03461,3.16188 0.778,4.79054 -0.1956,1.4703 -0.43477,2.93722 -0.62165,4.41112 -1.81691,-2.60157 -3.56005,-5.24023 -5.39037,-7.83468 2.59778,25.71809 5.2351,58.10109 7.59416,81.96455 11.42865,-10.29264 22.76589,-20.66224 34.24661,-30.911 1.26074,-1.21608 2.69515,-2.30324 3.85596,-3.59296 -5.58593,-6.36417 -10.79839,-12.95682 -15.99775,-19.54948 -1.80821,-2.17048 -3.21253,-4.55109 -4.93814,-6.7659 -3.63415,-4.776 -7.34653,-9.60704 -12.33738,-13.45848 -0.43477,-6.20567 -0.66958,-12.42646 -0.98257,-18.64288 11.71986,8.68215 23.62679,17.19427 35.0161,26.1942 1.09132,0.82928 1.9605,1.84622 2.56909,2.98122 -1.02589,-9.71023 -1.96486,-19.42406 -2.93438,-29.13823 -0.11741,-0.89185 -0.0826,-1.8204 -0.52166,-2.65332 -0.29121,-0.85489 -1.09567,-1.76896 -0.44349,-2.64228 2.69523,-4.6984 5.23807,-9.45972 7.90312,-14.17268 4.66446,9.36013 8.29861,19.08184 11.17676,28.94267 0.29557,1.38559 1.00845,2.74547 0.79106,4.17517 -0.21302,1.57722 -0.33915,3.16189 -0.55188,4.7391 -1.6475,-2.32172 -3.29499,-4.64323 -4.92539,-6.96868 -0.28248,-0.36857 -0.54781,-0.73713 -0.78669,-1.11288 1.48647,11.11071 2.46905,22.26498 3.62978,33.40226 8.58546,-7.72404 17.40177,-15.25994 26.2828,-22.74432 3.95587,-3.17293 8.05947,-6.21673 11.84953,-9.53709 -0.35658,-4.31163 -0.5609,-8.63061 -0.96078,-12.93876 -0.0739,-1.36708 -1.55631,-2.74546 -0.51731,-4.05368 2.80387,-4.51783 5.45987,-9.10591 8.0769,-13.70823 3.0651,5.97038 5.13433,12.2798 7.3515,18.50367 m -51.13928,54.1272 c 0.13484,1.74303 0.30863,3.48604 0.4955,5.22546 2.79078,2.92232 5.62515,5.81893 8.57239,8.63062 11.23734,10.75359 22.86155,21.20747 34.26363,31.83246 -1.76496,-26.27818 -3.74724,-52.55317 -5.49911,-78.83561 -12.86241,10.84181 -25.47825,21.8898 -37.83262,33.14718 M 630.76673,176.278 c 3.60366,4.77598 7.35523,9.48182 11.35425,14.02601 -0.32171,-4.21217 -0.80415,-8.42051 -1.23894,-12.62522 -0.21739,0.37225 -0.45221,0.74452 -0.63472,1.12392 -2.71702,-1.68021 -6.03382,-2.99948 -9.48089,-2.52428 m -23.10069,67.97572 c -2.32995,2.32524 -4.92506,4.47 -7.11609,6.88739 0.5173,7.4513 1.63878,14.88371 2.32994,22.33193 0.33914,12.31167 -2.0736,25.37904 -11.00245,35.45456 0.25662,-1.60306 0.13485,-3.22439 0.15664,-4.8386 -0.0131,-5.52399 0.2616,-11.04799 0.23059,-16.5757 -0.0297,-5.29592 0.0828,-4.93255 -0.16098,-15.88701 -0.10177,-4.57384 -0.76829,-8.20167 -1.20409,-11.41999 -3.11686,2.7933 -6.08578,5.70458 -9.19402,8.50531 -6.1164,5.79301 -12.61903,11.2765 -18.88763,16.9477 6.36829,5.81521 10.36349,13.4691 11.39358,21.34459 1.03897,8.37616 -1.42144,17.28353 -7.90717,23.79544 -5.7208,5.70827 -13.92737,9.3123 -22.45236,10.97039 -3.99922,0.75167 -8.27244,1.26785 -12.2417,0.1328 0.4955,3.51559 1.11714,7.02012 1.94743,10.49151 1.42578,5.85186 3.28192,11.75902 6.9641,16.91474 1.96922,2.63484 4.66883,5.18869 8.38119,5.96252 3.96894,0.81818 8.00707,-0.86967 10.79839,-3.18399 2.4865,-1.89032 3.63851,-4.63219 4.68625,-7.24119 3.1515,-7.68332 4.21657,-15.93803 8.38554,-23.32675 2.92566,-5.86302 6.6424,-11.55282 12.00683,-16.07086 2.78206,-2.45426 5.98152,-4.54739 9.33317,-6.41219 2.30836,-1.17199 5.10351,-2.1486 7.82021,-1.46287 2.58651,0.64498 4.32966,2.57967 5.52494,4.52888 2.72137,4.38901 3.42986,9.40818 5.63364,13.97075 1.61296,3.76981 3.75149,7.59872 7.55079,10.14141 3.83842,2.56872 8.89858,3.35711 13.68505,3.18399 8.35514,-0.30216 22.09524,-6.07464 22.7914,-7.70554 0.72274,-1.69136 -1.18548,-14.50322 -1.93,-21.74633 -3.63722,-35.38652 -7.1161,-70.7837 -10.6719,-106.17234 -0.12177,-0.9729 -1.15202,-1.63239 -1.66058,-2.45799 -11.942,10.81524 -23.51837,21.91531 -35.18934,32.9378 m -54.44259,50.76976 c -2.49956,2.44694 -4.86002,5.00067 -7.21175,7.55079 -4.47325,5.11503 -8.95044,10.28894 -12.26297,16.02306 -0.83465,1.45552 -1.59552,3.2724 -0.63472,4.82009 1.1346,1.58466 3.5604,1.82039 5.55109,1.82411 8.78974,-0.29859 16.98832,-3.63366 24.12632,-7.79768 2.3866,-0.99876 4.62959,-3.2096 3.7298,-5.6087 -1.18251,-3.22438 -3.42116,-6.06944 -5.61219,-8.85902 -2.2735,-2.74176 -4.66881,-5.42079 -7.22045,-7.98197 -0.11741,0.007 -0.34788,0.0223 -0.46529,0.0296 z" fill="#000000" fill-rule="evenodd" />
</svg>
