<svg xmlns="http://www.w3.org/2000/svg" version="1.1" viewBox="312.58 111.72 275.18 332.72">
  <path d="m 524.801,394.706 -28.827,-22.53 c 29.127,-23.724 48.052,-60.064 48.052,-100.605 0,-61.866 -44.144,-113.824 -102.411,-126.137 l 4.504,-21.025 c 8.11,1.803 17.624,5.217 25.432,7.916 l 7.51,-12.608 c 8.1,3.9 17.118,7.803 24.621,12.608 l -5.703,13.518 c 7.51,4.808 16.575,12.251 21.616,18.112 l 11.277,-8.809 c 6.008,6.604 13.218,13.507 18.323,20.721 l -10.211,10.512 c 6.594,9.68 9.143,14.135 14.004,25.287 l 14.327,-3.36 c 2.706,8.408 6.814,18.702 8.32,27.408 l -13.566,5.332 c 1.62,6.766 3.718,18.584 3.583,28.525 -0.011,0.598 -0.056,1.276 -0.056,1.878 l 14.167,2.021 c -0.6,8.712 -0.897,18.625 -2.704,27.333 h -14.714 c -2.1,9.005 -4.81,20.02 -8.11,28.425 l 12.308,7.213 c -3.901,7.805 -7.8,17.117 -12.908,24.626 l -13.514,-5.703 c -5.11,7.505 -10.81,14.71 -17.118,21.321 l 8.706,11.41 c -2.398,2.1 -4.502,4.205 -6.908,6.61 m -63.362,-2.704 21.772,13.12 c -2.03,1.857 -8.112,5.006 -9.724,5.644 l 3.56,13.666 c -8.407,2.708 -17.42,6.608 -26.724,8.412 l -5.405,-13.513 c -8.71,1.8 -17.416,3 -26.427,3 l -1.807,14.114 c -8.406,-0.598 -18.617,0 -27.928,-2.102 v -14.11 c -8.411,-1.506 -16.519,-3.606 -24.324,-6.312 l -6.91,12.322 c -7.207,-3.01 -16.816,-6.615 -24.628,-11.416 l 5.108,-13.514 c -6.31,-3.307 -12.015,-7.509 -17.42,-11.72 l 13.515,-17.118 c 22.226,17.722 50.153,28.228 80.787,28.228 16.221,0 32.132,-2.697 46.555,-8.7" fill="#ffcb00" fill-rule="evenodd"/>
</svg>
