<svg xmlns="http://www.w3.org/2000/svg" version="1.1" viewBox="361.24 263.19 253.82 225.6">
  <path d="m 552.192,426.811 -143.73,-109.381 -1.31,1.866 143.36,109.573 -8.509,10.647 -139.753,-89.64 C 364.411,326.15 365.913,307.532 373.722,287.41 l 6.608,-16.217 c 3.605,21.023 25.223,36.944 47.748,54.658 l 126.914,97.497 z m 36.084,32.6 a 2.23,2.23 0 0 1 -2.23,-2.238 2.23,2.23 0 0 1 2.23,-2.232 c 1.237,0 2.24,1 2.24,2.232 a 2.238,2.238 0 0 1 -2.24,2.239 m -8.59,-6.308 a 2.24,2.24 0 0 1 -2.237,-2.235 2.236,2.236 0 1 1 2.237,2.235 m -8.79,-7.006 c -1.232,0 -2.236,-1 -2.236,-2.231 a 2.236,2.236 0 0 1 4.47,0 c 0,1.231 -1,2.231 -2.234,2.231 m 29.554,12.4 -43.065,-33.365 -12.514,16.127 37.41,26.235 c 3.005,2.1 3.3,11.718 14.407,13.222 4.513,0.596 7.508,-2.71 7.508,-2.71 4.84,-5.892 3.521,-14.003 -3.746,-19.51" fill="#ffcb00" fill-rule="evenodd"/>
  <ellipse fill="#000000" cx="570.89069" cy="443.87747" rx="2.2601588" ry="2.3082833"/>
  <ellipse fill="#000000" cx="579.73743" cy="450.85617" rx="2.2601588" ry="2.3082833"/>
  <ellipse fill="#000000" cx="588.29688" cy="457.1347" rx="2.2601588" ry="2.3082833"/>
  <path fill="#000000" d="m 550.68493,428.76712 1.36987,-1.82648 -143.379,-109.36073 -1.59817,1.82648 z"/>
</svg>
