<svg xmlns="http://www.w3.org/2000/svg" xmlns:xlink="http://www.w3.org/1999/xlink" width="1500" zoomAndPan="magnify" viewBox="0 0 1125 749.999995" height="1000" preserveAspectRatio="xMidYMid meet" version="1.0"><rect x="-112.5" width="1350" fill="#ffffff" y="-74.999999" height="899.999994" fill-opacity="0"/><rect x="-112.5" width="1350" fill="#fdfdfd" y="-74.999999" height="899.999994" fill-opacity="0"/><path fill="#fdfdfd" d="M 831 377.984375 L 871.5 335.386719 L 821.886719 330.40625 L 833.023438 284.386719 L 782.070312 306.472656 L 756.203125 259.6875 L 738.058594 300.40625 L 695.511719 273.90625 L 701.8125 334.816406 L 647.8125 344.960938 L 678.613281 372.253906 L 644.265625 401.144531 L 703.746094 414.425781 L 696.121094 473.363281 L 734.121094 451.453125 L 750.097656 490.28125 L 778.636719 441.390625 L 834.351562 467.453125 L 824.25 421.003906 L 866.773438 418.09375 Z M 831 377.984375 " fill-opacity="1" fill-rule="nonzero"/><path fill="#fdfdfd" d="M 757.117188 543.929688 C 704.566406 624.40625 614.003906 676.996094 503.820312 680.160156 C 336.59375 684.976562 196.5 544.199219 196.5 373.035156 C 196.5 205.941406 350.167969 61.320312 503.820312 70.101562 C 600.210938 75.601562 688.933594 122.308594 745.085938 194.355469 C 698.25 144.816406 630.996094 114 552.105469 114 C 406.605469 114 288.75 231.066406 288.75 375.21875 C 288.75 519.367188 406.746094 645 552.105469 640.808594 C 638.015625 638.347656 710.183594 601.574219 757.117188 543.929688 Z M 757.117188 543.929688 " fill-opacity="1" fill-rule="nonzero"/></svg>