<?xml version="1.0" encoding="UTF-8" standalone="no"?>
<svg
   xmlns:dc="http://purl.org/dc/elements/1.1/"
   xmlns:cc="http://creativecommons.org/ns#"
   xmlns:rdf="http://www.w3.org/1999/02/22-rdf-syntax-ns#"
   xmlns:svg="http://www.w3.org/2000/svg"
   xmlns="http://www.w3.org/2000/svg"
   xmlns:sodipodi="http://sodipodi.sourceforge.net/DTD/sodipodi-0.dtd"
   xmlns:inkscape="http://www.inkscape.org/namespaces/inkscape"
   width="212.09386mm"
   height="116.00298mm"
   viewBox="0 0 212.09386 116.00298"
   version="1.1"
   id="svg273"
   inkscape:version="1.0.1 (3bc2e813f5, 2020-09-07)"
   sodipodi:docname="Bhutanese dragon ('druk').svg">
  <defs
     id="defs267" />
  <sodipodi:namedview
     id="base"
     pagecolor="#ffffff"
     bordercolor="#666666"
     borderopacity="1.0"
     inkscape:pageopacity="0.0"
     inkscape:pageshadow="2"
     inkscape:zoom="1"
     inkscape:cx="318.17127"
     inkscape:cy="176.50725"
     inkscape:document-units="mm"
     inkscape:current-layer="g166"
     inkscape:document-rotation="0"
     showgrid="false"
     fit-margin-top="0"
     fit-margin-left="0"
     fit-margin-right="0"
     fit-margin-bottom="0"
     inkscape:window-width="1920"
     inkscape:window-height="1007"
     inkscape:window-x="0"
     inkscape:window-y="0"
     inkscape:window-maximized="1" />
  <metadata
     id="metadata270">
    <rdf:RDF>
      <cc:Work
         rdf:about="">
        <dc:format>image/svg+xml</dc:format>
        <dc:type
           rdf:resource="http://purl.org/dc/dcmitype/StillImage" />
        <dc:title></dc:title>
      </cc:Work>
    </rdf:RDF>
  </metadata>
  <g
     inkscape:label="Layer 1"
     inkscape:groupmode="layer"
     id="layer1"
     transform="translate(34.408058,-88.651168)">
    <g
       stroke="#000000"
       stroke-width="0.521"
       id="g166"
       transform="matrix(0.23418361,0.1231356,-0.1231356,0.23418361,4.847414,11.744139)">
      <g
         id="g1444"
         transform="translate(7.1759823,0.18488639)">
        <g
           fill="#ffffff"
           id="g76"
           style="fill:#e6e6e6">
          <path
             d="m 481.74,187.59 c -4.987,-1.77 -8.208,0.805 -8.046,7.244 0.159,6.44 3.542,10.142 8.53,7.727 l -0.484,-14.97 z"
             id="path6"
             style="fill:#e6e6e6" />
          <path
             d="m 486.12,175.53 c -4.154,-3.28 -8.03,-1.874 -9.946,4.276 -1.916,6.149 0.096,10.742 5.596,10.058 l 4.35,-14.333 z"
             id="path8"
             style="fill:#e6e6e6" />
          <path
             d="m 493.04,163.86 c -3.58,-3.905 -7.63,-3.138 -10.508,2.625 -2.875,5.763 -1.625,10.618 3.917,10.825 z m -4.54,56.73 c -6.117,2.254 -6.763,10.625 -2.896,15.776 3.863,5.151 10.946,6.117 14.808,0 l -11.91,-15.78 z"
             id="path10"
             style="fill:#e6e6e6" />
          <path
             d="m 481.42,202.88 c -5.796,-1.932 -11.017,5.853 -11.913,12.878 -1.125,8.854 -13.683,11.751 -6.758,25.113 1.445,-8.532 7.083,-13.2 11.588,-13.522 4.508,-0.322 11.27,-1.288 14.167,-6.761 z m 18.35,34.45 c -6.763,1.61 -7.73,10.625 -2.9,17.064 4.133,5.513 17.063,4.185 16.742,-1.288 z m 19.16,54.25 c 0.32,-5.795 -9.012,-8.049 -13.521,-6.922 -4.508,1.127 -13.121,-0.16 -15.133,-4.99 -1.608,3.863 0.725,8.049 7.246,10.141 4.933,1.585 4.829,5.152 3.379,6.762 3.704,0.644 14.65,0.644 18.029,-4.99 z"
             id="path12"
             style="fill:#e6e6e6" />
          <path
             d="m 513.62,254.56 c -6.6,-2.897 -10.513,1.516 -13.038,5.795 -3.704,6.278 -15.133,-1.77 -18.996,6.6 5.233,-2.253 10.558,2.553 13.038,4.186 7.083,4.668 20.767,3.22 22.7,-7.727 z"
             id="path14"
             style="fill:#e6e6e6" />
          <path
             d="m 517.48,262.28 c -6.6,4.99 -9.175,10.946 -9.012,14.971 0.162,4.025 5.795,12.878 11.913,13.361 3.541,-7.244 5.312,-22.537 -2.9,-28.332 z m -27.36,31.07 c 0,-2.415 3.542,-3.38 5.954,-2.576 2.417,0.805 6.117,3.22 4.83,5.796 z m -36.39,-13.2 c -0.642,-2.897 4.025,-7.888 10.304,-5.151 6.275,2.736 7.083,8.049 4.504,10.142 l -14.808,-4.99 z"
             id="path16"
             style="fill:#e6e6e6" />
          <path
             d="m 469.02,285.46 c -0.483,-1.61 4.037,-4.825 11.754,-2.898 7.725,1.932 9.62,6.907 9.338,10.786 l -21.093,-7.888 z m -16.09,-5.31 c 4.025,-3.058 2.5,-8.855 -1.13,-10.625 -6.6,-3.22 -4.183,-11.59 -8.37,-13.2 -4.183,-1.61 -8.208,-4.508 -8.37,-7.405 -2.092,4.024 -0.805,7.727 2.095,10.303 2.896,2.576 -2.254,13.039 1.446,15.776 z m -86.29,-2.25 c -3.38,-5.312 -11.43,-4.346 -14.81,-0.644 -3.38,3.703 -2.897,9.176 0.322,11.59 z m 19.32,-7.89 c -1.288,-7.083 -9.82,-7.888 -14.488,-6.117 -4.668,1.77 -7.888,8.854 -4.83,14.005 l 19.319,-7.888 z"
             id="path18"
             style="fill:#e6e6e6" />
          <path
             d="m 398.84,269.04 c 3.058,-5.956 -2.897,-14.81 -9.659,-16.098 -5.644,-1.074 -12.315,-1.046 -14.488,-6.6 -1.368,4.83 2.254,7.888 6.44,10.625 4.185,2.737 -0.806,9.82 5.956,13.844 l 11.752,-1.77 z"
             id="path20"
             style="fill:#e6e6e6" />
          <path
             d="m 398.2,269.25 c -1.409,-4.267 1.449,-9.943 7.232,-9.545 5.785,0.398 9.08,4.6 6.53,9.855 l -13.763,-0.31 z"
             id="path22"
             style="fill:#e6e6e6" />
          <path
             d="m 411.07,269.57 c -0.796,-4.422 2.83,-9.64 8.5,-8.435 5.672,1.205 8.343,5.83 5.084,10.675 z"
             id="path24"
             style="fill:#e6e6e6" />
          <path
             d="m 423.86,271.6 c -0.575,-4.457 3.308,-9.488 8.912,-8.001 5.605,1.487 8.042,6.24 4.542,10.915 z m -97.14,73.75 c -10.786,0 -13.42,2.568 -14.971,13.683 -1.932,13.844 16.903,15.454 14.971,-13.683 z"
             id="path26"
             style="fill:#e6e6e6" />
          <path
             d="m 331.55,330.86 c -16.581,-6.278 -25.595,19.961 -42.015,15.293 5.875,9.337 20.118,0.017 25.434,0.966 9.015,1.61 28.493,-1.771 16.581,-16.26 z m -10.79,35.9 c -8.21,-3.702 -17.064,8.854 -15.454,14.327 2.044,6.952 20.766,1.288 15.454,-14.327 z m -38.31,54.09 c 4.508,1.283 9.98,3.862 9.015,12.554 -0.966,8.692 -17.385,26.4 -32.195,27.367 -14.81,0.967 -20.123,18.833 -32.84,13.842 11.912,-2.25 11.912,-15.775 21.249,-19.958 -6.762,-2.417 -10.303,12.879 -18.995,12.879 -8.693,0 -12.878,13.842 -23.503,12.875 -10.625,-0.963 -11.743,16.854 -33,17.067 -16.26,0.158 -36.381,19.154 -43.625,10.946 15.776,-2.254 22.142,-10.996 31.552,-20.608 15.132,-15.45 32.196,-8.53 37.99,-22.213 -6.922,4.667 -14.97,6.92 -22.858,6.763 -9.902,-0.205 -20.766,15.775 -31.874,8.691 6.439,-0.804 10.625,-3.541 17.386,-10.625 6.923,-7.254 17.083,-2.566 25.113,-9.979 12.556,-11.592 23.342,-1.933 35.415,-16.421 -3.381,-1.608 -10.625,-0.483 -17.386,3.058 -6.762,3.542 -15.454,-2.416 -23.181,1.771 0.965,-9.496 18.995,-4.062 30.264,-10.625 12.718,-7.404 23.262,-5.233 33.323,-4.346 -14.005,-0.079 -19.478,-13.363 -38.795,-9.5 -8.425,1.688 -15.132,-11.588 -23.503,-4.829 0.24,-4.987 9.015,-9.013 18.03,-4.183 9.014,4.829 12.648,-4.226 30.586,7.083 7.405,4.667 20.122,-2.9 28.17,2.092 -1.046,-3.058 -5.634,-4.992 -11.026,-4.588 3.38,-6.92 25.193,-6.037 34.69,0.888 z"
             id="path28"
             style="fill:#e6e6e6" />
          <path
             d="m 296.78,410.38 c -7.083,-5.473 -16.903,1.128 -23.664,-1.449 0,4.506 2.254,11.27 9.659,13.844 2.254,-1.608 12.395,-10.463 14.005,-12.395 z"
             id="path30"
             style="fill:#e6e6e6" />
          <path
             d="m 307.89,394.77 c -11.108,-5.634 -13.039,8.37 -21.732,5.473 0.322,4.025 3.542,9.015 10.625,10.142 l 11.108,-15.615 z"
             id="path32"
             style="fill:#e6e6e6" />
          <path
             d="m 314.49,382.05 c -16.42,-6.44 -18.513,9.337 -28.171,6.278 2.254,5.473 16.098,8.37 23.181,6.44 z m 22.53,-69.06 c -4.347,-6.117 -13.522,-1.127 -14.971,6.117 -1.449,7.244 2.092,17.386 8.21,15.132 l 6.76,-21.249 z"
             id="path34"
             style="fill:#e6e6e6" />
          <path
             d="m 348.13,293.67 c -7.566,-1.77 -16.259,-0.966 -15.293,6.44 -2.898,1.287 -3.703,10.785 4.185,12.877 l 11.108,-19.318 z"
             id="path36"
             style="fill:#e6e6e6" />
          <path
             d="m 353.12,288.68 c -7.405,-8.693 -15.663,-8.49 -20.283,-4.83 -8.532,6.762 -16.823,2.898 -17.064,9.66 5.152,-3.945 9.659,0.804 13.844,-0.645 4.185,-1.448 7.244,6.6 18.835,3.22 z M 335.25,418.6 c 1.127,2.092 8.049,3.058 11.43,-0.483 4.48,-4.696 -0.483,-17.71 -7.566,-18.675 -7.083,-0.966 -7.727,14.65 -3.864,19.158 z"
             id="path38"
             style="fill:#e6e6e6" />
          <path
             d="m 327.2,418.92 c 10.141,3.7 14.488,-4.67 9.015,-9.981 -1.45,1.77 -6.762,8.21 -9.015,9.981 z"
             id="path40"
             style="fill:#e6e6e6" />
          <path
             d="m 289.21,432.76 c -1.932,5.796 -11.913,6.763 -23.181,24.792 -11.269,18.029 -22.054,10.463 -24.791,22.858 13.522,-10.946 24.142,-3.675 32.195,-14.488 12.235,-16.421 22.309,-14.063 27.045,-25.113 6.76,-15.775 36.381,-15.454 37.991,-40.244 -9.98,-1.932 -41.533,24.79 -49.259,32.194 z m 254.03,-243.4 c 12.879,4.185 13.2,20.927 28.008,26.4 14.813,5.473 16.263,18.673 28.333,15.454 -11.267,-3.059 -10.463,-16.098 -22.213,-19.318 -13.783,-3.776 -18.996,-24.791 -29.946,-28.01 m 54.898,92.884 c 2.254,5.151 1.933,14.327 -6.117,16.742 4.346,2.737 10.783,0.16 14.325,-5.795 -5.312,11.751 -1.77,22.376 6.6,24.469 -4.025,-8.21 4.992,-12.074 2.096,-17.386 5.313,2.254 9.98,9.498 9.817,14.005 6.925,-7.727 -5.15,-18.03 -2.896,-25.273 l -23.825,-6.761 z m -83.39,82.74 c -7.888,-6.922 -11.254,1.81 -15.133,-1.208 -3.62,-2.817 -8.45,-3.22 -10.3,-0.402 6.762,0.242 3.458,5.473 16.579,6.761 -13.121,0.886 -10.704,15.535 -19.479,14.81 9.338,8.854 14.167,-7.888 21.733,-5.15 -2.254,0.643 3.542,5.955 -0.483,13.038 6.52,-0.16 9.175,-9.176 9.983,-13.844 z m -173.7,75.18 c -2.898,-2.413 -11.269,-3.542 -14.488,-1.608 -3.22,1.929 -2.092,2.412 1.77,2.737 3.865,0.321 8.853,6.571 0.484,6.921 -3.864,0.158 -2.576,9.496 -10.625,10.142 3.3,4.025 12.718,1.367 16.098,-3.058 -0.644,3.62 4.185,6.92 2.254,11.267 5.956,0.646 2.495,-12.071 11.913,-11.43 -3.864,0.484 -2.254,9.176 4.507,6.922 -4.025,1.933 -1.932,6.6 2.575,5.475 -2.897,0.966 -3.863,4.666 0.161,6.762 3.864,-5.312 -0.483,-24.308 -14.649,-34.129 z"
             id="path42"
             sodipodi:nodetypes="cccccccccccccccccccccccccccccccccccccccccccc"
             style="fill:#e6e6e6" />
          <path
             d="m 579.3,284.02 c 6.763,-6.44 17.067,-9.659 24.146,-4.83 7.083,4.83 30.588,10.625 42.179,2.576 11.588,-8.049 17.063,-12.235 22.213,-11.269 3.867,5.796 8.533,8.532 14.329,9.015 1.77,1.932 8.05,3.542 11.592,3.058 5.15,1.288 11.429,-0.321 16.417,-5.795 7.73,1.127 14.971,-4.668 17.708,-13.36 8.208,-0.966 8.692,-10.143 3.542,-16.26 -4.83,-0.965 -1.125,-17.225 -18.675,-14.005 7.408,4.508 1.77,13.522 7.891,17.708 -4.187,0 -9.579,1.771 -10.867,8.05 1.609,-4.347 -0.241,-7.245 -1.37,-8.21 0.162,-3.703 -8.046,-12.798 -15.775,-9.498 5.554,1.207 2.416,10.142 6.441,13.522 -2.9,0.161 -5.958,1.61 -7.729,4.185 -2.092,-3.702 -9.496,-7.566 -14.004,-7.888 0,-1.288 -0.242,-3.863 -0.804,-5.15 -2.013,-3.864 -3.704,-8.452 -2.9,-14.328 -3.863,4.185 -7.083,9.98 -9.013,14.166 -6.116,-4.185 -21.25,1.932 -28.333,3.541 -7.083,1.61 -30.908,-2.253 -36.383,-8.049 -5.47,-5.795 -16.096,-9.336 -26.075,-12.234 -13.725,-3.983 -13.846,-18.995 -28.979,-29.298 -0.32,18.674 28.013,77.914 34.45,84.353 z"
             id="path44"
             sodipodi:nodetypes="cccccccccccccccccccccccccc"
             style="fill:#e6e6e6" />
          <path
             d="m 370.02,409.74 c 4.346,5.635 11.751,5.314 14.81,4.83 2.576,6.759 10.785,6.6 14.327,10.3 3.542,3.705 15.613,3.384 19.155,1.288 -3.217,-0.32 -7.403,-2.25 -11.428,-5.633 -4.858,-4.08 -2.576,-12.234 -6.44,-15.131 2.898,-3.22 3.381,-8.532 2.737,-10.625 3.06,-1.771 5.313,-4.669 5.635,-6.118 5.313,-0.322 9.98,-3.058 11.913,-5.15 2.737,2.575 9.658,-0.806 13.363,3.54 0.804,-10.625 -9.338,-16.259 -16.1,-12.717 -2.738,-1.448 -9.98,-0.482 -11.268,1.45 -2.254,-0.967 -8.532,2.253 -11.43,4.346 3.22,-1.77 3.702,-7.083 2.414,-9.015 2.737,-1.127 5.796,-4.83 6.117,-7.566 3.864,0.644 9.658,-1.932 12.233,-1.288 -4.183,-5.473 -11.105,-7.405 -18.189,-6.922 -7.325,0.403 -10.463,5.554 -11.429,11.108 -4.346,2.576 -5.795,11.268 -4.185,14.327 -2.496,-0.08 -4.83,2.335 -5.795,3.703 -3.38,-1.45 -8.21,-2.495 -11.671,-2.495 m 1.531,-8.772 c -1.449,-4.185 0.47,-7.953 1.449,-11.268 2.495,-8.45 0.966,-10.625 -6.6,-9.498 -0.644,4.025 3.22,17.225 5.151,20.766 z"
             id="path46"
             style="fill:#e6e6e6" />
          <path
             d="m 360.77,352.91 c 1.932,1.932 8.774,2.817 9.498,-3.3 0.832,-7.022 -2.012,-9.74 -8.13,-7.003 -0.482,1.61 -1.046,8.21 -1.368,10.303 z"
             id="path48"
             style="fill:#e6e6e6" />
          <path
             d="m 362.22,342.37 c 2.576,1.046 8.13,3.139 11.188,-2.817 2.566,-4.996 -0.805,-8.854 -6.117,-8.533 -1.288,1.45 -3.863,6.6 -5.071,11.35 z"
             id="path50"
             style="fill:#e6e6e6" />
          <path
             d="m 366.97,330.54 c 0.644,1.932 7.244,8.37 12.073,3.703 4.83,-4.669 4.83,-11.59 -2.415,-14.166 -1.932,0.321 -7.727,7.082 -9.658,10.463 z"
             id="path52"
             style="fill:#e6e6e6" />
          <path
             d="m 376.62,320.08 c 1.449,4.024 5.956,10.946 14.327,7.727 8.371,-3.22 4.83,-13.683 0.966,-15.776 -2.254,0.16 -11.43,4.346 -15.293,8.049 z"
             id="path54"
             style="fill:#e6e6e6" />
          <path
             d="m 391.92,312.03 c -0.644,3.542 0,13.2 11.429,13.039 11.428,-0.16 8.211,-13.522 5.313,-15.454 -4.669,0 -12.556,0.16 -16.742,2.415 z"
             id="path56"
             style="fill:#e6e6e6" />
          <path
             d="m 409.14,310.09 c -1.288,2.737 -4.19,20.75 18.191,15.776 2.896,-0.644 10.463,-17.225 -18.191,-15.776 z"
             id="path58"
             style="fill:#e6e6e6" />
          <path
             d="m 421.37,311.7 c -2.25,2.253 3.542,20.444 18.675,17.385 15.133,-3.059 2.417,-20.283 -18.675,-17.385 z"
             id="path60"
             style="fill:#e6e6e6" />
          <path
             d="m 434.25,314.44 c -2.413,4.99 1.212,19.8 19.883,19.8 16.921,0 -0.887,-19.478 -19.883,-19.8 z"
             id="path62"
             style="fill:#e6e6e6" />
          <path
             d="m 448.9,318.79 c -1.212,2.766 -2.696,18.468 19.317,19.8 15.938,0.966 12.075,-21.571 -19.317,-19.8 z"
             id="path64"
             style="fill:#e6e6e6" />
          <path
             d="m 472.57,325.39 c -2.733,4.83 -5.633,16.903 18.513,17.869 15.471,0.62 5.958,-17.547 -18.513,-17.869 z"
             id="path66"
             style="fill:#e6e6e6" />
          <path
             d="m 492.69,329.09 c -3.542,4.83 -0.933,14.303 8.046,16.098 11.27,2.254 12.879,-8.37 5.154,-13.522 -7.73,-5.151 -13.2,-2.576 -13.2,-2.576 z"
             id="path68"
             style="fill:#e6e6e6" />
          <path
             d="m 503.64,331.34 c -2.575,4.508 -0.98,15.454 16.096,15.454 3.542,0 17.067,-13.844 -16.096,-15.454 z"
             id="path70"
             sodipodi:nodetypes="csc"
             style="fill:#e6e6e6" />
          <path
             d="m 555.15,177.13 c -1.933,1.932 -5.954,7.727 -6.763,9.98 -8.37,25.113 13.975,43.871 27.046,70.83 10.304,21.25 9.017,54.733 -7.083,75.982 -5.508,7.269 -3.862,9.337 -10.946,16.742 -2.717,2.841 -5.796,6.44 -4.829,16.742 4.508,-1.61 10.946,2.576 12.233,6.118 3.22,-1.61 7.73,-0.966 9.337,0.965 5.471,-2.575 9.98,-1.288 14.808,3.864 4.188,-0.644 8.696,0 12.88,4.507 2.254,-4.507 6.762,-6.117 9.979,-5.151 -0.321,-5.795 5.475,-9.98 10.625,-7.727 -1.609,-7.727 5.475,-13.523 12.238,-11.269 5.791,-4.507 17.383,-4.829 23.179,1.932 -10.304,-2.897 -9.98,8.05 -18.675,7.083 2.254,6.44 -3.542,10.142 -9.334,12.234 3.7,-1.77 7.725,-3.863 9.013,-1.61 3.22,-2.816 9.658,-1.77 11.27,-0.321 4.263,-1.368 8.372,-0.322 10.3,4.829 5.797,3.542 9.66,12.556 5.476,19.318 -1.288,-7.083 -6.117,-6.761 -8.05,-9.659 -4.509,1.61 -9.017,1.61 -10.304,-1.288 -2.575,2.576 -11.267,4.83 -15.13,0.966 -1.45,5.795 -6.44,10.625 -12.237,10.625 1.612,4.507 -2.896,12.236 -6.438,16.098 5.475,2.896 3.863,9.337 2.575,13.2 8.371,1.287 1.288,8.692 15.775,13.521 -7.079,2.254 -20.925,0 -22.858,-8.692 -7.083,-0.32 -11.913,-7.404 -11.588,-14.813 -5.475,-5.15 -6.279,-12.554 1.288,-17.705 -6.442,1.932 -9.984,-8.37 -19.321,-4.185 -4.642,2.082 -16.9,-1.449 -16.738,-5.796 -1.934,3.22 -13.683,1.933 -15.296,-3.54 -3.863,2.092 -12.88,-1.45 -12.717,-6.762 -4.992,2.254 -11.75,-1.77 -11.43,-6.922 -4.666,-0.644 -5.15,-4.83 -4.828,-8.37 -4.188,-1.933 -3.059,-5.957 -1.45,-10.786 -2.896,-3.22 -1.609,-7.727 0.645,-11.913 -3.22,-3.22 -2.575,-7.083 -1.612,-11.59 -15.454,-1.288 -34.813,-5.015 -79.2,-18.673 -66.967,-20.605 -84.997,27.688 -70.187,57.952 17.087,34.92 -1.932,42.5 3.864,68.58 6.117,1.287 9.336,6.437 9.015,11.912 3.62,0.158 6.196,3.538 4.909,9.98 3.058,-0.563 7.003,0.32 9.578,2.895 2.254,-4.183 9.66,-5.15 13.523,-0.32 8.37,-0.647 12.556,6.116 12.235,14.487 4.505,8.05 2.896,17.871 -1.933,24.146 0.483,-3.379 0,-8.208 -0.158,-11.104 -0.3,-5.329 -7.73,-6.441 -6.924,-10.788 -3.864,0.321 -7.567,-1.77 -8.854,-4.666 -2.254,1.929 -5.474,2.575 -8.21,1.608 4.346,1.933 7.727,9.658 6.439,14.808 2.254,3.867 1.77,10.95 -0.966,14.008 -1.288,6.275 -6.117,8.53 -12.395,5.792 3.542,-2.25 4.83,-6.275 4.668,-9.659 -2.253,-1.929 -3.38,-5.633 -3.541,-7.887 -6.278,0.966 -14.971,-4.346 -16.574,-6.446 -13.831,0 -25.043,11.213 -25.043,25.046 -0.644,-5.154 -7.16,-10.229 -6.355,-14.575 -3.863,-11.913 1.61,-23.021 17.386,-25.271 -1.931,-4.508 4.83,-9.18 2.254,-14.329 -3.29,-6.58 -9.336,-15.133 -18.35,-25.113 5.473,-9.338 3.863,-21.892 0.643,-29.62 -4.623,-11.096 -9.015,-8.37 -25.435,9.658 -26.76,29.383 -62.46,21.25 -94.012,40.567 -8.384,5.133 -16.741,7.083 -7.727,-1.93 9.015,-9.016 32.84,-18.028 48.293,-25.757 28.94,-14.471 53.445,-38.635 63.104,-85.64 22.697,-110.46 106.24,-74.05 159.04,-53.445 49.571,19.346 40.567,-24.47 15.454,-50.87 -30.183,-31.731 -24.146,-56.663 -9.979,-76.625 25.433,-3.542 74.213,5.312 64.392,13.845 z"
             id="path72"
             style="fill:#e6e6e6" />
        </g>
        <g
           fill="none"
           id="g112"
           style="fill:#e6e6e6">
          <path
             d="m 539.7,178.41 c -6.117,27.045 -0.967,39.279 8.05,51.191 18.629,24.621 33.483,80.811 12.233,117.51"
             id="path78"
             style="fill:#e6e6e6" />
          <g
             stroke-linecap="round"
             id="g88"
             style="fill:#e6e6e6">
            <path
               d="m 571.89,315.41 c 2.575,-0.966 7.404,-4.024 8.533,-9.337 m -6.603,-2.413 c 0.804,-4.668 8.046,-6.68 8.208,-11.67 m -8.048,-6.53 c -0.483,-4.83 7.246,-9.176 6.117,-14.005 M 569.8,268.08 c -0.646,-2.737 6.438,-7.888 4.508,-12.234 m -9.818,-4.666 c -1.45,-3.059 3.38,-6.6 1.288,-9.82 m -9.018,-3.71 c -0.483,-2.092 2.496,-6.68 0.887,-9.416 m -8.617,-6.514 c 0.642,-0.805 3.22,-2.737 2.17,-5.151 m -7.48,-6.519 c 1.046,-0.564 4.183,-1.53 3.783,-3.863"
               id="path80"
               style="fill:#e6e6e6" />
            <path
               d="m 384.83,414.57 c -1.288,-3.22 3.864,-6.44 4.025,-9.5 0.16,-3.057 5.795,-5.472 11.59,0.323 M 397.71,371.11 c -1.127,0.483 -2.093,1.127 -3.059,1.449 m 14.169,16.091 c -1.369,0.081 -4.185,-0.08 -5.715,-1.127 m 0.085,7.247 c -1.127,0.564 -3.623,1.53 -5.072,1.852 M 347.97,492 c -0.161,2.9 2.737,7.083 4.346,8.37 m 8.214,-15.29 c -1.61,2.413 -2.575,6.6 -1.61,9.496 m 25.59,0.164 c -2.898,-1.933 -0.966,-6.925 -1.288,-10.142 -0.322,-3.22 3.38,-8.37 10.625,-4.025 M 357.47,476.39 c 2.898,-0.483 5.956,-0.325 7.888,0.48 m 28.812,-9.66 c -1.288,1.77 -1.61,3.704 -1.77,4.992 m 15.29,-5.312 c -2.254,0 -4.185,1.608 -5.151,3.22 M 376.46,384.47 c 2.576,0.886 9.256,4.99 9.498,9.257 M 403.83,363.54 c -7.888,-0.161 -10.946,-8.21 -4.99,-8.21 M 418,374.32 c -3.058,1.288 -1.608,6.6 2.737,9.176 M 399.16,424.87 c -1.53,-1.93 0.483,-7.563 5.473,-5.875 m 6.277,64.635 c 0.32,-4.908 6.52,-7.808 9.016,-2.254 M 388.05,497.63 c -0.403,-5.392 2.334,-7.162 4.748,-7.483 2.415,-0.321 5.877,1.687 7.487,5.229 m -60.205,6.284 c 0.322,-3.22 3.059,-6.6 5.956,-6.117 M 634.67,358.71 c -2.096,1.53 -3.462,8.37 4.504,9.015 m -16.734,2.255 c 0,0.805 1.046,1.932 1.692,2.415 m 36.298,10.465 c -2.092,-1.61 -7.487,4.91 -2.575,9.659 M 609.24,436.95 c -1.208,-4.588 3.058,-5.796 7.083,-4.83 M 598.94,404.43 c 2.413,-1.61 4.83,-3.38 7.888,-4.185 m -9.178,21.885 c 0,-3.862 1.93,-7.08 3.7,-8.046 m 10.46,-36.374 c -0.32,4.668 1.613,9.176 3.063,11.59 m 35.257,-11.27 c -2.337,0.725 -4.43,1.61 -5.313,3.542 m 2.733,9.658 c 1.13,-0.966 2.417,-2.092 2.98,-2.897 M 708.4,250.69 c 0,4.507 -5.633,6.922 -9.333,4.024 m 21.573,-3.864 c 2.492,1.932 11.104,0.081 9.092,-4.91 m -19.562,30.83 c -1.77,-0.322 -4.83,-2.254 -6.117,-3.863 m 23.827,-9.497 c -2.896,0.644 -4.83,0 -6.28,-0.644 m -39.44,16.744 c 1.608,0 5.47,-0.644 8.13,-2.012 M 677.33,251.02 c -2.092,-0.24 -3.625,0.161 -4.83,0.966 m 37.27,6.914 c -0.563,2.013 -2.013,5.151 -3.783,6.52"
               id="path84"
               style="fill:#e6e6e6" />
            <path
               d="m 671.86,265.99 c 4.025,-1.77 9.017,11.912 18.675,7.083 M 691.34,258.9 c -1.288,1.77 -2.092,4.508 -2.254,6.922"
               stroke-linejoin="round"
               id="path86"
               style="fill:#e6e6e6" />
          </g>
          <path
             d="m 498.81,237.98 c 1.288,-0.16 3.542,-0.644 4.025,-2.254 M 333.16,387.85 c 4.83,2.737 8.21,7.405 6.117,14.327 M 554.5,223.17 c 1.45,0.966 6.925,0.966 9.983,-0.16 m 3.867,3.38 c -0.163,2.254 0.483,10.785 -3.862,12.556 m 1.612,-1.126 c 4.025,1.288 12.075,0.805 14.65,-6.6 m -5.64,6.27 c 2.092,3.22 2.733,9.498 -3.542,12.878 m 5.152,-7.558 c 4.667,1.61 15.454,1.77 14.325,-7.405 m -3.695,7.405 c 3.22,4.507 17.388,9.82 15.133,0.483 M 574.31,255.84 c 5.47,1.288 13.2,-2.415 9.98,-12.073 m 15.45,4.833 c 0.804,3.703 18.833,7.566 16.421,-0.805 m -3.381,4.835 c 3.383,7.727 21.25,7.083 15.617,-3.22 m -2.897,8.04 c 3.542,4.347 19.321,1.77 13.042,-8.693 m -0.172,8.533 c 9.82,7.405 21.25,-3.22 8.854,-10.947 m 5.636,8.537 c 8.696,6.922 19.321,-5.635 11.754,-9.176 m -80.494,6.276 c 2.737,0.805 8.533,0.483 9.82,-4.507 m -2.17,3.377 c -0.32,7.325 11.996,10.142 15.133,1.69 m -4.103,4.59 c 2.254,4.83 13.038,6.76 14.808,-0.161 m -1.768,3.221 c 1.77,4.83 11.108,4.347 13.683,-0.644 m -3.383,3.224 c 2.896,6.278 14.808,6.278 17.546,-2.898 m -2.086,4.018 c 4.667,2.898 14.65,1.77 13.842,-7.244 m -1.932,6.444 c 6.92,5.635 16.742,0.161 11.913,-9.337 m -0.483,16.737 c 3.704,-0.644 5.633,-8.049 1.77,-9.98 m -87.57,11.27 c 7.725,-4.185 9.175,-11.268 3.862,-18.19 m 2.738,11.11 c 4.83,2.897 14.004,-0.16 15.613,-7.244 m -9.013,8.044 c 2.733,3.541 3.217,7.888 -0.325,11.912 m 2.575,-7.402 c 8.53,-5.312 19.154,4.508 11.267,10.464 M 604.41,269.53 c 1.933,-0.483 5.313,-4.024 5.633,-8.049 m -1.773,11.749 c 3.542,-3.703 27.692,3.864 12.396,11.59 m -1.126,-21.73 c 4.667,1.77 7.083,8.371 0,10.625 m 6.12,5.475 c 5.15,-5.312 21.25,-1.932 15.454,4.83 m -3.864,-6.93 c 2.896,-9.82 20.121,-3.703 14.488,0.322 M 633.71,267.27 c 0.483,1.932 0.642,6.761 -2.575,9.337 M 648.2,265.34 c 0.642,1.61 0.483,4.668 -0.967,6.6 m 11.907,-6.44 c 0.967,1.77 2.575,5.151 -0.967,7.888 M 521.35,191.45 c 0.158,9.175 3.38,15.293 15.775,9.498 M 525.21,202.4 c -6.117,8.21 0.804,17.064 12.879,8.21 m -31.719,-4.19 c 8.37,9.015 23.342,2.415 13.683,-11.269 M 530.2,214.15 c -1.613,8.854 5.633,10.625 11.588,6.6 M 498.97,207.87 c 1.525,8.901 10.625,15.937 19.479,10.464 m -8.529,1.776 c 0,12.718 17.546,14.166 21.571,0.966 m -6.281,8.044 c 5.633,11.59 17.867,6.922 21.892,-0.16 M 512.81,210.61 c 2.254,5.634 6.763,11.913 17.225,7.244 M 480.62,207.87 c 1.45,4.668 9.82,10.303 19.479,3.863 m -13.529,2.097 c -5.154,7.566 5.15,14.649 17.546,3.38 m -11.426,5.96 c 2.092,10.625 6.275,19.157 21.408,5.473 m -7.568,5.467 c 5.475,6.76 13.846,10.946 21.733,-0.483"
             id="path90"
             style="fill:#e6e6e6" />
          <path
             d="m 534.06,236.04 c -0.483,8.049 1.125,12.073 7.404,11.751 4.95,-0.253 9.659,-4.185 12.396,-8.37 m -13.52,8.379 c -0.163,9.176 7.08,16.42 20.604,7.083 m -14.974,3.697 c -2.575,6.922 5.15,18.19 20.283,12.395 M 513.94,240.23 c -0.963,8.854 7.246,14.81 20.446,3.38 m -14.006,6.44 c 0.483,7.244 8.692,15.937 20.767,3.38 m -14.977,5.8 c -0.967,12.395 10.463,15.937 20.121,6.44 M 508.95,250.05 c 2.575,0.161 4.667,-2.092 5.954,-3.703 m -0.484,12.713 c 2.254,0.483 6.12,-1.61 7.408,-4.185 m -1.768,18.835 c 2.575,2.737 11.267,0.805 12.392,-2.897 m -2.732,2.737 c 4.83,11.268 17.704,10.785 23.017,-1.932 m -2.417,4.512 c 2.413,6.6 8.533,10.785 18.513,8.532 M 555.15,282.89 c -5.633,9.176 1.77,19.961 14.325,9.337 m -11.265,4.343 c -0.642,5.795 4.67,12.395 11.913,13.2 m -35.743,-30.1 c -1.933,13.039 7.404,19.318 19.158,12.395 M 520.7,285.95 c 3.058,2.415 8.533,2.737 13.683,0.805 m 6.277,7.565 c -2.9,10.947 8.37,18.835 18.029,6.6 m -33.639,-13.2 c 0.163,5.634 5.638,11.751 15.133,9.98 m 26.557,11.27 c -6.442,4.346 -7.73,12.073 1.288,17.063 M 550.96,306.71 c 0.325,6.6 3.383,10.303 10.625,10.946 M 541.47,303.33 c -9.658,8.854 -0.163,19.157 11.267,10.464 m -4.507,2.736 c -3.22,10.142 8.854,16.259 15.292,5.956 M 528.27,294.96 c -3.542,9.98 0.967,16.581 9.175,15.937 M 515.55,293.03 c 0.483,5.956 5.633,8.049 11.429,6.761 m -7.729,-0.481 c -4.346,8.37 2.254,12.878 10.95,9.659 m 26.4,18.671 c -1.45,5.312 -0.646,9.176 7.242,10.947 m -6.762,-3.377 c -9.5,4.347 -10.304,13.523 -2.9,19.478 m -4.75,-29.698 c -4.987,4.508 -4.025,12.314 1.45,15.373 m -43.7,-44.753 c -5.475,5.393 -0.242,20.283 11.829,12.155 m 19.561,6.675 c -7.408,6.117 -4.025,17.225 8.208,14.166 M 526.33,309.77 c -3.862,10.947 -0.158,14.81 8.533,14.971"
             id="path92"
             style="fill:#e6e6e6" />
          <path
             d="m 499.13,295.12 c -6.6,4.99 -4.83,12.073 -1.93,15.293 2.897,3.22 8.368,1.77 10.139,-2.415 M 485.28,290.78 c -7.404,9.498 0,20.766 10.467,17.386 m 29.143,10.784 c -7.567,2.737 -13.338,9.607 -8.696,15.615 2.738,3.542 14.65,4.025 18.03,-9.659 M 511.2,310.09 c -4.346,6.278 -2.9,12.235 5.15,15.293 m -5.63,-3.533 c -4.67,2.576 -7.73,5.635 -6.6,11.269 m -3.86,-21.089 c -1.77,7.566 0.32,12.235 4.987,14.488 M 500.1,321.04 c -7.246,-0.483 -10.946,2.575 -8.533,9.659 m 0.643,-7.889 c -7.083,-2.576 -8.213,-8.693 -5.154,-15.132 m -0.966,9.502 c -7.73,0.322 -11.108,4.185 -11.108,9.498"
             id="path94"
             style="fill:#e6e6e6" />
          <path
             d="m 475.62,287.07 c -5.633,2.415 -7.404,9.98 -5.313,14.166 2.096,4.185 8.696,4.508 12.721,1.77 M 459.85,281.12 c -5.15,5.795 0.804,17.064 9.983,14.327 M 446.65,276.61 c -4.83,6.76 0.483,18.03 12.879,14.81 m 0.641,31.39 c -1.288,-8.05 7.083,-13.361 17.388,-2.898 M 472.57,303.66 c -3.058,2.737 -4.504,7.083 -4.025,10.625 M 433.45,272.75 c -5.313,9.015 1.13,17.225 12.558,14.005 m 17.222,8.365 c -7.567,7.566 -4.992,15.132 0.642,19.478 M 458.4,303.98 c -11.429,0.16 -12.071,13.361 -2.733,17.547 M 449.71,290.78 c -4.667,3.22 -6.117,12.073 1.933,15.615 m -2.253,4.185 c -4.83,-2.254 -10.625,0.483 -10.142,6.117 m 2.892,-5.957 c -4.346,-10.303 -17.063,-8.532 -15.933,2.093 M 445.68,298.02 c -2.733,0.483 -8.208,2.092 -10.3,6.278 m 0.81,-17.868 c -5.15,5.795 -1.13,12.717 3.058,14.166 M 420.9,270.17 c -0.967,6.922 1.77,10.303 10.463,9.659 m -7.413,-0.799 c -3.383,8.37 1.125,12.073 9.817,11.59 m -7.887,-1.29 c -5.15,6.117 -1.608,12.718 3.38,15.454 m -5.79,-7.724 c -9.175,-1.127 -10.625,9.498 -7.567,14.488"
             id="path96"
             style="fill:#e6e6e6" />
          <path
             d="m 416.06,269.37 c -5.632,2.415 -8.852,9.498 -5.793,13.844 3.06,4.346 9.176,2.897 12.556,0.644 M 412.2,285.14 c -4.668,7.083 -0.483,12.395 4.508,14.488"
             id="path98"
             style="fill:#e6e6e6" />
          <path
             d="m 394.17,268.56 c -3.702,3.863 -1.449,11.752 7.566,11.913 7.258,0.13 10.946,-6.761 8.693,-11.59 m -9.979,11.587 c -2.897,6.44 -1.127,13.361 9.82,12.234 m 4.67,10.146 c -6.76,-3.058 -15.776,0 -11.912,8.05 m -0.968,-19.48 c -2.737,3.863 -1.77,9.337 1.288,12.717 m -1.768,-2.417 c -4.508,0.805 -8.854,3.22 -6.117,10.303 m -0.653,-5.793 c -5.795,-1.77 -13.2,2.415 -8.693,8.37 m -0.957,-5.63 c -4.99,-0.805 -10.946,4.507 -6.117,9.82 m -1.933,-4.35 c -4.508,1.127 -9.82,6.278 -5.152,10.303 M 399.81,289.17 c -6.44,2.897 -7.083,10.142 -4.025,15.454 M 393.04,275.81 c -9.659,3.703 -9.498,16.581 1.127,20.605 m -4.507,-2.905 c -5.795,3.38 -6.922,9.82 -3.058,14.005 M 379.52,270.98 c -3.864,1.288 -3.542,13.2 6.761,12.878 M 368.9,275 c -7.727,5.151 1.61,18.19 14.166,8.854 m -6.926,3.216 c -1.127,5.313 0.322,11.108 8.854,11.752 m -8.374,-4.662 c -6.117,2.253 -7.244,14.81 3.863,15.776 M 357.15,282.73 c -7.888,7.244 6.44,13.522 11.752,3.059 M 346.2,294.8 c -3.864,4.668 9.658,16.903 15.615,-3.542 m 1.445,-0.318 c 0.322,4.83 3.22,7.727 9.175,8.049 m -0.155,4.671 c -9.498,1.449 -12.556,13.361 -1.932,15.937 M 354.73,302.05 c -0.322,4.507 4.346,8.21 9.659,7.405 m 4.831,9.815 c -8.693,1.932 -9.82,13.2 -2.092,12.556 M 363.1,342.29 c -7.245,-2.173 -7.405,-10.786 -0.966,-14.005"
             id="path100"
             style="fill:#e6e6e6" />
          <path
             d="m 357.15,334.72 c -6.117,3.703 -3.702,12.556 -0.483,13.844 3.22,1.288 5.795,-0.322 6.118,-3.058 M 362.3,357.9 c 0.644,4.185 -14.891,2.576 -6.922,-10.463 m -0.088,11.193 c -5.231,8.21 3.3,14.89 8.693,7.888 m -7.963,2.012 c -2.093,6.6 5.875,11.35 11.026,6.198 M 338.63,306.71 c -2.898,5.956 11.59,8.21 12.556,-4.025 M 334.61,315.57 c -2.897,11.59 18.995,9.176 13.361,-5.795 m 0.479,7.725 c 3.058,1.77 12.235,1.932 14.488,-7.888 m -6.598,8.208 c 0.644,3.058 3.38,6.76 5.956,7.888 M 345.88,320.88 c -0.966,6.278 5.312,11.43 12.556,10.947 M 347,327 c -3.541,4.83 -4.668,14.166 6.44,14.81 m -23.34,-13.2 c -1.77,4.99 8.693,10.142 14.81,1.932 m -18.03,10.778 c -0.886,3.784 8.532,8.854 13.844,-7.244 m -4.184,8.214 c 2.254,4.024 9.82,7.244 14.488,-0.644 m -7.568,4.834 c -1.932,5.634 3.38,10.946 9.82,9.337 M 331.39,345.19 c -1.288,8.049 8.049,12.717 13.844,8.532 M 325.27,348.73 c -2.736,10.303 10.464,14.166 15.454,6.439 m -3.374,3.061 c 0.483,5.795 9.498,10.785 16.581,5.956 M 321.25,363.06 c -0.644,2.575 10.142,5.151 11.751,-3.864 m -5.471,6.114 c 2.575,6.6 11.268,8.21 16.259,0.161 m -2.899,3.219 c 1.127,6.117 9.015,9.498 15.937,5.312 m 2.893,2.418 c -1.77,8.21 6.761,14.81 12.073,10.303 M 346.04,374.97 c -2.575,9.015 8.693,14.166 14.971,9.176 M 332.52,370.46 c -0.644,8.37 5.956,13.361 13.522,9.658 M 318.19,371.27 c -2.254,5.473 9.659,9.98 15.293,5.313 m -22.703,9.657 c 3.059,3.541 13.683,0 14.649,-7.888 m -2.889,5.788 c 3.863,4.508 13.039,6.922 16.742,-2.737 m -3.222,4.997 c -0.161,6.922 12.235,11.913 16.259,-0.805 m 14.561,2.495 c -1.127,3.38 1.53,8.773 7.083,9.417 M 356.66,386 c -0.805,3.863 4.83,9.255 10.786,7.083 m 1.134,1.607 c -1.61,4.185 -0.242,10.221 5.392,10.141 M 369.14,402.5 c -4.185,3.541 -2.415,9.82 3.623,10.062 m -5.793,-4.112 c -5.956,4.022 -3.863,12.877 4.024,12.398 M 348.94,391.39 c 0,8.693 10.785,9.98 12.878,1.932 m -4.188,5.148 c -1.61,5.151 2.575,10.142 9.175,8.693 m -7.885,53.447 c 1.45,2.096 7.405,-1.446 5.795,-4.987 -1.61,-3.542 -7.919,-1.617 -7.244,2.091 m 5.789,-3.544 c 0.805,-7.083 -7.566,-8.208 -9.659,-2.092 m 3.059,-3.538 c 2.093,-3.542 -4.99,-8.37 -7.888,-3.22 m 2.578,-2.1 c 1.932,-5.154 -6.117,-7.404 -6.761,-2.737 m -1.769,-6.763 c 0.966,-2.575 9.98,-0.967 6.117,4.346 m 6.923,6.444 c 3.542,-3.22 -2.414,-9.82 -6.117,-7.404 m 29.937,17.224 c -2.818,0.32 -5.716,2.17 -3.623,8.13 1.451,4.133 7.647,4.345 8.532,1.85"
             id="path102"
             style="fill:#e6e6e6" />
          <path
             d="m 375.58,457.31 c -2.737,-1.77 -8.693,1.208 -5.956,7.004 2.06,4.363 7.244,2.575 8.049,0.321 M 360.2,465.6 c 1.367,2.413 8.209,1.37 9.417,-1.288 m -4.747,-6.682 c 1.449,-0.967 4.104,0.237 4.668,1.446 M 364.39,417.95 c -4.668,3.058 -1.77,12.396 5.473,9.98 m -6.923,-2.41 c -3.703,2.896 -0.322,11.913 6.6,8.533 m -5.47,-0.003 c -2.575,2.575 -0.08,9.738 6.6,8.37 m -7.57,-4.83 c -1.45,-0.646 -5.232,-0.163 -6.843,2.25 m 2.663,-34.85 c -3.541,3.38 -1.852,10.304 4.748,10.866 m -6.038,-3.786 c -5.072,2.496 -5.072,12.554 5.07,12.958 m -5.47,-1.608 c -2.817,2.254 -1.449,10.946 5.795,9.817 m -3.465,-0.317 c -1.047,1.046 -1.208,3.704 -0.322,4.83 m -2.898,-8.13 c -2.575,0.08 -5.956,1.933 -6.843,4.588 m -4.667,-9.338 c 0.966,-2.575 8.935,-2.413 9.498,5.154 m 0.802,-9.014 c -1.127,0.242 -3.3,1.288 -3.863,3.462 m 0.403,-27.042 c -3.462,3.139 -5.151,13.04 5.392,14.97 m -12.392,5.47 c 0,-2.658 7.164,-4.912 9.659,-0.967 M 340.08,403.46 c 1.046,2.013 6.036,4.75 9.095,2.496 M 314.16,387.69 c -0.16,4.668 3.703,8.854 9.015,8.21 5.312,-0.644 6.44,-5.313 4.83,-8.371 m -4.025,8.531 c -3.542,4.346 0.805,10.464 4.83,8.693 M 328.01,393 c 2.093,-0.805 9.015,-1.77 11.108,1.449 M 305.63,394.29 c -1.61,2.415 8.371,4.83 11.751,0.16 M 314,396.86 c -0.323,3.22 1.288,8.693 9.498,6.44"
             id="path104"
             style="fill:#e6e6e6" />
          <path
             d="m 324.79,408.29 c 1.288,-2.737 -4.83,-7.244 -9.498,-2.254 -4.668,4.99 0.644,10.625 3.542,8.692 M 303.38,397.51 c -2.415,4.185 6.922,11.833 12.235,4.75"
             id="path106"
             style="fill:#e6e6e6" />
          <path
             d="m 297.18,404.75 c -3.38,3.462 0.805,9.82 5.876,7.888 5.07,-1.932 4.588,-7.244 3.381,-8.612"
             id="path108"
             style="fill:#e6e6e6" />
          <path
             d="m 290.66,411.19 c -2.737,2.494 -0.081,8.37 3.703,8.37 3.782,0 6.117,-2.976 5.392,-6.76 m 6.275,-2.09 c -0.483,3.702 4.99,6.277 8.532,2.819 m 0.168,-6.769 c 0.483,-0.805 0.081,-2.174 -0.723,-2.818 M 284.79,416.18 c -3.138,2.496 3.623,9.417 7.888,3.058 m 16.332,-4.428 c -2.013,1.93 1.207,7 4.426,5.47 m -15.446,-1.93 c 0.483,3.458 7.244,6.033 11.51,0.725 m -7.81,2.735 c -1.046,2.175 1.047,5.638 3.623,5.154 M 365.76,441.7 c -2.494,4.908 5.473,10.625 11.269,4.667 m -5.479,2.653 c -1.207,2.654 0.242,6.358 2.415,7.725 m -9.975,-2.175 c 0.564,-2.417 4.024,-4.67 7.164,-3.542 M 359.8,448.21 c 0.483,-2.17 3.38,-4.346 5.554,-3.78 M 549.35,347.76 c -11.429,0.161 -6.6,18.513 3.22,14.81 m -6.92,-1.28 c -2.254,3.703 2.092,9.579 6.92,6.117 m -1.28,0.723 c -3.383,5.634 8.692,14.246 13.521,5.392 m -3.861,3.378 c 0.158,5.313 15.613,8.693 13.363,-1.932 m -1.453,5.792 c 3.7,6.278 17.546,6.922 16.096,-2.415 m -3.056,6.445 c 2.9,4.185 16.421,6.76 15.938,-1.932 M 531,331.83 c 1.93,4.99 8.53,6.761 15.775,3.863 M 526.82,335.37 c 4.508,2.897 -2.092,16.098 -9.012,10.785 m 9.012,-2.575 c 4.992,2.415 11.108,0.644 12.879,-6.44 m -3.059,5.47 c 0.483,3.703 5.796,6.6 12.717,5.151 M 524.24,346.48 c 6.442,5.473 -2.896,16.742 -7.083,11.59 m 9.503,-7.41 c 3.058,2.254 10.946,0.966 11.75,-4.99 m -3.54,4.99 c 0.646,3.863 3.704,5.312 8.05,5.473 m -18.03,-0.163 c 3.217,4.508 11.267,5.795 14.808,-0.16 m -3.548,3.38 c -0.32,4.347 4.508,7.888 9.5,6.922 m -27.04,2.738 c 4.183,2.092 8.692,-5.795 5.15,-11.268 m -0.32,19.638 c 4.992,0.322 5.633,-7.244 0.967,-11.43 m 10.463,18.35 c 4.188,-0.966 2.896,-10.142 -7.246,-10.947 m 19.956,17.717 c 4.025,-1.127 0.804,-11.269 -10.3,-10.625 m 25.6,14.165 c 2.733,-4.185 -6.28,-11.268 -13.683,-7.566 m 21.243,13.356 c 4.992,1.449 8.37,-11.751 -7.404,-9.659 m 16.584,9.659 c 4.35,-1.127 7.408,-9.015 -5.308,-6.44 m 14.968,7.09 c 3.862,1.932 5.633,-9.337 -6.12,-6.278 M 524.4,365.79 c 4.83,2.737 12.396,-0.483 11.75,-6.6 m -1.93,5.32 c 1.613,2.897 0.967,8.532 -2.092,9.98 m 2.572,-3.22 c 3.22,1.288 7.567,0.161 10.142,-4.99 m -4.502,4.99 c 0.963,2.254 1.288,6.761 -0.808,9.015 m 1.618,-5.155 c 3.542,1.932 7.725,-0.644 9.496,-4.347 M 548.39,374 c 2.575,1.61 4.83,9.176 0.483,12.235 m 2.417,-3.535 c 3.058,0.16 7.567,0.16 10.463,-3.703 m -2.093,2.093 c 2.737,0.805 5.954,5.313 4.83,9.337 m 0.16,-1.457 c 3.063,-0.322 8.37,-2.415 9.82,-6.117 m -1.45,2.417 c 2.58,1.449 4.35,4.507 4.025,8.049 m -0.005,-2.579 c 3.058,-0.16 5.796,-1.77 6.6,-5.151 m -0.8,2.261 c 2.254,0.805 4.992,3.38 5.154,6.44 m -0.324,-1.94 c 2.254,-0.322 3.862,-1.77 5.313,-4.025 m 6.117,-0.315 c 2.9,2.898 -0.963,12.557 -6.92,10.786 M 537.28,192.9 c -5.958,3.541 -22.863,2.415 -14.492,-11.59 m 16.102,2.09 c -11.75,4.668 -26.242,-4.346 -11.108,-14.166 m -4.022,-3.214 c -9.82,0 -16.421,15.776 -3.217,21.249 M 485.61,172.62 c -2.575,4.99 6.6,10.463 12.879,5.473 4.863,-3.866 4.504,-14.327 1.608,-18.352 M 480.62,184.53 c -3.22,10.624 20.446,11.268 16.742,-5.635 M 479.33,200.31 c 0.804,8.049 22.7,5.473 15.613,-10.786 m 2.577,-4.514 c 1.77,2.415 6.6,6.6 14.808,5.795 M 501.38,173.58 c 0.725,2.897 5.633,5.151 11.913,2.979 M 281.73,418.51 c -5.553,3.946 2.979,10.142 6.117,3.3 m -10.467,-0.24 c -5.553,3.942 2.979,10.138 6.117,3.296 M 272.79,424.55 c -5.555,3.946 2.978,10.142 6.117,3.3 m -10.947,-0.56 c -5.313,2.817 0.885,9.738 6.278,3.62 m -11.508,-0.96 c -5.313,2.813 0.886,9.738 6.278,3.62 M 289.7,421.65 c -0.081,4.104 7.727,5.796 10.543,-0.325 m -5.633,4.115 c -2.415,3.058 2.013,6.842 4.428,5.47 m -14.818,-6.04 c -0.242,3.462 6.519,5.475 9.82,1.692 m -6.11,1.938 c -2.174,2.817 2.092,6.6 4.83,5.47 m -13.04,-5.96 c 0.24,2.737 4.104,5.875 8.29,4.104 m -5.8,-0.404 c -1.61,1.45 -0.805,4.833 1.449,5.88 m -9.819,-6.12 c -0.644,2.496 3.623,6.925 7.969,4.025 m -7.089,-1.125 c -2.575,2.013 -2.254,5.07 1.046,5.47 m -7.236,-5.79 c -0.322,1.688 1.852,4.425 4.589,4.104 M 254.76,433.89 c -2.575,1.367 4.025,8.37 8.129,1.85 m -14.489,1.04 c -3.22,1.533 4.75,9.258 8.291,1.37 m 12.559,-1.69 c -2.496,0.563 -4.105,4.188 -2.013,5.633 m -6.117,-4.343 c -0.322,1.45 2.737,3.862 5.233,2.98 m -7.323,-2.33 c -2.415,1.53 -1.127,5.792 1.69,5.15 m -10.3,-2.34 c -2.254,1.688 -0.725,5.07 2.415,4.267 m 1.685,-4.507 c 0.081,0.883 2.093,2.254 3.784,1.692 M 242.61,439.52 c -2.816,1.208 -2.655,8.292 6.843,4.43 m -13.203,-1.61 c -3.945,1.933 -2.657,7.246 5.956,2.175 m 0.724,0.405 c -1.046,0.804 -2.172,4.346 1.77,2.975 m -9.01,-1.295 c -1.61,1.45 -0.563,4.43 2.98,3.3 m -11.27,-2.81 c -2.897,1.692 3.46,3.946 7.727,-0.563 m -5.797,2.653 c -1.288,1.288 -1.288,5.07 2.092,3.704 M 221.12,450.71 c -1.932,1.45 1.368,3.383 7.405,0.725 m -4.995,1.365 c -2.254,1.85 -2.013,4.183 1.288,3.458 m -7.968,-2.408 c -2.495,2.254 1.127,3.783 5.473,1.93 m -5.393,0.57 c -4.267,1.93 -2.415,5.47 0.24,4.104 m 142.23,8.206 c -0.99,2.13 2.254,3.862 5.313,3.38 2.937,-0.463 5.748,-2.884 3.54,-6.276 m 0.157,4.186 c 2.897,2.254 8.049,-0.32 8.049,-3.704"
             id="path110"
             style="fill:#e6e6e6" />
        </g>
        <g
           fill="#ffffff"
           id="g156"
           style="fill:#e6e6e6">
          <path
             d="m 545.97,128.83 c -12.879,-6.44 -39.6,-18.352 -47.167,-8.693 6.92,-2.897 27.204,0.161 43.946,15.615 l 3.22,-6.922 z"
             id="path114"
             style="fill:#e6e6e6" />
          <path
             d="m 553.78,128.15 c -14.892,-17.347 -23.663,-13.464 -34.371,-19.439 -10.058,-5.614 -26.079,-6.761 -29.183,2.167 14.696,-7.157 28.188,3.849 36.475,5.18 11.383,1.828 17.808,10.629 21.138,14.676 l 5.942,-2.584 z m 56.1,-2.22 c -7.73,-17.708 -24.254,-13.083 -31.554,-20.605 -10.621,-10.946 -37.504,-21.088 -48.613,-13.522 24.467,-1.288 34.888,16.865 47.971,23.181 9.338,4.508 19.317,14.166 32.196,10.947 z"
             id="path116"
             style="fill:#e6e6e6" />
          <path
             d="m 580.91,124 c -13.2,-16.42 -33.488,-30.908 -42.821,-25.435 12.233,0.644 16.096,9.176 24.792,14.649 8.692,5.473 4.83,13.361 18.029,10.786 z m -62.79,28.98 c -13.846,-5.151 -40.888,-7.727 -53.446,8.05 20.929,3.54 52.479,1.609 53.446,-8.05 z"
             id="path118"
             style="fill:#e6e6e6" />
          <path
             d="m 515.55,159.1 c -13.846,-6.44 -24.658,2.555 -37.671,1.288 -24.788,-2.415 -42.496,-0.966 -44.75,10.946 14.167,-12.717 37.992,-2.253 47.65,-4.829 9.658,-2.576 45.396,-0.322 56.663,4.507 -5.796,-7.083 -14.808,-9.014 -21.892,-11.912 z m 43.46,-36.87 c -3.217,-10.625 -3.058,-21.893 12.879,-21.088 -4.025,-4.99 -18.833,-7.566 -21.25,11.108 -17.546,-12.878 -36.704,-15.132 -40.242,-4.024 9.012,-7.727 23.017,-2.093 39.758,16.903 1.45,-0.805 5.313,-2.415 8.854,-2.898 z"
             id="path120"
             style="fill:#e6e6e6" />
          <path
             d="m 534.87,136.88 c -9.98,-6.439 -23.504,-16.903 0.163,-21.088 -10.142,-5.473 -24.954,-3.059 -23.342,15.615 -27.046,-10.947 -46.467,-7.252 -50.55,3.541 -4.509,11.913 12.238,18.513 15.133,10.947 -3.059,1.288 -13.521,-2.253 -8.05,-9.015 5.475,-6.76 33.525,-1.685 60.208,12.235 7.404,3.864 32.838,3.22 6.437,-12.235 z"
             id="path122"
             style="fill:#e6e6e6" />
          <path
             d="m 527.78,154.59 c -7.7,-15.722 -32.679,-1.449 -37.713,-16.678 -6.88,22.312 35.521,9.966 37.713,16.678 z m 158.89,17.06 c 5.237,2.603 9.767,-1.489 1.754,-4.698 5.242,2.601 9.813,-1.392 1.8,-4.603 5.242,2.601 9.813,-1.392 1.8,-4.602 -2.137,2.151 -5.196,10.04 -5.354,13.903 z m 2.73,-30.26 c 11.592,-12.234 -0.963,-16.42 13.2,-28.976 11.592,-10.273 2.212,-17.12 13.204,-25.113 3.542,-2.575 11.267,-7.727 11.913,-12.878 4.667,11.59 -14.492,13.2 -13.204,31.874 0.82,11.89 -7.217,10.851 -10.3,30.908 -0.646,4.185 -3.542,13.522 -14.813,4.185 z"
             id="path124"
             style="fill:#e6e6e6" />
          <path
             d="m 694.56,146.86 c 6.438,-13.844 13.829,-13.578 17.383,-18.995 6.763,-10.303 21.088,1.77 33.163,-7.405 -2.092,13.039 -18.35,8.37 -25.433,16.742 -7.083,8.37 -12.879,12.235 -25.113,9.659 z"
             id="path126"
             style="fill:#e6e6e6" />
          <path
             d="m 696.17,151.37 c 11.271,-9.015 19.575,-3 27.367,-7.727 19.638,-11.913 27.529,2.414 45.075,-3.22 -4.67,11.268 -30.588,1.61 -41.854,9.981 -11.271,8.37 -50.871,16.42 -30.588,0.966 z m -32.84,64.23 c -0.163,-5.151 -4.992,-11.752 -11.754,-12.556 -6.758,-0.805 -9.658,-7.888 -14.808,-8.21 -5.15,-0.322 -8.533,-10.625 -15.617,-10.464 -7.083,0.161 -9.98,9.337 6.6,17.708 16.583,8.371 34.933,18.03 35.579,13.523 z m -20.93,4.35 c -7.083,0.322 -8.05,10.625 -14.808,10.947 9.333,4.99 16.096,-2.254 20.925,-8.693 z"
             id="path128"
             style="fill:#e6e6e6" />
          <path
             d="m 648.2,221.23 c -6.117,5.151 -7.888,15.937 0.967,18.995 -5.313,-7.325 9.337,-10.625 4.829,-17.386 l -5.796,-1.61 z"
             id="path130"
             style="fill:#e6e6e6" />
          <path
             d="m 654.31,221.56 c -4.83,9.337 7.567,10.463 4.346,17.547 7.083,-1.61 8.212,-14.971 1.77,-18.513 z"
             id="path132"
             style="fill:#e6e6e6" />
          <path
             d="m 606.98,201.59 c 11.592,-0.644 22.192,5.627 29.3,15.776 4.508,6.439 19.638,9.015 24.792,3.863 5.15,-5.15 2.254,-16.098 -10.625,-12.556 -3.22,-5.473 -12.558,-3.541 -17.063,-8.049 -4.508,-4.507 -21.896,-17.385 -26.404,0.966 z"
             id="path134"
             style="fill:#e6e6e6" />
          <path
             d="m 650.45,208.68 c -3.058,0.644 -4.025,5.956 -2.096,8.693 m 8.696,-5.473 c 0.967,1.61 0.32,3.863 -0.163,4.99 M 625.34,202.08 c 5.954,0.322 7.083,4.669 13.521,6.278"
             stroke-linecap="round"
             id="path136"
             style="fill:#e6e6e6" />
          <path
             d="m 621.4,187.43 c 20.571,5.151 36.892,9.659 47.013,15.454 10.121,5.795 25.792,7.405 39.504,3.542 13.713,-3.864 40.154,-7.405 38.85,9.659 7.188,-8.533 -1.958,-17.709 -20.242,-19.319 0.33,-8.37 -8.63,-15.937 -15.071,-10.947 5.958,-0.804 11.1,10.303 -0.65,14.81 2.283,-8.37 -6.042,-15.937 -14.692,-12.234 5.55,1.61 11.163,10.917 -1.254,14.488 -7.838,2.254 -19.263,-0.643 -27.75,-5.795 -8.488,-5.151 -56.154,-23.825 -45.708,-9.658 z"
             id="path138"
             style="fill:#e6e6e6" />
          <path
             d="m 673.31,179.06 c -6.438,2.897 -2.254,9.659 -12.233,13.522 -9.983,3.863 -16.904,12.717 -14.65,20.283 6.763,-14.81 18.675,-14.166 22.858,-19.961 4.188,-5.795 10.304,-14.327 4.025,-13.844 z"
             id="path140"
             style="fill:#e6e6e6" />
          <path
             d="m 675.08,180.02 c -0.32,11.751 -9.57,7.47 -5.958,23.986 1.129,5.151 3.22,13.522 -0.321,21.893 10.383,-7.566 3.704,-23.46 8.37,-29.459 2.255,-2.897 5.15,-7.405 6.28,-11.268 -2.417,6.76 -2.254,19.318 4.346,22.537 -5.313,-12.557 14.329,-22.859 0.804,-37.347 -1.93,3.542 -8.05,9.82 -13.521,9.659 z m -32.84,-11.75 c 1.613,2.415 3.22,8.532 1.77,11.913 3.222,-1.932 7.893,-6.922 9.338,-10.303 6.6,0.966 9.175,9.176 2.9,12.717 3.863,0 10.463,0 14.163,-4.346 -4.504,-4.99 -18.508,-12.718 -28.17,-9.981 z"
             id="path142"
             style="fill:#e6e6e6" />
          <path
             d="m 542.11,145.18 c -1.042,-0.95 -2.8,-1.852 -5.954,-2.5 -9.746,-1.998 -4.713,-10.784 3.583,-10.706 17.704,-19.317 27.646,-4.426 49.217,-10.543 7.55,-2.14 12.733,-1.507 16.846,0.272 9.658,-6.44 20.988,-4.64 29.2,2.926 0.913,-1.451 2.138,-2.559 3.858,-3.037 7.563,-2.1 13.68,4.348 15.771,12.72 5.896,-1.093 12.63,1.825 17.058,5.85 6.134,-3.15 10.358,-3.29 11.913,-0.052 5.475,-2.575 12.567,-4.19 16.108,4.502 3.542,8.693 -8.37,6.118 -10.304,24.47 -1.191,11.32 -13.842,15.775 -23.825,9.014 -15.967,-10.817 -31.55,-12.557 -39.279,3.864 -7.725,16.42 -13.779,25.96 -32.517,20.605 -6.758,-1.932 -15.454,0.644 -20.925,8.049 -5.475,7.405 -13.846,0.482 -23.825,1.287 12.554,-1.931 7.746,-5.09 18.675,-5.795 9.98,-0.644 7.405,-9.98 13.842,-11.268 -25.113,6.44 -24.146,-2.898 -44.75,3.541 9.013,-11.59 23.18,-5.151 30.263,-11.912 -18.675,-0.322 -27.025,-12.522 -35.417,-7.405 -13.2,8.05 -7.408,30.965 -41.854,28.976 -16.742,-0.966 -27.367,1.288 -37.346,11.27 17.388,-36.06 41.038,-16.25 52.48,-27.689 6.762,-6.761 11.912,-11.913 15.453,-18.352 1.246,-2.266 2.934,-3.562 5.042,-4.063 -28.654,-9.015 -11.325,-23.058 16.688,-24.023 z"
             id="path144"
             style="fill:#e6e6e6;stroke-width:0.521575;stroke-miterlimit:4;stroke-dasharray:none" />
          <path
             d="m 683.59,140.11 c 0.438,0.905 0.662,2.08 0.662,3.533 0,7.082 -10.624,7.405 -11.266,17.869 -0.338,5.473 -0.967,8.531 -4.671,7.887 -3.7,-0.644 -6.921,-6.439 -3.38,-13.2"
             stroke-linecap="round"
             id="path146"
             style="fill:#e6e6e6" />
          <path
             d="m 547.42,134.63 c -2.667,-1.874 -5.333,-2.635 -7.725,-2.657 M 605.74,121.65 c 8.525,3.69 12.683,12.546 25.067,12.98 11.921,0.418 19.321,17.708 39.279,6.439 0.542,-0.305 1.07,-0.59 1.583,-0.854 M 635,124.63 c -1.78,2.83 -2.183,6.778 -1.696,10.244 M 596.04,161.03 c -15.129,0 -18.996,7.727 -18.996,15.132 0,7.405 7.083,17.064 19.642,17.064 12.554,0 19.317,-7.727 19.317,-16.098 0,-8.371 -7.73,-16.098 -19.963,-16.098 z"
             id="path148"
             style="fill:#e6e6e6" />
          <path
             d="m 598.77,192.9 c -0.32,-4.185 -7.888,-3.542 -7.567,-6.761 0.321,-3.22 4.188,-4.508 4.188,-9.015 0,-4.507 6.758,-4.83 9.012,-1.288 2.255,3.541 9.017,10.463 10.467,6.922 m -10.46,-6.918 c -3.542,3.541 -5.15,10.785 -0.483,16.42 m 5.313,-10.95 c -1.125,2.415 -1.446,6.117 -0.158,8.37"
             id="path150"
             style="fill:#e6e6e6" />
          <path
             d="m 669.36,169.48 c 11.833,0.966 13.846,-12.074 4.992,-12.878 M 654.8,134.31 c -4.104,-5.231 -13.521,-7.002 -13.683,4.105"
             fill="none"
             id="path152"
             style="fill:#e6e6e6" />
          <path
             d="m 639.99,151.05 c -4.025,-9.98 -14.329,-11.43 -19.804,-6.44 -4.554,4.154 -4.667,14.972 5.154,17.226 3.38,-4.024 9.98,-9.337 14.65,-10.785 z m -4.43,-6.28 c -5.796,-5.152 -14.329,4.588 -6.6,13.522 M 525.31,169.16 c 3.88,-0.92 9.55,0.978 18.246,5.067 5.475,2.576 21.896,8.05 32.196,2.576 -10.625,3.864 -18.671,-12.235 -26.721,-10.303 -8.05,1.932 -22.779,4.91 -28.975,-0.966 15.129,0.966 23.267,-11.021 40.563,-0.644 4.833,2.898 10.95,4.83 16.421,4.508 -14.163,-17.064 -32.838,-6.118 -34.771,-19.961 8.533,9.176 29.379,-2.093 40.004,15.132 M 545.33,152.01 c -1.992,-2.48 -1.092,-4.95 -3.23,-6.905"
             id="path154"
             style="fill:#e6e6e6" />
        </g>
        <path
           d="m 654.8,134.31 c -3.542,-3.783 -11.267,-0.805 -9.096,6.842 1.692,-3.541 5.313,-6.52 9.096,-6.842 z m -21.89,20.62 c 2.438,-1.77 4.954,-3.223 7.075,-3.882 -1.158,-2.864 -2.83,-5.026 -4.758,-6.534 -1.842,-1.272 -7.134,5.844 -2.317,10.416 z"
           stroke="none"
           id="path158"
           style="fill:#e6e6e6" />
        <g
           fill="none"
           stroke-linecap="round"
           id="g162"
           style="fill:#e6e6e6">
          <path
             d="m 623.4,141.87 c -5.796,-3.863 -11.108,-3.541 -12.879,-0.322 -4.183,-0.16 -7.646,2.898 -7.808,9.015 m 8.937,2.577 c -6.92,-4.748 -16.421,-2.978 -15.775,7.647 m -4.185,6.033 c 3.38,-2.737 8.208,-4.668 11.913,0.161 M 643.37,156.36 c -1.288,1.77 -2.254,4.507 -0.163,8.693 -2.575,-3.38 -9.012,-3.38 -15.938,5.634 M 658.66,155.88 c -8.37,0.966 -8.208,6.439 -1.45,8.854 M 599.1,135.43 c -7.083,-1.449 -12.233,2.737 -2.413,6.278 M 612.62,130.6 c -9.983,-2.415 -14.008,0.16 -9.5,2.415 M 583.8,170.69 c -0.32,3.542 1.608,8.21 7.404,2.898 m -5.464,7.722 c 0,0.966 -0.163,2.092 -0.808,2.897 M 562.55,134.14 c -6.117,-1.77 -7.242,-7.405 -0.158,-6.922 m -1.932,19.962 c -6.763,-2.254 -6.763,-8.854 -1.13,-8.21 m 13.69,4.83 c -7.888,-1.932 -8.208,-7.405 -2.25,-6.6 m 3.21,-10.14 c -4.183,-0.322 -10.625,4.347 0.163,7.083 m 11.597,2.257 c -9.82,-1.449 -9.658,2.576 -3.867,5.152 M 593.14,127.06 c -7.567,-1.449 -10.142,3.059 -4.992,4.99 m -18.828,22.86 c -1.854,-1.529 -3.38,-8.854 5.47,-6.68 m 12.88,4.43 c -5.954,-1.61 -11.588,4.185 -6.117,7.566 M 595.55,145.74 c -6.275,-1.127 -11.588,0.644 -8.208,2.897"
             id="path160"
             style="fill:#e6e6e6" />
        </g>
        <path
           d="m 654.46,134.31 c -3.538,0.655 -6.708,2.734 -8.762,6.84"
           fill="#ffffff"
           id="path164"
           style="fill:#e6e6e6" />
        <path
           style="opacity:0.25;fill:#e6e6e6;stroke:none;stroke-width:0.640437"
           d="m 167.71126,528.52216 c -2.177,-2.177 -2.25408,-4.72122 -0.22433,-7.40424 1.84072,-2.43315 3.1398,-2.9919 4.02332,-1.7305 0.39104,0.55829 1.49683,1.27442 2.45732,1.59141 l 1.74635,0.57635 -2.11301,4.26053 c -2.42241,4.88438 -3.30578,5.29032 -5.88965,2.70645 z"
           id="path457"
           transform="rotate(-27.73575,-80.736022,59.298584)" />
        <path
           style="opacity:0.25;fill:#e6e6e6;stroke:none;stroke-width:0.226429"
           d="m 174.74427,520.35954 c -1.42863,-0.32908 -2.81302,-1.54008 -3.24891,-2.84198 -0.47843,-1.42894 -0.12914,-3.91511 0.82496,-5.87194 1.01604,-2.08386 3.3321,-3.94879 5.30077,-4.26826 0.60444,-0.0981 0.68003,-0.0733 0.57903,0.18989 -1.12164,2.92295 -0.7171,5.82425 1.13314,8.12663 l 0.5626,0.70007 -1.37406,1.78886 c -1.5759,2.05162 -2.35977,2.50331 -3.77753,2.17673 z"
           id="path1282"
           transform="rotate(-27.73575,-80.736022,59.298584)" />
        <path
           style="opacity:1;fill:#ffffff;stroke:none;stroke-width:0.160109"
           d="m 495.78386,477.52416 c -1.85472,-2.02936 -2.78306,-4.23182 -2.78113,-6.59819 0.003,-3.40513 2.05713,-6.96531 5.02976,-8.71656 1.11015,-0.65401 2.1501,-0.98726 3.4789,-1.11481 3.21592,-0.30869 6.26233,0.77419 8.77637,3.11965 0.30539,0.28491 0.52884,0.54445 0.49655,0.57674 -0.0323,0.0323 -0.48104,-0.0294 -0.99721,-0.1372 -2.47996,-0.51772 -5.4073,0.71864 -7.1311,3.0118 -1.34083,1.78369 -1.95748,3.77296 -1.96072,6.3251 -0.001,0.86421 0.0289,1.71887 0.0666,1.89925 0.21666,1.03543 0.28334,0.92321 -0.71957,1.21103 -0.50404,0.14465 -1.48465,0.46024 -2.17913,0.70129 -0.69448,0.24106 -1.29961,0.43776 -1.34472,0.43712 -0.0451,-6.3e-4 -0.3757,-0.32249 -0.73463,-0.71522 z"
           id="path1292"
           transform="rotate(-27.73575,-80.736022,59.298584)" />
        <path
           style="opacity:1;fill:#ffffff;stroke:none;stroke-width:0.160109"
           d="m 495.69625,477.30525 c -2.81357,-3.07862 -3.37996,-7.05266 -1.53107,-10.74277 1.27807,-2.55085 3.58017,-4.53115 6.03401,-5.19053 1.21413,-0.32626 3.65816,-0.2976 4.98763,0.0585 1.79538,0.48087 3.55632,1.45549 4.92449,2.72555 0.61307,0.56911 0.62038,0.5841 0.25254,0.51803 -1.16812,-0.2098 -2.31264,-0.21627 -3.15673,-0.0179 -3.17384,0.74606 -5.5984,3.38427 -6.31977,6.87668 -0.1736,0.84045 -0.24055,3.1448 -0.14162,4.87448 l 0.0217,0.37881 -1.95717,0.65074 c -1.07645,0.35791 -2.05158,0.65622 -2.16696,0.66291 -0.11538,0.007 -0.54154,-0.35083 -0.94702,-0.79451 z"
           id="path1294"
           transform="rotate(-27.73575,-80.736022,59.298584)" />
        <path
           style="opacity:1;fill:#ffffff;stroke:none;stroke-width:0.160109"
           d="m 534.89357,465.38262 c -0.50465,-1.23445 -1.27894,-2.36027 -2.3612,-3.43315 -2.24645,-2.227 -4.91839,-2.7395 -7.38414,-1.41635 -0.89183,0.47857 -2.41698,1.97488 -3.16763,3.10773 -0.34724,0.52403 -0.66089,0.95448 -0.697,0.95655 -0.0361,0.002 -0.31973,-0.40821 -0.63028,-0.9117 -0.84492,-1.3699 -2.27762,-3.25058 -3.28093,-4.30679 l -0.8913,-0.93832 0.25401,-0.64443 c 1.03289,-2.62048 3.01065,-5.32293 4.86272,-6.64454 2.31247,-1.65014 4.16083,-1.98865 6.53482,-1.19677 1.63592,0.54569 2.75857,1.24315 3.94949,2.45369 1.8475,1.87795 2.9327,4.2993 3.35814,7.49286 0.15168,1.13861 0.084,4.96619 -0.10364,5.86003 l -0.0978,0.46581 z"
           id="path1296"
           transform="rotate(-27.73575,-80.736022,59.298584)" />
        <path
           style="opacity:1;fill:#ffffff;stroke:none;stroke-width:0.160109"
           d="m 535.00846,465.48503 c -0.65362,-1.62839 -2.30728,-3.68951 -3.70393,-4.61656 -2.03141,-1.34837 -4.54962,-1.42223 -6.47023,-0.18978 -0.73833,0.47379 -2.42415,2.20823 -3.0431,3.13089 -0.24307,0.36233 -0.47035,0.65952 -0.50508,0.66041 -0.0347,8.9e-4 -0.34355,-0.42934 -0.68628,-0.95608 -0.89737,-1.37916 -1.92274,-2.72877 -3.03992,-4.00118 l -0.97541,-1.11094 0.22273,-0.59369 c 0.90726,-2.4183 3.06905,-5.34312 4.91764,-6.65339 2.19086,-1.55287 3.94136,-1.88584 6.21907,-1.18297 3.78567,1.16822 6.35105,4.30556 7.24235,8.85707 0.18937,0.96709 0.23955,1.74914 0.23089,3.59867 -0.006,1.29969 -0.0492,2.64718 -0.0959,2.99442 l -0.0848,0.63134 z"
           id="path1298"
           transform="rotate(-27.73575,-80.736022,59.298584)" />
        <path
           style="opacity:1;fill:#ffffff;stroke:none;stroke-width:0.160109"
           d="m 534.93797,465.35876 c -0.49479,-1.14933 -1.37985,-2.40755 -2.39818,-3.40929 -2.20612,-2.17017 -4.7245,-2.72028 -7.16591,-1.5653 -0.85749,0.40566 -2.43444,1.88434 -3.33141,3.12382 -0.38127,0.52685 -0.72162,0.95943 -0.75635,0.9613 -0.0347,0.002 -0.28973,-0.35126 -0.56669,-0.7847 -0.72931,-1.14138 -2.37939,-3.3009 -3.30366,-4.32361 -0.43935,-0.48614 -0.79944,-0.96254 -0.80021,-1.05868 -0.003,-0.34607 1.11268,-2.51658 1.89328,-3.68406 0.93489,-1.39826 2.786,-3.28477 3.81537,-3.88833 1.87212,-1.09771 3.35363,-1.36273 5.08596,-0.9098 4.15468,1.08627 6.9248,4.34666 7.82302,9.20758 0.20377,1.10278 0.2626,5.32119 0.0901,6.45734 l -0.0863,0.56821 z"
           id="path1300"
           transform="rotate(-27.73575,-80.736022,59.298584)" />
        <path
           style="opacity:1;fill:#ffffff;stroke:none;stroke-width:0.160109"
           d="m 534.72199,464.97995 c -1.20032,-2.49377 -3.31863,-4.43556 -5.44219,-4.98868 -2.56532,-0.66818 -4.9081,0.44558 -7.12454,3.38702 -0.4283,0.5684 -0.824,1.03345 -0.87932,1.03345 -0.0553,0 -0.33267,-0.35908 -0.61633,-0.79795 -0.75431,-1.16706 -2.13416,-2.97184 -3.15371,-4.12488 -0.49045,-0.55467 -0.89173,-1.09941 -0.89173,-1.21053 0,-0.40937 1.5337,-3.24337 2.32023,-4.28737 1.47727,-1.96083 3.05175,-3.24831 4.90503,-4.01093 1.10556,-0.45492 2.79828,-0.47061 4.07582,-0.0378 3.31316,1.12256 5.52065,3.35907 6.72375,6.81215 0.63174,1.81321 0.79061,2.98415 0.7799,5.74821 -0.005,1.32778 -0.0478,2.66983 -0.0948,2.98235 l -0.0855,0.56821 z"
           id="path1302"
           transform="rotate(-27.73575,-80.736022,59.298584)" />
        <path
           style="opacity:1;fill:#ffffff;stroke:none;stroke-width:0.160109"
           d="m 534.83599,465.21006 c -1.43054,-3.04547 -3.98056,-5.16038 -6.47378,-5.36916 -2.24078,-0.18765 -4.2786,0.97354 -6.20195,3.53398 -0.42838,0.57027 -0.81916,1.05262 -0.8684,1.07187 -0.0492,0.0193 -0.41979,-0.46372 -0.82345,-1.07329 -0.86508,-1.30632 -2.08239,-2.89056 -3.11442,-4.05317 -0.4069,-0.45839 -0.73982,-0.93328 -0.73982,-1.0553 0,-0.41499 1.50922,-3.19306 2.3219,-4.27398 1.47213,-1.95804 3.04889,-3.24782 4.90336,-4.01093 1.09348,-0.44996 2.7938,-0.46991 4.06343,-0.0477 3.96206,1.31759 6.53813,4.49475 7.33104,9.0416 0.20495,1.1753 0.26479,5.59647 0.089,6.57418 l -0.0908,0.50507 z"
           id="path1304"
           transform="rotate(-27.73575,-80.736022,59.298584)" />
        <path
           style="opacity:1;fill:#ffffff;stroke:none;stroke-width:1.268"
           d="m 523.96227,469.25965 c -0.8785,-1.41497 -2.31721,-3.83082 -2.31721,-3.89101 0,-0.0615 0.3641,-0.68546 0.67915,-1.16388 1.65436,-2.5122 3.55172,-3.8001 5.58695,-3.79235 1.19017,0.005 2.32862,0.42887 3.4724,1.29429 0.40107,0.30345 1.21619,1.11898 1.55482,1.55559 0.68508,0.88332 1.24475,1.87612 1.6289,2.88953 0.0802,0.21147 0.2442,0.5737 0.36454,0.80497 0.19974,0.38384 0.43366,0.9632 0.40178,0.99509 -0.007,0.007 -0.0654,-0.009 -0.12931,-0.0355 -0.10031,-0.0419 -0.11293,-0.0584 -0.0921,-0.12022 0.0645,-0.19162 0.0456,-0.21658 -0.22465,-0.29621 -0.41052,-0.12098 -1.19888,-0.28921 -1.67306,-0.35703 -2.14958,-0.30743 -4.24429,-0.0412 -6.29767,0.80049 -0.75468,0.30934 -1.80964,0.87973 -2.51524,1.35992 l -0.28974,0.19719 z"
           id="path1306"
           transform="rotate(-27.73575,-80.736022,59.298584)" />
        <a
           id="a1330">
          <path
             style="opacity:1;fill:#1a1a1a;stroke:none;stroke-width:0.0575878"
             d="m 628.8026,157.70148 c -0.0466,0.0505 -0.74125,-0.68262 -1.27016,-1.6813 -0.58331,-0.79114 -0.89125,-1.80118 -1.14182,-2.85415 -0.75754,-3.18424 0.12615,-6.52833 2.38953,-8.43417 0.23449,-0.19749 0.57757,-0.34441 1.1246,-0.62882 0.62525,-0.32531 0.7547,-0.37762 1.14947,-0.46673 0.51559,-0.1164 1.13994,-0.15477 1.63469,-0.10038 0.47284,0.0519 1.2602,0.30433 1.71033,0.54833 0.20456,0.11089 0.43772,0.20122 0.51812,0.20072 0.24785,-0.002 0.44603,0.1131 0.95858,0.55447 0.94191,0.81106 1.78986,1.7703 2.61676,2.96023 0.40547,0.5835 1.29727,2.22045 1.56249,2.86805 l 0.15308,0.37393 -0.20164,0.0701 c -1.16405,0.40503 -2.86575,1.22297 -4.0785,1.96038 -0.80766,0.49104 -2.00757,1.46798 -2.51476,1.83962 l -0.3224,0.23625 -0.10258,-0.0958 c -0.0881,-0.0824 -0.11644,-0.0845 -0.20206,-0.0147 -0.0548,0.0445 -0.31492,0.24187 -0.57811,0.43854 -0.6452,0.48203 -1.84361,1.28324 -2.57093,1.91166 -0.32772,0.28307 -0.62157,0.65358 -0.63809,0.66227 -0.0165,0.009 -0.35261,-0.17947 -0.24328,-0.29777 z"
             id="path1326"
             sodipodi:nodetypes="cccscssssssscssscssssssc" />
        </a>
        <path
           style="opacity:1;fill:#1a1a1a;stroke:none;stroke-width:0.0584157"
           d="m 645.32608,140.92907 c -0.79112,-0.47466 -1.80792,-1.10305 -2.82413,-1.7453 l -1.20211,-0.75977 6.6e-4,-0.34615 c 2.6e-4,-0.19039 0.0338,-0.69521 0.0734,-1.12182 0.23276,-2.50801 0.93825,-4.23346 2.21433,-5.4158 0.36904,-0.34194 1.12634,-0.77515 1.66271,-0.95111 1.71268,-0.56205 3.8719,-0.21813 5.94256,0.94648 0.75058,0.42216 1.20427,0.73944 2.08112,1.45543 0.35627,0.29092 0.82773,0.67148 1.04768,0.84567 0.53637,0.4248 0.64973,0.5179 0.52502,0.54609 -0.52486,-0.19636 0.29753,0.0207 -0.12787,-0.007 -1.18943,0.31434 -2.66748,0.34288 -3.7383,0.90731 -0.79113,0.41701 -1.05953,0.5792 -1.48241,0.89586 -1.53221,1.14736 -2.74776,2.57854 -3.73073,4.39253 -0.12197,0.22508 -0.23129,0.42179 -0.2429,0.4371 -0.0114,0.0155 -0.10161,-0.0204 -0.19974,-0.0792 z"
           id="path1328"
           sodipodi:nodetypes="csccsscsssccsssccc" />
      </g>
    </g>
  </g>
</svg>
