<svg xmlns="http://www.w3.org/2000/svg" viewBox="0 0 650 2930" width="650" height="2930" shape-rendering="crispEdges">
  <path fill="#ffffff" d="M0.00,0.00 h113.04 v48.03 h-113.04 ZM197.83,0.00 h113.04 v48.03 h-113.04 ZM339.13,0.00 h113.04 v48.03 h-113.04 ZM536.96,0.00 h113.04 v48.03 h-113.04 ZM28.26,48.03 h56.52 v48.03 h-56.52 ZM226.09,48.03 h84.78 v48.03 h-84.78 ZM339.13,48.03 h84.78 v48.03 h-84.78 ZM565.22,48.03 h56.52 v48.03 h-56.52 ZM0.00,96.07 h56.52 v48.03 h-56.52 ZM141.30,96.07 h28.26 v48.03 h-28.26 ZM254.35,96.07 h141.30 v48.03 h-141.30 ZM480.43,96.07 h28.26 v48.03 h-28.26 ZM593.48,96.07 h56.52 v48.03 h-56.52 ZM0.00,144.10 h28.26 v48.03 h-28.26 ZM113.04,144.10 h84.78 v48.03 h-84.78 ZM282.61,144.10 h84.78 v48.03 h-84.78 ZM452.17,144.10 h84.78 v48.03 h-84.78 ZM621.74,144.10 h28.26 v48.03 h-28.26 ZM84.78,192.13 h56.52 v48.03 h-56.52 ZM169.57,192.13 h56.52 v48.03 h-56.52 ZM310.87,192.13 h28.26 v48.03 h-28.26 ZM423.91,192.13 h56.52 v48.03 h-56.52 ZM508.70,192.13 h56.52 v48.03 h-56.52 ZM0.00,240.16 h28.26 v48.03 h-28.26 ZM113.04,240.16 h84.78 v48.03 h-84.78 ZM282.61,240.16 h84.78 v48.03 h-84.78 ZM452.17,240.16 h84.78 v48.03 h-84.78 ZM621.74,240.16 h28.26 v48.03 h-28.26 ZM0.00,288.20 h56.52 v48.03 h-56.52 ZM141.30,288.20 h28.26 v48.03 h-28.26 ZM254.35,288.20 h141.30 v48.03 h-141.30 ZM480.43,288.20 h28.26 v48.03 h-28.26 ZM593.48,288.20 h56.52 v48.03 h-56.52 ZM28.26,336.23 h56.52 v48.03 h-56.52 ZM226.09,336.23 h84.78 v48.03 h-84.78 ZM339.13,336.23 h84.78 v48.03 h-84.78 ZM565.22,336.23 h56.52 v48.03 h-56.52 ZM0.00,384.26 h113.04 v48.03 h-113.04 ZM197.83,384.26 h113.04 v48.03 h-113.04 ZM339.13,384.26 h113.04 v48.03 h-113.04 ZM536.96,384.26 h113.04 v48.03 h-113.04 ZM0.00,432.30 h56.52 v48.03 h-56.52 ZM84.78,432.30 h56.52 v48.03 h-56.52 ZM169.57,432.30 h56.52 v48.03 h-56.52 ZM254.35,432.30 h141.30 v48.03 h-141.30 ZM423.91,432.30 h56.52 v48.03 h-56.52 ZM508.70,432.30 h56.52 v48.03 h-56.52 ZM593.48,432.30 h56.52 v48.03 h-56.52 ZM0.00,480.33 h28.26 v48.03 h-28.26 ZM113.04,480.33 h84.78 v48.03 h-84.78 ZM282.61,480.33 h84.78 v48.03 h-84.78 ZM452.17,480.33 h84.78 v48.03 h-84.78 ZM621.74,480.33 h28.26 v48.03 h-28.26 ZM141.30,528.36 h28.26 v48.03 h-28.26 ZM226.09,528.36 h28.26 v48.03 h-28.26 ZM310.87,528.36 h28.26 v48.03 h-28.26 ZM395.65,528.36 h28.26 v48.03 h-28.26 ZM480.43,528.36 h28.26 v48.03 h-28.26 ZM0.00,576.39 h28.26 v48.03 h-28.26 ZM113.04,576.39 h84.78 v48.03 h-84.78 ZM282.61,576.39 h84.78 v48.03 h-84.78 ZM452.17,576.39 h84.78 v48.03 h-84.78 ZM621.74,576.39 h28.26 v48.03 h-28.26 ZM0.00,624.43 h56.52 v48.03 h-56.52 ZM84.78,624.43 h56.52 v48.03 h-56.52 ZM169.57,624.43 h56.52 v48.03 h-56.52 ZM254.35,624.43 h141.30 v48.03 h-141.30 ZM423.91,624.43 h56.52 v48.03 h-56.52 ZM508.70,624.43 h56.52 v48.03 h-56.52 ZM593.48,624.43 h56.52 v48.03 h-56.52 ZM0.00,672.46 h113.04 v48.03 h-113.04 ZM197.83,672.46 h113.04 v48.03 h-113.04 ZM339.13,672.46 h113.04 v48.03 h-113.04 ZM536.96,672.46 h113.04 v48.03 h-113.04 ZM28.26,720.49 h56.52 v48.03 h-56.52 ZM226.09,720.49 h84.78 v48.03 h-84.78 ZM339.13,720.49 h84.78 v48.03 h-84.78 ZM565.22,720.49 h56.52 v48.03 h-56.52 ZM0.00,768.52 h56.52 v48.03 h-56.52 ZM254.35,768.52 h141.30 v48.03 h-141.30 ZM593.48,768.52 h56.52 v48.03 h-56.52 ZM0.00,816.56 h28.26 v48.03 h-28.26 ZM282.61,816.56 h84.78 v48.03 h-84.78 ZM621.74,816.56 h28.26 v48.03 h-28.26 ZM310.87,864.59 h28.26 v48.03 h-28.26 ZM113.04,912.62 h84.78 v48.03 h-84.78 ZM452.17,912.62 h84.78 v48.03 h-84.78 ZM0.00,960.66 h28.26 v48.03 h-28.26 ZM169.57,960.66 h56.52 v48.03 h-56.52 ZM423.91,960.66 h56.52 v48.03 h-56.52 ZM621.74,960.66 h28.26 v48.03 h-28.26 ZM0.00,1008.69 h56.52 v48.03 h-56.52 ZM141.30,1008.69 h113.04 v48.03 h-113.04 ZM395.65,1008.69 h113.04 v48.03 h-113.04 ZM593.48,1008.69 h56.52 v48.03 h-56.52 ZM28.26,1056.72 h56.52 v48.03 h-56.52 ZM113.04,1056.72 h113.04 v48.03 h-113.04 ZM423.91,1056.72 h113.04 v48.03 h-113.04 ZM565.22,1056.72 h56.52 v48.03 h-56.52 ZM0.00,1104.75 h197.83 v48.03 h-197.83 ZM310.87,1104.75 h28.26 v48.03 h-28.26 ZM452.17,1104.75 h197.83 v48.03 h-197.83 ZM28.26,1152.79 h141.30 v48.03 h-141.30 ZM282.61,1152.79 h84.78 v48.03 h-84.78 ZM480.43,1152.79 h141.30 v48.03 h-141.30 ZM56.52,1200.82 h84.78 v48.03 h-84.78 ZM254.35,1200.82 h56.52 v48.03 h-56.52 ZM339.13,1200.82 h56.52 v48.03 h-56.52 ZM508.70,1200.82 h84.78 v48.03 h-84.78 ZM84.78,1248.85 h28.26 v48.03 h-28.26 ZM226.09,1248.85 h197.83 v48.03 h-197.83 ZM536.96,1248.85 h28.26 v48.03 h-28.26 ZM0.00,1296.89 h28.26 v48.03 h-28.26 ZM197.83,1296.89 h56.52 v48.03 h-56.52 ZM282.61,1296.89 h84.78 v48.03 h-84.78 ZM395.65,1296.89 h56.52 v48.03 h-56.52 ZM621.74,1296.89 h28.26 v48.03 h-28.26 ZM0.00,1344.92 h56.52 v48.03 h-56.52 ZM169.57,1344.92 h84.78 v48.03 h-84.78 ZM310.87,1344.92 h28.26 v48.03 h-28.26 ZM395.65,1344.92 h84.78 v48.03 h-84.78 ZM593.48,1344.92 h56.52 v48.03 h-56.52 ZM0.00,1392.95 h84.78 v48.03 h-84.78 ZM169.57,1392.95 h113.04 v48.03 h-113.04 ZM367.39,1392.95 h113.04 v48.03 h-113.04 ZM565.22,1392.95 h84.78 v48.03 h-84.78 ZM0.00,1440.98 h113.04 v48.03 h-113.04 ZM169.57,1440.98 h28.26 v48.03 h-28.26 ZM226.09,1440.98 h84.78 v48.03 h-84.78 ZM339.13,1440.98 h84.78 v48.03 h-84.78 ZM452.17,1440.98 h28.26 v48.03 h-28.26 ZM536.96,1440.98 h113.04 v48.03 h-113.04 ZM0.00,1489.02 h84.78 v48.03 h-84.78 ZM169.57,1489.02 h113.04 v48.03 h-113.04 ZM367.39,1489.02 h113.04 v48.03 h-113.04 ZM565.22,1489.02 h84.78 v48.03 h-84.78 ZM0.00,1537.05 h56.52 v48.03 h-56.52 ZM169.57,1537.05 h84.78 v48.03 h-84.78 ZM310.87,1537.05 h28.26 v48.03 h-28.26 ZM395.65,1537.05 h84.78 v48.03 h-84.78 ZM593.48,1537.05 h56.52 v48.03 h-56.52 ZM0.00,1585.08 h28.26 v48.03 h-28.26 ZM197.83,1585.08 h56.52 v48.03 h-56.52 ZM282.61,1585.08 h84.78 v48.03 h-84.78 ZM395.65,1585.08 h56.52 v48.03 h-56.52 ZM621.74,1585.08 h28.26 v48.03 h-28.26 ZM84.78,1633.11 h28.26 v48.03 h-28.26 ZM226.09,1633.11 h197.83 v48.03 h-197.83 ZM536.96,1633.11 h28.26 v48.03 h-28.26 ZM56.52,1681.15 h84.78 v48.03 h-84.78 ZM254.35,1681.15 h56.52 v48.03 h-56.52 ZM339.13,1681.15 h56.52 v48.03 h-56.52 ZM508.70,1681.15 h84.78 v48.03 h-84.78 ZM28.26,1729.18 h141.30 v48.03 h-141.30 ZM282.61,1729.18 h84.78 v48.03 h-84.78 ZM480.43,1729.18 h141.30 v48.03 h-141.30 ZM0.00,1777.21 h197.83 v48.03 h-197.83 ZM310.87,1777.21 h28.26 v48.03 h-28.26 ZM452.17,1777.21 h197.83 v48.03 h-197.83 ZM28.26,1825.25 h56.52 v48.03 h-56.52 ZM113.04,1825.25 h113.04 v48.03 h-113.04 ZM423.91,1825.25 h113.04 v48.03 h-113.04 ZM565.22,1825.25 h56.52 v48.03 h-56.52 ZM0.00,1873.28 h56.52 v48.03 h-56.52 ZM141.30,1873.28 h113.04 v48.03 h-113.04 ZM395.65,1873.28 h113.04 v48.03 h-113.04 ZM593.48,1873.28 h56.52 v48.03 h-56.52 ZM0.00,1921.31 h28.26 v48.03 h-28.26 ZM169.57,1921.31 h56.52 v48.03 h-56.52 ZM423.91,1921.31 h56.52 v48.03 h-56.52 ZM621.74,1921.31 h28.26 v48.03 h-28.26 ZM113.04,1969.34 h84.78 v48.03 h-84.78 ZM452.17,1969.34 h84.78 v48.03 h-84.78 ZM310.87,2017.38 h28.26 v48.03 h-28.26 ZM0.00,2065.41 h28.26 v48.03 h-28.26 ZM282.61,2065.41 h84.78 v48.03 h-84.78 ZM621.74,2065.41 h28.26 v48.03 h-28.26 ZM0.00,2113.44 h56.52 v48.03 h-56.52 ZM254.35,2113.44 h141.30 v48.03 h-141.30 ZM593.48,2113.44 h56.52 v48.03 h-56.52 ZM28.26,2161.48 h56.52 v48.03 h-56.52 ZM226.09,2161.48 h84.78 v48.03 h-84.78 ZM339.13,2161.48 h84.78 v48.03 h-84.78 ZM565.22,2161.48 h56.52 v48.03 h-56.52 ZM0.00,2209.51 h113.04 v48.03 h-113.04 ZM197.83,2209.51 h113.04 v48.03 h-113.04 ZM339.13,2209.51 h113.04 v48.03 h-113.04 ZM536.96,2209.51 h113.04 v48.03 h-113.04 ZM0.00,2257.54 h56.52 v48.03 h-56.52 ZM84.78,2257.54 h56.52 v48.03 h-56.52 ZM169.57,2257.54 h56.52 v48.03 h-56.52 ZM254.35,2257.54 h141.30 v48.03 h-141.30 ZM423.91,2257.54 h56.52 v48.03 h-56.52 ZM508.70,2257.54 h56.52 v48.03 h-56.52 ZM593.48,2257.54 h56.52 v48.03 h-56.52 ZM0.00,2305.57 h28.26 v48.03 h-28.26 ZM113.04,2305.57 h84.78 v48.03 h-84.78 ZM282.61,2305.57 h84.78 v48.03 h-84.78 ZM452.17,2305.57 h84.78 v48.03 h-84.78 ZM621.74,2305.57 h28.26 v48.03 h-28.26 ZM141.30,2353.61 h28.26 v48.03 h-28.26 ZM226.09,2353.61 h28.26 v48.03 h-28.26 ZM310.87,2353.61 h28.26 v48.03 h-28.26 ZM395.65,2353.61 h28.26 v48.03 h-28.26 ZM480.43,2353.61 h28.26 v48.03 h-28.26 ZM0.00,2401.64 h28.26 v48.03 h-28.26 ZM113.04,2401.64 h84.78 v48.03 h-84.78 ZM282.61,2401.64 h84.78 v48.03 h-84.78 ZM452.17,2401.64 h84.78 v48.03 h-84.78 ZM621.74,2401.64 h28.26 v48.03 h-28.26 ZM0.00,2449.67 h56.52 v48.03 h-56.52 ZM84.78,2449.67 h56.52 v48.03 h-56.52 ZM169.57,2449.67 h56.52 v48.03 h-56.52 ZM254.35,2449.67 h141.30 v48.03 h-141.30 ZM423.91,2449.67 h56.52 v48.03 h-56.52 ZM508.70,2449.67 h56.52 v48.03 h-56.52 ZM593.48,2449.67 h56.52 v48.03 h-56.52 ZM0.00,2497.70 h113.04 v48.03 h-113.04 ZM197.83,2497.70 h113.04 v48.03 h-113.04 ZM339.13,2497.70 h113.04 v48.03 h-113.04 ZM536.96,2497.70 h113.04 v48.03 h-113.04 ZM28.26,2545.74 h56.52 v48.03 h-56.52 ZM226.09,2545.74 h84.78 v48.03 h-84.78 ZM339.13,2545.74 h84.78 v48.03 h-84.78 ZM565.22,2545.74 h56.52 v48.03 h-56.52 ZM0.00,2593.77 h56.52 v48.03 h-56.52 ZM141.30,2593.77 h28.26 v48.03 h-28.26 ZM254.35,2593.77 h141.30 v48.03 h-141.30 ZM480.43,2593.77 h28.26 v48.03 h-28.26 ZM593.48,2593.77 h56.52 v48.03 h-56.52 ZM0.00,2641.80 h28.26 v48.03 h-28.26 ZM113.04,2641.80 h84.78 v48.03 h-84.78 ZM282.61,2641.80 h84.78 v48.03 h-84.78 ZM452.17,2641.80 h84.78 v48.03 h-84.78 ZM621.74,2641.80 h28.26 v48.03 h-28.26 ZM84.78,2689.84 h56.52 v48.03 h-56.52 ZM169.57,2689.84 h56.52 v48.03 h-56.52 ZM310.87,2689.84 h28.26 v48.03 h-28.26 ZM423.91,2689.84 h56.52 v48.03 h-56.52 ZM508.70,2689.84 h56.52 v48.03 h-56.52 ZM0.00,2737.87 h28.26 v48.03 h-28.26 ZM113.04,2737.87 h84.78 v48.03 h-84.78 ZM282.61,2737.87 h84.78 v48.03 h-84.78 ZM452.17,2737.87 h84.78 v48.03 h-84.78 ZM621.74,2737.87 h28.26 v48.03 h-28.26 ZM0.00,2785.90 h56.52 v48.03 h-56.52 ZM141.30,2785.90 h28.26 v48.03 h-28.26 ZM254.35,2785.90 h141.30 v48.03 h-141.30 ZM480.43,2785.90 h28.26 v48.03 h-28.26 ZM593.48,2785.90 h56.52 v48.03 h-56.52 ZM28.26,2833.93 h56.52 v48.03 h-56.52 ZM226.09,2833.93 h84.78 v48.03 h-84.78 ZM339.13,2833.93 h84.78 v48.03 h-84.78 ZM565.22,2833.93 h56.52 v48.03 h-56.52 ZM0.00,2881.97 h113.04 v48.03 h-113.04 ZM197.83,2881.97 h113.04 v48.03 h-113.04 ZM339.13,2881.97 h113.04 v48.03 h-113.04 ZM536.96,2881.97 h113.04 v48.03 h-113.04 Z"/>
</svg>
