<svg xmlns="http://www.w3.org/2000/svg" viewBox="0 0 838.42 869.31" width="838" height="869">
  <path fill="#f7d116" d="M419.20,0.00 L433.63,44.43 L480.35,44.43 L442.55,71.89 L456.99,116.32 L419.20,88.86 L381.40,116.32 L395.84,71.89 L358.04,44.43 L404.76,44.43 Z M197.88,71.88 L212.32,116.31 L259.03,116.31 L221.24,143.77 L235.67,188.20 L197.88,160.74 L160.08,188.20 L174.52,143.77 L136.73,116.31 L183.44,116.31 Z M640.49,71.88 L654.93,116.32 L701.64,116.32 L663.85,143.77 L678.29,188.20 L640.49,160.75 L602.70,188.20 L617.13,143.77 L579.34,116.32 L626.05,116.32 Z M61.15,257.19 L75.59,301.62 L122.31,301.62 L84.51,329.08 L98.95,373.51 L61.15,346.05 L23.36,373.51 L37.79,329.08 L0.00,301.62 L46.72,301.62 Z M777.26,257.19 L791.69,301.62 L838.41,301.62 L800.62,329.08 L815.05,373.51 L777.26,346.05 L739.46,373.51 L753.90,329.08 L716.11,301.62 L762.82,301.62 Z M61.16,508.20 L75.60,552.63 L122.32,552.63 L84.52,580.09 L98.96,624.52 L61.16,597.06 L23.37,624.52 L37.81,580.09 L0.01,552.63 L46.73,552.63 Z M777.27,508.21 L791.70,552.64 L838.42,552.64 L800.62,580.10 L815.06,624.53 L777.27,597.07 L739.47,624.53 L753.91,580.10 L716.11,552.64 L762.83,552.64 Z M197.91,680.99 L212.35,725.42 L259.06,725.42 L221.27,752.88 L235.71,797.31 L197.91,769.85 L160.12,797.31 L174.55,752.88 L136.76,725.42 L183.47,725.42 Z M640.50,680.98 L654.93,725.41 L701.65,725.41 L663.85,752.87 L678.29,797.30 L640.50,769.84 L602.70,797.30 L617.14,752.87 L579.34,725.41 L626.06,725.41 Z M419.22,752.99 L433.66,797.42 L480.37,797.42 L442.58,824.88 L457.02,869.31 L419.22,841.85 L381.43,869.31 L395.86,824.88 L358.07,797.42 L404.78,797.42 Z"/>
</svg>
