<svg xmlns="http://www.w3.org/2000/svg" xmlns:xlink="http://www.w3.org/1999/xlink" viewBox="329 517 541 205">
  <path id="a" fill="#4d5b2d" d="M334.94 522.862s2.59 5.975 6.13 13.258c3.538 7.283 8.025 15.873 11.817 21.104 2.514 3.467 5.449 6.761 8.974 9.193 4.519 3.116 15.102 6.566 15.102 6.566s-.396-10.007-2.57-15.033c-2.036-4.707-6.494-10.48-10.3-13.92-8.816-7.966-16.313-13.383-21.605-16.808-5.292-3.425-7.548-4.36-7.548-4.36zm42.96 10.928s.217 4.247.72 9.51c.503 5.261 1.293 11.538 2.44 15.597a46.335 46.335 0 0 0 5.653 12.471c2.004 3.1 7.317 8.314 7.317 8.314s2.029-6.474 1.995-9.81c-.052-5.056-1.29-10.171-3.326-14.8-1.739-3.954-4.44-9.94-7.706-14.272-3.265-4.333-7.092-7.01-7.092-7.01zm-36.88 40.055s11.738 11.963 18.863 16.195c3.388 2.012 7.176 3.482 11.052 4.192 3.623.664 11.05 0 11.05 0s-.659-4.631-5.334-10.098c-3.379-3.95-9.99-6.384-14.862-8.194-9.608-3.568-20.769-2.095-20.769-2.095zm38.474 4.019s6.862 14.053 11.42 20.358c3.067 4.241 6.453 8.386 10.594 11.586 13.195 10.198 20.523 9.269 20.523 9.269s-.533-7.095-1.986-10.262c-3.078-6.712-8.02-12.706-13.737-17.379-7.757-6.34-26.814-13.572-26.814-13.572zm-2.482 38.399s8.538 8.14 13.406 11.42c3.663 2.469 7.561 4.728 11.752 6.124 3.554 1.184 7.346 1.67 11.09 1.821 9.165.369 13.571-.993 13.571-.993s-.01-4.549-7.944-10.593c-4.64-3.534-10.365-5.677-16.055-6.951-8.403-1.882-25.82-.828-25.82-.828zm32.937-44.357s3.143 11.63 5.296 17.048c1.887 4.746 3.945 9.493 6.786 13.737 2.371 3.54 5.33 7.598 8.66 10.256 2.798 2.234 9.216 4.475 9.216 4.475s-.372-8.29-1.49-12.248c-1.368-4.847-3.428-9.593-6.29-13.738-3.613-5.233-8.738-9.254-13.406-13.572-6.46-5.976-8.772-5.958-8.772-5.958zm15.821 49.884s6.966 7.935 10.944 11.382c4.82 4.176 10.023 7.962 15.54 11.162 3.19 1.85 6.525 3.568 10.068 4.596 3.607 1.046 7.407 1.457 11.162 1.532 2.272.046 6.785-.656 6.785-.656s-4.113-8.139-7.223-11.382c-3.628-3.783-8.235-6.609-12.913-8.973-6.054-3.06-12.613-5.216-19.26-6.566-4.947-1.005-15.102-1.095-15.102-1.095zm34.363-5.252s6.033 9.21 9.849 13.132c3.767 3.87 8.168 7.12 12.694 10.068 4.075 2.653 8.226 5.492 12.914 6.785 3.874 1.068 12.037.656 12.037.656s-1.546-6.579-3.283-9.411c-2.59-4.223-6.255-7.846-10.286-10.725-5.366-3.831-11.62-6.463-17.948-8.317-5.158-1.511-15.977-2.188-15.977-2.188zm-26.923 42.898s5.803 4.534 15.104 7.222c4.6 1.33 9.242 2.17 14.008 2.627 4.072.39 12.139-.128 16.196-.657 4.942-.643 10.506-3.94 10.506-3.94s-3.69-5.438-7.66-7.222c-6.937-3.117-17.02-4.185-24.62-3.933-15.252.506-23.534 5.903-23.534 5.903zm50.18-7.044s13.12 10.531 19.901 14.262c6.009 3.306 12.526 5.888 19.238 7.297 11.906 2.5 23.217.663 23.217.663s-1.827-5.277-3.648-7.297c-4.827-5.352-11.471-9.14-18.243-11.609-7.859-2.865-16.523-2.86-24.876-3.316-4.748-.26-15.589 0-15.589 0zm43.45-9.288s10.733 16.18 17.911 22.555c4.566 4.055 9.876 7.464 15.59 9.619 4.931 1.86 16.026 2.653 16.026 2.653s.218-3.636-.78-6.095c-2.089-5.143-6.814-10.49-11.266-13.806-6.901-5.14-14.778-9.06-22.886-11.94-4.68-1.662-14.594-2.986-14.594-2.986zm-17.332 44.266s14.169 3.738 21.422 4.59c4.814.565 9.705.712 14.536.328 4.431-.353 9.081-.54 13.116-2.405 6.064-2.803 9.29-6.12 9.29-6.12-3.457-4.152-9.549-5.074-14.1-5.684-5.38-.711-10.892-.515-16.284.11-6.199.717-12.392 2.01-18.253 4.153-3.428 1.252-9.727 5.027-9.727 5.027zm64.343-4.047c1.037.603 1.631 1.096 2 1.532 0 0 10.012 2.602 14.864 4.372 3.663 1.336 7.446 2.57 10.711 4.7 3.563 2.325 6.481 5.539 9.4 8.634 3.321 3.524 9.18 11.258 9.18 11.258l1.533 2.324 1.156-.061s.654-6.738 1.73-9.64c1.071-2.89 4.202-4.848 4.202-4.848l.063-1.59c-9.546-5.77-20.027-11.678-30.215-14.165-4.844-1.17-9.782-2.087-14.755-2.404-3.201-.205-9.869-.112-9.869-.112zm-195.562-79.962c-.692 2.178-.09 4.846 1.164 6.756 1.325 2.016 3.722 3.354 6.057 3.96 1.055.274 2.28.241 3.261-.233 1.139-.55 2.203-1.584 2.563-2.795.537-1.812-.024-3.935-.932-5.591-1.005-1.832-2.726-3.4-4.659-4.193-1.582-.649-3.53-.852-5.125-.233-1.024.397-1.997 1.283-2.33 2.33zm22.082-32.391c-1.594 1.854-2.253 4.87-1.987 7.455.28 2.729 1.823 5.323 3.639 7.142.82.822 1.93 1.42 3.02 1.445 1.264.03 2.679-.47 3.543-1.514 1.293-1.56 1.743-4.004 1.674-6.153-.077-2.377-.912-4.856-2.285-6.657-1.124-1.474-2.774-2.685-4.477-2.88-1.093-.125-2.36.272-3.127 1.163zm26.467 75.689c.949 2.113 3.32 3.77 5.707 4.426 2.52.693 5.46.177 7.834-.86 1.073-.468 2.074-1.28 2.56-2.274.566-1.153.731-2.629.182-3.788-.82-1.733-2.777-3-4.697-3.684-2.122-.758-4.66-.853-6.83-.218-1.776.52-3.545 1.618-4.443 3.116-.577.962-.77 2.267-.313 3.282zm62.958 31.921c1.284 1.916 3.871 3.136 6.301 3.368 2.565.246 5.332-.773 7.46-2.206.963-.648 1.795-1.622 2.098-2.685.352-1.234.26-2.716-.473-3.763-1.093-1.564-3.21-2.47-5.192-2.812-2.191-.378-4.671-.03-6.67.972-1.636.82-3.166 2.208-3.782 3.84-.395 1.048-.359 2.366.258 3.286zm-46.956-68.232c-.75 2.365-.097 5.261 1.265 7.335 1.439 2.189 4.042 3.642 6.578 4.3 1.145.297 3.874.261 4.94-.254 1.235-.597.994-1.719 1.384-3.035.584-1.966-.025-4.27-1.012-6.07-1.09-1.988-2.96-3.691-5.06-4.552-1.717-.704-3.833-.924-5.565-.253-1.112.431-2.169 1.393-2.53 2.53zm68.373 28.471c-1.008 2.085-.753 4.967.278 7.217 1.089 2.376 3.374 4.296 5.694 5.45 1.049.52 2.314.764 3.389.498 1.246-.308 2.483-1.13 3.018-2.296.8-1.743.513-4.055-.196-5.966-.785-2.113-2.342-4.117-4.224-5.371-1.54-1.027-3.518-1.677-5.243-1.402-1.108.177-2.231.868-2.716 1.87z"/>
  <use xlink:href="#a" transform="matrix(-1 0 0 1 1200 0)"/>
</svg>
