<svg xmlns="http://www.w3.org/2000/svg" viewBox="0 0 1000 500" width="1000" height="500">
  <g fill="#046A38" stroke="#000000" stroke-width="1" stroke-linejoin="miter">
  <path d="M 500.00,138.80 L 503.92,150.86 L 516.60,150.86 L 506.34,158.31 L 510.26,170.37 L 500.00,162.92 L 489.74,170.37 L 493.66,158.31 L 483.40,150.86 L 496.08,150.86 Z"/>
  <path d="M 555.10,156.70 L 559.02,168.76 L 571.70,168.76 L 561.44,176.21 L 565.36,188.27 L 555.10,180.82 L 544.85,188.27 L 548.77,176.21 L 538.51,168.76 L 551.19,168.76 Z"/>
  <path d="M 589.16,203.58 L 593.08,215.64 L 605.76,215.64 L 595.50,223.09 L 599.42,235.15 L 589.16,227.70 L 578.90,235.15 L 582.82,223.09 L 572.56,215.64 L 585.24,215.64 Z"/>
  <path d="M 589.16,261.52 L 593.08,273.58 L 605.76,273.58 L 595.50,281.03 L 599.42,293.09 L 589.16,285.64 L 578.90,293.09 L 582.82,281.03 L 572.56,273.58 L 585.24,273.58 Z"/>
  <path d="M 555.10,308.40 L 559.02,320.45 L 571.70,320.45 L 561.44,327.90 L 565.36,339.96 L 555.10,332.51 L 544.85,339.96 L 548.77,327.90 L 538.51,320.45 L 551.19,320.45 Z"/>
  <path d="M 500.00,326.30 L 503.92,338.36 L 516.60,338.36 L 506.34,345.81 L 510.26,357.87 L 500.00,350.42 L 489.74,357.87 L 493.66,345.81 L 483.40,338.36 L 496.08,338.36 Z"/>
  <path d="M 444.90,308.40 L 448.81,320.45 L 461.49,320.45 L 451.23,327.90 L 455.15,339.96 L 444.90,332.51 L 434.64,339.96 L 438.56,327.90 L 428.30,320.45 L 440.98,320.45 Z"/>
  <path d="M 410.84,261.52 L 414.76,273.58 L 427.44,273.58 L 417.18,281.03 L 421.10,293.09 L 410.84,285.64 L 400.58,293.09 L 404.50,281.03 L 394.24,273.58 L 406.92,273.58 Z"/>
  <path d="M 410.84,203.58 L 414.76,215.64 L 427.44,215.64 L 417.18,223.09 L 421.10,235.15 L 410.84,227.70 L 400.58,235.15 L 404.50,223.09 L 394.24,215.64 L 406.92,215.64 Z"/>
  <path d="M 444.90,156.70 L 448.81,168.76 L 461.49,168.76 L 451.23,176.21 L 455.15,188.27 L 444.90,180.82 L 434.64,188.27 L 438.56,176.21 L 428.30,168.76 L 440.98,168.76 Z"/>
  </g>
</svg>
