<?xml version="1.0" standalone="no"?>
<!DOCTYPE svg PUBLIC "-//W3C//DTD SVG 20010904//EN"
 "http://www.w3.org/TR/2001/REC-SVG-20010904/DTD/svg10.dtd">
<svg version="1.0" xmlns="http://www.w3.org/2000/svg"
 width="1280.000000pt" height="1280.000000pt" viewBox="0 0 1280.000000 1280.000000"
 preserveAspectRatio="xMidYMid meet">

<g transform="translate(0.000000,1280.000000) scale(0.100000,-0.100000)"
fill="#000000" stroke="none">
<path d="M6270 12770 c-326 -27 -659 -75 -895 -130 -22 -5 -80 -19 -130 -31
-287 -66 -684 -195 -945 -305 -64 -28 -74 -32 -180 -79 -1094 -488 -2058
-1315 -2721 -2335 -315 -484 -601 -1095 -749 -1600 -12 -41 -25 -86 -30 -100
-40 -114 -142 -559 -170 -745 -115 -749 -114 -1390 4 -2115 32 -193 130 -622
165 -720 5 -14 19 -59 31 -100 34 -114 56 -180 120 -350 331 -883 835 -1661
1502 -2315 190 -188 269 -259 444 -402 209 -171 477 -361 705 -501 64 -38 83
-50 254 -145 137 -76 416 -212 570 -277 28 -12 59 -25 70 -30 318 -140 894
-307 1295 -376 455 -78 722 -98 1210 -91 383 6 528 18 925 77 349 52 797 172
1190 317 152 56 164 61 268 107 32 14 60 26 62 26 18 0 410 194 535 265 122
68 295 172 370 222 36 24 72 47 80 53 571 376 1113 889 1547 1464 107 141 392
566 380 566 -2 0 -46 -48 -97 -107 -137 -157 -258 -280 -400 -407 -69 -61
-130 -115 -136 -121 -107 -100 -484 -369 -672 -480 -261 -154 -552 -295 -797
-387 -199 -75 -490 -164 -640 -197 -27 -6 -89 -20 -138 -30 -355 -80 -828
-118 -1247 -100 -450 19 -863 89 -1275 215 -27 9 -59 19 -70 24 -11 5 -56 21
-100 35 -103 35 -339 128 -435 172 -85 39 -330 162 -345 173 -5 4 -46 26 -90
50 -44 23 -94 53 -112 66 -17 13 -34 24 -38 24 -3 0 -18 8 -33 19 -15 10 -61
41 -102 67 -41 27 -79 52 -85 57 -5 4 -55 40 -110 80 -661 481 -1229 1168
-1584 1912 -100 211 -221 517 -271 690 -6 22 -18 63 -26 90 -34 114 -83 317
-103 420 -12 61 -26 130 -31 155 -36 167 -61 466 -66 790 -5 273 -3 343 16
525 24 241 35 330 49 400 6 28 18 88 26 135 25 132 57 265 94 395 60 205 85
282 141 430 204 537 499 1040 879 1495 196 234 541 562 801 762 157 120 410
289 545 363 95 53 280 151 315 167 19 9 73 34 120 56 98 46 328 137 445 177
44 15 89 30 100 35 20 8 80 27 170 54 48 14 300 75 395 96 198 42 497 77 775
90 408 19 896 -20 1252 -101 49 -10 111 -24 138 -30 215 -47 576 -165 800
-262 187 -80 428 -199 545 -269 41 -24 82 -47 90 -51 119 -59 535 -359 710
-513 206 -181 340 -313 500 -496 51 -60 95 -108 97 -108 5 0 -8 20 -153 241
-228 347 -441 613 -769 958 -75 79 -369 350 -451 416 -27 22 -58 48 -69 58
-35 33 -358 273 -420 313 -33 21 -62 41 -65 44 -17 18 -290 185 -450 275 -132
75 -517 265 -535 265 -4 0 -70 28 -140 60 -21 10 -156 62 -270 104 -154 56
-489 156 -660 195 -49 12 -108 26 -130 31 -59 13 -181 37 -255 49 -36 6 -108
17 -160 26 -273 44 -458 56 -875 60 -225 2 -453 0 -505 -5z"/>
<path d="M10257 9398 c-3 -7 -80 -116 -171 -243 -92 -126 -215 -297 -274 -378
-59 -81 -145 -201 -192 -265 -47 -64 -139 -191 -205 -282 -346 -482 -479 -662
-492 -667 -11 -4 -232 65 -783 247 -96 31 -323 106 -505 164 -181 59 -368 120
-415 136 -266 88 -463 151 -466 148 -3 -4 79 -121 216 -308 42 -58 119 -163
170 -235 95 -132 197 -274 257 -355 18 -25 114 -157 213 -295 157 -218 272
-377 438 -605 l44 -60 -44 -60 c-166 -228 -281 -387 -438 -605 -99 -137 -195
-270 -213 -295 -60 -81 -162 -223 -257 -355 -51 -71 -128 -177 -170 -235 -137
-187 -219 -304 -216 -308 3 -3 200 60 466 148 47 16 234 77 415 136 182 58
409 133 505 164 551 181 772 251 783 247 7 -2 67 -80 135 -173 128 -176 161
-222 357 -494 66 -91 158 -218 205 -282 119 -164 209 -288 358 -494 70 -99
165 -229 209 -291 56 -78 83 -108 87 -97 3 9 6 526 6 1149 l0 1134 283 91
c155 51 354 116 442 145 88 29 295 96 460 150 165 54 419 137 565 184 146 48
300 98 343 112 42 13 77 26 77 29 0 3 -35 16 -77 29 -43 14 -197 64 -343 112
-146 47 -400 130 -565 184 -165 54 -372 121 -460 150 -88 29 -287 94 -442 145
l-283 91 0 1137 c0 625 -4 1143 -9 1150 -7 11 -9 11 -14 0z"/>
</g>
</svg>
