<?xml version="1.0" encoding="UTF-8" standalone="no"?>
<svg
   id="svg"
   version="1.1"
   width="257"
   height="253"
   viewBox="0 0 257 253"
   sodipodi:docname="Insigne Eritreae.svg"
   inkscape:version="1.1 (c68e22c387, 2021-05-23)"
   xmlns:inkscape="http://www.inkscape.org/namespaces/inkscape"
   xmlns:sodipodi="http://sodipodi.sourceforge.net/DTD/sodipodi-0.dtd"
   xmlns="http://www.w3.org/2000/svg"
   xmlns:svg="http://www.w3.org/2000/svg">
  <defs
     id="defs844">
    <inkscape:path-effect
       effect="offset"
       id="path-effect3291"
       is_visible="true"
       lpeversion="1"
       linejoin_type="miter"
       unit="mm"
       offset="0"
       miter_limit="4"
       attempt_force_join="false"
       update_on_knot_move="true" />
    <inkscape:path-effect
       effect="offset"
       id="path-effect2696"
       is_visible="true"
       lpeversion="1"
       linejoin_type="miter"
       unit="px"
       offset="2"
       miter_limit="4"
       attempt_force_join="false"
       update_on_knot_move="true" />
    <inkscape:path-effect
       effect="offset"
       id="path-effect1040"
       is_visible="true"
       lpeversion="1"
       linejoin_type="miter"
       unit="px"
       offset="0"
       miter_limit="4"
       attempt_force_join="false"
       update_on_knot_move="true" />
  </defs>
  <sodipodi:namedview
     id="namedview842"
     pagecolor="#ffffff"
     bordercolor="#999999"
     borderopacity="1"
     inkscape:pageshadow="0"
     inkscape:pageopacity="0"
     inkscape:pagecheckerboard="0"
     showgrid="true"
     inkscape:zoom="1"
     inkscape:cx="43"
     inkscape:cy="154.5"
     inkscape:window-width="1366"
     inkscape:window-height="705"
     inkscape:window-x="-8"
     inkscape:window-y="-8"
     inkscape:window-maximized="1"
     inkscape:current-layer="g2206"
     showborder="false"
     showguides="false"
     fit-margin-top="0"
     fit-margin-left="0"
     fit-margin-right="0"
     fit-margin-bottom="0" />
  <g
     inkscape:groupmode="layer"
     id="layer1"
     inkscape:label="Layer "
     transform="translate(-82.500031,-135.39031)">
    <g
       id="g2206">
      <path
         id="path4571"
         style="display:inline;fill:#fbc724;fill-opacity:1;stroke-width:0.894167"
         d="m 184.67929,136.59187 c -1.65357,0.0242 -3.72989,0.2937 -6.1193,0.87269 -7.91889,1.91876 -15.37744,9.33088 -20.26981,18.13193 -1.50241,1.85243 -5.62314,3.51194 -7.53763,3.73462 -0.18231,-1.15896 0.47031,-4.4304 1.71269,-6.90577 1.05269,-2.09752 5.47064,-6.40463 10.4828,-10.07246 l 4.95521,-3.62609 -6.44489,0.71362 c -12.53242,1.38426 -23.20558,8.51419 -28.32481,18.99124 -1.32851,2.71895 -2.72569,7.94577 -3.33173,12.38876 -0.559,4.09831 -1.17397,6.83141 -1.82717,8.30328 -0.34968,0.78797 -0.57089,0.92919 -0.57089,0.92919 -0.0622,-0.002 -0.66867,-0.61139 -1.36479,-2.72069 -1.07648,-3.26183 -0.6709,-6.88244 1.81378,-13.97805 0.91297,-2.60683 1.83094,-5.71788 0.19178,-5.71788 -0.71469,0 -3.10564,1.43418 -5.50231,3.03586 -8.73397,5.83701 -14.02627,17.01828 -14.74371,30.77789 -0.34511,6.61841 -0.12858,9.44326 1.06449,12.2951 1.34488,3.21472 1.60367,6.4358 1.15516,7.28191 -2.88944,-1.23587 -6.23338,-15.45002 -4.7307,-23.04997 l 1.36033,-6.88645 -4.36051,4.17766 c -3.966703,3.80003 -7.679506,10.08972 -9.905954,16.70765 -1.657371,4.92633 -1.931332,7.46195 -1.595235,14.63965 0.358302,7.65214 0.820964,9.5668 3.83868,15.8409 1.867978,3.88368 4.99993,8.81624 6.980109,10.96449 3.11665,3.38117 3.79067,5.94366 2.88719,6.71101 -2.02136,-0.77964 -8.714889,-7.77369 -10.735532,-11.67663 -1.10042,-2.12526 -2.664438,-6.23176 -3.469988,-9.12394 l -2.130453,-7.65061 -2.40698,6.70209 c -1.025443,2.85707 -1.800841,8.37373 -2.085863,14.63667 -0.385529,8.47184 -0.157734,11.12385 1.442105,16.39098 3.291016,10.83494 11.831489,21.67411 22.003321,27.95314 4.0788,2.51781 5.66698,4.23793 5.77884,5.58557 -0.4455,-0.0319 -1.16141,-0.22336 -2.4962,-0.69429 -7.60676,-2.68382 -15.253938,-8.50001 -21.720823,-16.57534 l -4.296592,-5.36257 0.582786,7.24772 c 1.947142,24.20122 19.922059,45.56919 42.925799,50.9912 3.18737,0.75127 6.7873,1.38521 8.11298,1.39305 1.704,0.0104 4.78634,2.37279 5.33729,3.61419 -0.13721,0.0221 -0.2118,0.0472 -0.42223,0.0624 -3.30178,0.23924 -12.54386,-0.85243 -19.70041,-2.53336 -4.04279,-0.94957 -10.32218,-3.10258 -13.95871,-4.78275 -2.98512,-1.3792 -5.4906,-2.31581 -6.30663,-2.26575 -0.13764,0.009 -0.47824,0.0815 -0.67943,0.32113 -0.35597,0.42382 -0.1854,0.8022 -0.061,1.01542 9.22929,15.80811 25.96177,28.94507 44.9953,35.36439 11.92498,4.02186 20.33915,5.18105 40.02374,5.54693 10.55432,0.19614 19.57487,0.35259 20.32779,0.3449 -0.49128,0.47651 -1.3036,1.05895 -2.59728,1.79743 -1.88202,1.07432 -5.92115,3.84065 -8.99608,6.15201 l -6.18176,4.64598 2.36982,3.20386 c 1.01775,1.37656 1.7524,2.84995 3.69002,1.96989 1.46305,-0.66453 3.79632,-2.74922 8.81768,-7.01282 2.88381,-2.4486 5.30665,-4.10403 5.68964,-4.2847 0.14838,1.15475 -0.50787,4.20735 -1.89853,6.99498 -0.66661,1.33603 -1.21801,2.64595 -1.21166,3.15183 0.002,0.11528 0.009,0.42003 0.31667,0.6601 0.36577,0.28582 2.90772,0.59546 5.71341,0.91135 l 6.0539,0.6824 -0.5486,-5.20498 c -0.24059,-2.2866 -0.0916,-5.26778 0.29735,-6.6099 l 0.41627,-1.43765 7.30868,6.92509 0.22003,0.21111 h 0.0193 c 3.94287,3.72505 7.50324,6.89683 8.61252,7.58074 0.12666,0.0781 0.36482,0.21706 0.63036,0.21706 0.78245,0 2.1661,-1.18028 3.27522,-2.3609 l 2.52295,-2.68797 -5.22281,-4.69652 c -2.5834,-2.3227 -7.35149,-5.80964 -10.5943,-7.7517 -2.10625,-1.26143 -3.38416,-2.05587 -4.04683,-2.58391 0.0525,-0.014 0.10116,-0.0298 0.16057,-0.0446 0.9803,-0.24448 11.0462,-0.65157 22.10887,-0.8177 17.95809,-0.26954 21.28229,-0.5641 29.89626,-2.6404 11.87126,-2.86143 21.6696,-6.81394 29.89627,-12.08099 7.38286,-4.72683 15.5312,-12.71872 18.53185,-18.22708 l 3.27671,-6.01226 -6.53261,3.25738 c -5.45008,2.71805 -10.43894,3.91299 -19.25291,4.56272 -3.93834,0.2903 -9.07838,0.73202 -11.42537,0.97974 -3.30612,0.34899 -3.39416,0.11517 -3.39416,-0.1353 0,-1.16364 3.43068,-2.96549 9.00799,-3.67812 6.39003,-0.81648 15.30271,-4.11618 20.9983,-7.77103 13.01791,-8.35343 22.68899,-25.93576 22.73477,-41.33204 l 0.0208,-6.9251 -2.94369,4.24753 c -3.98821,5.75856 -17.73117,15.73981 -21.28525,15.73981 -0.92171,0 -0.94903,-0.22092 -0.48614,-1.00056 0.44195,-0.74438 1.33382,-1.68638 2.71473,-2.71474 10.28097,-7.65626 18.83069,-18.77482 22.49096,-29.29116 2.40455,-6.90855 2.35107,-22.578 -0.0699,-30.80465 l -2.44118,-8.29288 -2.25682,7.59859 c -2.1061,7.09455 -9.61442,19.70249 -12.77977,22.12225 -0.32943,0.25184 -0.48092,0.30119 -0.52332,0.30329 -0.84955,0.0421 -0.23163,-3.4539 3.10871,-7.85578 7.13298,-9.39981 9.69832,-17.76456 8.77159,-28.72771 -0.66436,-7.85936 -4.3916,-17.42233 -9.54468,-24.53964 l -4.67868,-6.45976 -0.68537,11.33468 c -0.52872,8.74353 -1.88185,15.13801 -3.2559,17.0942 -0.28777,0.40968 -0.45791,0.4475 -0.45791,0.4475 0,0 -0.0666,-0.0131 -0.1888,-0.13529 -0.78787,-0.78787 -0.84172,-3.69393 0.446,-11.85058 2.46412,-15.6081 -3.33929,-30.59861 -15.61491,-40.32108 -1.80029,-1.42581 -3.53226,-2.60914 -4.19847,-2.71175 -0.13948,-0.0215 -0.50229,-0.0394 -0.77458,0.24827 -0.20284,0.2143 -0.23716,0.55096 -0.23937,0.65416 -0.0171,0.80392 0.60794,3.78027 1.46293,7.10499 1.58897,6.17891 1.79957,11.68074 0.93217,13.43243 -0.16437,0.33195 -0.30626,0.35681 -0.30627,0.35681 0,0 0.0796,0.0435 -0.0282,-0.0654 -0.60807,-0.61455 -1.46146,-2.88893 -2.60175,-7.39787 -1.12562,-4.45096 -3.03604,-10.15027 -4.26389,-12.68165 -4.29999,-8.86506 -13.81196,-16.82157 -23.29971,-19.49077 -3.84217,-1.08093 -5.89792,-1.66201 -6.62776,-1.58781 -0.26119,0.0265 -0.79074,0.20707 -0.86527,0.77309 -0.10272,0.78016 1.02572,1.56884 2.33264,2.61364 6.90759,5.52231 12.44463,13.16969 11.73908,15.00833 -0.16734,0.43608 -0.56904,0.68646 -2.47686,0.32559 -1.13092,-0.2139 -1.94387,-0.49442 -2.66568,-0.85039 -0.0897,-0.32564 -0.21965,-0.65089 -0.391,-0.97379 -4.85104,-9.13984 -13.0674,-16.17646 -21.19307,-18.14531 -9.55765,-2.316 -14.12452,0.32401 -6.53112,3.77773 3.90822,1.77628 6.41665,4.43652 6.41665,6.80319 0,1.30497 -0.86482,0.92032 -3.412,-1.5224 -7.53512,-7.21659 -24.38925,-9.32796 -19.81191,-2.4813 2.47875,3.70965 6.6251,5.62333 14.94591,6.89536 7.95078,1.21628 9.81359,2.03773 5.74316,2.53186 -5.79137,0.70188 -8.33325,0.50834 -10.85003,-0.82958 -4.91694,-2.615 -5.17052,-1.0157 -0.59319,3.72271 5.99161,6.20052 11.65593,8.54972 19.2544,7.98216 6.31827,-0.47285 10.49588,-1.45182 13.0771,-2.69689 1.45071,0.053 2.71802,0.53509 5.31945,1.72606 3.08878,1.41408 4.55379,2.70553 4.55379,3.06264 0,0.38255 -0.29138,0.65899 -7.91672,0.33897 -4.78689,-0.20094 -9.34952,-0.70763 -10.08882,-1.03921 -0.63083,-0.28295 -1.31447,-0.61112 -1.83461,-0.32708 -0.98102,0.53573 -0.22999,1.78455 0.55008,3.29307 2.20626,4.26639 7.90105,9.3246 13.46069,12.06317 4.48019,2.20686 6.2395,2.5081 14.83736,2.54375 8.79953,0.0366 9.46863,0.21612 11.32279,1.958 1.18684,1.11499 2.02193,2.59488 2.02193,3.20683 0,0.66185 0.21397,0.80729 -4.29064,0.34046 -4.48,-0.46431 -11.56342,-2.16601 -15.10201,-3.62014 -0.37697,-0.1549 -0.98094,-0.2691 -1.3871,0.22747 -0.27964,0.34187 -0.25278,0.83532 -0.1903,1.13286 0.47606,2.26701 5.66138,9.64637 9.49264,13.17673 5.10529,4.70461 16.06275,10.53403 21.57367,11.42834 2.2998,0.37319 2.8456,0.81562 4.28619,4.0721 0.97292,2.19942 1.71269,4.4131 1.71269,4.93588 0,0.51614 -1.2474,0.66626 -1.63985,0.0312 -0.48715,-0.78828 -2.91601,-1.43016 -5.26593,-1.78257 -4.68683,-0.70282 -9.20089,-2.80641 -13.19455,-6.16688 l -2.8307,-2.38022 -1.21315,0.8727 1.78702,4.53001 c 3.74533,9.50199 4.70978,11.39132 8.60211,16.84592 4.13374,5.79293 11.41028,12.90083 16.04012,15.63573 1.89074,1.11688 2.18359,1.63492 2.17207,4.45568 -0.007,1.74804 -0.19374,3.05775 -0.50399,3.93978 -0.38743,1.10148 -0.73147,1.2037 -1.2533,0.83107 -0.69328,-0.49507 -3.62216,-2.56284 -6.51326,-4.59839 -5.85724,-4.1239 -8.25922,-6.58291 -10.23601,-10.33264 l -1.41535,-2.68352 -1.45252,0.35532 -0.0282,5.81155 c -0.0592,11.86847 3.67607,26.45787 8.96486,34.93176 5.48619,8.79014 5.46941,9.01413 3.09384,14.38541 -0.87782,1.98491 -1.62809,3.20636 -2.27763,3.83572 -0.30108,0.29172 -0.48617,0.33004 -0.48617,0.33004 -0.0351,-0.007 -0.31956,-0.24206 -0.54116,-1.38561 -0.2249,-1.1607 -1.6235,-3.69897 -3.09235,-5.83385 -3.98912,-5.79799 -6.07567,-11.2355 -6.77643,-17.59968 l -0.9634,-8.74781 -3.06559,6.80022 c -3.90586,8.66773 -5.11357,17.20305 -5.23173,36.28762 l -0.11001,17.5655 -3.18751,3.66474 c -2.4194,2.78125 -4.42329,4.58609 -5.85021,5.45029 -0.79274,0.4801 -1.15216,0.4794 -1.18343,0.4802 -0.0131,-0.0653 -0.0254,-0.15666 -0.0134,-0.31667 0.0354,-0.47123 0.22624,-1.17271 0.6482,-2.17357 0.75455,-1.78963 1.5681,-7.72927 1.93571,-13.40568 0.39966,-6.17192 1.38669,-12.45814 2.47834,-15.87063 0.91641,-2.8645 1.58898,-5.49431 1.5551,-6.26797 -0.005,-0.12004 -0.003,-0.3913 -0.25869,-0.64672 -0.46649,-0.4665 -1.08883,-0.21321 -1.40196,-0.0476 -2.41601,1.2781 -11.08684,10.44682 -15.99553,16.95594 -3.17922,4.21579 -8.19255,12.38207 -11.14289,18.14829 -5.83457,11.40321 -8.29497,14.72702 -12.57014,17.36923 -2.25564,1.39408 -15.98532,7.27349 -17.732,7.72941 -0.1787,-1.9798 -0.46464,-7.24109 -0.71808,-13.53204 -0.51723,-12.83837 -1.12323,-18.35197 -2.82029,-25.53426 -0.23481,-0.99366 -0.16539,-1.20232 1.29344,-1.56848 1.51055,-0.37911 5.39269,-3.54802 8.74929,-6.95186 l 5.75059,-5.83087 3.89667,1.21017 c 9.37341,2.91035 21.96962,-0.0868 28.02748,-6.73926 2.41217,-2.64896 5.43088,-6.8474 5.93346,-8.1546 0.061,-0.1585 0.14812,-0.50856 0.0817,-0.75823 -0.20354,-0.76573 -0.94004,-0.66579 -1.25776,-0.5144 -0.45781,0.21813 -3.06238,1.47521 -5.79817,2.79799 -4.80993,2.32565 -8.21254,3.19489 -9.48076,3.00464 -0.0303,-0.005 -0.0269,-0.01 -0.0506,-0.0149 0.22009,-0.54907 1.25396,-1.62293 3.71678,-3.24994 4.60496,-3.04218 9.62983,-9.29688 11.22763,-14.03305 0.54275,-1.60908 1.38046,-3.92344 -0.0401,-3.92344 -0.40195,0 -2.03142,0.66362 -3.79854,1.40197 -1.67984,0.70188 -4.78259,1.28153 -6.90874,1.28155 -5.35384,0 -8.9695,1.3329 -11.54728,4.46161 -1.08142,1.31255 -2.15075,1.67322 -2.68946,1.57146 -0.34706,-0.0655 -0.76119,-0.44034 -0.41777,-1.72162 0.31514,-1.17586 0.56516,-3.51325 0.57239,-5.20496 0.009,-2.07204 0.60325,-3.21632 3.09086,-5.4949 l 3.33172,-3.04923 -0.77457,-1.29494 -2.94666,1.02584 c -6.13798,2.1397 -11.50854,6.61965 -14.22485,11.91301 -2.31287,4.5072 -2.57189,5.93025 -2.22561,12.01857 0.25276,4.4439 -0.004,7.23295 -0.71064,8.61698 -1.47197,2.88336 -7.27641,8.07734 -11.6127,10.28952 -3.34402,1.70599 -2.91386,1.48139 -3.45363,0.47278 -3.21617,-6.00943 -8.06564,-29.03821 -7.92565,-37.74016 0.13462,-8.37015 0.58381,-8.96116 5.07413,-10.10665 2.46824,-0.62966 6.2653,-2.41991 8.42521,-3.97101 4.1017,-2.94565 9.32401,-3.45037 12.97749,-1.36182 5.99588,3.42754 17.83657,0.39163 23.68776,-5.83684 1.47489,-1.57012 2.64674,-2.75318 2.10071,-3.58296 -0.59716,-0.90754 -2.11029,-0.063 -3.97843,0.91134 -2.8193,1.47037 -7.4396,1.6339 -11.20533,0.32114 -1.6012,-0.55818 -2.18491,-1.11023 -2.22561,-1.25925 0,0 0.76263,-0.70882 3.50566,-1.07489 5.21434,-0.69586 11.06278,-4.34337 14.97416,-9.26518 1.50763,-1.89713 2.90651,-3.65639 2.90651,-4.14644 0,-0.95653 -0.58149,-0.77777 -0.76714,-0.78944 -0.49114,-0.0309 -1.90452,0.40969 -3.53243,0.96933 -2.55886,0.8797 -3.70302,0.86358 -7.54356,-0.22894 -4.62469,-1.3156 -5.29881,-1.28594 -8.94108,0.61251 -1.73622,0.90499 -2.75386,1.42546 -3.34361,1.62349 -0.003,7.7e-4 -0.006,4.4e-4 -0.009,0.002 -0.005,-0.11056 -0.008,-0.22756 -0.008,-0.38207 0,-0.93111 0.91328,-2.22094 5.39377,-6.84184 l 3.22022,-3.31686 h -4.42593 c -4.21929,0 -10.54101,3.46937 -12.72179,6.99795 -1.03689,1.67773 -2.9117,5.82128 -4.19401,9.23544 -3.08812,8.22231 -5.75299,11.43584 -11.30642,13.89183 -2.64358,1.16913 -5.15451,2.06504 -5.37446,2.06504 -0.2462,0 -0.0741,-1.87702 4.24603,-9.89109 5.04072,-9.35054 9.03287,-18.70442 10.80542,-25.35437 1.36099,-5.10584 2.42747,-6.50415 8.12487,-10.3579 3.99646,-2.70323 4.35939,-2.79512 9.4421,-2.32077 8.66158,0.80884 13.38023,-0.19227 17.86432,-4.03046 1.54768,-1.32476 2.69255,-2.51629 3.32576,-3.41647 1.3512,-1.92082 0.39918,-3.23037 -1.99515,-2.23155 -2.77714,1.15849 -8.85785,2.05619 -9.93124,1.64431 -0.84659,-0.32477 -0.85373,-0.67215 -0.79687,-0.82364 0.12256,-0.32647 0.71641,-0.87015 1.9803,-1.14775 4.26597,-0.93696 12.27428,-8.98605 12.27428,-12.63704 0,-0.93685 -0.51941,-1.7243 -1.63539,-1.33953 -0.38899,0.13412 -0.9318,0.46557 -1.56401,0.90839 -1.08334,0.75879 -3.52208,1.25182 -6.67384,1.2518 -4.95471,0 -5.72377,0.28349 -8.22597,3.41944 -0.92153,1.15495 -1.6999,1.91151 -2.26426,2.39361 -0.10267,-0.48475 -0.2022,-1.06924 -0.2022,-1.87623 0,-2.09957 0.66751,-3.48462 3.22616,-6.17431 l 4.67719,-4.91506 h -4.20861 c -3.6407,0 -8.60533,3.629 -10.6062,7.57479 -0.93207,1.83808 -2.06082,6.30959 -2.55713,9.9788 -0.74853,5.53365 -1.26992,6.77708 -3.59934,9.18043 -2.26816,2.34016 -3.52367,2.84945 -3.64392,2.77422 0,0 -0.21657,-0.49835 0.0951,-1.97882 2.78176,-13.21202 2.57677,-18.98308 -1.0749,-29.18116 -2.08161,-5.81345 -2.0553,-5.98962 -0.80877,-8.60359 0.83403,-1.74909 1.50856,-4.95994 1.50306,-7.11391 -0.01,-4.17908 -3.30369,-12.34961 -5.94089,-14.53112 -0.84674,-0.70046 -2.05809,-1.18973 -2.48727,0.42668 -0.23474,0.88416 -0.25868,2.63102 -0.25869,5.75655 0,6.16692 -0.15088,6.04349 -1.0169,6.04349 -0.7542,0 -1.04885,-0.34174 -1.04962,-0.36871 -0.0285,-0.97625 -2.43673,-3.95086 -5.13213,-6.81063 l -5.73275,-6.08361 -1.37818,3.62013 c -1.35727,3.56969 -0.39669,6.91044 2.90948,11.06559 1.11311,1.39893 1.82237,2.45732 2.16764,3.20238 0.37838,0.8165 0.28711,0.73841 -0.0521,0.73741 -1.1479,-0.004 -6.52187,-3.23546 -7.94796,-4.96859 -0.42018,-0.51064 -0.85086,-1.04393 -1.36331,-1.07192 -1.33643,-0.073 -0.91028,1.50928 -0.61401,2.88273 1.44488,6.69818 8.61246,12.08849 16.66899,12.74706 6.93448,0.56684 7.48403,1.32093 7.383,17.11056 -0.0686,10.72473 -0.40385,13.25722 -3.21276,24.21406 -1.73805,6.77961 -3.42018,12.4341 -3.48189,12.49579 -0.70415,0.70416 -4.46734,-1.10265 -9.76024,-6.05388 l -5.5499,-5.19159 0.0788,-5.17524 c 0.0494,-3.25912 -0.52493,-7.13257 -1.39305,-9.19234 -1.25913,-2.98744 -8.47464,-11.51227 -11.00909,-13.23321 -0.29347,-0.19927 -0.7321,-0.41776 -1.05557,-0.41776 -1.69218,0 -0.62119,2.58248 0.30032,4.46309 0.87541,1.78658 1.84847,4.90194 2.16613,6.93255 0.46862,2.99553 0.28658,2.91097 -0.0387,2.91097 -0.36175,0 -0.98597,-0.48255 -1.23248,-1.25924 -0.95414,-3.00626 -5.59305,-4.99982 -10.47685,-4.99982 -3.19646,0 -4.0357,-0.35822 -6.23527,-2.66565 l -4.67867,-4.91062 1.19233,5.38487 c 1.31741,5.94324 4.5131,10.89135 8.98866,13.80708 3.07561,2.0037 3.80385,3.11676 3.74949,3.21279 -0.19316,0.34121 -2.08091,0.71194 -6.22041,0.5367 l -8.52479,-0.35979 3.48485,3.78368 c 4.32294,4.69086 8.80657,5.95931 20.12411,5.98103 l 9.89406,0.0193 5.56031,4.88087 c 7.47749,6.56488 7.71992,7.52506 5.21834,11.48782 -9.42258,14.92629 -13.8307,32.37805 -11.24547,44.95069 0.8822,4.28985 0.86866,6.17032 0.65861,6.30514 -0.11873,0.0762 -1.57598,-0.74264 -4.56569,-3.67217 -6.42614,-6.29705 -7.01734,-7.59403 -7.551,-16.53966 -0.67287,-11.27978 -4.43985,-17.27418 -13.50231,-21.25549 -1.87199,-0.82242 -3.20077,-1.3518 -3.9487,-1.567 -1.19467,-0.34374 -2.4581,0.23083 -1.25478,1.47927 0.24849,0.25783 0.7222,0.62631 1.34993,1.06598 0.91784,0.64289 2.05035,2.3379 2.50511,3.83868 1.63742,5.40394 1.58971,8.11735 1.22653,8.31517 -0.0582,0.0318 -0.97455,-0.30855 -2.65081,-2.39806 -2.55766,-3.1882 -3.40833,-3.56067 -7.83942,-3.56067 -5.80497,0 -9.82173,-1.2058 -12.26536,-3.50121 l -3.3912,-3.18453 v 3.7599 c 2e-5,5.71799 8.72697,15.70004 16.33004,19.07895 2.04534,0.90898 3.34361,2.11046 3.34361,2.18993 0,0 -0.006,-0.005 -0.18286,0.0817 -1.26656,0.62837 -5.15449,0.42737 -7.9881,-0.83257 -3.86292,-1.71771 -8.15298,-3.07751 -9.47183,-2.95111 -0.18833,0.018 -0.51502,0.0927 -0.73295,0.31072 -0.33507,0.33507 -0.30957,0.77967 -0.25422,1.04367 0.36532,1.74279 4.55039,6.67482 7.10647,8.47573 8.94119,6.29955 18.34589,7.86694 25.91187,4.10035 l 3.37781,-1.68146 3.99182,4.18508 c 1.92095,2.01399 3.53711,3.89787 4.07805,4.70693 0.0125,0.0187 0.0233,0.0382 0.0341,0.055 0.01,0.0151 0.0184,0.0282 0.0267,0.0417 0.008,0.0121 0.0145,0.0251 0.0209,0.0357 0.005,0.01 0.0117,0.0186 0.0163,0.0268 0.004,0.008 0.007,0.0133 0.0104,0.0193 0.003,0.005 0.007,0.0106 0.009,0.0148 l -0.0238,-0.17693 c 0,0.84674 2.20895,2.72301 4.55083,4.5092 4.71248,3.59431 6.1077,5.77937 6.14902,8.96338 0.02,1.54601 1.18357,5.41574 2.54674,8.77308 2.45766,6.0528 2.40065,5.75936 2.17507,25.80335 -0.10869,9.65769 -0.33504,17.55201 -0.51441,19.48928 -2.69325,-0.82051 -12.63647,-6.11698 -16.59913,-9.02581 -4.76739,-3.49959 -10.01139,-10.09211 -15.61046,-19.71231 -9.84189,-16.91009 -16.5838,-25.1648 -25.97283,-31.67436 -1.37879,-0.95595 -2.56654,-1.60737 -3.31982,-1.8569 -0.95181,-0.3153 -2.16289,-0.004 -1.73054,1.26815 0.12924,0.38012 0.5097,0.91752 1.01393,1.47185 1.09796,1.20718 2.74496,8.99736 3.54432,18.02488 0.42544,4.80437 1.3883,10.00546 2.27171,11.7138 1.27054,2.457 0.98041,3.35402 0.1338,3.35402 -0.076,0 -2.47527,-1.78639 -5.04293,-4.21483 l -4.44229,-4.20145 -0.12934,-12.45863 c -0.16553,-15.93394 -3.69904,-35.53117 -7.83646,-42.99865 -0.27092,-0.48898 -0.51825,-0.91669 -0.73294,-1.17449 -0.72681,-0.87272 -1.59108,-0.51899 -1.91192,0.4921 -0.20079,0.63281 -0.36563,1.80439 -0.60806,3.63648 -0.67329,5.08807 -3.20257,11.52471 -5.41608,13.97063 -0.92915,1.02671 -2.09329,3.78968 -2.69838,6.17283 -0.61105,2.40655 -1.47796,3.58126 -1.55063,3.63054 -0.0206,-0.0145 -0.0428,-0.0302 -0.0684,-0.0506 -0.71061,-0.5637 -1.9616,-2.30843 -3.07154,-4.46608 l -2.35347,-4.57461 3.11168,-4.86749 c 6.95903,-10.87873 10.41647,-23.53122 10.33116,-37.73272 l -0.052,-8.30922 -1.48226,-0.28842 -1.51347,3.67961 c -1.98364,4.81699 -3.13545,6.05068 -7.9093,8.46979 -2.35853,1.19517 -5.39135,3.45598 -6.72291,5.03846 -1.40489,1.66961 -2.35717,2.28935 -2.74298,2.28358 -0.39514,-0.006 -0.98866,-1.29666 -0.98866,-5.26444 0,-2.69631 0.22793,-3.13493 4.13009,-5.86656 1.63703,-1.14601 2.87101,-2.37148 3.56067,-3.06114 10.50451,-10.5045 12.94457,-15.1419 16.83105,-24.27946 1.42975,-3.45392 2.38535,-6.05061 2.81582,-7.56587 0.25723,-0.90545 0.53177,-1.90793 -0.13083,-2.33415 -0.98616,-0.63433 -1.8961,0.96414 -2.98233,2.88274 -2.23731,3.95174 -4.80115,5.40021 -11.24996,6.06578 -2.71378,0.28009 -5.61935,1.06167 -6.39284,1.99368 -1.00308,1.20864 -3.00464,1.09903 -3.00464,0.31073 0,-0.63057 0.77445,-3.03899 1.78553,-5.38934 1.70558,-3.96471 1.56528,-3.86899 6.01078,-4.32781 6.9583,-0.71815 12.52868,-3.47421 18.4471,-9.06447 4.52159,-4.27092 10.38247,-12.5004 10.40846,-15.06484 0.004,-0.34417 -0.2065,-0.77184 -0.63779,-0.90839 -0.73871,-0.23389 -1.74918,0.51645 -2.65676,1.34697 -2.59317,2.37347 -4.29966,2.7794 -10.79351,2.05314 -4.86826,-0.54448 -5.25982,-0.86406 -5.39825,-1.83162 -0.0941,-0.65775 0.61304,-2.36674 1.74985,-3.59338 l 1.83907,-1.9818 3.73907,1.65323 c 3.45339,1.52757 5.65048,1.84609 9.92528,1.45847 7.49993,-0.68007 16.42652,-5.12897 20.03342,-10.10815 1.44953,-2.00101 2.77421,-4.07615 2.77421,-4.7545 0,-1.33966 -2.42379,-1.23072 -4.39472,-0.96636 -1.85394,0.24867 -6.00502,0.18338 -9.20274,-0.15908 -3.61415,-0.38703 -5.06719,-1.01788 -5.13509,-1.28304 -0.0391,-0.15244 0.87879,-1.13484 4.00966,-2.58537 2.90787,-1.34726 4.04466,-2.30369 7.97025,-2.27765 2.57791,0.86294 6.38853,2.09658 11.13101,2.52889 7.59847,0.56757 13.26278,-1.78163 19.25438,-7.98215 4.57734,-4.73842 4.32375,-6.33624 -0.5932,-3.72124 -2.51678,1.33792 -5.05864,1.52998 -10.85,0.8281 -4.07043,-0.49412 -2.20763,-1.31558 5.74316,-2.53186 8.32081,-1.27202 12.46715,-3.18422 14.94589,-6.89388 4.57735,-6.84666 -12.27679,-4.73677 -19.8119,2.47983 -2.54717,2.44271 -3.412,2.82886 -3.412,1.52388 0,-2.36666 2.50992,-5.0284 6.41813,-6.80468 5.69505,-2.59029 4.54889,-4.723 -0.41182,-4.65043 z" />
    </g>
  </g>
</svg>
