<svg xmlns="http://www.w3.org/2000/svg" viewBox="-8.32 -8.32 16.64 16.64" width="512" height="512" color="#FFFFFF">
  <g fill="currentColor">
    <path d="M 0.00000,-8.00000 L 0.44903,-6.61803 L 1.90211,-6.61803 L 0.72654,-5.76393 L 1.17557,-4.38197 L 0.00000,-5.23607 L -1.17557,-4.38197 L -0.72654,-5.76393 L -1.90211,-6.61803 L -0.44903,-6.61803 Z"/>
    <path d="M 8.00000,0.00000 L 6.61803,0.44903 L 6.61803,1.90211 L 5.76393,0.72654 L 4.38197,1.17557 L 5.23607,0.00000 L 4.38197,-1.17557 L 5.76393,-0.72654 L 6.61803,-1.90211 L 6.61803,-0.44903 Z"/>
    <path d="M 0.00000,8.00000 L -0.44903,6.61803 L -1.90211,6.61803 L -0.72654,5.76393 L -1.17557,4.38197 L -0.00000,5.23607 L 1.17557,4.38197 L 0.72654,5.76393 L 1.90211,6.61803 L 0.44903,6.61803 Z"/>
    <path d="M -8.00000,0.00000 L -6.61803,-0.44903 L -6.61803,-1.90211 L -5.76393,-0.72654 L -4.38197,-1.17557 L -5.23607,-0.00000 L -4.38197,1.17557 L -5.76393,0.72654 L -6.61803,1.90211 L -6.61803,0.44903 Z"/>
  </g>
</svg>
