<svg xmlns="http://www.w3.org/2000/svg" viewBox="0 0 882 336" width="882" height="336" shape-rendering="crispEdges">
  <path fill="#ea3323" d="M0,0 h42 v42 h-42 ZM420,0 h42 v42 h-42 ZM840,0 h42 v42 h-42 ZM0,42 h882 v42 h-882 ZM0,84 h42 v42 h-42 ZM420,84 h42 v42 h-42 ZM672,84 h42 v42 h-42 ZM756,84 h42 v42 h-42 ZM840,84 h42 v42 h-42 ZM0,126 h294 v42 h-294 ZM336,126 h294 v42 h-294 ZM672,126 h42 v42 h-42 ZM756,126 h42 v42 h-42 ZM840,126 h42 v42 h-42 ZM0,168 h42 v42 h-42 ZM252,168 h42 v42 h-42 ZM420,168 h42 v42 h-42 ZM672,168 h42 v42 h-42 ZM756,168 h42 v42 h-42 ZM840,168 h42 v42 h-42 ZM0,210 h42 v42 h-42 ZM84,210 h126 v42 h-126 ZM252,210 h126 v42 h-126 ZM420,210 h42 v42 h-42 ZM504,210 h126 v42 h-126 ZM672,210 h42 v42 h-42 ZM756,210 h42 v42 h-42 ZM840,210 h42 v42 h-42 ZM0,252 h42 v42 h-42 ZM84,252 h42 v42 h-42 ZM168,252 h42 v42 h-42 ZM420,252 h42 v42 h-42 ZM840,252 h42 v42 h-42 ZM0,294 h882 v42 h-882 Z"/>
</svg>
