<?xml version="1.0" encoding="UTF-8" standalone="no"?>
<svg
   xmlns:dc="http://purl.org/dc/elements/1.1/"
   xmlns:cc="http://creativecommons.org/ns#"
   xmlns:rdf="http://www.w3.org/1999/02/22-rdf-syntax-ns#"
   xmlns:svg="http://www.w3.org/2000/svg"
   xmlns="http://www.w3.org/2000/svg"
   xmlns:sodipodi="http://sodipodi.sourceforge.net/DTD/sodipodi-0.dtd"
   xmlns:inkscape="http://www.inkscape.org/namespaces/inkscape"
   height="1000"
   width="1000"
   version="1.1"
   id="svg4206"
   sodipodi:docname="Flag_of_Ceylon_(1951–1972).svg"
   inkscape:version="0.48.5 r10040">
  <metadata
     id="metadata4212">
    <rdf:RDF>
      <cc:Work
         rdf:about="">
        <dc:format>image/svg+xml</dc:format>
        <dc:type
           rdf:resource="http://purl.org/dc/dcmitype/StillImage" />
        <dc:title />
      </cc:Work>
    </rdf:RDF>
  </metadata>
  <defs
     id="defs4210" />
  <sodipodi:namedview
     pagecolor="#ffffff"
     bordercolor="#666666"
     borderopacity="1"
     objecttolerance="10"
     gridtolerance="10"
     guidetolerance="10"
     inkscape:pageopacity="0"
     inkscape:pageshadow="2"
     inkscape:window-width="1280"
     inkscape:window-height="675"
     id="namedview4208"
     showgrid="false"
     inkscape:zoom="0.36551358"
     inkscape:cx="479.53773"
     inkscape:cy="416.60585"
     inkscape:window-x="-27"
     inkscape:window-y="0"
     inkscape:window-maximized="0"
     inkscape:current-layer="svg4206"
     fit-margin-top="0"
     fit-margin-left="0"
     fit-margin-right="0"
     fit-margin-bottom="0"
     borderlayer="true" />
  <path
     style="fill:#ffb700;stroke:#000000;stroke-width:10;stroke-miterlimit:4;stroke-dasharray:none"
     inkscape:connector-curvature="0"
     d="m 275.33738,907.49691 8.95588,-5.67538 3.83139,5.68562 c 5.1043,7.5751 19.2283,7.4894 28.60025,-0.17424 l 7.1663,-5.85928 6.00057,5.85928 c 7.8894,7.70426 22.62317,7.71447 32.03099,0.0288 6.58637,-5.38502 7.50469,-5.49316 11.85963,-1.39674 2.59617,2.44224 10.2107,5.22272 16.9213,6.17866 12.08575,1.72194 12.26873,1.62734 19.33981,-10.01598 5.92206,-9.75109 6.84838,-13.69768 5.43523,-23.15506 -0.93665,-6.26995 -1.94572,-16.36142 -2.24233,-22.4253 -0.53661,-10.97968 -0.47887,-11.04799 14.09288,-16.61693 8.0474,-3.07549 17.36265,-7.20041 20.70055,-9.1665 5.81967,-3.4278 21.86417,-24.1251 21.86417,-28.20436 0,-1.08093 -6.26818,-2.73677 -13.92906,-3.68001 -30.4723,-3.75132 -35.63305,-21.7113 -15.8234,-55.07039 32.30634,-54.40426 51.80123,-107.38633 51.93157,-141.13756 0.0586,-15.08606 0.84121,-20.15143 2.60737,-16.87074 7.21818,13.40699 -5.71296,69.62139 -25.30126,109.98982 l -7.88725,16.25493 7.52627,-1.90164 c 4.13938,-1.04584 28.47632,-12.31561 54.08165,-25.04372 70.08619,-34.83987 94.15896,-41.66724 139.51669,-39.57038 38.00016,1.75674 54.18303,9.90484 81.01286,40.79094 14.21346,16.36223 27.90544,28.06945 52.95238,45.27726 53.36257,36.66137 55.58788,39.83699 58.1258,82.95101 2.57118,43.68282 1.29157,46.05265 -28.81203,53.35236 -25.72848,6.23893 -41.85947,19.40371 -46.18563,37.69307 -2.31019,9.76737 2.55148,10.04862 15.52334,0.89842 l 9.50685,-6.706 4.22721,6.706 c 5.55732,8.81641 17.37008,8.85155 27.17914,0.0803 l 7.40969,-6.62499 7.57439,6.62499 c 11.76893,10.29333 27.41968,7.79716 31.83655,-5.07784 0.84918,-2.47459 3.11521,-1.68179 7.70395,2.69528 8.5981,8.20174 30.63865,11.71968 33.01935,5.27085 0.9084,-2.4605 -0.8173,-8.53716 -3.8349,-13.5035 -12.82337,-21.10435 -16.83483,-31.16906 -17.00188,-42.65698 -0.23159,-15.97843 4.11171,-23.68789 20.67018,-36.68258 20.1145,-15.78571 26.3303,-36.15174 11.0336,-36.15174 -9.4446,0 -18.9658,-9.16238 -25.03761,-24.0944 -12.34273,-30.353 -9.92371,-64.38069 8.60091,-120.98802 18.816,-57.49804 20.9033,-68.09998 20.9786,-106.55486 0.061,-31.09262 -0.6523,-36.46954 -7.0977,-53.51548 -3.9407,-10.42245 -11.9364,-25.94139 -17.7683,-34.48648 l -10.60369,-15.53655 13.61409,-12.37908 c 41.5692,-37.79814 33.0655,-99.65947 -16.97564,-123.49452 -15.30866,-7.29172 -19.13361,-7.93564 -45.96162,-7.73767 -16.09478,0.11887 -40.63598,2.44338 -54.53601,5.16596 -14.17247,2.77586 -38.16166,5.0068 -54.61745,5.07933 -26.14167,0.11528 -30.57929,-0.59189 -40.65384,-6.47748 -10.50469,-6.13693 -12.30571,-9.05062 -14.36239,-23.23497 -0.42273,-2.91577 -2.28012,-5.82445 -4.12718,-6.46379 -3.57305,-1.23656 -20.07376,14.48125 -22.51166,21.44346 -1.20273,3.43532 -2.18437,3.19781 -5.71299,-1.38265 -2.34343,-3.04174 -5.61534,-10.03112 -7.27109,-15.5319 -4.16366,-13.83415 0.94919,-24.20453 15.76514,-31.97638 l 11.49489,-6.02963 -6.77818,-4.61657 c -13.98705,-9.52615 -37.77003,-3.00949 -46.37132,12.70608 -2.43308,4.44545 -5.08701,8.09053 -5.8973,8.10014 -0.81037,0.005 -5.43501,-4.23121 -10.27729,-9.42412 -18.05914,-19.3675 -11.84706,-48.02104 12.30761,-56.76915 12.88034,-4.66494 24.2789,-1.10641 26.65053,8.32028 3.62069,14.39176 14.87585,-4.5257 12.85722,-21.61034 -1.34213,-11.35855 -1.14045,-11.75225 6.02048,-11.75225 9.95831,0 31.15417,14.34495 37.70994,25.52133 7.61458,12.98175 7.06045,33.4244 -1.31898,48.65976 l -6.57968,11.96309 8.60684,-1.8917 c 12.62098,-2.77394 24.88251,-11.37638 31.08556,-21.80895 6.55759,-11.02917 7.26284,-32.50457 1.44771,-44.09423 -5.63501,-11.23119 -4.98881,-13.01415 3.34186,-9.21884 14.16901,6.45521 21.74422,13.57442 27.42629,25.77501 5.11712,10.98755 5.40282,13.71796 2.63264,25.15378 -1.70922,7.05555 -5.51213,16.33841 -8.4512,20.62846 -4.57599,6.68012 -4.73216,7.80013 -1.08618,7.80013 6.7901,0 20.96815,-7.05342 26.00378,-12.93666 2.54406,-2.97229 6.25303,-10.29102 8.2424,-16.2639 l 3.61721,-10.85971 4.15619,8.27789 c 5.87738,11.70537 17.30333,22.23862 31.23425,28.79339 14.98279,7.04978 21.22249,7.44698 13.38737,0.85216 -5.28361,-4.44725 -15.01949,-35.80197 -12.06896,-38.86893 1.73613,-1.80457 22.07911,15.37471 45.30536,38.25938 21.97134,21.64854 35.77779,28.73947 55.95739,28.73961 25.7783,1.7e-4 40.7876,-24.62897 29.2018,-47.91743 -6.7547,-13.57768 -21.803,-15.46384 -30.6024,-3.83577 -4.0463,5.34702 -5.1573,9.60045 -3.9721,15.20886 1.4517,6.87037 0.8854,7.78585 -4.8178,7.78585 -7.493,0 -22.26347,-10.52204 -48.49582,-34.54705 -40.0018,-36.63562 -88.60747,-67.68905 -123.70368,-79.03238 -22.52337,-7.27962 -70.63666,-10.12043 -93.53245,-5.52252 -24.7804,4.97643 -54.09069,20.54122 -70.05834,37.20321 -28.2938,29.52457 -28.74258,68.8138 -1.19446,104.59085 l 7.89124,10.24857 -5.34243,9.10814 c -7.77203,13.25047 -7.10642,31.08179 1.65048,44.21637 3.85688,5.78508 7.74757,10.51586 8.64597,10.51281 0.89837,-0.002 1.88344,-3.72225 2.18886,-8.26501 0.77336,-11.4919 5.26713,-19.19156 12.98037,-22.23985 6.94709,-2.74549 11.43819,-1.44876 43.24732,12.48645 33.46333,14.6598 88.4971,15.66749 147.01587,2.69185 28.68805,-6.36116 62.51581,-5.98704 77.39828,0.85595 27.28136,12.54397 33.60299,45.17861 13.54997,69.95055 -8.68108,10.72379 -17.0533,15.09089 -45.16277,23.55809 -21.3901,6.44313 -26.45663,6.87087 -75.07454,6.33816 -41.53623,-0.45513 -56.46371,0.42033 -73.41878,4.30589 -18.4071,4.21822 -29.72853,4.64356 -83.79928,3.14806 l -62.51687,-1.72911 6.93268,6.3006 c 3.81301,3.46531 9.2001,7.7289 11.97132,9.47467 4.71539,2.97051 4.55815,3.36963 -2.4504,6.2218 -4.11893,1.67626 -13.26076,3.04768 -20.31531,3.04768 h -12.82607 l -1.72603,11.9635 c -0.94945,6.57995 -0.87735,14.26214 0.15955,17.07155 1.52969,4.14364 0.95957,4.73869 -3.01917,3.15163 -2.69755,-1.07599 -10.21044,-3.1923 -16.69522,-4.7029 -6.48471,-1.51063 -15.21366,-4.58667 -19.39777,-6.83566 -7.03596,-3.782 -7.8178,-3.68036 -10.40945,1.35328 -2.3142,4.49502 -24.04056,22.24251 -27.2292,22.24251 -0.5145,0 -1.17875,-3.422 -1.47591,-7.60439 -0.29716,-4.18244 -3.43153,-15.0706 -6.96522,-24.1959 -3.5339,-9.1253 -7.22374,-19.08023 -8.19982,-22.12197 -1.47245,-4.58849 -2.13912,-4.82396 -3.91487,-1.38265 -1.17718,2.28133 -2.896,8.50313 -3.81939,13.82627 -0.92342,5.32309 -4.19716,13.97054 -7.27509,19.21655 l -5.5962,9.5382 -3.56931,-8.15558 c -3.83164,-8.75501 -10.1929,-17.83394 -12.49594,-17.83394 -0.77733,0 -2.10136,2.7998 -2.942,6.2218 -1.75555,7.14605 -16.83995,26.96113 -20.52421,26.96113 -1.35672,0 -2.4666,-5.59959 -2.4666,-12.44359 0,-6.84398 -1.19713,-12.44362 -2.66029,-12.44362 -1.46314,0 -2.66029,1.77105 -2.66029,3.93573 0,5.26168 -12.88249,20.95148 -17.2028,20.95148 -1.88534,0 -4.91837,1.86654 -6.73983,4.14786 -4.74943,5.94824 -8.63451,5.1136 -6.6377,-1.426 0.93615,-3.06568 0.32746,-10.22075 -1.35276,-15.90018 -1.68027,-5.67943 -3.46692,-11.72418 -3.97023,-13.4327 -0.63421,-2.15179 -5.25065,-1.58102 -15.02107,1.85709 -15.78861,5.55576 -21.08073,4.57286 -12.96072,-2.40713 2.96838,-2.5516 7.48313,-11.39009 10.0333,-19.6411 2.54991,-8.25102 6.31235,-15.57203 8.36105,-16.26894 2.86856,-0.97595 2.7159,0.23008 -0.66506,5.24743 -2.4145,3.58301 -4.39721,8.41533 -4.40625,10.73848 0,2.32315 -1.82603,7.831 -4.03809,12.23971 -2.21175,4.40876 -3.60229,8.45174 -3.08966,8.98445 0.51238,0.53273 6.51962,-1.97187 13.3491,-5.56583 l 12.4172,-6.53435 0.0503,5.84567 c 0.0293,3.21514 1.52461,11.697 3.32537,18.84864 l 3.27403,13.00281 8.45252,-4.26385 c 8.63852,-4.35766 16.82028,-19.8925 16.82028,-31.93704 0,-5.95414 3.10746,-5.04017 4.37989,1.28811 0.37353,1.85712 2.32405,8.82711 4.33468,15.48887 l 3.65578,12.11232 5.7872,-7.64755 c 3.18304,-4.20612 7.17345,-12.45652 8.86755,-18.33411 2.94094,-10.20344 7.55869,-14.59013 7.55869,-7.18061 0,5.33954 13.27593,24.48923 15.83701,22.84391 1.23782,-0.7951 3.70258,-7.98233 5.47727,-15.9717 3.69117,-16.61489 9.64596,-27.91482 13.42971,-25.48408 1.42271,0.91399 1.97685,2.68782 1.23118,3.94186 -0.74569,1.25396 2.31205,12.05612 6.79492,24.00478 4.48286,11.94868 8.98435,23.97893 10.00352,26.73398 1.63739,4.42664 3.11733,3.78361 12.72656,-5.53053 5.98033,-5.79679 11.40842,-12.28592 12.06205,-14.42023 0.98804,-3.22657 2.32215,-3.10854 7.91436,0.70024 7.82046,5.32635 34.11347,13.90847 36.14409,11.79762 0.76059,-0.7905 1.54031,-8.36949 1.73291,-16.8422 l 0.3501,-15.40483 7.56108,1.72093 c 4.15854,0.94657 12.90269,0.88836 19.43132,-0.12966 l 11.87021,-1.85025 -10.57864,-7.9656 c -5.81859,-4.38106 -11.70159,-10.05061 -13.07349,-12.5989 -1.46155,-2.71477 -6.63982,-5.01996 -12.50576,-5.5671 -15.84923,-1.4782 -43.9393,-18.77015 -43.9393,-27.04856 0,-1.55413 3.89071,1.08842 8.64597,5.87234 10.54911,10.61275 25.20469,17.27405 38.00471,17.27405 h 9.57782 l -5.92499,-8.64899 c -3.40361,-4.96831 -6.456,-14.39305 -7.17267,-22.14645 -1.14234,-12.3588 -2.33096,-14.32391 -14.08865,-23.29531 -7.06227,-5.38886 -15.81013,-13.466 -19.4393,-17.94922 l -6.59863,-8.15132 -3.36658,9.67798 c -1.85181,5.32287 -4.11494,9.67797 -5.02899,9.67797 -0.9141,0 -4.47383,-3.11093 -7.91015,-6.91312 -3.43655,-3.80221 -6.93723,-6.89883 -7.77946,-6.88141 -0.84255,0.0168 -3.8867,5.13893 -6.7649,11.38103 l -5.2333,11.3493 -4.04395,-6.54183 c -2.22428,-3.59804 -7.47808,-9.96383 -11.67494,-14.14627 -4.19689,-4.18242 -6.4044,-7.60442 -4.90534,-7.60442 1.49881,0 6.67894,4.35697 11.51137,9.68215 l 8.78563,9.68214 3.5757,-7.09361 c 2.12186,-4.20952 2.91701,-10.67573 1.95585,-15.90394 -1.40118,-7.62067 -1.20432,-8.06357 1.45786,-3.27986 1.69299,3.04177 6.83268,8.87341 11.42196,12.95913 l 8.34429,7.42869 5.7582,-11.57653 c 5.73076,-11.52092 5.77097,-11.54333 8.37832,-4.66343 3.48684,9.20082 28.72107,31.90383 50.20454,45.16824 3.31124,2.04448 1.91513,-4.98588 -4.20009,-21.15236 -1.61958,-4.28142 -2.94467,-12.00004 -2.94467,-17.15247 0,-7.64393 -2.00906,-11.04602 -10.91627,-18.48537 -12.85904,-10.74021 -17.01763,-18.37787 -19.44087,-35.70513 -0.98166,-7.01883 -3.23201,-14.82524 -5.00109,-17.34755 -2.62411,-3.74201 -3.05775,-1.64786 -2.35568,11.37894 0.47324,8.78066 -0.56719,19.69798 -2.31234,24.26065 l -3.17268,8.29572 -2.45252,-6.91312 c -1.34878,-3.80221 -7.31474,-10.41445 -13.25809,-14.69384 -5.94312,-4.27941 -10.11444,-8.49938 -9.26925,-9.37769 0.84486,-0.87834 6.95904,3.02183 13.58665,8.66698 10.09687,8.59995 12.32087,9.53106 13.71937,5.74326 1.64301,-4.45078 -0.002,-23.81511 -3.17639,-37.34788 -1.58419,-6.75726 -1.44557,-6.72091 6.14929,1.61352 5.6015,6.14699 8.69889,13.47852 11.09847,26.26983 3.04843,16.25014 4.58634,18.95539 18.27648,32.14855 8.22137,7.92288 15.37598,13.96043 15.89924,13.41664 0.52303,-0.54378 1.56055,-21.03911 2.30541,-45.5452 1.42856,-46.994 -0.1863,-58.17524 -10.4975,-72.69414 l -5.298,-7.46 8.32858,-9.86007 c 10.86493,-12.86263 15.8535,-23.17304 18.01739,-37.23919 l 1.76028,-11.44279 -9.39907,9.76991 c -7.69624,7.99982 -11.37167,9.76986 -20.28579,9.76986 -8.82685,0 -12.27484,-1.62351 -18.22301,-8.58017 -7.13677,-8.3467 -19.78304,-16.37789 -31.944,-20.28641 -4.49248,-1.44381 -5.98568,-0.8149 -5.98568,2.52058 0,2.44442 -2.48153,9.50031 -5.51449,15.67973 l -5.51427,11.23539 -11.55367,-12.53395 c -7.08703,-7.68802 -15.49754,-13.67218 -21.75377,-15.47796 -15.98488,-4.61375 -16.85058,-4.15562 -16.85058,8.91566 0,19.82719 -7.71294,23.52119 -21.5941,10.34248 -10.58185,-10.04625 -19.35975,-12.23034 -39.42528,-9.8096 l -15.49754,1.8696 2.78853,7.67874 c 2.32907,6.41396 1.80417,9.11516 -3.18597,16.39979 -8.09396,11.81516 -18.61784,16.93334 -34.81796,16.93334 -7.46133,0 -16.79842,1.69462 -20.74949,3.76585 -3.95105,2.07121 -13.76782,4.45746 -21.8152,5.30272 -8.04741,0.84533 -16.62471,2.35402 -19.06047,3.35276 -3.81167,1.56273 -4.23013,0.27495 -3.00241,-9.24039 1.8792,-14.56187 -7.38871,-25.30289 -21.83196,-25.30289 -18.73965,0 -27.3832,18.39758 -20.04453,42.66495 1.41237,4.67064 3.26047,12.03649 4.10671,16.36861 0.87816,4.49437 9.31924,16.42093 19.65825,27.77516 9.96572,10.94431 19.38422,22.33222 20.93036,25.30644 1.54619,2.97426 6.65766,7.74729 11.35892,10.60676 l 8.54807,5.19909 -1.12743,-10.03827 c -1.2392,-11.03231 0.95104,-12.76312 6.29931,-4.97801 1.91169,2.78304 6.76833,7.28146 10.79201,9.99637 6.33841,4.27682 7.3158,4.3637 7.3158,0.65034 0,-2.35725 1.29213,-7.78892 2.87127,-12.07034 l 2.87153,-7.78443 4.98217,10.59144 c 2.74013,5.82534 11.65131,19.06466 19.80242,29.4208 15.81603,20.09462 25.45265,42.55007 20.47897,47.72009 -2.01729,2.09673 -7.47035,1.93445 -18.77237,-0.55862 -8.76116,-1.93258 -19.59786,-2.95414 -24.08176,-2.27008 -9.15678,1.39695 -9.87796,0.0995 -4.24637,-7.63955 5.94361,-8.16833 4.99817,-9.51558 -6.67843,-9.51558 -13.50921,0 -47.04807,-7.10768 -59.92203,-12.69889 -12.51825,-5.43689 -15.40655,-4.08312 -19.09132,8.9485 -1.65843,5.86493 -4.69489,16.49221 -6.74758,23.61614 l -3.73212,12.95257 13.54404,-1.43155 c 7.4494,-0.78738 17.03043,-2.57749 21.29144,-3.97808 4.26098,-1.4005 8.13359,-2.14481 8.60578,-1.65402 0.47221,0.49082 -1.42699,5.55207 -4.22029,11.24715 l -5.07877,10.3547 8.44431,-1.88935 c 4.64458,-1.03912 11.63212,-3.58178 15.52813,-5.65036 6.77922,-3.59937 7.32353,-3.33804 12.67071,6.08205 6.57544,11.58451 11.83565,11.10853 13.00271,-1.1766 1.20672,-12.7004 5.01307,-10.82184 12.17349,6.00811 6.88539,16.18337 14.04904,21.89722 15.42548,12.30346 0.45677,-3.1853 4.16602,-8.37037 8.24236,-11.52238 8.2456,-6.37564 14.45927,-4.46285 18.02193,5.54754 3.68766,10.36208 -4.53687,21.04273 -28.46064,36.9593 -47.92226,31.88319 -75.77926,75.48858 -83.73195,131.06821 -7.17294,50.13085 15.2302,101.93383 60.17372,139.14078 21.50769,17.80539 55.67465,36.59743 53.50356,29.42714 -9.22055,-30.45223 -8.91703,-88.55581 0.51422,-98.35889 1.41532,-1.47115 0.92849,4.5917 -1.08191,13.47312 -7.4882,33.08308 -4.23518,59.44361 14.96017,121.22692 17.36107,55.87868 14.95803,79.76125 -9.61351,95.54637 -7.89175,5.06981 -12.97267,5.9052 -34.19143,5.62258 -23.02353,-0.30694 -25.53217,0.2018 -32.92406,6.66619 -7.16605,6.26796 -16.45739,26.84638 -16.45739,36.45006 0,5.20227 5.2634,4.51373 15.60663,-2.04073 z M 461.91311,422.87946 c 0,-4.0569 -10.85482,-15.05156 -21.85407,-22.13566 -8.63797,-5.56353 -10.06495,-5.73259 -10.08435,-1.19499 -0.0293,6.88906 -5.61081,24.1959 -7.80265,24.1959 -1.23598,0 -3.0636,-3.38207 -4.06172,-7.51569 -0.99817,-4.13367 -5.18544,-12.28019 -9.30543,-18.1035 l -7.49085,-10.58775 -5.8327,9.80979 c -5.43741,9.14488 -14.85644,18.10143 -19.03654,18.10143 -0.9984,0 -1.19369,-4.81612 -0.43419,-10.70248 0.82524,-6.39551 0.18907,-11.46882 -1.58338,-12.60683 -1.63023,-1.04735 -2.96411,-0.68195 -2.96411,0.81199 0,3.44595 -13.08041,19.73206 -15.84817,19.73206 -1.14047,0 -2.73691,-4.66635 -3.54803,-10.3697 -0.81085,-5.7033 -2.18916,-14.72492 -3.0628,-20.04799 -0.87366,-5.32309 0.98911,-1.71329 4.13968,8.02175 l 5.72843,17.70008 6.28174,-10.78698 c 3.45495,-5.93284 6.28785,-12.41589 6.29532,-14.40674 0,-1.99087 1.1761,-2.87297 2.59697,-1.96027 1.42062,0.9127 3.39798,8.04426 4.39375,15.84786 l 1.81088,14.1884 6.91221,-8.31793 c 3.80183,-4.57487 8.25677,-10.6997 9.89977,-13.61078 2.93165,-5.19429 3.09766,-5.18993 8.92898,0.23823 3.26791,3.04177 8.29213,10.31746 11.16473,16.16818 2.87287,5.85065 5.60766,10.20591 6.07773,9.67833 0.46981,-0.5276 1.52248,-6.55891 2.33944,-13.40289 0.81673,-6.84397 1.54592,-12.69743 1.62011,-13.00763 0.4065,-1.69584 20.8216,12.86882 28.37496,20.24337 4.85478,4.74005 9.46561,7.95464 10.24591,7.14353 0.78053,-0.81125 1.419,-7.80444 1.419,-15.54058 0,-11.98825 -1.15779,-15.20138 -7.83862,-21.75576 -7.68158,-7.53609 -7.8965,-7.57748 -10.73476,-2.06496 -3.68375,7.15452 -8.02956,7.25786 -8.02956,0.19078 0,-5.15799 -14.51619,-24.98349 -18.29276,-24.98349 -0.97896,0 -4.03618,4.35529 -6.79411,9.6784 -2.75794,5.32307 -5.72362,9.67335 -6.59059,9.66731 -3.72364,-0.0259 -24.18794,-25.06787 -24.17888,-29.58707 0,-3.59533 1.37907,-2.67596 4.96676,3.32829 2.72598,4.56265 8.17187,11.37403 12.10141,15.1364 7.95693,7.6183 10.84947,5.76588 13.91997,-8.9146 0.87472,-4.18245 2.39509,-7.60445 3.37831,-7.60445 3.40171,0 21.21638,20.76647 23.72182,27.65243 l 2.51533,6.91315 1.90528,-7.60442 c 2.32965,-9.29894 4.90026,-9.64483 8.61989,-1.15958 1.55366,3.54468 9.22805,10.91427 17.05383,16.37683 l 14.22889,9.93192 2.85556,-9.98954 c 1.5706,-5.49421 3.65121,-8.65148 4.62355,-7.01608 1.45011,2.43867 -2.24848,18.9918 -5.03914,22.5534 -0.41818,0.53382 -5.02899,-2.41371 -10.24636,-6.55 l -9.48555,-7.52058 -0.0373,13.46307 c -0.0277,7.40473 -0.75819,16.26299 -1.64057,19.68497 -1.72523,6.6909 -6.30412,8.57313 -6.30412,2.59126 z M 390.96493,315.53854 c -16.91067,-15.49626 -19.47788,-19.04222 -19.10329,-26.38679 l 0.3985,-7.81714 1.10324,7.5502 c 0.6443,4.40876 5.14792,11.01556 10.82394,15.87894 l 9.72097,8.32875 5.97341,-7.58321 c 3.28572,-4.17077 6.01679,-9.13867 6.06945,-11.03977 0.13834,-4.95731 0.94866,-4.54091 12.39778,6.36222 10.17245,9.68739 10.33099,9.7337 11.84391,3.45661 0.84331,-3.49922 0.54401,-10.08713 -0.66509,-14.63977 -3.32375,-12.5141 -2.67253,-14.40271 2.36394,-6.85533 2.50919,3.76038 6.54403,9.07629 8.96626,11.8131 4.21629,4.76421 4.47354,4.70528 6.04231,-1.38264 0.90132,-3.49723 1.65497,-9.89838 1.67491,-14.22464 l 0.0374,-7.86609 9.17188,11.41109 c 8.56725,10.65898 9.35654,11.05275 11.97134,5.97391 1.53978,-2.99043 2.81777,-10.18533 2.84015,-15.98865 0.0293,-7.49678 0.74858,-9.38833 2.48575,-6.53379 2.90105,4.76677 0.88694,17.74562 -4.47009,28.80624 l -3.84413,7.93671 -5.04791,-8.62799 c -6.45438,-11.03236 -8.60313,-10.85527 -12.74465,1.05032 -3.91411,11.25113 -6.45921,12.10753 -10.27298,3.45656 -2.46799,-5.59859 -2.93778,-4.91254 -4.68957,6.84889 l -1.9471,13.07064 -11.66591,-9.93653 -11.66618,-9.93655 -5.24448,6.54422 c -2.88459,3.59933 -5.28442,8.09969 -5.33312,10.00081 -0.10629,4.12039 -2.91223,4.24909 -7.18943,0.32968 z m 150.43058,-57.7138 c -6.15541,-6.08641 -10.39564,-11.89342 -9.42304,-12.90446 0.97262,-1.01101 2.06788,-1.30062 2.43366,-0.6436 0.36577,0.65705 5.39719,6.4641 11.18094,12.90448 13.31714,14.82886 10.57945,15.24922 -4.19156,0.64358 z m -200.3749,-22.73196 c -5.59941,-8.30947 -5.21263,-13.81471 1.60304,-22.82138 4.92529,-6.50841 7.17511,-7.39156 15.77531,-6.19253 5.51689,0.76917 17.38821,6.11905 26.38105,11.88865 10.38607,6.66353 21.12885,11.12741 29.44972,12.237 7.20462,0.96073 13.09955,1.32294 13.09955,0.80497 0,-0.51799 -2.9928,-5.8698 -6.6507,-11.89289 -8.68669,-14.30313 -8.38925,-15.83822 1.40833,-7.26895 10.05725,8.79647 22.08707,11.36909 48.96993,10.47233 l 13.13386,-0.43814 -7.61935,-8.26691 c -10.65609,-11.56128 -7.37647,-12.59779 4.39132,-1.38794 11.03679,10.51351 10.34563,11.25382 -12.88433,13.79863 -9.87104,1.08136 -20.48639,0.29698 -29.30951,-2.16575 -13.20093,-3.68475 -13.71331,-3.62864 -11.21265,1.22827 1.44138,2.79922 3.77552,5.08944 5.18708,5.08944 1.41183,0 2.5669,1.41847 2.5669,3.15211 0,5.33129 -28.51249,0.6432 -42.13744,-6.92841 -31.12648,-17.29737 -35.04353,-18.7952 -42.45218,-16.23282 -4.12264,1.42586 -8.24902,5.59943 -9.67097,9.78168 -4.74383,13.95125 13.28338,24.79533 20.71892,12.46325 2.15508,-3.57457 1.65177,-6.01947 -2.13595,-10.36965 -5.18702,-5.95802 -4.70045,-6.80693 2.30194,-4.01389 4.97158,1.98301 5.64035,15.08316 1.01569,19.89041 -5.29159,5.50023 -17.36718,3.94323 -21.92956,-2.82748 z m 122.61745,-34.46151 c -3.89227,-4.04595 -0.84091,-5.03698 16.60929,-5.39408 21.58829,-0.44178 34.69898,-4.39026 50.16832,-15.1087 12.39483,-8.58823 15.75532,-6.89824 3.99046,2.00669 -10.73272,8.12349 -27.4723,14.36849 -43.6328,16.27782 -7.82578,0.92462 -16.74445,2.20545 -19.81949,2.84627 -3.07474,0.64083 -6.36688,0.35823 -7.31578,-0.628 z m 185.43018,705.74903 9.65793,-6.81248 6.55418,6.81248 c 8.58662,8.92535 18.64571,8.72575 26.90142,-0.53371 3.60256,-4.04056 6.83773,-6.84036 7.1889,-6.2218 0.35118,0.6186 1.95771,3.61337 3.56986,6.65514 2.04072,3.85033 6.23652,5.78627 13.81011,6.37274 9.12507,0.70656 11.57547,-0.26258 15.20118,-6.01463 l 4.32218,-6.85699 9.50711,6.706 c 26.02834,18.36005 39.89588,-0.90233 28.26401,-39.2593 -5.91462,-19.50325 -2.66241,-30.46747 16.40048,-55.29079 8.03857,-10.46754 14.62256,-21.64025 14.63052,-24.82773 0,-5.08225 -1.4871,-5.76307 -12.18545,-5.53053 -10.23788,0.22409 -13.23312,-0.98275 -18.62206,-7.49349 -8.76513,-10.58977 -8.24425,-22.7176 1.55361,-36.1755 l 7.82737,-10.75128 -13.88702,-10.34367 c -7.63795,-5.68921 -21.41163,-19.14907 -30.60827,-29.91111 -20.65425,-24.16986 -40.96375,-35.63152 -67.74359,-38.23088 l -17.95644,-1.74296 0.0277,14.91742 c 0.0346,19.2041 8.24585,37.67809 30.66093,68.97043 25.48562,35.57905 27.2651,41.08712 28.29703,87.59107 l 0.87255,39.32979 -7.37458,7.67938 c -6.66377,6.93881 -9.66858,7.82426 -31.17066,9.18529 -20.47122,1.29579 -24.77186,2.45501 -30.7788,8.29571 -7.97849,7.75766 -10.36424,11.97714 -12.82764,22.68971 -1.43579,6.2431 -0.85397,7.60444 3.25113,7.60444 2.74995,0 9.34614,-3.06583 14.65796,-6.81275 z M 105.43372,792.60347 c 0,-4.97244 2.02451,-6.29921 11.98011,-7.85109 l 11.9801,-1.86734 -7.98965,-6.98835 c -9.49219,-8.30207 -10.37037,-14.78796 -2.00401,-14.80234 8.33258,0 22.44436,-9.49695 24.5899,-16.52319 0.99708,-3.26574 0.37006,-7.62903 -1.41846,-9.86916 -4.67124,-5.85041 -13.45364,-4.96831 -15.08491,1.51535 -1.75342,6.96982 -4.68908,6.98808 -11.34434,0.069 -10.01146,-10.40671 -10.23627,-31.94766 -0.46417,-44.49191 4.60546,-5.91182 4.56449,-6.2995 -1.30704,-12.40269 -6.31632,-6.5655 -10.82713,-19.56022 -7.86011,-22.64428 0.94417,-0.98142 5.93436,-0.19941 11.08943,1.73878 7.32514,2.75336 10.2169,2.79511 13.23471,0.19078 9.14128,-7.88593 -0.76243,-18.02608 -15.42198,-15.78955 -5.89973,0.9001 -8.33712,0 -9.18438,-3.35894 -0.6409,-2.54762 -5.80129,-5.87395 -11.61539,-7.48689 -10.388968,-2.8825 -10.462218,-2.84739 -10.462218,5.00868 0,8.60876 -4.47738,10.2328 -12.98519,4.71004 -6.91309,-4.48773 -13.61778,-1.00377 -13.61778,7.07626 0,7.53889 6.90753,11.25674 19.28716,10.38128 9.49528,-0.67169 9.84859,7.07818 0.83057,18.21825 l -6.48524,8.01118 5.13755,8.10106 c 7.60895,11.99786 6.96845,31.92448 -1.34426,41.82101 l -6.51682,7.75874 -4.27517,-6.2218 c -5.9412,-8.64635 -14.06779,-8.06679 -16.29624,1.16222 -1.45921,6.04344 -0.25289,8.80513 6.64201,15.20886 4.63372,4.30354 11.39894,7.82479 15.03379,7.82479 8.99503,0 8.64329,7.76399 -0.70707,15.60738 l -7.31583,6.13659 11.30626,1.92487 c 6.21844,1.05883 11.30626,3.05063 11.30626,4.42577 0,5.27416 2.60135,21.29522 10.354478,21.6798 6.89192,0.34183 10.77539,-10.85736 10.92793,-18.27309 z m 143.07621,-57.89951 c 10.27219,-4.44401 32.5032,-25.1062 32.5032,-30.20946 0,-1.60551 -6.13622,-9.01249 -13.63588,-16.46043 -15.78271,-15.67312 -32.95037,-42.06847 -37.39868,-57.50127 -2.31924,-8.04692 -13.52677,-21.82196 -45.09544,-55.42659 l -42.00923,-44.71845 -12.10752,3.36589 c -6.65925,1.85132 -14.78403,3.41091 -18.05513,3.46565 -5.63745,0.094 -5.5353,0.44935 1.95954,6.81552 l 7.90722,6.71624 11.08544,-6.75274 c 10.7452,-6.54563 11.12772,-6.58599 12.45282,-1.31822 0.77603,3.08381 -0.89785,8.42823 -3.8686,12.3543 -2.88005,3.80554 -4.52063,8.12262 -3.64621,9.59349 0.87444,1.47053 -1.89226,4.54575 -6.14819,6.83345 -7.88827,4.24023 -13.36344,18.19809 -7.13838,18.19809 5.60049,0 17.95008,-16.72396 16.52709,-22.38053 -0.72893,-2.89657 -0.37643,-5.87586 0.78318,-6.62084 4.80981,-3.08985 4.50919,10.04033 -0.37749,16.49827 -2.88005,3.80554 -4.52063,8.12265 -3.64621,9.59349 0.87444,1.47053 -1.89226,4.5458 -6.14819,6.83348 -7.8372,4.21256 -13.36745,18.19804 -7.19635,18.19804 6.04817,0 18.19509,-15.98114 16.69094,-21.95934 -0.78692,-3.12831 -0.48231,-6.29703 0.6773,-7.04196 3.23944,-2.08114 4.98701,8.28437 2.25248,13.363 -1.46476,2.72076 -1.45145,6.43448 0.0346,9.37976 2.69036,5.33551 -0.0374,15.58243 -4.99551,18.76773 -2.12527,1.3652 -0.68607,4.04413 4.46902,8.31702 7.45948,6.18336 7.60423,6.83264 7.60423,34.1162 0,22.80052 0.83877,28.68525 4.65547,32.65418 4.28309,4.45429 4.65556,4.47033 4.65556,0.1994 0,-4.66521 7.46129,-10.368 13.56482,-10.368 1.80046,0 13.04926,10.46291 24.99692,23.25076 12.02025,12.86558 24.59843,23.81343 28.15972,24.51058 3.54008,0.69298 7.37278,1.42935 8.51722,1.63645 1.14419,0.20731 6.53128,-1.5488 11.97132,-3.90232 z M 120.06535,624.37986 c 0,-7.35035 -13.81411,-15.19616 -30.336658,-17.23027 -13.33992,-1.6423 -13.55825,-1.54938 -13.55825,5.76444 0,6.0542 2.09772,8.43592 11.30624,12.83625 14.796598,7.07048 32.588668,6.32248 32.588668,-1.37042 z m 15.1509,-0.67227 c 6.73827,-6.71043 9.93088,-14.69147 5.87688,-14.69147 -4.66243,0 -17.03735,12.18783 -17.03735,16.77981 0,7.16722 2.2985,6.73697 11.16047,-2.08834 z m -14.37251,-21.72763 c 0.57092,-4.14704 -1.76616,-6.91477 -8.77177,-10.3871 -15.11182,-7.49075 -33.179148,-10.96003 -37.530048,-7.20652 -8.01437,6.91369 -2.67433,16.19633 10.27786,17.86627 5.21458,0.67219 12.285398,2.41764 15.712618,3.8788 9.95483,4.24356 19.42173,2.30872 20.31134,-4.15145 z m 0,-22.21183 c 0.81352,-5.91596 -2.6329,-8.03304 -30.771888,-18.90319 -21.00681,-8.11491 -30.30562,-4.28838 -23.59216,9.70875 2.33866,4.87596 6.264,7.10339 15.06692,8.55012 6.54742,1.07625 15.495788,3.18029 19.885268,4.67604 11.72682,3.99552 18.50149,2.58857 19.41186,-4.03172 z m 14.10461,-20.819 c 4.24561,-4.72327 7.71887,-10.29773 7.71887,-12.38715 0,-6.77817 -16.76677,5.21332 -18.90405,13.51984 -2.56347,9.96342 1.59218,9.54285 11.18601,-1.13269 z m -14.09264,-1.39889 c 0.92556,-6.73893 -9.28549,-12.82465 -29.365628,-17.50238 -14.73244,-3.4319 -21.23045,-1.48549 -20.12717,6.02853 0.60223,4.10169 5.50868,7.0984 19.42777,11.86623 22.275168,7.62956 28.975388,7.5422 30.065028,-0.39238 z m 19.6359,-31.36925 c 25.73065,-12.57189 27.9565,-44.27381 3.69304,-52.59731 -10.07427,-3.45603 -16.50525,-1.59386 -20.36165,5.89571 -2.95265,5.73484 -0.97788,16.16166 3.06093,16.16166 1.36447,0 2.48102,1.93006 2.48102,4.28899 0,11.00782 -39.286158,15.99552 -55.397458,7.03279 -5.66004,-3.14876 -8.12434,-11.32178 -3.41361,-11.32178 3.52005,0 5.95387,-8.32812 4.1552,-14.21872 -2.45047,-8.0253 -9.81992,-10.80573 -20.50926,-7.73779 -24.11856,6.92215 -23.44151,38.02762 1.11504,51.22722 20.13597,10.82344 64.276458,11.48131 85.176748,1.26923 z m -16.00913,-24.35867 c 1.49005,-1.5489 0.84253,-3.92907 -1.65546,-6.08399 -5.47035,-4.71901 -5.17856,-11.73771 0.82176,-19.77237 4.50599,-6.03373 5.06891,-15.0631 6.61985,-106.14354 2.67227,-156.96103 13.30706,-275.02511 27.32442,-303.34825 5.58048,-11.2761 4.79783,-11.32099 -9.62255,-0.55241 -18.57551,13.87216 -32.71923,31.93613 -45.25051,57.79391 -23.659538,48.81926 -31.880798,114.49933 -31.880798,254.69658 0,79.6076 0.49412,90.02301 4.62545,97.50551 3.92451,7.10787 4.13311,9.73302 1.37638,17.3245 -1.78693,4.92093 -2.59781,9.62412 -1.8019,10.45143 5.28205,5.4905 43.762858,4.03402 49.443908,-1.87137 z M 340.67952,352.14887 c 0.80608,-1.35559 -0.97497,-8.19954 -3.95771,-15.20884 -4.65019,-10.92885 -6.52331,-12.74414 -13.14825,-12.74414 -20.75323,0 -54.11594,-10.17909 -88.51033,-27.00477 -19.8615,-9.7163 -26.72135,-11.94921 -29.10363,-9.47316 -6.07692,6.31673 4.02289,21.30994 19.6638,29.19124 13.87556,6.99159 52.66532,15.58243 70.35919,15.58243 10.26502,0 10.50763,0.50843 4.66615,9.77564 l -4.29663,6.81586 11.61245,0.32715 c 6.38658,0.17999 15.20359,1.27709 19.59307,2.43807 11.40042,3.01542 11.50711,3.01785 13.1227,0.30052 z"
     id="path4198" />
  <path
     style="fill:#ffb700"
     inkscape:connector-curvature="0"
     d="m 275.31647,907.49219 8.95588,-5.67538 3.83138,5.68562 c 5.1043,7.5751 19.22831,7.4894 28.60025,-0.17424 l 7.1663,-5.85928 6.00058,5.85928 c 7.8894,7.70426 22.62314,7.71447 32.03099,0.0288 6.58637,-5.38502 7.50469,-5.49316 11.85961,-1.39674 2.59619,2.44226 10.21072,5.22272 16.92132,6.17866 12.08572,1.72194 12.26873,1.62737 19.3398,-10.01598 5.92207,-9.7511 6.84839,-13.69768 5.43524,-23.15506 -0.93667,-6.26995 -1.94575,-16.3614 -2.24235,-22.4253 -0.53659,-10.97969 -0.47885,-11.04799 14.0929,-16.61691 8.0474,-3.07551 17.36265,-7.20043 20.70054,-9.16652 5.81967,-3.4278 21.86417,-24.1251 21.86417,-28.20436 0,-1.08093 -6.26817,-2.73677 -13.92905,-3.68001 -30.4723,-3.75132 -35.63305,-21.7113 -15.82341,-55.07039 32.30634,-54.40426 51.80123,-107.38633 51.93157,-141.13754 0.0586,-15.08608 0.84122,-20.15145 2.60738,-16.87076 7.21817,13.40699 -5.71299,69.62139 -25.30126,109.98982 l -7.88725,16.25493 7.52627,-1.90164 c 4.13938,-1.04584 28.47629,-12.31559 54.08162,-25.04372 70.08622,-34.83987 94.15899,-41.66724 139.51672,-39.57039 38.00016,1.75677 54.18303,9.90485 81.01286,40.79095 14.21346,16.36223 27.90544,28.06945 52.95238,45.27728 53.36254,36.66135 55.58788,39.83697 58.1258,82.95099 2.57117,43.68282 1.29157,46.05265 -28.81203,53.35236 -25.72848,6.23893 -41.85947,19.40371 -46.18564,37.69307 -2.31018,9.76737 2.55149,10.04862 15.52335,0.89841 l 9.50683,-6.70599 4.2272,6.70599 c 5.55735,8.81642 17.37011,8.85156 27.17917,0.0803 l 7.40969,-6.62499 7.57439,6.62499 c 11.7689,10.29336 27.41968,7.79716 31.83655,-5.07784 0.84917,-2.47459 3.11521,-1.68179 7.70395,2.69531 8.5981,8.20171 30.63866,11.71965 33.01936,5.27082 0.9084,-2.4605 -0.8173,-8.53716 -3.8349,-13.50351 -12.82339,-21.10434 -16.83485,-31.16905 -17.00189,-42.65697 -0.23159,-15.97843 4.11171,-23.68789 20.67019,-36.68258 20.1145,-15.78571 26.3303,-36.15174 11.0336,-36.15174 -9.4446,0 -18.9658,-9.16238 -25.03765,-24.0944 -12.3427,-30.353 -9.92368,-64.38069 8.60095,-120.988 18.816,-57.49806 20.9033,-68.1 20.9786,-106.55488 0.061,-31.09262 -0.6523,-36.46952 -7.0977,-53.51548 -3.9407,-10.42245 -11.9365,-25.94137 -17.7683,-34.48648 l -10.60371,-15.53656 13.61401,-12.37907 c 41.5693,-37.79814 33.0656,-99.65947 -16.97555,-123.49452 -15.30866,-7.29173 -19.13363,-7.93564 -45.96164,-7.73768 -16.09477,0.11888 -40.63597,2.44339 -54.53601,5.16597 -14.17245,2.77586 -38.16164,5.0068 -54.61743,5.07933 -26.14167,0.11528 -30.57929,-0.59189 -40.65384,-6.47746 -10.5047,-6.13695 -12.30571,-9.05064 -14.36239,-23.23499 -0.42273,-2.91577 -2.28012,-5.82445 -4.12718,-6.46379 -3.57305,-1.23657 -20.07376,14.48125 -22.51167,21.44348 -1.20273,3.4353 -2.18438,3.19779 -5.71298,-1.38264 -2.34344,-3.04177 -5.61534,-10.03115 -7.2711,-15.53191 -4.16366,-13.83417 0.9492,-24.20454 15.76515,-31.97638 l 11.49486,-6.02965 -6.77816,-4.61658 c -13.98704,-9.52613 -37.77005,-3.00949 -46.37131,12.70608 -2.43311,4.44546 -5.08701,8.09054 -5.89731,8.10015 -0.81036,0.006 -5.435,-4.23122 -10.27728,-9.42412 -18.05914,-19.3675 -11.84706,-48.02104 12.3076,-56.76915 12.88035,-4.66495 24.27891,-1.1064 26.65054,8.32027 3.62069,14.39177 14.87585,-4.52569 12.85722,-21.61033 -1.34213,-11.35855 -1.14047,-11.75225 6.02048,-11.75225 9.95829,0 31.15417,14.34495 37.70994,25.52134 7.61458,12.98174 7.06045,33.42438 -1.31898,48.65974 l -6.57968,11.96309 8.60684,-1.89169 c 12.62095,-2.77395 24.88251,-11.37639 31.08555,-21.80895 6.5576,-11.02916 7.26284,-32.50458 1.44772,-44.09422 -5.63501,-11.23121 -4.98881,-13.01416 3.34185,-9.21886 14.16901,6.45521 21.74421,13.57444 27.4263,25.77503 5.11709,10.98755 5.40282,13.71795 2.63264,25.15378 -1.70923,7.05555 -5.51213,16.33839 -8.45121,20.62846 -4.57599,6.68011 -4.73215,7.80012 -1.0862,7.80012 6.79013,0 20.96818,-7.05342 26.00381,-12.93665 2.54406,-2.9723 6.25303,-10.29104 8.2424,-16.26391 l 3.61721,-10.85971 4.15616,8.27788 c 5.87741,11.70537 17.30336,22.23863 31.23428,28.7934 14.98276,7.04977 21.22249,7.44698 13.38737,0.85217 -5.28361,-4.44727 -15.0195,-35.80199 -12.06896,-38.86894 1.73613,-1.80458 22.07911,15.3747 45.30536,38.25939 21.97134,21.64853 35.7778,28.73946 55.9574,28.7396 25.7783,1.7e-4 40.7876,-24.62897 29.2018,-47.91742 -6.7548,-13.57769 -21.803,-15.46386 -30.6024,-3.83577 -4.0463,5.347 -5.1573,9.60045 -3.9721,15.20884 1.4517,6.87037 0.8854,7.78586 -4.8178,7.78586 -7.493,0 -22.26348,-10.52204 -48.49583,-34.54704 -40.0018,-36.63562 -88.60747,-67.68905 -123.70368,-79.03239 -22.52338,-7.27962 -70.63666,-10.12043 -93.53246,-5.52252 -24.78039,4.97645 -54.09068,20.54123 -70.05834,37.20321 -28.29382,29.52457 -28.7426,68.81381 -1.19445,104.59086 l 7.89124,10.2486 -5.34243,9.10811 c -7.77204,13.25046 -7.10645,31.08179 1.65047,44.21637 3.85689,5.78508 7.74758,10.51585 8.64597,10.51281 0.89836,-0.002 1.88345,-3.72226 2.18887,-8.26501 0.77335,-11.4919 5.26712,-19.19156 12.98036,-22.23985 6.9471,-2.74546 11.43819,-1.44877 43.24733,12.48647 33.46332,14.65978 88.4971,15.66747 147.01586,2.69183 28.68805,-6.36116 62.51582,-5.98702 77.39829,0.85595 27.28135,12.54397 33.603,45.17864 13.54995,69.95055 -8.68107,10.72379 -17.05328,15.09092 -45.16276,23.55809 -21.39009,6.44313 -26.45662,6.87089 -75.07454,6.33816 -41.53623,-0.45513 -56.4637,0.42032 -73.41878,4.30591 -18.40712,4.2182 -29.72855,4.64354 -83.79927,3.14804 l -62.51688,-1.72911 6.93269,6.3006 c 3.81301,3.46531 9.2001,7.7289 11.97132,9.47467 4.71537,2.97053 4.55814,3.36963 -2.4504,6.22179 -4.11893,1.67626 -13.26077,3.04769 -20.31531,3.04769 h -12.82609 l -1.72601,11.9635 c -0.94945,6.57998 -0.87735,14.26214 0.15955,17.07155 1.52968,4.14364 0.95957,4.73869 -3.01917,3.15166 -2.69755,-1.07602 -10.21044,-3.19233 -16.69522,-4.70293 -6.48471,-1.51063 -15.21368,-4.58667 -19.39777,-6.83564 -7.03596,-3.78203 -7.81781,-3.68038 -10.40945,1.35326 -2.3142,4.49502 -24.04056,22.24251 -27.2292,22.24251 -0.5145,0 -1.17875,-3.42198 -1.47592,-7.60439 -0.29716,-4.18245 -3.43152,-15.0706 -6.96521,-24.1959 -3.5339,-9.1253 -7.22374,-19.08021 -8.19984,-22.12198 -1.47243,-4.58848 -2.13911,-4.82396 -3.91485,-1.38264 -1.17718,2.28135 -2.896,8.50312 -3.8194,13.82626 -0.92341,5.3231 -4.19716,13.97055 -7.27508,19.21656 l -5.5962,9.53823 -3.56934,-8.15561 c -3.83161,-8.75501 -10.19287,-17.83391 -12.49591,-17.83391 -0.77733,0 -2.10136,2.79979 -2.942,6.22177 -1.75555,7.14608 -16.83998,26.96113 -20.52421,26.96113 -1.35673,0 -2.46663,-5.59959 -2.46663,-12.44359 0,-6.84398 -1.1971,-12.4436 -2.66026,-12.4436 -1.46314,0 -2.66029,1.77105 -2.66029,3.9357 0,5.26169 -12.88249,20.95149 -17.2028,20.95149 -1.88534,0 -4.91837,1.86653 -6.73984,4.14788 -4.74942,5.94822 -8.63451,5.11358 -6.63769,-1.42602 0.93614,-3.06568 0.32746,-10.22075 -1.35279,-15.90018 -1.68024,-5.67943 -3.46689,-11.72418 -3.97021,-13.4327 -0.63421,-2.15179 -5.25064,-1.581 -15.02108,1.85709 -15.78859,5.55578 -21.08072,4.57286 -12.9607,-2.40713 2.96837,-2.5516 7.48313,-11.39007 10.03329,-19.64111 2.54992,-8.25101 6.31236,-15.57202 8.36105,-16.26893 2.86857,-0.97595 2.71591,0.23008 -0.66506,5.24743 -2.41449,3.58303 -4.3972,8.41533 -4.40626,10.73848 0,2.32317 -1.82601,7.83102 -4.03809,12.23971 -2.21174,4.40876 -3.60227,8.45174 -3.08964,8.98447 0.51238,0.53271 6.51962,-1.97189 13.3491,-5.56585 l 12.4172,-6.53435 0.0503,5.84567 c 0.0293,3.21516 1.52461,11.697 3.32537,18.84864 l 3.27403,13.00284 8.45252,-4.26388 c 8.63852,-4.35767 16.82028,-19.89247 16.82028,-31.93705 0,-5.95413 3.10746,-5.04016 4.37989,1.28815 0.37352,1.85709 2.32404,8.82708 4.33467,15.48883 l 3.65578,12.11233 5.78719,-7.64753 c 3.18306,-4.20615 7.17347,-12.45654 8.86757,-18.33413 2.94094,-10.20344 7.55868,-14.59013 7.55868,-7.18061 0,5.33953 13.27594,24.48922 15.83701,22.84393 1.23783,-0.79512 3.70257,-7.98235 5.47728,-15.97172 3.69117,-16.61489 9.64595,-27.9148 13.4297,-25.48409 1.42272,0.914 1.97685,2.68783 1.23118,3.94187 -0.74571,1.25396 2.31206,12.05612 6.79492,24.00478 4.48287,11.94868 8.98436,23.97892 10.00353,26.73398 1.63736,4.42663 3.11733,3.78363 12.72656,-5.53053 5.98033,-5.79679 11.4084,-12.28592 12.06204,-14.42023 0.98805,-3.22657 2.32216,-3.10854 7.91435,0.70026 7.82048,5.32633 34.11349,13.90845 36.14411,11.7976 0.76058,-0.7905 1.54031,-8.36949 1.7329,-16.8422 l 0.3501,-15.40483 7.56107,1.72093 c 4.15856,0.94657 12.90268,0.88836 19.43134,-0.12966 l 11.87021,-1.85023 -10.57864,-7.96562 c -5.81859,-4.38106 -11.7016,-10.05059 -13.07352,-12.59888 -1.46152,-2.71479 -6.63979,-5.01998 -12.50574,-5.5671 -15.84923,-1.47822 -43.93929,-18.77015 -43.93929,-27.04858 0,-1.55413 3.89071,1.08842 8.64597,5.87236 10.54911,10.61272 25.20469,17.27405 38.00471,17.27405 h 9.57782 l -5.925,-8.64901 c -3.4036,-4.96831 -6.456,-14.39303 -7.17266,-22.14645 -1.14237,-12.3588 -2.33096,-14.32391 -14.08866,-23.29529 -7.06226,-5.38888 -15.81012,-13.46602 -19.43929,-17.94925 l -6.59864,-8.15129 -3.36657,9.67795 c -1.85184,5.3229 -4.11494,9.67798 -5.02902,9.67798 -0.91408,0 -4.4738,-3.11091 -7.91012,-6.91312 -3.43656,-3.80221 -6.93725,-6.89884 -7.77949,-6.88141 -0.84253,0.0168 -3.88667,5.13895 -6.76487,11.38105 l -5.23333,11.34927 -4.04392,-6.54182 c -2.22428,-3.59804 -7.4781,-9.96383 -11.67494,-14.14627 -4.19689,-4.18242 -6.4044,-7.60442 -4.90534,-7.60442 1.4988,0 6.67894,4.35697 11.51137,9.68217 l 8.78563,9.68212 3.5757,-7.09361 c 2.12184,-4.20953 2.91701,-10.67571 1.95582,-15.90394 -1.40116,-7.62065 -1.20429,-8.06355 1.45786,-3.27986 1.69302,3.04179 6.83271,8.87341 11.42198,12.95915 l 8.34429,7.42867 5.7582,-11.57653 c 5.73076,-11.52092 5.77098,-11.54333 8.37832,-4.66343 3.48685,9.20084 28.72107,31.90382 50.20455,45.16826 3.31124,2.04446 1.9151,-4.9859 -4.20009,-21.15236 -1.61958,-4.28144 -2.94468,-12.00006 -2.94468,-17.15249 0,-7.64391 -2.00908,-11.04602 -10.91629,-18.48538 -12.85902,-10.7402 -17.0176,-18.37786 -19.44084,-35.70512 -0.98166,-7.01883 -3.23204,-14.82522 -5.0011,-17.34755 -2.62411,-3.74201 -3.05774,-1.64786 -2.35568,11.37894 0.47325,8.78068 -0.56718,19.69798 -2.31235,24.26068 l -3.17266,8.29571 -2.45252,-6.91314 c -1.34878,-3.80221 -7.31475,-10.41445 -13.2581,-14.69384 -5.94311,-4.27941 -10.11443,-8.49938 -9.26925,-9.37769 0.84486,-0.87834 6.95904,3.02182 13.58666,8.66698 10.09684,8.59997 12.32084,9.53108 13.71935,5.74325 1.64303,-4.45077 -0.002,-23.81511 -3.17638,-37.34787 -1.58418,-6.75725 -1.44557,-6.7209 6.1493,1.61354 5.6015,6.14697 8.69888,13.4785 11.09846,26.26981 3.04841,16.25017 4.58635,18.95539 18.27648,32.14855 8.22138,7.92291 15.37599,13.96042 15.89922,13.41667 0.52305,-0.54381 1.56058,-21.03914 2.30544,-45.54523 1.42855,-46.994 -0.1863,-58.17525 -10.4975,-72.69413 l -5.29803,-7.46001 8.32861,-9.86006 c 10.86492,-12.86265 15.8535,-23.17304 18.01739,-37.23919 l 1.76027,-11.44279 -9.39906,9.7699 c -7.69624,7.99983 -11.37167,9.76987 -20.28579,9.76987 -8.82688,0 -12.27485,-1.62351 -18.22301,-8.58018 -7.13677,-8.3467 -19.78304,-16.37788 -31.944,-20.28641 -4.49248,-1.44382 -5.98568,-0.81489 -5.98568,2.52059 0,2.44441 -2.48153,9.50031 -5.51449,15.67973 l -5.51428,11.23538 -11.55368,-12.53395 c -7.08703,-7.68802 -15.49752,-13.67219 -21.75375,-15.47795 -15.98488,-4.61376 -16.85058,-4.15564 -16.85058,8.91566 0,19.82718 -7.71294,23.52119 -21.59411,10.34246 -10.58184,-10.04623 -19.35975,-12.23033 -39.42528,-9.80959 l -15.49754,1.86961 2.78853,7.67872 c 2.32908,6.41397 1.80418,9.11518 -3.18596,16.39981 -8.09396,11.81514 -18.61784,16.93333 -34.81798,16.93333 -7.46132,0 -16.79843,1.69463 -20.7495,3.76585 -3.95103,2.07121 -13.76779,4.45747 -21.81517,5.30273 -8.04741,0.84532 -16.62472,2.35402 -19.06047,3.35274 -3.81167,1.56274 -4.23014,0.27495 -3.00244,-9.24037 1.87923,-14.56188 -7.38868,-25.3029 -21.83193,-25.3029 -18.73966,0 -27.3832,18.3976 -20.04453,42.66496 1.41237,4.67064 3.26047,12.03649 4.10671,16.36859 0.87813,4.49438 9.31924,16.42094 19.65825,27.77519 9.96571,10.94429 19.38421,22.33219 20.93036,25.30642 1.54619,2.97428 6.65763,7.74731 11.35892,10.60679 l 8.54807,5.19906 -1.12743,-10.03824 c -1.23921,-11.03234 0.95104,-12.76315 6.29931,-4.97805 1.91169,2.78307 6.76833,7.28147 10.79201,9.9964 6.33839,4.2768 7.31578,4.36368 7.31578,0.65032 0,-2.35723 1.29212,-7.78892 2.87128,-12.07034 l 2.87154,-7.78441 4.98217,10.59142 c 2.74013,5.82534 11.65128,19.06466 19.80242,29.42082 15.81603,20.0946 25.45263,42.55005 20.47897,47.72009 -2.01729,2.09671 -7.47036,1.93443 -18.77237,-0.55864 -8.76116,-1.93256 -19.59786,-2.95412 -24.08176,-2.27006 -9.15678,1.39693 -9.87796,0.0995 -4.24637,-7.63955 5.94358,-8.16836 4.99814,-9.51558 -6.67843,-9.51558 -13.50921,0 -47.04807,-7.1077 -59.92203,-12.69889 -12.51826,-5.43691 -15.40656,-4.08314 -19.09132,8.94848 -1.65843,5.86493 -4.6949,16.4922 -6.7476,23.61614 l -3.7321,12.9526 13.54404,-1.43159 c 7.44937,-0.78738 17.03043,-2.57748 21.29141,-3.97805 4.26101,-1.40052 8.1336,-2.14483 8.60581,-1.65404 0.47221,0.49084 -1.42699,5.55207 -4.22029,11.24715 l -5.07878,10.3547 8.44431,-1.88933 c 4.64459,-1.03915 11.63213,-3.58178 15.52814,-5.65035 6.77922,-3.59941 7.3235,-3.33805 12.67071,6.08204 6.57544,11.58449 11.83565,11.10851 13.00271,-1.17662 1.20672,-12.7004 5.01306,-10.82181 12.17348,6.00811 6.8854,16.18339 14.04903,21.89722 15.42549,12.30346 0.45676,-3.18528 4.16601,-8.37037 8.24236,-11.52238 8.2456,-6.37564 14.45927,-4.46286 18.02192,5.54754 3.68767,10.3621 -4.53686,21.04275 -28.46063,36.95932 -47.92226,31.88319 -75.77926,75.48858 -83.73197,131.06819 -7.17294,50.13084 15.23021,101.93385 60.17374,139.14078 21.50768,17.80539 55.67464,36.59745 53.50356,29.42714 -9.22055,-30.45223 -8.91703,-88.55581 0.51422,-98.35889 1.41532,-1.47113 0.92849,4.5917 -1.08191,13.47311 -7.4882,33.08309 -4.23518,59.44361 14.96017,121.22693 17.36106,55.87868 14.95803,79.76125 -9.61354,95.54637 -7.89172,5.06981 -12.97264,5.90519 -34.1914,5.62258 -23.02353,-0.30692 -25.5322,0.2018 -32.92406,6.66619 -7.16605,6.26796 -16.45739,26.84638 -16.45739,36.45008 0,5.20227 5.26339,4.51371 15.60662,-2.04075 z M 461.8922,422.87474 c 0,-4.0569 -10.85482,-15.05157 -21.85407,-22.13566 -8.63797,-5.56353 -10.06496,-5.73259 -10.08435,-1.19499 -0.0293,6.88906 -5.61084,24.1959 -7.80265,24.1959 -1.23598,0 -3.06361,-3.38207 -4.06173,-7.51569 -0.99816,-4.13365 -5.18543,-12.2802 -9.30542,-18.1035 l -7.49086,-10.58775 -5.83272,9.80979 c -5.43738,9.14491 -14.85641,18.10143 -19.03653,18.10143 -0.99838,0 -1.19367,-4.81612 -0.43417,-10.70248 0.82524,-6.39551 0.18907,-11.46882 -1.58338,-12.60683 -1.63023,-1.04735 -2.96411,-0.68195 -2.96411,0.81199 0,3.44594 -13.08041,19.73206 -15.84817,19.73206 -1.14048,0 -2.73691,-4.66635 -3.54804,-10.36968 -0.81085,-5.70332 -2.18916,-14.72494 -3.06279,-20.04801 -0.87366,-5.32309 0.98908,-1.71329 4.13968,8.02175 l 5.72843,17.70008 6.28174,-10.78699 c 3.45493,-5.93283 6.28784,-12.41589 6.29531,-14.40673 0,-1.99088 1.1761,-2.87297 2.59698,-1.96027 1.42062,0.9127 3.39797,8.04425 4.39374,15.84786 l 1.81087,14.1884 6.91223,-8.31793 c 3.80182,-4.57487 8.25676,-10.6997 9.89975,-13.61075 2.93167,-5.19432 3.09768,-5.18996 8.92899,0.23822 3.26792,3.04175 8.29214,10.31744 11.16474,16.16816 2.87285,5.85065 5.60766,10.20591 6.0777,9.67833 0.46981,-0.5276 1.52251,-6.55891 2.33947,-13.40289 0.81673,-6.84397 1.54589,-12.6974 1.62011,-13.00763 0.4065,-1.69584 20.8216,12.86882 28.37496,20.24337 4.85477,4.74005 9.4656,7.95464 10.24588,7.14353 0.78053,-0.81125 1.41903,-7.80444 1.41903,-15.54056 0,-11.98827 -1.15779,-15.2014 -7.83862,-21.75578 -7.68158,-7.53609 -7.8965,-7.57748 -10.73479,-2.06493 -3.68372,7.15451 -8.02956,7.25783 -8.02956,0.19077 0,-5.15798 -14.51618,-24.98349 -18.29273,-24.98349 -0.97899,0 -4.03618,4.35529 -6.79412,9.67838 -2.75793,5.32307 -5.72363,9.67335 -6.59058,9.66731 -3.72364,-0.0259 -24.18794,-25.06788 -24.17888,-29.58707 0,-3.59533 1.37907,-2.67594 4.96674,3.32831 2.726,4.56265 8.17189,11.37401 12.1014,15.13638 7.95693,7.6183 10.8495,5.7659 13.92,-8.91461 0.87472,-4.18244 2.39506,-7.60441 3.37831,-7.60441 3.40171,0 21.21636,20.76644 23.72182,27.65243 l 2.51532,6.91312 1.90528,-7.60442 c 2.32963,-9.29894 4.90027,-9.6448 8.6199,-1.15956 1.55363,3.54468 9.22804,10.91425 17.05382,16.37681 l 14.22887,9.93195 2.85558,-9.98955 c 1.57061,-5.49423 3.65122,-8.65147 4.62356,-7.0161 1.45011,2.43867 -2.24849,18.99182 -5.03914,22.5534 -0.41819,0.53381 -5.02899,-2.41372 -10.24637,-6.55 l -9.48555,-7.52058 -0.0373,13.4631 c -0.0277,7.40472 -0.75819,16.26299 -1.64058,19.68494 -1.72521,6.6909 -6.3041,8.57313 -6.3041,2.59126 z M 390.94401,315.53385 c -16.91066,-15.4963 -19.47787,-19.04223 -19.10331,-26.38682 l 0.39852,-7.81715 1.10324,7.55023 c 0.64431,4.40874 5.14793,11.01556 10.82395,15.87892 l 9.72096,8.32877 5.97342,-7.58323 c 3.28571,-4.17075 6.01679,-9.13868 6.06945,-11.03977 0.13834,-4.95728 0.94866,-4.54091 12.39778,6.36222 10.17245,9.68739 10.33099,9.7337 11.84391,3.45661 0.84329,-3.49922 0.54401,-10.08714 -0.66509,-14.63977 -3.32376,-12.5141 -2.67253,-14.40271 2.36394,-6.85533 2.50919,3.76038 6.54403,9.07631 8.96623,11.81312 4.21632,4.76419 4.47357,4.70526 6.04233,-1.38264 0.90133,-3.49723 1.65498,-9.89837 1.67492,-14.22466 l 0.0374,-7.86609 9.17188,11.41111 c 8.56726,10.65896 9.35655,11.05273 11.97134,5.97391 1.53978,-2.99046 2.81777,-10.18535 2.84016,-15.98867 0.0293,-7.49678 0.74857,-9.38833 2.48575,-6.53379 2.90105,4.76677 0.88694,17.74562 -4.47009,28.80626 l -3.84414,7.93669 -5.0479,-8.62799 c -6.45439,-11.03234 -8.60313,-10.85527 -12.74465,1.05032 -3.91412,11.25115 -6.45921,12.10753 -10.27298,3.45658 -2.46799,-5.59859 -2.93778,-4.91256 -4.68959,6.84887 l -1.94709,13.07064 -11.6659,-9.93653 -11.66618,-9.93653 -5.24449,6.54422 c -2.88458,3.59933 -5.28442,8.09967 -5.33311,10.00079 -0.1063,4.12039 -2.91224,4.24909 -7.18945,0.32971 z M 541.3746,257.82004 c -6.15541,-6.08643 -10.39564,-11.89345 -9.42305,-12.90448 0.97262,-1.011 2.06788,-1.30062 2.43366,-0.64359 0.36578,0.65705 5.3972,6.46409 11.18094,12.90447 13.31714,14.82886 10.57945,15.24921 -4.19155,0.6436 z M 340.99969,235.08805 c -5.5994,-8.30946 -5.21262,-13.81469 1.60305,-22.82136 4.92528,-6.50842 7.17511,-7.39158 15.77531,-6.19254 5.51688,0.76916 17.3882,6.11906 26.38104,11.88866 10.38607,6.66352 21.12886,11.1274 29.44973,12.237 7.20462,0.96073 13.09955,1.32294 13.09955,0.80497 0,-0.518 -2.99282,-5.8698 -6.6507,-11.89289 -8.68669,-14.30313 -8.38925,-15.83823 1.40833,-7.26895 10.05725,8.79646 22.08707,11.36908 48.96993,10.47231 l 13.13386,-0.43813 -7.61935,-8.2669 c -10.6561,-11.56128 -7.37647,-12.5978 4.39132,-1.38793 11.03679,10.51349 10.34563,11.2538 -12.88433,13.79861 -9.87105,1.08136 -20.4864,0.29698 -29.30954,-2.16575 -13.20091,-3.68475 -13.71328,-3.62863 -11.21262,1.22826 1.44137,2.79922 3.77552,5.08945 5.18708,5.08945 1.41181,0 2.5669,1.41848 2.5669,3.15211 0,5.33129 -28.51249,0.64319 -42.13745,-6.9284 -31.12648,-17.29738 -35.04352,-18.7952 -42.45217,-16.23282 -4.12264,1.42584 -8.24904,5.59942 -9.67098,9.78166 -4.74382,13.95125 13.28339,24.79535 20.71893,12.46326 2.15508,-3.57456 1.65176,-6.01946 -2.13597,-10.36966 -5.18703,-5.95801 -4.70043,-6.80692 2.30195,-4.01388 4.97156,1.98301 5.64036,15.08316 1.01569,19.89042 -5.29159,5.50023 -17.36719,3.94321 -21.92956,-2.8275 z m 122.61746,-34.4615 c -3.89228,-4.04595 -0.84092,-5.03696 16.60926,-5.39408 21.58832,-0.44178 34.69901,-4.39026 50.16835,-15.1087 12.39483,-8.58823 15.75532,-6.89823 3.99045,2.00668 -10.73271,8.1235 -27.47231,14.3685 -43.63279,16.27783 -7.82578,0.92461 -16.74445,2.20544 -19.81949,2.84627 -3.07474,0.64084 -6.36689,0.35824 -7.31578,-0.628 z m 185.43018,705.74903 9.65793,-6.81248 6.55417,6.81248 c 8.58663,8.92535 18.64572,8.72575 26.90143,-0.53372 3.60254,-4.04055 6.83773,-6.84035 7.18889,-6.22177 0.35116,0.61858 1.95772,3.61335 3.56985,6.65512 2.04074,3.85033 6.23654,5.78627 13.81012,6.37274 9.12506,0.70656 11.57548,-0.26258 15.20119,-6.01463 l 4.32218,-6.85699 9.50711,6.706 c 26.02834,18.36007 39.89587,-0.90233 28.264,-39.2593 -5.91462,-19.50325 -2.66241,-30.46747 16.40046,-55.29079 8.0386,-10.46754 14.62257,-21.64025 14.63055,-24.82773 0,-5.08225 -1.4871,-5.76308 -12.18548,-5.5305 -10.23786,0.22409 -13.23309,-0.98278 -18.62206,-7.49353 -8.76513,-10.58976 -8.24422,-22.7176 1.55364,-36.17549 l 7.82737,-10.75128 -13.88702,-10.34367 c -7.63796,-5.68921 -21.41163,-19.14907 -30.60827,-29.91111 -20.65425,-24.16987 -40.96375,-35.63152 -67.74359,-38.23088 l -17.95645,-1.74296 0.0277,14.91742 c 0.0346,19.20409 8.24586,37.67809 30.66094,68.97045 25.48562,35.57903 27.2651,41.0871 28.29702,87.59105 l 0.87255,39.32978 -7.37459,7.67939 c -6.66375,6.93881 -9.66856,7.82426 -31.17064,9.18531 -20.47125,1.29579 -24.77186,2.45499 -30.77881,8.29572 -7.97848,7.75763 -10.36423,11.9771 -12.82766,22.68968 -1.43576,6.2431 -0.85394,7.60444 3.25115,7.60444 2.74996,0 9.34615,-3.06583 14.65796,-6.81275 z M 101.27154,804.7285 c 2.27747,-3.38023 4.14127,-8.83854 4.14127,-12.12973 0,-4.97246 2.02451,-6.29923 11.9801,-7.85108 l 11.98011,-1.86737 -7.98967,-6.98836 c -9.49217,-8.30206 -10.37035,-14.78795 -2.00399,-14.80233 8.33257,0 22.44436,-9.49695 24.58989,-16.52319 0.99709,-3.26574 0.37007,-7.62901 -1.41847,-9.86914 -4.67122,-5.85043 -13.45362,-4.96831 -15.08491,1.51533 -1.75341,6.96982 -4.68907,6.98808 -11.34433,0.069 -10.01146,-10.40671 -10.23626,-31.94766 -0.46416,-44.49192 4.60546,-5.91181 4.56449,-6.29949 -1.30704,-12.40268 -6.31632,-6.56551 -10.82713,-19.56022 -7.86011,-22.64429 0.94414,-0.98141 5.93435,-0.1994 11.08942,1.73879 7.32515,2.75335 10.2169,2.7951 13.23472,0.19078 9.14128,-7.88591 -0.76246,-18.02608 -15.42199,-15.78955 -5.89974,0.90012 -8.33712,0 -9.18437,-3.35894 -0.6409,-2.5476 -5.80132,-5.87395 -11.61539,-7.48686 -10.388968,-2.88254 -10.462248,-2.8474 -10.462248,5.00864 0,8.60877 -4.47735,10.23281 -12.98516,4.71005 -6.91311,-4.48773 -13.61779,-1.00378 -13.61779,7.07626 0,7.53889 6.90753,11.25674 19.28717,10.38128 9.49528,-0.67169 9.84856,7.07818 0.83054,18.21825 l -6.48523,8.0112 5.13757,8.10103 c 7.60892,11.99787 6.96844,31.92449 -1.34426,41.82101 l -6.51683,7.75874 -4.27516,-6.22179 c -5.94123,-8.64635 -14.06779,-8.06679 -16.29624,1.16222 -1.45922,6.04343 -0.25289,8.80512 6.642,15.20885 4.63373,4.30355 11.39893,7.8248 15.0338,7.8248 8.995,0 8.64329,7.76398 -0.70707,15.60737 l -7.31583,6.1366 11.30626,1.92487 c 6.21844,1.05883 11.30623,3.05063 11.30623,4.42577 0,5.27416 7.83574,21.67979 10.354508,21.67979 1.4549,0 4.50891,-2.76552 6.78666,-6.14572 z m 147.21748,-70.02926 c 10.27219,-4.44401 32.5032,-25.1062 32.5032,-30.20947 0,-1.60548 -6.13625,-9.01248 -13.63589,-16.46042 -15.78271,-15.67312 -32.95037,-42.06847 -37.39867,-57.50127 -2.31925,-8.0469 -13.5268,-21.82197 -45.09545,-55.42659 l -42.00922,-44.71843 -12.10752,3.36587 c -6.65925,1.85132 -14.78406,3.41091 -18.05513,3.46567 -5.63745,0.0939 -5.53531,0.44933 1.95953,6.8155 l 7.90722,6.71624 11.08544,-6.75274 c 10.74521,-6.54561 11.12773,-6.586 12.45282,-1.31822 0.77601,3.08381 -0.89784,8.42823 -3.86859,12.3543 -2.88005,3.80554 -4.52064,8.12262 -3.64622,9.59349 0.87445,1.47053 -1.89225,4.54575 -6.14819,6.83345 -7.88828,4.24023 -13.36343,18.19809 -7.13837,18.19809 5.60049,0 17.95008,-16.72396 16.52708,-22.38053 -0.72892,-2.89658 -0.37643,-5.87586 0.78319,-6.62084 4.80981,-3.08985 4.50919,10.04035 -0.37749,16.49829 -2.88005,3.80554 -4.52064,8.12263 -3.64622,9.59347 0.87445,1.47055 -1.89225,4.5458 -6.14819,6.83348 -7.83719,4.21256 -13.36745,18.19804 -7.19634,18.19804 6.04817,0 18.19509,-15.98114 16.69093,-21.95932 -0.78691,-3.12833 -0.48231,-6.29703 0.67731,-7.04199 3.23943,-2.08113 4.987,8.28438 2.25247,13.36304 -1.46475,2.72073 -1.45144,6.43445 0.0346,9.37973 2.69035,5.33553 -0.0374,15.58243 -4.99552,18.76773 -2.12527,1.3652 -0.68606,4.04413 4.46903,8.31702 7.45947,6.18336 7.6042,6.83264 7.6042,34.1162 0,22.80052 0.83878,28.68525 4.6555,32.65417 4.28309,4.4543 4.65553,4.47033 4.65553,0.19941 0,-4.66521 7.46132,-10.36798 13.56485,-10.36798 1.80046,0 13.04926,10.46289 24.99692,23.25074 12.02025,12.86558 24.5984,23.81343 28.15972,24.51058 3.54008,0.69297 7.37275,1.42935 8.51722,1.63645 1.14419,0.20731 6.53128,-1.5488 11.97132,-3.90232 z M 120.04444,624.37513 c 0,-7.35032 -13.81411,-15.19615 -30.336658,-17.23026 -13.33992,-1.6423 -13.55827,-1.54938 -13.55827,5.76444 0,6.05422 2.09774,8.43592 11.30626,12.83624 14.796598,7.07049 32.588668,6.32249 32.588668,-1.37042 z m 15.1509,-0.67226 c 6.73827,-6.71041 9.93087,-14.69147 5.87687,-14.69147 -4.66243,0 -17.03734,12.18783 -17.03734,16.77981 0,7.16722 2.2985,6.73697 11.16047,-2.08834 z m -14.37251,-21.72763 c 0.57089,-4.14704 -1.76616,-6.91477 -8.77177,-10.3871 -15.11182,-7.49075 -33.179148,-10.96003 -37.530058,-7.2065 -8.01436,6.91367 -2.67432,16.19631 10.27784,17.86624 5.21461,0.6722 12.285408,2.41765 15.712638,3.87881 9.95481,4.24356 19.42173,2.30872 20.31135,-4.15145 z m 0,-22.21183 c 0.81352,-5.91596 -2.6329,-8.03304 -30.771888,-18.90319 -21.00682,-8.11491 -30.30562,-4.28838 -23.59217,9.70874 2.33864,4.87597 6.26398,7.1034 15.06693,8.55015 6.54742,1.07623 15.495788,3.1803 19.885268,4.67601 11.72682,3.99553 18.50149,2.58858 19.41186,-4.03171 z m 14.10461,-20.819 c 4.2456,-4.72328 7.71886,-10.29773 7.71886,-12.38716 0,-6.77816 -16.76676,5.21333 -18.90407,13.51985 -2.56345,9.96345 1.59219,9.54285 11.18604,-1.13269 z m -14.09265,-1.39889 c 0.92554,-6.73893 -9.28548,-12.82465 -29.365628,-17.50236 -14.73243,-3.43192 -21.23044,-1.48551 -20.12716,6.0285 0.60223,4.1017 5.50868,7.09841 19.42777,11.86624 22.275168,7.62958 28.975388,7.5422 30.065018,-0.39238 z m 19.63591,-31.36925 c 25.73062,-12.57186 27.95649,-44.27382 3.69302,-52.59731 -10.07427,-3.45603 -16.50523,-1.59386 -20.36163,5.89571 -2.95266,5.73486 -0.9779,16.16165 3.06093,16.16165 1.36447,0 2.48099,1.93007 2.48099,4.289 0,11.00784 -39.286128,15.99552 -55.397428,7.03279 -5.66007,-3.14876 -8.12437,-11.32179 -3.41361,-11.32179 3.52004,0 5.95386,-8.32811 4.1552,-14.21871 -2.45047,-8.0253 -9.81993,-10.80571 -20.50927,-7.7378 -24.11856,6.92216 -23.44151,38.02763 1.11505,51.22723 20.13597,10.82344 64.276458,11.48131 85.176748,1.26923 z m -16.00913,-24.35868 c 1.49004,-1.5489 0.84253,-3.92906 -1.65546,-6.08398 -5.47035,-4.71899 -5.17857,-11.73771 0.82176,-19.77238 4.50599,-6.03373 5.0689,-15.06306 6.61984,-106.14351 2.67228,-156.96104 13.30707,-275.02513 27.32443,-303.34828 5.58048,-11.27609 4.79782,-11.32099 -9.62255,-0.55239 -18.57551,13.87216 -32.71923,31.93613 -45.25051,57.7939 -23.659538,48.81925 -31.880798,114.49933 -31.880798,254.69658 0,79.6076 0.49412,90.02301 4.62545,97.50551 3.92451,7.10787 4.13309,9.73302 1.37637,17.3245 -1.78693,4.92095 -2.5978,9.62412 -1.80189,10.45143 5.28205,5.4905 43.762858,4.03401 49.443908,-1.87138 z M 340.65861,352.14415 c 0.80608,-1.35557 -0.97497,-8.19954 -3.95772,-15.20884 -4.65018,-10.92885 -6.5233,-12.74414 -13.14824,-12.74414 -20.75323,0 -54.11594,-10.17909 -88.51033,-27.00477 -19.86152,-9.7163 -26.72135,-11.94919 -29.10366,-9.47316 -6.07689,6.31673 4.02292,21.30994 19.66383,29.19124 13.87556,6.99159 52.66529,15.58245 70.35919,15.58245 10.26502,0 10.50763,0.50841 4.66614,9.77562 l -4.29663,6.81586 11.61246,0.32715 c 6.38658,0.17999 15.20358,1.27709 19.59307,2.43809 11.40042,3.0154 11.5071,3.01782 13.1227,0.3005 z"
     id="path4200" />
</svg>
