<?xml version="1.0" encoding="UTF-8" standalone="no"?>
<svg
   xmlns:dc="http://purl.org/dc/elements/1.1/"
   xmlns:cc="http://creativecommons.org/ns#"
   xmlns:rdf="http://www.w3.org/1999/02/22-rdf-syntax-ns#"
   xmlns:svg="http://www.w3.org/2000/svg"
   xmlns="http://www.w3.org/2000/svg"
   xmlns:sodipodi="http://sodipodi.sourceforge.net/DTD/sodipodi-0.dtd"
   xmlns:inkscape="http://www.inkscape.org/namespaces/inkscape"
   inkscape:version="1.0 (4035a4fb49, 2020-05-01)"
   sodipodi:docname="Lesotho_hat.svg"
   id="svg10"
   version="1.1"
   width="194.53125"
   viewBox="0 0 97.265625 109.87396"
   height="219.74792">
  <metadata
     id="metadata16">
    <rdf:RDF>
      <cc:Work
         rdf:about="">
        <dc:format>image/svg+xml</dc:format>
        <dc:type
           rdf:resource="http://purl.org/dc/dcmitype/StillImage" />
        <dc:title></dc:title>
      </cc:Work>
    </rdf:RDF>
  </metadata>
  <defs
     id="defs14" />
  <sodipodi:namedview
     inkscape:current-layer="svg10"
     inkscape:window-maximized="1"
     inkscape:window-y="-9"
     inkscape:window-x="-9"
     inkscape:cy="109.88281"
     inkscape:cx="96.77734"
     inkscape:zoom="1.2533333"
     showgrid="false"
     id="namedview12"
     inkscape:window-height="1001"
     inkscape:window-width="1920"
     inkscape:pageshadow="2"
     inkscape:pageopacity="0"
     guidetolerance="10"
     gridtolerance="10"
     objecttolerance="10"
     borderopacity="1"
     bordercolor="#666666"
     pagecolor="#ffffff" />
  <path
     style="stroke-width:0.5"
     id="path8"
     d="m 48.61523,0 -0.47656,0.00975 c -1.03589,0.0223 -1.950145,0.57203 -2.623045,1.08203 -0.67289,0.51 -1.121095,1.01953 -1.121095,1.01953 l -0.103515,0.118165 c -3.52631,0.620005 -6.743395,2.14292 -9.30664,4.631835 -3.39349,3.2951 -5.55595,8.149405 -6.23633,14.332035 -0.69757,6.33895 1.03956,13.40664 2.85547,19.02539 1.81592,5.61876 3.802735,9.804685 3.802735,9.804685 L 35.758785,50.766585 12.88281,81.570295 8.2832,79.98045 0,97.64842 0.375,97.88475 c 0,0 19.67382,12.31915 48.19531,11.98242 31.27133,-0.37186 48.34961,-12.56445 48.34961,-12.56445 l 0.345705,-0.246095 -8.56641,-17.453125 -4.07617,1.773435 -23.74121,-31.40234 0.18457,0.07227 c 0,0 2.084145,-4.28093 3.947265,-10.01172 1.86312,-5.73079 3.613295,-12.93349 2.697265,-19.38086 C 66.845235,14.561165 64.928445,9.78044 61.523435,6.53124 59.03309,4.15486 55.836515,2.75219 52.111325,2.192365 V 2.093735 L 51.9707,1.9492 c 0,0 -0.471055,-0.490235 -1.166015,-0.9707 -0.57977,-0.40082 -1.3483,-0.75377 -2.18164,-0.86914 z m 3.485355,7.239255 c 2.51585,0.471795 4.436655,1.4444 5.97168,2.90918 2.30174,2.1964 3.9152,5.773205 4.6875,11.208985 0.70707,4.97662 -0.750695,11.746105 -2.501955,17.132815 -1.074985,3.306555 -2.02003,5.601115 -2.683595,7.109375 l -3.5957,-4.75586 -0.041,-11.2793 h 5.93164 l -7.80078,-7.32617 z m -7.793945,0.07422 0.109375,15.161135 -7.05469,7.390625 h 5.83789 l -0.041,10.9375 -3.94238,5.30859 c -0.509905,-1.10558 -1.53193,-3.33743 -2.854495,-7.429685 -1.71177,-5.29649 -3.19146,-11.971355 -2.64453,-16.941405 0.58682,-5.33237 2.34873,-8.959365 4.75,-11.29102 1.616405,-1.569535 3.562815,-2.60946 5.839845,-3.13574 z m 40.6416,78.467775 1.268555,1.844725 -3.57324,5.30176 -3.68848,-4.72559 z m -73.76953,1.730465 1.498045,4.610355 -4.37988,0.921875 c 0,0 2.536035,-5.071165 2.881835,-5.53223 z m 4.61035,0.10938 6.4541,1.95996 1.499025,3.22754 -5.648435,1.61328 z m 59.015625,2.075195 1.84375,1.95996 -5.41699,4.264645 -3.342775,-4.14941 z m 12.564455,0.69531 2.18945,4.379885 -4.37988,1.498045 -0.345705,-2.07422 z m -59.71094,0.689455 6.45508,1.38379 1.844725,2.76562 -5.648435,2.19043 z m 35.04297,1.1582 1.728515,2.536135 -6.455075,3.111325 -2.76563,-4.725585 z m -22.942385,0.692385 10.48926,0.460935 0.921875,2.189455 -8.183595,2.99707 z m 38.04004,1.029295 3.342775,4.496095 -7.146485,1.84375 -1.38379,-2.41992 z m -64.089845,0.12012 0.92188,3.688475 -5.53223,-2.189455 z m 10.95215,1.041015 2.996095,6.33985 -7.49219,-1.843755 -0.80664,-2.766605 z m 41.14746,1.609375 3.918945,4.610355 -8.64453,1.38379 -1.72949,-2.766605 z m -13.25195,0.92285 3.80371,5.648445 -10.14258,0.3457 -1.72949,-2.99707 z m -15.21387,0.002 3.68848,5.763675 -8.760745,-1.26758 -0.921875,-2.4209 z" />
</svg>
