<svg xmlns="http://www.w3.org/2000/svg" viewBox="0 0 602 602" width="602" height="602">
  <path fill="#ffffff" d="M602.00,301.00 L399.87,314.02 L509.66,356.91 L393.13,339.16 L488.08,409.01 L380.11,361.71 L453.75,453.75 L361.71,380.11 L409.01,488.08 L339.16,393.13 L356.91,509.66 L314.02,399.87 L301.00,602.00 L287.98,399.87 L245.09,509.66 L262.84,393.13 L192.99,488.08 L240.29,380.11 L148.25,453.75 L221.89,361.71 L113.92,409.01 L208.87,339.16 L92.34,356.91 L202.13,314.02 L0.00,301.00 L202.13,287.98 L92.34,245.09 L208.87,262.84 L113.92,192.99 L221.89,240.29 L148.25,148.25 L240.29,221.89 L192.99,113.92 L262.84,208.87 L245.09,92.34 L287.98,202.13 L301.00,0.00 L314.02,202.13 L356.91,92.34 L339.16,208.87 L409.01,113.92 L361.71,221.89 L453.75,148.25 L380.11,240.29 L488.08,192.99 L393.13,262.84 L509.66,245.09 L399.87,287.98 Z"/>
</svg>
