<svg xmlns="http://www.w3.org/2000/svg" viewBox="-225 -114 450 300" width="900" height="600">
  <g fill="#ce1126">
    <path d="M -60.8112,-21.5 A 64.5,64.5 0 0 1 60.8112,-21.5 Z"/>
    <path d="M -98.524,-26.400 L -98.550,-26.295 L -98.569,-26.192 L -98.583,-26.089 L -98.591,-25.987 L -98.594,-25.886 L -98.591,-25.785 L -98.584,-25.686 L -98.571,-25.587 L -98.553,-25.489 L -98.530,-25.392 L -98.502,-25.296 L -98.469,-25.200 L -98.431,-25.106 L -98.389,-25.012 L -98.343,-24.919 L -98.292,-24.827 L -98.236,-24.736 L -98.177,-24.646 L -98.113,-24.557 L -98.045,-24.469 L -97.973,-24.382 L -97.897,-24.295 L -97.817,-24.210 L -97.734,-24.125 L -97.647,-24.042 L -97.557,-23.960 L -97.463,-23.878 L -97.365,-23.798 L -97.265,-23.718 L -97.161,-23.640 L -97.054,-23.563 L -96.944,-23.487 L -96.831,-23.411 L -96.716,-23.337 L -96.598,-23.264 L -96.477,-23.192 L -96.353,-23.121 L -96.227,-23.052 L -96.099,-22.983 L -95.969,-22.916 L -95.836,-22.849 L -95.701,-22.784 L -95.564,-22.720 L -95.426,-22.657 L -95.285,-22.596 L -95.143,-22.535 L -94.999,-22.476 L -94.854,-22.418 L -94.707,-22.361 L -94.559,-22.305 L -94.409,-22.251 L -94.259,-22.198 L -94.107,-22.146 L -93.954,-22.096 L -93.801,-22.046 L -93.646,-21.998 L -93.491,-21.952 L -93.335,-21.906 L -93.179,-21.862 L -93.022,-21.819 L -92.647,-21.720 L -92.277,-21.623 L -91.911,-21.529 L -91.795,-21.500 L -75.657,-21.500 L -76.004,-21.663 L -76.401,-21.848 L -76.790,-22.029 L -77.172,-22.207 L -77.548,-22.381 L -77.918,-22.552 L -78.282,-22.720 L -78.640,-22.884 L -78.993,-23.045 L -79.341,-23.202 L -79.685,-23.357 L -80.024,-23.509 L -80.359,-23.658 L -80.690,-23.804 L -81.018,-23.948 L -81.342,-24.089 L -81.664,-24.227 L -81.983,-24.363 L -82.300,-24.496 L -82.615,-24.627 L -82.928,-24.757 L -83.240,-24.883 L -83.551,-25.008 L -83.861,-25.131 L -84.170,-25.252 L -84.480,-25.372 L -84.789,-25.489 L -85.099,-25.605 L -85.410,-25.720 L -85.722,-25.833 L -86.035,-25.944 L -86.349,-26.055 L -86.666,-26.164 L -86.985,-26.272 L -87.306,-26.379 L -87.631,-26.485 L -87.958,-26.591 L -88.289,-26.695 L -88.623,-26.799 L -88.962,-26.902 L -89.305,-27.005 L -89.652,-27.107 L -90.004,-27.209 L -90.362,-27.311 L -90.725,-27.412 L -91.094,-27.514 L -91.469,-27.615 L -91.627,-27.656 L -91.784,-27.696 L -91.942,-27.735 L -92.099,-27.772 L -92.257,-27.808 L -92.415,-27.842 L -92.572,-27.874 L -92.730,-27.905 L -92.887,-27.935 L -93.043,-27.962 L -93.199,-27.988 L -93.355,-28.013 L -93.510,-28.035 L -93.664,-28.056 L -93.817,-28.074 L -93.970,-28.091 L -94.121,-28.106 L -94.272,-28.119 L -94.421,-28.130 L -94.569,-28.139 L -94.716,-28.146 L -94.861,-28.150 L -95.005,-28.153 L -95.147,-28.153 L -95.288,-28.151 L -95.427,-28.147 L -95.564,-28.141 L -95.699,-28.132 L -95.833,-28.121 L -95.964,-28.108 L -96.093,-28.092 L -96.220,-28.073 L -96.344,-28.052 L -96.466,-28.029 L -96.586,-28.002 L -96.703,-27.974 L -96.817,-27.942 L -96.929,-27.908 L -97.038,-27.871 L -97.144,-27.832 L -97.247,-27.789 L -97.347,-27.744 L -97.443,-27.696 L -97.537,-27.645 L -97.627,-27.591 L -97.714,-27.534 L -97.797,-27.474 L -97.877,-27.410 L -97.953,-27.344 L -98.025,-27.275 L -98.094,-27.202 L -98.158,-27.126 L -98.219,-27.047 L -98.275,-26.965 L -98.328,-26.879 L -98.376,-26.790 L -98.420,-26.698 L -98.459,-26.602 L -98.494,-26.502 Z"/>
    <path transform="rotate(-70) translate(0,-102)" d="m0 0c-2.16666 0-3 3.25-3 6.5 0 7.833332.95963 11.928508 3 23.5 2.04036-11.571492 3-15.666668 3-23.5 0-3.25-.83333-6.5-3-6.5z"/>
    <path transform="rotate(-65) translate(0,-102)" d="m0 0c-2.16666 0-3 3.25-3 6.5 0 7.833332.95963 11.928508 3 23.5 2.04036-11.571492 3-15.666668 3-23.5 0-3.25-.83333-6.5-3-6.5z"/>
    <path transform="rotate(-60) translate(0,-102)" d="m0 0c-2.16666 0-3 3.25-3 6.5 0 7.833332.95963 11.928508 3 23.5 2.04036-11.571492 3-15.666668 3-23.5 0-3.25-.83333-6.5-3-6.5z"/>
    <path transform="rotate(-55) translate(0,-102)" d="m0 0c-2.16666 0-3 3.25-3 6.5 0 7.833332.95963 11.928508 3 23.5 2.04036-11.571492 3-15.666668 3-23.5 0-3.25-.83333-6.5-3-6.5z"/>
    <path transform="rotate(-50) translate(0,-102)" d="m0 0c-2.16666 0-3 3.25-3 6.5 0 7.833332.95963 11.928508 3 23.5 2.04036-11.571492 3-15.666668 3-23.5 0-3.25-.83333-6.5-3-6.5z"/>
    <path transform="rotate(-45) translate(0,-102)" d="m0 0c-2.16666 0-3 3.25-3 6.5 0 7.833332.95963 11.928508 3 23.5 2.04036-11.571492 3-15.666668 3-23.5 0-3.25-.83333-6.5-3-6.5z"/>
    <path transform="rotate(-40) translate(0,-102)" d="m0 0c-2.16666 0-3 3.25-3 6.5 0 7.833332.95963 11.928508 3 23.5 2.04036-11.571492 3-15.666668 3-23.5 0-3.25-.83333-6.5-3-6.5z"/>
    <path transform="rotate(-35) translate(0,-102)" d="m0 0c-2.16666 0-3 3.25-3 6.5 0 7.833332.95963 11.928508 3 23.5 2.04036-11.571492 3-15.666668 3-23.5 0-3.25-.83333-6.5-3-6.5z"/>
    <path transform="rotate(-30) translate(0,-102)" d="m0 0c-2.16666 0-3 3.25-3 6.5 0 7.833332.95963 11.928508 3 23.5 2.04036-11.571492 3-15.666668 3-23.5 0-3.25-.83333-6.5-3-6.5z"/>
    <path transform="rotate(-25) translate(0,-102)" d="m0 0c-2.16666 0-3 3.25-3 6.5 0 7.833332.95963 11.928508 3 23.5 2.04036-11.571492 3-15.666668 3-23.5 0-3.25-.83333-6.5-3-6.5z"/>
    <path transform="rotate(-20) translate(0,-102)" d="m0 0c-2.16666 0-3 3.25-3 6.5 0 7.833332.95963 11.928508 3 23.5 2.04036-11.571492 3-15.666668 3-23.5 0-3.25-.83333-6.5-3-6.5z"/>
    <path transform="rotate(-15) translate(0,-102)" d="m0 0c-2.16666 0-3 3.25-3 6.5 0 7.833332.95963 11.928508 3 23.5 2.04036-11.571492 3-15.666668 3-23.5 0-3.25-.83333-6.5-3-6.5z"/>
    <path transform="rotate(-10) translate(0,-102)" d="m0 0c-2.16666 0-3 3.25-3 6.5 0 7.833332.95963 11.928508 3 23.5 2.04036-11.571492 3-15.666668 3-23.5 0-3.25-.83333-6.5-3-6.5z"/>
    <path transform="rotate(-5) translate(0,-102)" d="m0 0c-2.16666 0-3 3.25-3 6.5 0 7.833332.95963 11.928508 3 23.5 2.04036-11.571492 3-15.666668 3-23.5 0-3.25-.83333-6.5-3-6.5z"/>
    <path transform="rotate(0) translate(0,-102)" d="m0 0c-2.16666 0-3 3.25-3 6.5 0 7.833332.95963 11.928508 3 23.5 2.04036-11.571492 3-15.666668 3-23.5 0-3.25-.83333-6.5-3-6.5z"/>
    <path transform="rotate(5) translate(0,-102)" d="m0 0c-2.16666 0-3 3.25-3 6.5 0 7.833332.95963 11.928508 3 23.5 2.04036-11.571492 3-15.666668 3-23.5 0-3.25-.83333-6.5-3-6.5z"/>
    <path transform="rotate(10) translate(0,-102)" d="m0 0c-2.16666 0-3 3.25-3 6.5 0 7.833332.95963 11.928508 3 23.5 2.04036-11.571492 3-15.666668 3-23.5 0-3.25-.83333-6.5-3-6.5z"/>
    <path transform="rotate(15) translate(0,-102)" d="m0 0c-2.16666 0-3 3.25-3 6.5 0 7.833332.95963 11.928508 3 23.5 2.04036-11.571492 3-15.666668 3-23.5 0-3.25-.83333-6.5-3-6.5z"/>
    <path transform="rotate(20) translate(0,-102)" d="m0 0c-2.16666 0-3 3.25-3 6.5 0 7.833332.95963 11.928508 3 23.5 2.04036-11.571492 3-15.666668 3-23.5 0-3.25-.83333-6.5-3-6.5z"/>
    <path transform="rotate(25) translate(0,-102)" d="m0 0c-2.16666 0-3 3.25-3 6.5 0 7.833332.95963 11.928508 3 23.5 2.04036-11.571492 3-15.666668 3-23.5 0-3.25-.83333-6.5-3-6.5z"/>
    <path transform="rotate(30) translate(0,-102)" d="m0 0c-2.16666 0-3 3.25-3 6.5 0 7.833332.95963 11.928508 3 23.5 2.04036-11.571492 3-15.666668 3-23.5 0-3.25-.83333-6.5-3-6.5z"/>
    <path transform="rotate(35) translate(0,-102)" d="m0 0c-2.16666 0-3 3.25-3 6.5 0 7.833332.95963 11.928508 3 23.5 2.04036-11.571492 3-15.666668 3-23.5 0-3.25-.83333-6.5-3-6.5z"/>
    <path transform="rotate(40) translate(0,-102)" d="m0 0c-2.16666 0-3 3.25-3 6.5 0 7.833332.95963 11.928508 3 23.5 2.04036-11.571492 3-15.666668 3-23.5 0-3.25-.83333-6.5-3-6.5z"/>
    <path transform="rotate(45) translate(0,-102)" d="m0 0c-2.16666 0-3 3.25-3 6.5 0 7.833332.95963 11.928508 3 23.5 2.04036-11.571492 3-15.666668 3-23.5 0-3.25-.83333-6.5-3-6.5z"/>
    <path transform="rotate(50) translate(0,-102)" d="m0 0c-2.16666 0-3 3.25-3 6.5 0 7.833332.95963 11.928508 3 23.5 2.04036-11.571492 3-15.666668 3-23.5 0-3.25-.83333-6.5-3-6.5z"/>
    <path transform="rotate(55) translate(0,-102)" d="m0 0c-2.16666 0-3 3.25-3 6.5 0 7.833332.95963 11.928508 3 23.5 2.04036-11.571492 3-15.666668 3-23.5 0-3.25-.83333-6.5-3-6.5z"/>
    <path transform="rotate(60) translate(0,-102)" d="m0 0c-2.16666 0-3 3.25-3 6.5 0 7.833332.95963 11.928508 3 23.5 2.04036-11.571492 3-15.666668 3-23.5 0-3.25-.83333-6.5-3-6.5z"/>
    <path transform="rotate(65) translate(0,-102)" d="m0 0c-2.16666 0-3 3.25-3 6.5 0 7.833332.95963 11.928508 3 23.5 2.04036-11.571492 3-15.666668 3-23.5 0-3.25-.83333-6.5-3-6.5z"/>
    <path transform="rotate(70) translate(0,-102)" d="m0 0c-2.16666 0-3 3.25-3 6.5 0 7.833332.95963 11.928508 3 23.5 2.04036-11.571492 3-15.666668 3-23.5 0-3.25-.83333-6.5-3-6.5z"/>
    <path d="M 98.524,-26.400 L 98.494,-26.502 L 98.459,-26.602 L 98.420,-26.698 L 98.376,-26.790 L 98.328,-26.879 L 98.275,-26.965 L 98.219,-27.047 L 98.158,-27.126 L 98.094,-27.202 L 98.025,-27.275 L 97.953,-27.344 L 97.877,-27.410 L 97.797,-27.474 L 97.714,-27.534 L 97.627,-27.591 L 97.537,-27.645 L 97.443,-27.696 L 97.347,-27.744 L 97.247,-27.789 L 97.144,-27.832 L 97.038,-27.871 L 96.929,-27.908 L 96.817,-27.942 L 96.703,-27.974 L 96.586,-28.002 L 96.466,-28.029 L 96.344,-28.052 L 96.220,-28.073 L 96.093,-28.092 L 95.964,-28.108 L 95.833,-28.121 L 95.699,-28.132 L 95.564,-28.141 L 95.427,-28.147 L 95.288,-28.151 L 95.147,-28.153 L 95.005,-28.153 L 94.861,-28.150 L 94.716,-28.146 L 94.569,-28.139 L 94.421,-28.130 L 94.272,-28.119 L 94.121,-28.106 L 93.970,-28.091 L 93.817,-28.074 L 93.664,-28.056 L 93.510,-28.035 L 93.355,-28.013 L 93.199,-27.988 L 93.043,-27.962 L 92.887,-27.935 L 92.730,-27.905 L 92.572,-27.874 L 92.415,-27.842 L 92.257,-27.808 L 92.099,-27.772 L 91.942,-27.735 L 91.784,-27.696 L 91.627,-27.656 L 91.469,-27.615 L 91.094,-27.514 L 90.725,-27.412 L 90.362,-27.311 L 90.004,-27.209 L 89.652,-27.107 L 89.305,-27.005 L 88.962,-26.902 L 88.623,-26.799 L 88.289,-26.695 L 87.958,-26.591 L 87.631,-26.485 L 87.306,-26.379 L 86.985,-26.272 L 86.666,-26.164 L 86.349,-26.055 L 86.035,-25.944 L 85.722,-25.833 L 85.410,-25.720 L 85.099,-25.605 L 84.789,-25.489 L 84.480,-25.372 L 84.170,-25.252 L 83.861,-25.131 L 83.551,-25.008 L 83.240,-24.883 L 82.928,-24.757 L 82.615,-24.627 L 82.300,-24.496 L 81.983,-24.363 L 81.664,-24.227 L 81.342,-24.089 L 81.018,-23.948 L 80.690,-23.804 L 80.359,-23.658 L 80.024,-23.509 L 79.685,-23.357 L 79.341,-23.202 L 78.993,-23.045 L 78.640,-22.884 L 78.282,-22.720 L 77.918,-22.552 L 77.548,-22.381 L 77.172,-22.207 L 76.790,-22.029 L 76.401,-21.848 L 76.004,-21.663 L 75.657,-21.500 L 91.795,-21.500 L 91.911,-21.529 L 92.277,-21.623 L 92.647,-21.720 L 93.022,-21.819 L 93.179,-21.862 L 93.335,-21.906 L 93.491,-21.952 L 93.646,-21.998 L 93.801,-22.046 L 93.954,-22.096 L 94.107,-22.146 L 94.259,-22.198 L 94.409,-22.251 L 94.559,-22.305 L 94.707,-22.361 L 94.854,-22.418 L 94.999,-22.476 L 95.143,-22.535 L 95.285,-22.596 L 95.426,-22.657 L 95.564,-22.720 L 95.701,-22.784 L 95.836,-22.849 L 95.969,-22.916 L 96.099,-22.983 L 96.227,-23.052 L 96.353,-23.121 L 96.477,-23.192 L 96.598,-23.264 L 96.716,-23.337 L 96.831,-23.411 L 96.944,-23.487 L 97.054,-23.563 L 97.161,-23.640 L 97.265,-23.718 L 97.365,-23.798 L 97.463,-23.878 L 97.557,-23.960 L 97.647,-24.042 L 97.734,-24.125 L 97.817,-24.210 L 97.897,-24.295 L 97.973,-24.382 L 98.045,-24.469 L 98.113,-24.557 L 98.177,-24.646 L 98.236,-24.736 L 98.292,-24.827 L 98.343,-24.919 L 98.389,-25.012 L 98.431,-25.106 L 98.469,-25.200 L 98.502,-25.296 L 98.530,-25.392 L 98.553,-25.489 L 98.571,-25.587 L 98.584,-25.686 L 98.591,-25.785 L 98.594,-25.886 L 98.591,-25.987 L 98.583,-26.089 L 98.569,-26.192 L 98.550,-26.295 Z"/>
  </g>
</svg>
