<svg xmlns="http://www.w3.org/2000/svg" viewBox="8 6.341 20 20" width="800" height="800">
  <path transform="scale(.001)" fill="#ffcd00" fill-rule="evenodd" d="m18000 6341 1553 4205 3447-2865-757 4418 4417-758-2864 3448 4204 1552-4204 1553 2864 3447-4417-757 757 4418-3447-2865-1553 4204-1553-4204-3447 2865 757-4418-4417 757 2864-3447-4204-1553 4204-1552-2864-3448 4417 758-757-4418 3447 2865z M12000,16341a6000,6000 0 1 0 12000,0a6000,6000 0 1 0-12000,0Z M13000,16341a5000,5000 0 1 0 10000,0a5000,5000 0 1 0-10000,0Z"/>
</svg>
