<svg xmlns="http://www.w3.org/2000/svg" viewBox="-12.441 20.982 24.888 14.931" width="512" height="307" color="#FFFFFF">
  <g fill="currentColor">
    <path d="M -11.9502769431,23.4834957055 A 12.8400974233,12.8400974233 0 0,0 11.9502769431,23.4834957055 A 11.9502769431 11.9502769431 0 0,1 -11.9502769431,23.4834957055 Z"/>
    <g transform="translate(0,29.045) scale(5.56106)">
      <circle r="1"/>
      <path transform="rotate(-123.75)" d="M 0.195090322016,-0.980785280403 L 0,-1.388784109750 L -0.195090322016,-0.980785280403 Z"/>
      <path transform="rotate(-101.25)" d="M 0.195090322016,-0.980785280403 L 0,-1.388784109750 L -0.195090322016,-0.980785280403 Z"/>
      <path transform="rotate(-78.75)" d="M 0.195090322016,-0.980785280403 L 0,-1.388784109750 L -0.195090322016,-0.980785280403 Z"/>
      <path transform="rotate(-56.25)" d="M 0.195090322016,-0.980785280403 L 0,-1.388784109750 L -0.195090322016,-0.980785280403 Z"/>
      <path transform="rotate(-33.75)" d="M 0.195090322016,-0.980785280403 L 0,-1.388784109750 L -0.195090322016,-0.980785280403 Z"/>
      <path transform="rotate(-11.25)" d="M 0.195090322016,-0.980785280403 L 0,-1.388784109750 L -0.195090322016,-0.980785280403 Z"/>
      <path transform="rotate(11.25)" d="M 0.195090322016,-0.980785280403 L 0,-1.388784109750 L -0.195090322016,-0.980785280403 Z"/>
      <path transform="rotate(33.75)" d="M 0.195090322016,-0.980785280403 L 0,-1.388784109750 L -0.195090322016,-0.980785280403 Z"/>
      <path transform="rotate(56.25)" d="M 0.195090322016,-0.980785280403 L 0,-1.388784109750 L -0.195090322016,-0.980785280403 Z"/>
      <path transform="rotate(78.75)" d="M 0.195090322016,-0.980785280403 L 0,-1.388784109750 L -0.195090322016,-0.980785280403 Z"/>
      <path transform="rotate(101.25)" d="M 0.195090322016,-0.980785280403 L 0,-1.388784109750 L -0.195090322016,-0.980785280403 Z"/>
      <path transform="rotate(123.75)" d="M 0.195090322016,-0.980785280403 L 0,-1.388784109750 L -0.195090322016,-0.980785280403 Z"/>
    </g>
  </g>
</svg>
