<svg xmlns="http://www.w3.org/2000/svg" viewBox="-13.364 45.420 26.734 26.734" width="512" height="512" color="#FFFFFF">
  <g fill="currentColor">
    <g transform="translate(0,58.787) scale(8.1434)">
      <circle r="1"/>
      <path transform="rotate(0)" d="M 0.258819045103,0.965925826289 L 0,1.576749285537 L -0.258819045103,0.965925826289 Z"/>
      <path transform="rotate(30)" d="M 0.258819045103,0.965925826289 L 0,1.576749285537 L -0.258819045103,0.965925826289 Z"/>
      <path transform="rotate(60)" d="M 0.258819045103,0.965925826289 L 0,1.576749285537 L -0.258819045103,0.965925826289 Z"/>
      <path transform="rotate(90)" d="M 0.258819045103,0.965925826289 L 0,1.576749285537 L -0.258819045103,0.965925826289 Z"/>
      <path transform="rotate(120)" d="M 0.258819045103,0.965925826289 L 0,1.576749285537 L -0.258819045103,0.965925826289 Z"/>
      <path transform="rotate(150)" d="M 0.258819045103,0.965925826289 L 0,1.576749285537 L -0.258819045103,0.965925826289 Z"/>
      <path transform="rotate(180)" d="M 0.258819045103,0.965925826289 L 0,1.576749285537 L -0.258819045103,0.965925826289 Z"/>
      <path transform="rotate(210)" d="M 0.258819045103,0.965925826289 L 0,1.576749285537 L -0.258819045103,0.965925826289 Z"/>
      <path transform="rotate(240)" d="M 0.258819045103,0.965925826289 L 0,1.576749285537 L -0.258819045103,0.965925826289 Z"/>
      <path transform="rotate(270)" d="M 0.258819045103,0.965925826289 L 0,1.576749285537 L -0.258819045103,0.965925826289 Z"/>
      <path transform="rotate(300)" d="M 0.258819045103,0.965925826289 L 0,1.576749285537 L -0.258819045103,0.965925826289 Z"/>
      <path transform="rotate(330)" d="M 0.258819045103,0.965925826289 L 0,1.576749285537 L -0.258819045103,0.965925826289 Z"/>
    </g>
  </g>
</svg>
