<?xml version="1.0" encoding="UTF-8" standalone="no"?>
<svg id="SvgjsSvg1006" version="1.1" viewBox="0 0 228 228" height="456" width="456" xmlns="http://www.w3.org/2000/svg" xmlns:svg="http://www.w3.org/2000/svg">
  <defs id="defs23" />
  <path d="m 202.825,184.145 c -34.26,-1 -191.34,-99.08 -192.41,-114.68 l 8.67,-14.43 c 15.59,22.6 176.17,118 191.94,114.57 z" style="fill:#fff200;stroke-width:1" id="path1" />
  <path d="m 17.265,53.035 c -3.07,8.27 41,35.51 94,67.75 53,32.24 98.71,52.17 102.12,49.31 0.561,-0.925 1.072,-1.879 1.53,-2.86 -0.64,1 -2.18,1.26 -4.59,0.56 -14.32,-4.13 -51.68,-21.28 -97.94,-49.33 -46.26,-28.05 -86.51,-53.91 -92.77,-64.89 -0.494,-1.002 -0.728,-2.113 -0.68,-3.23 h -0.15 l -1.33,2.33 -0.18,0.37 z m 186.38,131.57 c -0.58,1.06 -1.66,1.09 -3.72,0.86 -12.81,-1.42 -51.69,-20.32 -97.7,-47.86 -53.53,-32 -97.75,-61.24 -92.94,-68.88 l 1.31,-2.31 0.26,0.08 c -4.31,12.93 87.25,65.28 92.64,68.62 53,32.82 97.65,52 101.6,47 l -1.44,2.47 z" style="fill:#fff200;stroke:#231f20;stroke-width:0.648;stroke-linecap:round;stroke-linejoin:round" id="path2" />
  <path d="m 114.305,78.915 c 34.29,-0.27 76.6,-4.69 100.94,-14.39 l -5.27,-8.49 c -14.39,8 -56.93,13.2 -96,14 -46.19,-0.43 -78.8,-4.73 -95.13,-15.69 l -5,9.08 c 30,12.71 60.8,15.41 100.37,15.54 z" style="fill:#fff200;stroke-width:1" id="path3" />
  <path d="m 216.665,64.725 c -0.84,1.34 -16.72,6.82 -40.11,10.86 -20.647,3.071 -41.496,4.578 -62.37,4.51 -19.976,0.091 -39.935,-1.172 -59.74,-3.78 -24.56,-3.85 -37.23,-9.21 -41.92,-11.1 0.45,-0.89 0.74,-1.52 1.17,-2.35 13.238,5.235 27.046,8.894 41.14,10.9 19.651,2.607 39.457,3.873 59.28,3.79 20.729,0.011 41.43,-1.527 61.93,-4.6 24,-3.87 37.09,-8.85 38.93,-11.16 l 1.69,2.92 z m -4.61,-8.69 c -2.6,2.09 -15.55,6.68 -38.35,10.32 -19.628,2.809 -39.433,4.199 -59.26,4.16 -19.147,0.149 -38.28,-1.081 -57.25,-3.68 -23.15,-3 -35.47,-8.48 -39.91,-10.07 0.44,-0.76 0.89,-1.52 1.35,-2.28 3.46,1.74 15.35,6.57 38.81,9.89 18.894,2.503 37.941,3.686 57,3.54 19.685,0.03 39.346,-1.367 58.83,-4.18 22.91,-3.15 35.24,-9 37.11,-10.48 z" style="fill:#fff200;stroke:#231f20;stroke-width:0.65;stroke-linecap:round;stroke-linejoin:round" id="path4" />
  <path d="m 1.725,120.215 c 21.09,11.34 67.93,17.06 112.25,17.45 40.36,0.06 92.93,-6.24 112.59,-16.66 l -0.59,-11.34 c -6.15,9.61 -62.49,18.83 -112.49,18.46 -50,-0.37 -96.38,-8.09 -111.85,-18.09 l 0.09,10.2 z" style="fill:#fff200;stroke-width:1" id="path5" />
  <path d="m 227.645,118.585 v 2.71 c -3,3.53 -21.48,8.87 -44.72,12.63 -17.68,2.71 -40.74,4.76 -69.47,4.76 -27.29,0 -49.06,-1.94 -65.93,-4.54 -26.68,-3.88 -43.74,-10.69 -47.17,-12.72 v -3.16 c 10.29,6.84 38.17,11.85 47.53,13.38 16.77,2.58 38.4,4.51 65.56,4.51 28.59,0 51.52,-2 69.09,-4.73 16.67,-2.41 40.42,-8.67 45.09,-12.84 z m 0,-9.63 v 2.71 c -3,3.53 -21.48,8.87 -44.72,12.63 -17.67,2.74 -40.73,4.74 -69.45,4.74 -27.29,0 -49.06,-1.94 -65.93,-4.54 -26.68,-3.88 -43.74,-10.69 -47.17,-12.72 v -3.16 c 10.29,6.84 38.17,11.85 47.53,13.38 16.77,2.58 38.4,4.51 65.56,4.51 28.59,0 51.52,-2 69.09,-4.73 16.67,-2.41 40.42,-8.67 45.09,-12.84 z" style="fill:#fff200;stroke:#231f20;stroke-width:0.65;stroke-linecap:round;stroke-linejoin:round" id="path6" />
  <path d="m 113.875,182.205 c -48.5,-0.29 -90.06,-13.22 -98.83,-15.36 l 6.4,10 c 15.5,6.52 56,16.24 92.9,15.16 36.9,-1.08 69.07,-3.93 91.76,-15 l 6.56,-10.38 c -15.47,7.28 -68.11,15.46 -98.79,15.54 z" style="fill:#fff200;stroke-width:1" id="path7" />
  <path d="m 208.565,174.715 c -1,1.47 -1.95,2.93 -2.94,4.34 -11.331,3.764 -22.909,6.738 -34.65,8.9 -14.54,3 -37,5.21 -57,5.22 -43,-0.63 -78.13,-9 -94.68,-16.21 l -1.33,-2.3 0.22,-0.35 2.26,0.88 c 29.42,10.52 62.47,14.72 93.77,15.48 18.745,-0.078 37.447,-1.804 55.89,-5.16 24.69,-4.95 34.67,-8.67 37.73,-10.36 l 0.78,-0.44 z m 5.69,-9.38 0.07,0.09 c -0.72,1.22 -1.46,2.46 -2.23,3.7 -5.71,2 -21.21,6.57 -43.84,9.74 -14.91,2 -24.18,4 -53.84,4.58 -55.58,-1.41 -91.56,-12.28 -100.11,-15 l -1.25,-2.41 c 32.21,8.41 65.11,14.28 101.38,14.88 27.14,-0.58 38.68,-2.58 53.47,-4.59 26.39,-4.1 39.68,-8.45 43.67,-9.7 l -0.18,-0.23 2.86,-1.07 z" style="fill:#fff200;stroke:#231f20;stroke-width:0.65;stroke-linecap:round;stroke-linejoin:round" id="path8" />
  <path d="M 113.975,12.955 C 96.352,12.941 79.035,17.55 63.75,26.322 -3.509,64.924 -3.76,161.86 63.3,200.808 c 67.06,38.949 151.134,-9.303 151.335,-86.853 0,-55.72 -44.97,-101 -100.66,-101 z m 0,-10 c 61,0 110.79,49.78 110.79,110.81 0,61.03 -49.79,110.83 -110.79,110.83 -61,0 -110.83,-49.78 -110.83,-110.81 0,-61.03 49.76,-110.81 110.83,-110.81 z" style="fill:#fff200;stroke-width:1" id="path9" />
  <path d="m 113.975,4.115 c -60.17,0 -109.8,49.41 -109.8,109.8 0,60.39 49.56,109.81 109.8,109.81 60.24,0 109.8,-49.41 109.8,-109.8 0,-60.39 -49.59,-109.81 -109.8,-109.81 z m 0,-2.47 c 61.84,0 112.27,50.44 112.27,112.28 0,61.84 -50.4,112.27 -112.27,112.27 -61.87,0 -112.24,-50.44 -112.24,-112.28 0,-61.84 50.44,-112.27 112.24,-112.27 z" style="fill:#fff200;stroke:#231f20;stroke-width:0.65;stroke-linecap:round;stroke-linejoin:round" id="path10" />
  <path d="m 114.105,13.445 c 55,0 100.37,45.17 100.37,100.37 0,55.2 -45.33,100.38 -100.37,100.38 -55.04,0 -100.37,-45.16 -100.37,-100.38 0,-55.22 45.34,-100.37 100.37,-100.37 z m 0,-2.47 c -56.39,0 -102.84,46.27 -102.84,102.84 0,56.57 46.45,102.85 102.84,102.85 56.39,0 102.84,-46.29 102.84,-102.85 0,-56.56 -46.45,-102.84 -102.84,-102.84 z" style="fill:#fff200;stroke:#231f20;stroke-width:0.65;stroke-linecap:round;stroke-linejoin:round" id="path11" />
  <polygon points="149.454,249.076 139.684,249.076 139.684,23.166 149.454,23.166 " style="fill:#fff200;stroke-width:1" id="polygon11" transform="translate(-30.219,-22.051)" />
  <path d="m 110.735,1.195 h 6.82 m -6.81,225.59 h 6.86" style="fill:none;stroke:#231f20;stroke-width:0.65;stroke-linecap:round;stroke-linejoin:round" id="path12" />
  <path d="m 117.655,-0.095 h 2.45 v 228.19 h -2.43 V -0.095 Z m -9.55,0 h 2.47 v 228.19 h -2.47 z" style="fill:#fff200;stroke:#231f20;stroke-width:0.65;stroke-linecap:round;stroke-linejoin:round" id="path13" />
  <path d="m 1.335,109.135 c 14.08,-13 66,-21.36 112.11,-21.15 46.11,0.21 100.67,9.69 112.53,20.88 l 0.12,9.67 c -9.94,-9.35 -52.35,-20.51 -112.57,-20.63 -60.22,-0.12 -103.93,11.33 -112.19,20.87 z" style="fill:#fff200;stroke-width:1" id="path14" />
  <path d="m 1.315,109.585 v 8.34 m 225.05,-8 v 8.34" style="fill:none;stroke:#231f20;stroke-width:0.651;stroke-linecap:round;stroke-linejoin:round" id="path15" />
  <path d="m 114.065,96.535 c 26.51,0 52.24,2.51 72.64,6.48 21.06,4.21 35.87,9.48 40.94,15.39 v 2.93 c -6.11,-7.36 -26,-12.75 -41.41,-15.84 -20.26,-3.94 -45.81,-6.46 -72.17,-6.46 -27.82,0.05 -53.73,2.69 -73.69,6.58 -16,3.18 -37.36,9.49 -40,15.71 v -3.05 c 1.46,-4.31 17.36,-10.75 39.67,-15.21 20.1,-3.92 46.06,-6.51 74,-6.56 z m 0,-9.63 c 26.51,0 52.24,2.51 72.64,6.48 21.06,4.21 35.87,9.48 40.94,15.39 v 2.93 c -6.11,-7.36 -26,-12.75 -41.41,-15.84 -20.25,-3.94 -45.8,-6.48 -72.17,-6.43 -27.82,0.05 -53.61,2.69 -73.56,6.58 -15.45,2.93 -37.68,9.49 -40.15,15.71 v -3.05 c 1.46,-4.26 17.69,-10.93 39.67,-15.21 20.1,-3.92 46.06,-6.51 74,-6.56 z" style="fill:#fff200;stroke:#231f20;stroke-width:0.65;stroke-linecap:round;stroke-linejoin:round" id="path16" />
  <path d="m 113.525,37.795 c 41.78,-0.21 78.23,5.84 94.9,14.38 l 6.08,10.52 c -14.49,-7.81 -53.81,-15.93 -100.92,-14.72 -38.39,0.24 -79.4,4.23 -100,15.21 l 7.27,-12.15 c 16.89,-8.76 56.72,-13.2 92.66,-13.25 z" style="fill:#fff200;stroke-width:1" id="path17" />
  <line x1="209.485" y1="53.875004" x2="213.625" y2="60.524998" style="fill:none;stroke:#231f20;stroke-width:0.649;stroke-linecap:round;stroke-linejoin:round" id="line17" />
  <path d="m 114.075,46.485 c 23.83,-0.06 46.86,1.28 65.17,4.59 17.06,3.17 33.32,7.94 35.65,10.5 l 1.8,3.19 c -5.66,-3.69 -19.73,-7.8 -37.8,-11.23 -18.07,-3.43 -41.16,-4.54 -64.86,-4.48 -26.9,-0.09 -47.8,1.33 -65.73,4.45 -19,3.55 -32.13,8.62 -35.38,11 l 1.77,-3.37 c 6.28,-3.2 16.28,-7.1 33.13,-10.1 18.55,-3.39 39.67,-4.41 66.25,-4.55 z m 0,-9.62 c 22.81,-0.06 45.33,1.21 62.88,4.37 13.84,2.7 27.53,6.9 32.55,10.65 l 2.64,4.19 c -4.48,-5 -21.36,-9.7 -36.26,-12.35 -17.42,-3 -39,-4.19 -61.81,-4.38 -23.93,0.06 -46.05,1.53 -63.22,4.66 -16.38,3.11 -26.94,6.8 -31.41,9.68 l 2.32,-3.5 c 6.17,-3.25 16.14,-6.23 28.69,-8.67 17.29,-3.15 39.55,-4.58 63.62,-4.64 z" style="fill:#fff200;stroke:#231f20;stroke-width:0.65;stroke-linecap:round;stroke-linejoin:round" id="path18" />
  <path d="m 169.845,160.595 c -20.66,-3.86 -41.35,-4.42 -55.81,-4.25 -69.63,0.82 -92.12,14.3 -94.87,18.38 l -5.2,-8.48 c 17.73,-12.85 55.64,-20.06 100.45,-19.32 23.27,0.38 43.34,1.93 60.23,5.2 z" style="fill:#fff200;stroke-width:1" id="path19" />
  <line x1="15.115" y1="167.41501" x2="18.535002" y2="173.295" style="fill:none;stroke:#231f20;stroke-width:0.65;stroke-linecap:round;stroke-linejoin:round" id="line19" />
  <path d="m 113.635,155.145 c 19.37,0.29 38.38,1.09 56.73,4.51 l -1.32,2.38 c -17,-3.15 -35.21,-4.35 -55.34,-4.25 -25.7,-0.2 -51.69,2.2 -74.32,8.69 -7.14,2 -19,6.58 -20.17,10.37 l -1.32,-2.18 c 0.38,-2.24 7.53,-6.89 20.88,-10.65 25.92,-7.42 50.16,-8.67 74.86,-8.84 z m 0.88,-9.75 c 20.07,0.37 40.79,1.3 60.94,5.29 l -1.38,2.44 c -18.19,-3.61 -35.57,-4.81 -59.43,-5.18 -25.78,0 -53.12,1.88 -78,9.11 -8,2.34 -21.88,7.39 -22.34,11.39 l -1.33,-2.32 c 0.3,-3.64 12.3,-8.38 23.08,-11.52 25.06,-7.28 52.47,-9.16 78.45,-9.2 z" style="fill:#fff200;stroke:#231f20;stroke-width:0.65;stroke-linecap:round;stroke-linejoin:round" id="path20" />
  <line x1="175.345" y1="150.94501" x2="169.21501" y2="161.815" style="fill:none;stroke:#ed1b2e;stroke-width:1.059;stroke-linecap:round;stroke-linejoin:round" id="line20" />
  <path d="m 19.885,50.895 c 34.49,-0.45 193.79,97.34 194.26,115.35 l -9.87,15.13 C 199.825,160.465 38.185,65.305 11.515,67.105 l 8.37,-16.2 z" style="fill:#fff200;stroke-width:1" id="path21" />
  <path d="m 213.425,167.525 -8.37,13 m -185.43,-128.78 -7.78,14.42" style="fill:none;stroke:#231f20;stroke-width:0.648;stroke-linecap:round;stroke-linejoin:round" id="path22" />
  <path style="fill:#fff200;stroke:#231f20;stroke-width:0.65;stroke-linecap:round;stroke-linejoin:round" d="m 215.135,167.345 c 4,-8 -39.59,-40.87 -93.7,-72.88 -55.35,-31.37 -95.24,-49.83 -102.53,-44.33 l -1.62,2.95 c 0,0.16 0.06,-0.2 0.4,-0.46 1.33,-1.16 3.52,-1.08 4.51,-1.1 12.55,0.19 48.38,16.68 98.66,45.5 22,12.83 93.06,58.38 92.79,71.19 0,1.1 0.09,1.33 -0.32,1.87 l 1.81,-2.75 z" id="path27" />
  <path style="fill:#fff200;stroke:#231f20;stroke-width:0.65;stroke-linecap:round;stroke-linejoin:round" d="m 10.525,66.515 c 6.4,-4.34 53.45,16.62 102.68,46.3 49.23,29.68 96,63.41 91.78,69.7 l -1.39,2.19 -0.64,0.5 c 0.14,-0.1 0.84,-1 -0.07,-3.29 -2.09,-6.88 -35.37,-33.44 -90.59,-66.78 -53.83,-32.1 -98.7,-51.44 -103.18,-45.92 l 1.41,-2.71 z" id="path26" />
</svg>
