<?xml version="1.0" encoding="UTF-8" standalone="no"?>
<svg
   width="293.12524"
   height="341.87039"
   version="1.0"
   id="svg2"
   xmlns:xlink="http://www.w3.org/1999/xlink"
   xmlns="http://www.w3.org/2000/svg"
   xmlns:svg="http://www.w3.org/2000/svg">
  <defs
     id="defs267" />
  <g
     id="g2866"
     transform="matrix(2.4547347,0,0,2.4547347,-883.12514,-288.6778)">
    <path
       style="fill:#ffffff;stroke:#000000;stroke-width:0.670372"
       d="m 360.11351,197.21402 c 0,16.27101 6.6628,30.98714 17.45733,41.74246 10.81481,10.77825 25.51177,17.57893 41.80852,17.57893 16.3814,0 31.24681,-6.65251 42.01576,-17.38931 10.76895,-10.73504 17.44322,-25.55171 17.44587,-41.88004 h -0.002 V 118.0771 l -118.73982,-0.14111 0.0123,79.27803 h 0.002 z"
       id="path1431" />
    <path
       style="fill:#ee161f;stroke:#000000;stroke-width:0.507344"
       d="m 362.33591,197.32603 v 0.045 0 c 0,15.55663 6.44144,29.72419 16.77474,40.00944 10.35357,10.30464 24.61399,16.71197 40.21403,16.71197 15.68117,0 29.9116,-6.36059 40.22197,-16.62554 10.30771,-10.26496 16.69712,-24.43253 16.69889,-40.04384 h -0.002 v -76.82622 l -113.83819,-0.0185 -0.0697,76.74773 m 91.0224,-53.74661 0.004,48.89062 -0.0414,5.17173 h 8.8e-4 c 0,1.36084 -0.082,2.91218 -0.24076,4.23333 -0.92512,7.72937 -4.48008,14.46655 -9.74506,19.70795 -6.16364,6.13569 -14.67139,9.94128 -24.04693,9.94128 -9.32704,0 -17.639,-3.93788 -23.8291,-10.10003 -6.34972,-6.32002 -10.02992,-14.98601 -10.02992,-23.94657 l -0.0132,-54.02266 67.94028,0.12259 0.002,0.002 z"
       id="path1435" />
    <g
       id="g1236">
      <path
         style="fill:#2a2871;fill-rule:evenodd;stroke:none"
         d="m 412.1539,188.608 v 0.007 c 0,2.21192 0.84927,4.22716 2.21182,5.68943 1.36519,1.46667 3.24541,2.37596 5.30202,2.37596 2.06719,0 3.94388,-0.90488 5.3029,-2.36362 1.35813,-1.45873 2.20035,-3.47398 2.20124,-5.69471 v 0 -10.76767 l -14.99064,-0.0106 -0.0273,10.7659"
         id="path1437" />
      <path
         style="stroke:#ffffff;stroke-width:2.97222;stroke-linecap:round;stroke-dasharray:none"
         d="m 415.76707,181.93697 v 0 m 8.13911,0 v 0 m -4.16701,4.00139 v 0 m -3.9721,4.17072 v 0 m 8.13911,0 v 0"
         id="path1439" />
    </g>
    <g
       id="g1272">
      <path
         style="fill:#fff200;fill-rule:evenodd;stroke:none"
         d="m 369.70865,140.64078 c 0.13493,-5.52098 4.05235,-6.82802 4.08057,-6.84742 0.0282,-0.0185 4.23139,1.40758 4.21728,6.89857 l -8.29785,-0.0512"
         id="path1497" />
      <path
         style="fill:#fff200;fill-rule:evenodd;stroke:none"
         d="m 366.32654,133.89125 -0.68172,6.34648 4.14055,0.009 c 0.0397,-5.24934 3.97475,-6.12246 4.07,-6.10306 0.0891,-0.005 3.98886,1.15888 4.09292,6.10306 h 4.15113 l -0.7505,-6.39322 -15.0215,0.0379"
         id="path1499" />
      <path
         style="fill:none;stroke:#000000;stroke-width:0.499365"
         d="m 366.32654,133.89302 -0.68172,6.34471 4.14055,0.009 c 0.0397,-5.24934 3.97387,-6.12246 4.06912,-6.10306 0.0891,-0.005 3.98886,1.16064 4.09292,6.10306 h 4.15113 l -0.74962,-6.39322 -15.02238,0.0379 v 0.002 z"
         id="path1501" />
      <path
         style="fill:#fff200;fill-rule:evenodd;stroke:none"
         d="m 365.36879,140.26684 h 16.94582 c 0.35629,0 0.6482,0.35277 0.6482,0.78404 0,0.42863 -0.29103,0.78141 -0.6482,0.78141 h -16.94582 c -0.35718,0 -0.64909,-0.35102 -0.64909,-0.78141 0,-0.43127 0.29191,-0.78404 0.64909,-0.78404"
         id="path1503" />
      <path
         style="fill:none;stroke:#000000;stroke-width:0.49943"
         d="m 365.3679,140.26684 h 16.94583 c 0.35717,0 0.64908,0.35277 0.64908,0.78404 v 0 c 0,0.43039 -0.29191,0.78141 -0.64908,0.78141 H 365.3679 c -0.35717,0 -0.64908,-0.35102 -0.64908,-0.78141 v 0 c 0,-0.43127 0.29191,-0.78404 0.64908,-0.78404 z"
         id="path1505" />
      <path
         style="fill:#fff200;fill-rule:evenodd;stroke:none"
         d="m 371.53155,140.23597 c 0.0185,-3.31259 2.26208,-4.2501 2.27355,-4.24833 8.8e-4,0 2.34146,0.96661 2.35998,4.24833 h -4.63353"
         id="path1507" />
      <path
         style="fill:none;stroke:#000000;stroke-width:0.497032"
         d="m 371.53155,140.23597 c 0.0185,-3.31259 2.26208,-4.2501 2.27355,-4.24833 8.8e-4,0 2.34234,0.96661 2.36086,4.24833 h -4.63441"
         id="path1509" />
      <path
         style="fill:#fff200;fill-rule:evenodd;stroke:none"
         d="m 365.72508,131.26306 h 16.2447 c 0.34218,0 0.62263,0.31662 0.62263,0.70467 0,0.38541 -0.28045,0.70468 -0.62263,0.70468 h -16.2447 c -0.34218,0 -0.62263,-0.3175 -0.62263,-0.70468 0,-0.38805 0.28045,-0.70467 0.62263,-0.70467"
         id="path1511" />
      <path
         style="fill:none;stroke:#000000;stroke-width:0.499011"
         d="m 365.72508,131.26129 h 16.2447 c 0.34218,0 0.62263,0.31839 0.62263,0.70468 v 0 c 0,0.38717 -0.28045,0.70467 -0.62263,0.70467 h -16.2447 c -0.34218,0 -0.62263,-0.31573 -0.62263,-0.70467 v 0 c 0,-0.38629 0.28045,-0.70468 0.62263,-0.70468 z"
         id="path1513" />
      <path
         style="fill:#fff200;fill-rule:evenodd;stroke:none"
         d="m 366.06814,132.67241 h 15.53918 c 0.32719,0 0.59617,0.31662 0.59617,0.70379 0,0.38805 -0.2681,0.70467 -0.59617,0.70467 h -15.53918 c -0.32719,0 -0.59529,-0.31662 -0.59529,-0.70467 0,-0.38717 0.2681,-0.70379 0.59529,-0.70379"
         id="path1515" />
      <path
         style="fill:none;stroke:#000000;stroke-width:0.499011"
         d="m 366.06814,132.67241 h 15.5383 c 0.32719,0 0.59529,0.31662 0.59529,0.70379 v 0 c 0,0.38805 -0.2681,0.70467 -0.59529,0.70467 h -15.5383 c -0.32719,0 -0.59529,-0.31662 -0.59529,-0.70467 v 0 c 0,-0.38717 0.2681,-0.70379 0.59529,-0.70379 z"
         id="path1517" />
      <path
         style="fill:#fff200;fill-rule:evenodd;stroke:none"
         d="m 371.08971,122.08907 1.22673,0.002 v 0.87136 h 0.89514 v -0.89076 l 1.25583,0.004 v 0.88723 h 0.89866 v -0.89076 l 1.2576,0.002 -0.002,2.01172 c 0,0.31397 -0.25399,0.51858 -0.54767,0.51858 h -4.41129 c -0.29632,0 -0.57059,-0.23548 -0.57059,-0.52652 l -0.003,-1.9879"
         id="path1519" />
      <path
         style="fill:none;stroke:#000000;stroke-width:0.500253"
         d="m 371.08883,122.08907 1.22673,0.002 v 0.87136 h 0.89513 v -0.89076 l 1.25672,0.004 v 0.88723 h 0.89778 v -0.89076 h 1.2576 l -0.002,2.01171 c 0,0.31574 -0.25398,0.52035 -0.54854,0.52035 h -4.41129 c -0.29633,0 -0.56972,-0.23724 -0.5706,-0.52652 l -0.003,-1.9879 h 8.8e-4 z"
         id="path1521" />
      <path
         style="fill:#fff200;fill-rule:evenodd;stroke:none"
         d="m 375.7109,124.779 0.27692,6.45319 -4.30282,-0.0159 0.28485,-6.45055 3.74193,0.015"
         id="path1523" />
      <path
         style="fill:none;stroke:#000000;stroke-width:0.498978"
         d="m 375.71002,124.78076 0.27691,6.45143 -4.30282,-0.0159 0.28486,-6.45231 3.74105,0.0168"
         id="path1525" />
      <path
         style="fill:#fff200;fill-rule:evenodd;stroke:none"
         d="m 376.42789,125.2429 1.20027,0.002 v 0.87136 h 0.87662 v -0.89253 l 1.22937,0.004 v 0.889 h 0.87926 v -0.89077 h 1.23026 l -0.002,2.0126 c 0,0.31309 -0.2487,0.5177 -0.5362,0.5177 h -4.31693 c -0.29015,0 -0.55737,-0.23548 -0.55825,-0.52475 l -0.003,-1.98967"
         id="path1527" />
      <path
         style="fill:none;stroke:#000000;stroke-width:0.500173"
         d="m 376.42789,125.24114 1.20027,0.002 v 0.87313 h 0.87662 v -0.89253 l 1.22937,0.004 v 0.889 h 0.87926 v -0.89253 l 1.23026,0.002 -0.002,2.0126 c 0,0.31309 -0.24782,0.5177 -0.5362,0.5177 h -4.31693 c -0.28927,0 -0.55737,-0.23548 -0.55825,-0.52475 l -0.003,-1.98967"
         id="path1529" />
      <path
         style="fill:#fff200;fill-rule:evenodd;stroke:none"
         d="m 381.06495,127.75733 0.1314,3.47839 -4.12644,0.002 0.11642,-3.48192 3.87862,0.002"
         id="path1531" />
      <path
         style="fill:none;stroke:#000000;stroke-width:0.501277"
         d="m 381.06671,127.75733 0.13141,3.47662 -4.12644,0.002 0.11641,-3.48016 3.87862,0.002"
         id="path1533" />
      <path
         style="fill:#fff200;fill-rule:evenodd;stroke:none"
         d="m 365.81944,125.25172 1.20027,0.002 v 0.87136 h 0.87662 v -0.89077 l 1.22938,0.004 v 0.88724 h 0.87926 v -0.89077 l 1.23025,0.002 -0.002,2.01171 c 0,0.31398 -0.2487,0.51859 -0.5362,0.51859 h -4.31693 c -0.29014,0 -0.55824,-0.23548 -0.55824,-0.52741 l -0.002,-1.98702"
         id="path1535" />
      <path
         style="fill:none;stroke:#000000;stroke-width:0.500173"
         d="m 365.81944,125.25172 1.19939,0.003 v 0.87224 h 0.8775 v -0.89253 l 1.22938,0.004 v 0.889 h 0.87926 v -0.89253 l 1.23025,0.002 -0.002,2.01171 c 0,0.31398 -0.2487,0.51859 -0.5362,0.51859 h -4.31693 c -0.28926,0 -0.55824,-0.23548 -0.55913,-0.52564 l -0.003,-1.98879 h 8.8e-4 z"
         id="path1537" />
      <path
         style="fill:#fff200;fill-rule:evenodd;stroke:none"
         d="m 370.4565,127.76615 0.13141,3.47751 -4.12644,0.002 0.11641,-3.47927 h 3.87862"
         id="path1539" />
      <path
         style="fill:none;stroke:#000000;stroke-width:0.501277"
         d="m 370.45738,127.76615 0.13141,3.47751 -4.12556,0.002 0.11641,-3.47927 h 3.87863 -8.9e-4 z"
         id="path1541" />
      <path
         style="fill:#000000;fill-rule:evenodd;stroke:none"
         d="m 373.4153,126.81717 c -0.0265,-0.62706 0.87661,-0.63411 0.86603,0 v 1.53635 h -0.86603 v -1.53635"
         id="path1543" />
      <path
         style="fill:#000000;fill-rule:evenodd;stroke:none"
         d="m 378.72437,129.03879 c -0.003,-0.60413 0.83693,-0.61824 0.82635,0 v 1.1871 h -0.82635 v -1.1871"
         id="path1545" />
      <path
         style="fill:#000000;fill-rule:evenodd;stroke:none"
         d="m 368.08329,129.05114 c -0.003,-0.6059 0.83693,-0.61824 0.82635,0 v 1.1871 h -0.82635 v -1.1871"
         id="path1547" />
    </g>
    <use
       x="0"
       y="0"
       xlink:href="#g1236"
       id="use1238"
       transform="translate(-0.0732,25.78339)" />
    <use
       x="0"
       y="0"
       xlink:href="#g1236"
       id="use1240"
       transform="translate(-20.79887,0.0501)" />
    <use
       x="0"
       y="0"
       xlink:href="#g1236"
       id="use1242"
       transform="translate(20.74507,0.03952)" />
    <use
       x="0"
       y="0"
       xlink:href="#g1236"
       id="use1244"
       transform="translate(-0.00617,-26.01754)" />
    <use
       x="0"
       y="0"
       xlink:href="#g1272"
       id="use1274"
       transform="translate(45.7136,0.00704944)" />
    <use
       x="0"
       y="0"
       xlink:href="#g1272"
       id="use1276"
       transform="translate(90.91745,0.03793)" />
    <use
       x="0"
       y="0"
       xlink:href="#g1272"
       id="use1278"
       transform="translate(0.02293,46.31093)" />
    <use
       x="0"
       y="0"
       xlink:href="#g1272"
       id="use1280"
       transform="translate(90.84866,46.32151)" />
    <use
       x="0"
       y="0"
       xlink:href="#g1272"
       id="use1282"
       transform="rotate(-45,492.84364,166.14832)" />
    <use
       x="0"
       y="0"
       xlink:href="#g1272"
       id="use1284"
       transform="rotate(45,300.33966,276.20184)" />
  </g>
</svg>
