<svg xmlns="http://www.w3.org/2000/svg" viewBox="1112 104 336 336" width="672" height="672">
  <g transform="translate(1280,272)">
    <path fill="#e5be01" fill-rule="evenodd" d="m0-168L6.79-51.56l36.69-110.72L19.9-48.04 84-145.49 31.66-41.25l87.13-77.54-77.54 87.13L145.49-84 48.04-19.9l114.24-23.58L51.56-6.79 168 0 51.56 6.79l110.72 36.69L48.04 19.9 145.49 84 41.25 31.66l77.54 87.13-87.13-77.54L84 145.49 19.9 48.04l23.58 114.24L6.79 51.56 0 168-6.79 51.56-43.48 162.28-19.9 48.04-84 145.49-31.66 41.25l-87.13 77.54 77.54-87.13L-145.49 84l97.45-64.1-114.24 23.58L-51.56 6.79-168 0-51.56-6.79-162.28-43.48-48.04-19.9-145.49-84-41.25-31.66l-77.54-87.13 87.13 77.54L-84-145.49l64.1 97.45-23.58-114.24L-6.79-51.56z M52,0A52,52 0 1 0-52,0A52,52 0 1 0 52,0Z M46,0A46,46 0 1 0-46,0A46,46 0 1 0 46,0Z"/>
  </g>
</svg>
