<svg xmlns="http://www.w3.org/2000/svg" viewBox="0 0 2892 972" width="2892" height="972">
  <path fill="#ffffff" fill-rule="evenodd" d="M1544.00,964.68C1544.00,963.96 1548.61,960.99 1554.25,958.08C1559.89,955.18 1568.55,950.64 1573.50,948.00C1584.57,942.10 1601.88,933.46 1604.25,932.66C1606.71,931.82 1606.43,930.13 1603.75,929.58C1602.51,929.33 1596.78,928.86 1591.00,928.54C1563.60,927.02 1547.35,924.78 1524.00,919.31C1513.97,916.96 1498.57,912.28 1490.00,908.97C1486.97,907.81 1483.36,906.49 1481.97,906.06C1476.25,904.27 1457.20,895.05 1447.24,889.25C1443.23,886.91 1439.76,885.00 1439.53,885.00C1439.31,885.00 1436.06,882.90 1432.31,880.34C1401.47,859.25 1373.58,831.18 1358.47,806.02C1354.55,799.50 1347.00,784.63 1347.00,783.44C1347.00,783.09 1346.37,781.38 1345.60,779.65C1344.83,777.92 1343.43,774.02 1342.48,771.00C1341.53,767.98 1340.18,763.70 1339.47,761.50C1335.00,747.49 1330.13,720.70 1329.08,704.29C1328.07,688.69 1327.30,689.26 1324.03,708.00C1322.93,714.33 1321.11,722.88 1319.98,727.00C1313.63,750.30 1310.64,756.52 1299.66,769.23C1287.78,782.99 1266.17,803.77 1251.00,816.03C1247.97,818.47 1245.28,820.74 1245.00,821.07C1244.01,822.24 1210.95,846.62 1203.05,852.00C1198.61,855.02 1192.76,859.08 1190.06,861.00C1187.35,862.92 1180.58,867.42 1175.01,871.00C1169.43,874.58 1163.66,878.28 1162.19,879.24C1160.71,880.19 1158.60,881.43 1157.50,882.00C1156.40,882.57 1154.15,883.92 1152.50,885.00C1150.85,886.08 1148.60,887.43 1147.50,888.00C1146.40,888.57 1144.15,889.90 1142.50,890.96C1140.85,892.02 1137.25,894.06 1134.50,895.49C1131.75,896.92 1126.80,899.63 1123.50,901.50C1120.20,903.38 1116.40,905.40 1115.05,906.01C1113.71,906.61 1107.63,909.48 1101.55,912.40C1065.43,929.71 1037.69,936.94 1012.07,935.70C1000.88,935.16 998.24,934.68 987.50,931.27C960.69,922.73 945.00,896.55 945.00,860.36C945.00,853.50 944.57,847.85 944.03,847.52C943.49,847.19 940.45,848.10 937.28,849.54C923.77,855.69 915.97,859.02 907.00,862.48C904.52,863.44 901.38,864.70 900.00,865.29C894.98,867.45 890.43,869.16 887.50,869.99C885.85,870.46 881.35,871.95 877.50,873.30C860.74,879.16 836.35,885.85 819.00,889.34C804.83,892.19 781.20,895.93 761.00,898.51C754.12,899.39 743.77,900.75 738.00,901.54C732.23,902.33 722.33,903.67 716.00,904.53C709.67,905.38 700.00,906.72 694.50,907.51C689.00,908.29 679.33,909.66 673.00,910.54C666.67,911.43 657.67,912.77 653.00,913.51C648.33,914.25 639.77,915.59 634.00,916.49C616.98,919.12 602.47,921.73 583.50,925.58C579.65,926.37 574.92,927.12 573.00,927.25C570.24,927.45 569.18,928.13 567.98,930.50C557.40,951.43 547.72,960.36 535.50,960.43C519.30,960.54 506.99,942.80 507.00,919.36C507.01,912.78 509.96,894.79 511.85,889.86C512.34,888.56 513.52,885.02 514.46,882.00C515.40,878.98 516.56,875.60 517.04,874.50C517.52,873.40 519.08,869.65 520.50,866.17C523.23,859.51 530.42,843.60 531.91,840.93C532.39,840.07 535.92,833.32 539.75,825.93C543.59,818.55 547.73,810.73 548.95,808.56C550.18,806.39 552.32,802.43 553.72,799.77C560.15,787.47 559.87,804.38 553.38,819.78C552.62,821.59 552.00,823.51 552.00,824.05C552.00,824.60 550.58,828.07 548.85,831.77C541.82,846.83 538.25,854.99 536.96,859.00C536.51,860.38 535.21,863.98 534.05,867.00C523.97,893.42 529.75,917.14 547.71,923.07C555.02,925.48 556.88,923.91 564.21,909.15C569.34,898.82 571.42,896.47 573.09,899.10C574.20,900.87 574.18,908.15 573.03,914.00C571.83,920.16 572.68,920.56 581.15,917.77C585.19,916.44 591.20,914.55 594.50,913.57C597.80,912.58 602.08,911.21 604.00,910.52C605.92,909.83 609.98,908.54 613.00,907.65C616.02,906.76 622.77,904.67 628.00,903.02C633.23,901.37 639.98,899.29 643.00,898.40C646.02,897.51 650.08,896.21 652.00,895.52C653.92,894.83 658.20,893.48 661.50,892.52C664.80,891.56 669.08,890.21 671.00,889.52C672.92,888.83 679.23,886.81 685.00,885.03C690.77,883.24 697.08,881.22 699.00,880.54C708.04,877.30 709.64,876.77 711.55,876.32C712.68,876.06 726.86,871.36 743.05,865.88C759.25,860.41 773.85,855.52 775.50,855.03C777.15,854.53 783.00,852.49 788.50,850.49C794.00,848.49 799.85,846.47 801.50,846.01C803.15,845.55 806.98,844.20 810.00,843.00C813.02,841.80 816.85,840.45 818.50,839.99C820.15,839.53 826.00,837.52 831.50,835.52C837.00,833.53 842.62,831.51 844.00,831.02C845.38,830.54 848.98,829.18 852.00,828.00C855.02,826.82 858.62,825.47 860.00,825.00C861.38,824.53 864.98,823.18 868.00,822.00C871.02,820.82 874.66,819.49 876.07,819.05C877.48,818.61 879.51,817.79 880.57,817.22C881.63,816.66 884.52,815.44 887.00,814.51C891.38,812.86 894.63,811.53 901.26,808.65C903.04,807.88 906.52,806.47 909.00,805.52C911.48,804.57 914.21,803.44 915.08,803.00C915.94,802.56 922.69,799.63 930.08,796.48C954.50,786.09 955.79,785.38 956.87,781.75C959.60,772.59 968.05,753.05 976.39,736.60C983.06,723.44 983.40,722.00 979.88,722.00C973.40,722.00 963.16,714.01 958.74,705.50C950.86,690.30 952.12,661.67 961.65,639.35C962.39,637.62 963.00,635.56 963.00,634.79C963.00,634.02 963.66,632.51 964.47,631.44C965.28,630.37 965.95,628.94 965.97,628.25C966.03,625.96 987.15,582.48 992.81,573.00C993.95,571.08 996.60,566.24 998.68,562.25C1006.62,547.07 1007.14,556.71 999.64,580.00C998.09,584.82 996.06,589.68 991.26,600.00C988.27,606.41 985.14,613.93 982.40,621.25C981.63,623.31 980.36,626.69 979.57,628.75C974.90,641.03 973.78,658.73 977.15,667.22C980.83,676.50 989.89,684.00 997.43,684.00C1002.51,684.00 1004.79,681.73 1009.00,672.50C1014.83,659.73 1015.84,658.34 1018.49,659.36C1020.68,660.20 1020.46,670.37 1018.07,679.00C1015.63,687.81 1010.15,699.10 1004.92,706.09C1002.70,709.07 999.49,714.20 997.78,717.50C990.00,732.52 983.75,745.73 980.03,755.00C978.81,758.02 977.18,761.69 976.41,763.15C975.63,764.61 975.00,766.67 975.00,767.71C975.00,768.76 974.34,770.49 973.53,771.56C971.77,773.89 971.55,777.00 973.15,777.00C973.79,777.00 977.27,775.60 980.90,773.88C984.53,772.16 990.88,769.19 995.00,767.28C1019.45,755.94 1082.22,724.59 1095.00,717.33C1096.92,716.23 1102.10,713.39 1106.50,711.00C1110.90,708.61 1115.85,705.84 1117.50,704.84C1119.15,703.84 1121.17,702.71 1122.00,702.33C1123.42,701.67 1141.79,691.07 1145.00,689.05C1145.83,688.53 1149.56,686.17 1153.30,683.80C1157.04,681.44 1160.86,679.04 1161.80,678.48C1172.33,672.17 1190.89,658.32 1196.83,652.33C1200.96,648.17 1201.14,647.76 1200.47,643.73C1199.75,639.38 1192.73,624.13 1186.54,613.50C1184.62,610.20 1182.58,606.60 1182.01,605.50C1181.44,604.40 1180.08,602.15 1179.00,600.50C1177.92,598.85 1176.57,596.60 1176.00,595.50C1175.43,594.40 1174.08,592.15 1173.00,590.50C1171.91,588.85 1170.70,586.83 1170.31,586.00C1169.92,585.17 1166.93,580.00 1163.67,574.50C1150.96,553.06 1137.43,526.10 1128.53,504.50C1121.57,487.60 1120.68,485.98 1116.45,482.51C1111.55,478.50 1110.59,475.24 1112.08,467.73C1120.16,427.17 1121.81,420.66 1124.16,420.21C1126.80,419.70 1181.09,465.64 1191.44,477.14C1202.58,489.52 1200.78,494.90 1186.93,490.64C1175.57,487.13 1169.57,486.27 1168.51,487.98C1167.76,489.19 1170.17,496.44 1173.04,501.62C1175.66,506.34 1181.06,515.77 1182.71,518.50C1183.37,519.60 1184.39,521.40 1184.97,522.50C1185.55,523.60 1186.81,525.71 1187.76,527.18C1189.41,529.73 1204.39,554.49 1206.50,558.16C1216.07,574.81 1218.28,579.82 1222.24,594.00C1225.25,604.80 1225.47,640.72 1222.58,652.00C1218.70,667.19 1214.49,677.62 1206.17,692.69C1202.11,700.05 1182.81,717.14 1165.50,728.70C1145.89,741.80 1136.48,747.87 1132.50,749.97C1131.40,750.55 1129.15,751.92 1127.50,753.00C1125.85,754.08 1123.60,755.43 1122.50,756.00C1121.40,756.57 1119.15,757.89 1117.50,758.94C1115.85,760.00 1112.25,762.09 1109.50,763.60C1100.71,768.42 1099.56,769.08 1096.50,771.00C1094.85,772.04 1091.25,774.05 1088.50,775.48C1085.75,776.91 1080.80,779.56 1077.50,781.37C1049.27,796.82 1017.71,812.50 974.96,832.29C964.65,837.06 964.35,837.54 967.25,844.41C973.29,858.74 982.79,866.53 1000.50,871.68C1008.85,874.11 1036.93,874.07 1049.00,871.61C1074.50,866.42 1091.60,860.43 1119.00,847.11C1124.78,844.30 1132.20,840.44 1135.50,838.52C1138.80,836.61 1142.40,834.59 1143.50,834.03C1144.60,833.46 1146.17,832.57 1147.00,832.04C1147.83,831.51 1153.45,828.11 1159.50,824.49C1165.55,820.87 1173.88,815.68 1178.00,812.95C1182.12,810.23 1186.40,807.55 1187.50,807.00C1188.60,806.45 1193.33,803.27 1198.00,799.94C1202.67,796.61 1208.30,792.71 1210.50,791.28C1215.74,787.86 1245.12,765.77 1251.37,760.56C1286.65,731.14 1306.12,711.43 1313.05,698.13C1315.51,693.40 1315.32,686.53 1312.42,676.00C1311.59,672.98 1310.22,668.02 1309.39,665.00C1305.73,651.70 1300.11,633.23 1297.54,626.00C1295.27,619.63 1290.88,606.55 1290.00,603.50C1288.88,599.67 1283.74,585.14 1280.97,578.00C1279.80,574.98 1278.39,570.92 1277.83,569.00C1277.27,567.08 1276.41,565.07 1275.91,564.55C1275.41,564.03 1275.00,562.97 1275.00,562.20C1275.00,561.43 1274.39,559.38 1273.64,557.65C1272.89,555.92 1271.49,552.48 1270.54,550.00C1269.59,547.52 1268.23,544.15 1267.52,542.50C1266.81,540.85 1264.78,535.90 1263.00,531.50C1261.22,527.10 1259.15,522.04 1258.38,520.25C1257.62,518.46 1256.40,515.54 1255.67,513.75C1254.94,511.96 1253.64,508.93 1252.78,507.00C1251.92,505.07 1249.54,499.45 1247.49,494.50C1244.14,486.40 1242.49,482.58 1237.34,471.00C1236.48,469.07 1235.42,466.78 1234.98,465.90C1227.66,451.34 1225.81,444.74 1226.47,435.58C1227.70,418.67 1235.20,383.00 1237.53,383.00C1240.57,383.00 1264.71,413.39 1269.32,423.04C1269.71,423.84 1270.89,425.85 1271.94,427.50C1273.00,429.15 1274.84,432.30 1276.04,434.50C1277.24,436.70 1279.60,440.98 1281.29,444.00C1282.97,447.02 1286.03,452.88 1288.08,457.00C1292.53,465.96 1296.40,474.42 1303.44,490.50C1304.16,492.15 1305.52,495.52 1306.47,498.00C1307.41,500.48 1308.78,503.85 1309.50,505.50C1310.23,507.15 1311.05,509.40 1311.33,510.50C1311.60,511.60 1312.78,514.98 1313.94,518.00C1318.63,530.18 1326.81,555.94 1330.30,569.50C1334.14,584.41 1335.00,587.93 1336.37,594.50C1339.85,611.12 1342.91,630.02 1345.46,650.50C1348.18,672.38 1350.05,685.18 1351.57,692.50C1352.37,696.35 1353.02,700.36 1353.01,701.41C1352.99,704.41 1360.82,730.74 1363.44,736.50C1374.95,761.78 1389.08,780.92 1411.61,801.73C1421.94,811.27 1439.65,825.00 1441.63,825.00C1442.02,825.00 1443.05,825.62 1443.92,826.37C1445.30,827.57 1451.96,831.38 1460.00,835.56C1467.67,839.56 1476.43,843.05 1477.63,842.59C1478.65,842.20 1479.00,839.80 1479.00,833.28C1479.01,817.56 1484.60,794.99 1491.61,782.37C1503.50,760.98 1518.34,748.91 1550.50,734.51C1567.78,726.77 1584.42,719.92 1593.00,717.00C1594.38,716.53 1597.97,715.19 1601.00,714.02C1610.03,710.53 1636.17,702.00 1637.90,701.98C1639.98,701.96 1642.62,700.29 1641.83,699.49C1640.90,698.57 1597.22,698.92 1575.00,700.04C1519.98,702.80 1357.00,704.91 1357.00,702.87C1357.00,702.24 1357.49,699.88 1358.09,697.62C1360.50,688.48 1364.11,674.53 1366.58,664.75C1369.97,651.34 1371.45,647.67 1374.05,646.16C1375.45,645.35 1378.38,642.23 1380.55,639.22C1386.27,631.30 1415.08,606.00 1418.39,606.00C1418.66,606.00 1421.71,604.06 1425.19,601.70C1430.66,597.97 1438.50,593.13 1452.00,585.13C1453.92,583.99 1456.85,582.39 1458.50,581.58C1460.15,580.76 1463.75,578.75 1466.50,577.11C1469.25,575.46 1473.75,572.97 1476.50,571.56C1479.25,570.16 1486.90,566.10 1493.50,562.54C1511.95,552.60 1561.90,528.00 1563.63,528.00C1564.00,528.00 1567.16,526.65 1570.66,525.00C1574.15,523.35 1577.50,522.00 1578.10,522.00C1578.70,522.00 1580.39,521.37 1581.85,520.59C1583.31,519.82 1586.75,518.26 1589.50,517.13C1592.25,516.00 1594.40,514.64 1594.27,514.11C1594.15,513.58 1590.51,508.50 1586.18,502.82C1576.62,490.28 1575.00,485.95 1575.00,473.07C1575.01,463.75 1577.96,444.81 1580.01,440.98C1580.55,439.96 1581.00,438.38 1581.00,437.46C1581.00,433.86 1590.37,416.93 1595.49,411.27C1604.71,401.09 1611.32,398.54 1628.50,398.53C1643.09,398.51 1642.42,398.38 1658.50,404.41C1677.59,411.58 1725.55,445.69 1737.22,460.42C1741.09,465.30 1741.12,465.39 1740.48,471.92C1739.58,481.09 1735.52,498.86 1732.40,507.25C1731.63,509.31 1730.30,512.91 1729.44,515.25C1728.58,517.59 1726.66,521.93 1725.17,524.89C1722.20,530.80 1722.42,530.69 1702.50,535.63C1692.70,538.06 1678.44,541.99 1670.50,544.45C1668.30,545.13 1663.80,546.48 1660.50,547.43C1657.20,548.39 1652.47,549.94 1650.00,550.87L1645.50,552.56L1644.74,563.93C1643.92,576.22 1641.14,587.32 1638.76,587.80C1637.72,588.00 1636.78,586.25 1635.55,581.80C1631.58,567.36 1624.15,555.72 1621.57,559.88C1621.27,560.37 1619.78,561.01 1618.26,561.30C1615.48,561.83 1603.22,566.06 1593.00,570.03C1589.97,571.20 1585.92,572.61 1584.00,573.17C1582.08,573.73 1580.07,574.59 1579.55,575.09C1579.03,575.59 1577.97,576.00 1577.20,576.00C1576.43,576.00 1574.16,576.71 1572.15,577.57C1570.14,578.44 1567.15,579.73 1565.50,580.45C1563.85,581.16 1560.47,582.52 1558.00,583.47C1552.57,585.54 1548.97,587.05 1543.00,589.76C1540.53,590.88 1535.80,593.02 1532.50,594.51C1522.28,599.14 1500.94,609.80 1491.50,614.99C1486.55,617.71 1481.83,620.26 1481.00,620.67C1473.21,624.48 1449.00,640.01 1449.00,641.20C1449.00,642.55 1639.68,641.64 1658.00,640.20C1665.97,639.57 1683.53,638.36 1697.00,637.51C1742.11,634.66 1802.88,630.50 1829.00,628.48C1856.75,626.33 1857.55,626.42 1855.22,631.35C1854.66,632.53 1852.53,637.55 1850.49,642.50C1846.77,651.51 1844.95,655.61 1839.12,668.25C1837.40,671.97 1836.00,675.43 1836.00,675.95C1836.00,676.46 1835.06,678.49 1833.90,680.44C1831.90,683.83 1831.54,684.00 1826.35,684.00C1822.11,684.00 1819.62,684.70 1815.20,687.13C1812.06,688.85 1808.38,690.84 1807.00,691.54C1797.45,696.42 1771.10,707.57 1761.00,711.00C1759.62,711.47 1756.03,712.82 1753.00,714.00C1749.97,715.18 1746.38,716.53 1745.00,717.00C1743.62,717.47 1740.03,718.82 1737.00,720.01C1733.97,721.20 1730.15,722.55 1728.50,723.01C1726.85,723.47 1721.00,725.49 1715.50,727.49C1710.00,729.49 1704.15,731.49 1702.50,731.93C1700.85,732.38 1698.38,733.20 1697.00,733.77C1695.62,734.33 1687.75,736.91 1679.50,739.49C1671.25,742.07 1662.70,744.76 1660.50,745.46C1658.30,746.16 1653.80,747.53 1650.50,748.50C1647.20,749.47 1642.92,750.83 1641.00,751.52C1639.08,752.21 1635.03,753.50 1632.00,754.39C1623.69,756.81 1588.26,768.60 1582.00,771.02C1578.97,772.19 1575.38,773.53 1574.00,774.00C1537.10,786.55 1497.45,809.14 1499.58,816.40C1501.75,823.79 1513.81,836.15 1524.50,841.94C1526.70,843.13 1529.17,844.50 1530.00,844.99C1532.74,846.61 1544.99,852.00 1545.94,852.00C1546.45,852.00 1551.06,853.29 1556.18,854.87C1566.95,858.18 1575.47,860.15 1589.50,862.54C1595.00,863.48 1599.97,864.37 1600.54,864.51C1602.03,864.89 1606.87,904.03 1607.51,920.83C1607.68,925.41 1608.04,929.37 1608.31,929.64C1608.95,930.28 1628.73,919.87 1637.54,914.25C1638.62,913.56 1640.40,912.54 1641.50,911.98C1642.60,911.43 1644.70,910.19 1646.16,909.24C1647.63,908.28 1651.00,906.19 1653.66,904.60C1677.03,890.59 1708.36,867.54 1718.55,856.88C1729.67,845.24 1732.09,840.84 1734.11,828.61C1735.50,820.25 1737.46,816.00 1739.94,816.00C1741.47,816.00 1742.86,814.21 1745.53,808.80C1758.54,782.48 1777.91,782.28 1790.70,808.33C1798.34,823.90 1799.51,832.71 1795.16,842.12C1792.00,848.96 1790.92,849.53 1781.80,849.25C1771.42,848.92 1761.29,846.35 1746.21,840.23C1738.93,837.26 1739.05,837.19 1736.09,846.50C1731.49,860.97 1724.71,871.33 1711.88,883.50C1702.52,892.39 1684.18,906.35 1677.96,909.32C1677.16,909.71 1675.29,910.80 1673.81,911.76C1653.68,924.79 1630.09,937.30 1614.00,943.48C1611.53,944.42 1608.02,945.83 1606.22,946.60C1604.41,947.37 1602.29,948.00 1601.50,948.00C1600.71,948.00 1598.59,948.63 1596.78,949.40C1591.01,951.86 1585.75,953.71 1575.00,957.06C1569.22,958.87 1560.69,961.61 1556.04,963.17C1546.66,966.31 1544.00,966.64 1544.00,964.68ZM2212.58,960.13C2211.86,958.97 2214.37,951.27 2217.97,943.57C2221.03,937.01 2227.51,929.50 2232.44,926.77C2233.70,926.07 2236.60,924.48 2238.87,923.23C2242.60,921.18 2244.51,918.00 2242.00,918.00C2239.69,918.00 2227.08,911.35 2221.93,907.41C2209.81,898.16 2207.67,891.60 2213.27,880.87C2221.42,865.24 2245.59,838.71 2261.00,828.47C2277.99,817.17 2287.07,820.23 2290.09,838.28C2291.64,847.49 2290.61,852.85 2285.93,860.00C2278.84,870.83 2274.75,872.89 2273.54,866.25C2270.93,851.85 2268.46,848.89 2260.90,851.14C2247.73,855.05 2232.09,867.02 2232.03,873.23C2231.96,879.83 2247.87,890.93 2263.27,895.03C2279.15,899.25 2288.49,896.55 2313.50,880.48C2334.31,867.11 2337.39,868.20 2328.88,885.93C2323.81,896.49 2321.07,900.23 2316.81,902.41C2314.99,903.33 2311.70,905.11 2309.50,906.35C2292.80,915.79 2287.09,918.99 2281.00,922.31C2278.53,923.66 2274.93,925.70 2273.00,926.85C2271.07,928.00 2268.15,929.61 2266.50,930.42C2264.85,931.24 2261.25,933.25 2258.50,934.88C2255.75,936.52 2251.47,938.96 2249.00,940.31C2246.53,941.66 2242.93,943.71 2241.00,944.87C2239.07,946.03 2236.82,947.30 2236.00,947.69C2233.22,949.00 2219.51,957.20 2218.00,958.45C2215.88,960.21 2213.15,961.05 2212.58,960.13ZM2055.50,949.27C2042.24,945.17 2031.23,938.10 2019.15,925.91C2012.88,919.59 2001.00,904.10 2001.00,902.25C2001.00,901.92 2000.37,900.95 1999.60,900.08C1994.86,894.72 1980.00,861.04 1980.00,855.65C1980.00,851.22 1977.19,851.61 1964.73,857.78C1949.75,865.19 1939.28,870.00 1938.13,870.00C1937.34,870.00 1927.22,874.08 1919.50,877.51C1917.85,878.25 1913.80,879.76 1910.50,880.88C1907.20,881.99 1902.03,883.84 1899.00,884.99C1895.97,886.13 1884.72,889.96 1874.00,893.51C1863.28,897.05 1853.15,900.44 1851.50,901.04C1849.85,901.64 1846.25,902.79 1843.50,903.59C1838.15,905.14 1831.27,907.20 1824.00,909.41C1821.53,910.16 1817.13,911.49 1814.24,912.35C1811.35,913.21 1806.62,914.63 1803.74,915.51C1800.86,916.39 1796.92,917.51 1795.00,918.00C1793.08,918.49 1789.25,919.58 1786.50,920.42C1751.99,930.91 1740.87,931.96 1749.75,923.87C1754.46,919.58 1747.85,923.07 1839.50,876.53C1864.40,863.89 1875.03,858.35 1886.67,851.94C1897.90,845.75 1902.63,843.15 1906.50,841.04C1908.70,839.84 1911.85,838.00 1913.50,836.94C1915.15,835.89 1917.17,834.70 1918.00,834.31C1918.83,833.93 1924.90,830.41 1931.50,826.51C1942.39,820.06 1949.18,815.83 1963.35,806.64L1968.19,803.50L1967.63,795.50C1967.31,791.10 1966.54,782.33 1965.91,776.00C1963.97,756.46 1966.61,705.04 1970.15,693.50C1973.09,683.92 1978.59,680.92 1980.24,688.00C1980.69,689.92 1981.04,701.69 1981.02,714.14C1981.00,735.13 1983.24,779.83 1984.65,786.33C1985.69,791.12 1987.22,790.48 2002.61,778.86C2045.29,746.63 2066.44,722.21 2071.36,699.50C2077.82,669.64 2076.87,620.45 2068.43,548.50C2063.28,504.64 2061.38,490.56 2053.46,437.75C2052.66,432.39 2051.32,423.50 2050.50,418.00C2048.94,407.61 2046.86,393.94 2044.49,378.50C2041.41,358.50 2039.99,349.00 2038.53,338.75C2037.69,332.84 2036.31,323.16 2035.47,317.25C2031.37,288.47 2027.40,259.22 2023.50,229.00C2022.61,222.12 2021.26,211.78 2020.50,206.00C2019.73,200.22 2018.39,189.65 2017.50,182.50C2016.62,175.35 2015.26,164.32 2014.48,158.00C2012.84,144.70 2010.79,127.59 2008.38,107.00C2006.50,90.99 2004.75,85.37 1998.92,76.64C1993.79,68.96 1993.80,68.88 1999.71,53.50C2003.32,44.11 2013.34,23.53 2016.02,19.97C2018.56,16.61 2020.22,17.89 2024.73,26.66C2026.95,30.97 2030.38,37.42 2032.37,41.00C2035.69,47.00 2043.82,63.25 2063.40,103.00C2067.60,111.53 2072.59,121.42 2074.49,125.00C2083.48,141.94 2084.63,159.35 2076.47,154.98C2075.12,154.26 2069.62,149.67 2064.25,144.77C2053.73,135.18 2051.25,133.62 2049.18,135.30C2047.65,136.53 2048.23,148.09 2050.49,161.50C2051.23,165.90 2052.58,174.00 2053.49,179.50C2054.40,185.00 2055.77,193.10 2056.53,197.50C2057.29,201.90 2058.59,209.55 2059.41,214.50C2060.23,219.45 2061.60,227.59 2062.45,232.59C2063.30,237.58 2064.00,242.86 2064.00,244.32C2064.00,245.77 2064.63,250.46 2065.41,254.73C2066.18,259.00 2067.55,267.68 2068.45,274.00C2069.35,280.32 2070.75,289.55 2071.56,294.50C2072.36,299.45 2073.68,307.55 2074.49,312.50C2075.29,317.45 2076.64,325.66 2077.47,330.75C2078.31,335.84 2079.69,344.16 2080.53,349.25C2081.36,354.34 2082.75,362.77 2083.60,368.00C2084.45,373.23 2085.75,381.10 2086.50,385.50C2087.25,389.90 2088.60,398.23 2089.50,404.00C2090.40,409.77 2091.76,418.32 2092.52,423.00C2093.80,430.92 2094.68,436.87 2098.47,463.25C2103.75,499.92 2105.99,522.04 2106.97,547.00C2108.39,583.08 2106.48,618.75 2101.39,651.50C2098.70,668.79 2092.64,695.52 2089.49,704.00C2088.78,705.92 2087.27,710.42 2086.14,714.00C2085.02,717.58 2083.14,722.98 2081.97,726.00C2080.81,729.02 2079.50,732.62 2079.06,734.00C2076.68,741.60 2064.00,766.59 2057.86,775.80C2056.29,778.17 2055.00,780.32 2055.00,780.60C2055.00,780.87 2051.54,785.69 2047.32,791.30C2038.09,803.55 2019.59,822.29 2008.31,830.81C1997.95,838.64 1998.22,838.02 2001.93,845.32C2007.32,855.94 2015.93,867.75 2023.65,875.13C2028.76,880.02 2040.02,888.00 2041.79,888.00C2042.37,888.00 2044.11,888.64 2045.67,889.43C2047.23,890.22 2051.71,891.57 2055.64,892.43C2081.56,898.12 2102.00,886.58 2121.57,855.20C2123.73,851.74 2126.28,847.69 2127.24,846.20C2128.19,844.72 2129.43,842.60 2130.00,841.50C2130.56,840.40 2131.84,838.15 2132.84,836.50C2133.83,834.85 2136.36,830.35 2138.46,826.50C2143.72,816.82 2147.83,809.31 2150.76,804.00C2152.13,801.52 2155.73,794.79 2158.77,789.03C2161.80,783.27 2165.12,777.20 2166.13,775.53C2167.15,773.86 2168.30,771.83 2168.68,771.00C2169.25,769.77 2181.66,749.01 2186.29,741.54C2203.14,714.33 2227.61,690.11 2249.41,679.04L2256.50,675.44L2256.25,663.97C2256.11,657.66 2255.35,644.17 2254.54,634.00C2253.74,623.83 2252.38,605.83 2251.52,594.00C2250.67,582.17 2249.30,564.17 2248.49,554.00C2247.68,543.83 2246.33,526.50 2245.48,515.50C2239.78,441.51 2234.08,374.67 2230.49,339.50C2229.70,331.80 2228.36,318.52 2227.50,310.00C2226.00,294.99 2224.45,279.69 2221.47,250.50C2218.14,217.71 2215.79,194.26 2212.51,161.00C2211.73,153.03 2210.36,137.28 2209.48,126.00C2207.23,97.25 2206.19,92.34 2200.09,81.80C2194.95,72.92 2195.01,72.10 2202.02,54.00C2203.19,50.98 2204.52,47.38 2204.98,46.00C2208.71,34.68 2215.93,21.00 2218.16,21.00C2219.22,21.00 2226.25,31.91 2232.00,42.50C2234.38,46.90 2237.23,52.08 2238.32,54.00C2241.91,60.35 2279.47,135.43 2280.84,139.00C2285.22,150.40 2285.58,159.00 2281.67,159.00C2279.83,159.00 2274.13,154.69 2264.59,146.09C2256.69,138.96 2253.46,137.22 2250.35,138.42C2248.32,139.20 2249.01,172.53 2251.45,192.00C2252.25,198.32 2253.62,210.03 2254.50,218.00C2255.38,225.97 2256.73,238.12 2257.50,245.00C2258.27,251.88 2259.62,264.02 2260.50,272.00C2261.38,279.98 2262.73,292.12 2263.51,299.00C2264.29,305.88 2265.63,318.48 2266.49,327.00C2267.36,335.52 2268.73,348.35 2269.55,355.50C2270.36,362.65 2271.02,370.52 2271.01,373.00C2271.00,375.48 2271.65,384.25 2272.46,392.50C2273.26,400.75 2274.63,416.27 2275.49,427.00C2276.35,437.73 2277.70,454.38 2278.50,464.00C2281.26,497.70 2283.83,532.02 2287.46,584.00C2288.28,595.83 2289.25,621.76 2289.60,641.63C2289.95,661.50 2290.52,678.20 2290.87,678.74C2291.22,679.28 2292.89,680.43 2294.58,681.30C2300.14,684.15 2307.86,690.89 2311.72,696.28C2316.03,702.30 2315.73,701.80 2323.51,716.50C2331.17,730.99 2330.98,730.66 2335.12,737.00C2349.33,758.79 2369.54,767.88 2404.00,767.98C2425.76,768.04 2451.66,761.49 2467.00,752.03C2467.82,751.52 2470.74,749.90 2473.48,748.43C2481.12,744.31 2490.79,737.71 2498.35,731.45L2505.21,725.78L2504.73,706.64C2504.28,688.18 2503.64,678.94 2500.43,644.50C2496.76,605.10 2495.83,595.79 2494.46,585.00C2493.66,578.67 2493.00,571.70 2493.00,569.50C2493.00,567.30 2492.35,560.33 2491.54,554.00C2490.74,547.67 2489.37,535.98 2488.49,528.00C2487.62,520.02 2486.27,507.88 2485.50,501.00C2483.46,482.85 2481.46,464.39 2476.53,418.25C2473.29,387.93 2471.59,370.77 2467.48,326.75C2466.65,317.81 2465.29,304.20 2464.47,296.50C2463.65,288.80 2462.99,279.79 2462.99,276.48C2463.00,268.60 2462.11,267.11 2446.50,248.80C2427.84,226.92 2413.23,209.46 2407.49,202.17C2404.74,198.70 2399.91,192.62 2396.75,188.67C2389.05,179.07 2352.95,131.12 2339.67,112.87C2333.82,104.82 2327.43,96.83 2325.48,95.11C2321.23,91.38 2312.87,87.00 2310.01,87.00C2307.04,87.00 2306.24,83.99 2305.05,68.32C2302.93,40.28 2303.87,30.00 2308.54,30.00C2310.08,30.00 2318.29,34.75 2324.00,38.93C2325.93,40.34 2328.41,42.04 2329.50,42.70C2330.60,43.36 2334.57,45.83 2338.32,48.20C2342.07,50.56 2346.22,53.17 2347.53,54.00C2351.07,56.21 2393.73,82.33 2395.76,83.52C2397.86,84.75 2404.23,88.82 2413.00,94.53C2424.18,101.81 2431.60,110.61 2429.47,114.05C2428.61,115.44 2416.50,114.58 2408.00,112.52C2399.89,110.57 2390.28,109.74 2389.54,110.93C2388.33,112.89 2401.25,132.50 2414.06,148.15C2416.01,150.54 2421.19,156.99 2425.56,162.48C2432.51,171.21 2445.44,187.05 2451.09,193.75C2455.48,198.96 2455.54,197.58 2452.49,163.50C2451.70,154.70 2450.35,137.82 2449.48,126.00C2447.48,98.67 2444.32,86.30 2437.15,77.75C2435.31,75.55 2437.72,66.01 2443.60,52.22C2444.37,50.41 2445.00,48.23 2445.00,47.37C2445.00,46.51 2445.62,44.61 2446.37,43.15C2447.13,41.69 2449.49,36.50 2451.62,31.61C2457.47,18.18 2458.94,18.17 2465.97,31.50C2466.55,32.60 2469.26,37.55 2471.99,42.50C2477.06,51.70 2511.14,119.86 2514.74,128.00C2520.47,140.96 2522.60,150.44 2520.50,153.65C2518.58,156.57 2518.92,156.79 2505.07,143.84C2488.93,128.74 2488.00,129.02 2488.00,148.87C2488.00,164.85 2489.44,181.34 2494.52,223.50C2495.31,230.10 2496.23,238.07 2496.55,241.22C2497.18,247.39 2497.94,248.46 2512.59,264.00C2515.96,267.57 2521.59,273.64 2525.11,277.47C2532.45,285.47 2543.17,297.07 2550.47,304.88C2557.42,312.32 2556.59,311.41 2566.50,322.50C2571.41,328.00 2575.69,332.73 2576.00,333.00C2576.31,333.27 2583.05,340.70 2590.98,349.50C2598.91,358.30 2607.75,367.98 2610.62,371.00C2613.49,374.02 2616.83,377.76 2618.03,379.30C2622.76,385.34 2623.11,382.29 2620.53,357.50C2619.18,344.55 2618.45,336.99 2614.47,295.50C2613.67,287.25 2612.33,273.30 2611.48,264.50C2609.53,244.47 2607.50,223.17 2605.56,202.50C2604.73,193.70 2603.38,179.30 2602.55,170.50C2600.78,151.75 2598.28,120.92 2597.58,109.43C2596.82,96.95 2593.71,86.26 2588.39,77.82C2584.87,72.25 2585.21,68.57 2590.63,53.75C2593.05,47.13 2595.22,41.58 2596.58,38.50C2605.54,18.35 2605.11,18.79 2609.75,24.75C2611.35,26.81 2612.97,29.18 2613.34,30.00C2613.71,30.82 2616.25,35.55 2618.97,40.50C2624.23,50.07 2647.25,96.12 2655.95,114.50C2658.82,120.55 2661.56,126.26 2662.05,127.18C2664.50,131.85 2667.26,142.12 2667.37,147.00C2667.57,155.73 2665.48,155.12 2652.05,142.55C2641.15,132.34 2637.28,130.12 2635.48,133.04C2634.51,134.61 2634.87,163.14 2636.00,174.50C2638.28,197.36 2642.84,236.82 2647.49,274.00C2648.28,280.32 2649.62,291.24 2650.46,298.25C2651.29,305.26 2652.65,316.51 2653.46,323.25C2657.03,352.75 2660.49,385.63 2662.67,410.71L2664.42,430.92L2671.46,439.31C2675.33,443.92 2687.95,458.68 2699.50,472.10C2724.33,500.95 2732.02,510.13 2743.55,524.66C2748.28,530.62 2754.13,537.98 2756.54,541.00C2769.81,557.64 2795.02,594.76 2799.32,604.00C2799.70,604.83 2800.98,607.08 2802.15,609.00C2805.42,614.35 2815.54,634.82 2817.98,641.00C2819.18,644.02 2820.74,647.85 2821.46,649.50C2826.59,661.21 2831.25,680.57 2833.06,697.65C2835.49,720.56 2829.65,756.99 2824.10,753.56C2823.49,753.19 2823.00,751.79 2823.00,750.46C2823.00,749.13 2822.38,746.34 2821.63,744.27C2820.88,742.20 2819.51,737.80 2818.60,734.50C2816.14,725.64 2811.01,709.08 2809.31,704.50C2804.80,692.40 2790.67,664.16 2783.04,652.00C2782.53,651.17 2780.21,647.35 2777.89,643.50C2775.57,639.65 2770.26,631.39 2766.09,625.14C2761.91,618.89 2758.05,613.05 2757.50,612.17C2753.60,605.94 2732.25,578.10 2711.04,551.58C2681.53,514.69 2671.75,503.00 2670.41,503.00C2669.01,503.00 2669.17,509.62 2671.49,547.00C2676.61,629.78 2677.82,663.75 2676.84,697.50C2675.36,748.16 2670.33,788.45 2661.53,819.97C2659.01,828.98 2651.74,842.45 2649.19,842.82C2647.98,843.00 2646.98,842.77 2646.95,842.32C2646.92,841.87 2646.77,813.60 2646.61,779.50C2646.40,733.37 2645.92,712.38 2644.71,697.50C2643.82,686.50 2642.38,666.02 2641.52,652.00C2640.66,637.98 2639.30,616.15 2638.49,603.50C2637.68,590.85 2636.33,569.70 2635.49,556.50C2634.65,543.30 2633.50,526.20 2632.93,518.50C2632.37,510.80 2631.49,497.07 2630.97,488.00C2630.46,478.93 2629.64,467.32 2629.15,462.22L2628.27,452.94L2621.44,445.72C2617.68,441.75 2610.51,434.23 2605.51,429.00C2595.54,418.60 2586.55,408.95 2572.00,393.05C2566.78,387.34 2562.05,382.18 2561.50,381.58C2559.24,379.14 2538.98,356.07 2532.00,348.00C2515.89,329.37 2509.56,322.49 2508.25,322.17C2506.74,321.79 2506.94,325.47 2509.50,345.00C2511.27,358.47 2513.59,380.75 2518.52,431.50C2519.37,440.30 2520.71,452.90 2521.49,459.50C2528.12,515.70 2531.53,553.28 2533.52,592.00C2535.76,635.92 2535.59,647.09 2532.02,687.00C2530.36,705.53 2525.88,729.43 2521.25,744.50C2513.54,769.59 2493.06,795.55 2471.45,807.62C2460.54,813.71 2441.73,822.00 2438.81,822.00C2437.74,822.00 2436.05,822.44 2435.06,822.97C2429.09,826.16 2413.19,828.41 2396.50,828.42C2379.26,828.43 2373.91,827.60 2364.22,823.42C2362.41,822.64 2360.53,822.00 2360.04,822.00C2353.44,822.00 2327.02,797.23 2321.64,786.00C2321.24,785.17 2319.40,781.80 2317.54,778.50C2314.00,772.24 2312.13,768.51 2306.22,756.00C2300.88,744.69 2286.97,731.45 2286.34,737.08C2282.22,774.19 2276.31,797.34 2268.01,809.00C2264.72,813.61 2263.98,814.06 2261.65,812.81C2259.75,811.79 2259.70,810.82 2260.20,782.63C2260.48,766.61 2260.44,748.55 2260.10,742.50L2259.50,731.50L2255.69,731.73C2253.60,731.85 2250.68,732.60 2249.19,733.40C2247.71,734.19 2245.82,735.11 2245.00,735.43C2244.18,735.76 2242.15,736.91 2240.50,738.00C2238.85,739.09 2236.82,740.29 2236.00,740.67C2232.79,742.14 2218.89,753.24 2213.49,758.64C2204.42,767.71 2190.53,787.30 2181.06,804.37C2179.27,807.60 2176.58,812.33 2175.09,814.87C2173.60,817.42 2166.18,832.10 2158.59,847.50C2132.92,899.62 2132.66,900.11 2123.21,914.43C2111.61,931.99 2097.21,944.97 2084.50,949.30C2078.15,951.47 2062.57,951.45 2055.50,949.27ZM1277.72,939.33C1272.83,938.51 1264.66,929.43 1262.17,922.06C1254.58,899.53 1266.31,869.47 1300.44,824.05C1325.26,791.02 1329.00,786.75 1329.00,791.47C1329.00,795.16 1318.51,815.77 1311.67,825.50C1294.49,849.96 1284.13,871.56 1284.02,883.14C1283.92,894.41 1294.62,908.00 1303.60,908.00C1305.11,908.00 1314.00,899.26 1314.00,897.78C1314.00,896.37 1320.37,888.15 1321.97,887.50C1327.28,885.31 1324.61,900.46 1317.74,911.48C1305.13,931.69 1290.97,941.55 1277.72,939.33ZM2534.46,926.93C2533.64,925.60 2539.45,919.76 2543.50,917.86C2544.60,917.34 2548.20,915.40 2551.50,913.55C2558.33,909.71 2568.23,904.76 2582.00,898.30C2590.84,894.15 2593.68,892.87 2601.50,889.51C2603.15,888.80 2607.65,886.79 2611.50,885.03C2615.35,883.28 2619.85,881.27 2621.50,880.57C2625.12,879.02 2631.55,876.11 2639.10,872.60C2642.17,871.17 2644.96,870.00 2645.28,870.00C2645.60,870.00 2650.28,867.92 2655.68,865.39C2661.08,862.85 2668.20,859.53 2671.50,858.00C2688.36,850.20 2694.74,847.14 2708.50,840.23C2724.81,832.04 2731.29,828.64 2740.50,823.43C2743.80,821.57 2747.18,819.73 2748.00,819.34C2748.82,818.96 2755.52,815.01 2762.87,810.57C2770.22,806.13 2776.99,802.05 2777.90,801.50C2811.63,781.19 2841.10,753.37 2844.09,739.02C2845.33,733.06 2846.85,724.83 2848.07,717.50C2850.11,705.18 2850.45,639.88 2848.62,612.00C2845.24,560.75 2841.14,513.30 2836.48,471.50C2835.68,464.35 2834.37,452.43 2833.55,445.00C2829.97,412.29 2828.79,401.79 2827.48,391.00C2824.55,366.89 2823.02,354.07 2821.57,341.50C2816.28,295.68 2815.45,287.50 2809.55,223.00C2806.35,187.97 2802.38,139.39 2801.47,124.00C2800.67,110.51 2798.48,92.94 2797.23,90.00C2796.64,88.62 2795.90,86.83 2795.57,86.00C2795.24,85.17 2794.10,83.15 2793.02,81.50C2785.96,70.68 2786.08,70.04 2800.66,40.50C2812.23,17.04 2812.22,17.04 2819.30,31.14C2821.89,36.29 2825.62,43.42 2827.59,47.00C2829.57,50.58 2833.02,56.88 2835.26,61.00C2837.51,65.12 2840.14,69.85 2841.12,71.50C2842.09,73.15 2844.05,76.75 2845.48,79.50C2846.90,82.25 2848.87,85.85 2849.86,87.50C2850.85,89.15 2853.61,94.10 2855.99,98.50C2858.38,102.90 2861.27,108.08 2862.42,110.00C2869.72,122.22 2874.01,133.91 2874.29,142.32C2874.66,153.73 2871.29,153.64 2858.90,141.90C2841.89,125.78 2841.00,125.64 2841.00,139.19C2841.00,144.13 2841.67,154.77 2842.49,162.83C2845.45,191.97 2847.10,207.74 2848.51,220.50C2849.30,227.65 2850.65,240.03 2851.51,248.00C2852.37,255.97 2853.72,267.68 2854.50,274.00C2855.29,280.32 2856.63,291.35 2857.49,298.50C2858.35,305.65 2859.73,316.90 2860.56,323.50C2861.40,330.10 2862.73,340.79 2863.54,347.25C2864.34,353.71 2865.68,364.40 2866.50,371.00C2867.32,377.60 2868.66,388.29 2869.47,394.75C2872.41,418.31 2873.91,430.80 2875.49,445.00C2876.37,452.98 2877.73,465.12 2878.50,472.00C2884.17,522.46 2886.02,550.86 2886.02,587.50C2886.03,649.03 2880.95,688.51 2868.25,725.50C2866.93,729.35 2865.62,733.40 2865.34,734.50C2864.38,738.28 2855.89,758.41 2852.05,766.00C2844.30,781.33 2837.32,793.59 2832.03,801.10C2830.64,803.08 2827.96,806.91 2826.08,809.60C2815.96,824.09 2796.35,843.67 2781.47,854.14C2776.22,857.83 2756.27,870.00 2755.47,870.00C2755.21,870.00 2752.19,871.28 2748.75,872.84C2745.31,874.41 2740.47,876.48 2738.00,877.45C2735.53,878.42 2732.38,879.66 2731.00,880.21C2722.90,883.42 2696.92,891.33 2681.00,895.44C2672.54,897.62 2665.82,899.44 2658.91,901.41C2655.84,902.28 2652.43,903.00 2651.34,903.00C2650.25,903.00 2647.36,903.62 2644.93,904.37C2642.49,905.12 2636.90,906.51 2632.50,907.45C2628.10,908.38 2622.03,909.75 2619.00,910.48C2615.97,911.22 2609.90,912.57 2605.50,913.48C2601.10,914.40 2594.80,915.74 2591.50,916.46C2588.20,917.19 2581.90,918.54 2577.50,919.47C2568.83,921.29 2560.38,923.34 2552.50,925.51C2544.42,927.74 2535.40,928.45 2534.46,926.93ZM212.00,915.05C143.95,910.10 92.57,875.75 67.54,818.50C53.18,785.67 53.19,726.66 67.55,680.87C68.35,678.32 69.00,675.52 69.00,674.65C69.00,673.78 69.62,671.59 70.38,669.78C71.14,667.98 72.53,664.02 73.46,661.00C74.39,657.98 75.85,653.70 76.69,651.50C77.54,649.30 78.80,645.92 79.51,644.00C85.22,628.42 95.23,606.39 101.62,595.31C103.95,591.29 102.84,590.12 98.71,592.22C96.94,593.13 86.95,597.99 76.50,603.03C66.05,608.07 46.65,617.62 33.40,624.26C16.07,632.94 8.76,636.12 7.40,635.60C5.69,634.94 5.85,634.58 9.00,632.01C12.03,629.52 42.70,610.69 50.68,606.40C52.23,605.57 54.85,604.02 56.50,602.95C58.15,601.89 60.17,600.71 61.00,600.32C61.83,599.93 69.05,595.73 77.05,590.99C85.05,586.25 92.25,582.06 93.05,581.67C93.85,581.29 95.85,580.11 97.50,579.05C99.15,577.98 101.62,576.50 103.00,575.75C111.87,570.93 120.76,565.12 124.80,561.51C130.01,556.85 133.05,555.00 135.49,555.00C136.38,555.00 140.12,553.04 143.80,550.65C152.39,545.07 159.05,540.81 161.20,539.52C186.64,524.25 242.21,481.82 241.69,478.06C241.58,477.27 235.65,472.68 228.50,467.87C206.67,453.18 201.98,445.34 206.41,431.00C210.19,418.79 224.51,403.91 239.55,396.57C268.02,382.69 281.30,409.15 267.56,452.41C266.70,455.11 266.00,457.91 266.00,458.63C266.00,459.77 277.17,468.00 278.72,468.00C279.03,468.00 281.25,469.61 283.65,471.57C287.79,474.96 288.00,475.39 288.00,480.44C288.00,486.35 283.13,500.07 279.82,503.50C277.89,505.50 277.88,505.49 275.76,502.50C272.74,498.24 264.33,490.11 261.71,488.92C258.67,487.54 255.50,485.66 253.73,484.19C252.08,482.82 249.41,483.48 248.66,485.45C246.40,491.34 214.91,524.06 200.66,535.31C193.08,541.29 186.79,550.19 175.89,570.31C173.82,574.14 169.07,583.78 166.14,590.13C162.11,598.85 161.15,601.53 154.86,621.79C150.07,637.23 150.30,664.79 155.37,683.00C168.16,728.87 204.44,751.96 263.81,751.99C289.75,752.01 321.90,746.61 338.78,739.40C340.59,738.63 342.71,738.00 343.50,738.00C344.29,738.00 346.41,737.37 348.22,736.60C350.02,735.83 353.41,734.48 355.75,733.60C366.73,729.46 368.91,728.58 374.73,725.88C378.15,724.30 381.28,723.00 381.67,723.00C382.62,723.00 418.82,704.80 426.50,700.47C429.80,698.61 433.40,696.60 434.50,696.00C436.71,694.80 437.00,694.63 448.86,687.50C453.43,684.75 458.37,681.72 459.84,680.76C461.30,679.80 463.15,678.71 463.95,678.33C477.46,671.85 540.74,624.09 544.09,617.83C545.35,615.48 543.74,603.81 540.76,593.67L538.75,586.83L532.71,587.53C529.39,587.92 525.28,588.65 523.58,589.15C521.89,589.65 513.52,590.71 505.00,591.52C430.28,598.55 388.65,574.79 394.97,528.72C398.53,502.77 415.22,476.80 440.50,457.88C461.61,442.08 486.93,439.32 509.02,450.42C530.23,461.07 553.65,490.30 563.97,519.00C565.78,524.01 567.39,524.77 572.92,523.18C574.89,522.62 579.42,521.40 583.00,520.47C591.76,518.19 598.51,515.55 598.45,514.43C598.37,512.71 596.94,499.57 595.53,487.50C593.41,469.36 591.24,450.12 589.49,434.00C588.63,426.02 587.26,414.32 586.46,408.00C585.65,401.68 585.00,395.06 585.00,393.31C585.00,389.95 582.13,387.00 578.86,387.00C577.93,387.00 575.89,386.36 574.33,385.59C572.77,384.81 569.70,383.35 567.50,382.34C559.96,378.87 547.50,370.22 539.95,363.21C533.28,357.02 520.37,341.90 519.00,338.67C518.73,338.03 517.24,335.55 515.69,333.18C512.55,328.34 504.55,313.06 503.71,310.30C503.41,309.31 502.20,306.02 501.02,303.00C498.35,296.16 496.36,289.06 493.92,277.68C491.35,265.65 489.29,263.91 489.07,273.57C489.03,275.26 488.38,278.64 487.61,281.07C486.85,283.51 485.45,288.43 484.51,292.00C483.56,295.57 482.11,300.30 481.28,302.50C480.45,304.70 479.19,308.07 478.48,310.00C468.38,337.41 458.11,354.10 441.03,370.89C412.67,398.76 372.27,412.20 335.00,406.16C286.48,398.30 258.74,366.27 250.81,309.00C246.91,280.80 251.78,241.96 265.52,191.50C266.92,186.36 269.13,177.67 271.50,168.00C275.87,150.12 274.94,143.64 268.94,150.07C262.42,157.04 251.67,177.22 244.46,196.00C243.51,198.47 242.11,201.92 241.36,203.65C240.61,205.38 240.00,207.50 240.00,208.34C240.00,209.19 239.57,210.15 239.04,210.48C238.51,210.80 237.63,212.52 237.09,214.29C236.55,216.05 234.48,222.00 232.48,227.50C230.48,233.00 228.47,238.85 228.01,240.50C226.92,244.42 225.08,249.69 223.37,253.78C222.62,255.59 222.00,257.71 222.00,258.50C222.00,259.29 221.37,261.41 220.60,263.22C219.83,265.02 218.47,268.98 217.59,272.00C216.71,275.02 214.64,281.77 213.00,287.00C211.36,292.23 209.28,298.98 208.39,302.00C204.14,316.35 200.76,326.72 197.96,334.00C196.80,337.02 195.48,340.62 195.02,342.00C193.56,346.42 183.91,367.97 182.04,371.00C181.53,371.82 179.96,374.63 178.56,377.23C168.42,396.00 156.57,408.62 145.57,412.33C130.96,417.27 114.87,412.67 97.68,398.63C86.17,389.23 73.34,367.73 65.09,344.00C52.74,308.50 50.36,260.10 58.61,212.00C63.28,184.78 72.67,162.10 75.54,171.13C76.32,173.58 75.25,190.31 73.90,197.00C70.93,211.63 71.02,263.67 74.04,279.50C82.73,325.02 96.99,347.91 121.36,355.44C137.73,360.50 153.82,352.43 166.69,332.70C171.41,325.48 180.00,308.99 180.00,307.16C180.00,306.61 180.63,304.89 181.40,303.33C184.01,298.07 186.00,292.94 186.00,291.50C186.00,290.71 186.63,288.59 187.39,286.78C188.16,284.98 189.52,280.80 190.42,277.50C191.32,274.20 192.69,269.25 193.47,266.50C194.25,263.75 195.63,258.57 196.53,255.00C197.44,251.43 198.76,246.25 199.48,243.50C200.19,240.75 201.50,235.69 202.39,232.25C207.79,211.30 207.33,212.93 213.04,194.00C214.78,188.22 216.88,181.70 217.71,179.50C218.55,177.30 219.81,173.93 220.52,172.00C224.94,160.03 234.42,139.13 239.35,130.48C263.60,87.93 288.35,64.10 297.73,74.25C302.78,79.71 304.86,102.90 301.59,117.29C300.82,120.71 299.44,127.10 298.54,131.50C297.64,135.90 296.27,142.20 295.50,145.50C294.17,151.24 292.31,159.54 289.47,172.50C269.66,262.73 271.86,295.84 299.21,319.21C304.43,323.67 307.05,325.31 317.76,330.86C329.47,336.92 342.91,339.39 364.00,339.35C384.98,339.31 395.40,337.50 409.50,331.42C459.78,309.74 479.48,274.59 479.49,206.50C479.50,176.37 473.25,137.57 463.87,109.50C459.04,95.06 458.54,91.85 460.29,86.81C461.11,84.44 462.52,80.03 463.40,77.00C465.10,71.22 468.45,60.53 474.05,43.00C478.17,30.13 478.02,30.31 481.78,33.47C486.79,37.69 501.77,62.41 504.26,70.57C504.58,71.63 505.94,75.65 507.28,79.50C516.50,106.05 521.15,140.09 525.46,212.50C526.71,233.50 529.17,250.35 532.55,261.13C533.35,263.68 534.00,266.26 534.00,266.86C534.00,268.90 541.25,283.47 545.07,289.09C551.70,298.87 570.79,315.00 575.73,315.00C577.21,315.00 576.97,308.91 574.49,284.50C573.71,276.80 572.36,263.07 571.50,254.00C570.63,244.93 569.28,230.97 568.50,223.00C563.83,175.11 561.37,147.68 559.46,122.00C557.38,94.08 555.59,87.13 546.85,73.13C544.96,70.10 551.71,50.27 562.99,25.75C566.49,18.14 568.58,19.25 576.08,32.67C578.88,37.68 592.25,63.29 595.57,70.00C610.34,99.86 623.15,126.43 624.98,131.00C626.20,134.03 627.84,138.07 628.63,140.00C629.43,141.93 630.17,146.20 630.29,149.50C630.62,158.81 628.68,158.31 615.05,145.55C603.16,134.41 600.16,132.96 597.89,137.21C596.57,139.67 597.17,162.31 599.00,179.63C602.13,209.03 603.64,222.07 607.53,253.25C611.47,284.79 612.16,290.28 613.49,300.50C614.28,306.55 615.19,314.34 615.52,317.82C616.41,327.22 616.19,327.00 624.50,327.00C640.08,327.00 665.24,319.82 684.00,310.02C701.37,300.94 703.03,299.50 702.00,294.36C700.79,288.29 698.40,280.33 694.53,269.50C692.56,264.00 689.87,256.29 688.55,252.36C687.23,248.44 685.71,244.39 685.16,243.36C684.62,242.34 682.77,237.45 681.05,232.50C679.34,227.55 677.27,222.23 676.47,220.67C675.66,219.11 675.00,217.38 675.00,216.82C675.00,216.26 674.35,214.38 673.55,212.65C671.74,208.71 663.71,183.53 661.70,175.50C658.61,163.16 657.72,159.40 656.97,155.50C655.35,147.11 653.76,139.27 652.40,133.00C651.63,129.43 650.98,124.92 650.95,123.00C650.79,109.69 645.78,94.97 638.84,87.44C635.31,83.61 634.90,82.69 635.49,79.79C636.08,76.90 644.63,50.68 646.93,44.71C654.73,24.45 654.47,24.74 659.68,30.25C662.91,33.66 679.96,56.54 688.50,68.90C691.25,72.88 696.77,80.64 700.77,86.13C711.81,101.28 714.18,105.91 713.81,111.68C713.32,119.29 711.39,118.99 695.05,108.69C688.74,104.72 686.98,104.63 687.02,108.31C687.05,110.43 690.11,122.90 691.86,128.00C692.33,129.38 693.51,133.20 694.49,136.50C696.91,144.72 699.50,152.46 702.03,159.00C703.20,162.03 704.53,165.62 705.00,167.00C705.47,168.38 706.82,171.97 708.01,175.00C709.20,178.03 710.55,181.85 711.00,183.50C711.45,185.15 712.80,188.97 714.00,192.00C715.20,195.03 716.53,198.85 716.96,200.50C717.39,202.15 718.20,204.62 718.77,206.00C719.71,208.29 721.05,213.01 724.57,226.50C732.52,256.97 729.53,287.71 714.52,329.76C702.65,363.03 675.27,384.31 635.00,391.58C629.77,392.52 625.12,393.63 624.66,394.04C623.88,394.73 624.92,405.43 628.51,433.50C633.92,475.82 636.04,492.12 636.80,497.00C637.58,502.03 638.93,502.42 646.00,499.61C647.92,498.85 651.52,497.46 654.00,496.52C656.48,495.58 659.85,494.23 661.50,493.51C663.15,492.80 670.12,489.86 677.00,486.99C690.39,481.40 696.86,478.55 706.73,473.92C710.15,472.32 713.18,471.00 713.46,471.00C713.73,471.00 717.23,469.48 721.23,467.62C725.23,465.75 731.65,462.78 735.50,461.00C739.35,459.22 745.42,456.41 749.00,454.74C773.75,443.23 781.65,440.84 784.27,444.09C785.35,445.42 785.80,447.06 785.42,448.25C784.75,450.35 782.76,460.96 780.86,472.57C778.47,487.12 788.36,504.00 803.26,510.81C812.71,515.13 815.20,516.00 818.03,516.00C821.48,516.00 821.48,516.01 820.04,503.11C819.51,498.38 818.37,487.30 817.50,478.50C814.66,449.57 812.52,429.13 808.45,391.75C805.30,362.92 803.84,350.26 802.49,340.00C797.90,305.03 793.87,270.10 790.56,236.50C786.17,191.83 779.94,112.51 779.97,101.50C779.99,92.45 776.26,79.99 770.83,70.98L768.11,66.45L770.40,59.98C775.92,44.41 787.97,19.32 791.54,15.96L793.79,13.85L795.68,15.88C796.72,17.00 799.63,22.09 802.16,27.21C810.69,44.50 822.00,68.60 822.00,69.50C822.00,69.93 823.48,73.30 829.47,86.50C832.85,93.95 838.21,106.08 841.53,113.76C842.31,115.56 843.62,118.49 844.45,120.26C849.94,132.09 853.11,147.06 850.96,151.07C849.10,154.56 846.86,153.15 834.16,140.46C820.72,127.02 817.86,125.52 817.13,131.50C816.71,134.96 818.40,157.35 820.56,177.00C824.83,215.88 827.95,242.26 829.57,253.20C830.35,258.54 831.00,264.53 831.00,266.50C831.00,268.47 831.65,274.46 832.44,279.80C833.23,285.13 834.61,295.80 835.51,303.50C836.40,311.20 837.76,322.68 838.52,329.00C839.29,335.32 840.60,346.12 841.43,353.00C844.51,378.41 848.07,411.90 853.48,466.50C854.36,475.30 855.74,488.57 856.55,496.00C857.36,503.43 858.02,510.75 858.01,512.28C857.99,516.09 860.15,516.63 866.86,514.53C888.66,507.69 902.30,494.68 922.44,461.50C936.17,438.88 952.52,419.51 957.30,420.19C959.25,420.46 959.54,421.19 959.81,426.46C960.13,432.74 959.30,435.46 953.71,446.50C946.23,461.26 951.40,474.06 968.74,483.75C982.99,491.72 1016.18,495.37 1030.00,490.49C1036.57,488.18 1042.88,484.47 1043.65,482.48C1044.34,480.68 1039.39,472.51 1032.46,463.99L1027.17,457.48L1028.55,452.49C1030.09,446.95 1033.25,436.16 1035.58,428.50C1036.42,425.75 1037.50,421.93 1037.99,420.00C1038.48,418.07 1039.81,413.35 1040.96,409.50C1042.11,405.65 1043.32,401.04 1043.65,399.25C1044.53,394.56 1047.22,395.08 1051.74,400.79C1067.93,421.28 1070.45,448.94 1060.35,495.50C1054.20,523.89 1043.66,539.46 1024.52,548.46C1011.50,554.59 979.85,554.03 964.22,547.39C962.41,546.63 960.49,546.00 959.95,546.00C958.11,546.00 945.52,539.60 941.50,536.62C932.25,529.77 926.81,523.42 922.88,514.87C919.93,508.48 918.78,509.39 909.40,525.48C907.81,528.22 905.96,531.37 905.29,532.48C904.62,533.59 903.75,535.17 903.35,536.00C898.19,546.57 881.57,563.39 870.00,569.76C863.25,573.47 863.24,573.51 865.37,595.50C873.11,675.52 869.18,772.30 856.97,802.50C850.72,817.95 844.35,825.17 842.63,818.75C842.30,817.51 842.00,804.58 841.98,790.00C841.92,761.70 839.80,707.99 838.09,691.50C837.10,682.02 835.86,669.01 832.45,632.50C830.93,616.26 828.00,586.60 827.68,584.16C827.54,583.15 824.59,582.75 815.46,582.53C774.25,581.52 747.28,551.84 752.24,512.98C752.80,508.55 752.97,504.64 752.61,504.28C751.73,503.40 741.94,506.81 730.50,512.00C713.93,519.51 707.17,522.66 683.50,533.93C668.97,540.85 662.15,543.98 651.00,548.85L642.51,552.57L642.44,586.03C642.36,624.35 641.81,629.62 634.41,662.00C631.88,673.07 627.00,688.84 625.28,691.47C624.58,692.56 624.00,694.04 624.00,694.78C624.00,697.29 611.87,721.33 607.52,727.41C594.11,746.20 568.63,768.33 529.34,795.31C513.77,806.00 487.29,823.36 478.78,828.47C477.83,829.04 472.74,832.20 467.48,835.50C462.21,838.80 457.13,841.96 456.20,842.52C455.26,843.08 452.70,844.69 450.50,846.09C448.30,847.50 445.82,848.97 445.00,849.36C444.18,849.76 442.60,850.63 441.50,851.30C437.70,853.63 425.51,860.51 420.51,863.15C406.22,870.69 375.84,885.00 374.12,885.00C373.64,885.00 370.61,886.17 367.37,887.60C361.59,890.16 347.37,895.31 341.50,896.97C339.85,897.44 337.15,898.28 335.50,898.83C298.00,911.40 249.44,917.77 212.00,915.05ZM2500.00,904.53C2500.00,903.25 2502.97,892.98 2503.80,891.38C2504.34,890.34 2505.62,887.71 2506.64,885.52C2509.78,878.81 2518.22,871.02 2526.54,867.16C2528.71,866.15 2531.55,863.18 2530.89,862.61C2530.68,862.42 2526.68,860.43 2522.00,858.18C2505.40,850.18 2496.97,840.83 2498.39,831.97C2499.77,823.33 2513.91,804.14 2531.12,787.55C2559.43,760.25 2573.69,758.18 2577.95,780.73C2580.16,792.45 2577.94,800.08 2569.53,809.63C2564.02,815.90 2562.70,815.27 2560.51,805.33C2558.33,795.42 2556.85,793.61 2551.50,794.35C2545.10,795.22 2538.47,798.56 2528.80,805.78C2518.15,813.74 2517.43,817.28 2524.96,824.77C2534.38,834.14 2550.96,840.41 2564.77,839.83C2573.49,839.46 2583.71,835.56 2595.18,828.21C2624.29,809.57 2626.23,810.02 2615.10,832.88C2610.96,841.38 2608.11,844.59 2601.92,847.76C2599.49,849.00 2594.80,851.55 2591.50,853.42C2588.20,855.30 2583.47,857.95 2581.00,859.30C2578.53,860.65 2574.93,862.69 2573.00,863.82C2571.07,864.96 2567.25,867.05 2564.50,868.48C2561.75,869.90 2557.93,872.01 2556.00,873.15C2554.07,874.30 2550.47,876.34 2548.00,877.67C2545.53,879.01 2542.82,880.52 2542.00,881.03C2538.24,883.34 2524.80,891.00 2524.50,891.00C2523.94,891.00 2508.61,900.12 2507.00,901.41C2505.24,902.82 2500.00,905.15 2500.00,904.53ZM265.00,856.98C279.88,855.50 290.07,854.15 295.50,852.94C310.14,849.68 329.60,844.45 338.00,841.51C339.93,840.84 343.07,839.73 345.00,839.05C346.93,838.38 349.85,837.45 351.50,837.00C353.15,836.54 356.98,835.21 360.00,834.04C368.73,830.65 373.31,828.95 376.07,828.07C377.48,827.61 379.51,826.78 380.57,826.20C381.63,825.63 388.12,822.82 395.00,819.96C414.46,811.87 447.14,796.14 462.50,787.47C465.80,785.61 469.40,783.62 470.50,783.05C471.60,782.47 473.18,781.58 474.00,781.07C474.82,780.55 481.80,776.42 489.50,771.89C534.06,745.69 578.82,711.11 604.39,683.15L610.20,676.80L609.53,652.15C609.17,638.59 608.44,623.00 607.91,617.50C607.38,612.00 606.51,600.78 605.98,592.58C604.51,569.75 604.19,568.00 601.43,568.00C600.16,568.00 598.84,568.45 598.50,569.00C598.16,569.55 597.02,570.00 595.97,570.00C594.93,570.00 592.59,570.63 590.78,571.39C588.98,572.16 584.28,573.77 580.34,574.97L573.19,577.16L572.50,584.33C570.36,606.72 568.29,615.62 561.62,631.12C549.01,660.46 540.58,673.11 524.32,687.15C514.48,695.63 494.01,711.40 486.50,716.26C484.30,717.69 478.68,721.57 474.00,724.89C469.32,728.20 462.43,732.85 458.68,735.21C454.93,737.57 450.80,740.17 449.52,741.00C448.23,741.83 443.43,744.75 438.86,747.50C427.00,754.63 426.71,754.80 424.50,756.00C423.40,756.60 419.80,758.61 416.50,760.47C409.53,764.40 376.83,780.73 369.50,783.94C366.75,785.14 363.15,786.71 361.50,787.44C358.61,788.70 354.77,790.20 345.75,793.60C343.41,794.48 340.02,795.83 338.22,796.60C336.41,797.37 334.29,798.00 333.50,798.00C332.71,798.00 330.59,798.63 328.78,799.41C326.98,800.18 322.69,801.53 319.25,802.41C290.50,809.73 285.31,810.40 257.00,810.42C231.77,810.43 229.73,810.20 210.50,805.31C181.11,797.83 155.37,777.55 142.18,751.50C125.57,718.67 124.09,670.47 138.22,622.50C141.03,612.98 141.84,610.61 145.64,600.75C148.90,592.28 156.43,576.55 162.12,566.30C163.70,563.45 165.00,560.65 165.00,560.10C165.00,559.54 155.57,563.87 144.05,569.71L123.11,580.33L115.67,595.41C104.11,618.83 97.20,636.96 92.94,655.00C92.48,656.92 91.65,660.30 91.09,662.50C84.90,686.78 82.84,723.27 86.35,746.50C92.81,789.24 121.87,824.09 166.26,842.33C196.41,854.72 233.09,860.16 265.00,856.98ZM684.80,829.17C681.66,828.25 678.54,826.94 677.85,826.25C677.16,825.56 676.11,825.00 675.52,825.00C672.92,825.00 662.12,812.12 659.17,805.50C653.08,791.85 651.33,765.50 655.41,749.00C659.05,734.25 663.34,721.09 667.80,711.00C668.64,709.08 669.91,706.15 670.60,704.50C672.93,698.95 688.01,668.56 691.44,662.50C693.31,659.20 695.95,654.48 697.30,652.00C698.65,649.52 700.71,645.92 701.87,644.00C703.03,642.08 704.44,639.60 705.00,638.50C705.57,637.40 706.92,635.15 708.00,633.50C709.09,631.85 710.29,629.83 710.67,629.00C711.04,628.17 712.50,625.70 713.91,623.50C715.31,621.30 716.92,618.72 717.48,617.77C719.27,614.73 726.21,603.71 730.71,596.75C737.17,586.74 739.42,588.10 736.56,600.30C732.66,616.98 726.29,631.75 707.38,668.00C699.25,683.60 693.41,698.33 688.38,716.00C685.77,725.16 685.83,743.39 688.49,751.00C693.83,766.24 706.04,776.96 718.06,776.99C724.75,777.00 728.20,773.25 736.31,757.17C746.63,736.72 752.29,735.20 750.61,753.35C748.26,778.59 728.25,812.72 708.47,825.20C705.29,827.21 692.83,831.27 690.94,830.92C690.70,830.87 687.93,830.09 684.80,829.17ZM1780.06,822.15C1776.53,815.28 1769.33,810.00 1763.51,810.00C1757.15,810.00 1749.28,816.41 1751.41,819.86C1752.11,820.98 1763.47,824.43 1772.50,826.27C1781.28,828.05 1782.70,827.28 1780.06,822.15ZM1883.95,825.44C1882.38,823.55 1882.27,821.94 1881.02,781.50C1879.78,741.56 1878.17,720.19 1873.49,682.00C1872.07,670.39 1870.19,654.89 1867.45,632.00C1866.62,625.12 1865.27,613.88 1864.45,607.00C1861.88,585.64 1859.97,569.94 1858.52,558.50C1857.76,552.45 1856.41,541.65 1855.52,534.50C1854.63,527.35 1853.28,516.55 1852.52,510.50C1851.76,504.45 1850.41,493.65 1849.52,486.50C1848.63,479.35 1847.27,468.55 1846.49,462.50C1845.71,456.45 1844.80,448.80 1844.47,445.50C1843.74,438.27 1842.27,432.27 1841.12,431.83C1840.66,431.65 1834.93,426.51 1828.39,420.42C1816.99,409.79 1794.02,388.57 1783.50,378.94C1772.51,368.89 1761.03,358.15 1752.00,349.46C1746.78,344.44 1736.65,334.75 1729.50,327.93C1678.78,279.56 1640.19,239.52 1610.00,203.97C1592.01,182.79 1589.78,180.09 1573.58,159.88C1565.17,149.41 1551.15,135.83 1546.47,133.64C1544.29,132.62 1541.83,131.44 1541.00,131.03C1538.85,129.96 1538.17,124.22 1537.39,100.46C1536.38,69.77 1535.84,70.15 1559.00,85.53C1564.77,89.36 1570.25,92.95 1571.18,93.50C1573.89,95.10 1601.81,112.33 1604.79,114.24C1606.28,115.19 1608.40,116.43 1609.50,117.00C1610.60,117.57 1612.85,118.92 1614.50,120.00C1616.15,121.08 1618.40,122.43 1619.50,123.00C1620.60,123.56 1626.00,126.94 1631.50,130.51C1637.00,134.08 1642.40,137.41 1643.50,137.91C1647.31,139.65 1657.43,148.54 1660.37,152.72C1665.66,160.25 1662.04,161.32 1644.00,157.56C1630.91,154.83 1624.93,153.93 1623.98,154.51C1618.76,157.74 1634.59,175.64 1699.20,239.55C1730.13,270.14 1743.11,282.23 1797.05,330.74C1811.11,343.38 1824.61,355.57 1827.05,357.84C1833.76,364.07 1833.95,363.77 1831.56,350.50C1828.05,330.92 1820.40,277.60 1816.54,245.75C1812.66,213.66 1811.17,200.52 1807.55,166.25C1806.19,153.43 1803.79,127.50 1802.48,111.62C1801.33,97.62 1798.99,89.69 1792.99,79.50C1789.57,73.70 1789.65,72.40 1794.13,60.50C1801.93,39.78 1810.72,21.68 1813.20,21.20C1815.89,20.68 1828.32,43.64 1848.27,86.00C1870.46,133.11 1869.88,131.80 1873.38,142.50C1875.45,148.84 1875.51,156.33 1873.51,158.00C1871.50,159.66 1869.90,158.51 1857.50,146.47C1839.76,129.24 1838.45,129.71 1841.04,152.39C1844.14,179.49 1846.33,196.46 1849.51,218.00C1850.29,223.22 1851.62,232.45 1852.49,238.50C1853.35,244.55 1854.70,253.78 1855.49,259.00C1856.27,264.23 1857.62,273.45 1858.49,279.50C1859.35,285.55 1860.70,294.77 1861.49,300.00C1862.27,305.23 1863.62,314.45 1864.49,320.50C1865.35,326.55 1866.72,335.89 1867.53,341.25C1873.74,382.45 1874.03,384.49 1875.02,393.88L1875.90,402.27L1908.78,434.88C1947.79,473.57 1971.26,498.81 1999.08,532.00C2039.83,580.59 2050.40,602.20 2059.47,655.50C2061.67,668.40 2061.60,704.69 2059.37,713.59C2056.61,724.56 2054.18,721.79 2050.52,703.50C2045.57,678.80 2040.87,664.16 2033.02,648.93C2030.56,644.17 2026.62,637.12 2024.94,634.50C2023.89,632.85 2022.71,630.84 2022.32,630.04C2021.28,627.85 2013.32,616.32 2008.15,609.50C2000.91,599.94 1998.57,597.18 1962.71,555.75C1958.43,550.80 1952.78,544.45 1950.14,541.63C1947.51,538.81 1942.05,532.90 1938.02,528.50C1926.76,516.22 1887.71,477.00 1886.75,477.00C1885.82,477.00 1886.32,483.65 1888.51,500.50C1889.30,506.55 1890.64,517.35 1891.50,524.50C1892.35,531.65 1893.70,542.67 1894.49,549.00C1895.82,559.63 1896.62,566.75 1900.51,602.50C1901.28,609.65 1902.42,619.77 1903.04,625.00C1908.87,674.41 1907.53,759.23 1900.37,794.00C1896.01,815.16 1888.06,830.39 1883.95,825.44ZM278.70,697.25C278.41,696.29 277.21,693.02 276.04,690.00C274.87,686.98 272.16,679.33 270.02,673.00C267.88,666.67 265.16,659.02 263.99,656.00C262.81,652.98 261.49,649.34 261.05,647.93C260.61,646.52 259.79,644.49 259.24,643.43C258.69,642.37 256.54,637.90 254.46,633.50C248.02,619.88 244.85,616.84 243.50,623.00C242.65,626.85 241.43,626.84 232.50,622.86C231.40,622.37 229.15,621.56 227.50,621.06C225.85,620.56 222.03,619.18 219.00,618.00C215.97,616.82 212.21,615.45 210.63,614.96C203.51,612.75 202.75,611.55 203.49,603.67C204.66,591.26 210.21,576.74 215.29,572.77C224.81,565.34 250.15,582.65 264.70,606.53C270.98,616.83 280.30,638.83 283.65,651.25C284.66,654.96 285.97,658.00 286.57,658.00C287.72,658.00 289.89,646.57 292.55,626.50C293.42,619.90 294.61,612.02 295.18,609.00C295.76,605.98 296.57,601.48 296.98,599.00C298.42,590.36 302.87,576.23 306.64,568.34C315.80,549.13 326.35,544.08 339.00,552.87C347.38,558.69 354.45,568.21 354.26,573.39C354.11,577.54 348.47,596.42 346.69,598.76C345.50,600.34 343.39,598.81 342.40,595.66C341.13,591.58 335.52,584.80 331.42,582.40C326.67,579.62 324.57,579.45 319.73,581.47C310.02,585.52 306.08,594.92 301.47,625.00C299.90,635.22 298.59,643.47 295.40,663.00C294.55,668.23 293.21,674.79 292.42,677.59C291.64,680.39 290.99,683.54 290.97,684.59C290.95,685.64 290.28,687.37 289.47,688.44C288.66,689.51 288.00,690.99 288.00,691.73C288.00,696.50 279.93,701.29 278.70,697.25ZM2403.71,674.38C2402.60,673.27 2402.87,668.31 2404.38,662.14C2412.09,630.72 2406.53,595.24 2389.69,568.41C2380.72,554.11 2355.22,528.00 2350.23,528.00C2346.96,528.00 2344.88,523.16 2345.46,516.87C2347.16,498.28 2348.42,489.78 2349.52,489.35C2350.64,488.93 2359.23,494.33 2368.50,501.28C2378.93,509.12 2394.72,527.05 2400.82,538.00C2418.86,570.37 2423.63,614.92 2413.31,654.50C2410.29,666.08 2405.45,676.12 2403.71,674.38ZM2165.75,646.09C2142.88,635.41 2138.79,599.57 2155.62,557.50C2156.51,555.30 2157.81,551.92 2158.52,550.00C2160.90,543.54 2164.24,535.56 2167.72,528.00C2169.62,523.88 2172.09,518.48 2173.21,516.00C2185.42,489.05 2190.38,482.88 2187.97,497.63C2186.06,509.34 2182.66,519.97 2175.11,537.88C2173.40,541.94 2172.00,545.86 2172.00,546.60C2172.00,547.33 2171.36,549.41 2170.58,551.22C2163.63,567.32 2162.83,587.45 2168.70,598.50C2172.91,606.43 2182.91,612.84 2188.99,611.50C2191.53,610.94 2196.00,606.24 2196.00,604.12C2196.00,603.59 2196.61,601.89 2197.36,600.33C2198.11,598.77 2199.80,595.25 2201.11,592.50C2202.80,588.96 2204.09,587.50 2205.50,587.50C2208.14,587.50 2208.30,600.65 2205.76,609.00C2197.08,637.59 2180.49,652.97 2165.75,646.09ZM1783.50,585.80C1778.81,584.17 1773.21,578.12 1769.79,571.00C1763.00,556.86 1766.04,531.08 1777.65,504.26C1778.42,502.49 1779.67,499.56 1780.43,497.76C1785.90,484.82 1804.49,449.00 1805.74,449.00C1808.34,449.00 1805.91,462.64 1801.34,473.75C1800.60,475.54 1799.40,478.46 1798.67,480.25C1797.38,483.41 1795.45,487.88 1793.17,493.00C1791.95,495.74 1790.07,501.01 1786.77,511.00C1783.61,520.54 1783.59,537.77 1786.73,543.66C1790.41,550.56 1796.70,555.00 1802.79,555.00L1807.88,555.00L1811.53,547.25C1813.54,542.99 1815.70,538.43 1816.33,537.13C1817.75,534.18 1819.91,533.26 1821.12,535.10C1822.41,537.07 1821.19,548.47 1818.99,555.00C1815.26,566.10 1812.25,571.47 1805.82,578.50C1798.53,586.48 1791.79,588.68 1783.50,585.80ZM78.00,535.73C78.00,534.61 84.97,529.49 89.00,527.65C89.83,527.27 93.20,525.49 96.50,523.68C99.80,521.87 106.10,518.44 110.50,516.06C114.90,513.68 122.55,509.54 127.50,506.87C132.45,504.19 138.63,500.99 141.23,499.75C146.39,497.30 147.26,495.53 143.75,494.66C133.64,492.16 85.08,491.42 71.26,493.55C67.95,494.06 66.89,493.87 66.43,492.68C65.21,489.51 83.67,457.23 89.95,451.54C97.85,444.40 174.28,444.66 187.78,451.88C193.99,455.21 190.00,464.24 172.93,485.51C149.76,514.35 137.22,524.54 121.00,527.69C119.62,527.95 116.47,528.76 114.00,529.47C111.53,530.18 105.90,531.55 101.50,532.51C97.10,533.48 91.18,534.88 88.35,535.63C81.90,537.34 78.00,537.38 78.00,535.73ZM1375.50,535.34C1363.45,529.00 1360.13,520.76 1359.05,494.50C1358.64,484.60 1357.49,471.65 1356.48,465.71C1354.67,455.00 1354.67,454.90 1356.74,449.71C1357.88,446.85 1359.09,443.26 1359.43,441.75C1360.20,438.27 1363.74,437.92 1364.42,441.25C1366.46,451.40 1367.99,463.25 1368.43,472.50C1369.81,501.02 1374.99,510.00 1390.08,510.00C1396.89,510.00 1398.11,509.70 1401.60,507.14C1416.33,496.32 1418.45,483.01 1409.87,455.18C1406.34,443.74 1406.32,441.24 1409.60,431.06C1411.62,424.81 1412.62,423.00 1414.06,423.00C1417.70,423.00 1422.66,434.38 1424.96,448.00C1430.16,478.85 1435.27,489.11 1448.56,495.40C1457.44,499.60 1469.97,498.06 1469.99,492.75C1470.00,491.79 1466.69,484.14 1462.66,475.75C1451.75,453.11 1451.50,452.29 1451.54,439.50C1451.57,428.11 1454.75,417.80 1458.70,416.28C1460.61,415.55 1460.56,415.44 1463.18,425.42C1464.46,430.33 1466.07,434.52 1466.75,434.75C1467.43,434.98 1471.70,431.63 1476.24,427.31C1480.78,423.00 1487.20,417.22 1490.50,414.48C1493.80,411.74 1496.72,409.24 1497.00,408.93C1497.60,408.24 1520.12,389.13 1526.80,383.64C1531.75,379.58 1549.62,363.96 1558.98,355.52C1570.41,345.21 1591.00,324.53 1591.00,323.37C1591.00,322.70 1587.96,320.13 1584.25,317.65C1568.02,306.81 1563.68,297.99 1567.93,284.44C1574.64,263.03 1592.44,246.02 1608.50,245.66C1627.26,245.24 1631.69,264.44 1619.91,295.07C1615.80,305.76 1615.96,306.89 1622.12,310.50C1624.94,312.15 1628.43,314.28 1629.87,315.24C1631.32,316.19 1633.17,317.32 1634.00,317.75C1649.01,325.43 1651.80,330.17 1648.10,341.62C1642.40,359.22 1640.86,360.57 1634.97,353.17C1630.96,348.13 1623.20,341.80 1617.50,338.92C1615.18,337.75 1613.15,336.52 1607.16,332.66C1601.89,329.26 1601.24,329.47 1596.01,336.19C1588.71,345.57 1563.01,370.86 1551.08,380.40C1517.97,406.88 1473.90,438.00 1469.50,438.00C1467.21,438.00 1466.79,439.83 1468.41,442.75C1470.88,447.19 1479.00,465.04 1479.00,466.03C1479.00,466.52 1479.63,468.41 1480.41,470.22C1487.31,486.31 1486.35,499.29 1477.23,513.17C1470.60,523.26 1466.67,525.47 1455.50,525.45C1443.42,525.43 1433.00,520.10 1426.00,510.36C1422.96,506.11 1420.00,505.58 1420.00,509.28C1420.00,511.88 1414.66,521.17 1410.50,525.79C1401.69,535.59 1384.76,540.21 1375.50,535.34ZM509.30,533.37C510.98,531.68 492.15,512.05 483.50,506.48C474.97,500.99 473.77,500.62 464.00,500.56C453.82,500.50 451.98,501.11 443.71,507.36C440.03,510.15 436.00,516.43 436.00,519.38C436.00,521.78 440.98,526.96 444.87,528.61C448.28,530.06 452.61,531.01 464.50,532.94C470.47,533.91 508.39,534.27 509.30,533.37ZM1629.22,502.62C1631.02,501.86 1635.20,500.43 1638.50,499.43C1641.80,498.44 1647.88,496.41 1652.00,494.94C1656.12,493.46 1662.42,491.47 1666.00,490.52C1676.12,487.84 1679.50,486.52 1679.50,485.23C1679.50,481.88 1653.25,465.80 1639.50,460.73C1629.04,456.87 1615.48,455.83 1607.41,458.27C1602.65,459.70 1594.31,464.76 1593.58,466.64C1592.51,469.44 1620.72,504.00 1624.08,504.00C1625.10,504.00 1627.41,503.38 1629.22,502.62ZM2750.51,473.02C2749.83,471.92 2750.44,467.47 2752.49,458.50C2756.94,439.00 2756.89,415.73 2752.34,395.50C2745.30,364.20 2721.00,330.38 2692.13,311.69L2685.76,307.57L2686.42,301.53C2686.79,298.21 2687.52,290.33 2688.05,284.01C2689.42,267.78 2690.33,266.33 2696.27,271.00C2697.67,272.10 2699.10,273.00 2699.46,273.00C2699.81,273.00 2704.46,276.32 2709.80,280.37C2732.98,297.97 2750.41,321.22 2758.26,345.00C2767.28,372.31 2770.08,403.48 2766.07,432.00C2762.67,456.24 2754.10,478.82 2750.51,473.02ZM256.10,451.38C258.58,448.39 257.96,430.36 255.19,425.17C250.37,416.15 239.02,416.68 228.25,426.45C224.28,430.04 224.18,431.87 227.75,435.16C230.94,438.10 248.74,450.00 249.94,450.00C250.39,450.00 251.32,450.68 252.00,451.50C253.59,453.41 254.43,453.39 256.10,451.38ZM1943.90,415.15C1922.88,405.31 1916.55,374.18 1927.61,335.00C1929.80,327.22 1934.88,311.15 1936.45,307.00C1937.18,305.07 1938.50,301.59 1939.39,299.25C1940.27,296.91 1941.72,293.09 1942.59,290.75C1943.47,288.41 1944.77,285.15 1945.48,283.50C1946.19,281.85 1948.91,275.44 1951.52,269.25C1954.59,261.95 1956.79,258.00 1957.77,258.00C1960.91,258.00 1956.51,284.83 1951.40,296.78C1950.63,298.59 1950.00,300.71 1950.00,301.50C1950.00,302.29 1949.37,304.41 1948.60,306.22C1947.18,309.53 1945.51,315.11 1942.37,327.00C1939.42,338.13 1939.87,358.17 1943.20,364.50C1949.11,375.75 1961.07,382.71 1968.06,378.97C1970.46,377.68 1972.34,374.09 1975.16,365.35C1980.67,348.31 1984.89,350.07 1983.65,368.89C1981.65,399.49 1961.22,423.26 1943.90,415.15ZM2350.41,400.22C2333.15,394.40 2323.21,375.93 2323.05,349.42C2322.96,333.27 2327.76,312.18 2337.04,288.00C2338.20,284.98 2339.52,281.38 2339.98,280.00C2340.94,277.07 2343.22,271.67 2346.72,264.00C2348.09,260.98 2350.03,256.70 2351.02,254.50C2352.01,252.30 2354.04,247.80 2355.53,244.50C2366.73,219.66 2373.86,207.35 2375.51,210.01C2377.05,212.50 2371.70,236.32 2366.76,249.00C2365.15,253.12 2363.15,258.30 2362.32,260.50C2361.48,262.70 2360.39,265.28 2359.90,266.24C2358.62,268.71 2354.97,279.05 2350.86,291.88C2348.36,299.66 2346.00,313.82 2346.00,321.00C2346.00,340.57 2358.50,357.00 2373.38,357.00C2380.43,357.00 2381.35,355.81 2389.55,336.00C2393.40,326.71 2396.15,324.62 2398.02,329.57C2400.84,336.97 2396.84,357.70 2389.98,371.20C2378.06,394.65 2364.15,404.85 2350.41,400.22ZM944.50,390.59C932.78,388.57 923.23,383.16 912.94,372.73C908.55,368.27 900.82,358.54 899.66,356.00C899.29,355.18 898.11,353.15 897.05,351.50C896.00,349.85 894.17,346.48 892.99,344.00C891.82,341.52 890.38,338.63 889.81,337.57C889.23,336.51 888.39,334.48 887.95,333.07C887.51,331.66 886.19,328.02 885.01,325.00C876.37,302.78 872.74,279.26 872.68,245.00C872.61,203.20 878.17,172.90 887.65,163.41C893.80,157.27 895.01,160.14 892.42,174.66C889.79,189.37 889.74,242.48 892.34,256.00C894.39,266.65 896.61,276.01 898.15,280.50C898.71,282.15 899.53,284.85 899.97,286.50C904.75,304.46 918.69,323.47 932.00,330.15C941.10,334.72 956.53,335.03 964.56,330.82C976.35,324.62 993.11,301.86 999.02,284.00C999.48,282.62 1000.81,279.02 1001.97,276.00C1003.14,272.98 1005.02,267.57 1006.14,264.00C1007.27,260.43 1008.76,255.70 1009.47,253.50C1010.17,251.30 1011.54,246.57 1012.50,243.00C1013.46,239.43 1014.82,234.70 1015.52,232.50C1016.75,228.61 1018.30,223.33 1021.52,212.00C1025.83,196.84 1031.52,179.16 1035.04,170.00C1036.20,166.97 1037.54,163.38 1038.02,162.00C1041.69,151.44 1056.03,120.93 1061.27,112.52C1069.04,100.06 1072.33,95.18 1078.14,87.50C1091.80,69.46 1103.23,60.00 1111.35,60.00C1119.75,60.00 1124.88,83.48 1120.59,102.29C1119.81,105.71 1118.40,112.10 1117.45,116.50C1116.50,120.90 1115.17,126.53 1114.48,129.00C1113.80,131.47 1112.45,137.10 1111.49,141.50C1110.53,145.90 1109.12,151.49 1108.37,153.93C1107.62,156.36 1107.00,159.25 1107.00,160.34C1107.00,161.43 1106.35,164.61 1105.56,167.41C1104.77,170.21 1103.38,176.32 1102.46,181.00C1101.55,185.68 1100.19,192.65 1099.43,196.50C1086.92,260.26 1100.25,293.91 1144.50,310.28C1159.23,315.73 1189.56,317.41 1204.00,313.58C1230.71,306.49 1245.08,298.72 1261.54,282.50C1278.05,266.23 1286.31,250.90 1290.06,229.57C1290.63,226.31 1291.37,223.22 1291.69,222.69C1293.15,220.33 1294.69,180.84 1293.88,166.50C1292.80,147.36 1289.51,125.85 1285.43,111.41C1284.65,108.61 1284.00,105.63 1284.00,104.78C1284.00,103.93 1283.29,100.82 1282.42,97.86C1281.55,94.91 1280.14,90.03 1279.29,87.00C1278.43,83.97 1277.02,79.75 1276.15,77.61C1274.13,72.64 1274.13,64.65 1276.15,58.96C1277.02,56.50 1278.47,52.02 1279.38,49.00C1280.83,44.12 1283.49,35.61 1288.58,19.50C1291.17,11.29 1293.26,6.92 1294.41,7.29C1295.56,7.67 1306.19,20.97 1308.28,24.64C1313.78,34.31 1320.77,49.90 1323.03,57.50C1332.47,89.39 1335.96,116.54 1340.99,197.00C1342.45,220.40 1347.28,241.85 1354.18,255.50C1364.42,275.78 1384.02,290.91 1413.00,300.91C1429.83,306.72 1459.95,305.52 1479.50,298.26C1493.33,293.12 1496.15,291.86 1503.48,287.55C1509.72,283.88 1510.10,283.33 1509.39,279.00C1508.32,272.56 1496.22,234.45 1490.97,221.00C1489.79,217.97 1488.45,214.15 1488.00,212.50C1487.55,210.85 1486.21,207.03 1485.04,204.00C1483.86,200.97 1481.85,195.35 1480.56,191.50C1479.27,187.65 1477.77,183.38 1477.23,182.00C1475.62,177.89 1471.57,164.11 1468.43,152.00C1467.50,148.43 1466.15,143.25 1465.43,140.50C1464.72,137.75 1463.38,131.90 1462.46,127.50C1461.55,123.10 1460.17,117.00 1459.40,113.93C1458.63,110.87 1457.99,106.82 1457.98,104.93C1457.92,93.34 1452.64,79.03 1445.48,71.11C1441.56,66.77 1441.66,65.55 1447.44,49.00C1449.46,43.22 1451.50,37.15 1451.97,35.50C1452.44,33.85 1453.80,30.02 1455.00,27.00C1456.19,23.98 1457.43,20.60 1457.76,19.50C1458.85,15.78 1461.66,11.50 1463.01,11.50C1464.82,11.50 1475.21,24.48 1489.06,44.06C1495.35,52.96 1503.68,64.58 1507.57,69.88C1519.71,86.45 1523.09,93.99 1520.93,99.69C1519.52,103.38 1517.04,102.57 1504.00,94.20C1492.49,86.80 1492.09,88.07 1498.66,111.00C1501.43,120.65 1503.22,126.39 1504.74,130.50C1505.56,132.70 1506.85,136.19 1507.61,138.25C1509.38,143.02 1511.56,148.84 1513.61,154.25C1514.50,156.59 1515.89,160.30 1516.70,162.50C1517.52,164.70 1518.76,167.85 1519.46,169.50C1529.81,193.80 1538.44,226.93 1538.36,242.00C1538.20,271.48 1525.61,313.87 1510.16,337.00C1480.64,381.16 1401.03,381.84 1354.04,338.33C1348.00,332.74 1332.00,313.33 1332.00,311.59C1332.00,311.32 1330.84,309.38 1329.42,307.29C1320.41,294.01 1309.58,264.39 1308.12,249.00C1307.29,240.33 1305.96,241.28 1303.36,252.36C1299.12,270.40 1296.56,278.37 1289.53,295.33C1274.51,331.54 1251.59,356.71 1220.00,371.67C1188.53,386.58 1148.88,386.96 1119.00,372.65C1102.19,364.59 1086.58,347.17 1079.00,328.00C1077.81,324.98 1076.19,321.02 1075.42,319.22C1074.64,317.41 1074.00,315.20 1074.00,314.30C1074.00,313.41 1073.34,310.39 1072.54,307.59C1068.37,293.06 1066.56,260.18 1069.04,244.00C1069.58,240.43 1070.44,234.12 1070.95,230.00C1071.45,225.88 1072.34,220.47 1072.91,218.00C1074.16,212.66 1078.84,192.97 1080.05,188.00C1080.51,186.07 1081.58,182.25 1082.42,179.50C1083.25,176.75 1084.87,171.35 1086.00,167.50C1087.13,163.65 1088.73,158.25 1089.55,155.50C1091.98,147.36 1093.30,136.90 1092.07,135.67C1088.67,132.27 1075.15,153.05 1063.21,180.00C1060.36,186.43 1054.05,202.07 1051.51,209.00C1050.80,210.93 1049.45,214.53 1048.50,217.00C1042.11,233.66 1037.26,247.83 1029.00,274.00C1025.98,283.56 1020.89,299.13 1017.89,308.00C1007.14,339.78 988.27,373.40 975.66,383.27C968.18,389.12 966.66,389.69 954.00,391.46C952.62,391.65 948.35,391.26 944.50,390.59ZM2142.56,366.27C2123.74,361.48 2115.48,326.81 2125.58,295.00C2129.45,282.81 2131.04,277.98 2131.87,275.84C2132.37,274.55 2133.56,271.48 2134.52,269.00C2138.96,257.48 2143.17,248.08 2153.37,226.85C2156.45,220.44 2159.42,214.03 2159.96,212.60C2160.51,211.17 2161.69,210.00 2162.60,210.00C2167.09,210.00 2161.57,232.39 2150.93,257.38C2149.32,261.16 2148.00,264.86 2148.00,265.60C2148.00,266.33 2147.36,268.41 2146.58,270.22C2144.39,275.28 2142.28,283.68 2140.89,292.76C2138.04,311.53 2146.64,328.62 2159.94,330.62C2166.82,331.65 2169.06,329.87 2173.27,320.00C2178.63,307.43 2178.99,306.86 2181.27,307.18C2186.53,307.93 2183.76,327.16 2176.11,343.00C2167.11,361.65 2155.63,369.60 2142.56,366.27ZM1609.40,297.19C1612.96,290.32 1612.53,274.54 1608.66,269.76C1605.96,266.42 1599.51,265.25 1593.21,266.94C1588.19,268.29 1580.00,275.61 1580.00,278.74C1580.00,281.33 1587.23,287.93 1598.18,295.32C1606.96,301.25 1607.27,301.31 1609.40,297.19ZM1902.50,231.71C1895.66,227.85 1893.41,222.23 1892.63,207.16C1892.27,200.20 1891.46,191.46 1890.83,187.75C1889.61,180.57 1891.84,170.00 1894.58,170.00C1896.14,170.00 1898.03,180.09 1898.98,193.50C1900.18,210.45 1903.55,216.00 1912.65,216.00C1921.53,216.00 1928.96,207.34 1928.95,197.00C1928.95,192.64 1926.40,181.73 1923.90,175.39C1922.87,172.80 1922.95,171.59 1924.33,168.12C1925.25,165.83 1926.00,163.10 1926.00,162.04C1926.00,159.30 1927.83,158.54 1929.90,160.41C1932.20,162.49 1938.04,182.46 1938.01,188.13C1937.99,192.04 1943.00,200.83 1947.11,204.09C1950.84,207.04 1952.10,207.47 1957.16,207.47C1965.92,207.47 1966.18,206.62 1960.84,195.75C1953.23,180.30 1952.65,178.51 1952.58,170.19C1952.53,164.24 1952.97,161.73 1954.51,159.10C1957.24,154.44 1958.21,154.87 1960.32,161.65C1962.14,167.52 1964.53,173.61 1968.30,182.00C1976.39,200.04 1975.95,210.79 1966.67,221.52L1963.22,225.50L1955.36,225.48C1946.37,225.46 1941.85,223.30 1936.25,216.35C1933.45,212.87 1933.09,212.69 1932.51,214.50C1927.68,229.64 1913.37,237.85 1902.50,231.71ZM378.00,229.53C378.00,228.73 378.74,226.37 379.64,224.28C385.85,210.01 389.40,199.54 390.41,192.50C390.73,190.30 391.42,186.25 391.94,183.50C394.44,170.25 392.31,145.78 387.45,132.00C379.39,109.14 358.74,81.47 339.66,67.96C334.29,64.16 334.12,62.94 337.41,52.00C338.15,49.52 339.54,44.58 340.50,41.00C344.69,25.36 344.87,25.18 351.23,30.11C393.26,62.74 409.85,94.33 409.99,142.00C410.07,171.77 399.05,209.04 384.77,227.25C381.83,231.00 378.00,232.29 378.00,229.53ZM1210.48,214.96C1210.12,214.39 1210.32,211.80 1210.91,209.21C1214.71,192.57 1215.12,188.96 1215.12,172.04C1215.12,162.39 1214.60,152.03 1213.96,149.00C1213.32,145.97 1212.47,141.93 1212.06,140.00C1211.04,135.13 1206.12,121.11 1204.17,117.50C1190.09,91.46 1177.02,77.12 1150.63,58.73C1148.82,57.47 1148.81,57.02 1150.38,45.63C1151.27,39.13 1152.00,31.15 1152.00,27.88C1152.00,20.37 1153.27,19.76 1160.15,24.00C1205.87,52.13 1228.17,95.98 1226.77,155.00C1226.34,173.00 1225.84,177.40 1222.83,190.00C1222.24,192.47 1221.40,196.07 1220.96,198.00C1218.35,209.40 1212.70,218.56 1210.48,214.96ZM850.61,176.18C849.97,175.14 857.43,169.59 866.38,164.45C870.16,162.28 874.30,159.82 875.58,159.00C876.85,158.18 882.08,154.89 887.20,151.70C892.31,148.51 897.35,145.36 898.39,144.70C902.80,141.90 940.13,116.99 947.00,112.26C961.33,102.41 986.01,81.73 985.99,79.59C985.99,78.99 983.17,77.67 979.74,76.65C967.32,72.98 963.00,69.49 963.00,63.12C963.00,55.76 970.15,41.99 977.61,35.01C982.24,30.66 982.27,30.59 980.15,29.18C977.48,27.41 977.53,24.65 980.33,19.53C983.56,13.63 986.74,12.17 991.48,14.42C1001.88,19.36 1025.05,46.66 1030.47,60.37C1033.87,68.98 1031.02,83.78 1024.88,89.36C1021.26,92.64 1018.01,92.57 1010.42,89.05C994.22,81.54 996.14,81.60 989.90,88.42C980.55,98.65 964.74,111.57 940.50,128.81C934.14,133.33 917.68,143.40 907.71,148.87C905.07,150.32 900.35,152.93 897.21,154.67C888.20,159.68 852.87,177.00 851.67,177.00C851.37,177.00 850.89,176.63 850.61,176.18ZM78.75,168.93C75.12,167.01 75.00,166.78 75.00,161.50C75.00,147.48 90.52,128.17 112.81,114.46C123.70,107.77 143.92,92.85 143.96,91.47C143.98,90.90 141.69,89.55 138.87,88.47C124.83,83.07 123.01,72.36 132.77,52.50C135.79,46.36 136.08,45.13 135.11,42.46C132.50,35.19 140.57,22.00 147.63,22.00C155.67,22.00 185.48,40.99 196.04,52.84C210.37,68.91 211.92,92.82 199.06,99.47C194.89,101.63 187.29,100.92 174.83,97.22C173.00,96.68 168.90,95.65 165.72,94.95L159.95,93.67L152.22,101.29C142.36,111.02 142.26,111.09 119.50,126.34C102.50,137.73 89.44,148.82 90.23,151.20C92.00,156.49 123.68,153.86 142.07,146.91C145.06,145.78 148.62,144.49 150.00,144.05C157.57,141.61 174.99,131.24 184.28,123.63C197.49,112.80 190.42,127.21 176.68,139.10C159.14,154.28 140.75,164.01 119.36,169.44C109.71,171.89 83.73,171.56 78.75,168.93ZM1366.50,117.59C1358.91,114.22 1357.25,108.95 1356.70,86.61C1356.36,72.49 1356.53,70.28 1358.24,66.74C1361.19,60.62 1362.25,63.25 1363.08,78.72C1364.01,96.00 1364.56,98.45 1368.21,101.52C1373.57,106.03 1380.71,104.15 1386.02,96.81C1389.52,91.98 1390.00,85.24 1387.50,75.66C1385.11,66.47 1386.70,56.00 1390.50,56.00C1391.92,56.00 1395.00,62.34 1395.00,65.28C1395.01,69.65 1398.73,86.57 1400.38,89.77C1402.66,94.18 1409.49,99.00 1413.45,99.00C1418.79,99.00 1420.41,95.59 1417.65,90.15C1410.22,75.52 1408.74,68.06 1411.59,59.68C1414.21,52.00 1417.13,52.70 1418.53,61.34C1418.90,63.63 1419.77,66.85 1420.46,68.50C1423.70,76.23 1424.32,77.89 1426.09,83.50C1429.54,94.47 1427.70,103.24 1420.41,110.52C1414.12,116.81 1402.62,114.88 1395.32,106.31L1392.15,102.58L1390.32,106.04C1385.06,116.03 1374.50,121.15 1366.50,117.59ZM1628.00,104.64C1628.00,102.62 1633.96,98.60 1647.50,91.47C1653.55,88.29 1660.08,84.80 1662.00,83.72C1663.92,82.63 1670.10,79.33 1675.72,76.36C1690.02,68.83 1695.28,65.64 1695.33,64.49C1695.46,61.86 1648.79,60.43 1621.02,62.21C1617.37,62.45 1616.48,62.17 1616.19,60.70C1615.67,58.05 1622.95,43.84 1631.16,31.50C1639.41,19.10 1639.71,18.86 1649.10,16.87C1667.63,12.96 1723.98,15.21 1736.31,20.35C1743.17,23.22 1741.15,29.83 1728.26,46.61C1706.72,74.67 1695.37,86.35 1685.00,91.11C1676.66,94.93 1673.81,96.00 1671.99,96.00C1670.92,96.00 1668.34,96.62 1666.27,97.37C1664.20,98.12 1658.90,99.50 1654.50,100.43C1650.10,101.37 1644.25,102.74 1641.50,103.49C1632.21,106.00 1628.00,106.36 1628.00,104.64ZM2670.00,97.51C2670.00,96.07 2677.95,90.30 2684.00,87.35C2696.42,81.29 2728.92,60.32 2728.97,58.34C2729.04,55.54 2674.56,56.03 2669.23,58.88C2666.33,60.43 2662.05,60.28 2661.40,58.61C2660.37,55.90 2673.97,32.27 2679.76,26.73C2683.38,23.26 2690.23,22.36 2719.83,21.41C2748.32,20.50 2760.00,22.27 2760.00,27.50C2760.00,29.91 2754.64,41.77 2750.95,47.50C2749.89,49.15 2748.70,51.17 2748.31,52.00C2745.26,58.40 2731.32,75.78 2724.19,82.07C2716.92,88.49 2706.92,92.13 2682.00,97.43C2672.66,99.42 2670.00,99.43 2670.00,97.51ZM1881.38,92.56C1880.66,90.68 1882.09,89.44 1889.49,85.52C1892.25,84.07 1897.20,81.41 1900.50,79.62C1908.09,75.50 1927.62,65.11 1931.25,63.26C1937.02,60.31 1934.80,59.36 1918.67,57.88C1908.40,56.95 1892.38,57.08 1875.03,58.26C1869.35,58.65 1869.96,55.13 1877.87,42.00C1879.03,40.08 1880.40,37.60 1880.92,36.50C1883.87,30.23 1890.88,23.29 1895.64,21.92C1908.60,18.17 1964.92,21.06 1969.57,25.71C1973.32,29.47 1969.58,36.17 1951.57,58.00C1932.18,81.50 1930.04,82.70 1892.00,91.57C1887.88,92.53 1883.94,93.52 1883.26,93.76C1882.58,94.01 1881.73,93.46 1881.38,92.56ZM2086.00,89.69C2086.00,88.13 2088.24,86.56 2098.00,81.26C2111.80,73.76 2126.90,65.69 2137.33,60.25C2138.91,59.43 2139.79,58.39 2139.31,57.91C2136.69,55.29 2101.44,53.25 2089.00,55.00C2076.85,56.72 2076.61,56.71 2076.20,54.73C2075.72,52.34 2081.00,42.00 2088.64,30.39C2094.20,21.96 2096.19,20.31 2102.40,19.02C2111.30,17.17 2147.97,17.53 2159.23,19.57C2171.27,21.76 2172.02,22.18 2171.93,26.79C2171.86,30.56 2170.34,33.30 2159.50,49.18C2156.75,53.20 2154.32,56.95 2154.09,57.50C2153.87,58.05 2151.08,61.93 2147.90,66.12C2138.42,78.59 2133.17,81.06 2100.50,88.39C2087.88,91.22 2086.00,91.39 2086.00,89.69ZM200.64,84.50C201.22,82.99 201.05,82.46 198.55,78.11C196.21,74.03 176.60,55.00 174.74,55.00C174.44,55.00 173.46,58.49 172.56,62.75C171.66,67.01 170.31,71.89 169.56,73.59C167.39,78.46 168.19,78.94 184.50,82.51C188.90,83.48 193.62,84.62 195.00,85.06C198.81,86.26 200.01,86.14 200.64,84.50ZM1023.65,74.17C1019.65,65.20 1007.97,48.00 1005.88,48.00C1005.40,48.00 1004.99,49.24 1004.99,50.75C1004.98,52.26 1004.31,55.98 1003.50,59.00C1001.05,68.13 1001.08,68.20 1009.75,72.26C1023.56,78.72 1025.81,79.03 1023.65,74.17ZM160.17,73.35C161.18,72.43 162.00,71.14 162.00,70.47C162.00,69.80 162.68,68.68 163.50,68.00C168.16,64.13 159.53,48.99 152.67,49.01C146.08,49.03 135.00,57.52 135.00,62.55C135.00,65.20 139.25,69.09 144.12,70.91C145.98,71.60 148.85,72.78 150.50,73.52C154.61,75.37 158.00,75.31 160.17,73.35ZM997.57,63.53C1000.86,58.51 996.21,43.43 990.80,41.58C986.69,40.17 980.58,42.48 975.46,47.38C968.42,54.13 970.04,57.60 982.00,61.46C985.02,62.44 988.85,63.83 990.50,64.56C994.80,66.44 995.76,66.30 997.57,63.53Z"/>
</svg>
