<svg xmlns="http://www.w3.org/2000/svg" viewBox="0 0 2172 225" width="2172" height="225">
  <path fill="#ffffff" fill-rule="evenodd" d="M1768.50,219.27C1756.67,218.12 1744.68,209.18 1741.96,199.50C1737.48,183.50 1744.45,164.11 1759.99,149.39C1762.20,147.30 1764.00,145.23 1764.00,144.79C1764.00,144.36 1393.13,144.00 939.84,144.00C192.36,144.00 114.83,143.85 106.59,142.42C95.65,140.51 87.86,138.53 78.50,135.28C74.65,133.94 70.63,132.58 69.57,132.26C60.07,129.37 38.16,115.63 26.28,105.13C18.67,98.41 7.00,84.86 7.00,82.76C7.00,82.34 409.24,82.00 900.88,82.00C1614.78,82.00 1794.95,81.75 1795.75,80.75C1799.12,76.50 1800.26,56.58 1798.03,40.83C1796.13,27.36 1798.90,20.00 1808.46,13.13C1825.31,1.04 1851.20,4.68 1861.01,20.52C1865.11,27.14 1865.14,49.26 1861.06,53.34C1860.48,53.92 1860.00,54.95 1860.00,55.63C1860.00,58.19 1852.84,68.73 1847.53,73.97C1844.49,76.97 1842.00,80.01 1842.00,80.72C1842.00,81.75 1865.58,82.00 1965.25,82.02C2091.63,82.04 2101.08,82.30 2107.90,85.95C2108.98,86.53 2110.60,87.00 2111.49,87.00C2116.34,87.00 2138.79,100.44 2145.56,107.39C2160.01,122.21 2166.39,139.46 2165.83,162.14C2165.46,177.14 2163.79,182.21 2156.38,190.87C2137.11,213.39 2092.78,212.08 2051.00,187.76L2044.50,183.98L1996.59,184.24L1948.67,184.50L1946.74,188.00C1940.48,199.35 1927.17,204.06 1915.70,198.98C1910.92,196.87 1907.62,193.84 1903.74,188.00L1901.42,184.50L1855.58,184.24C1824.06,184.06 1809.33,184.31 1808.44,185.05C1807.62,185.73 1807.35,187.36 1807.69,189.48C1810.43,206.36 1790.61,221.43 1768.50,219.27ZM1857.48,175.00L1903.80,175.00L1905.83,171.56C1913.71,158.20 1936.45,158.89 1946.14,172.78L1947.73,175.06L1989.87,175.28C2036.71,175.52 2034.65,175.88 2028.16,168.73C2024.10,164.25 2016.83,154.52 2015.67,152.00C2015.29,151.18 2014.16,149.15 2013.16,147.50L2011.34,144.50L1910.34,144.25L1809.34,143.99L1808.08,147.75C1806.18,153.42 1805.43,172.61 1807.03,174.54C1807.74,175.39 1808.96,175.85 1809.74,175.55C1810.52,175.25 1832.01,175.00 1857.48,175.00Z"/>
</svg>
