<svg xmlns="http://www.w3.org/2000/svg" viewBox="0 0 2077 737" width="2077" height="737">
  <path fill="#010000" fill-rule="evenodd" d="M1021.7,736.3C1021.5,736.2 1015.4,736.0 1008.0,735.9C1000.6,735.8 991.6,735.4 988.0,735.0C984.4,734.6 978.6,733.9 975.0,733.6C933.7,729.5 885.0,717.9 843.1,702.0C753.3,668.0 669.4,613.5 573.3,526.7C545.3,501.4 501.4,458.1 455.2,410.2L434.7,389.0L331.2,389.0L227.8,389.0L228.5,391.2C231.4,400.8 231.9,405.3 231.6,418.0C231.4,425.4 231.1,434.1 231.1,437.3L231.0,443.0L227.1,441.0C224.9,440.0 223.0,438.5 222.7,437.8C222.4,437.1 222.1,443.9 222.0,453.0C221.9,462.1 221.7,470.3 221.5,471.2C221.3,472.2 220.9,479.6 220.5,487.7C219.8,500.6 219.5,506.5 219.1,509.2C218.9,510.8 215.1,509.9 213.7,508.0L212.3,506.0L207.0,516.7C200.0,531.0 198.9,534.2 198.2,543.0L197.5,550.5L195.6,550.8C193.4,551.3 192.0,549.5 192.0,546.2C192.0,543.3 191.6,543.4 186.7,547.4C184.4,549.2 177.2,554.2 170.8,558.5C154.3,569.4 150.0,575.0 154.5,580.0L156.0,581.6L154.7,583.4L153.5,585.1L140.6,579.0C133.5,575.6 126.4,572.0 124.9,570.9C123.4,569.9 121.9,569.0 121.6,569.0C121.3,569.0 119.4,571.5 117.4,574.5C115.4,577.5 113.6,580.0 113.5,580.0C111.8,580.0 102.8,573.7 99.1,569.9C93.6,564.3 90.5,558.4 84.8,542.4C80.9,531.4 74.1,519.2 71.3,518.3C70.7,518.1 69.7,520.0 69.0,522.9C68.4,525.6 66.8,531.1 65.5,535.1L63.2,542.5L62.1,538.5C61.3,535.2 54.0,504.7 52.3,497.2C52.0,496.0 51.5,495.0 51.1,495.0C50.8,495.1 47.7,498.7 44.3,503.1L38.1,511.1L37.6,508.8C37.3,507.5 36.4,502.9 35.5,498.5C34.6,494.1 33.0,487.2 31.9,483.1C30.9,479.0 30.0,473.9 30.0,471.8C30.0,469.7 29.9,468.0 29.7,468.0C29.6,468.0 26.8,470.5 23.6,473.5C20.4,476.6 17.6,478.9 17.5,478.8C16.9,478.2 19.8,462.5 21.9,454.3C28.1,430.3 38.9,409.3 52.3,395.3L58.2,389.1L35.7,388.8L13.2,388.5L8.8,385.4C6.5,383.6 3.5,380.2 2.2,377.9L-0.2,373.5L0.2,367.4C0.6,360.2 3.4,355.4 9.5,351.2L13.5,348.5L224.0,348.3L434.5,348.0L458.6,323.3C471.9,309.6 482.6,298.3 482.4,298.1C482.1,297.8 414.1,297.6 331.2,297.6L180.5,297.5L176.7,295.2C172.0,292.2 170.0,288.4 170.0,282.6L170.0,278.2L172.6,275.0C174.1,273.3 176.5,271.3 178.1,270.5L180.9,269.0L346.4,269.0L511.9,269.0L519.8,261.2C524.1,257.0 534.5,246.9 542.8,238.8L558.0,224.0L418.7,224.0L279.5,224.0L276.2,222.0C266.8,216.3 266.8,203.7 276.2,198.0L279.5,196.0L434.2,196.0L588.9,196.0L603.2,183.9C720.6,83.9 828.9,27.6 941.0,8.2C958.0,5.2 961.3,4.7 975.0,3.5C978.6,3.1 982.1,2.7 982.7,2.5C984.4,1.9 1018.3,0.6 1030.5,0.6C1041.9,0.6 1074.6,1.8 1077.5,2.4C1078.6,2.6 1083.5,3.1 1088.5,3.4C1093.5,3.8 1098.2,4.3 1099.0,4.5C1099.8,4.7 1103.0,5.2 1106.0,5.5C1131.9,8.5 1172.1,17.3 1201.5,26.5C1231.6,35.9 1256.1,45.6 1284.5,59.4C1348.1,90.3 1402.2,128.3 1465.1,186.3L1475.8,196.0L1628.6,195.8L1781.5,195.5L1804.5,187.2C1817.2,182.6 1832.5,177.1 1838.5,174.9L1849.6,170.9L1881.0,182.0C1898.3,188.1 1923.0,196.8 1935.7,201.3C1948.5,205.8 1959.0,209.7 1959.0,210.0C1959.0,210.3 1934.4,219.1 1904.4,229.7L1849.9,248.8L1815.7,236.7L1781.5,224.5L1643.2,224.2C1555.8,224.0 1504.9,224.3 1505.2,224.9C1505.3,225.4 1511.3,231.9 1518.5,239.2C1525.7,246.6 1535.0,256.3 1539.3,260.8L1547.1,269.1L1614.8,268.8L1682.5,268.5L1715.5,256.7C1733.7,250.2 1749.2,244.8 1750.0,244.7C1751.6,244.6 1857.9,281.8 1859.2,282.9C1859.6,283.3 1850.0,287.1 1837.7,291.4C1825.5,295.7 1800.9,304.3 1783.0,310.6L1750.4,322.1L1716.0,309.9L1681.5,297.7L1627.7,297.6C1598.2,297.5 1574.0,297.7 1574.0,298.0C1574.1,298.6 1575.5,300.1 1600.9,327.7L1619.5,348.0L1839.8,348.0L2060.1,348.0L2063.8,349.6C2080.4,356.5 2081.1,378.8 2064.9,387.1L2061.1,389.0L2037.3,389.0L2013.5,389.0L2019.8,393.0C2034.1,402.1 2045.1,418.3 2050.1,437.8C2052.0,445.4 2052.6,454.0 2051.2,454.0C2049.9,453.9 2047.3,451.5 2043.4,447.0L2039.7,442.5L2040.4,448.4C2040.8,451.7 2042.8,461.2 2045.0,469.5C2047.2,477.8 2049.0,485.4 2049.0,486.3L2049.0,488.0L2044.8,485.4C2042.4,484.0 2038.8,481.1 2036.6,479.1L2032.8,475.5L2033.3,492.0C2033.7,503.0 2034.4,510.0 2035.4,513.0C2036.2,515.4 2036.7,517.6 2036.5,517.8C2035.7,518.7 2029.6,515.6 2026.3,512.7L2023.0,509.8L2023.0,511.4C2023.0,512.3 2022.9,513.2 2022.8,513.5C2021.9,515.9 2020.3,535.1 2020.5,540.8L2020.8,548.1L2013.8,541.5C2010.0,537.9 2006.4,535.0 2005.9,535.2C2004.4,535.7 1995.1,558.1 1995.0,561.2C1995.0,562.8 1994.5,564.0 1993.9,564.0C1992.5,564.0 1986.5,558.0 1985.8,556.0C1985.2,554.2 1985.8,553.6 1978.2,563.7C1968.9,576.0 1960.1,590.0 1958.9,594.3L1957.9,598.1L1951.8,592.8C1939.5,582.2 1922.3,566.3 1913.6,557.5C1905.7,549.5 1893.8,534.9 1892.8,532.0C1892.6,531.4 1890.0,533.3 1886.9,536.2C1883.8,539.1 1877.6,543.6 1873.2,546.1L1865.2,550.7L1863.1,542.1C1861.9,537.4 1858.9,527.2 1856.4,519.5C1854.0,511.8 1850.8,501.2 1849.4,496.0L1846.8,486.5L1846.7,475.2C1846.6,469.1 1846.3,464.0 1846.0,464.0C1845.7,464.0 1841.5,467.0 1836.5,470.5C1831.6,474.1 1827.3,476.5 1827.1,475.9C1826.5,473.9 1831.3,456.6 1835.1,447.1C1842.6,428.8 1854.3,411.1 1870.2,394.2L1875.2,389.0L1747.3,389.0L1619.5,389.0L1600.5,409.7C1590.0,421.0 1581.0,430.8 1580.5,431.4C1578.4,433.8 1569.0,444.0 1558.0,456.0C1496.7,522.7 1451.4,565.9 1405.1,601.9C1337.7,654.4 1269.0,690.5 1194.0,712.8C1180.7,716.7 1177.9,717.5 1157.0,722.4C1144.6,725.3 1114.3,730.6 1105.0,731.6C1101.4,731.9 1097.8,732.3 1096.9,732.5C1096.1,732.7 1091.4,733.1 1086.4,733.5C1081.5,733.9 1073.9,734.6 1069.5,735.0C1062.3,735.6 1055.4,735.9 1029.7,736.4C1025.4,736.5 1021.8,736.5 1021.7,736.3Z"/>
  <path fill="#ffffff" fill-rule="evenodd" d="M1152.0,717.3C1152.0,716.4 1150.3,712.2 1148.3,708.1L1144.6,700.5L1136.4,692.4C1119.4,675.5 1100.6,665.4 1047.7,644.9C1035.2,640.1 1021.2,634.2 1016.5,631.9C1008.5,628.0 1003.0,623.4 1003.0,620.6C1003.0,617.3 1007.9,612.3 1014.1,609.3C1021.9,605.4 1029.8,603.4 1061.9,597.0C1089.9,591.5 1097.6,589.3 1104.1,585.1C1109.5,581.7 1110.8,578.4 1108.5,574.0C1105.3,567.7 1094.1,561.7 1065.0,550.5C1030.4,537.1 1019.0,529.8 1019.0,520.7C1019.0,516.6 1024.0,508.2 1028.8,504.2C1031.4,502.1 1037.1,497.8 1041.6,494.7C1056.8,484.1 1063.9,476.3 1067.5,466.0C1068.4,463.5 1069.5,455.9 1070.0,449.0C1072.1,420.1 1081.5,405.1 1109.0,386.9C1125.7,375.8 1128.5,372.2 1126.9,363.5C1126.0,358.4 1123.5,356.5 1115.8,355.1C1106.8,353.5 1100.0,349.8 1093.7,343.1C1087.7,336.6 1084.8,331.0 1082.3,321.7L1080.7,315.5L1080.0,275.0C1079.6,246.0 1079.0,233.5 1078.1,231.0C1076.3,226.2 1072.6,223.0 1068.7,223.0C1064.4,222.9 1057.8,219.8 1055.2,216.6C1054.1,215.1 1052.4,211.8 1051.4,209.2C1044.0,188.9 1039.8,185.0 1022.7,183.1C1013.1,182.0 1007.6,180.1 1006.1,177.2C1005.5,176.2 1004.2,171.1 1003.0,165.9C1000.3,153.6 996.0,144.8 986.4,132.0C976.2,118.4 973.1,110.4 973.0,97.5C973.0,74.1 988.0,45.2 1016.9,13.1L1024.5,4.7L1043.5,5.4C1099.5,7.3 1146.4,14.8 1196.5,29.7C1262.2,49.2 1331.3,84.9 1391.5,130.3C1448.0,173.0 1487.9,211.4 1582.2,314.0C1600.1,333.5 1618.9,353.8 1623.8,359.1L1632.9,368.7L1619.6,382.6C1612.4,390.2 1593.2,410.9 1577.0,428.5C1487.6,526.0 1445.9,565.9 1390.5,607.4C1319.5,660.5 1241.5,698.0 1166.0,715.5C1159.7,716.9 1153.9,718.3 1153.2,718.5C1152.6,718.8 1152.0,718.2 1152.0,717.3ZM1122.0,450.0L1122.0,401.0L1107.0,401.0L1092.0,401.0L1092.0,450.0L1092.0,499.0L1107.0,499.0L1122.0,499.0L1122.0,450.0ZM1181.0,450.0L1181.0,401.0L1166.0,401.0L1151.0,401.0L1151.0,450.0L1151.0,499.0L1166.0,499.0L1181.0,499.0L1181.0,450.0ZM1240.0,450.0L1240.0,401.0L1225.0,401.0L1210.0,401.0L1210.0,450.0L1210.0,499.0L1225.0,499.0L1240.0,499.0L1240.0,450.0ZM1299.0,450.0L1299.0,401.0L1284.0,401.0L1269.0,401.0L1269.0,450.0L1269.0,499.0L1284.0,499.0L1299.0,499.0L1299.0,450.0ZM1358.0,450.0L1358.0,401.0L1343.0,401.0L1328.0,401.0L1328.0,450.0L1328.0,499.0L1343.0,499.0L1358.0,499.0L1358.0,450.0ZM1417.0,450.0L1417.0,401.0L1402.0,401.0L1387.0,401.0L1387.0,449.3C1387.0,475.9 1387.3,498.0 1387.7,498.3C1388.0,498.7 1394.8,499.0 1402.7,499.0L1417.0,499.0L1417.0,450.0ZM645.0,449.5L645.0,401.0L659.5,401.0L674.0,401.0L674.0,449.5L674.0,498.0L659.5,498.0L645.0,498.0L645.0,449.5ZM704.0,449.5L704.0,401.0L718.5,401.0L733.0,401.0L733.0,449.5L733.0,498.0L718.5,498.0L704.0,498.0L704.0,449.5ZM763.0,449.5L763.0,401.0L778.0,401.0L793.0,401.0L793.0,449.5L793.0,498.0L778.0,498.0L763.0,498.0L763.0,449.5ZM823.0,449.5L823.0,401.0L837.5,401.0L852.0,401.0L852.0,449.5L852.0,498.0L837.5,498.0L823.0,498.0L823.0,449.5ZM882.0,449.5L882.0,401.0L896.5,401.0L911.0,401.0L911.0,449.5L911.0,498.0L896.5,498.0L882.0,498.0L882.0,449.5ZM941.0,449.5L941.0,401.0L955.5,401.0L970.0,401.0L970.0,449.5L970.0,498.0L955.5,498.0L941.0,498.0L941.0,449.5ZM645.0,287.5L645.0,239.0L659.5,239.0L674.0,239.0L674.0,287.5L674.0,336.0L659.5,336.0L645.0,336.0L645.0,287.5ZM704.0,287.5L704.0,239.0L718.5,239.0L733.0,239.0L733.0,287.5L733.0,336.0L718.5,336.0L704.0,336.0L704.0,287.5ZM763.0,287.5L763.0,239.0L770.8,239.0L778.5,239.0L785.8,247.5L793.0,255.9L793.0,296.0L793.0,336.0L778.0,336.0L763.0,336.0L763.0,287.5ZM823.0,301.4L823.0,266.7L827.2,270.4C839.4,280.7 844.7,284.9 845.9,285.2C846.8,285.4 847.7,283.5 848.6,279.1C851.4,265.6 852.0,269.7 852.0,303.3L852.0,336.0L837.5,336.0L823.0,336.0L823.0,301.4ZM882.0,316.4L882.0,296.8L883.2,297.3C883.9,297.6 888.1,299.5 892.5,301.4C896.9,303.4 902.9,305.5 905.8,306.1L911.0,307.3L911.0,321.7L911.0,336.0L896.5,336.0L882.0,336.0L882.0,316.4ZM941.0,296.0C941.0,274.0 941.4,256.0 941.8,256.0C942.2,256.0 943.1,256.5 943.8,257.2C944.4,257.8 945.2,258.1 945.6,257.8C946.2,257.2 944.5,243.4 943.4,240.7L942.8,239.0L956.4,239.0L970.0,239.0L970.0,287.5L970.0,336.0L955.5,336.0L941.0,336.0L941.0,296.0ZM1122.0,287.0L1122.0,238.0L1107.0,238.0L1092.0,238.0L1092.0,287.0L1092.0,336.0L1107.0,336.0L1122.0,336.0L1122.0,287.0ZM1181.0,287.0L1181.0,238.0L1166.0,238.0L1151.0,238.0L1151.0,287.0L1151.0,336.0L1166.0,336.0L1181.0,336.0L1181.0,287.0ZM1240.0,287.0L1240.0,238.0L1225.0,238.0L1210.0,238.0L1210.0,287.0L1210.0,336.0L1225.0,336.0L1240.0,336.0L1240.0,287.0ZM1299.0,287.0L1299.0,238.0L1284.0,238.0L1269.0,238.0L1269.0,287.0L1269.0,336.0L1284.0,336.0L1299.0,336.0L1299.0,287.0ZM1358.0,287.0L1358.0,238.0L1343.0,238.0L1328.0,238.0L1328.0,287.0L1328.0,336.0L1343.0,336.0L1358.0,336.0L1358.0,287.0ZM1417.0,287.0L1417.0,237.9L1402.2,238.2L1387.5,238.5L1387.2,287.2L1387.0,336.0L1402.0,336.0L1417.0,336.0L1417.0,287.0ZM1721.5,307.2C1706.7,301.8 1693.7,297.2 1692.7,296.7L1690.8,296.0L1693.9,292.5C1695.6,290.5 1697.3,287.8 1697.6,286.5C1698.7,282.1 1697.0,276.8 1693.5,273.5L1690.3,270.4L1720.4,259.7L1750.5,249.0L1797.5,265.6C1823.4,274.8 1844.9,282.6 1845.3,283.0C1845.8,283.4 1841.5,285.3 1835.8,287.3C1830.2,289.2 1809.3,296.5 1789.5,303.5C1769.7,310.5 1752.4,316.4 1751.0,316.6C1749.6,316.7 1736.3,312.5 1721.5,307.2ZM1823.5,234.9C1809.8,230.0 1796.5,225.3 1794.2,224.4L1789.8,222.8L1793.2,219.3L1796.5,215.9L1796.5,210.0L1796.5,204.1L1793.2,200.7L1789.8,197.2L1794.2,195.6C1796.5,194.7 1810.0,189.9 1824.0,185.0L1849.5,176.0L1897.2,192.7C1923.5,202.0 1945.0,209.7 1945.0,210.0C1945.0,210.5 1849.9,244.1 1849.0,243.9C1848.7,243.8 1837.2,239.8 1823.5,234.9Z"/>
  <path fill="#ffd900" fill-rule="evenodd" d="M12.2,382.0C2.7,376.2 2.5,361.5 11.9,355.3L15.3,353.0L222.4,353.0L429.5,353.0L421.7,360.8L414.0,368.5L421.7,376.3L429.5,384.0L326.7,384.0C269.7,384.0 224.0,383.6 224.0,383.1C224.0,382.7 221.7,379.9 218.8,377.0C208.1,366.1 196.8,363.9 175.1,368.4C168.3,369.8 160.7,371.0 158.3,371.0C155.8,371.0 147.7,369.2 140.2,367.1C119.9,361.2 110.6,359.0 106.6,359.0L103.0,359.0L105.1,364.2L107.1,369.4L105.3,370.8C102.2,373.0 99.1,373.3 96.7,371.6C95.5,370.7 93.0,368.8 91.1,367.5L87.7,365.0L86.5,366.7L85.2,368.4L87.1,371.9C88.1,373.9 89.0,376.6 89.0,378.0L89.0,380.5L82.7,380.2C78.1,379.9 74.9,380.4 71.0,381.9L65.5,384.0L40.5,384.0L15.5,384.0L12.2,382.0ZM1631.8,376.7C1635.7,372.7 1639.0,369.0 1639.0,368.5C1639.0,368.0 1635.7,364.3 1631.8,360.3L1624.6,353.0L1775.0,353.0L1925.5,353.0L1915.5,358.6C1904.5,364.8 1894.5,371.7 1885.9,379.2L1880.2,384.0L1752.4,384.0L1624.6,384.0L1631.8,376.7ZM1994.7,379.0C1976.3,370.1 1960.1,366.1 1939.7,365.6C1932.7,365.4 1926.7,365.0 1926.3,364.7C1926.0,364.4 1926.7,362.2 1927.9,359.9C1929.1,357.6 1929.9,355.1 1929.6,354.4L1929.1,353.0L1994.8,353.0L2060.5,353.0L2064.0,354.9C2068.1,357.1 2072.0,363.8 2072.0,368.8C2072.0,373.6 2067.8,380.4 2063.6,382.4L2060.2,384.0L2032.3,383.9L2004.5,383.8L1994.7,379.0ZM177.4,289.6C172.6,284.8 173.2,279.1 178.9,275.3L181.5,273.5L344.5,273.2L507.5,273.0L497.5,283.0L487.5,293.0L334.2,293.0L180.8,293.0L177.4,289.6ZM1560.2,283.2L1551.2,273.5L1593.2,273.2L1635.2,273.0L1638.5,274.6C1640.4,275.5 1642.5,277.6 1643.5,279.5L1645.1,282.9L1643.6,286.4C1642.8,288.4 1640.8,290.6 1639.1,291.4L1636.1,293.0L1602.6,293.0L1569.2,293.0L1560.2,283.2ZM1646.4,291.2C1647.4,290.0 1648.5,287.1 1648.7,284.6L1649.3,280.1L1647.2,276.5L1645.1,273.0L1646.6,273.0C1649.5,273.0 1654.0,276.1 1655.5,279.1C1658.5,284.8 1654.9,291.3 1648.0,292.6L1644.5,293.3L1646.4,291.2ZM1658.0,292.4C1658.0,291.9 1658.7,290.6 1659.5,289.6C1661.5,287.0 1661.4,279.0 1659.4,276.2C1658.5,274.9 1658.0,273.7 1658.3,273.4C1659.4,272.2 1664.2,274.5 1666.5,277.2C1669.8,281.1 1669.7,285.2 1666.2,288.9C1663.6,291.8 1658.0,294.1 1658.0,292.4ZM1672.1,288.5L1674.1,284.0L1673.0,280.1C1672.4,277.9 1671.5,275.8 1671.0,275.5C1668.6,274.0 1670.5,273.0 1675.8,273.0C1686.9,273.0 1693.0,276.6 1693.0,283.2C1693.0,290.2 1688.5,293.0 1677.6,293.0L1670.1,293.0L1672.1,288.5ZM281.3,219.3C280.1,219.1 278.0,217.8 276.6,216.5L274.0,214.1L274.0,210.0L274.0,205.9L276.6,203.5C278.1,202.1 280.7,200.8 282.4,200.5C284.1,200.2 352.7,200.1 434.8,200.2L584.1,200.5L573.3,210.2L562.5,220.0L423.0,219.8C346.3,219.8 282.5,219.5 281.3,219.3ZM1490.1,210.0L1479.7,200.0L1607.7,200.0L1735.7,200.0L1739.1,202.3C1745.6,206.7 1745.1,214.7 1738.0,218.2L1734.5,220.0L1617.5,220.0L1500.5,219.9L1490.1,210.0ZM1745.0,219.5C1745.0,219.2 1745.7,217.8 1746.6,216.4C1748.8,213.2 1748.7,206.8 1746.6,203.4C1745.6,202.0 1745.0,200.6 1745.3,200.4C1746.4,199.2 1751.2,201.5 1753.5,204.2C1757.9,209.4 1756.1,215.8 1749.4,218.6C1745.8,220.1 1745.0,220.3 1745.0,219.5ZM1759.0,216.0C1761.4,211.3 1761.1,206.7 1758.3,202.4C1756.5,199.5 1757.7,199.3 1762.5,201.5C1770.9,205.6 1769.1,217.2 1759.7,219.6L1756.8,220.3L1759.0,216.0ZM1771.0,216.4C1773.5,211.6 1773.5,208.4 1771.1,203.7L1769.2,200.0L1776.1,200.0C1785.1,200.0 1789.6,201.9 1791.5,206.4L1793.0,209.8L1791.9,212.8C1790.3,217.6 1786.6,219.3 1777.3,219.8L1769.1,220.2L1771.0,216.4Z"/>
  <path fill="#3d5da7" fill-rule="evenodd" d="M1153.8,718.3C1154.5,718.0 1155.4,718.1 1155.7,718.4C1156.1,718.7 1155.5,719.0 1154.4,718.9C1153.3,718.9 1153.0,718.6 1153.8,718.3ZM1151.1,716.4C1151.1,715.3 1151.4,715.0 1151.7,715.8C1152.0,716.5 1151.9,717.4 1151.6,717.7C1151.3,718.1 1151.0,717.5 1151.1,716.4ZM1166.8,715.3C1167.5,715.0 1168.4,715.1 1168.7,715.4C1169.1,715.7 1168.5,716.0 1167.4,715.9C1166.3,715.9 1166.0,715.6 1166.8,715.3ZM1170.8,714.3C1171.5,714.0 1172.4,714.1 1172.7,714.4C1173.1,714.7 1172.5,715.0 1171.4,714.9C1170.3,714.9 1170.0,714.6 1170.8,714.3ZM1142.9,700.2L1141.5,698.5L1143.2,699.9C1144.2,700.6 1145.0,701.4 1145.0,701.6C1145.0,702.4 1144.2,701.9 1142.9,700.2ZM1136.5,692.8L1131.5,687.5L1136.8,692.5C1139.6,695.2 1142.0,697.6 1142.0,697.7C1142.0,698.5 1141.1,697.6 1136.5,692.8ZM1243.0,691.0C1243.8,690.5 1245.0,690.0 1245.5,690.0C1246.0,690.0 1245.8,690.5 1245.0,691.0C1244.2,691.5 1243.0,692.0 1242.5,692.0C1242.0,692.0 1242.2,691.5 1243.0,691.0ZM1126.9,684.2L1125.5,682.5L1127.2,683.9C1128.2,684.6 1129.0,685.4 1129.0,685.6C1129.0,686.4 1128.2,685.9 1126.9,684.2ZM1273.0,678.0C1273.8,677.5 1275.0,677.0 1275.5,677.0C1276.0,677.0 1275.8,677.5 1275.0,678.0C1274.2,678.5 1273.0,679.0 1272.5,679.0C1272.0,679.0 1272.2,678.5 1273.0,678.0ZM1285.1,672.6C1286.1,671.7 1292.0,669.0 1292.0,669.4C1292.0,670.0 1286.5,673.0 1285.4,673.0C1285.0,673.0 1284.9,672.8 1285.1,672.6ZM1105.4,670.4L1103.5,668.9L1105.8,670.0C1107.0,670.6 1108.0,671.3 1108.0,671.5C1108.0,672.3 1107.5,672.1 1105.4,670.4ZM1097.4,666.4L1095.5,664.9L1098.0,666.1C1101.1,667.5 1101.6,668.0 1100.4,668.0C1099.8,668.0 1098.5,667.3 1097.4,666.4ZM1088.0,662.0C1087.2,661.5 1087.0,661.0 1087.5,661.0C1088.0,661.0 1089.2,661.5 1090.0,662.0C1090.8,662.5 1091.0,663.0 1090.5,663.0C1090.0,663.0 1088.8,662.5 1088.0,662.0ZM1307.0,661.6C1307.0,661.3 1308.3,660.4 1310.0,659.5C1311.7,658.6 1313.0,658.2 1313.0,658.4C1313.0,658.7 1311.7,659.6 1310.0,660.5C1308.3,661.4 1307.0,661.8 1307.0,661.6ZM1328.0,649.6C1328.0,649.3 1328.9,648.6 1330.0,648.0C1331.1,647.4 1332.0,647.2 1332.0,647.4C1332.0,647.7 1331.1,648.4 1330.0,649.0C1328.9,649.6 1328.0,649.8 1328.0,649.6ZM1019.0,634.0C1018.2,633.5 1018.0,633.0 1018.5,633.0C1019.0,633.0 1020.2,633.5 1021.0,634.0C1021.8,634.5 1022.0,635.0 1021.5,635.0C1021.0,635.0 1019.8,634.5 1019.0,634.0ZM1005.4,625.8L1003.5,623.5L1005.8,625.4C1007.9,627.2 1008.5,628.0 1007.7,628.0C1007.5,628.0 1006.5,627.0 1005.4,625.8ZM1003.0,618.1C1003.0,617.5 1003.4,616.8 1004.0,616.5C1004.6,616.2 1004.7,616.6 1004.4,617.4C1003.7,619.2 1003.0,619.5 1003.0,618.1ZM1380.0,615.6C1380.0,615.4 1380.8,614.6 1381.8,613.9L1383.5,612.5L1382.1,614.2C1380.8,615.9 1380.0,616.4 1380.0,615.6ZM1005.0,614.6C1005.0,614.4 1005.8,613.6 1006.8,612.9L1008.5,611.5L1007.1,613.2C1005.8,614.9 1005.0,615.4 1005.0,614.6ZM1028.8,603.3C1029.5,603.0 1030.4,603.1 1030.7,603.4C1031.1,603.7 1030.5,604.0 1029.4,603.9C1028.3,603.9 1028.0,603.6 1028.8,603.3ZM1396.0,603.6C1396.0,603.4 1396.8,602.6 1397.8,601.9L1399.5,600.5L1398.1,602.2C1396.8,603.9 1396.0,604.4 1396.0,603.6ZM1032.8,602.3C1033.5,602.0 1034.4,602.1 1034.7,602.4C1035.1,602.7 1034.5,603.0 1033.4,602.9C1032.3,602.9 1032.0,602.6 1032.8,602.3ZM1036.8,601.3C1037.5,601.0 1038.4,601.1 1038.7,601.4C1039.1,601.7 1038.5,602.0 1037.4,601.9C1036.3,601.9 1036.0,601.6 1036.8,601.3ZM1041.8,600.3C1042.5,600.0 1043.4,600.1 1043.7,600.4C1044.1,600.7 1043.5,601.0 1042.4,600.9C1041.3,600.9 1041.0,600.6 1041.8,600.3ZM1400.0,600.6C1400.0,600.4 1400.8,599.6 1401.8,598.9L1403.5,597.5L1402.1,599.2C1400.8,600.9 1400.0,601.4 1400.0,600.6ZM1046.8,599.3C1047.5,599.0 1048.4,599.1 1048.7,599.4C1049.1,599.7 1048.5,600.0 1047.4,599.9C1046.3,599.9 1046.0,599.6 1046.8,599.3ZM1051.8,598.3C1052.5,598.0 1053.4,598.1 1053.7,598.4C1054.1,598.7 1053.5,599.0 1052.4,598.9C1051.3,598.9 1051.0,598.6 1051.8,598.3ZM1057.8,597.3C1058.5,597.0 1059.4,597.1 1059.7,597.4C1060.1,597.7 1059.5,598.0 1058.4,597.9C1057.3,597.9 1057.0,597.6 1057.8,597.3ZM1062.8,596.3C1063.5,596.0 1064.4,596.1 1064.7,596.4C1065.1,596.7 1064.5,597.0 1063.4,596.9C1062.3,596.9 1062.0,596.6 1062.8,596.3ZM1405.0,596.6C1405.0,596.4 1405.8,595.6 1406.8,594.9L1408.5,593.5L1407.1,595.2C1405.8,596.9 1405.0,597.4 1405.0,596.6ZM1067.8,595.3C1068.5,595.0 1069.4,595.1 1069.7,595.4C1070.1,595.7 1069.5,596.0 1068.4,595.9C1067.3,595.9 1067.0,595.6 1067.8,595.3ZM1072.8,594.3C1073.5,594.0 1074.4,594.1 1074.7,594.4C1075.1,594.7 1074.5,595.0 1073.4,594.9C1072.3,594.9 1072.0,594.6 1072.8,594.3ZM1077.8,593.3C1078.5,593.0 1079.4,593.1 1079.7,593.4C1080.1,593.7 1079.5,594.0 1078.4,593.9C1077.3,593.9 1077.0,593.6 1077.8,593.3ZM1410.0,592.6C1410.0,592.4 1410.8,591.6 1411.8,590.9L1413.5,589.5L1412.1,591.2C1410.8,592.9 1410.0,593.4 1410.0,592.6ZM1940.2,577.6C1912.1,552.1 1896.8,534.8 1893.9,525.0L1892.7,521.2L1890.3,525.8C1888.9,528.4 1886.9,531.6 1885.7,532.9C1882.9,535.9 1868.9,545.1 1867.9,544.4C1867.5,544.2 1866.8,542.5 1866.4,540.7C1866.1,539.0 1862.9,528.3 1859.4,517.1C1855.9,505.9 1852.3,493.4 1851.5,489.4C1849.4,479.3 1849.6,468.8 1852.0,462.0C1853.1,459.0 1853.9,456.2 1854.0,455.8C1854.0,454.9 1846.1,459.6 1838.1,465.2C1835.1,467.3 1832.5,468.8 1832.2,468.5C1831.2,467.6 1837.4,450.1 1842.0,440.5C1856.6,410.3 1884.7,380.5 1914.7,363.4C1919.0,361.0 1922.8,359.0 1923.1,359.0C1923.5,359.0 1923.4,360.6 1922.8,362.6L1921.8,366.3L1923.2,367.6C1924.1,368.5 1928.0,369.0 1936.0,369.1C1959.2,369.5 1976.4,373.8 1997.4,384.4C2014.0,392.7 2026.0,400.9 2031.0,407.2C2038.8,417.1 2046.0,432.2 2047.4,442.0L2048.1,446.5L2044.3,442.2C2042.2,439.9 2040.0,438.0 2039.4,438.0C2038.8,438.0 2037.7,439.3 2037.0,440.9C2035.5,444.6 2036.3,449.9 2040.6,466.6C2042.5,473.7 2044.0,480.0 2044.0,480.5C2044.0,482.7 2036.9,474.2 2035.0,469.8C2031.2,460.8 2030.5,463.6 2030.5,488.8L2030.5,512.0L2025.4,506.5C2019.1,499.6 2017.6,499.4 2018.6,505.6C2019.2,509.9 2017.2,538.0 2016.2,538.0C2016.0,538.0 2013.0,535.8 2009.5,533.0C2003.2,528.0 2002.0,527.7 2002.0,531.2C2002.0,534.2 1991.7,558.1 1990.7,557.1C1990.3,556.7 1989.1,554.2 1988.1,551.6L1986.3,546.8L1976.8,559.7C1966.1,573.9 1957.0,587.8 1957.0,589.8C1957.0,590.4 1956.5,591.0 1956.0,591.0C1955.4,591.0 1948.3,585.0 1940.2,577.6ZM1415.0,588.6C1415.0,588.4 1415.8,587.6 1416.8,586.9L1418.5,585.5L1417.1,587.2C1415.8,588.9 1415.0,589.4 1415.0,588.6ZM1421.5,583.0C1422.5,581.9 1423.5,581.0 1423.8,581.0C1424.1,581.0 1423.5,581.9 1422.5,583.0C1421.5,584.1 1420.5,585.0 1420.2,585.0C1419.9,585.0 1420.5,584.1 1421.5,583.0ZM1107.1,582.3C1107.8,581.1 1108.6,580.3 1108.9,580.6C1109.2,580.8 1108.6,581.8 1107.6,582.8L1105.8,584.5L1107.1,582.3ZM1427.5,578.0C1428.5,576.9 1429.5,576.0 1429.8,576.0C1430.1,576.0 1429.5,576.9 1428.5,578.0C1427.5,579.1 1426.5,580.0 1426.2,580.0C1425.9,580.0 1426.5,579.1 1427.5,578.0ZM1109.1,577.4C1109.1,576.3 1109.4,576.0 1109.7,576.8C1110.0,577.5 1109.9,578.4 1109.6,578.7C1109.3,579.1 1109.0,578.5 1109.1,577.4ZM139.2,573.5C135.1,571.6 129.6,568.4 127.0,566.5L122.1,562.9L120.2,563.9C118.7,564.7 116.1,568.0 112.3,573.9C111.8,574.7 104.9,569.7 101.6,566.0C97.1,561.0 94.8,556.5 89.1,540.9L84.3,528.3L89.4,522.3C99.9,510.1 104.4,500.0 107.6,481.5C109.9,468.6 108.1,462.0 102.5,462.0C98.7,462.0 97.7,464.3 96.5,476.0C95.0,490.4 93.5,497.5 89.4,509.7C87.0,516.9 85.0,523.8 85.0,524.9C85.0,527.9 83.7,527.5 81.5,523.8C80.5,522.0 77.4,518.1 74.6,515.2L69.6,509.9L68.3,512.2C67.6,513.5 66.3,517.0 65.4,520.0L63.7,525.4L59.5,508.5C57.1,499.1 54.6,490.0 53.8,488.2L52.3,484.9L49.7,488.9C48.3,491.1 45.6,494.5 43.9,496.5L40.6,500.2L37.3,486.3L33.9,472.5L34.4,465.2C34.9,457.2 35.1,457.2 28.3,462.7C25.9,464.6 24.0,465.7 24.0,465.2C24.0,464.6 25.1,460.0 26.4,454.9C37.7,411.6 64.8,379.6 85.6,385.2C92.3,387.0 98.6,386.2 95.1,384.1C94.4,383.6 93.5,381.3 93.3,379.0L92.8,374.8L96.0,376.5C99.6,378.4 102.7,377.9 107.9,374.8L111.2,372.7L110.7,368.3L110.2,363.9L113.4,364.6C115.1,364.9 125.5,367.6 136.6,370.6C147.6,373.6 157.6,376.0 158.7,376.0C159.9,376.0 166.6,374.9 173.6,373.5C196.6,369.0 205.6,370.4 215.0,379.9C218.1,383.0 221.9,388.2 223.5,391.5L226.5,397.5L226.8,415.8C227.0,425.8 226.8,434.0 226.3,434.0C225.8,434.0 224.6,432.5 223.6,430.8C220.4,425.2 219.0,424.0 216.9,425.0L215.1,426.0L216.1,429.2C218.2,436.3 217.8,465.8 215.0,500.0C215.0,500.8 214.1,500.0 213.1,498.1L211.3,494.7L210.0,498.6C209.3,500.7 205.9,508.6 202.4,516.0C198.9,523.4 195.8,531.0 195.4,532.8C194.7,536.1 193.6,536.9 192.6,534.8L192.0,533.5L191.4,534.9C189.6,538.8 181.5,545.9 169.6,553.9C155.5,563.4 149.3,569.3 148.3,574.0C148.0,575.7 147.5,577.0 147.1,577.0C146.8,576.9 143.2,575.4 139.2,573.5ZM1434.0,572.5C1435.3,571.1 1436.6,570.0 1436.8,570.0C1437.1,570.0 1436.3,571.1 1435.0,572.5C1433.7,573.9 1432.4,575.0 1432.2,575.0C1431.9,575.0 1432.7,573.9 1434.0,572.5ZM1104.9,570.2L1102.5,567.5L1105.2,569.9C1106.8,571.3 1108.0,572.5 1108.0,572.7C1108.0,573.5 1107.2,572.8 1104.9,570.2ZM1955.1,560.2L1958.2,550.5L1958.2,541.0C1958.2,530.5 1955.1,513.3 1952.5,509.4C1949.3,504.5 1942.0,504.3 1942.0,509.1C1942.0,510.3 1943.5,517.6 1945.4,525.4L1948.9,539.5L1949.4,552.3C1950.0,564.1 1950.7,570.0 1951.6,570.0C1951.8,570.0 1953.3,565.6 1955.1,560.2ZM1442.0,565.5C1443.3,564.1 1444.6,563.0 1444.8,563.0C1445.1,563.0 1444.3,564.1 1443.0,565.5C1441.7,566.9 1440.4,568.0 1440.2,568.0C1439.9,568.0 1440.7,566.9 1442.0,565.5ZM1090.0,561.5C1088.6,560.7 1088.0,560.1 1088.5,560.1C1089.0,560.1 1090.6,560.7 1092.0,561.5C1093.4,562.3 1094.0,562.9 1093.5,562.9C1093.0,562.9 1091.4,562.3 1090.0,561.5ZM124.5,553.5C130.4,544.1 132.7,538.1 134.3,527.6C137.3,509.4 136.0,498.4 130.7,496.6L128.0,495.6L126.4,497.2L124.9,498.7L124.6,516.1L124.3,533.5L122.3,542.5C120.1,551.9 118.7,561.0 119.4,561.0C119.7,561.0 122.0,557.6 124.5,553.5ZM1451.0,557.5C1452.9,555.6 1454.6,554.0 1454.9,554.0C1455.2,554.0 1453.9,555.6 1452.0,557.5C1450.1,559.4 1448.4,561.0 1448.1,561.0C1447.8,561.0 1449.1,559.4 1451.0,557.5ZM1463.0,546.8C1467.1,542.3 1468.0,541.5 1468.0,542.3C1468.0,542.5 1465.9,544.6 1463.2,547.0L1458.5,551.5L1463.0,546.8ZM1920.2,537.1L1923.5,531.6L1923.8,521.5C1924.1,514.0 1923.8,510.5 1922.7,507.7C1920.9,503.5 1917.4,501.4 1913.6,502.4L1911.0,503.0L1911.0,506.3C1911.0,508.0 1911.7,513.1 1912.5,517.5L1914.1,525.5L1913.0,532.2C1912.5,535.9 1912.0,541.0 1912.0,543.7L1912.0,548.5L1914.4,545.5C1915.8,543.9 1918.3,540.1 1920.2,537.1ZM1036.0,539.0C1035.2,538.5 1035.0,538.0 1035.5,538.0C1036.0,538.0 1037.2,538.5 1038.0,539.0C1038.8,539.5 1039.0,540.0 1038.5,540.0C1038.0,540.0 1036.8,539.5 1036.0,539.0ZM1492.5,518.0C1502.9,507.6 1511.7,499.0 1512.0,499.0C1512.3,499.0 1503.9,507.6 1493.5,518.0C1483.1,528.5 1474.3,537.0 1474.0,537.0C1473.7,537.0 1482.1,528.5 1492.5,518.0ZM1026.9,533.2L1025.5,531.5L1027.2,532.9C1028.2,533.6 1029.0,534.4 1029.0,534.6C1029.0,535.4 1028.2,534.9 1026.9,533.2ZM1020.0,514.1C1020.0,513.5 1020.4,512.8 1021.0,512.5C1021.6,512.2 1021.7,512.6 1021.4,513.4C1020.7,515.2 1020.0,515.5 1020.0,514.1ZM1870.3,505.6C1879.9,499.3 1884.8,494.6 1889.9,487.0C1898.2,474.7 1902.4,465.3 1902.2,459.6C1902.1,456.2 1900.5,454.4 1896.9,453.5C1893.2,452.6 1890.9,455.4 1886.9,465.4C1881.6,478.8 1877.7,486.1 1871.1,495.0C1865.0,503.2 1860.4,511.0 1861.6,511.0C1861.9,511.0 1865.9,508.6 1870.3,505.6ZM1983.0,507.8C1982.3,506.6 1980.1,503.5 1978.1,501.0C1972.3,494.1 1971.0,491.6 1967.6,482.3C1964.1,472.6 1962.4,470.9 1958.5,473.0C1953.5,475.7 1953.9,482.2 1959.8,491.9C1961.8,495.2 1964.8,499.4 1966.5,501.2C1969.2,504.0 1982.9,511.5 1983.8,510.6C1984.0,510.3 1983.6,509.1 1983.0,507.8ZM183.3,506.0C182.2,504.3 178.5,499.7 174.9,495.8C165.8,485.6 161.5,479.7 156.3,470.0C149.9,458.2 147.4,455.0 144.5,455.0C139.6,455.0 138.6,462.2 142.4,469.8C145.8,476.5 156.4,490.2 162.1,495.4C165.8,498.7 182.6,508.8 184.8,509.0C185.0,509.0 184.3,507.6 183.3,506.0ZM1030.5,502.0C1031.5,500.9 1032.5,500.0 1032.8,500.0C1033.1,500.0 1032.5,500.9 1031.5,502.0C1030.5,503.1 1029.5,504.0 1029.2,504.0C1028.9,504.0 1029.5,503.1 1030.5,502.0ZM659.2,498.3L674.0,497.9L674.3,449.2L674.5,400.5L674.8,449.8L675.0,499.0L659.8,498.8L644.5,498.6L659.2,498.3ZM718.2,498.3L733.0,497.9L733.3,449.2L733.5,400.5L733.8,449.8L734.0,499.0L718.8,498.8L703.5,498.6L718.2,498.3ZM770.2,498.3C774.5,498.1 781.5,498.1 785.8,498.3C790.0,498.4 786.5,498.6 778.0,498.6C769.5,498.6 766.0,498.4 770.2,498.3ZM822.2,449.8L822.5,400.5L822.7,449.2L823.0,497.9L837.8,498.3L852.5,498.6L837.2,498.8L822.0,499.0L822.2,449.8ZM881.2,449.8L881.5,400.5L881.7,449.2L882.0,497.9L896.8,498.3L911.5,498.6L896.2,498.8L881.0,499.0L881.2,449.8ZM940.2,449.8L940.5,400.5L940.7,449.2L941.0,497.9L955.8,498.3L970.5,498.6L955.2,498.8L940.0,499.0L940.2,449.8ZM1106.2,498.3L1121.0,497.9L1121.3,449.2L1121.5,400.5L1121.8,449.8L1122.0,499.0L1106.8,498.8L1091.5,498.6L1106.2,498.3ZM1165.2,498.3L1180.0,497.9L1180.3,449.2L1180.5,400.5L1180.8,449.8L1181.0,499.0L1165.8,498.8L1150.5,498.6L1165.2,498.3ZM1210.2,449.8L1210.5,400.5L1210.7,449.2L1211.0,498.0L1225.0,498.0L1239.0,498.0L1239.3,449.2L1239.5,400.5L1239.8,449.8L1240.0,499.0L1225.0,499.0L1210.0,499.0L1210.2,449.8ZM1269.2,449.8L1269.5,400.5L1269.7,449.3L1270.0,498.1L1284.5,497.8C1292.5,497.6 1299.0,497.8 1299.0,498.2C1299.0,498.7 1292.2,499.0 1284.0,499.0L1269.0,499.0L1269.2,449.8ZM1328.2,449.8L1328.5,400.5L1328.7,449.2L1329.0,497.9L1343.8,498.3L1358.5,498.6L1343.2,498.8L1328.0,499.0L1328.2,449.8ZM1387.5,497.8C1387.2,497.1 1387.1,474.9 1387.2,448.5L1387.5,400.5L1387.8,449.2L1388.0,497.9L1402.8,498.3L1417.5,498.6L1402.7,498.8C1391.6,498.9 1387.8,498.7 1387.5,497.8ZM1524.0,485.5C1527.5,481.9 1530.7,479.0 1530.9,479.0C1531.2,479.0 1528.5,481.9 1525.0,485.5C1521.5,489.1 1518.3,492.0 1518.1,492.0C1517.8,492.0 1520.5,489.1 1524.0,485.5ZM1047.0,490.6C1047.0,490.4 1047.8,489.6 1048.8,488.9L1050.5,487.5L1049.1,489.2C1047.8,490.9 1047.0,491.4 1047.0,490.6ZM1056.0,482.8C1060.1,478.3 1061.0,477.5 1061.0,478.3C1061.0,478.5 1058.9,480.6 1056.2,483.0L1051.5,487.5L1056.0,482.8ZM60.6,476.6C67.9,471.0 74.4,464.8 78.4,459.5C86.4,449.1 97.0,424.4 97.0,416.4C97.0,412.1 93.9,408.0 90.5,408.0C87.6,408.0 85.7,411.6 80.0,428.5C74.8,443.7 72.0,450.0 66.4,458.8C62.4,465.0 54.7,480.0 55.5,480.0C55.9,480.0 58.2,478.4 60.6,476.6ZM1539.5,469.0C1542.2,466.2 1544.6,464.0 1544.9,464.0C1545.2,464.0 1543.2,466.2 1540.5,469.0C1537.8,471.8 1535.4,474.0 1535.1,474.0C1534.8,474.0 1536.8,471.8 1539.5,469.0ZM1068.1,461.4C1068.1,460.3 1068.4,460.0 1068.7,460.8C1069.0,461.5 1068.9,462.4 1068.6,462.7C1068.3,463.1 1068.0,462.5 1068.1,461.4ZM1553.0,454.8C1557.1,450.3 1558.0,449.5 1558.0,450.3C1558.0,450.5 1555.9,452.6 1553.2,455.0L1548.5,459.5L1553.0,454.8ZM1989.0,455.9C1987.6,454.7 1983.1,452.1 1979.0,450.0C1974.9,447.9 1967.9,443.1 1963.5,439.3C1953.8,430.9 1952.5,430.3 1950.5,433.4C1947.6,437.7 1951.0,442.4 1962.1,449.6C1970.9,455.3 1973.0,456.1 1982.5,457.0C1986.9,457.4 1990.7,457.8 1991.0,457.8C1991.3,457.9 1990.4,457.0 1989.0,455.9ZM1069.3,450.5C1069.3,446.6 1069.5,445.2 1069.7,447.3C1069.9,449.3 1069.9,452.5 1069.7,454.3C1069.5,456.0 1069.3,454.4 1069.3,450.5ZM190.9,450.5C189.5,449.1 182.6,443.6 175.5,438.2L162.6,428.5L150.5,415.1C143.9,407.7 137.5,401.4 136.3,400.9C133.2,399.8 129.9,402.7 129.8,406.7C129.7,411.4 134.0,417.9 143.2,426.5C158.7,441.1 166.2,445.7 182.0,450.4C193.0,453.6 194.1,453.6 190.9,450.5ZM1564.5,442.0C1566.6,439.8 1568.6,438.0 1568.9,438.0C1569.2,438.0 1567.6,439.8 1565.5,442.0C1563.4,444.2 1561.4,446.0 1561.1,446.0C1560.8,446.0 1562.4,444.2 1564.5,442.0ZM1070.2,439.0C1070.2,437.6 1070.4,437.1 1070.7,437.8C1070.9,438.4 1070.9,439.6 1070.7,440.2C1070.4,440.9 1070.2,440.4 1070.2,439.0ZM1575.5,430.0C1577.6,427.8 1579.6,426.0 1579.9,426.0C1580.2,426.0 1578.6,427.8 1576.5,430.0C1574.4,432.2 1572.4,434.0 1572.1,434.0C1571.8,434.0 1573.4,432.2 1575.5,430.0ZM1586.5,418.0C1588.6,415.8 1590.6,414.0 1590.9,414.0C1591.2,414.0 1589.6,415.8 1587.5,418.0C1585.4,420.2 1583.4,422.0 1583.1,422.0C1582.8,422.0 1584.4,420.2 1586.5,418.0ZM1598.0,405.8C1602.1,401.3 1603.0,400.5 1603.0,401.3C1603.0,401.5 1600.9,403.6 1598.2,406.0L1593.5,410.5L1598.0,405.8ZM1089.0,401.5C1092.0,398.5 1094.7,396.0 1094.9,396.0C1095.2,396.0 1093.0,398.5 1090.0,401.5C1087.0,404.5 1084.3,407.0 1084.1,407.0C1083.8,407.0 1086.0,404.5 1089.0,401.5ZM1611.5,391.0C1614.8,387.7 1617.7,385.0 1617.9,385.0C1618.2,385.0 1615.8,387.7 1612.5,391.0C1609.2,394.3 1606.3,397.0 1606.1,397.0C1605.8,397.0 1608.2,394.3 1611.5,391.0ZM1096.0,395.6C1096.0,395.4 1096.8,394.6 1097.8,393.9L1099.5,392.5L1098.1,394.2C1096.8,395.9 1096.0,396.4 1096.0,395.6ZM1100.0,392.6C1100.0,392.4 1100.8,391.6 1101.8,390.9L1103.5,389.5L1102.1,391.2C1100.8,392.9 1100.0,393.4 1100.0,392.6ZM425.5,379.8L421.5,375.5L425.8,379.5C429.7,383.1 430.5,384.0 429.7,384.0C429.5,384.0 427.6,382.1 425.5,379.8ZM1625.0,382.7C1625.0,382.5 1626.5,381.1 1628.2,379.4L1631.5,376.5L1628.6,379.8C1625.8,382.8 1625.0,383.5 1625.0,382.7ZM1119.5,379.0C1120.5,377.9 1121.5,377.0 1121.8,377.0C1122.1,377.0 1121.5,377.9 1120.5,379.0C1119.5,380.1 1118.5,381.0 1118.2,381.0C1117.9,381.0 1118.5,380.1 1119.5,379.0ZM1628.3,373.3L1633.0,368.5L1626.7,362.0L1620.5,355.5L1627.2,362.0L1634.0,368.4L1629.3,373.2C1626.7,375.8 1624.3,378.0 1624.1,378.0C1623.8,378.0 1625.7,375.9 1628.3,373.3ZM188.8,366.3C189.5,366.0 190.4,366.1 190.7,366.4C191.1,366.7 190.5,367.0 189.4,366.9C188.3,366.9 188.0,366.6 188.8,366.3ZM425.0,357.8C429.1,353.3 430.0,352.5 430.0,353.3C430.0,353.5 427.9,355.6 425.2,358.0L420.5,362.5L425.0,357.8ZM1628.4,357.8L1625.5,354.5L1628.8,357.4C1631.8,360.2 1632.5,361.0 1631.7,361.0C1631.5,361.0 1630.1,359.5 1628.4,357.8ZM1123.9,358.2L1122.5,356.5L1124.2,357.9C1125.9,359.2 1126.4,360.0 1125.6,360.0C1125.4,360.0 1124.6,359.2 1123.9,358.2ZM1114.8,355.3C1115.4,355.1 1116.6,355.1 1117.2,355.3C1117.9,355.6 1117.4,355.8 1116.0,355.8C1114.6,355.8 1114.1,355.6 1114.8,355.3ZM1610.0,344.2L1604.5,338.5L1610.2,344.0C1615.6,349.0 1616.5,350.0 1615.7,350.0C1615.6,350.0 1613.0,347.4 1610.0,344.2ZM1094.5,344.8L1090.5,340.5L1094.8,344.5C1097.1,346.6 1099.0,348.5 1099.0,348.7C1099.0,349.5 1098.1,348.7 1094.5,344.8ZM674.0,287.5L674.0,239.1L659.2,238.7L644.5,238.4L659.8,238.2L675.0,238.0L675.0,287.0C675.0,313.9 674.8,336.0 674.5,336.0C674.2,336.0 674.0,314.2 674.0,287.5ZM733.0,287.5L733.0,239.1L718.2,238.7L703.5,238.4L718.8,238.2L734.0,238.0L734.0,287.0C734.0,313.9 733.8,336.0 733.5,336.0C733.2,336.0 733.0,314.2 733.0,287.5ZM822.2,300.6L822.0,264.7L824.5,267.0C827.4,269.8 827.9,271.1 825.0,268.5L823.0,266.7L822.7,301.6L822.5,336.5L822.2,300.6ZM881.2,316.2C881.1,305.1 881.3,296.0 881.8,296.0C882.2,296.0 882.4,302.0 882.2,309.2C881.8,334.1 881.4,336.5 881.2,316.2ZM940.2,295.8C940.1,273.3 940.3,255.0 940.8,255.0C941.4,255.0 941.4,285.0 940.7,322.0C940.6,330.0 940.3,318.2 940.2,295.8ZM1121.0,287.5L1121.0,239.1L1106.2,238.7L1091.5,238.4L1106.8,238.2L1122.0,238.0L1122.0,287.0C1122.0,313.9 1121.8,336.0 1121.5,336.0C1121.2,336.0 1121.0,314.2 1121.0,287.5ZM1180.0,287.5L1180.0,239.1L1165.2,238.7L1150.5,238.4L1165.8,238.2L1181.0,238.0L1181.0,287.0C1181.0,313.9 1180.8,336.0 1180.5,336.0C1180.2,336.0 1180.0,314.2 1180.0,287.5ZM1210.2,287.2L1210.0,238.0L1225.0,238.0L1240.0,238.0L1239.8,287.2L1239.5,336.5L1239.3,287.8L1239.0,239.0L1225.0,239.0L1211.0,239.0L1210.7,287.8L1210.5,336.5L1210.2,287.2ZM1269.2,287.2L1269.0,238.0L1284.0,238.0C1292.2,238.0 1299.0,238.3 1299.0,238.8C1299.0,239.2 1292.5,239.4 1284.5,239.2L1270.0,238.9L1269.7,287.7L1269.5,336.5L1269.2,287.2ZM1328.2,287.2L1328.0,238.0L1343.2,238.2L1358.5,238.4L1343.8,238.7L1329.0,239.1L1328.7,287.8L1328.5,336.5L1328.2,287.2ZM1387.5,287.0L1387.5,238.5L1402.3,238.5L1417.0,238.4L1402.5,238.7L1388.0,239.1L1387.7,287.3L1387.5,335.5L1387.5,287.0ZM1597.0,330.5C1594.6,328.0 1592.8,326.0 1593.1,326.0C1593.4,326.0 1595.6,328.0 1598.0,330.5C1600.4,333.0 1602.2,335.0 1601.9,335.0C1601.6,335.0 1599.4,333.0 1597.0,330.5ZM1082.1,323.4C1082.1,322.3 1082.4,322.0 1082.7,322.8C1083.0,323.5 1082.9,324.4 1082.6,324.7C1082.3,325.1 1082.0,324.5 1082.1,323.4ZM1081.2,319.0C1081.2,317.6 1081.4,317.1 1081.7,317.8C1081.9,318.4 1081.9,319.6 1081.7,320.2C1081.4,320.9 1081.2,320.4 1081.2,319.0ZM1584.9,317.2L1581.5,313.5L1585.2,316.9C1588.7,320.2 1589.5,321.0 1588.7,321.0C1588.5,321.0 1586.8,319.3 1584.9,317.2ZM1080.2,312.5C1080.2,310.9 1080.4,310.3 1080.7,311.3C1080.9,312.2 1080.9,313.6 1080.7,314.3C1080.4,314.9 1080.2,314.1 1080.2,312.5ZM1574.5,305.8L1570.5,301.5L1574.8,305.5C1577.1,307.6 1579.0,309.5 1579.0,309.7C1579.0,310.5 1578.1,309.7 1574.5,305.8ZM1079.4,284.0C1079.4,272.2 1079.6,267.3 1079.7,273.2C1079.9,279.2 1079.9,288.8 1079.7,294.8C1079.6,300.7 1079.4,295.8 1079.4,284.0ZM901.5,301.1C881.6,294.2 864.9,282.5 855.8,268.8L853.0,264.7L849.6,268.3C847.4,270.6 845.9,273.4 845.5,276.0C845.1,278.2 844.6,280.0 844.3,280.0C843.4,280.0 831.5,269.4 823.8,261.8C816.3,254.4 811.0,246.8 811.0,243.4C811.0,240.1 808.4,239.7 806.4,242.8C805.4,244.3 803.7,248.4 802.5,251.9L800.3,258.2L793.2,250.4C780.1,235.9 773.6,225.7 770.1,214.3L768.5,209.0L762.0,217.4L755.5,225.8L754.8,224.1C754.5,223.1 753.9,219.2 753.5,215.4C753.1,211.6 752.6,207.3 752.4,205.7C751.8,202.0 754.2,192.2 758.4,180.9C760.4,175.8 761.8,171.4 761.5,171.2C761.3,171.0 756.8,174.0 751.4,178.0L741.7,185.2L742.4,181.2C744.3,169.2 753.9,146.7 763.5,131.8C778.8,108.1 800.7,86.4 821.2,74.6L825.8,71.9L825.3,75.7L824.8,79.6L826.5,81.0L828.3,82.5L847.4,83.1C868.7,83.8 877.4,85.4 893.2,91.5C909.6,97.8 928.8,109.6 936.3,117.9C944.2,126.7 955.4,148.0 960.4,163.8C962.6,171.0 963.8,178.0 962.7,178.0C960.7,178.0 947.8,172.7 936.7,167.3C920.6,159.5 918.2,159.6 925.5,168.1C936.4,180.7 946.4,198.8 949.9,212.1C952.1,220.4 953.3,228.0 952.5,228.0C950.4,228.0 939.0,221.3 936.9,218.8C933.6,214.9 931.5,215.8 932.5,220.8C932.9,222.7 934.5,227.7 936.2,231.9C939.3,239.6 942.3,250.1 941.5,250.8C941.3,251.1 939.4,249.9 937.3,248.3C933.4,245.2 919.9,237.0 918.7,237.0C918.4,237.0 919.0,239.1 920.2,241.7L922.2,246.3L921.7,252.9C921.4,256.7 919.2,265.7 916.6,273.9C911.4,290.2 910.3,296.5 911.8,300.9L912.9,304.0L911.2,304.0C910.3,303.9 905.9,302.7 901.5,301.1ZM906.4,297.8C905.5,296.0 901.2,289.3 896.9,282.9C891.2,274.6 887.3,267.3 883.1,257.1C875.2,238.2 873.5,236.4 868.3,241.6L865.8,244.1L866.4,248.3C867.6,256.2 879.7,278.5 886.7,285.8C889.7,289.0 906.0,301.0 907.3,301.0C907.7,301.0 907.3,299.5 906.4,297.8ZM1564.5,294.8L1560.5,290.5L1564.8,294.5C1567.1,296.6 1569.0,298.5 1569.0,298.7C1569.0,299.5 1568.1,298.7 1564.5,294.8ZM1690.0,296.1C1690.0,295.5 1690.4,294.9 1690.8,294.6C1691.3,294.3 1691.7,294.7 1691.7,295.5C1691.7,296.3 1691.3,297.0 1690.8,297.0C1690.4,297.0 1690.0,296.6 1690.0,296.1ZM259.8,293.3C301.8,293.1 370.2,293.1 411.8,293.3C453.4,293.4 419.1,293.5 335.5,293.5C251.9,293.5 217.8,293.4 259.8,293.3ZM1586.3,293.3C1595.6,293.1 1610.4,293.1 1619.3,293.3C1628.2,293.4 1620.7,293.6 1602.5,293.6C1584.3,293.6 1577.1,293.4 1586.3,293.3ZM1644.8,293.3C1645.5,293.0 1646.4,293.1 1646.7,293.4C1647.1,293.7 1646.5,294.0 1645.4,293.9C1644.3,293.9 1644.0,293.6 1644.8,293.3ZM1656.8,293.3C1657.4,293.1 1658.6,293.1 1659.2,293.3C1659.9,293.6 1659.4,293.8 1658.0,293.8C1656.6,293.8 1656.1,293.6 1656.8,293.3ZM1672.2,293.3C1674.3,293.1 1677.7,293.1 1679.8,293.3C1681.8,293.5 1680.1,293.7 1676.0,293.7C1671.9,293.7 1670.2,293.5 1672.2,293.3ZM1564.9,289.2L1563.5,287.5L1565.2,288.9C1566.9,290.2 1567.4,291.0 1566.6,291.0C1566.4,291.0 1565.6,290.2 1564.9,289.2ZM1553.5,282.8L1549.5,278.5L1553.8,282.5C1556.1,284.6 1558.0,286.5 1558.0,286.7C1558.0,287.5 1557.1,286.7 1553.5,282.8ZM1697.3,283.5C1697.3,281.3 1697.5,280.5 1697.7,281.8C1697.9,283.0 1697.9,284.8 1697.7,285.8C1697.4,286.7 1697.2,285.7 1697.3,283.5ZM1845.5,283.0C1845.2,282.4 1845.3,282.0 1845.9,282.0C1846.4,282.0 1847.2,282.4 1847.5,283.0C1847.8,283.6 1847.7,284.0 1847.1,284.0C1846.6,284.0 1845.8,283.6 1845.5,283.0ZM838.4,279.8L836.5,277.5L838.8,279.4C840.9,281.2 841.5,282.0 840.7,282.0C840.5,282.0 839.5,281.0 838.4,279.8ZM848.1,277.4C848.1,276.3 848.4,276.0 848.7,276.8C849.0,277.5 848.9,278.4 848.6,278.7C848.3,279.1 848.0,278.5 848.1,277.4ZM1552.9,276.2L1551.5,274.5L1553.2,275.9C1554.9,277.2 1555.4,278.0 1554.6,278.0C1554.4,278.0 1553.6,277.2 1552.9,276.2ZM831.9,274.2L829.5,271.5L832.2,273.9C833.8,275.3 835.0,276.5 835.0,276.7C835.0,277.5 834.2,276.8 831.9,274.2ZM1693.4,273.8L1691.5,271.5L1693.8,273.4C1695.9,275.2 1696.5,276.0 1695.7,276.0C1695.5,276.0 1694.5,275.0 1693.4,273.8ZM1540.0,268.2L1534.5,262.5L1540.2,268.0C1545.6,273.0 1546.5,274.0 1545.7,274.0C1545.6,274.0 1543.0,271.4 1540.0,268.2ZM839.4,260.1C845.5,248.0 847.2,241.7 847.5,229.0C848.2,204.5 844.7,192.0 837.1,192.0C831.1,192.0 830.7,195.5 834.1,215.4L836.2,227.5L835.5,247.2C835.1,258.1 835.0,267.0 835.4,267.0C835.7,267.0 837.5,263.9 839.4,260.1ZM944.8,255.5C945.0,254.1 945.4,253.0 945.6,253.0C945.8,253.0 946.0,254.1 946.0,255.5C946.0,256.9 945.6,258.0 945.1,258.0C944.7,258.0 944.5,256.9 944.8,255.5ZM1523.5,250.8L1517.5,244.5L1523.8,250.5C1527.2,253.8 1530.0,256.6 1530.0,256.7C1530.0,257.5 1529.0,256.6 1523.5,250.8ZM789.4,251.8L786.5,248.5L789.8,251.4C791.5,253.1 793.0,254.5 793.0,254.7C793.0,255.5 792.2,254.8 789.4,251.8ZM1079.3,244.0C1079.3,241.0 1079.5,239.7 1079.7,241.2C1079.9,242.8 1079.9,245.2 1079.7,246.8C1079.5,248.3 1079.3,247.0 1079.3,244.0ZM944.1,246.4C944.1,245.3 944.4,245.0 944.7,245.8C945.0,246.5 944.9,247.4 944.6,247.7C944.3,248.1 944.0,247.5 944.1,246.4ZM782.4,243.8L780.5,241.5L782.8,243.4C784.0,244.5 785.0,245.5 785.0,245.7C785.0,246.5 784.2,245.9 782.4,243.8ZM779.4,240.0C778.9,239.5 774.9,238.9 770.5,238.7L762.5,238.4L770.6,238.2L778.8,238.0L780.0,239.5C781.4,241.2 781.0,241.6 779.4,240.0ZM942.0,238.8C942.0,238.3 948.4,238.1 956.2,238.2C970.8,238.4 969.1,238.8 951.7,239.2C946.4,239.4 942.0,239.2 942.0,238.8ZM1493.0,219.2L1474.5,200.5L1493.2,219.0C1510.7,236.2 1512.5,238.0 1511.7,238.0C1511.6,238.0 1503.2,229.6 1493.0,219.2ZM1078.1,234.4C1078.1,233.3 1078.4,233.0 1078.7,233.8C1079.0,234.5 1078.9,235.4 1078.6,235.7C1078.3,236.1 1078.0,235.5 1078.1,234.4ZM1074.4,225.8L1072.5,223.5L1074.8,225.4C1076.9,227.2 1077.5,228.0 1076.7,228.0C1076.5,228.0 1075.5,227.0 1074.4,225.8ZM800.4,210.5C803.4,206.1 806.9,199.6 808.3,196.0C811.7,187.4 815.0,169.9 815.7,157.5L816.2,147.5L814.7,143.8C811.8,136.9 804.1,136.0 802.1,142.2C801.5,144.0 800.8,149.4 800.5,154.2C800.2,159.1 799.8,166.9 799.5,171.8C798.8,183.3 798.4,185.1 793.9,201.3C791.8,208.9 789.8,217.4 789.5,220.3L788.9,225.5L792.0,222.0C793.7,220.1 797.5,214.9 800.4,210.5ZM1069.8,223.3C1070.5,223.0 1071.4,223.1 1071.7,223.4C1072.1,223.7 1071.5,224.0 1070.4,223.9C1069.3,223.9 1069.0,223.6 1069.8,223.3ZM1789.2,223.1L1787.8,222.3L1789.5,221.7C1790.4,221.3 1790.9,221.4 1790.5,221.9C1790.2,222.4 1790.6,223.1 1791.2,223.3C1791.9,223.6 1792.0,223.9 1791.5,223.9C1791.0,223.9 1789.9,223.6 1789.2,223.1ZM1055.4,217.8L1053.5,215.5L1055.8,217.4C1057.9,219.2 1058.5,220.0 1057.7,220.0C1057.5,220.0 1056.5,219.0 1055.4,217.8ZM937.0,212.9C935.1,211.3 928.5,206.9 922.5,203.3C911.1,196.5 907.0,193.3 893.5,180.6C889.1,176.5 884.3,172.5 882.7,171.9L879.9,170.7L878.0,172.5C875.1,175.1 875.5,180.0 878.8,184.6C883.9,191.6 900.2,203.9 911.2,209.0C917.0,211.7 933.0,215.8 938.5,215.9L940.5,215.9L937.0,212.9ZM1772.1,209.4C1772.1,208.3 1772.4,208.0 1772.7,208.8C1773.0,209.5 1772.9,210.4 1772.6,210.7C1772.3,211.1 1772.0,210.5 1772.1,209.4ZM1945.0,210.0C1945.0,209.4 1945.5,209.0 1946.0,209.0C1946.5,209.0 1947.0,209.4 1947.0,210.0C1947.0,210.6 1946.5,211.0 1946.0,211.0C1945.5,211.0 1945.0,210.6 1945.0,210.0ZM1794.6,203.3L1793.9,201.5L1795.1,202.7C1795.8,203.4 1796.1,204.2 1795.8,204.5C1795.5,204.8 1794.9,204.3 1794.6,203.3ZM1789.2,198.1L1787.8,197.3L1789.6,196.6C1790.5,196.3 1791.5,196.2 1791.8,196.5C1792.1,196.8 1791.8,197.0 1791.1,197.0C1790.4,197.0 1790.2,197.4 1790.5,198.0C1791.2,199.2 1790.9,199.2 1789.2,198.1ZM1463.5,190.8L1458.5,185.5L1463.8,190.5C1466.6,193.2 1469.0,195.6 1469.0,195.7C1469.0,196.5 1468.1,195.6 1463.5,190.8ZM1042.9,192.2L1041.5,190.5L1043.2,191.9C1044.9,193.2 1045.4,194.0 1044.6,194.0C1044.4,194.0 1043.6,193.2 1042.9,192.2ZM1034.0,186.0C1033.2,185.5 1033.0,185.0 1033.5,185.0C1034.0,185.0 1035.2,185.5 1036.0,186.0C1036.8,186.5 1037.0,187.0 1036.5,187.0C1036.0,187.0 1034.8,186.5 1034.0,186.0ZM1021.8,183.3C1023.0,183.1 1024.8,183.1 1025.8,183.3C1026.7,183.6 1025.7,183.8 1023.5,183.7C1021.3,183.7 1020.5,183.5 1021.8,183.3ZM1451.5,179.8L1447.5,175.5L1451.8,179.5C1454.1,181.6 1456.0,183.5 1456.0,183.7C1456.0,184.5 1455.1,183.7 1451.5,179.8ZM1014.8,182.3C1015.5,182.0 1016.4,182.1 1016.7,182.4C1017.1,182.7 1016.5,183.0 1015.4,182.9C1014.3,182.9 1014.0,182.6 1014.8,182.3ZM1441.9,171.2L1439.5,168.5L1442.2,170.9C1443.8,172.3 1445.0,173.5 1445.0,173.7C1445.0,174.5 1444.2,173.8 1441.9,171.2ZM1003.1,169.4C1003.1,168.3 1003.4,168.0 1003.7,168.8C1004.0,169.5 1003.9,170.4 1003.6,170.7C1003.3,171.1 1003.0,170.5 1003.1,169.4ZM1434.4,164.8L1431.5,161.5L1434.8,164.4C1437.8,167.2 1438.5,168.0 1437.7,168.0C1437.5,168.0 1436.1,166.5 1434.4,164.8ZM1002.1,164.4C1002.1,163.3 1002.4,163.0 1002.7,163.8C1003.0,164.5 1002.9,165.4 1002.6,165.7C1002.3,166.1 1002.0,165.5 1002.1,164.4ZM1427.4,158.8L1425.5,156.5L1427.8,158.4C1429.9,160.2 1430.5,161.0 1429.7,161.0C1429.5,161.0 1428.5,160.0 1427.4,158.8ZM1421.4,153.8L1419.5,151.5L1421.8,153.4C1423.9,155.2 1424.5,156.0 1423.7,156.0C1423.5,156.0 1422.5,155.0 1421.4,153.8ZM926.5,151.5C922.6,149.7 914.3,146.4 907.9,144.2C893.9,139.4 889.8,137.3 872.0,126.4C864.4,121.8 856.8,117.7 855.1,117.4C850.8,116.5 848.0,119.1 848.0,123.8L848.0,127.3L852.3,131.5C856.8,135.7 873.0,144.6 885.2,149.4C897.3,154.2 901.6,154.9 918.0,154.8L933.5,154.8L926.5,151.5ZM1415.9,149.2L1414.5,147.5L1416.2,148.9C1417.9,150.2 1418.4,151.0 1417.6,151.0C1417.4,151.0 1416.6,150.2 1415.9,149.2ZM1410.9,145.2L1409.5,143.5L1411.2,144.9C1412.9,146.2 1413.4,147.0 1412.6,147.0C1412.4,147.0 1411.6,146.2 1410.9,145.2ZM1405.9,141.2L1404.5,139.5L1406.2,140.9C1407.9,142.2 1408.4,143.0 1407.6,143.0C1407.4,143.0 1406.6,142.2 1405.9,141.2ZM1400.9,137.2L1399.5,135.5L1401.2,136.9C1402.9,138.2 1403.4,139.0 1402.6,139.0C1402.4,139.0 1401.6,138.2 1400.9,137.2ZM1396.9,134.2L1395.5,132.5L1397.2,133.9C1398.9,135.2 1399.4,136.0 1398.6,136.0C1398.4,136.0 1397.6,135.2 1396.9,134.2ZM985.4,131.8L983.5,129.5L985.8,131.4C987.9,133.2 988.5,134.0 987.7,134.0C987.5,134.0 986.5,133.0 985.4,131.8ZM1392.9,131.2L1391.5,129.5L1393.2,130.9C1394.2,131.6 1395.0,132.4 1395.0,132.6C1395.0,133.4 1394.2,132.9 1392.9,131.2ZM981.9,127.2L980.5,125.5L982.2,126.9C983.2,127.6 984.0,128.4 984.0,128.6C984.0,129.4 983.2,128.9 981.9,127.2ZM1380.9,122.2L1379.5,120.5L1381.2,121.9C1382.9,123.2 1383.4,124.0 1382.6,124.0C1382.4,124.0 1381.6,123.2 1380.9,122.2ZM973.1,106.4C973.1,105.3 973.4,105.0 973.7,105.8C974.0,106.5 973.9,107.4 973.6,107.7C973.3,108.1 973.0,107.5 973.1,106.4ZM972.2,97.0C972.2,95.6 972.4,95.1 972.7,95.8C972.9,96.4 972.9,97.6 972.7,98.2C972.4,98.9 972.2,98.4 972.2,97.0ZM973.2,88.0C973.2,86.6 973.4,86.1 973.7,86.8C973.9,87.4 973.9,88.6 973.7,89.2C973.4,89.9 973.2,89.4 973.2,88.0ZM1327.4,87.4L1325.5,85.9L1327.8,87.0C1329.0,87.6 1330.0,88.3 1330.0,88.5C1330.0,89.3 1329.5,89.1 1327.4,87.4ZM974.1,82.4C974.1,81.3 974.4,81.0 974.7,81.8C975.0,82.5 974.9,83.4 974.6,83.7C974.3,84.1 974.0,83.5 974.1,82.4ZM1303.8,74.4C1300.0,72.4 1300.2,71.6 1304.0,73.5C1305.7,74.4 1307.0,75.3 1307.0,75.5C1307.0,76.2 1306.9,76.1 1303.8,74.4ZM980.1,65.5C980.1,65.0 980.7,63.4 981.5,62.0C982.3,60.6 982.9,60.0 982.9,60.5C982.9,61.0 982.3,62.6 981.5,64.0C980.7,65.4 980.1,66.0 980.1,65.5ZM1275.0,60.0C1274.2,59.5 1274.0,59.0 1274.5,59.0C1275.0,59.0 1276.2,59.5 1277.0,60.0C1277.8,60.5 1278.0,61.0 1277.5,61.0C1277.0,61.0 1275.8,60.5 1275.0,60.0ZM984.5,56.0C985.4,54.4 986.3,53.0 986.6,53.0C986.8,53.0 986.4,54.4 985.5,56.0C984.6,57.6 983.7,59.0 983.4,59.0C983.2,59.0 983.6,57.6 984.5,56.0ZM1260.0,53.0C1259.2,52.5 1259.0,52.0 1259.5,52.0C1260.0,52.0 1261.2,52.5 1262.0,53.0C1262.8,53.5 1263.0,54.0 1262.5,54.0C1262.0,54.0 1260.8,53.5 1260.0,53.0ZM1253.0,50.0C1252.2,49.5 1252.0,49.0 1252.5,49.0C1253.0,49.0 1254.2,49.5 1255.0,50.0C1255.8,50.5 1256.0,51.0 1255.5,51.0C1255.0,51.0 1253.8,50.5 1253.0,50.0ZM1002.0,29.6C1002.0,29.4 1002.8,28.6 1003.8,27.9L1005.5,26.5L1004.1,28.2C1002.8,29.9 1002.0,30.4 1002.0,29.6ZM1006.0,24.6C1006.0,24.4 1006.8,23.6 1007.8,22.9L1009.5,21.5L1008.1,23.2C1006.8,24.9 1006.0,25.4 1006.0,24.6ZM1178.8,24.3C1179.5,24.0 1180.4,24.1 1180.7,24.4C1181.1,24.7 1180.5,25.0 1179.4,24.9C1178.3,24.9 1178.0,24.6 1178.8,24.3ZM1174.8,23.3C1175.5,23.0 1176.4,23.1 1176.7,23.4C1177.1,23.7 1176.5,24.0 1175.4,23.9C1174.3,23.9 1174.0,23.6 1174.8,23.3ZM1166.8,21.3C1167.5,21.0 1168.4,21.1 1168.7,21.4C1169.1,21.7 1168.5,22.0 1167.4,21.9C1166.3,21.9 1166.0,21.6 1166.8,21.3ZM1162.8,20.3C1163.5,20.0 1164.4,20.1 1164.7,20.4C1165.1,20.7 1164.5,21.0 1163.4,20.9C1162.3,20.9 1162.0,20.6 1162.8,20.3ZM1011.0,18.7C1011.0,18.5 1012.5,17.1 1014.2,15.4L1017.5,12.5L1014.6,15.8C1011.8,18.8 1011.0,19.5 1011.0,18.7ZM1149.8,17.3C1150.5,17.0 1151.4,17.1 1151.7,17.4C1152.1,17.7 1151.5,18.0 1150.4,17.9C1149.3,17.9 1149.0,17.6 1149.8,17.3ZM1144.8,16.3C1145.5,16.0 1146.4,16.1 1146.7,16.4C1147.1,16.7 1146.5,17.0 1145.4,16.9C1144.3,16.9 1144.0,16.6 1144.8,16.3ZM1138.8,15.3C1139.4,15.1 1140.6,15.1 1141.2,15.3C1141.9,15.6 1141.4,15.8 1140.0,15.8C1138.6,15.8 1138.1,15.6 1138.8,15.3ZM1133.8,14.3C1134.5,14.0 1135.4,14.1 1135.7,14.4C1136.1,14.7 1135.5,15.0 1134.4,14.9C1133.3,14.9 1133.0,14.6 1133.8,14.3ZM1128.8,13.3C1129.5,13.0 1130.4,13.1 1130.7,13.4C1131.1,13.7 1130.5,14.0 1129.4,13.9C1128.3,13.9 1128.0,13.6 1128.8,13.3ZM1123.8,12.3C1124.5,12.0 1125.4,12.1 1125.7,12.4C1126.1,12.7 1125.5,13.0 1124.4,12.9C1123.3,12.9 1123.0,12.6 1123.8,12.3ZM1116.8,11.3C1117.4,11.1 1118.6,11.1 1119.2,11.3C1119.9,11.6 1119.4,11.8 1118.0,11.8C1116.6,11.8 1116.1,11.6 1116.8,11.3ZM1109.3,10.3C1110.2,10.1 1111.6,10.1 1112.3,10.3C1112.9,10.6 1112.2,10.8 1110.5,10.8C1108.8,10.8 1108.3,10.6 1109.3,10.3ZM1101.8,9.3C1102.4,9.1 1103.6,9.1 1104.2,9.3C1104.9,9.6 1104.4,9.8 1103.0,9.8C1101.6,9.8 1101.1,9.6 1101.8,9.3ZM1094.3,8.3C1095.2,8.1 1096.6,8.1 1097.3,8.3C1097.9,8.6 1097.2,8.8 1095.5,8.8C1093.8,8.8 1093.3,8.6 1094.3,8.3ZM1082.8,7.3C1084.0,7.1 1086.0,7.1 1087.2,7.3C1088.5,7.5 1087.5,7.7 1085.0,7.7C1082.5,7.7 1081.5,7.5 1082.8,7.3ZM1069.8,6.3C1071.0,6.1 1073.0,6.1 1074.2,6.3C1075.5,6.5 1074.5,6.7 1072.0,6.7C1069.5,6.7 1068.5,6.5 1069.8,6.3ZM1052.2,5.3C1054.3,5.1 1057.7,5.1 1059.8,5.3C1061.8,5.5 1060.1,5.7 1056.0,5.7C1051.9,5.7 1050.2,5.5 1052.2,5.3ZM1026.8,4.3C1028.0,4.1 1029.8,4.1 1030.8,4.3C1031.7,4.6 1030.7,4.8 1028.5,4.7C1026.3,4.7 1025.5,4.5 1026.8,4.3Z"/>
  <path fill="#b10b0b" fill-rule="evenodd" d="M1950.6,567.6C1950.3,566.2 1949.7,559.4 1949.4,552.3L1948.9,539.5L1945.4,525.4C1943.5,517.6 1942.0,510.3 1942.0,509.1C1942.0,504.3 1949.3,504.5 1952.5,509.4C1955.1,513.3 1958.2,530.5 1958.2,541.0L1958.2,550.5L1955.1,560.2C1953.3,565.6 1951.8,570.0 1951.6,570.0C1951.4,570.0 1950.9,568.9 1950.6,567.6ZM119.6,556.2C120.0,553.6 121.2,547.5 122.3,542.5L124.3,533.5L124.6,516.1L124.9,498.7L126.4,497.2L128.0,495.6L130.7,496.6C132.6,497.2 133.9,498.7 134.7,501.0C137.1,507.9 135.1,530.5 131.1,541.0C129.3,545.7 120.4,561.0 119.4,561.0C119.2,561.0 119.3,558.9 119.6,556.2ZM1912.0,543.7C1912.0,541.0 1912.5,535.9 1913.0,532.2L1914.1,525.5L1912.5,517.5C1911.7,513.1 1911.0,508.0 1911.0,506.3L1911.0,503.0L1913.6,502.4C1917.4,501.4 1920.9,503.5 1922.7,507.7C1923.8,510.5 1924.1,514.0 1923.8,521.5L1923.5,531.6L1920.2,537.1C1918.3,540.1 1915.8,543.9 1914.4,545.5L1912.0,548.5L1912.0,543.7ZM85.5,522.5C86.3,519.2 88.3,512.8 90.0,508.2C92.9,500.1 95.3,488.7 96.5,476.5C97.6,464.4 98.6,462.0 102.5,462.0C108.1,462.0 109.9,468.6 107.6,481.5C104.4,500.0 99.2,511.4 88.5,523.5L84.1,528.5L85.5,522.5ZM1862.9,507.2C1864.0,505.1 1867.7,499.6 1871.1,495.0C1877.7,486.1 1881.6,478.8 1886.9,465.4C1890.9,455.4 1893.2,452.6 1896.9,453.5C1902.2,454.8 1903.5,458.8 1901.0,466.5C1898.3,474.7 1888.7,490.1 1882.4,496.4C1878.8,499.9 1863.0,511.0 1861.6,511.0C1861.2,511.0 1861.8,509.3 1862.9,507.2ZM1976.4,507.6C1968.5,503.8 1965.1,500.6 1959.8,491.9C1953.9,482.2 1953.5,475.7 1958.5,473.0C1962.4,470.9 1964.1,472.6 1967.6,482.3C1971.0,491.6 1972.3,494.1 1978.1,501.0C1981.9,505.7 1984.4,509.9 1983.8,510.6C1983.5,510.8 1980.2,509.5 1976.4,507.6ZM175.7,504.4C170.9,501.8 164.8,497.8 162.1,495.4C156.4,490.2 145.8,476.5 142.4,469.8C138.6,462.2 139.6,455.0 144.5,455.0C147.4,455.0 149.9,458.2 156.3,470.0C161.5,479.7 165.8,485.6 174.9,495.8C180.6,502.1 185.8,509.1 184.8,509.0C184.7,508.9 180.6,506.9 175.7,504.4ZM59.0,472.0C61.2,467.6 64.5,461.7 66.4,458.8C72.0,450.0 74.8,443.7 80.0,428.5C85.7,411.6 87.6,408.0 90.5,408.0C93.9,408.0 97.0,412.1 97.0,416.4C97.0,424.4 86.4,449.1 78.4,459.5C73.5,466.0 57.8,480.0 55.5,480.0C55.2,480.0 56.8,476.4 59.0,472.0ZM1982.5,457.0C1973.0,456.1 1970.9,455.3 1962.1,449.6C1951.0,442.4 1947.6,437.7 1950.5,433.4C1952.5,430.3 1953.8,430.9 1963.5,439.3C1967.9,443.1 1974.9,447.9 1979.0,450.0C1985.1,453.1 1993.1,458.3 1991.0,457.8C1990.7,457.8 1986.9,457.4 1982.5,457.0ZM182.0,450.4C166.2,445.7 158.7,441.1 143.2,426.5C134.0,417.9 129.7,411.4 129.8,406.7C129.9,402.7 133.2,399.8 136.3,400.9C137.5,401.4 143.9,407.7 150.5,415.1L162.6,428.5L175.5,438.2C189.7,448.9 194.3,453.0 192.0,452.9C191.2,452.9 186.7,451.8 182.0,450.4ZM30.2,384.3C36.7,384.1 47.3,384.1 53.7,384.3C60.2,384.4 54.9,384.6 42.0,384.6C29.1,384.6 23.8,384.4 30.2,384.3ZM276.3,384.3C304.8,384.1 351.2,384.1 379.3,384.3C407.5,384.4 384.1,384.5 327.5,384.5C270.9,384.5 247.8,384.4 276.3,384.3ZM1687.8,384.3C1723.1,384.1 1780.9,384.1 1816.2,384.3C1851.6,384.4 1822.7,384.5 1752.0,384.5C1681.3,384.5 1652.4,384.4 1687.8,384.3ZM2018.8,384.3C2026.0,384.1 2038.0,384.1 2045.2,384.3C2052.5,384.4 2046.6,384.6 2032.0,384.6C2017.4,384.6 2011.5,384.4 2018.8,384.3ZM217.9,376.2L216.5,374.5L218.2,375.9C219.2,376.6 220.0,377.4 220.0,377.6C220.0,378.4 219.2,377.9 217.9,376.2ZM1634.5,373.0C1636.6,370.8 1638.6,369.0 1638.9,369.0C1639.2,369.0 1637.6,370.8 1635.5,373.0C1633.4,375.2 1631.4,377.0 1631.1,377.0C1630.8,377.0 1632.4,375.2 1634.5,373.0ZM157.3,371.3C158.2,371.1 159.6,371.1 160.3,371.3C160.9,371.6 160.2,371.8 158.5,371.8C156.8,371.8 156.3,371.6 157.3,371.3ZM414.9,369.2L413.5,367.5L415.2,368.9C416.2,369.6 417.0,370.4 417.0,370.6C417.0,371.4 416.2,370.9 414.9,369.2ZM4.1,368.4C4.1,367.3 4.4,367.0 4.7,367.8C5.0,368.5 4.9,369.4 4.6,369.7C4.3,370.1 4.0,369.5 4.1,368.4ZM1634.9,364.2L1631.5,360.5L1635.2,363.9C1638.7,367.2 1639.5,368.0 1638.7,368.0C1638.5,368.0 1636.8,366.3 1634.9,364.2ZM185.8,366.3C186.5,366.0 187.4,366.1 187.7,366.4C188.1,366.7 187.5,367.0 186.4,366.9C185.3,366.9 185.0,366.6 185.8,366.3ZM418.0,364.5C419.3,363.1 420.6,362.0 420.8,362.0C421.1,362.0 420.3,363.1 419.0,364.5C417.7,365.9 416.4,367.0 416.2,367.0C415.9,367.0 416.7,365.9 418.0,364.5ZM1933.2,365.3C1934.8,365.1 1937.2,365.1 1938.8,365.3C1940.3,365.5 1939.0,365.7 1936.0,365.7C1933.0,365.7 1931.7,365.5 1933.2,365.3ZM1774.5,353.0L1623.5,352.5L1775.3,352.2C1876.3,352.1 1926.9,352.3 1926.5,353.0C1926.2,353.6 1925.8,353.9 1925.7,353.8C1925.6,353.6 1857.5,353.3 1774.5,353.0ZM121.8,352.3C178.7,352.1 271.4,352.1 327.8,352.3C384.3,352.4 337.8,352.5 224.5,352.5C111.2,352.5 65.0,352.4 121.8,352.3ZM1961.3,352.3C1979.4,352.1 2008.6,352.1 2026.3,352.3C2044.0,352.4 2029.2,352.5 1993.5,352.5C1957.8,352.5 1943.3,352.4 1961.3,352.3ZM898.0,294.9C893.3,291.5 888.2,287.4 886.7,285.8C879.7,278.5 867.6,256.2 866.4,248.3L865.8,244.1L868.3,241.6C873.5,236.4 875.2,238.2 883.1,257.1C887.3,267.3 891.2,274.6 896.9,282.9C905.2,295.3 908.5,301.0 907.3,301.0C906.8,301.0 902.7,298.2 898.0,294.9ZM497.5,283.0C503.0,277.5 507.7,273.0 508.0,273.0C508.2,273.0 504.0,277.5 498.5,283.0C493.0,288.5 488.3,293.0 488.0,293.0C487.8,293.0 492.0,288.5 497.5,283.0ZM1673.1,283.4C1673.1,282.3 1673.4,282.0 1673.7,282.8C1674.0,283.5 1673.9,284.4 1673.6,284.7C1673.3,285.1 1673.0,284.5 1673.1,283.4ZM1556.4,279.8L1554.5,277.5L1556.8,279.4C1558.9,281.2 1559.5,282.0 1558.7,282.0C1558.5,282.0 1557.5,281.0 1556.4,279.8ZM835.5,247.2L836.2,227.5L834.1,215.4C830.7,195.5 831.1,192.0 837.1,192.0C840.4,192.0 843.5,194.9 845.0,199.6C848.5,210.1 848.5,236.7 845.1,246.9C842.7,253.8 836.4,267.0 835.4,267.0C835.0,267.0 835.1,258.1 835.5,247.2ZM789.5,220.3C789.8,217.4 791.8,208.9 793.9,201.3C798.4,185.1 798.8,183.3 799.5,171.8C799.8,166.9 800.2,159.1 800.5,154.2C800.8,149.4 801.5,144.0 802.1,142.2C804.1,136.0 811.8,136.9 814.7,143.8L816.2,147.5L815.7,157.5C815.0,169.9 811.7,187.4 808.3,196.0C805.6,202.8 797.3,216.0 792.0,222.0L788.9,225.5L789.5,220.3ZM1492.0,212.5C1487.9,208.4 1484.8,205.0 1485.1,205.0C1485.3,205.0 1488.9,208.4 1493.0,212.5C1497.1,216.6 1500.2,220.0 1499.9,220.0C1499.7,220.0 1496.1,216.6 1492.0,212.5ZM565.0,217.6C565.0,217.4 565.8,216.6 566.8,215.9L568.5,214.5L567.1,216.2C565.8,217.9 565.0,218.4 565.0,217.6ZM927.1,214.0C913.1,211.2 901.9,205.3 886.6,192.6C876.8,184.5 873.4,176.6 878.0,172.5L879.9,170.7L882.7,171.9C884.3,172.5 889.1,176.5 893.5,180.6C907.0,193.3 911.1,196.5 922.5,203.3C928.5,206.9 935.1,211.3 937.0,212.9L940.5,215.9L938.5,215.9C937.4,215.9 932.3,215.0 927.1,214.0ZM1760.2,210.5C1760.2,208.8 1760.4,208.3 1760.7,209.3C1760.9,210.2 1760.9,211.6 1760.7,212.3C1760.4,212.9 1760.2,212.2 1760.2,210.5ZM273.2,210.0C273.2,208.6 273.4,208.1 273.7,208.8C273.9,209.4 273.9,210.6 273.7,211.2C273.4,211.9 273.2,211.4 273.2,210.0ZM576.0,207.6C576.0,207.4 576.8,206.6 577.8,205.9L579.5,204.5L578.1,206.2C576.8,207.9 576.0,208.4 576.0,207.6ZM897.2,153.4C883.2,149.7 858.9,137.8 852.3,131.5L848.0,127.3L848.0,123.8C848.0,119.1 850.8,116.5 855.1,117.4C856.8,117.7 864.4,121.8 872.0,126.4C889.8,137.3 893.9,139.4 907.9,144.2C914.3,146.4 922.6,149.7 926.5,151.5L933.5,154.8L918.0,154.8C907.6,154.9 900.7,154.4 897.2,153.4Z"/>
</svg>
