<svg color="#FFFFFF" xmlns="http://www.w3.org/2000/svg" viewBox="320.63 53.63 174.98 159.73" width="420" height="383">
<g><g fill="currentColor">
    <path d="m446.821,66.5425c26.5998,11.4204,45.2364,37.851,45.2364,68.6278,0,41.2242-33.4308,74.6551-74.6545,74.6551-18.4554,0-35.3454-6.70442-48.3768-17.805,8.06162,3.4572,16.8702,5.5458,26.1504,5.9508,41.1846,1.7982,76.0418-30.1422,77.8398-71.3268,1.04399-23.9112-9.28683-45.6876-26.1954-60.1017z" />
    <path d="m375.616,121.42,8.4582-26.0328-22.1448,16.089,27.3726,0-22.1448-16.089z" />
    <g transform="translate(0,-38.400051)"><path d="m375.616,121.42,8.4582-26.0328-22.1448,16.089,27.3726,0-22.1448-16.089z" />
    </g><g transform="translate(37.936928,-18.722051)"><path d="m375.616,121.42,8.4582-26.0328-22.1448,16.089,27.3726,0-22.1448-16.089z" />
    </g><g transform="translate(-37.936072,18.721949)"><path d="m375.616,121.42,8.4582-26.0328-22.1448,16.089,27.3726,0-22.1448-16.089z" />
    </g><g transform="translate(0,38.399949)"><path d="m375.616,121.42,8.4582-26.0328-22.1448,16.089,27.3726,0-22.1448-16.089z" />
    </g></g>
  </g>
</svg>
