<?xml version="1.0" encoding="UTF-8" standalone="no"?>
<!-- Created with Inkscape (http://www.inkscape.org/) -->

<svg
   xmlns:dc="http://purl.org/dc/elements/1.1/"
   xmlns:cc="http://creativecommons.org/ns#"
   xmlns:rdf="http://www.w3.org/1999/02/22-rdf-syntax-ns#"
   xmlns:svg="http://www.w3.org/2000/svg"
   xmlns="http://www.w3.org/2000/svg"
   xmlns:xlink="http://www.w3.org/1999/xlink"
   xmlns:sodipodi="http://sodipodi.sourceforge.net/DTD/sodipodi-0.dtd"
   xmlns:inkscape="http://www.inkscape.org/namespaces/inkscape"
   version="1.0"
   width="599.99994"
   height="660"
   id="svg1353"
   inkscape:version="0.47 r22583"
   sodipodi:docname="ZZ1.svg">
  <metadata
     id="metadata13">
    <rdf:RDF>
      <cc:Work
         rdf:about="">
        <dc:format>image/svg+xml</dc:format>
        <dc:type
           rdf:resource="http://purl.org/dc/dcmitype/StillImage" />
      </cc:Work>
    </rdf:RDF>
  </metadata>
  <sodipodi:namedview
     pagecolor="#ffffff"
     bordercolor="#666666"
     borderopacity="1"
     objecttolerance="10"
     gridtolerance="10"
     guidetolerance="10"
     inkscape:pageopacity="0"
     inkscape:pageshadow="2"
     inkscape:window-width="1280"
     inkscape:window-height="1004"
     id="namedview11"
     showgrid="false"
     inkscape:zoom="0.46354778"
     inkscape:cx="561.67829"
     inkscape:cy="201.17008"
     inkscape:window-x="-8"
     inkscape:window-y="-8"
     inkscape:window-maximized="1"
     inkscape:current-layer="svg1353" />
  <defs
     id="defs1358">
    <inkscape:perspective
       sodipodi:type="inkscape:persp3d"
       inkscape:vp_x="0 : 720 : 1"
       inkscape:vp_y="0 : 1000 : 0"
       inkscape:vp_z="2880 : 720 : 1"
       inkscape:persp3d-origin="1440 : 480 : 1"
       id="perspective15" />
  </defs>
  <polygon
     points="0.95105652,-0.30901699 -0.58778525,0.80901699 0,-1 0,-1 0.58778525,0.80901699 -0.95105652,-0.30901699 "
     transform="matrix(105.14622,0,0,105.14622,299.99996,574.9349)"
     id="polygon1441"
     style="fill:#002b7f;fill-opacity:1" />
  <polygon
     points="0.95105652,-0.30901699 -0.58778525,0.80901699 0,-1 0,-1 0.58778525,0.80901699 -0.95105652,-0.30901699 "
     transform="matrix(84.116958,0,0,82.917961,79.999981,262.91796)"
     id="polygon1449"
     style="fill:#002b7f;fill-opacity:1" />
  <polygon
     points="0.95105652,-0.30901699 -0.58778525,0.80901699 0,-1 0,-1 0.58778525,0.80901699 -0.95105652,-0.30901699 "
     transform="matrix(78.859659,0,0,77.390097,524.99994,227.39006)"
     id="polygon1451"
     style="fill:#002b7f;fill-opacity:1" />
  <use
     transform="translate(220,-180)"
     id="use2402"
     x="0"
     y="0"
     width="288"
     height="144"
     xlink:href="#polygon1449"
     style="fill:#002b7f;fill-opacity:1" />
  <polygon
     points="0.95105652,-0.30901699 -0.58778525,0.80901699 0,-1 0,-1 0.58778525,0.80901699 -0.95105652,-0.30901699 "
     transform="matrix(52.573095,0,0,52.573095,409.99995,387.46725)"
     id="polygon1455"
     style="fill:#002b7f;fill-opacity:1" />
</svg>
